M48
; DRILL file {KiCad (6.0.4)} date Thu Aug 25 17:01:00 2022
; FORMAT={-:-/ absolute / metric / decimal}
; #@! TF.CreationDate,2022-08-25T17:01:00-03:00
; #@! TF.GenerationSoftware,Kicad,Pcbnew,(6.0.4)
; #@! TF.FileFunction,Plated,1,4,PTH
FMAT,2
METRIC
; #@! TA.AperFunction,Plated,PTH,ViaDrill
T1C0.300
; #@! TA.AperFunction,Plated,PTH,ViaDrill
T2C0.400
; #@! TA.AperFunction,Plated,PTH,ComponentDrill
T3C0.750
; #@! TA.AperFunction,Plated,PTH,ComponentDrill
T4C1.100
; #@! TA.AperFunction,Plated,PTH,ComponentDrill
T5C1.400
; #@! TA.AperFunction,Plated,PTH,ComponentDrill
T6C1.500
%
G90
G05
T1
X54.3Y-40.1
X55.5Y-42.8
X56.7Y-34.5
X57.0Y-41.4
X61.4Y-54.5
X63.8Y-49.2
X65.7Y-48.0
T2
X47.96Y-54.0
X47.993Y-42.0
X48.0Y-34.0
X48.0Y-46.0
X48.0Y-58.0
X52.0Y-34.0
X52.0Y-42.0
X53.0Y-54.0
X53.0Y-58.0
X54.7Y-29.2
X55.4Y-44.8
X57.0Y-54.0
X58.8Y-34.2
X59.7Y-28.5
X60.7Y-33.2
X61.2Y-47.05
X61.5Y-29.0
X63.0Y-61.0
X63.0Y-65.0
X63.0Y-69.0
X63.4Y-29.0
X63.7Y-25.1
X63.7Y-27.0
X63.8Y-32.0
X65.0Y-55.0
X65.1Y-36.0
X65.4Y-28.0
X65.7Y-45.5
X66.0Y-32.3
X67.0Y-24.0
X67.2Y-61.3
X67.3Y-58.1
X67.65Y-47.3
X67.9Y-53.6
X68.237Y-27.1
X68.3Y-52.5
X68.9Y-44.3
X69.1Y-53.9
X70.4Y-43.1
X70.5Y-42.1
X71.6Y-43.4
X71.8Y-34.5
X71.8Y-35.5
X72.1Y-33.1
X74.4Y-58.0
X75.2Y-55.6
X77.0Y-49.3
X78.1Y-50.9
X78.1Y-52.5
X78.4Y-37.8
X78.993Y-50.893
X79.0Y-52.5
X79.02Y-42.0
X79.02Y-46.0
X83.0Y-58.0
X83.016Y-53.998
X83.02Y-38.0
X83.02Y-42.0
X83.02Y-46.0
X83.02Y-50.0
X83.02Y-62.0
X83.02Y-66.0
X84.0Y-24.1
X87.0Y-50.0
X87.0Y-58.0
X87.02Y-42.0
X87.02Y-46.0
X87.02Y-54.0
X88.9Y-29.1
X88.9Y-31.7
X88.9Y-34.2
T3
X51.5Y-28.525
X51.5Y-30.525
T4
X51.45Y-47.25
X51.45Y-51.75
X57.95Y-47.25
X57.95Y-51.75
T5
X73.4Y-66.8
T6
X70.85Y-64.25
X70.85Y-69.35
X75.95Y-64.25
X75.95Y-69.35
T0
M30
