%TF.GenerationSoftware,KiCad,Pcbnew,(6.0.4)*%
%TF.CreationDate,2022-08-25T17:00:53-03:00*%
%TF.ProjectId,rf-system-transmitter,72662d73-7973-4746-956d-2d7472616e73,rev?*%
%TF.SameCoordinates,Original*%
%TF.FileFunction,Copper,L4,Bot*%
%TF.FilePolarity,Positive*%
%FSLAX46Y46*%
G04 Gerber Fmt 4.6, Leading zero omitted, Abs format (unit mm)*
G04 Created by KiCad (PCBNEW (6.0.4)) date 2022-08-25 17:00:53*
%MOMM*%
%LPD*%
G01*
G04 APERTURE LIST*
G04 Aperture macros list*
%AMRoundRect*
0 Rectangle with rounded corners*
0 $1 Rounding radius*
0 $2 $3 $4 $5 $6 $7 $8 $9 X,Y pos of 4 corners*
0 Add a 4 corners polygon primitive as box body*
4,1,4,$2,$3,$4,$5,$6,$7,$8,$9,$2,$3,0*
0 Add four circle primitives for the rounded corners*
1,1,$1+$1,$2,$3*
1,1,$1+$1,$4,$5*
1,1,$1+$1,$6,$7*
1,1,$1+$1,$8,$9*
0 Add four rect primitives between the rounded corners*
20,1,$1+$1,$2,$3,$4,$5,0*
20,1,$1+$1,$4,$5,$6,$7,0*
20,1,$1+$1,$6,$7,$8,$9,0*
20,1,$1+$1,$8,$9,$2,$3,0*%
G04 Aperture macros list end*
%TA.AperFunction,ComponentPad*%
%ADD10RoundRect,0.250000X-0.625000X0.350000X-0.625000X-0.350000X0.625000X-0.350000X0.625000X0.350000X0*%
%TD*%
%TA.AperFunction,ComponentPad*%
%ADD11O,1.750000X1.200000*%
%TD*%
%TA.AperFunction,ComponentPad*%
%ADD12C,2.100000*%
%TD*%
%TA.AperFunction,ComponentPad*%
%ADD13C,2.250000*%
%TD*%
%TA.AperFunction,ComponentPad*%
%ADD14C,2.000000*%
%TD*%
%TA.AperFunction,ViaPad*%
%ADD15C,0.700000*%
%TD*%
%TA.AperFunction,ViaPad*%
%ADD16C,0.800000*%
%TD*%
%TA.AperFunction,Conductor*%
%ADD17C,0.250000*%
%TD*%
G04 APERTURE END LIST*
D10*
%TO.P,J1,1,Pin_1*%
%TO.N,GND*%
X51500000Y-28525000D03*
D11*
%TO.P,J1,2,Pin_2*%
%TO.N,+3V7*%
X51500000Y-30525000D03*
%TD*%
D12*
%TO.P,J2,1,1*%
%TO.N,Net-(C13-Pad2)*%
X73400000Y-66800000D03*
D13*
%TO.P,J2,2,2*%
%TO.N,GND*%
X75950000Y-69350000D03*
%TO.P,J2,3,3*%
X75950000Y-64250000D03*
%TO.P,J2,4,4*%
X70850000Y-64250000D03*
%TO.P,J2,5,5*%
X70850000Y-69350000D03*
%TD*%
D14*
%TO.P,SW1,1,1*%
%TO.N,NRST*%
X57950000Y-47250000D03*
X51450000Y-47250000D03*
%TO.P,SW1,2,2*%
%TO.N,GND*%
X57950000Y-51750000D03*
X51450000Y-51750000D03*
%TD*%
D15*
%TO.N,GND*%
X54300000Y-40100000D03*
D16*
X52000000Y-42000000D03*
X63400000Y-29000000D03*
X75200000Y-55600000D03*
X63000000Y-69000000D03*
X61200000Y-47050000D03*
X65000000Y-55000000D03*
X88900000Y-31700000D03*
X53000000Y-54000000D03*
D15*
X61400000Y-54500000D03*
D16*
X72100000Y-33100000D03*
X54700000Y-29200000D03*
X52000000Y-34000000D03*
X67650000Y-47300000D03*
X47960375Y-54000000D03*
X59700000Y-28500000D03*
X69100000Y-53900000D03*
X83020073Y-62000000D03*
X65400000Y-28000000D03*
X88900000Y-29100000D03*
X48000000Y-46000000D03*
X79020073Y-42000000D03*
X68300000Y-52500000D03*
X71800000Y-35500000D03*
X83015554Y-53998146D03*
X67300000Y-58100000D03*
X83020073Y-38000000D03*
X58800000Y-34200000D03*
X48000000Y-34000000D03*
X78400000Y-37800000D03*
X63700000Y-27000000D03*
D15*
X63800000Y-49200000D03*
D16*
X78100000Y-52500000D03*
X67200000Y-61300000D03*
X57000000Y-54000000D03*
X79020073Y-46000000D03*
X83020073Y-46000000D03*
D15*
X55500000Y-42800000D03*
D16*
X83000000Y-58000000D03*
X47993482Y-42000000D03*
X48000000Y-58000000D03*
D15*
X56700000Y-34500000D03*
D16*
X87020073Y-46000000D03*
X83020073Y-50000000D03*
X87000000Y-58000000D03*
X63800000Y-32000000D03*
X83020073Y-42000000D03*
X63000000Y-65000000D03*
X83020073Y-66000000D03*
X53000000Y-58000000D03*
X79000000Y-52500000D03*
X84000000Y-24100000D03*
X70400000Y-43100000D03*
X67000000Y-24000000D03*
X87020073Y-54000000D03*
X63000000Y-61000000D03*
D15*
X57000000Y-41400000D03*
D16*
X87000000Y-50000000D03*
X77000000Y-49300000D03*
X68900000Y-44300000D03*
X74400000Y-58000000D03*
X87020073Y-42000000D03*
%TO.N,+3V3*%
X78992988Y-50892899D03*
X63700000Y-25100000D03*
X78100000Y-50900000D03*
X61500000Y-29000000D03*
X88900000Y-34200000D03*
X71600000Y-43400000D03*
X68237500Y-27100000D03*
X55400000Y-44800000D03*
X60700000Y-33200000D03*
X71800000Y-34500000D03*
X67900000Y-53600000D03*
X70500000Y-42100000D03*
%TO.N,NRST*%
X65100000Y-36000000D03*
X66000000Y-32300000D03*
%TO.N,SPI_MOSI*%
X65700000Y-45500000D03*
D15*
X65700000Y-48000000D03*
%TD*%
D17*
%TO.N,NRST*%
X66000000Y-32300000D02*
X66000000Y-35100000D01*
X66000000Y-35100000D02*
X65100000Y-36000000D01*
%TO.N,SPI_MOSI*%
X65700000Y-45500000D02*
X65700000Y-48000000D01*
%TD*%
%TA.AperFunction,Conductor*%
%TO.N,GND*%
G36*
X86970018Y-22510000D02*
G01*
X86984852Y-22512310D01*
X86984855Y-22512310D01*
X86993724Y-22513691D01*
X87002627Y-22512527D01*
X87002628Y-22512527D01*
X87013076Y-22511161D01*
X87035594Y-22510249D01*
X87336051Y-22525010D01*
X87348345Y-22526221D01*
X87675034Y-22574680D01*
X87687156Y-22577090D01*
X87781196Y-22600646D01*
X88007523Y-22657339D01*
X88019355Y-22660928D01*
X88330311Y-22772190D01*
X88341735Y-22776922D01*
X88409500Y-22808972D01*
X88640292Y-22918128D01*
X88651188Y-22923953D01*
X88792101Y-23008412D01*
X88934467Y-23093744D01*
X88944748Y-23100614D01*
X89210017Y-23297350D01*
X89219556Y-23305177D01*
X89464282Y-23526985D01*
X89473015Y-23535718D01*
X89694823Y-23780444D01*
X89702650Y-23789983D01*
X89803746Y-23926296D01*
X89899386Y-24055252D01*
X89906256Y-24065533D01*
X89929615Y-24104505D01*
X90034374Y-24279283D01*
X90076045Y-24348807D01*
X90081874Y-24359712D01*
X90223078Y-24658265D01*
X90227810Y-24669689D01*
X90339072Y-24980645D01*
X90342661Y-24992477D01*
X90374939Y-25121337D01*
X90417170Y-25289928D01*
X90422909Y-25312841D01*
X90425320Y-25324966D01*
X90472326Y-25641852D01*
X90473779Y-25651650D01*
X90474990Y-25663949D01*
X90486152Y-25891118D01*
X90489390Y-25957034D01*
X90488042Y-25982598D01*
X90486309Y-25993724D01*
X90488771Y-26012552D01*
X90490436Y-26025283D01*
X90491500Y-26041621D01*
X90491500Y-67450633D01*
X90490000Y-67470018D01*
X90486309Y-67493724D01*
X90487473Y-67502627D01*
X90487473Y-67502628D01*
X90488839Y-67513076D01*
X90489751Y-67535594D01*
X90483896Y-67654784D01*
X90474991Y-67836045D01*
X90473779Y-67848345D01*
X90429481Y-68146987D01*
X90425321Y-68175031D01*
X90422910Y-68187156D01*
X90421464Y-68192927D01*
X90342661Y-68507523D01*
X90339072Y-68519355D01*
X90227810Y-68830311D01*
X90223078Y-68841735D01*
X90147506Y-69001519D01*
X90087486Y-69128423D01*
X90081874Y-69140288D01*
X90076047Y-69151188D01*
X90014849Y-69253292D01*
X89906256Y-69434467D01*
X89899386Y-69444748D01*
X89888275Y-69459730D01*
X89702650Y-69710017D01*
X89694823Y-69719556D01*
X89528899Y-69902624D01*
X89473020Y-69964277D01*
X89464282Y-69973015D01*
X89219556Y-70194823D01*
X89210017Y-70202650D01*
X89015517Y-70346901D01*
X88944748Y-70399386D01*
X88934467Y-70406256D01*
X88792101Y-70491588D01*
X88651188Y-70576047D01*
X88640292Y-70581872D01*
X88505870Y-70645448D01*
X88341735Y-70723078D01*
X88330311Y-70727810D01*
X88019355Y-70839072D01*
X88007523Y-70842661D01*
X87781196Y-70899354D01*
X87687156Y-70922910D01*
X87675034Y-70925320D01*
X87348345Y-70973779D01*
X87336051Y-70974990D01*
X87042961Y-70989390D01*
X87017402Y-70988042D01*
X87006276Y-70986309D01*
X86974714Y-70990436D01*
X86958379Y-70991500D01*
X81626000Y-70991500D01*
X81557879Y-70971498D01*
X81511386Y-70917842D01*
X81500000Y-70865500D01*
X81500000Y-67632703D01*
X84890743Y-67632703D01*
X84891302Y-67636947D01*
X84891302Y-67636951D01*
X84907810Y-67762340D01*
X84928268Y-67917734D01*
X85004129Y-68195036D01*
X85005813Y-68198984D01*
X85056946Y-68318862D01*
X85116923Y-68459476D01*
X85264561Y-68706161D01*
X85444313Y-68930528D01*
X85652851Y-69128423D01*
X85886317Y-69296186D01*
X85890112Y-69298195D01*
X85890113Y-69298196D01*
X85911869Y-69309715D01*
X86140392Y-69430712D01*
X86410373Y-69529511D01*
X86691264Y-69590755D01*
X86719841Y-69593004D01*
X86914282Y-69608307D01*
X86914291Y-69608307D01*
X86916739Y-69608500D01*
X87072271Y-69608500D01*
X87074407Y-69608354D01*
X87074418Y-69608354D01*
X87282548Y-69594165D01*
X87282554Y-69594164D01*
X87286825Y-69593873D01*
X87291020Y-69593004D01*
X87291022Y-69593004D01*
X87460200Y-69557969D01*
X87568342Y-69535574D01*
X87839343Y-69439607D01*
X87927363Y-69394177D01*
X88091005Y-69309715D01*
X88091006Y-69309715D01*
X88094812Y-69307750D01*
X88098313Y-69305289D01*
X88098317Y-69305287D01*
X88212417Y-69225096D01*
X88330023Y-69142441D01*
X88540622Y-68946740D01*
X88722713Y-68724268D01*
X88872927Y-68479142D01*
X88878128Y-68467295D01*
X88986757Y-68219830D01*
X88988483Y-68215898D01*
X88995027Y-68192927D01*
X89066068Y-67943534D01*
X89067244Y-67939406D01*
X89107751Y-67654784D01*
X89107845Y-67636951D01*
X89109235Y-67371583D01*
X89109235Y-67371576D01*
X89109257Y-67367297D01*
X89071732Y-67082266D01*
X88995871Y-66804964D01*
X88883077Y-66540524D01*
X88735439Y-66293839D01*
X88555687Y-66069472D01*
X88432289Y-65952372D01*
X88350258Y-65874527D01*
X88350255Y-65874525D01*
X88347149Y-65871577D01*
X88113683Y-65703814D01*
X88096219Y-65694567D01*
X88068654Y-65679972D01*
X87859608Y-65569288D01*
X87589627Y-65470489D01*
X87308736Y-65409245D01*
X87277685Y-65406801D01*
X87085718Y-65391693D01*
X87085709Y-65391693D01*
X87083261Y-65391500D01*
X86927729Y-65391500D01*
X86925593Y-65391646D01*
X86925582Y-65391646D01*
X86717452Y-65405835D01*
X86717446Y-65405836D01*
X86713175Y-65406127D01*
X86708980Y-65406996D01*
X86708978Y-65406996D01*
X86572416Y-65435277D01*
X86431658Y-65464426D01*
X86160657Y-65560393D01*
X85905188Y-65692250D01*
X85901687Y-65694711D01*
X85901683Y-65694713D01*
X85891594Y-65701804D01*
X85669977Y-65857559D01*
X85459378Y-66053260D01*
X85277287Y-66275732D01*
X85127073Y-66520858D01*
X85011517Y-66784102D01*
X84932756Y-67060594D01*
X84892249Y-67345216D01*
X84892227Y-67349505D01*
X84892226Y-67349512D01*
X84890765Y-67628417D01*
X84890743Y-67632703D01*
X81500000Y-67632703D01*
X81500000Y-60971489D01*
X84711227Y-60971489D01*
X84713096Y-61000000D01*
X84724263Y-61170380D01*
X84773326Y-61363564D01*
X84775743Y-61368807D01*
X84812265Y-61448029D01*
X84856772Y-61544573D01*
X84971807Y-61707344D01*
X85114578Y-61846425D01*
X85280304Y-61957160D01*
X85285607Y-61959438D01*
X85285610Y-61959440D01*
X85458128Y-62033559D01*
X85463435Y-62035839D01*
X85535516Y-62052149D01*
X85652201Y-62078553D01*
X85652207Y-62078554D01*
X85657838Y-62079828D01*
X85663609Y-62080055D01*
X85663611Y-62080055D01*
X85724556Y-62082449D01*
X85857001Y-62087653D01*
X85956959Y-62073160D01*
X86048535Y-62059883D01*
X86048540Y-62059882D01*
X86054256Y-62059053D01*
X86059728Y-62057195D01*
X86059730Y-62057195D01*
X86237532Y-61996839D01*
X86237534Y-61996838D01*
X86242996Y-61994984D01*
X86416899Y-61897594D01*
X86570143Y-61770143D01*
X86697594Y-61616899D01*
X86794984Y-61442996D01*
X86859053Y-61254256D01*
X86859882Y-61248540D01*
X86859883Y-61248535D01*
X86876918Y-61131039D01*
X86887653Y-61057001D01*
X86889146Y-61000000D01*
X86870908Y-60801519D01*
X86816805Y-60609685D01*
X86803746Y-60583202D01*
X86731205Y-60436104D01*
X86728650Y-60430923D01*
X86609393Y-60271219D01*
X86463030Y-60135922D01*
X86458147Y-60132841D01*
X86458143Y-60132838D01*
X86299346Y-60032645D01*
X86299341Y-60032643D01*
X86294462Y-60029564D01*
X86109334Y-59955705D01*
X85913847Y-59916820D01*
X85908072Y-59916744D01*
X85908068Y-59916744D01*
X85808588Y-59915442D01*
X85714547Y-59914211D01*
X85708850Y-59915190D01*
X85708849Y-59915190D01*
X85692805Y-59917947D01*
X85518108Y-59947966D01*
X85331111Y-60016953D01*
X85159816Y-60118862D01*
X85009961Y-60250281D01*
X84886565Y-60406809D01*
X84793760Y-60583202D01*
X84734654Y-60773554D01*
X84711227Y-60971489D01*
X81500000Y-60971489D01*
X81500000Y-56500000D01*
X79000000Y-54000000D01*
X68898709Y-54000000D01*
X68830588Y-53979998D01*
X68784095Y-53926342D01*
X68773991Y-53856068D01*
X68778874Y-53835070D01*
X68793542Y-53789928D01*
X68813504Y-53600000D01*
X68793542Y-53410072D01*
X68734527Y-53228444D01*
X68639040Y-53063056D01*
X68613896Y-53035130D01*
X68515675Y-52926045D01*
X68515674Y-52926044D01*
X68511253Y-52921134D01*
X68356752Y-52808882D01*
X68350724Y-52806198D01*
X68350722Y-52806197D01*
X68188319Y-52733891D01*
X68188318Y-52733891D01*
X68182288Y-52731206D01*
X68088887Y-52711353D01*
X68001944Y-52692872D01*
X68001939Y-52692872D01*
X67995487Y-52691500D01*
X67804513Y-52691500D01*
X67798061Y-52692872D01*
X67798056Y-52692872D01*
X67711113Y-52711353D01*
X67617712Y-52731206D01*
X67611682Y-52733891D01*
X67611681Y-52733891D01*
X67449278Y-52806197D01*
X67449276Y-52806198D01*
X67443248Y-52808882D01*
X67288747Y-52921134D01*
X67284326Y-52926044D01*
X67284325Y-52926045D01*
X67219636Y-52997890D01*
X67159191Y-53035130D01*
X67088207Y-53033778D01*
X67029222Y-52994265D01*
X67000964Y-52929134D01*
X67000000Y-52913580D01*
X67000000Y-50900000D01*
X77186496Y-50900000D01*
X77187186Y-50906565D01*
X77205712Y-51082827D01*
X77206458Y-51089928D01*
X77265473Y-51271556D01*
X77268776Y-51277278D01*
X77268777Y-51277279D01*
X77274605Y-51287373D01*
X77360960Y-51436944D01*
X77488747Y-51578866D01*
X77587843Y-51650864D01*
X77628133Y-51680136D01*
X77643248Y-51691118D01*
X77649276Y-51693802D01*
X77649278Y-51693803D01*
X77811677Y-51766107D01*
X77817712Y-51768794D01*
X77911112Y-51788647D01*
X77998056Y-51807128D01*
X77998061Y-51807128D01*
X78004513Y-51808500D01*
X78195487Y-51808500D01*
X78201939Y-51807128D01*
X78201944Y-51807128D01*
X78340660Y-51777642D01*
X78382288Y-51768794D01*
X78388321Y-51766108D01*
X78388324Y-51766107D01*
X78503221Y-51714952D01*
X78573588Y-51705518D01*
X78605717Y-51714952D01*
X78704664Y-51759006D01*
X78704667Y-51759007D01*
X78710700Y-51761693D01*
X78750562Y-51770166D01*
X78891044Y-51800027D01*
X78891049Y-51800027D01*
X78897501Y-51801399D01*
X79088475Y-51801399D01*
X79094927Y-51800027D01*
X79094932Y-51800027D01*
X79181876Y-51781546D01*
X79275276Y-51761693D01*
X79312612Y-51745070D01*
X79443710Y-51686702D01*
X79443712Y-51686701D01*
X79449740Y-51684017D01*
X79604241Y-51571765D01*
X79652380Y-51518301D01*
X79727609Y-51434751D01*
X79727610Y-51434750D01*
X79732028Y-51429843D01*
X79827515Y-51264455D01*
X79886530Y-51082827D01*
X79888106Y-51067837D01*
X79905802Y-50899464D01*
X79906492Y-50892899D01*
X79887966Y-50716635D01*
X79887220Y-50709534D01*
X79887220Y-50709532D01*
X79886530Y-50702971D01*
X79827515Y-50521343D01*
X79820782Y-50509680D01*
X79739429Y-50368774D01*
X79732028Y-50355955D01*
X79690846Y-50310217D01*
X79608663Y-50218944D01*
X79608662Y-50218943D01*
X79604241Y-50214033D01*
X79505145Y-50142035D01*
X79455082Y-50105662D01*
X79455081Y-50105661D01*
X79449740Y-50101781D01*
X79443712Y-50099097D01*
X79443710Y-50099096D01*
X79281307Y-50026790D01*
X79281306Y-50026790D01*
X79275276Y-50024105D01*
X79181875Y-50004252D01*
X79094932Y-49985771D01*
X79094927Y-49985771D01*
X79088475Y-49984399D01*
X78897501Y-49984399D01*
X78891049Y-49985771D01*
X78891044Y-49985771D01*
X78752328Y-50015257D01*
X78710700Y-50024105D01*
X78704667Y-50026791D01*
X78704664Y-50026792D01*
X78589767Y-50077947D01*
X78519400Y-50087381D01*
X78487271Y-50077947D01*
X78388324Y-50033893D01*
X78388321Y-50033892D01*
X78382288Y-50031206D01*
X78340660Y-50022358D01*
X78201944Y-49992872D01*
X78201939Y-49992872D01*
X78195487Y-49991500D01*
X78004513Y-49991500D01*
X77998061Y-49992872D01*
X77998056Y-49992872D01*
X77911113Y-50011353D01*
X77817712Y-50031206D01*
X77811682Y-50033891D01*
X77811681Y-50033891D01*
X77649278Y-50106197D01*
X77649276Y-50106198D01*
X77643248Y-50108882D01*
X77488747Y-50221134D01*
X77484326Y-50226044D01*
X77484325Y-50226045D01*
X77456350Y-50257115D01*
X77360960Y-50363056D01*
X77265473Y-50528444D01*
X77206458Y-50710072D01*
X77186496Y-50900000D01*
X67000000Y-50900000D01*
X67000000Y-48000000D01*
X66676680Y-48000000D01*
X66608559Y-47979998D01*
X66562066Y-47926342D01*
X66551370Y-47887171D01*
X66545055Y-47827089D01*
X66545055Y-47827088D01*
X66544365Y-47820525D01*
X66488599Y-47648893D01*
X66398367Y-47492607D01*
X66365864Y-47456509D01*
X66335147Y-47392501D01*
X66333500Y-47372198D01*
X66333500Y-46202524D01*
X66353502Y-46134403D01*
X66365858Y-46118221D01*
X66439040Y-46036944D01*
X66534527Y-45871556D01*
X66593542Y-45689928D01*
X66596046Y-45666109D01*
X66612814Y-45506565D01*
X66613504Y-45500000D01*
X66596882Y-45341852D01*
X66594232Y-45316635D01*
X66594232Y-45316633D01*
X66593542Y-45310072D01*
X66534527Y-45128444D01*
X66439040Y-44963056D01*
X66311253Y-44821134D01*
X66156752Y-44708882D01*
X66150724Y-44706198D01*
X66150722Y-44706197D01*
X65988319Y-44633891D01*
X65988318Y-44633891D01*
X65982288Y-44631206D01*
X65882861Y-44610072D01*
X65801944Y-44592872D01*
X65801939Y-44592872D01*
X65795487Y-44591500D01*
X65604513Y-44591500D01*
X65598061Y-44592872D01*
X65598056Y-44592872D01*
X65517139Y-44610072D01*
X65417712Y-44631206D01*
X65411682Y-44633891D01*
X65411681Y-44633891D01*
X65249278Y-44706197D01*
X65249276Y-44706198D01*
X65243248Y-44708882D01*
X65088747Y-44821134D01*
X64960960Y-44963056D01*
X64865473Y-45128444D01*
X64806458Y-45310072D01*
X64805768Y-45316633D01*
X64805768Y-45316635D01*
X64803118Y-45341852D01*
X64786496Y-45500000D01*
X64787186Y-45506565D01*
X64803955Y-45666109D01*
X64806458Y-45689928D01*
X64865473Y-45871556D01*
X64960960Y-46036944D01*
X65034137Y-46118215D01*
X65064853Y-46182221D01*
X65066500Y-46202524D01*
X65066500Y-47372198D01*
X65046498Y-47440319D01*
X65034137Y-47456508D01*
X65001633Y-47492607D01*
X64911401Y-47648893D01*
X64855635Y-47820525D01*
X64854945Y-47827088D01*
X64854945Y-47827089D01*
X64848630Y-47887171D01*
X64821616Y-47952828D01*
X64763395Y-47993457D01*
X64723320Y-48000000D01*
X60000000Y-48000000D01*
X60000000Y-56000000D01*
X64958290Y-60462461D01*
X64995543Y-60522899D01*
X65000000Y-60556116D01*
X65000000Y-70865500D01*
X64979998Y-70933621D01*
X64926342Y-70980114D01*
X64874000Y-70991500D01*
X50049367Y-70991500D01*
X50029982Y-70990000D01*
X50015148Y-70987690D01*
X50015145Y-70987690D01*
X50006276Y-70986309D01*
X49997373Y-70987473D01*
X49997372Y-70987473D01*
X49986924Y-70988839D01*
X49964406Y-70989751D01*
X49663949Y-70974990D01*
X49651655Y-70973779D01*
X49324966Y-70925320D01*
X49312844Y-70922910D01*
X49218804Y-70899354D01*
X48992477Y-70842661D01*
X48980645Y-70839072D01*
X48669689Y-70727810D01*
X48658265Y-70723078D01*
X48494130Y-70645448D01*
X48359708Y-70581872D01*
X48348812Y-70576047D01*
X48207899Y-70491588D01*
X48065533Y-70406256D01*
X48055252Y-70399386D01*
X47984483Y-70346901D01*
X47789983Y-70202650D01*
X47780444Y-70194823D01*
X47535718Y-69973015D01*
X47526980Y-69964277D01*
X47471101Y-69902624D01*
X47305177Y-69719556D01*
X47297350Y-69710017D01*
X47111725Y-69459730D01*
X47100614Y-69444748D01*
X47093744Y-69434467D01*
X46985151Y-69253292D01*
X46923953Y-69151188D01*
X46918126Y-69140288D01*
X46912515Y-69128423D01*
X46852494Y-69001519D01*
X46776922Y-68841735D01*
X46772190Y-68830311D01*
X46660928Y-68519355D01*
X46657339Y-68507523D01*
X46578536Y-68192927D01*
X46577090Y-68187156D01*
X46574679Y-68175031D01*
X46570519Y-68146987D01*
X46526220Y-67848343D01*
X46525009Y-67836045D01*
X46515020Y-67632703D01*
X47890743Y-67632703D01*
X47891302Y-67636947D01*
X47891302Y-67636951D01*
X47907810Y-67762340D01*
X47928268Y-67917734D01*
X48004129Y-68195036D01*
X48005813Y-68198984D01*
X48056946Y-68318862D01*
X48116923Y-68459476D01*
X48264561Y-68706161D01*
X48444313Y-68930528D01*
X48652851Y-69128423D01*
X48886317Y-69296186D01*
X48890112Y-69298195D01*
X48890113Y-69298196D01*
X48911869Y-69309715D01*
X49140392Y-69430712D01*
X49410373Y-69529511D01*
X49691264Y-69590755D01*
X49719841Y-69593004D01*
X49914282Y-69608307D01*
X49914291Y-69608307D01*
X49916739Y-69608500D01*
X50072271Y-69608500D01*
X50074407Y-69608354D01*
X50074418Y-69608354D01*
X50282548Y-69594165D01*
X50282554Y-69594164D01*
X50286825Y-69593873D01*
X50291020Y-69593004D01*
X50291022Y-69593004D01*
X50460200Y-69557969D01*
X50568342Y-69535574D01*
X50839343Y-69439607D01*
X50927363Y-69394177D01*
X51091005Y-69309715D01*
X51091006Y-69309715D01*
X51094812Y-69307750D01*
X51098313Y-69305289D01*
X51098317Y-69305287D01*
X51212417Y-69225096D01*
X51288692Y-69171489D01*
X57311227Y-69171489D01*
X57313096Y-69200000D01*
X57324263Y-69370380D01*
X57325684Y-69375976D01*
X57325685Y-69375981D01*
X57364910Y-69530425D01*
X57373326Y-69563564D01*
X57375743Y-69568807D01*
X57412265Y-69648029D01*
X57456772Y-69744573D01*
X57571807Y-69907344D01*
X57575949Y-69911379D01*
X57631716Y-69965705D01*
X57714578Y-70046425D01*
X57880304Y-70157160D01*
X57885607Y-70159438D01*
X57885610Y-70159440D01*
X58058128Y-70233559D01*
X58063435Y-70235839D01*
X58135516Y-70252149D01*
X58252201Y-70278553D01*
X58252207Y-70278554D01*
X58257838Y-70279828D01*
X58263609Y-70280055D01*
X58263611Y-70280055D01*
X58324556Y-70282449D01*
X58457001Y-70287653D01*
X58556959Y-70273160D01*
X58648535Y-70259883D01*
X58648540Y-70259882D01*
X58654256Y-70259053D01*
X58659728Y-70257195D01*
X58659730Y-70257195D01*
X58837532Y-70196839D01*
X58837534Y-70196838D01*
X58842996Y-70194984D01*
X59016899Y-70097594D01*
X59170143Y-69970143D01*
X59297594Y-69816899D01*
X59394984Y-69642996D01*
X59406744Y-69608354D01*
X59457195Y-69459730D01*
X59457195Y-69459728D01*
X59459053Y-69454256D01*
X59459882Y-69448540D01*
X59459883Y-69448535D01*
X59481680Y-69298196D01*
X59487653Y-69257001D01*
X59489146Y-69200000D01*
X59470908Y-69001519D01*
X59456283Y-68949661D01*
X59418373Y-68815244D01*
X59418372Y-68815242D01*
X59416805Y-68809685D01*
X59403746Y-68783202D01*
X59331205Y-68636104D01*
X59328650Y-68630923D01*
X59209393Y-68471219D01*
X59063030Y-68335922D01*
X59058147Y-68332841D01*
X59058143Y-68332838D01*
X58899346Y-68232645D01*
X58899341Y-68232643D01*
X58894462Y-68229564D01*
X58709334Y-68155705D01*
X58513847Y-68116820D01*
X58508072Y-68116744D01*
X58508068Y-68116744D01*
X58408588Y-68115442D01*
X58314547Y-68114211D01*
X58308850Y-68115190D01*
X58308849Y-68115190D01*
X58292805Y-68117947D01*
X58118108Y-68147966D01*
X57931111Y-68216953D01*
X57759816Y-68318862D01*
X57609961Y-68450281D01*
X57486565Y-68606809D01*
X57393760Y-68783202D01*
X57377323Y-68836139D01*
X57344011Y-68943421D01*
X57334654Y-68973554D01*
X57311227Y-69171489D01*
X51288692Y-69171489D01*
X51330023Y-69142441D01*
X51540622Y-68946740D01*
X51722713Y-68724268D01*
X51872927Y-68479142D01*
X51878128Y-68467295D01*
X51986757Y-68219830D01*
X51988483Y-68215898D01*
X51995027Y-68192927D01*
X52066068Y-67943534D01*
X52067244Y-67939406D01*
X52107751Y-67654784D01*
X52107845Y-67636951D01*
X52109235Y-67371583D01*
X52109235Y-67371576D01*
X52109257Y-67367297D01*
X52071732Y-67082266D01*
X51995871Y-66804964D01*
X51883077Y-66540524D01*
X51735439Y-66293839D01*
X51555687Y-66069472D01*
X51432289Y-65952372D01*
X51350258Y-65874527D01*
X51350255Y-65874525D01*
X51347149Y-65871577D01*
X51113683Y-65703814D01*
X51096219Y-65694567D01*
X51068654Y-65679972D01*
X50859608Y-65569288D01*
X50589627Y-65470489D01*
X50308736Y-65409245D01*
X50277685Y-65406801D01*
X50085718Y-65391693D01*
X50085709Y-65391693D01*
X50083261Y-65391500D01*
X49927729Y-65391500D01*
X49925593Y-65391646D01*
X49925582Y-65391646D01*
X49717452Y-65405835D01*
X49717446Y-65405836D01*
X49713175Y-65406127D01*
X49708980Y-65406996D01*
X49708978Y-65406996D01*
X49572416Y-65435277D01*
X49431658Y-65464426D01*
X49160657Y-65560393D01*
X48905188Y-65692250D01*
X48901687Y-65694711D01*
X48901683Y-65694713D01*
X48891594Y-65701804D01*
X48669977Y-65857559D01*
X48459378Y-66053260D01*
X48277287Y-66275732D01*
X48127073Y-66520858D01*
X48011517Y-66784102D01*
X47932756Y-67060594D01*
X47892249Y-67345216D01*
X47892227Y-67349505D01*
X47892226Y-67349512D01*
X47890765Y-67628417D01*
X47890743Y-67632703D01*
X46515020Y-67632703D01*
X46510795Y-67546695D01*
X46512387Y-67519619D01*
X46513576Y-67512552D01*
X46513729Y-67500000D01*
X46509773Y-67472376D01*
X46508500Y-67454514D01*
X46508500Y-52982670D01*
X50582160Y-52982670D01*
X50587887Y-52990320D01*
X50759042Y-53095205D01*
X50767837Y-53099687D01*
X50977988Y-53186734D01*
X50987373Y-53189783D01*
X51208554Y-53242885D01*
X51218301Y-53244428D01*
X51445070Y-53262275D01*
X51454930Y-53262275D01*
X51681699Y-53244428D01*
X51691446Y-53242885D01*
X51912627Y-53189783D01*
X51922012Y-53186734D01*
X52132163Y-53099687D01*
X52140958Y-53095205D01*
X52308445Y-52992568D01*
X52317400Y-52982670D01*
X57082160Y-52982670D01*
X57087887Y-52990320D01*
X57259042Y-53095205D01*
X57267837Y-53099687D01*
X57477988Y-53186734D01*
X57487373Y-53189783D01*
X57708554Y-53242885D01*
X57718301Y-53244428D01*
X57945070Y-53262275D01*
X57954930Y-53262275D01*
X58181699Y-53244428D01*
X58191446Y-53242885D01*
X58412627Y-53189783D01*
X58422012Y-53186734D01*
X58632163Y-53099687D01*
X58640958Y-53095205D01*
X58808445Y-52992568D01*
X58817907Y-52982110D01*
X58814124Y-52973334D01*
X57962812Y-52122022D01*
X57948868Y-52114408D01*
X57947035Y-52114539D01*
X57940420Y-52118790D01*
X57088920Y-52970290D01*
X57082160Y-52982670D01*
X52317400Y-52982670D01*
X52317907Y-52982110D01*
X52314124Y-52973334D01*
X51462812Y-52122022D01*
X51448868Y-52114408D01*
X51447035Y-52114539D01*
X51440420Y-52118790D01*
X50588920Y-52970290D01*
X50582160Y-52982670D01*
X46508500Y-52982670D01*
X46508500Y-51754930D01*
X49937725Y-51754930D01*
X49955572Y-51981699D01*
X49957115Y-51991446D01*
X50010217Y-52212627D01*
X50013266Y-52222012D01*
X50100313Y-52432163D01*
X50104795Y-52440958D01*
X50207432Y-52608445D01*
X50217890Y-52617907D01*
X50226666Y-52614124D01*
X51077978Y-51762812D01*
X51084356Y-51751132D01*
X51814408Y-51751132D01*
X51814539Y-51752965D01*
X51818790Y-51759580D01*
X52670290Y-52611080D01*
X52682670Y-52617840D01*
X52690320Y-52612113D01*
X52795205Y-52440958D01*
X52799687Y-52432163D01*
X52886734Y-52222012D01*
X52889783Y-52212627D01*
X52942885Y-51991446D01*
X52944428Y-51981699D01*
X52962275Y-51754930D01*
X56437725Y-51754930D01*
X56455572Y-51981699D01*
X56457115Y-51991446D01*
X56510217Y-52212627D01*
X56513266Y-52222012D01*
X56600313Y-52432163D01*
X56604795Y-52440958D01*
X56707432Y-52608445D01*
X56717890Y-52617907D01*
X56726666Y-52614124D01*
X57577978Y-51762812D01*
X57584356Y-51751132D01*
X58314408Y-51751132D01*
X58314539Y-51752965D01*
X58318790Y-51759580D01*
X59170290Y-52611080D01*
X59182670Y-52617840D01*
X59190320Y-52612113D01*
X59295205Y-52440958D01*
X59299687Y-52432163D01*
X59386734Y-52222012D01*
X59389783Y-52212627D01*
X59442885Y-51991446D01*
X59444428Y-51981699D01*
X59462275Y-51754930D01*
X59462275Y-51745070D01*
X59444428Y-51518301D01*
X59442885Y-51508554D01*
X59389783Y-51287373D01*
X59386734Y-51277988D01*
X59299687Y-51067837D01*
X59295205Y-51059042D01*
X59192568Y-50891555D01*
X59182110Y-50882093D01*
X59173334Y-50885876D01*
X58322022Y-51737188D01*
X58314408Y-51751132D01*
X57584356Y-51751132D01*
X57585592Y-51748868D01*
X57585461Y-51747035D01*
X57581210Y-51740420D01*
X56729710Y-50888920D01*
X56717330Y-50882160D01*
X56709680Y-50887887D01*
X56604795Y-51059042D01*
X56600313Y-51067837D01*
X56513266Y-51277988D01*
X56510217Y-51287373D01*
X56457115Y-51508554D01*
X56455572Y-51518301D01*
X56437725Y-51745070D01*
X56437725Y-51754930D01*
X52962275Y-51754930D01*
X52962275Y-51745070D01*
X52944428Y-51518301D01*
X52942885Y-51508554D01*
X52889783Y-51287373D01*
X52886734Y-51277988D01*
X52799687Y-51067837D01*
X52795205Y-51059042D01*
X52692568Y-50891555D01*
X52682110Y-50882093D01*
X52673334Y-50885876D01*
X51822022Y-51737188D01*
X51814408Y-51751132D01*
X51084356Y-51751132D01*
X51085592Y-51748868D01*
X51085461Y-51747035D01*
X51081210Y-51740420D01*
X50229710Y-50888920D01*
X50217330Y-50882160D01*
X50209680Y-50887887D01*
X50104795Y-51059042D01*
X50100313Y-51067837D01*
X50013266Y-51277988D01*
X50010217Y-51287373D01*
X49957115Y-51508554D01*
X49955572Y-51518301D01*
X49937725Y-51745070D01*
X49937725Y-51754930D01*
X46508500Y-51754930D01*
X46508500Y-50517890D01*
X50582093Y-50517890D01*
X50585876Y-50526666D01*
X51437188Y-51377978D01*
X51451132Y-51385592D01*
X51452965Y-51385461D01*
X51459580Y-51381210D01*
X52311080Y-50529710D01*
X52317534Y-50517890D01*
X57082093Y-50517890D01*
X57085876Y-50526666D01*
X57937188Y-51377978D01*
X57951132Y-51385592D01*
X57952965Y-51385461D01*
X57959580Y-51381210D01*
X58811080Y-50529710D01*
X58817840Y-50517330D01*
X58812113Y-50509680D01*
X58640958Y-50404795D01*
X58632163Y-50400313D01*
X58422012Y-50313266D01*
X58412627Y-50310217D01*
X58191446Y-50257115D01*
X58181699Y-50255572D01*
X57954930Y-50237725D01*
X57945070Y-50237725D01*
X57718301Y-50255572D01*
X57708554Y-50257115D01*
X57487373Y-50310217D01*
X57477988Y-50313266D01*
X57267837Y-50400313D01*
X57259042Y-50404795D01*
X57091555Y-50507432D01*
X57082093Y-50517890D01*
X52317534Y-50517890D01*
X52317840Y-50517330D01*
X52312113Y-50509680D01*
X52140958Y-50404795D01*
X52132163Y-50400313D01*
X51922012Y-50313266D01*
X51912627Y-50310217D01*
X51691446Y-50257115D01*
X51681699Y-50255572D01*
X51454930Y-50237725D01*
X51445070Y-50237725D01*
X51218301Y-50255572D01*
X51208554Y-50257115D01*
X50987373Y-50310217D01*
X50977988Y-50313266D01*
X50767837Y-50400313D01*
X50759042Y-50404795D01*
X50591555Y-50507432D01*
X50582093Y-50517890D01*
X46508500Y-50517890D01*
X46508500Y-47250000D01*
X49936835Y-47250000D01*
X49955465Y-47486711D01*
X49956619Y-47491518D01*
X49956620Y-47491524D01*
X49958254Y-47498328D01*
X50010895Y-47717594D01*
X50012788Y-47722165D01*
X50012789Y-47722167D01*
X50097361Y-47926342D01*
X50101760Y-47936963D01*
X50104346Y-47941183D01*
X50223241Y-48135202D01*
X50223245Y-48135208D01*
X50225824Y-48139416D01*
X50380031Y-48319969D01*
X50560584Y-48474176D01*
X50564792Y-48476755D01*
X50564798Y-48476759D01*
X50758817Y-48595654D01*
X50763037Y-48598240D01*
X50767607Y-48600133D01*
X50767611Y-48600135D01*
X50867486Y-48641504D01*
X50982406Y-48689105D01*
X51062609Y-48708360D01*
X51208476Y-48743380D01*
X51208482Y-48743381D01*
X51213289Y-48744535D01*
X51450000Y-48763165D01*
X51686711Y-48744535D01*
X51691518Y-48743381D01*
X51691524Y-48743380D01*
X51837391Y-48708360D01*
X51917594Y-48689105D01*
X52032514Y-48641504D01*
X52132389Y-48600135D01*
X52132393Y-48600133D01*
X52136963Y-48598240D01*
X52141183Y-48595654D01*
X52335202Y-48476759D01*
X52335208Y-48476755D01*
X52339416Y-48474176D01*
X52519969Y-48319969D01*
X52674176Y-48139416D01*
X52676755Y-48135208D01*
X52676759Y-48135202D01*
X52795654Y-47941183D01*
X52798240Y-47936963D01*
X52802640Y-47926342D01*
X52887211Y-47722167D01*
X52887212Y-47722165D01*
X52889105Y-47717594D01*
X52941746Y-47498328D01*
X52943380Y-47491524D01*
X52943381Y-47491518D01*
X52944535Y-47486711D01*
X52963165Y-47250000D01*
X56436835Y-47250000D01*
X56455465Y-47486711D01*
X56456619Y-47491518D01*
X56456620Y-47491524D01*
X56458254Y-47498328D01*
X56510895Y-47717594D01*
X56512788Y-47722165D01*
X56512789Y-47722167D01*
X56597361Y-47926342D01*
X56601760Y-47936963D01*
X56604346Y-47941183D01*
X56723241Y-48135202D01*
X56723245Y-48135208D01*
X56725824Y-48139416D01*
X56880031Y-48319969D01*
X57060584Y-48474176D01*
X57064792Y-48476755D01*
X57064798Y-48476759D01*
X57258817Y-48595654D01*
X57263037Y-48598240D01*
X57267607Y-48600133D01*
X57267611Y-48600135D01*
X57367486Y-48641504D01*
X57482406Y-48689105D01*
X57562609Y-48708360D01*
X57708476Y-48743380D01*
X57708482Y-48743381D01*
X57713289Y-48744535D01*
X57950000Y-48763165D01*
X58186711Y-48744535D01*
X58191518Y-48743381D01*
X58191524Y-48743380D01*
X58337391Y-48708360D01*
X58417594Y-48689105D01*
X58532514Y-48641504D01*
X58632389Y-48600135D01*
X58632393Y-48600133D01*
X58636963Y-48598240D01*
X58641183Y-48595654D01*
X58835202Y-48476759D01*
X58835208Y-48476755D01*
X58839416Y-48474176D01*
X59019969Y-48319969D01*
X59174176Y-48139416D01*
X59176755Y-48135208D01*
X59176759Y-48135202D01*
X59295654Y-47941183D01*
X59298240Y-47936963D01*
X59302640Y-47926342D01*
X59387211Y-47722167D01*
X59387212Y-47722165D01*
X59389105Y-47717594D01*
X59441746Y-47498328D01*
X59443380Y-47491524D01*
X59443381Y-47491518D01*
X59444535Y-47486711D01*
X59463165Y-47250000D01*
X59444535Y-47013289D01*
X59389105Y-46782406D01*
X59298240Y-46563037D01*
X59295654Y-46558817D01*
X59176759Y-46364798D01*
X59176755Y-46364792D01*
X59174176Y-46360584D01*
X59019969Y-46180031D01*
X58839416Y-46025824D01*
X58835208Y-46023245D01*
X58835202Y-46023241D01*
X58641183Y-45904346D01*
X58636963Y-45901760D01*
X58632393Y-45899867D01*
X58632389Y-45899865D01*
X58422167Y-45812789D01*
X58422165Y-45812788D01*
X58417594Y-45810895D01*
X58337391Y-45791640D01*
X58191524Y-45756620D01*
X58191518Y-45756619D01*
X58186711Y-45755465D01*
X57950000Y-45736835D01*
X57713289Y-45755465D01*
X57708482Y-45756619D01*
X57708476Y-45756620D01*
X57562609Y-45791640D01*
X57482406Y-45810895D01*
X57477835Y-45812788D01*
X57477833Y-45812789D01*
X57267611Y-45899865D01*
X57267607Y-45899867D01*
X57263037Y-45901760D01*
X57258817Y-45904346D01*
X57064798Y-46023241D01*
X57064792Y-46023245D01*
X57060584Y-46025824D01*
X56880031Y-46180031D01*
X56725824Y-46360584D01*
X56723245Y-46364792D01*
X56723241Y-46364798D01*
X56604346Y-46558817D01*
X56601760Y-46563037D01*
X56510895Y-46782406D01*
X56455465Y-47013289D01*
X56436835Y-47250000D01*
X52963165Y-47250000D01*
X52944535Y-47013289D01*
X52889105Y-46782406D01*
X52798240Y-46563037D01*
X52795654Y-46558817D01*
X52676759Y-46364798D01*
X52676755Y-46364792D01*
X52674176Y-46360584D01*
X52519969Y-46180031D01*
X52339416Y-46025824D01*
X52335208Y-46023245D01*
X52335202Y-46023241D01*
X52141183Y-45904346D01*
X52136963Y-45901760D01*
X52132393Y-45899867D01*
X52132389Y-45899865D01*
X51922167Y-45812789D01*
X51922165Y-45812788D01*
X51917594Y-45810895D01*
X51837391Y-45791640D01*
X51691524Y-45756620D01*
X51691518Y-45756619D01*
X51686711Y-45755465D01*
X51450000Y-45736835D01*
X51213289Y-45755465D01*
X51208482Y-45756619D01*
X51208476Y-45756620D01*
X51062609Y-45791640D01*
X50982406Y-45810895D01*
X50977835Y-45812788D01*
X50977833Y-45812789D01*
X50767611Y-45899865D01*
X50767607Y-45899867D01*
X50763037Y-45901760D01*
X50758817Y-45904346D01*
X50564798Y-46023241D01*
X50564792Y-46023245D01*
X50560584Y-46025824D01*
X50380031Y-46180031D01*
X50225824Y-46360584D01*
X50223245Y-46364792D01*
X50223241Y-46364798D01*
X50104346Y-46558817D01*
X50101760Y-46563037D01*
X50010895Y-46782406D01*
X49955465Y-47013289D01*
X49936835Y-47250000D01*
X46508500Y-47250000D01*
X46508500Y-44800000D01*
X54486496Y-44800000D01*
X54487186Y-44806565D01*
X54504235Y-44968774D01*
X54506458Y-44989928D01*
X54565473Y-45171556D01*
X54660960Y-45336944D01*
X54788747Y-45478866D01*
X54943248Y-45591118D01*
X54949276Y-45593802D01*
X54949278Y-45593803D01*
X55111681Y-45666109D01*
X55117712Y-45668794D01*
X55186263Y-45683365D01*
X55298056Y-45707128D01*
X55298061Y-45707128D01*
X55304513Y-45708500D01*
X55495487Y-45708500D01*
X55501939Y-45707128D01*
X55501944Y-45707128D01*
X55613737Y-45683365D01*
X55682288Y-45668794D01*
X55688319Y-45666109D01*
X55850722Y-45593803D01*
X55850724Y-45593802D01*
X55856752Y-45591118D01*
X56011253Y-45478866D01*
X56139040Y-45336944D01*
X56234527Y-45171556D01*
X56293542Y-44989928D01*
X56295766Y-44968774D01*
X56312814Y-44806565D01*
X56313504Y-44800000D01*
X56303645Y-44706197D01*
X56294232Y-44616635D01*
X56294232Y-44616633D01*
X56293542Y-44610072D01*
X56234527Y-44428444D01*
X56139040Y-44263056D01*
X56076685Y-44193803D01*
X56015675Y-44126045D01*
X56015674Y-44126044D01*
X56011253Y-44121134D01*
X55856752Y-44008882D01*
X55850724Y-44006198D01*
X55850722Y-44006197D01*
X55688319Y-43933891D01*
X55688318Y-43933891D01*
X55682288Y-43931206D01*
X55588888Y-43911353D01*
X55501944Y-43892872D01*
X55501939Y-43892872D01*
X55495487Y-43891500D01*
X55304513Y-43891500D01*
X55298061Y-43892872D01*
X55298056Y-43892872D01*
X55211112Y-43911353D01*
X55117712Y-43931206D01*
X55111682Y-43933891D01*
X55111681Y-43933891D01*
X54949278Y-44006197D01*
X54949276Y-44006198D01*
X54943248Y-44008882D01*
X54788747Y-44121134D01*
X54784326Y-44126044D01*
X54784325Y-44126045D01*
X54723316Y-44193803D01*
X54660960Y-44263056D01*
X54565473Y-44428444D01*
X54506458Y-44610072D01*
X54505768Y-44616633D01*
X54505768Y-44616635D01*
X54496355Y-44706197D01*
X54486496Y-44800000D01*
X46508500Y-44800000D01*
X46508500Y-42100000D01*
X69586496Y-42100000D01*
X69606458Y-42289928D01*
X69665473Y-42471556D01*
X69760960Y-42636944D01*
X69888747Y-42778866D01*
X70043248Y-42891118D01*
X70049276Y-42893802D01*
X70049278Y-42893803D01*
X70193989Y-42958232D01*
X70217712Y-42968794D01*
X70311113Y-42988647D01*
X70398056Y-43007128D01*
X70398061Y-43007128D01*
X70404513Y-43008500D01*
X70595487Y-43008500D01*
X70595487Y-43010692D01*
X70655303Y-43021631D01*
X70707150Y-43070132D01*
X70724545Y-43138965D01*
X70718469Y-43173104D01*
X70708498Y-43203791D01*
X70708496Y-43203798D01*
X70706458Y-43210072D01*
X70686496Y-43400000D01*
X70706458Y-43589928D01*
X70765473Y-43771556D01*
X70860960Y-43936944D01*
X70865378Y-43941851D01*
X70865379Y-43941852D01*
X70925733Y-44008882D01*
X70988747Y-44078866D01*
X71143248Y-44191118D01*
X71149276Y-44193802D01*
X71149278Y-44193803D01*
X71304824Y-44263056D01*
X71317712Y-44268794D01*
X71411113Y-44288647D01*
X71498056Y-44307128D01*
X71498061Y-44307128D01*
X71504513Y-44308500D01*
X71695487Y-44308500D01*
X71701939Y-44307128D01*
X71701944Y-44307128D01*
X71788887Y-44288647D01*
X71882288Y-44268794D01*
X71895176Y-44263056D01*
X72050722Y-44193803D01*
X72050724Y-44193802D01*
X72056752Y-44191118D01*
X72211253Y-44078866D01*
X72274267Y-44008882D01*
X72334621Y-43941852D01*
X72334622Y-43941851D01*
X72339040Y-43936944D01*
X72434527Y-43771556D01*
X72493542Y-43589928D01*
X72513504Y-43400000D01*
X72493542Y-43210072D01*
X72434527Y-43028444D01*
X72339040Y-42863056D01*
X72211253Y-42721134D01*
X72056752Y-42608882D01*
X72050724Y-42606198D01*
X72050722Y-42606197D01*
X71888319Y-42533891D01*
X71888318Y-42533891D01*
X71882288Y-42531206D01*
X71788888Y-42511353D01*
X71701944Y-42492872D01*
X71701939Y-42492872D01*
X71695487Y-42491500D01*
X71504513Y-42491500D01*
X71504513Y-42489308D01*
X71444697Y-42478369D01*
X71392850Y-42429868D01*
X71375455Y-42361035D01*
X71381531Y-42326896D01*
X71391502Y-42296209D01*
X71391504Y-42296202D01*
X71393542Y-42289928D01*
X71413504Y-42100000D01*
X71393542Y-41910072D01*
X71334527Y-41728444D01*
X71239040Y-41563056D01*
X71111253Y-41421134D01*
X70956752Y-41308882D01*
X70950724Y-41306198D01*
X70950722Y-41306197D01*
X70788319Y-41233891D01*
X70788318Y-41233891D01*
X70782288Y-41231206D01*
X70688888Y-41211353D01*
X70601944Y-41192872D01*
X70601939Y-41192872D01*
X70595487Y-41191500D01*
X70404513Y-41191500D01*
X70398061Y-41192872D01*
X70398056Y-41192872D01*
X70311112Y-41211353D01*
X70217712Y-41231206D01*
X70211682Y-41233891D01*
X70211681Y-41233891D01*
X70049278Y-41306197D01*
X70049276Y-41306198D01*
X70043248Y-41308882D01*
X69888747Y-41421134D01*
X69760960Y-41563056D01*
X69665473Y-41728444D01*
X69606458Y-41910072D01*
X69586496Y-42100000D01*
X46508500Y-42100000D01*
X46508500Y-36000000D01*
X64186496Y-36000000D01*
X64206458Y-36189928D01*
X64265473Y-36371556D01*
X64360960Y-36536944D01*
X64488747Y-36678866D01*
X64643248Y-36791118D01*
X64649276Y-36793802D01*
X64649278Y-36793803D01*
X64811681Y-36866109D01*
X64817712Y-36868794D01*
X64911113Y-36888647D01*
X64998056Y-36907128D01*
X64998061Y-36907128D01*
X65004513Y-36908500D01*
X65195487Y-36908500D01*
X65201939Y-36907128D01*
X65201944Y-36907128D01*
X65288887Y-36888647D01*
X65382288Y-36868794D01*
X65388319Y-36866109D01*
X65550722Y-36793803D01*
X65550724Y-36793802D01*
X65556752Y-36791118D01*
X65711253Y-36678866D01*
X65839040Y-36536944D01*
X65934527Y-36371556D01*
X65993542Y-36189928D01*
X66010907Y-36024706D01*
X66037920Y-35959050D01*
X66047122Y-35948782D01*
X66392247Y-35603657D01*
X66400537Y-35596113D01*
X66407018Y-35592000D01*
X66453659Y-35542332D01*
X66456413Y-35539491D01*
X66476134Y-35519770D01*
X66478612Y-35516575D01*
X66486318Y-35507553D01*
X66511158Y-35481101D01*
X66516586Y-35475321D01*
X66526346Y-35457568D01*
X66537199Y-35441045D01*
X66544753Y-35431306D01*
X66549613Y-35425041D01*
X66567176Y-35384457D01*
X66572383Y-35373827D01*
X66593695Y-35335060D01*
X66595666Y-35327383D01*
X66595668Y-35327378D01*
X66598732Y-35315442D01*
X66605138Y-35296730D01*
X66610033Y-35285419D01*
X66613181Y-35278145D01*
X66614421Y-35270317D01*
X66614423Y-35270310D01*
X66620099Y-35234476D01*
X66622505Y-35222856D01*
X66631528Y-35187711D01*
X66631528Y-35187710D01*
X66633500Y-35180030D01*
X66633500Y-35159776D01*
X66635051Y-35140065D01*
X66636980Y-35127886D01*
X66638220Y-35120057D01*
X66634059Y-35076038D01*
X66633500Y-35064181D01*
X66633500Y-34500000D01*
X70886496Y-34500000D01*
X70906458Y-34689928D01*
X70965473Y-34871556D01*
X71060960Y-35036944D01*
X71188747Y-35178866D01*
X71343248Y-35291118D01*
X71349276Y-35293802D01*
X71349278Y-35293803D01*
X71511681Y-35366109D01*
X71517712Y-35368794D01*
X71611112Y-35388647D01*
X71698056Y-35407128D01*
X71698061Y-35407128D01*
X71704513Y-35408500D01*
X71895487Y-35408500D01*
X71901939Y-35407128D01*
X71901944Y-35407128D01*
X71988888Y-35388647D01*
X72082288Y-35368794D01*
X72088319Y-35366109D01*
X72250722Y-35293803D01*
X72250724Y-35293802D01*
X72256752Y-35291118D01*
X72411253Y-35178866D01*
X72539040Y-35036944D01*
X72634527Y-34871556D01*
X72693542Y-34689928D01*
X72713504Y-34500000D01*
X72693542Y-34310072D01*
X72657777Y-34200000D01*
X87986496Y-34200000D01*
X88006458Y-34389928D01*
X88065473Y-34571556D01*
X88160960Y-34736944D01*
X88288747Y-34878866D01*
X88443248Y-34991118D01*
X88449276Y-34993802D01*
X88449278Y-34993803D01*
X88533332Y-35031226D01*
X88617712Y-35068794D01*
X88710990Y-35088621D01*
X88798056Y-35107128D01*
X88798061Y-35107128D01*
X88804513Y-35108500D01*
X88995487Y-35108500D01*
X89001939Y-35107128D01*
X89001944Y-35107128D01*
X89089010Y-35088621D01*
X89182288Y-35068794D01*
X89266668Y-35031226D01*
X89350722Y-34993803D01*
X89350724Y-34993802D01*
X89356752Y-34991118D01*
X89511253Y-34878866D01*
X89639040Y-34736944D01*
X89734527Y-34571556D01*
X89793542Y-34389928D01*
X89813504Y-34200000D01*
X89793542Y-34010072D01*
X89734527Y-33828444D01*
X89639040Y-33663056D01*
X89511253Y-33521134D01*
X89356752Y-33408882D01*
X89350724Y-33406198D01*
X89350722Y-33406197D01*
X89188319Y-33333891D01*
X89188318Y-33333891D01*
X89182288Y-33331206D01*
X89088888Y-33311353D01*
X89001944Y-33292872D01*
X89001939Y-33292872D01*
X88995487Y-33291500D01*
X88804513Y-33291500D01*
X88798061Y-33292872D01*
X88798056Y-33292872D01*
X88711112Y-33311353D01*
X88617712Y-33331206D01*
X88611682Y-33333891D01*
X88611681Y-33333891D01*
X88449278Y-33406197D01*
X88449276Y-33406198D01*
X88443248Y-33408882D01*
X88288747Y-33521134D01*
X88160960Y-33663056D01*
X88065473Y-33828444D01*
X88006458Y-34010072D01*
X87986496Y-34200000D01*
X72657777Y-34200000D01*
X72634527Y-34128444D01*
X72539040Y-33963056D01*
X72411253Y-33821134D01*
X72256752Y-33708882D01*
X72250724Y-33706198D01*
X72250722Y-33706197D01*
X72088319Y-33633891D01*
X72088318Y-33633891D01*
X72082288Y-33631206D01*
X71988887Y-33611353D01*
X71901944Y-33592872D01*
X71901939Y-33592872D01*
X71895487Y-33591500D01*
X71704513Y-33591500D01*
X71698061Y-33592872D01*
X71698056Y-33592872D01*
X71611113Y-33611353D01*
X71517712Y-33631206D01*
X71511682Y-33633891D01*
X71511681Y-33633891D01*
X71349278Y-33706197D01*
X71349276Y-33706198D01*
X71343248Y-33708882D01*
X71188747Y-33821134D01*
X71060960Y-33963056D01*
X70965473Y-34128444D01*
X70906458Y-34310072D01*
X70886496Y-34500000D01*
X66633500Y-34500000D01*
X66633500Y-33002524D01*
X66653502Y-32934403D01*
X66665858Y-32918221D01*
X66739040Y-32836944D01*
X66834527Y-32671556D01*
X66893542Y-32489928D01*
X66913504Y-32300000D01*
X66893542Y-32110072D01*
X66834527Y-31928444D01*
X66739040Y-31763056D01*
X66622388Y-31633500D01*
X66615675Y-31626045D01*
X66615674Y-31626044D01*
X66611253Y-31621134D01*
X66512157Y-31549136D01*
X66462094Y-31512763D01*
X66462093Y-31512762D01*
X66456752Y-31508882D01*
X66450724Y-31506198D01*
X66450722Y-31506197D01*
X66288319Y-31433891D01*
X66288318Y-31433891D01*
X66282288Y-31431206D01*
X66188888Y-31411353D01*
X66101944Y-31392872D01*
X66101939Y-31392872D01*
X66095487Y-31391500D01*
X65904513Y-31391500D01*
X65898061Y-31392872D01*
X65898056Y-31392872D01*
X65811112Y-31411353D01*
X65717712Y-31431206D01*
X65711682Y-31433891D01*
X65711681Y-31433891D01*
X65549278Y-31506197D01*
X65549276Y-31506198D01*
X65543248Y-31508882D01*
X65537907Y-31512762D01*
X65537906Y-31512763D01*
X65487843Y-31549136D01*
X65388747Y-31621134D01*
X65384326Y-31626044D01*
X65384325Y-31626045D01*
X65377613Y-31633500D01*
X65260960Y-31763056D01*
X65165473Y-31928444D01*
X65106458Y-32110072D01*
X65086496Y-32300000D01*
X65106458Y-32489928D01*
X65165473Y-32671556D01*
X65260960Y-32836944D01*
X65334137Y-32918215D01*
X65364853Y-32982221D01*
X65366500Y-33002524D01*
X65366500Y-34785405D01*
X65346498Y-34853526D01*
X65329595Y-34874500D01*
X65149500Y-35054595D01*
X65087188Y-35088621D01*
X65060405Y-35091500D01*
X65004513Y-35091500D01*
X64998061Y-35092872D01*
X64998056Y-35092872D01*
X64911113Y-35111353D01*
X64817712Y-35131206D01*
X64811682Y-35133891D01*
X64811681Y-35133891D01*
X64649278Y-35206197D01*
X64649276Y-35206198D01*
X64643248Y-35208882D01*
X64637907Y-35212762D01*
X64637906Y-35212763D01*
X64616093Y-35228611D01*
X64488747Y-35321134D01*
X64360960Y-35463056D01*
X64265473Y-35628444D01*
X64206458Y-35810072D01*
X64186496Y-36000000D01*
X46508500Y-36000000D01*
X46508500Y-33200000D01*
X59786496Y-33200000D01*
X59806458Y-33389928D01*
X59865473Y-33571556D01*
X59960960Y-33736944D01*
X60088747Y-33878866D01*
X60243248Y-33991118D01*
X60249276Y-33993802D01*
X60249278Y-33993803D01*
X60300560Y-34016635D01*
X60417712Y-34068794D01*
X60511113Y-34088647D01*
X60598056Y-34107128D01*
X60598061Y-34107128D01*
X60604513Y-34108500D01*
X60795487Y-34108500D01*
X60801939Y-34107128D01*
X60801944Y-34107128D01*
X60888887Y-34088647D01*
X60982288Y-34068794D01*
X61099440Y-34016635D01*
X61150722Y-33993803D01*
X61150724Y-33993802D01*
X61156752Y-33991118D01*
X61311253Y-33878866D01*
X61439040Y-33736944D01*
X61534527Y-33571556D01*
X61593542Y-33389928D01*
X61613504Y-33200000D01*
X61593542Y-33010072D01*
X61534527Y-32828444D01*
X61439040Y-32663056D01*
X61311253Y-32521134D01*
X61156752Y-32408882D01*
X61150724Y-32406198D01*
X61150722Y-32406197D01*
X60988319Y-32333891D01*
X60988318Y-32333891D01*
X60982288Y-32331206D01*
X60866362Y-32306565D01*
X60801944Y-32292872D01*
X60801939Y-32292872D01*
X60795487Y-32291500D01*
X60604513Y-32291500D01*
X60598061Y-32292872D01*
X60598056Y-32292872D01*
X60533638Y-32306565D01*
X60417712Y-32331206D01*
X60411682Y-32333891D01*
X60411681Y-32333891D01*
X60249278Y-32406197D01*
X60249276Y-32406198D01*
X60243248Y-32408882D01*
X60088747Y-32521134D01*
X59960960Y-32663056D01*
X59865473Y-32828444D01*
X59806458Y-33010072D01*
X59786496Y-33200000D01*
X46508500Y-33200000D01*
X46508500Y-30470604D01*
X50112787Y-30470604D01*
X50122567Y-30681899D01*
X50172125Y-30887534D01*
X50174607Y-30892992D01*
X50174608Y-30892996D01*
X50218053Y-30988546D01*
X50259674Y-31080087D01*
X50382054Y-31252611D01*
X50534850Y-31398881D01*
X50712548Y-31513620D01*
X50718114Y-31515863D01*
X50903168Y-31590442D01*
X50903171Y-31590443D01*
X50908737Y-31592686D01*
X51116337Y-31633228D01*
X51121899Y-31633500D01*
X51827846Y-31633500D01*
X51985566Y-31618452D01*
X52188534Y-31558908D01*
X52272111Y-31515863D01*
X52371249Y-31464804D01*
X52371252Y-31464802D01*
X52376580Y-31462058D01*
X52542920Y-31331396D01*
X52546852Y-31326865D01*
X52546855Y-31326862D01*
X52677621Y-31176167D01*
X52681552Y-31171637D01*
X52684552Y-31166451D01*
X52684555Y-31166447D01*
X52784467Y-30993742D01*
X52787473Y-30988546D01*
X52856861Y-30788729D01*
X52887213Y-30579396D01*
X52877433Y-30368101D01*
X52827875Y-30162466D01*
X52784525Y-30067122D01*
X52742806Y-29975368D01*
X52740326Y-29969913D01*
X52617946Y-29797389D01*
X52613623Y-29793251D01*
X52613619Y-29793246D01*
X52522309Y-29705836D01*
X52486933Y-29644280D01*
X52490452Y-29573371D01*
X52531749Y-29515621D01*
X52543137Y-29507674D01*
X52592807Y-29476937D01*
X52604208Y-29467901D01*
X52718739Y-29353171D01*
X52727751Y-29341760D01*
X52812816Y-29203757D01*
X52818963Y-29190576D01*
X52870138Y-29036290D01*
X52873005Y-29022914D01*
X52875353Y-29000000D01*
X60586496Y-29000000D01*
X60606458Y-29189928D01*
X60665473Y-29371556D01*
X60668776Y-29377278D01*
X60668777Y-29377279D01*
X60700109Y-29431548D01*
X60760960Y-29536944D01*
X60765378Y-29541851D01*
X60765379Y-29541852D01*
X60884325Y-29673955D01*
X60888747Y-29678866D01*
X61043248Y-29791118D01*
X61049276Y-29793802D01*
X61049278Y-29793803D01*
X61068307Y-29802275D01*
X61217712Y-29868794D01*
X61311112Y-29888647D01*
X61398056Y-29907128D01*
X61398061Y-29907128D01*
X61404513Y-29908500D01*
X61595487Y-29908500D01*
X61601939Y-29907128D01*
X61601944Y-29907128D01*
X61688888Y-29888647D01*
X61782288Y-29868794D01*
X61931693Y-29802275D01*
X61950722Y-29793803D01*
X61950724Y-29793802D01*
X61956752Y-29791118D01*
X62111253Y-29678866D01*
X62115675Y-29673955D01*
X62234621Y-29541852D01*
X62234622Y-29541851D01*
X62239040Y-29536944D01*
X62299891Y-29431548D01*
X62331223Y-29377279D01*
X62331224Y-29377278D01*
X62334527Y-29371556D01*
X62393542Y-29189928D01*
X62413504Y-29000000D01*
X62393542Y-28810072D01*
X62334527Y-28628444D01*
X62239040Y-28463056D01*
X62111253Y-28321134D01*
X61956752Y-28208882D01*
X61950724Y-28206198D01*
X61950722Y-28206197D01*
X61788319Y-28133891D01*
X61788318Y-28133891D01*
X61782288Y-28131206D01*
X61688888Y-28111353D01*
X61601944Y-28092872D01*
X61601939Y-28092872D01*
X61595487Y-28091500D01*
X61404513Y-28091500D01*
X61398061Y-28092872D01*
X61398056Y-28092872D01*
X61311113Y-28111353D01*
X61217712Y-28131206D01*
X61211682Y-28133891D01*
X61211681Y-28133891D01*
X61049278Y-28206197D01*
X61049276Y-28206198D01*
X61043248Y-28208882D01*
X60888747Y-28321134D01*
X60760960Y-28463056D01*
X60665473Y-28628444D01*
X60606458Y-28810072D01*
X60586496Y-29000000D01*
X52875353Y-29000000D01*
X52882672Y-28928562D01*
X52883000Y-28922146D01*
X52883000Y-28797115D01*
X52878525Y-28781876D01*
X52877135Y-28780671D01*
X52869452Y-28779000D01*
X50135116Y-28779000D01*
X50119877Y-28783475D01*
X50118672Y-28784865D01*
X50117001Y-28792548D01*
X50117001Y-28922095D01*
X50117338Y-28928614D01*
X50127257Y-29024206D01*
X50130149Y-29037600D01*
X50181588Y-29191784D01*
X50187761Y-29204962D01*
X50273063Y-29342807D01*
X50282099Y-29354208D01*
X50396829Y-29468739D01*
X50408240Y-29477751D01*
X50453655Y-29505745D01*
X50501148Y-29558517D01*
X50512572Y-29628589D01*
X50484298Y-29693713D01*
X50465375Y-29712088D01*
X50457080Y-29718604D01*
X50453148Y-29723135D01*
X50453145Y-29723138D01*
X50384474Y-29802275D01*
X50318448Y-29878363D01*
X50315448Y-29883549D01*
X50315445Y-29883553D01*
X50301807Y-29907128D01*
X50212527Y-30061454D01*
X50143139Y-30261271D01*
X50112787Y-30470604D01*
X46508500Y-30470604D01*
X46508500Y-28252885D01*
X50117000Y-28252885D01*
X50121475Y-28268124D01*
X50122865Y-28269329D01*
X50130548Y-28271000D01*
X51227885Y-28271000D01*
X51243124Y-28266525D01*
X51244329Y-28265135D01*
X51246000Y-28257452D01*
X51246000Y-28252885D01*
X51754000Y-28252885D01*
X51758475Y-28268124D01*
X51759865Y-28269329D01*
X51767548Y-28271000D01*
X52864884Y-28271000D01*
X52880123Y-28266525D01*
X52881328Y-28265135D01*
X52882999Y-28257452D01*
X52882999Y-28127905D01*
X52882662Y-28121386D01*
X52872743Y-28025794D01*
X52869851Y-28012400D01*
X52818412Y-27858216D01*
X52812239Y-27845038D01*
X52726937Y-27707193D01*
X52717901Y-27695792D01*
X52603171Y-27581261D01*
X52591760Y-27572249D01*
X52453757Y-27487184D01*
X52440576Y-27481037D01*
X52286290Y-27429862D01*
X52272914Y-27426995D01*
X52178562Y-27417328D01*
X52172145Y-27417000D01*
X51772115Y-27417000D01*
X51756876Y-27421475D01*
X51755671Y-27422865D01*
X51754000Y-27430548D01*
X51754000Y-28252885D01*
X51246000Y-28252885D01*
X51246000Y-27435116D01*
X51241525Y-27419877D01*
X51240135Y-27418672D01*
X51232452Y-27417001D01*
X50827905Y-27417001D01*
X50821386Y-27417338D01*
X50725794Y-27427257D01*
X50712400Y-27430149D01*
X50558216Y-27481588D01*
X50545038Y-27487761D01*
X50407193Y-27573063D01*
X50395792Y-27582099D01*
X50281261Y-27696829D01*
X50272249Y-27708240D01*
X50187184Y-27846243D01*
X50181037Y-27859424D01*
X50129862Y-28013710D01*
X50126995Y-28027086D01*
X50117328Y-28121438D01*
X50117000Y-28127855D01*
X50117000Y-28252885D01*
X46508500Y-28252885D01*
X46508500Y-27100000D01*
X67323996Y-27100000D01*
X67343958Y-27289928D01*
X67402973Y-27471556D01*
X67498460Y-27636944D01*
X67502878Y-27641851D01*
X67502879Y-27641852D01*
X67561712Y-27707193D01*
X67626247Y-27778866D01*
X67780748Y-27891118D01*
X67786776Y-27893802D01*
X67786778Y-27893803D01*
X67949181Y-27966109D01*
X67955212Y-27968794D01*
X68048612Y-27988647D01*
X68135556Y-28007128D01*
X68135561Y-28007128D01*
X68142013Y-28008500D01*
X68332987Y-28008500D01*
X68339439Y-28007128D01*
X68339444Y-28007128D01*
X68426388Y-27988647D01*
X68519788Y-27968794D01*
X68525819Y-27966109D01*
X68688222Y-27893803D01*
X68688224Y-27893802D01*
X68694252Y-27891118D01*
X68848753Y-27778866D01*
X68913288Y-27707193D01*
X68972121Y-27641852D01*
X68972122Y-27641851D01*
X68976540Y-27636944D01*
X69072027Y-27471556D01*
X69131042Y-27289928D01*
X69151004Y-27100000D01*
X69131042Y-26910072D01*
X69072027Y-26728444D01*
X68976540Y-26563056D01*
X68848753Y-26421134D01*
X68694252Y-26308882D01*
X68688224Y-26306198D01*
X68688222Y-26306197D01*
X68525819Y-26233891D01*
X68525818Y-26233891D01*
X68519788Y-26231206D01*
X68426388Y-26211353D01*
X68339444Y-26192872D01*
X68339439Y-26192872D01*
X68332987Y-26191500D01*
X68142013Y-26191500D01*
X68135561Y-26192872D01*
X68135556Y-26192872D01*
X68048613Y-26211353D01*
X67955212Y-26231206D01*
X67949182Y-26233891D01*
X67949181Y-26233891D01*
X67786778Y-26306197D01*
X67786776Y-26306198D01*
X67780748Y-26308882D01*
X67626247Y-26421134D01*
X67498460Y-26563056D01*
X67402973Y-26728444D01*
X67343958Y-26910072D01*
X67323996Y-27100000D01*
X46508500Y-27100000D01*
X46508500Y-26053250D01*
X46510246Y-26032345D01*
X46512770Y-26017344D01*
X46512770Y-26017341D01*
X46513576Y-26012552D01*
X46513729Y-26000000D01*
X46513040Y-25995185D01*
X46513039Y-25995177D01*
X46511550Y-25984781D01*
X46510429Y-25960735D01*
X46513718Y-25893803D01*
X46525010Y-25663949D01*
X46526221Y-25651650D01*
X46527675Y-25641852D01*
X46574680Y-25324966D01*
X46577091Y-25312841D01*
X46582831Y-25289928D01*
X46625061Y-25121337D01*
X46657339Y-24992477D01*
X46660928Y-24980645D01*
X46772190Y-24669689D01*
X46776922Y-24658265D01*
X46865260Y-24471489D01*
X49911227Y-24471489D01*
X49913096Y-24500000D01*
X49924263Y-24670380D01*
X49925684Y-24675976D01*
X49925685Y-24675981D01*
X49944112Y-24748535D01*
X49973326Y-24863564D01*
X49975743Y-24868807D01*
X50012265Y-24948029D01*
X50056772Y-25044573D01*
X50171807Y-25207344D01*
X50314578Y-25346425D01*
X50480304Y-25457160D01*
X50485607Y-25459438D01*
X50485610Y-25459440D01*
X50658128Y-25533559D01*
X50663435Y-25535839D01*
X50735516Y-25552149D01*
X50852201Y-25578553D01*
X50852207Y-25578554D01*
X50857838Y-25579828D01*
X50863609Y-25580055D01*
X50863611Y-25580055D01*
X50924556Y-25582449D01*
X51057001Y-25587653D01*
X51156959Y-25573160D01*
X51248535Y-25559883D01*
X51248540Y-25559882D01*
X51254256Y-25559053D01*
X51259728Y-25557195D01*
X51259730Y-25557195D01*
X51437532Y-25496839D01*
X51437534Y-25496838D01*
X51442996Y-25494984D01*
X51616899Y-25397594D01*
X51770143Y-25270143D01*
X51897594Y-25116899D01*
X51907058Y-25100000D01*
X62786496Y-25100000D01*
X62787186Y-25106565D01*
X62804379Y-25270143D01*
X62806458Y-25289928D01*
X62865473Y-25471556D01*
X62868776Y-25477278D01*
X62868777Y-25477279D01*
X62878999Y-25494984D01*
X62960960Y-25636944D01*
X63088747Y-25778866D01*
X63243248Y-25891118D01*
X63249276Y-25893802D01*
X63249278Y-25893803D01*
X63391298Y-25957034D01*
X63417712Y-25968794D01*
X63511112Y-25988647D01*
X63598056Y-26007128D01*
X63598061Y-26007128D01*
X63604513Y-26008500D01*
X63795487Y-26008500D01*
X63801939Y-26007128D01*
X63801944Y-26007128D01*
X63888888Y-25988647D01*
X63982288Y-25968794D01*
X64008702Y-25957034D01*
X64150722Y-25893803D01*
X64150724Y-25893802D01*
X64156752Y-25891118D01*
X64311253Y-25778866D01*
X64439040Y-25636944D01*
X64521001Y-25494984D01*
X64531223Y-25477279D01*
X64531224Y-25477278D01*
X64534527Y-25471556D01*
X64593542Y-25289928D01*
X64595622Y-25270143D01*
X64612814Y-25106565D01*
X64613504Y-25100000D01*
X64608174Y-25049289D01*
X64594232Y-24916635D01*
X64594232Y-24916633D01*
X64593542Y-24910072D01*
X64534527Y-24728444D01*
X64439040Y-24563056D01*
X64430249Y-24553292D01*
X64315675Y-24426045D01*
X64315674Y-24426044D01*
X64311253Y-24421134D01*
X64156752Y-24308882D01*
X64150724Y-24306198D01*
X64150722Y-24306197D01*
X63988319Y-24233891D01*
X63988318Y-24233891D01*
X63982288Y-24231206D01*
X63888888Y-24211353D01*
X63801944Y-24192872D01*
X63801939Y-24192872D01*
X63795487Y-24191500D01*
X63604513Y-24191500D01*
X63598061Y-24192872D01*
X63598056Y-24192872D01*
X63511113Y-24211353D01*
X63417712Y-24231206D01*
X63411682Y-24233891D01*
X63411681Y-24233891D01*
X63249278Y-24306197D01*
X63249276Y-24306198D01*
X63243248Y-24308882D01*
X63088747Y-24421134D01*
X63084326Y-24426044D01*
X63084325Y-24426045D01*
X62969752Y-24553292D01*
X62960960Y-24563056D01*
X62865473Y-24728444D01*
X62806458Y-24910072D01*
X62805768Y-24916633D01*
X62805768Y-24916635D01*
X62791826Y-25049289D01*
X62786496Y-25100000D01*
X51907058Y-25100000D01*
X51994984Y-24942996D01*
X52003933Y-24916635D01*
X52057195Y-24759730D01*
X52057195Y-24759728D01*
X52059053Y-24754256D01*
X52059882Y-24748540D01*
X52059883Y-24748535D01*
X52085946Y-24568774D01*
X52087653Y-24557001D01*
X52089146Y-24500000D01*
X52070908Y-24301519D01*
X52040267Y-24192872D01*
X52018373Y-24115244D01*
X52018372Y-24115242D01*
X52016805Y-24109685D01*
X52008484Y-24092810D01*
X51931205Y-23936104D01*
X51928650Y-23930923D01*
X51809393Y-23771219D01*
X51663030Y-23635922D01*
X51658147Y-23632841D01*
X51658143Y-23632838D01*
X51499346Y-23532645D01*
X51499341Y-23532643D01*
X51494462Y-23529564D01*
X51309334Y-23455705D01*
X51113847Y-23416820D01*
X51108072Y-23416744D01*
X51108068Y-23416744D01*
X51008588Y-23415442D01*
X50914547Y-23414211D01*
X50908850Y-23415190D01*
X50908849Y-23415190D01*
X50892805Y-23417947D01*
X50718108Y-23447966D01*
X50531111Y-23516953D01*
X50359816Y-23618862D01*
X50209961Y-23750281D01*
X50086565Y-23906809D01*
X49993760Y-24083202D01*
X49985537Y-24109685D01*
X49946970Y-24233891D01*
X49934654Y-24273554D01*
X49911227Y-24471489D01*
X46865260Y-24471489D01*
X46918126Y-24359712D01*
X46923955Y-24348807D01*
X46965627Y-24279283D01*
X47070385Y-24104505D01*
X47093744Y-24065533D01*
X47100614Y-24055252D01*
X47196254Y-23926296D01*
X47297350Y-23789983D01*
X47305177Y-23780444D01*
X47526985Y-23535718D01*
X47535718Y-23526985D01*
X47780444Y-23305177D01*
X47789983Y-23297350D01*
X48055252Y-23100614D01*
X48065533Y-23093744D01*
X48207899Y-23008412D01*
X48348812Y-22923953D01*
X48359708Y-22918128D01*
X48590500Y-22808972D01*
X48658265Y-22776922D01*
X48669689Y-22772190D01*
X48980645Y-22660928D01*
X48992477Y-22657339D01*
X49218804Y-22600646D01*
X49312844Y-22577090D01*
X49324966Y-22574680D01*
X49651655Y-22526221D01*
X49663949Y-22525010D01*
X49957039Y-22510610D01*
X49982598Y-22511958D01*
X49993724Y-22513691D01*
X50025286Y-22509564D01*
X50041621Y-22508500D01*
X86950633Y-22508500D01*
X86970018Y-22510000D01*
G37*
%TD.AperFunction*%
%TD*%
M02*
