%TF.GenerationSoftware,KiCad,Pcbnew,(6.0.4)*%
%TF.CreationDate,2022-08-25T17:00:53-03:00*%
%TF.ProjectId,rf-system-transmitter,72662d73-7973-4746-956d-2d7472616e73,rev?*%
%TF.SameCoordinates,Original*%
%TF.FileFunction,Legend,Top*%
%TF.FilePolarity,Positive*%
%FSLAX46Y46*%
G04 Gerber Fmt 4.6, Leading zero omitted, Abs format (unit mm)*
G04 Created by KiCad (PCBNEW (6.0.4)) date 2022-08-25 17:00:53*
%MOMM*%
%LPD*%
G01*
G04 APERTURE LIST*
%ADD10C,0.300000*%
%ADD11C,0.150000*%
%ADD12C,0.120000*%
%ADD13C,0.100000*%
%ADD14C,0.250000*%
%ADD15C,0.200000*%
G04 APERTURE END LIST*
D10*
X55471071Y-69735714D02*
X55471071Y-69164285D01*
X54971071Y-69521428D02*
X56256785Y-69521428D01*
X56399642Y-69450000D01*
X56471071Y-69307142D01*
X56471071Y-69164285D01*
X56471071Y-68664285D02*
X55471071Y-68664285D01*
X55756785Y-68664285D02*
X55613928Y-68592857D01*
X55542500Y-68521428D01*
X55471071Y-68378571D01*
X55471071Y-68235714D01*
X56471071Y-67092857D02*
X55685357Y-67092857D01*
X55542500Y-67164285D01*
X55471071Y-67307142D01*
X55471071Y-67592857D01*
X55542500Y-67735714D01*
X56399642Y-67092857D02*
X56471071Y-67235714D01*
X56471071Y-67592857D01*
X56399642Y-67735714D01*
X56256785Y-67807142D01*
X56113928Y-67807142D01*
X55971071Y-67735714D01*
X55899642Y-67592857D01*
X55899642Y-67235714D01*
X55828214Y-67092857D01*
X55471071Y-66378571D02*
X56471071Y-66378571D01*
X55613928Y-66378571D02*
X55542500Y-66307142D01*
X55471071Y-66164285D01*
X55471071Y-65950000D01*
X55542500Y-65807142D01*
X55685357Y-65735714D01*
X56471071Y-65735714D01*
X56399642Y-65092857D02*
X56471071Y-64950000D01*
X56471071Y-64664285D01*
X56399642Y-64521428D01*
X56256785Y-64450000D01*
X56185357Y-64450000D01*
X56042500Y-64521428D01*
X55971071Y-64664285D01*
X55971071Y-64878571D01*
X55899642Y-65021428D01*
X55756785Y-65092857D01*
X55685357Y-65092857D01*
X55542500Y-65021428D01*
X55471071Y-64878571D01*
X55471071Y-64664285D01*
X55542500Y-64521428D01*
X56471071Y-63807142D02*
X55471071Y-63807142D01*
X55613928Y-63807142D02*
X55542500Y-63735714D01*
X55471071Y-63592857D01*
X55471071Y-63378571D01*
X55542500Y-63235714D01*
X55685357Y-63164285D01*
X56471071Y-63164285D01*
X55685357Y-63164285D02*
X55542500Y-63092857D01*
X55471071Y-62950000D01*
X55471071Y-62735714D01*
X55542500Y-62592857D01*
X55685357Y-62521428D01*
X56471071Y-62521428D01*
X56471071Y-61807142D02*
X55471071Y-61807142D01*
X54971071Y-61807142D02*
X55042500Y-61878571D01*
X55113928Y-61807142D01*
X55042500Y-61735714D01*
X54971071Y-61807142D01*
X55113928Y-61807142D01*
X55471071Y-61307142D02*
X55471071Y-60735714D01*
X54971071Y-61092857D02*
X56256785Y-61092857D01*
X56399642Y-61021428D01*
X56471071Y-60878571D01*
X56471071Y-60735714D01*
X55471071Y-60450000D02*
X55471071Y-59878571D01*
X54971071Y-60235714D02*
X56256785Y-60235714D01*
X56399642Y-60164285D01*
X56471071Y-60021428D01*
X56471071Y-59878571D01*
X56399642Y-58807142D02*
X56471071Y-58950000D01*
X56471071Y-59235714D01*
X56399642Y-59378571D01*
X56256785Y-59450000D01*
X55685357Y-59450000D01*
X55542500Y-59378571D01*
X55471071Y-59235714D01*
X55471071Y-58950000D01*
X55542500Y-58807142D01*
X55685357Y-58735714D01*
X55828214Y-58735714D01*
X55971071Y-59450000D01*
X56471071Y-58092857D02*
X55471071Y-58092857D01*
X55756785Y-58092857D02*
X55613928Y-58021428D01*
X55542500Y-57950000D01*
X55471071Y-57807142D01*
X55471071Y-57664285D01*
X57886071Y-66914285D02*
X58886071Y-66557142D01*
X57886071Y-66200000D01*
X58886071Y-64842857D02*
X58886071Y-65700000D01*
X58886071Y-65271428D02*
X57386071Y-65271428D01*
X57600357Y-65414285D01*
X57743214Y-65557142D01*
X57814642Y-65700000D01*
X58743214Y-64200000D02*
X58814642Y-64128571D01*
X58886071Y-64200000D01*
X58814642Y-64271428D01*
X58743214Y-64200000D01*
X58886071Y-64200000D01*
X57386071Y-63200000D02*
X57386071Y-63057142D01*
X57457500Y-62914285D01*
X57528928Y-62842857D01*
X57671785Y-62771428D01*
X57957500Y-62700000D01*
X58314642Y-62700000D01*
X58600357Y-62771428D01*
X58743214Y-62842857D01*
X58814642Y-62914285D01*
X58886071Y-63057142D01*
X58886071Y-63200000D01*
X58814642Y-63342857D01*
X58743214Y-63414285D01*
X58600357Y-63485714D01*
X58314642Y-63557142D01*
X57957500Y-63557142D01*
X57671785Y-63485714D01*
X57528928Y-63414285D01*
X57457500Y-63342857D01*
X57386071Y-63200000D01*
X58743214Y-62057142D02*
X58814642Y-61985714D01*
X58886071Y-62057142D01*
X58814642Y-62128571D01*
X58743214Y-62057142D01*
X58886071Y-62057142D01*
X57386071Y-61057142D02*
X57386071Y-60914285D01*
X57457500Y-60771428D01*
X57528928Y-60700000D01*
X57671785Y-60628571D01*
X57957500Y-60557142D01*
X58314642Y-60557142D01*
X58600357Y-60628571D01*
X58743214Y-60700000D01*
X58814642Y-60771428D01*
X58886071Y-60914285D01*
X58886071Y-61057142D01*
X58814642Y-61200000D01*
X58743214Y-61271428D01*
X58600357Y-61342857D01*
X58314642Y-61414285D01*
X57957500Y-61414285D01*
X57671785Y-61342857D01*
X57528928Y-61271428D01*
X57457500Y-61200000D01*
X57386071Y-61057142D01*
X70428571Y-37107142D02*
X71571428Y-37107142D01*
X71000000Y-37678571D02*
X71000000Y-36535714D01*
X49278571Y-50121428D02*
X48564285Y-50621428D01*
X49278571Y-50978571D02*
X47778571Y-50978571D01*
X47778571Y-50407142D01*
X47850000Y-50264285D01*
X47921428Y-50192857D01*
X48064285Y-50121428D01*
X48278571Y-50121428D01*
X48421428Y-50192857D01*
X48492857Y-50264285D01*
X48564285Y-50407142D01*
X48564285Y-50978571D01*
X49207142Y-49550000D02*
X49278571Y-49335714D01*
X49278571Y-48978571D01*
X49207142Y-48835714D01*
X49135714Y-48764285D01*
X48992857Y-48692857D01*
X48850000Y-48692857D01*
X48707142Y-48764285D01*
X48635714Y-48835714D01*
X48564285Y-48978571D01*
X48492857Y-49264285D01*
X48421428Y-49407142D01*
X48350000Y-49478571D01*
X48207142Y-49550000D01*
X48064285Y-49550000D01*
X47921428Y-49478571D01*
X47850000Y-49407142D01*
X47778571Y-49264285D01*
X47778571Y-48907142D01*
X47850000Y-48692857D01*
X47778571Y-48264285D02*
X47778571Y-47407142D01*
X49278571Y-47835714D02*
X47778571Y-47835714D01*
X59200000Y-35114285D02*
X59295238Y-35209523D01*
X59200000Y-35304761D01*
X59104761Y-35209523D01*
X59200000Y-35114285D01*
X59200000Y-35304761D01*
X88878571Y-58035714D02*
X88878571Y-57464285D01*
X88378571Y-57821428D02*
X89664285Y-57821428D01*
X89807142Y-57750000D01*
X89878571Y-57607142D01*
X89878571Y-57464285D01*
X89807142Y-56321428D02*
X89878571Y-56464285D01*
X89878571Y-56750000D01*
X89807142Y-56892857D01*
X89735714Y-56964285D01*
X89592857Y-57035714D01*
X89164285Y-57035714D01*
X89021428Y-56964285D01*
X88950000Y-56892857D01*
X88878571Y-56750000D01*
X88878571Y-56464285D01*
X88950000Y-56321428D01*
X89807142Y-55035714D02*
X89878571Y-55178571D01*
X89878571Y-55464285D01*
X89807142Y-55607142D01*
X89735714Y-55678571D01*
X89592857Y-55750000D01*
X89164285Y-55750000D01*
X89021428Y-55678571D01*
X88950000Y-55607142D01*
X88878571Y-55464285D01*
X88878571Y-55178571D01*
X88950000Y-55035714D01*
X88307142Y-53321428D02*
X90235714Y-54607142D01*
X89878571Y-52821428D02*
X88878571Y-52821428D01*
X89164285Y-52821428D02*
X89021428Y-52750000D01*
X88950000Y-52678571D01*
X88878571Y-52535714D01*
X88878571Y-52392857D01*
X89878571Y-51250000D02*
X89092857Y-51250000D01*
X88950000Y-51321428D01*
X88878571Y-51464285D01*
X88878571Y-51750000D01*
X88950000Y-51892857D01*
X89807142Y-51250000D02*
X89878571Y-51392857D01*
X89878571Y-51750000D01*
X89807142Y-51892857D01*
X89664285Y-51964285D01*
X89521428Y-51964285D01*
X89378571Y-51892857D01*
X89307142Y-51750000D01*
X89307142Y-51392857D01*
X89235714Y-51250000D01*
X88878571Y-50750000D02*
X88878571Y-50178571D01*
X89878571Y-50535714D02*
X88592857Y-50535714D01*
X88450000Y-50464285D01*
X88378571Y-50321428D01*
X88378571Y-50178571D01*
X89878571Y-49035714D02*
X89092857Y-49035714D01*
X88950000Y-49107142D01*
X88878571Y-49250000D01*
X88878571Y-49535714D01*
X88950000Y-49678571D01*
X89807142Y-49035714D02*
X89878571Y-49178571D01*
X89878571Y-49535714D01*
X89807142Y-49678571D01*
X89664285Y-49750000D01*
X89521428Y-49750000D01*
X89378571Y-49678571D01*
X89307142Y-49535714D01*
X89307142Y-49178571D01*
X89235714Y-49035714D01*
X88878571Y-47678571D02*
X90092857Y-47678571D01*
X90235714Y-47750000D01*
X90307142Y-47821428D01*
X90378571Y-47964285D01*
X90378571Y-48178571D01*
X90307142Y-48321428D01*
X89807142Y-47678571D02*
X89878571Y-47821428D01*
X89878571Y-48107142D01*
X89807142Y-48250000D01*
X89735714Y-48321428D01*
X89592857Y-48392857D01*
X89164285Y-48392857D01*
X89021428Y-48321428D01*
X88950000Y-48250000D01*
X88878571Y-48107142D01*
X88878571Y-47821428D01*
X88950000Y-47678571D01*
X89807142Y-46392857D02*
X89878571Y-46535714D01*
X89878571Y-46821428D01*
X89807142Y-46964285D01*
X89664285Y-47035714D01*
X89092857Y-47035714D01*
X88950000Y-46964285D01*
X88878571Y-46821428D01*
X88878571Y-46535714D01*
X88950000Y-46392857D01*
X89092857Y-46321428D01*
X89235714Y-46321428D01*
X89378571Y-47035714D01*
X88878571Y-45678571D02*
X89878571Y-45678571D01*
X89021428Y-45678571D02*
X88950000Y-45607142D01*
X88878571Y-45464285D01*
X88878571Y-45250000D01*
X88950000Y-45107142D01*
X89092857Y-45035714D01*
X89878571Y-45035714D01*
X89878571Y-44107142D02*
X89807142Y-44250000D01*
X89735714Y-44321428D01*
X89592857Y-44392857D01*
X89164285Y-44392857D01*
X89021428Y-44321428D01*
X88950000Y-44250000D01*
X88878571Y-44107142D01*
X88878571Y-43892857D01*
X88950000Y-43750000D01*
X89021428Y-43678571D01*
X89164285Y-43607142D01*
X89592857Y-43607142D01*
X89735714Y-43678571D01*
X89807142Y-43750000D01*
X89878571Y-43892857D01*
X89878571Y-44107142D01*
X88878571Y-43107142D02*
X89878571Y-42750000D01*
X88878571Y-42392857D01*
X89878571Y-41178571D02*
X89092857Y-41178571D01*
X88950000Y-41250000D01*
X88878571Y-41392857D01*
X88878571Y-41678571D01*
X88950000Y-41821428D01*
X89807142Y-41178571D02*
X89878571Y-41321428D01*
X89878571Y-41678571D01*
X89807142Y-41821428D01*
X89664285Y-41892857D01*
X89521428Y-41892857D01*
X89378571Y-41821428D01*
X89307142Y-41678571D01*
X89307142Y-41321428D01*
X89235714Y-41178571D01*
X72878571Y-27200000D02*
X71378571Y-27200000D01*
X71378571Y-26628571D01*
X71450000Y-26485714D01*
X71521428Y-26414285D01*
X71664285Y-26342857D01*
X71878571Y-26342857D01*
X72021428Y-26414285D01*
X72092857Y-26485714D01*
X72164285Y-26628571D01*
X72164285Y-27200000D01*
X71378571Y-25842857D02*
X72878571Y-25485714D01*
X71807142Y-25200000D01*
X72878571Y-24914285D01*
X71378571Y-24557142D01*
X72878571Y-23128571D02*
X72164285Y-23628571D01*
X72878571Y-23985714D02*
X71378571Y-23985714D01*
X71378571Y-23414285D01*
X71450000Y-23271428D01*
X71521428Y-23200000D01*
X71664285Y-23128571D01*
X71878571Y-23128571D01*
X72021428Y-23200000D01*
X72092857Y-23271428D01*
X72164285Y-23414285D01*
X72164285Y-23985714D01*
X46928571Y-30607142D02*
X48071428Y-30607142D01*
X47500000Y-31178571D02*
X47500000Y-30035714D01*
X78407142Y-31035714D02*
X78478571Y-30821428D01*
X78478571Y-30464285D01*
X78407142Y-30321428D01*
X78335714Y-30250000D01*
X78192857Y-30178571D01*
X78050000Y-30178571D01*
X77907142Y-30250000D01*
X77835714Y-30321428D01*
X77764285Y-30464285D01*
X77692857Y-30750000D01*
X77621428Y-30892857D01*
X77550000Y-30964285D01*
X77407142Y-31035714D01*
X77264285Y-31035714D01*
X77121428Y-30964285D01*
X77050000Y-30892857D01*
X76978571Y-30750000D01*
X76978571Y-30392857D01*
X77050000Y-30178571D01*
X76978571Y-29678571D02*
X78478571Y-29321428D01*
X77407142Y-29035714D01*
X78478571Y-28750000D01*
X76978571Y-28392857D01*
X78478571Y-27821428D02*
X76978571Y-27821428D01*
X76978571Y-27464285D01*
X77050000Y-27250000D01*
X77192857Y-27107142D01*
X77335714Y-27035714D01*
X77621428Y-26964285D01*
X77835714Y-26964285D01*
X78121428Y-27035714D01*
X78264285Y-27107142D01*
X78407142Y-27250000D01*
X78478571Y-27464285D01*
X78478571Y-27821428D01*
X46928571Y-28607142D02*
X48071428Y-28607142D01*
X74407142Y-43514285D02*
X74478571Y-43300000D01*
X74478571Y-42942857D01*
X74407142Y-42800000D01*
X74335714Y-42728571D01*
X74192857Y-42657142D01*
X74050000Y-42657142D01*
X73907142Y-42728571D01*
X73835714Y-42800000D01*
X73764285Y-42942857D01*
X73692857Y-43228571D01*
X73621428Y-43371428D01*
X73550000Y-43442857D01*
X73407142Y-43514285D01*
X73264285Y-43514285D01*
X73121428Y-43442857D01*
X73050000Y-43371428D01*
X72978571Y-43228571D01*
X72978571Y-42871428D01*
X73050000Y-42657142D01*
X72978571Y-42228571D02*
X72978571Y-41371428D01*
X74478571Y-41800000D02*
X72978571Y-41800000D01*
X74050000Y-40942857D02*
X74050000Y-40228571D01*
X74478571Y-41085714D02*
X72978571Y-40585714D01*
X74478571Y-40085714D01*
X72978571Y-39800000D02*
X72978571Y-38942857D01*
X74478571Y-39371428D02*
X72978571Y-39371428D01*
D11*
X83361904Y-32795238D02*
X83933333Y-32795238D01*
X84047619Y-32833333D01*
X84123809Y-32909523D01*
X84161904Y-33023809D01*
X84161904Y-33100000D01*
X84161904Y-32033333D02*
X84161904Y-32414285D01*
X83361904Y-32414285D01*
X84085714Y-31309523D02*
X84123809Y-31347619D01*
X84161904Y-31461904D01*
X84161904Y-31538095D01*
X84123809Y-31652380D01*
X84047619Y-31728571D01*
X83971428Y-31766666D01*
X83819047Y-31804761D01*
X83704761Y-31804761D01*
X83552380Y-31766666D01*
X83476190Y-31728571D01*
X83400000Y-31652380D01*
X83361904Y-31538095D01*
X83361904Y-31461904D01*
X83400000Y-31347619D01*
X83438095Y-31309523D01*
X83361904Y-30738095D02*
X83933333Y-30738095D01*
X84047619Y-30776190D01*
X84123809Y-30852380D01*
X84161904Y-30966666D01*
X84161904Y-31042857D01*
X84161904Y-29976190D02*
X84161904Y-30357142D01*
X83361904Y-30357142D01*
X84085714Y-29252380D02*
X84123809Y-29290476D01*
X84161904Y-29404761D01*
X84161904Y-29480952D01*
X84123809Y-29595238D01*
X84047619Y-29671428D01*
X83971428Y-29709523D01*
X83819047Y-29747619D01*
X83704761Y-29747619D01*
X83552380Y-29709523D01*
X83476190Y-29671428D01*
X83400000Y-29595238D01*
X83361904Y-29480952D01*
X83361904Y-29404761D01*
X83400000Y-29290476D01*
X83438095Y-29252380D01*
X83361904Y-28680952D02*
X83933333Y-28680952D01*
X84047619Y-28719047D01*
X84123809Y-28795238D01*
X84161904Y-28909523D01*
X84161904Y-28985714D01*
X84161904Y-27919047D02*
X84161904Y-28300000D01*
X83361904Y-28300000D01*
X84085714Y-27195238D02*
X84123809Y-27233333D01*
X84161904Y-27347619D01*
X84161904Y-27423809D01*
X84123809Y-27538095D01*
X84047619Y-27614285D01*
X83971428Y-27652380D01*
X83819047Y-27690476D01*
X83704761Y-27690476D01*
X83552380Y-27652380D01*
X83476190Y-27614285D01*
X83400000Y-27538095D01*
X83361904Y-27423809D01*
X83361904Y-27347619D01*
X83400000Y-27233333D01*
X83438095Y-27195238D01*
X83361904Y-26623809D02*
X83933333Y-26623809D01*
X84047619Y-26661904D01*
X84123809Y-26738095D01*
X84161904Y-26852380D01*
X84161904Y-26928571D01*
X84161904Y-25861904D02*
X84161904Y-26242857D01*
X83361904Y-26242857D01*
X84085714Y-25138095D02*
X84123809Y-25176190D01*
X84161904Y-25290476D01*
X84161904Y-25366666D01*
X84123809Y-25480952D01*
X84047619Y-25557142D01*
X83971428Y-25595238D01*
X83819047Y-25633333D01*
X83704761Y-25633333D01*
X83552380Y-25595238D01*
X83476190Y-25557142D01*
X83400000Y-25480952D01*
X83361904Y-25366666D01*
X83361904Y-25290476D01*
X83400000Y-25176190D01*
X83438095Y-25138095D01*
D10*
X66530357Y-25128571D02*
X66530357Y-26271428D01*
X65958928Y-25700000D02*
X67101785Y-25700000D01*
D12*
%TO.C,FB1*%
X57200378Y-44190000D02*
X57999622Y-44190000D01*
X57200378Y-45310000D02*
X57999622Y-45310000D01*
%TO.C,C12*%
X67890000Y-60359420D02*
X67890000Y-60640580D01*
X68910000Y-60359420D02*
X68910000Y-60640580D01*
%TO.C,X1*%
X61150000Y-49700000D02*
X61150000Y-53700000D01*
X64450000Y-49700000D02*
X61150000Y-49700000D01*
%TO.C,C16*%
X71160000Y-34892164D02*
X71160000Y-35107836D01*
X70440000Y-34892164D02*
X70440000Y-35107836D01*
%TO.C,C10*%
X73810000Y-57440580D02*
X73810000Y-57159420D01*
X72790000Y-57440580D02*
X72790000Y-57159420D01*
%TO.C,C2*%
X57061252Y-28490000D02*
X56538748Y-28490000D01*
X57061252Y-29960000D02*
X56538748Y-29960000D01*
%TO.C,R3*%
X69249758Y-23477500D02*
X68775242Y-23477500D01*
X69249758Y-24522500D02*
X68775242Y-24522500D01*
%TO.C,C21*%
X57911252Y-42065000D02*
X57388748Y-42065000D01*
X57911252Y-43535000D02*
X57388748Y-43535000D01*
%TO.C,C20*%
X55807836Y-39740000D02*
X55592164Y-39740000D01*
X55807836Y-40460000D02*
X55592164Y-40460000D01*
%TO.C,D1*%
X70472500Y-24965000D02*
X68187500Y-24965000D01*
X70472500Y-26435000D02*
X70472500Y-24965000D01*
X68187500Y-26435000D02*
X70472500Y-26435000D01*
%TO.C,R6*%
X69962742Y-32577500D02*
X70437258Y-32577500D01*
X69962742Y-33622500D02*
X70437258Y-33622500D01*
%TO.C,J1*%
X52700000Y-29025000D02*
X52700000Y-27075000D01*
X50700000Y-26465000D02*
X50700000Y-27075000D01*
X49200000Y-29425000D02*
X49700000Y-29425000D01*
X49700000Y-29625000D02*
X49200000Y-29625000D01*
X52000000Y-26465000D02*
X52000000Y-27075000D01*
X52700000Y-31975000D02*
X52700000Y-30025000D01*
X52000000Y-32585000D02*
X52000000Y-31975000D01*
X53510000Y-27925000D02*
X53310000Y-27925000D01*
X49200000Y-27075000D02*
X49200000Y-31975000D01*
X48590000Y-26465000D02*
X48590000Y-32585000D01*
X53310000Y-28225000D02*
X53510000Y-28225000D01*
X53310000Y-26465000D02*
X48590000Y-26465000D01*
X53410000Y-28225000D02*
X53410000Y-27925000D01*
X52700000Y-30025000D02*
X53310000Y-30025000D01*
X53310000Y-32585000D02*
X53310000Y-26465000D01*
X49700000Y-29425000D02*
X49700000Y-29625000D01*
X53310000Y-29025000D02*
X52700000Y-29025000D01*
X53510000Y-28225000D02*
X53510000Y-27925000D01*
X48590000Y-32585000D02*
X53310000Y-32585000D01*
X53610000Y-26165000D02*
X52360000Y-26165000D01*
X49200000Y-31975000D02*
X52700000Y-31975000D01*
X50700000Y-32585000D02*
X50700000Y-31975000D01*
X52700000Y-27075000D02*
X49200000Y-27075000D01*
X49200000Y-29525000D02*
X49700000Y-29525000D01*
X53610000Y-27415000D02*
X53610000Y-26165000D01*
%TO.C,C6*%
X76390000Y-51559420D02*
X76390000Y-51840580D01*
X77410000Y-51559420D02*
X77410000Y-51840580D01*
%TO.C,C3*%
X75290000Y-48640580D02*
X75290000Y-48359420D01*
X76310000Y-48640580D02*
X76310000Y-48359420D01*
%TO.C,R4*%
X64877500Y-30137258D02*
X64877500Y-29662742D01*
X65922500Y-30137258D02*
X65922500Y-29662742D01*
%TO.C,C15*%
X62292164Y-32560000D02*
X62507836Y-32560000D01*
X62292164Y-31840000D02*
X62507836Y-31840000D01*
%TO.C,C17*%
X60307836Y-34560000D02*
X60092164Y-34560000D01*
X60307836Y-33840000D02*
X60092164Y-33840000D01*
%TO.C,L3*%
X69590000Y-60662779D02*
X69590000Y-60337221D01*
X70610000Y-60662779D02*
X70610000Y-60337221D01*
%TO.C,X2*%
X57150000Y-35300000D02*
X53850000Y-35300000D01*
X53850000Y-35300000D02*
X53850000Y-39300000D01*
%TO.C,R1*%
X66680000Y-51653641D02*
X66680000Y-51346359D01*
X65920000Y-51653641D02*
X65920000Y-51346359D01*
%TO.C,L1*%
X71062779Y-55990000D02*
X70737221Y-55990000D01*
X71062779Y-57010000D02*
X70737221Y-57010000D01*
%TO.C,C9*%
X74590000Y-51559420D02*
X74590000Y-51840580D01*
X75610000Y-51559420D02*
X75610000Y-51840580D01*
D13*
%TO.C,J2*%
X69900000Y-68300000D02*
X69900000Y-65300000D01*
X76900000Y-68300000D02*
X76900000Y-65300000D01*
X71900000Y-70300000D02*
X74900000Y-70300000D01*
X71900000Y-63300000D02*
X74900000Y-63300000D01*
D14*
%TO.C,IC1*%
X73525000Y-47075000D02*
G75*
G03*
X73525000Y-47075000I-125000J0D01*
G01*
D12*
%TO.C,R7*%
X76262742Y-38322500D02*
X76737258Y-38322500D01*
X76262742Y-37277500D02*
X76737258Y-37277500D01*
%TO.C,R5*%
X58346359Y-38580000D02*
X58653641Y-38580000D01*
X58346359Y-37820000D02*
X58653641Y-37820000D01*
%TO.C,C14*%
X62138748Y-29665000D02*
X62661252Y-29665000D01*
X62138748Y-31135000D02*
X62661252Y-31135000D01*
%TO.C,R2*%
X76237258Y-53977500D02*
X75762742Y-53977500D01*
X76237258Y-55022500D02*
X75762742Y-55022500D01*
%TO.C,SW1*%
X56950000Y-46250000D02*
X52450000Y-46250000D01*
X52450000Y-52750000D02*
X56950000Y-52750000D01*
X58200000Y-50250000D02*
X58200000Y-48750000D01*
X51200000Y-48750000D02*
X51200000Y-50250000D01*
%TO.C,C13*%
X72890000Y-60359420D02*
X72890000Y-60640580D01*
X73910000Y-60359420D02*
X73910000Y-60640580D01*
%TO.C,L2*%
X71190000Y-60337221D02*
X71190000Y-60662779D01*
X72210000Y-60337221D02*
X72210000Y-60662779D01*
%TO.C,C8*%
X63035000Y-25688748D02*
X63035000Y-26211252D01*
X61565000Y-25688748D02*
X61565000Y-26211252D01*
D15*
%TO.C,IC2*%
X58925000Y-27380000D02*
X58925000Y-24520000D01*
X59075000Y-24520000D02*
X59075000Y-27380000D01*
X58925000Y-24520000D02*
X59075000Y-24520000D01*
X60675000Y-27475000D02*
X59425000Y-27475000D01*
X59075000Y-27380000D02*
X58925000Y-27380000D01*
D12*
%TO.C,C4*%
X62392164Y-48540000D02*
X62607836Y-48540000D01*
X62392164Y-49260000D02*
X62607836Y-49260000D01*
%TO.C,U1*%
X61840000Y-34390000D02*
X61390000Y-34390000D01*
X61390000Y-34390000D02*
X61390000Y-34840000D01*
X61390000Y-34840000D02*
X60100000Y-34840000D01*
X61840000Y-41610000D02*
X61390000Y-41610000D01*
X68160000Y-41610000D02*
X68610000Y-41610000D01*
X61390000Y-41610000D02*
X61390000Y-41160000D01*
X68610000Y-41610000D02*
X68610000Y-41160000D01*
X68160000Y-34390000D02*
X68610000Y-34390000D01*
X68610000Y-34390000D02*
X68610000Y-34840000D01*
%TO.C,C7*%
X67040580Y-55410000D02*
X66759420Y-55410000D01*
X67040580Y-54390000D02*
X66759420Y-54390000D01*
%TO.C,D2*%
X74485000Y-38535000D02*
X74485000Y-37065000D01*
X74485000Y-37065000D02*
X72200000Y-37065000D01*
X72200000Y-38535000D02*
X74485000Y-38535000D01*
%TO.C,C19*%
X55192164Y-34860000D02*
X55407836Y-34860000D01*
X55192164Y-34140000D02*
X55407836Y-34140000D01*
%TO.C,J3*%
X86400000Y-23260000D02*
X86400000Y-22690000D01*
X81200000Y-35510000D02*
X81200000Y-34940000D01*
X81200000Y-25800000D02*
X81200000Y-24780000D01*
X86400000Y-35510000D02*
X81200000Y-35510000D01*
X87840000Y-34940000D02*
X86400000Y-34940000D01*
X86400000Y-33420000D02*
X86400000Y-32400000D01*
X81200000Y-23260000D02*
X81200000Y-22690000D01*
X81200000Y-33420000D02*
X81200000Y-32400000D01*
X86400000Y-22690000D02*
X81200000Y-22690000D01*
X86400000Y-30880000D02*
X86400000Y-29860000D01*
X81200000Y-28340000D02*
X81200000Y-27320000D01*
X86400000Y-28340000D02*
X86400000Y-27320000D01*
X86400000Y-25800000D02*
X86400000Y-24780000D01*
X86400000Y-35510000D02*
X86400000Y-34940000D01*
X81200000Y-30880000D02*
X81200000Y-29860000D01*
%TO.C,C18*%
X69140000Y-42442164D02*
X69140000Y-42657836D01*
X69860000Y-42442164D02*
X69860000Y-42657836D01*
%TO.C,C23*%
X60560000Y-46442164D02*
X60560000Y-46657836D01*
X59840000Y-46442164D02*
X59840000Y-46657836D01*
%TO.C,C1*%
X70659420Y-44090000D02*
X70940580Y-44090000D01*
X70659420Y-45110000D02*
X70940580Y-45110000D01*
%TO.C,C5*%
X62907836Y-54140000D02*
X62692164Y-54140000D01*
X62907836Y-54860000D02*
X62692164Y-54860000D01*
%TO.C,C22*%
X58487836Y-41560000D02*
X58272164Y-41560000D01*
X58487836Y-40840000D02*
X58272164Y-40840000D01*
%TO.C,C11*%
X67890000Y-57259420D02*
X67890000Y-57540580D01*
X68910000Y-57259420D02*
X68910000Y-57540580D01*
%TO.C,F1*%
X55697936Y-32735000D02*
X56902064Y-32735000D01*
X55697936Y-30915000D02*
X56902064Y-30915000D01*
%TD*%
M02*
