%TF.GenerationSoftware,KiCad,Pcbnew,(6.0.4)*%
%TF.CreationDate,2022-08-25T17:00:53-03:00*%
%TF.ProjectId,rf-system-transmitter,72662d73-7973-4746-956d-2d7472616e73,rev?*%
%TF.SameCoordinates,Original*%
%TF.FileFunction,Copper,L1,Top*%
%TF.FilePolarity,Positive*%
%FSLAX46Y46*%
G04 Gerber Fmt 4.6, Leading zero omitted, Abs format (unit mm)*
G04 Created by KiCad (PCBNEW (6.0.4)) date 2022-08-25 17:00:53*
%MOMM*%
%LPD*%
G01*
G04 APERTURE LIST*
G04 Aperture macros list*
%AMRoundRect*
0 Rectangle with rounded corners*
0 $1 Rounding radius*
0 $2 $3 $4 $5 $6 $7 $8 $9 X,Y pos of 4 corners*
0 Add a 4 corners polygon primitive as box body*
4,1,4,$2,$3,$4,$5,$6,$7,$8,$9,$2,$3,0*
0 Add four circle primitives for the rounded corners*
1,1,$1+$1,$2,$3*
1,1,$1+$1,$4,$5*
1,1,$1+$1,$6,$7*
1,1,$1+$1,$8,$9*
0 Add four rect primitives between the rounded corners*
20,1,$1+$1,$2,$3,$4,$5,0*
20,1,$1+$1,$4,$5,$6,$7,0*
20,1,$1+$1,$6,$7,$8,$9,0*
20,1,$1+$1,$8,$9,$2,$3,0*%
G04 Aperture macros list end*
%TA.AperFunction,SMDPad,CuDef*%
%ADD10RoundRect,0.218750X-0.218750X-0.381250X0.218750X-0.381250X0.218750X0.381250X-0.218750X0.381250X0*%
%TD*%
%TA.AperFunction,SMDPad,CuDef*%
%ADD11RoundRect,0.225000X-0.250000X0.225000X-0.250000X-0.225000X0.250000X-0.225000X0.250000X0.225000X0*%
%TD*%
%TA.AperFunction,SMDPad,CuDef*%
%ADD12R,1.200000X1.400000*%
%TD*%
%TA.AperFunction,SMDPad,CuDef*%
%ADD13RoundRect,0.140000X-0.170000X0.140000X-0.170000X-0.140000X0.170000X-0.140000X0.170000X0.140000X0*%
%TD*%
%TA.AperFunction,SMDPad,CuDef*%
%ADD14RoundRect,0.225000X0.250000X-0.225000X0.250000X0.225000X-0.250000X0.225000X-0.250000X-0.225000X0*%
%TD*%
%TA.AperFunction,SMDPad,CuDef*%
%ADD15C,1.000000*%
%TD*%
%TA.AperFunction,SMDPad,CuDef*%
%ADD16RoundRect,0.250000X0.250000X0.475000X-0.250000X0.475000X-0.250000X-0.475000X0.250000X-0.475000X0*%
%TD*%
%TA.AperFunction,SMDPad,CuDef*%
%ADD17RoundRect,0.200000X0.200000X0.275000X-0.200000X0.275000X-0.200000X-0.275000X0.200000X-0.275000X0*%
%TD*%
%TA.AperFunction,SMDPad,CuDef*%
%ADD18RoundRect,0.140000X0.140000X0.170000X-0.140000X0.170000X-0.140000X-0.170000X0.140000X-0.170000X0*%
%TD*%
%TA.AperFunction,SMDPad,CuDef*%
%ADD19RoundRect,0.218750X0.218750X0.256250X-0.218750X0.256250X-0.218750X-0.256250X0.218750X-0.256250X0*%
%TD*%
%TA.AperFunction,SMDPad,CuDef*%
%ADD20RoundRect,0.200000X-0.200000X-0.275000X0.200000X-0.275000X0.200000X0.275000X-0.200000X0.275000X0*%
%TD*%
%TA.AperFunction,ComponentPad*%
%ADD21RoundRect,0.250000X-0.625000X0.350000X-0.625000X-0.350000X0.625000X-0.350000X0.625000X0.350000X0*%
%TD*%
%TA.AperFunction,ComponentPad*%
%ADD22O,1.750000X1.200000*%
%TD*%
%TA.AperFunction,SMDPad,CuDef*%
%ADD23RoundRect,0.200000X0.275000X-0.200000X0.275000X0.200000X-0.275000X0.200000X-0.275000X-0.200000X0*%
%TD*%
%TA.AperFunction,SMDPad,CuDef*%
%ADD24RoundRect,0.140000X-0.140000X-0.170000X0.140000X-0.170000X0.140000X0.170000X-0.140000X0.170000X0*%
%TD*%
%TA.AperFunction,SMDPad,CuDef*%
%ADD25RoundRect,0.218750X0.256250X-0.218750X0.256250X0.218750X-0.256250X0.218750X-0.256250X-0.218750X0*%
%TD*%
%TA.AperFunction,SMDPad,CuDef*%
%ADD26RoundRect,0.135000X0.185000X-0.135000X0.185000X0.135000X-0.185000X0.135000X-0.185000X-0.135000X0*%
%TD*%
%TA.AperFunction,ComponentPad*%
%ADD27C,2.100000*%
%TD*%
%TA.AperFunction,ComponentPad*%
%ADD28C,2.250000*%
%TD*%
%TA.AperFunction,SMDPad,CuDef*%
%ADD29R,0.300000X0.850000*%
%TD*%
%TA.AperFunction,SMDPad,CuDef*%
%ADD30R,0.850000X0.300000*%
%TD*%
%TA.AperFunction,SMDPad,CuDef*%
%ADD31R,3.400000X3.400000*%
%TD*%
%TA.AperFunction,SMDPad,CuDef*%
%ADD32RoundRect,0.135000X-0.135000X-0.185000X0.135000X-0.185000X0.135000X0.185000X-0.135000X0.185000X0*%
%TD*%
%TA.AperFunction,SMDPad,CuDef*%
%ADD33RoundRect,0.250000X-0.250000X-0.475000X0.250000X-0.475000X0.250000X0.475000X-0.250000X0.475000X0*%
%TD*%
%TA.AperFunction,ComponentPad*%
%ADD34C,2.000000*%
%TD*%
%TA.AperFunction,SMDPad,CuDef*%
%ADD35RoundRect,0.218750X-0.256250X0.218750X-0.256250X-0.218750X0.256250X-0.218750X0.256250X0.218750X0*%
%TD*%
%TA.AperFunction,SMDPad,CuDef*%
%ADD36RoundRect,0.250000X-0.475000X0.250000X-0.475000X-0.250000X0.475000X-0.250000X0.475000X0.250000X0*%
%TD*%
%TA.AperFunction,SMDPad,CuDef*%
%ADD37R,1.250000X0.650000*%
%TD*%
%TA.AperFunction,SMDPad,CuDef*%
%ADD38RoundRect,0.075000X-0.662500X-0.075000X0.662500X-0.075000X0.662500X0.075000X-0.662500X0.075000X0*%
%TD*%
%TA.AperFunction,SMDPad,CuDef*%
%ADD39RoundRect,0.075000X-0.075000X-0.662500X0.075000X-0.662500X0.075000X0.662500X-0.075000X0.662500X0*%
%TD*%
%TA.AperFunction,SMDPad,CuDef*%
%ADD40RoundRect,0.225000X0.225000X0.250000X-0.225000X0.250000X-0.225000X-0.250000X0.225000X-0.250000X0*%
%TD*%
%TA.AperFunction,SMDPad,CuDef*%
%ADD41R,3.150000X1.000000*%
%TD*%
%TA.AperFunction,SMDPad,CuDef*%
%ADD42RoundRect,0.225000X-0.225000X-0.250000X0.225000X-0.250000X0.225000X0.250000X-0.225000X0.250000X0*%
%TD*%
%TA.AperFunction,SMDPad,CuDef*%
%ADD43RoundRect,0.250000X-0.375000X-0.625000X0.375000X-0.625000X0.375000X0.625000X-0.375000X0.625000X0*%
%TD*%
%TA.AperFunction,ViaPad*%
%ADD44C,0.700000*%
%TD*%
%TA.AperFunction,ViaPad*%
%ADD45C,0.800000*%
%TD*%
%TA.AperFunction,Conductor*%
%ADD46C,0.250000*%
%TD*%
%TA.AperFunction,Conductor*%
%ADD47C,0.500000*%
%TD*%
%TA.AperFunction,Conductor*%
%ADD48C,0.293370*%
%TD*%
%TA.AperFunction,Conductor*%
%ADD49C,0.300000*%
%TD*%
G04 APERTURE END LIST*
D10*
%TO.P,FB1,1*%
%TO.N,+3V3*%
X56537500Y-44750000D03*
%TO.P,FB1,2*%
%TO.N,+3.3VA*%
X58662500Y-44750000D03*
%TD*%
D11*
%TO.P,C12,1*%
%TO.N,Net-(C12-Pad1)*%
X68400000Y-59725000D03*
%TO.P,C12,2*%
%TO.N,GND*%
X68400000Y-61275000D03*
%TD*%
D12*
%TO.P,X1,1,1*%
%TO.N,XC1*%
X61950000Y-50600000D03*
%TO.P,X1,2,2*%
%TO.N,GND*%
X61950000Y-52800000D03*
%TO.P,X1,3,3*%
%TO.N,XC2*%
X63650000Y-52800000D03*
%TO.P,X1,4,4*%
%TO.N,GND*%
X63650000Y-50600000D03*
%TD*%
D13*
%TO.P,C16,1*%
%TO.N,+3V3*%
X70800000Y-34520000D03*
%TO.P,C16,2*%
%TO.N,GND*%
X70800000Y-35480000D03*
%TD*%
D14*
%TO.P,C10,1*%
%TO.N,GND*%
X73300000Y-58075000D03*
%TO.P,C10,2*%
%TO.N,Net-(C10-Pad2)*%
X73300000Y-56525000D03*
%TD*%
D15*
%TO.P,FID1,*%
%TO.N,*%
X50000000Y-37000000D03*
%TD*%
D16*
%TO.P,C2,1*%
%TO.N,Net-(C2-Pad1)*%
X57750000Y-29225000D03*
%TO.P,C2,2*%
%TO.N,GND*%
X55850000Y-29225000D03*
%TD*%
D17*
%TO.P,R3,1*%
%TO.N,Net-(D1-Pad1)*%
X69837500Y-24000000D03*
%TO.P,R3,2*%
%TO.N,GND*%
X68187500Y-24000000D03*
%TD*%
D16*
%TO.P,C21,1*%
%TO.N,+3.3VA*%
X58600000Y-42800000D03*
%TO.P,C21,2*%
%TO.N,GND*%
X56700000Y-42800000D03*
%TD*%
D18*
%TO.P,C20,1*%
%TO.N,Net-(C20-Pad1)*%
X56180000Y-40100000D03*
%TO.P,C20,2*%
%TO.N,GND*%
X55220000Y-40100000D03*
%TD*%
D19*
%TO.P,D1,1,K*%
%TO.N,Net-(D1-Pad1)*%
X69775000Y-25700000D03*
%TO.P,D1,2,A*%
%TO.N,+3V3*%
X68200000Y-25700000D03*
%TD*%
D20*
%TO.P,R6,1*%
%TO.N,BOOT1*%
X69375000Y-33100000D03*
%TO.P,R6,2*%
%TO.N,GND*%
X71025000Y-33100000D03*
%TD*%
D21*
%TO.P,J1,1,Pin_1*%
%TO.N,GND*%
X51500000Y-28525000D03*
D22*
%TO.P,J1,2,Pin_2*%
%TO.N,+3V7*%
X51500000Y-30525000D03*
%TD*%
D11*
%TO.P,C6,1*%
%TO.N,+3V3*%
X76900000Y-50925000D03*
%TO.P,C6,2*%
%TO.N,GND*%
X76900000Y-52475000D03*
%TD*%
D14*
%TO.P,C3,1*%
%TO.N,GND*%
X75800000Y-49275000D03*
%TO.P,C3,2*%
%TO.N,Net-(C3-Pad2)*%
X75800000Y-47725000D03*
%TD*%
D23*
%TO.P,R4,1*%
%TO.N,BOOT0*%
X65400000Y-30725000D03*
%TO.P,R4,2*%
%TO.N,GND*%
X65400000Y-29075000D03*
%TD*%
D24*
%TO.P,C15,1*%
%TO.N,+3V3*%
X61920000Y-32200000D03*
%TO.P,C15,2*%
%TO.N,GND*%
X62880000Y-32200000D03*
%TD*%
D18*
%TO.P,C17,1*%
%TO.N,+3V3*%
X60680000Y-34200000D03*
%TO.P,C17,2*%
%TO.N,GND*%
X59720000Y-34200000D03*
%TD*%
D15*
%TO.P,FID3,*%
%TO.N,*%
X50000000Y-61400000D03*
%TD*%
D25*
%TO.P,L3,1*%
%TO.N,Net-(C12-Pad1)*%
X70100000Y-61287500D03*
%TO.P,L3,2*%
%TO.N,Net-(C11-Pad1)*%
X70100000Y-59712500D03*
%TD*%
D15*
%TO.P,FID2,*%
%TO.N,*%
X88700000Y-38600000D03*
%TD*%
D12*
%TO.P,X2,1,1*%
%TO.N,OSC_IN*%
X54650000Y-36200000D03*
%TO.P,X2,2,2*%
%TO.N,GND*%
X54650000Y-38400000D03*
%TO.P,X2,3,3*%
%TO.N,Net-(C20-Pad1)*%
X56350000Y-38400000D03*
%TO.P,X2,4,4*%
%TO.N,GND*%
X56350000Y-36200000D03*
%TD*%
D26*
%TO.P,R1,1*%
%TO.N,XC2*%
X66300000Y-52010000D03*
%TO.P,R1,2*%
%TO.N,XC1*%
X66300000Y-50990000D03*
%TD*%
D19*
%TO.P,L1,1*%
%TO.N,Net-(C10-Pad2)*%
X71687500Y-56500000D03*
%TO.P,L1,2*%
%TO.N,Net-(C11-Pad1)*%
X70112500Y-56500000D03*
%TD*%
D11*
%TO.P,C9,1*%
%TO.N,+3V3*%
X75100000Y-50925000D03*
%TO.P,C9,2*%
%TO.N,GND*%
X75100000Y-52475000D03*
%TD*%
D27*
%TO.P,J2,1,1*%
%TO.N,Net-(C13-Pad2)*%
X73400000Y-66800000D03*
D28*
%TO.P,J2,2,2*%
%TO.N,GND*%
X75950000Y-69350000D03*
%TO.P,J2,3,3*%
X75950000Y-64250000D03*
%TO.P,J2,4,4*%
X70850000Y-64250000D03*
%TO.P,J2,5,5*%
X70850000Y-69350000D03*
%TD*%
D29*
%TO.P,IC1,1,TRX_CE*%
%TO.N,TRX_CE*%
X72650000Y-47500000D03*
%TO.P,IC1,2,PWR_UP*%
%TO.N,PWR_UP*%
X72150000Y-47500000D03*
%TO.P,IC1,3,UPCLK*%
%TO.N,UPCLK*%
X71650000Y-47500000D03*
%TO.P,IC1,4,VDD_1*%
%TO.N,+3V3*%
X71150000Y-47500000D03*
%TO.P,IC1,5,VSS_1*%
%TO.N,GND*%
X70650000Y-47500000D03*
%TO.P,IC1,6,CD*%
%TO.N,CD*%
X70150000Y-47500000D03*
%TO.P,IC1,7,AM*%
%TO.N,AM*%
X69650000Y-47500000D03*
%TO.P,IC1,8,DR*%
%TO.N,DR*%
X69150000Y-47500000D03*
D30*
%TO.P,IC1,9,VSS_2*%
%TO.N,GND*%
X68450000Y-48200000D03*
%TO.P,IC1,10,MISO*%
%TO.N,SPI_MISO*%
X68450000Y-48700000D03*
%TO.P,IC1,11,MOSI*%
%TO.N,SPI_MOSI*%
X68450000Y-49200000D03*
%TO.P,IC1,12,SCK*%
%TO.N,SPI_SCK*%
X68450000Y-49700000D03*
%TO.P,IC1,13,CSN*%
%TO.N,SPI_CSN*%
X68450000Y-50200000D03*
%TO.P,IC1,14,XC1*%
%TO.N,XC1*%
X68450000Y-50700000D03*
%TO.P,IC1,15,XC2*%
%TO.N,XC2*%
X68450000Y-51200000D03*
%TO.P,IC1,16,VSS_3*%
%TO.N,GND*%
X68450000Y-51700000D03*
D29*
%TO.P,IC1,17,VDD_2*%
%TO.N,+3V3*%
X69150000Y-52400000D03*
%TO.P,IC1,18,VSS_4*%
%TO.N,GND*%
X69650000Y-52400000D03*
%TO.P,IC1,19,VDD_PA*%
%TO.N,Net-(C12-Pad1)*%
X70150000Y-52400000D03*
%TO.P,IC1,20,ANT1*%
%TO.N,Net-(C11-Pad1)*%
X70650000Y-52400000D03*
%TO.P,IC1,21,ANT2*%
%TO.N,Net-(C10-Pad2)*%
X71150000Y-52400000D03*
%TO.P,IC1,22,VSS_5*%
%TO.N,GND*%
X71650000Y-52400000D03*
%TO.P,IC1,23,IREF*%
%TO.N,Net-(IC1-Pad23)*%
X72150000Y-52400000D03*
%TO.P,IC1,24,VSS_6*%
%TO.N,GND*%
X72650000Y-52400000D03*
D30*
%TO.P,IC1,25,VDD_3*%
%TO.N,+3V3*%
X73350000Y-51700000D03*
%TO.P,IC1,26,VSS_7*%
%TO.N,GND*%
X73350000Y-51200000D03*
%TO.P,IC1,27,VSS_8*%
X73350000Y-50700000D03*
%TO.P,IC1,28,VSS_9*%
X73350000Y-50200000D03*
%TO.P,IC1,29,VSS_10*%
X73350000Y-49700000D03*
%TO.P,IC1,30,VSS_11*%
X73350000Y-49200000D03*
%TO.P,IC1,31,DVDD_1V2*%
%TO.N,Net-(C3-Pad2)*%
X73350000Y-48700000D03*
%TO.P,IC1,32,TX_EN*%
%TO.N,TX_EN*%
X73350000Y-48200000D03*
D31*
%TO.P,IC1,33,EP*%
%TO.N,unconnected-(IC1-Pad33)*%
X70900000Y-49950000D03*
%TD*%
D20*
%TO.P,R7,1*%
%TO.N,Net-(D2-Pad1)*%
X75675000Y-37800000D03*
%TO.P,R7,2*%
%TO.N,GND*%
X77325000Y-37800000D03*
%TD*%
D15*
%TO.P,FID4,*%
%TO.N,*%
X88700000Y-61000000D03*
%TD*%
D32*
%TO.P,R5,1*%
%TO.N,Net-(C20-Pad1)*%
X57990000Y-38200000D03*
%TO.P,R5,2*%
%TO.N,OSC_OUT*%
X59010000Y-38200000D03*
%TD*%
D33*
%TO.P,C14,1*%
%TO.N,+3V3*%
X61450000Y-30400000D03*
%TO.P,C14,2*%
%TO.N,GND*%
X63350000Y-30400000D03*
%TD*%
D17*
%TO.P,R2,1*%
%TO.N,Net-(IC1-Pad23)*%
X76825000Y-54500000D03*
%TO.P,R2,2*%
%TO.N,GND*%
X75175000Y-54500000D03*
%TD*%
D34*
%TO.P,SW1,1,1*%
%TO.N,NRST*%
X57950000Y-47250000D03*
X51450000Y-47250000D03*
%TO.P,SW1,2,2*%
%TO.N,GND*%
X57950000Y-51750000D03*
X51450000Y-51750000D03*
%TD*%
D11*
%TO.P,C13,1*%
%TO.N,Net-(C13-Pad1)*%
X73400000Y-59725000D03*
%TO.P,C13,2*%
%TO.N,Net-(C13-Pad2)*%
X73400000Y-61275000D03*
%TD*%
D35*
%TO.P,L2,1*%
%TO.N,Net-(C10-Pad2)*%
X71700000Y-59712500D03*
%TO.P,L2,2*%
%TO.N,Net-(C13-Pad1)*%
X71700000Y-61287500D03*
%TD*%
D36*
%TO.P,C8,1*%
%TO.N,+3V3*%
X62300000Y-25000000D03*
%TO.P,C8,2*%
%TO.N,GND*%
X62300000Y-26900000D03*
%TD*%
D37*
%TO.P,IC2,1,GND*%
%TO.N,GND*%
X60050000Y-26900000D03*
%TO.P,IC2,2,VOUT*%
%TO.N,+3V3*%
X60050000Y-25000000D03*
%TO.P,IC2,3,VIN*%
%TO.N,Net-(C2-Pad1)*%
X57950000Y-25950000D03*
%TD*%
D24*
%TO.P,C4,1*%
%TO.N,XC1*%
X62020000Y-48900000D03*
%TO.P,C4,2*%
%TO.N,GND*%
X62980000Y-48900000D03*
%TD*%
D38*
%TO.P,U1,1,VBAT*%
%TO.N,+3V3*%
X60837500Y-35250000D03*
%TO.P,U1,2,PC13*%
%TO.N,unconnected-(U1-Pad2)*%
X60837500Y-35750000D03*
%TO.P,U1,3,PC14*%
%TO.N,unconnected-(U1-Pad3)*%
X60837500Y-36250000D03*
%TO.P,U1,4,PC15*%
%TO.N,unconnected-(U1-Pad4)*%
X60837500Y-36750000D03*
%TO.P,U1,5,PD0*%
%TO.N,OSC_IN*%
X60837500Y-37250000D03*
%TO.P,U1,6,PD1*%
%TO.N,OSC_OUT*%
X60837500Y-37750000D03*
%TO.P,U1,7,NRST*%
%TO.N,NRST*%
X60837500Y-38250000D03*
%TO.P,U1,8,VSSA*%
%TO.N,GND*%
X60837500Y-38750000D03*
%TO.P,U1,9,VDDA*%
%TO.N,+3.3VA*%
X60837500Y-39250000D03*
%TO.P,U1,10,PA0*%
%TO.N,unconnected-(U1-Pad10)*%
X60837500Y-39750000D03*
%TO.P,U1,11,PA1*%
%TO.N,unconnected-(U1-Pad11)*%
X60837500Y-40250000D03*
%TO.P,U1,12,PA2*%
%TO.N,unconnected-(U1-Pad12)*%
X60837500Y-40750000D03*
D39*
%TO.P,U1,13,PA3*%
%TO.N,unconnected-(U1-Pad13)*%
X62250000Y-42162500D03*
%TO.P,U1,14,PA4*%
%TO.N,SPI_CSN*%
X62750000Y-42162500D03*
%TO.P,U1,15,PA5*%
%TO.N,SPI_SCK*%
X63250000Y-42162500D03*
%TO.P,U1,16,PA6*%
%TO.N,SPI_MISO*%
X63750000Y-42162500D03*
%TO.P,U1,17,PA7*%
%TO.N,SPI_MOSI*%
X64250000Y-42162500D03*
%TO.P,U1,18,PB0*%
%TO.N,unconnected-(U1-Pad18)*%
X64750000Y-42162500D03*
%TO.P,U1,19,PB1*%
%TO.N,DR*%
X65250000Y-42162500D03*
%TO.P,U1,20,PB2*%
%TO.N,BOOT1*%
X65750000Y-42162500D03*
%TO.P,U1,21,PB10*%
%TO.N,AM*%
X66250000Y-42162500D03*
%TO.P,U1,22,PB11*%
%TO.N,CD*%
X66750000Y-42162500D03*
%TO.P,U1,23,VSS*%
%TO.N,GND*%
X67250000Y-42162500D03*
%TO.P,U1,24,VDD*%
%TO.N,+3V3*%
X67750000Y-42162500D03*
D38*
%TO.P,U1,25,PB12*%
%TO.N,UPCLK*%
X69162500Y-40750000D03*
%TO.P,U1,26,PB13*%
%TO.N,PWR_UP*%
X69162500Y-40250000D03*
%TO.P,U1,27,PB14*%
%TO.N,TRX_CE*%
X69162500Y-39750000D03*
%TO.P,U1,28,PB15*%
%TO.N,TX_EN*%
X69162500Y-39250000D03*
%TO.P,U1,29,PA8*%
%TO.N,unconnected-(U1-Pad29)*%
X69162500Y-38750000D03*
%TO.P,U1,30,PA9*%
%TO.N,unconnected-(U1-Pad30)*%
X69162500Y-38250000D03*
%TO.P,U1,31,PA10*%
%TO.N,unconnected-(U1-Pad31)*%
X69162500Y-37750000D03*
%TO.P,U1,32,PA11*%
%TO.N,STATUS*%
X69162500Y-37250000D03*
%TO.P,U1,33,PA12*%
%TO.N,unconnected-(U1-Pad33)*%
X69162500Y-36750000D03*
%TO.P,U1,34,PA13*%
%TO.N,SWDIO*%
X69162500Y-36250000D03*
%TO.P,U1,35,VSS*%
%TO.N,GND*%
X69162500Y-35750000D03*
%TO.P,U1,36,VDD*%
%TO.N,+3V3*%
X69162500Y-35250000D03*
D39*
%TO.P,U1,37,PA14*%
%TO.N,SWCLK*%
X67750000Y-33837500D03*
%TO.P,U1,38,PA15*%
%TO.N,unconnected-(U1-Pad38)*%
X67250000Y-33837500D03*
%TO.P,U1,39,PB3*%
%TO.N,SWO*%
X66750000Y-33837500D03*
%TO.P,U1,40,PB4*%
%TO.N,unconnected-(U1-Pad40)*%
X66250000Y-33837500D03*
%TO.P,U1,41,PB5*%
%TO.N,unconnected-(U1-Pad41)*%
X65750000Y-33837500D03*
%TO.P,U1,42,PB6*%
%TO.N,unconnected-(U1-Pad42)*%
X65250000Y-33837500D03*
%TO.P,U1,43,PB7*%
%TO.N,unconnected-(U1-Pad43)*%
X64750000Y-33837500D03*
%TO.P,U1,44,BOOT0*%
%TO.N,BOOT0*%
X64250000Y-33837500D03*
%TO.P,U1,45,PB8*%
%TO.N,unconnected-(U1-Pad45)*%
X63750000Y-33837500D03*
%TO.P,U1,46,PB9*%
%TO.N,unconnected-(U1-Pad46)*%
X63250000Y-33837500D03*
%TO.P,U1,47,VSS*%
%TO.N,GND*%
X62750000Y-33837500D03*
%TO.P,U1,48,VDD*%
%TO.N,+3V3*%
X62250000Y-33837500D03*
%TD*%
D40*
%TO.P,C7,1*%
%TO.N,Net-(C12-Pad1)*%
X67675000Y-54900000D03*
%TO.P,C7,2*%
%TO.N,GND*%
X66125000Y-54900000D03*
%TD*%
D19*
%TO.P,D2,1,K*%
%TO.N,Net-(D2-Pad1)*%
X73787500Y-37800000D03*
%TO.P,D2,2,A*%
%TO.N,STATUS*%
X72212500Y-37800000D03*
%TD*%
D24*
%TO.P,C19,1*%
%TO.N,OSC_IN*%
X54820000Y-34500000D03*
%TO.P,C19,2*%
%TO.N,GND*%
X55780000Y-34500000D03*
%TD*%
D41*
%TO.P,J3,1,Pin_1*%
%TO.N,+3V3*%
X86325000Y-34180000D03*
%TO.P,J3,2,Pin_2*%
%TO.N,SWDIO*%
X81275000Y-34180000D03*
%TO.P,J3,3,Pin_3*%
%TO.N,GND*%
X86325000Y-31640000D03*
%TO.P,J3,4,Pin_4*%
%TO.N,SWCLK*%
X81275000Y-31640000D03*
%TO.P,J3,5,Pin_5*%
%TO.N,GND*%
X86325000Y-29100000D03*
%TO.P,J3,6,Pin_6*%
%TO.N,SWO*%
X81275000Y-29100000D03*
%TO.P,J3,7,Pin_7*%
%TO.N,unconnected-(J3-Pad7)*%
X86325000Y-26560000D03*
%TO.P,J3,8,Pin_8*%
%TO.N,unconnected-(J3-Pad8)*%
X81275000Y-26560000D03*
%TO.P,J3,9,Pin_9*%
%TO.N,GND*%
X86325000Y-24020000D03*
%TO.P,J3,10,Pin_10*%
%TO.N,NRST*%
X81275000Y-24020000D03*
%TD*%
D13*
%TO.P,C18,1*%
%TO.N,+3V3*%
X69500000Y-42070000D03*
%TO.P,C18,2*%
%TO.N,GND*%
X69500000Y-43030000D03*
%TD*%
%TO.P,C23,1*%
%TO.N,NRST*%
X60200000Y-46070000D03*
%TO.P,C23,2*%
%TO.N,GND*%
X60200000Y-47030000D03*
%TD*%
D42*
%TO.P,C1,1*%
%TO.N,GND*%
X70025000Y-44600000D03*
%TO.P,C1,2*%
%TO.N,+3V3*%
X71575000Y-44600000D03*
%TD*%
D18*
%TO.P,C5,1*%
%TO.N,XC2*%
X63280000Y-54500000D03*
%TO.P,C5,2*%
%TO.N,GND*%
X62320000Y-54500000D03*
%TD*%
%TO.P,C22,1*%
%TO.N,+3.3VA*%
X58860000Y-41200000D03*
%TO.P,C22,2*%
%TO.N,GND*%
X57900000Y-41200000D03*
%TD*%
D11*
%TO.P,C11,1*%
%TO.N,Net-(C11-Pad1)*%
X68400000Y-56625000D03*
%TO.P,C11,2*%
%TO.N,GND*%
X68400000Y-58175000D03*
%TD*%
D43*
%TO.P,F1,1*%
%TO.N,+3V7*%
X54900000Y-31825000D03*
%TO.P,F1,2*%
%TO.N,Net-(C2-Pad1)*%
X57700000Y-31825000D03*
%TD*%
D44*
%TO.N,GND*%
X54300000Y-40100000D03*
D45*
X52000000Y-42000000D03*
X63400000Y-29000000D03*
X75200000Y-55600000D03*
X63000000Y-69000000D03*
X61200000Y-47050000D03*
X65000000Y-55000000D03*
X88900000Y-31700000D03*
X53000000Y-54000000D03*
D44*
X61400000Y-54500000D03*
D45*
X72100000Y-33100000D03*
X54700000Y-29200000D03*
X52000000Y-34000000D03*
X67650000Y-47300000D03*
X47960375Y-54000000D03*
X59700000Y-28500000D03*
X69100000Y-53900000D03*
X83020073Y-62000000D03*
X65400000Y-28000000D03*
X88900000Y-29100000D03*
X48000000Y-46000000D03*
X79020073Y-42000000D03*
X68300000Y-52500000D03*
X71800000Y-35500000D03*
X83015554Y-53998146D03*
X67300000Y-58100000D03*
X83020073Y-38000000D03*
X58800000Y-34200000D03*
X48000000Y-34000000D03*
X78400000Y-37800000D03*
X63700000Y-27000000D03*
D44*
X63800000Y-49200000D03*
D45*
X78100000Y-52500000D03*
X67200000Y-61300000D03*
X57000000Y-54000000D03*
X79020073Y-46000000D03*
X83020073Y-46000000D03*
D44*
X55500000Y-42800000D03*
D45*
X83000000Y-58000000D03*
X47993482Y-42000000D03*
X48000000Y-58000000D03*
D44*
X56700000Y-34500000D03*
D45*
X87020073Y-46000000D03*
X83020073Y-50000000D03*
X87000000Y-58000000D03*
X63800000Y-32000000D03*
X83020073Y-42000000D03*
X63000000Y-65000000D03*
X83020073Y-66000000D03*
X53000000Y-58000000D03*
X79000000Y-52500000D03*
X84000000Y-24100000D03*
X70400000Y-43100000D03*
X67000000Y-24000000D03*
X87020073Y-54000000D03*
X63000000Y-61000000D03*
D44*
X57000000Y-41400000D03*
D45*
X87000000Y-50000000D03*
X77000000Y-49300000D03*
X68900000Y-44300000D03*
X74400000Y-58000000D03*
X87020073Y-42000000D03*
%TO.N,+3V3*%
X78992988Y-50892899D03*
X63700000Y-25100000D03*
X78100000Y-50900000D03*
X61500000Y-29000000D03*
X88900000Y-34200000D03*
X71600000Y-43400000D03*
X68237500Y-27100000D03*
X55400000Y-44800000D03*
X60700000Y-33200000D03*
X71800000Y-34500000D03*
X67900000Y-53600000D03*
X70500000Y-42100000D03*
%TO.N,NRST*%
X65100000Y-36000000D03*
X66000000Y-32300000D03*
%TO.N,SPI_MOSI*%
X65700000Y-45500000D03*
D44*
X65700000Y-48000000D03*
%TD*%
D46*
%TO.N,+3V3*%
X56487500Y-44800000D02*
X56537500Y-44750000D01*
X55400000Y-44800000D02*
X56487500Y-44800000D01*
%TO.N,GND*%
X57950000Y-51750000D02*
X51450000Y-51750000D01*
%TO.N,NRST*%
X57950000Y-47250000D02*
X51450000Y-47250000D01*
X59130000Y-46070000D02*
X57950000Y-47250000D01*
X60200000Y-46070000D02*
X59130000Y-46070000D01*
%TO.N,GND*%
X57200000Y-41200000D02*
X57000000Y-41400000D01*
X57900000Y-41200000D02*
X57200000Y-41200000D01*
X55500000Y-42800000D02*
X56700000Y-42800000D01*
X57900000Y-40700000D02*
X57900000Y-41200000D01*
X59850000Y-38750000D02*
X57900000Y-40700000D01*
X60837500Y-38750000D02*
X59850000Y-38750000D01*
D47*
X62400000Y-27000000D02*
X62300000Y-26900000D01*
D48*
X86385000Y-31700000D02*
X86325000Y-31640000D01*
D47*
X67000000Y-24000000D02*
X68187500Y-24000000D01*
X60050000Y-26900000D02*
X62300000Y-26900000D01*
D48*
X88900000Y-31700000D02*
X86385000Y-31700000D01*
D46*
X70530000Y-35750000D02*
X70800000Y-35480000D01*
X70800000Y-35480000D02*
X71780000Y-35480000D01*
X63800000Y-32000000D02*
X63080000Y-32000000D01*
X61180000Y-47030000D02*
X61200000Y-47050000D01*
X62750000Y-33837500D02*
X62750000Y-32330000D01*
X73350000Y-49200000D02*
X75725000Y-49200000D01*
X68300000Y-52500000D02*
X68300000Y-51850000D01*
X62880000Y-30870000D02*
X63350000Y-30400000D01*
X63400000Y-30350000D02*
X63350000Y-30400000D01*
D47*
X63700000Y-27000000D02*
X62400000Y-27000000D01*
D48*
X76925000Y-52500000D02*
X76900000Y-52475000D01*
D49*
X70650000Y-47500000D02*
X70650000Y-45225000D01*
D46*
X67225000Y-61275000D02*
X67200000Y-61300000D01*
X67300000Y-58100000D02*
X68325000Y-58100000D01*
X76975000Y-49275000D02*
X77000000Y-49300000D01*
D48*
X84000000Y-24100000D02*
X86245000Y-24100000D01*
X69100000Y-53900000D02*
X69650000Y-53350000D01*
D49*
X75025000Y-52400000D02*
X75100000Y-52475000D01*
D46*
X69280480Y-43249520D02*
X69500000Y-43030000D01*
X68900000Y-44300000D02*
X69725000Y-44300000D01*
D49*
X55220000Y-38970000D02*
X54650000Y-38400000D01*
D46*
X62750000Y-32330000D02*
X62880000Y-32200000D01*
X63080000Y-32000000D02*
X62880000Y-32200000D01*
X62320000Y-54500000D02*
X61400000Y-54500000D01*
D48*
X88900000Y-29100000D02*
X86325000Y-29100000D01*
D46*
X58800000Y-34200000D02*
X59720000Y-34200000D01*
X62320000Y-53170000D02*
X61950000Y-52800000D01*
X68325000Y-58100000D02*
X68400000Y-58175000D01*
X67650000Y-47300000D02*
X67650000Y-47400000D01*
X60200000Y-47030000D02*
X61180000Y-47030000D01*
D49*
X75100000Y-52475000D02*
X76900000Y-52475000D01*
D46*
X62980000Y-49930000D02*
X63650000Y-50600000D01*
D48*
X69650000Y-53350000D02*
X69650000Y-52400000D01*
D46*
X69725000Y-44300000D02*
X70025000Y-44600000D01*
X75725000Y-49200000D02*
X75800000Y-49275000D01*
X67250000Y-43000361D02*
X67499159Y-43249520D01*
D48*
X75175000Y-54500000D02*
X72785556Y-54500000D01*
D46*
X72100000Y-33100000D02*
X71025000Y-33100000D01*
X77325000Y-37800000D02*
X78400000Y-37800000D01*
D49*
X55220000Y-40100000D02*
X55220000Y-38970000D01*
D46*
X67499159Y-43249520D02*
X69280480Y-43249520D01*
D48*
X71650000Y-53364443D02*
X72392778Y-54107222D01*
D46*
X68300000Y-51850000D02*
X68450000Y-51700000D01*
D48*
X72785556Y-54500000D02*
X72392778Y-54107222D01*
D46*
X67250000Y-42162500D02*
X67250000Y-43000361D01*
X67650000Y-47400000D02*
X68450000Y-48200000D01*
X63500000Y-48900000D02*
X63800000Y-49200000D01*
D49*
X55780000Y-34500000D02*
X55780000Y-35630000D01*
D48*
X65100000Y-54900000D02*
X65000000Y-55000000D01*
D49*
X55220000Y-40100000D02*
X54300000Y-40100000D01*
D48*
X66125000Y-54900000D02*
X65100000Y-54900000D01*
D47*
X59700000Y-28500000D02*
X59700000Y-27250000D01*
D46*
X73350000Y-49200000D02*
X73350000Y-51200000D01*
X70330000Y-43030000D02*
X70400000Y-43100000D01*
D48*
X78100000Y-52500000D02*
X76925000Y-52500000D01*
X86245000Y-24100000D02*
X86325000Y-24020000D01*
X75175000Y-54500000D02*
X75175000Y-55575000D01*
D46*
X62980000Y-48900000D02*
X62980000Y-49930000D01*
D47*
X59700000Y-27250000D02*
X60050000Y-26900000D01*
D49*
X55780000Y-34500000D02*
X56700000Y-34500000D01*
D46*
X69500000Y-43030000D02*
X70330000Y-43030000D01*
X74325000Y-58075000D02*
X74400000Y-58000000D01*
X69162500Y-35750000D02*
X70530000Y-35750000D01*
D49*
X55780000Y-35630000D02*
X56350000Y-36200000D01*
X70650000Y-45225000D02*
X70025000Y-44600000D01*
D46*
X62880000Y-32200000D02*
X62880000Y-30870000D01*
X73300000Y-58075000D02*
X74325000Y-58075000D01*
X54700000Y-29200000D02*
X55825000Y-29200000D01*
D48*
X79000000Y-52500000D02*
X78100000Y-52500000D01*
X71650000Y-52400000D02*
X71650000Y-53364443D01*
D46*
X62320000Y-54500000D02*
X62320000Y-53170000D01*
X63400000Y-29000000D02*
X63400000Y-30350000D01*
X62980000Y-48900000D02*
X63500000Y-48900000D01*
X75800000Y-49275000D02*
X76975000Y-49275000D01*
X68400000Y-61275000D02*
X67225000Y-61275000D01*
X55825000Y-29200000D02*
X55850000Y-29225000D01*
X65400000Y-28000000D02*
X65400000Y-29075000D01*
D48*
X75175000Y-55575000D02*
X75200000Y-55600000D01*
D49*
X72650000Y-52400000D02*
X75025000Y-52400000D01*
D46*
X71780000Y-35480000D02*
X71800000Y-35500000D01*
%TO.N,+3V3*%
X60837500Y-34357500D02*
X60680000Y-34200000D01*
D49*
X67842500Y-42070000D02*
X67750000Y-42162500D01*
D46*
X61450000Y-30400000D02*
X61450000Y-31730000D01*
D48*
X88880000Y-34180000D02*
X88900000Y-34200000D01*
D49*
X78075000Y-50925000D02*
X78100000Y-50900000D01*
D46*
X70800000Y-34520000D02*
X71780000Y-34520000D01*
D49*
X76900000Y-50925000D02*
X78075000Y-50925000D01*
D46*
X71600000Y-44575000D02*
X71575000Y-44600000D01*
X62250000Y-33837500D02*
X62250000Y-32530000D01*
D49*
X71150000Y-47500000D02*
X71150000Y-45025000D01*
X75100000Y-50925000D02*
X76900000Y-50925000D01*
D48*
X69150000Y-52705282D02*
X69150000Y-52400000D01*
D47*
X60050000Y-25000000D02*
X62300000Y-25000000D01*
D48*
X68255282Y-53600000D02*
X69150000Y-52705282D01*
D46*
X61500000Y-30350000D02*
X61450000Y-30400000D01*
X61450000Y-31730000D02*
X61920000Y-32200000D01*
D47*
X63600000Y-25000000D02*
X63700000Y-25100000D01*
D48*
X86325000Y-34180000D02*
X88880000Y-34180000D01*
D46*
X62250000Y-32530000D02*
X61920000Y-32200000D01*
D47*
X62300000Y-25000000D02*
X63600000Y-25000000D01*
D49*
X69500000Y-42070000D02*
X67842500Y-42070000D01*
X69500000Y-42070000D02*
X70470000Y-42070000D01*
D46*
X70800000Y-34520000D02*
X69892500Y-34520000D01*
D49*
X78100000Y-50900000D02*
X78985887Y-50900000D01*
D46*
X60680000Y-34200000D02*
X60680000Y-33220000D01*
X71600000Y-43400000D02*
X71600000Y-44575000D01*
X71780000Y-34520000D02*
X71800000Y-34500000D01*
D48*
X67900000Y-53600000D02*
X68255282Y-53600000D01*
D47*
X68200000Y-25700000D02*
X68200000Y-27062500D01*
D46*
X61500000Y-29000000D02*
X61500000Y-30350000D01*
X60680000Y-33220000D02*
X60700000Y-33200000D01*
D49*
X74325000Y-51700000D02*
X75100000Y-50925000D01*
D47*
X68200000Y-27062500D02*
X68237500Y-27100000D01*
D49*
X78985887Y-50900000D02*
X78992988Y-50892899D01*
X73350000Y-51700000D02*
X74325000Y-51700000D01*
D46*
X60837500Y-35250000D02*
X60837500Y-34357500D01*
D49*
X70470000Y-42070000D02*
X70500000Y-42100000D01*
D46*
X69892500Y-34520000D02*
X69162500Y-35250000D01*
D47*
%TO.N,Net-(C2-Pad1)*%
X57750000Y-29225000D02*
X57750000Y-26150000D01*
X57700000Y-31825000D02*
X57700000Y-29275000D01*
X57700000Y-29275000D02*
X57750000Y-29225000D01*
X57750000Y-26150000D02*
X57950000Y-25950000D01*
D46*
%TO.N,Net-(C3-Pad2)*%
X74825000Y-48700000D02*
X75800000Y-47725000D01*
X73350000Y-48700000D02*
X74825000Y-48700000D01*
%TO.N,XC1*%
X62800000Y-51700000D02*
X61950000Y-50850000D01*
X66300000Y-50990000D02*
X65810000Y-50990000D01*
X67300000Y-50700000D02*
X68450000Y-50700000D01*
X61950000Y-50600000D02*
X61950000Y-48970000D01*
X67010000Y-50990000D02*
X67300000Y-50700000D01*
X65810000Y-50990000D02*
X65100000Y-51700000D01*
X61950000Y-50850000D02*
X61950000Y-50600000D01*
X65100000Y-51700000D02*
X62800000Y-51700000D01*
X66300000Y-50990000D02*
X67010000Y-50990000D01*
X61950000Y-48970000D02*
X62020000Y-48900000D01*
%TO.N,XC2*%
X65510000Y-52800000D02*
X63650000Y-52800000D01*
X66300000Y-52010000D02*
X66890000Y-52010000D01*
X66890000Y-52010000D02*
X67700000Y-51200000D01*
X67700000Y-51200000D02*
X68450000Y-51200000D01*
X63650000Y-52800000D02*
X63650000Y-54130000D01*
X63650000Y-54130000D02*
X63280000Y-54500000D01*
X66300000Y-52010000D02*
X65510000Y-52800000D01*
D48*
%TO.N,Net-(C12-Pad1)*%
X66450000Y-56450000D02*
X67675000Y-55225000D01*
X68400000Y-59725000D02*
X67825000Y-59725000D01*
X66450000Y-56450000D02*
X66450000Y-58350000D01*
X68537500Y-59725000D02*
X70100000Y-61287500D01*
X67675000Y-55225000D02*
X67675000Y-54900000D01*
X67825000Y-59725000D02*
X66450000Y-58350000D01*
X70150000Y-54150000D02*
X70150000Y-52400000D01*
X69400000Y-54900000D02*
X70150000Y-54150000D01*
X68400000Y-59725000D02*
X68537500Y-59725000D01*
X67675000Y-54900000D02*
X69400000Y-54900000D01*
%TO.N,Net-(C10-Pad2)*%
X71150000Y-52400000D02*
X71150000Y-55962500D01*
X71687500Y-59700000D02*
X71700000Y-59712500D01*
X71687500Y-56500000D02*
X71687500Y-59700000D01*
X71687500Y-56500000D02*
X73275000Y-56500000D01*
X71150000Y-55962500D02*
X71687500Y-56500000D01*
X73275000Y-56500000D02*
X73300000Y-56525000D01*
%TO.N,Net-(C11-Pad1)*%
X68525000Y-56500000D02*
X68400000Y-56625000D01*
X70100000Y-59712500D02*
X70100000Y-56512500D01*
X70112500Y-56500000D02*
X68525000Y-56500000D01*
X70650000Y-55962500D02*
X70112500Y-56500000D01*
X70100000Y-56512500D02*
X70112500Y-56500000D01*
X70650000Y-52400000D02*
X70650000Y-55962500D01*
%TO.N,Net-(C13-Pad1)*%
X71837500Y-61287500D02*
X73400000Y-59725000D01*
X71700000Y-61287500D02*
X71837500Y-61287500D01*
%TO.N,Net-(C13-Pad2)*%
X73400000Y-61275000D02*
X73400000Y-66800000D01*
D46*
%TO.N,OSC_IN*%
X54650000Y-36200000D02*
X54650000Y-36300000D01*
X54650000Y-36300000D02*
X55600000Y-37250000D01*
X54820000Y-34500000D02*
X54820000Y-36030000D01*
X54820000Y-36030000D02*
X54650000Y-36200000D01*
X55600000Y-37250000D02*
X60837500Y-37250000D01*
%TO.N,Net-(C20-Pad1)*%
X57990000Y-38300000D02*
X56350000Y-38300000D01*
X56180000Y-40100000D02*
X56180000Y-38570000D01*
X56180000Y-38570000D02*
X56350000Y-38400000D01*
%TO.N,+3.3VA*%
X60000489Y-39250000D02*
X60837500Y-39250000D01*
X58860000Y-40390489D02*
X60000489Y-39250000D01*
X58860000Y-41320000D02*
X58860000Y-44527500D01*
X58860000Y-44527500D02*
X58637500Y-44750000D01*
X58860000Y-41320000D02*
X58860000Y-40390489D01*
%TO.N,NRST*%
X74280000Y-24020000D02*
X81275000Y-24020000D01*
X63300000Y-39800000D02*
X62250000Y-40850000D01*
X65100000Y-36000000D02*
X62850000Y-38250000D01*
X62050000Y-38250000D02*
X60837500Y-38250000D01*
X62650000Y-38250000D02*
X62050000Y-38250000D01*
X60200000Y-42900000D02*
X60200000Y-46070000D01*
X62250000Y-40850000D02*
X60200000Y-42900000D01*
X66000000Y-32300000D02*
X74280000Y-24020000D01*
X63300000Y-38900000D02*
X63300000Y-39800000D01*
X62850000Y-38250000D02*
X62650000Y-38250000D01*
X62650000Y-38250000D02*
X63300000Y-38900000D01*
D47*
%TO.N,Net-(D1-Pad1)*%
X69837500Y-24000000D02*
X69837500Y-25637500D01*
X69837500Y-25637500D02*
X69775000Y-25700000D01*
D46*
%TO.N,Net-(D2-Pad1)*%
X73787500Y-37800000D02*
X75675000Y-37800000D01*
%TO.N,STATUS*%
X69162500Y-37250000D02*
X71662500Y-37250000D01*
X71662500Y-37250000D02*
X72212500Y-37800000D01*
D47*
%TO.N,+3V7*%
X52800000Y-31825000D02*
X54900000Y-31825000D01*
X51500000Y-30525000D02*
X52800000Y-31825000D01*
D49*
%TO.N,TRX_CE*%
X71950000Y-39750000D02*
X74200000Y-42000000D01*
X74200000Y-46600000D02*
X73300000Y-47500000D01*
X73300000Y-47500000D02*
X72650000Y-47500000D01*
X69162500Y-39750000D02*
X71950000Y-39750000D01*
X74200000Y-42000000D02*
X74200000Y-46600000D01*
%TO.N,PWR_UP*%
X72150000Y-46850000D02*
X72150000Y-47500000D01*
X71043572Y-40250000D02*
X71044052Y-40249520D01*
X71300000Y-40249520D02*
X73500000Y-42449520D01*
X73500000Y-45500000D02*
X72150000Y-46850000D01*
X71044052Y-40249520D02*
X71300000Y-40249520D01*
X69162500Y-40250000D02*
X71043572Y-40250000D01*
X73500000Y-42449520D02*
X73500000Y-45500000D01*
%TO.N,UPCLK*%
X72800000Y-43000000D02*
X70550000Y-40750000D01*
X71650481Y-47499519D02*
X71650480Y-46149520D01*
X70550000Y-40750000D02*
X69162500Y-40750000D01*
X72800000Y-45000000D02*
X72800000Y-43000000D01*
X71650000Y-47500000D02*
X71650481Y-47499519D01*
X71650480Y-46149520D02*
X72800000Y-45000000D01*
D46*
%TO.N,CD*%
X66750000Y-43550000D02*
X66750000Y-42162500D01*
X70150000Y-47500000D02*
X70150000Y-46350000D01*
X69000000Y-45800000D02*
X66750000Y-43550000D01*
X70150000Y-46350000D02*
X69600000Y-45800000D01*
X69600000Y-45800000D02*
X69000000Y-45800000D01*
%TO.N,AM*%
X69650000Y-47500000D02*
X69650000Y-46775978D01*
X68800000Y-46500000D02*
X66250000Y-43950000D01*
X66250000Y-43950000D02*
X66250000Y-42162500D01*
X69374022Y-46500000D02*
X68800000Y-46500000D01*
X69650000Y-46775978D02*
X69374022Y-46500000D01*
%TO.N,DR*%
X68972140Y-47500000D02*
X65250000Y-43777860D01*
X65250000Y-43777860D02*
X65250000Y-42162500D01*
X69150000Y-47500000D02*
X68972140Y-47500000D01*
%TO.N,SPI_MISO*%
X67725978Y-48700000D02*
X68450000Y-48700000D01*
X63750000Y-44724022D02*
X67725978Y-48700000D01*
X63750000Y-42162500D02*
X63750000Y-44724022D01*
%TO.N,SPI_MOSI*%
X64250000Y-44250000D02*
X65500000Y-45500000D01*
X68450000Y-49200000D02*
X66900000Y-49200000D01*
X64250000Y-42162500D02*
X64250000Y-44250000D01*
X65500000Y-45500000D02*
X65700000Y-45500000D01*
X66900000Y-49200000D02*
X65700000Y-48000000D01*
%TO.N,SPI_SCK*%
X66400000Y-49700000D02*
X63250000Y-46550000D01*
X63250000Y-46550000D02*
X63250000Y-42162500D01*
X68450000Y-49700000D02*
X66400000Y-49700000D01*
%TO.N,SPI_CSN*%
X65800000Y-50200000D02*
X62750000Y-47150000D01*
X62750000Y-47150000D02*
X62750000Y-42162500D01*
X68450000Y-50200000D02*
X65800000Y-50200000D01*
D48*
%TO.N,Net-(IC1-Pad23)*%
X72150000Y-52400000D02*
X72150000Y-53167392D01*
X72150000Y-53167392D02*
X72461403Y-53478795D01*
X72461403Y-53478795D02*
X75803795Y-53478795D01*
X75803795Y-53478795D02*
X76825000Y-54500000D01*
D46*
%TO.N,TX_EN*%
X72750000Y-39250000D02*
X75000000Y-41500000D01*
X75000000Y-41500000D02*
X75000000Y-46800000D01*
X73600000Y-48200000D02*
X73350000Y-48200000D01*
X69162500Y-39250000D02*
X72750000Y-39250000D01*
X75000000Y-46800000D02*
X73600000Y-48200000D01*
%TO.N,SWDIO*%
X75750000Y-36250000D02*
X77820000Y-34180000D01*
X69162500Y-36250000D02*
X75750000Y-36250000D01*
X77820000Y-34180000D02*
X81275000Y-34180000D01*
%TO.N,SWCLK*%
X67750000Y-32850000D02*
X67750000Y-33837500D01*
X68960000Y-31640000D02*
X67750000Y-32850000D01*
X81275000Y-31640000D02*
X68960000Y-31640000D01*
%TO.N,SWO*%
X75500000Y-29100000D02*
X81275000Y-29100000D01*
X73700000Y-30900000D02*
X75500000Y-29100000D01*
X73700000Y-30900000D02*
X68600000Y-30900000D01*
X68600000Y-30900000D02*
X66750000Y-32750000D01*
X66750000Y-32750000D02*
X66750000Y-33837500D01*
D49*
%TO.N,BOOT0*%
X65400000Y-31500000D02*
X64250000Y-32650000D01*
X65400000Y-30725000D02*
X65400000Y-31500000D01*
X64250000Y-32650000D02*
X64250000Y-33837500D01*
D46*
%TO.N,OSC_OUT*%
X60837500Y-37750000D02*
X59460000Y-37750000D01*
X59460000Y-37750000D02*
X59010000Y-38200000D01*
D49*
%TO.N,BOOT1*%
X65750000Y-38350000D02*
X65750000Y-37175361D01*
X65750000Y-42162500D02*
X65750000Y-38350000D01*
X69375000Y-33550361D02*
X69375000Y-33100000D01*
X65750000Y-37175361D02*
X69375000Y-33550361D01*
%TD*%
%TA.AperFunction,Conductor*%
%TO.N,GND*%
G36*
X86970018Y-22510000D02*
G01*
X86984852Y-22512310D01*
X86984855Y-22512310D01*
X86993724Y-22513691D01*
X87002627Y-22512527D01*
X87002628Y-22512527D01*
X87013076Y-22511161D01*
X87035594Y-22510249D01*
X87336051Y-22525010D01*
X87348345Y-22526221D01*
X87675034Y-22574680D01*
X87687156Y-22577090D01*
X87781196Y-22600646D01*
X88007523Y-22657339D01*
X88019355Y-22660928D01*
X88330311Y-22772190D01*
X88341735Y-22776922D01*
X88409500Y-22808972D01*
X88640292Y-22918128D01*
X88651188Y-22923953D01*
X88792101Y-23008412D01*
X88934467Y-23093744D01*
X88944748Y-23100614D01*
X89210017Y-23297350D01*
X89219556Y-23305177D01*
X89464282Y-23526985D01*
X89473015Y-23535718D01*
X89694823Y-23780444D01*
X89702650Y-23789983D01*
X89803746Y-23926296D01*
X89899386Y-24055252D01*
X89906256Y-24065533D01*
X89972485Y-24176029D01*
X90058131Y-24318919D01*
X90076045Y-24348807D01*
X90081874Y-24359712D01*
X90223078Y-24658265D01*
X90227810Y-24669689D01*
X90339072Y-24980645D01*
X90342661Y-24992477D01*
X90378188Y-25134308D01*
X90417170Y-25289928D01*
X90422909Y-25312841D01*
X90425320Y-25324966D01*
X90472326Y-25641852D01*
X90473779Y-25651650D01*
X90474990Y-25663949D01*
X90489029Y-25949684D01*
X90489390Y-25957034D01*
X90488042Y-25982598D01*
X90486309Y-25993724D01*
X90488771Y-26012552D01*
X90490436Y-26025283D01*
X90491500Y-26041621D01*
X90491500Y-67450633D01*
X90490000Y-67470018D01*
X90486309Y-67493724D01*
X90487473Y-67502627D01*
X90487473Y-67502628D01*
X90488839Y-67513076D01*
X90489751Y-67535594D01*
X90483896Y-67654784D01*
X90474991Y-67836045D01*
X90473779Y-67848345D01*
X90429481Y-68146987D01*
X90425321Y-68175031D01*
X90422910Y-68187156D01*
X90421464Y-68192927D01*
X90342661Y-68507523D01*
X90339072Y-68519355D01*
X90227810Y-68830311D01*
X90223078Y-68841735D01*
X90147506Y-69001519D01*
X90087486Y-69128423D01*
X90081874Y-69140288D01*
X90076047Y-69151188D01*
X90014849Y-69253292D01*
X89906256Y-69434467D01*
X89899386Y-69444748D01*
X89888275Y-69459730D01*
X89702650Y-69710017D01*
X89694823Y-69719556D01*
X89528899Y-69902624D01*
X89473020Y-69964277D01*
X89464282Y-69973015D01*
X89219556Y-70194823D01*
X89210017Y-70202650D01*
X89015517Y-70346901D01*
X88944748Y-70399386D01*
X88934467Y-70406256D01*
X88792101Y-70491588D01*
X88651188Y-70576047D01*
X88640292Y-70581872D01*
X88505870Y-70645448D01*
X88341735Y-70723078D01*
X88330311Y-70727810D01*
X88019355Y-70839072D01*
X88007523Y-70842661D01*
X87781196Y-70899354D01*
X87687156Y-70922910D01*
X87675034Y-70925320D01*
X87348345Y-70973779D01*
X87336051Y-70974990D01*
X87042961Y-70989390D01*
X87017402Y-70988042D01*
X87006276Y-70986309D01*
X86974714Y-70990436D01*
X86958379Y-70991500D01*
X81626000Y-70991500D01*
X81557879Y-70971498D01*
X81511386Y-70917842D01*
X81500000Y-70865500D01*
X81500000Y-67632703D01*
X84890743Y-67632703D01*
X84891302Y-67636947D01*
X84891302Y-67636951D01*
X84907810Y-67762340D01*
X84928268Y-67917734D01*
X85004129Y-68195036D01*
X85005813Y-68198984D01*
X85056946Y-68318862D01*
X85116923Y-68459476D01*
X85264561Y-68706161D01*
X85444313Y-68930528D01*
X85652851Y-69128423D01*
X85886317Y-69296186D01*
X85890112Y-69298195D01*
X85890113Y-69298196D01*
X85911869Y-69309715D01*
X86140392Y-69430712D01*
X86410373Y-69529511D01*
X86691264Y-69590755D01*
X86719841Y-69593004D01*
X86914282Y-69608307D01*
X86914291Y-69608307D01*
X86916739Y-69608500D01*
X87072271Y-69608500D01*
X87074407Y-69608354D01*
X87074418Y-69608354D01*
X87282548Y-69594165D01*
X87282554Y-69594164D01*
X87286825Y-69593873D01*
X87291020Y-69593004D01*
X87291022Y-69593004D01*
X87460200Y-69557969D01*
X87568342Y-69535574D01*
X87839343Y-69439607D01*
X87927363Y-69394177D01*
X88091005Y-69309715D01*
X88091006Y-69309715D01*
X88094812Y-69307750D01*
X88098313Y-69305289D01*
X88098317Y-69305287D01*
X88212417Y-69225096D01*
X88330023Y-69142441D01*
X88540622Y-68946740D01*
X88722713Y-68724268D01*
X88872927Y-68479142D01*
X88878128Y-68467295D01*
X88986757Y-68219830D01*
X88988483Y-68215898D01*
X88995027Y-68192927D01*
X89066068Y-67943534D01*
X89067244Y-67939406D01*
X89107751Y-67654784D01*
X89107845Y-67636951D01*
X89109235Y-67371583D01*
X89109235Y-67371576D01*
X89109257Y-67367297D01*
X89071732Y-67082266D01*
X88995871Y-66804964D01*
X88883077Y-66540524D01*
X88735439Y-66293839D01*
X88555687Y-66069472D01*
X88432289Y-65952372D01*
X88350258Y-65874527D01*
X88350255Y-65874525D01*
X88347149Y-65871577D01*
X88113683Y-65703814D01*
X88096219Y-65694567D01*
X88068654Y-65679972D01*
X87859608Y-65569288D01*
X87589627Y-65470489D01*
X87308736Y-65409245D01*
X87277685Y-65406801D01*
X87085718Y-65391693D01*
X87085709Y-65391693D01*
X87083261Y-65391500D01*
X86927729Y-65391500D01*
X86925593Y-65391646D01*
X86925582Y-65391646D01*
X86717452Y-65405835D01*
X86717446Y-65405836D01*
X86713175Y-65406127D01*
X86708980Y-65406996D01*
X86708978Y-65406996D01*
X86572416Y-65435277D01*
X86431658Y-65464426D01*
X86160657Y-65560393D01*
X85905188Y-65692250D01*
X85901687Y-65694711D01*
X85901683Y-65694713D01*
X85891594Y-65701804D01*
X85669977Y-65857559D01*
X85459378Y-66053260D01*
X85277287Y-66275732D01*
X85127073Y-66520858D01*
X85011517Y-66784102D01*
X84932756Y-67060594D01*
X84892249Y-67345216D01*
X84892227Y-67349505D01*
X84892226Y-67349512D01*
X84890765Y-67628417D01*
X84890743Y-67632703D01*
X81500000Y-67632703D01*
X81500000Y-60971489D01*
X84711227Y-60971489D01*
X84713096Y-61000000D01*
X84724263Y-61170380D01*
X84725684Y-61175976D01*
X84725685Y-61175981D01*
X84744112Y-61248535D01*
X84773326Y-61363564D01*
X84775743Y-61368807D01*
X84812265Y-61448029D01*
X84856772Y-61544573D01*
X84860105Y-61549289D01*
X84962051Y-61693539D01*
X84971807Y-61707344D01*
X84975949Y-61711379D01*
X84993052Y-61728040D01*
X85114578Y-61846425D01*
X85280304Y-61957160D01*
X85285607Y-61959438D01*
X85285610Y-61959440D01*
X85458128Y-62033559D01*
X85463435Y-62035839D01*
X85535516Y-62052149D01*
X85652201Y-62078553D01*
X85652207Y-62078554D01*
X85657838Y-62079828D01*
X85663609Y-62080055D01*
X85663611Y-62080055D01*
X85724556Y-62082449D01*
X85857001Y-62087653D01*
X85956959Y-62073160D01*
X86048535Y-62059883D01*
X86048540Y-62059882D01*
X86054256Y-62059053D01*
X86059728Y-62057195D01*
X86059730Y-62057195D01*
X86237532Y-61996839D01*
X86237534Y-61996838D01*
X86242996Y-61994984D01*
X86416899Y-61897594D01*
X86570143Y-61770143D01*
X86697594Y-61616899D01*
X86794984Y-61442996D01*
X86800051Y-61428071D01*
X86857195Y-61259730D01*
X86857195Y-61259728D01*
X86859053Y-61254256D01*
X86859882Y-61248540D01*
X86859883Y-61248535D01*
X86876918Y-61131039D01*
X86887653Y-61057001D01*
X86889146Y-61000000D01*
X86887856Y-60985963D01*
X87694757Y-60985963D01*
X87711175Y-61181483D01*
X87765258Y-61370091D01*
X87768076Y-61375574D01*
X87852123Y-61539113D01*
X87852126Y-61539117D01*
X87854944Y-61544601D01*
X87976818Y-61698369D01*
X87981511Y-61702363D01*
X87981512Y-61702364D01*
X87987364Y-61707344D01*
X88126238Y-61825535D01*
X88131616Y-61828541D01*
X88131618Y-61828542D01*
X88163616Y-61846425D01*
X88297513Y-61921257D01*
X88484118Y-61981889D01*
X88678946Y-62005121D01*
X88685081Y-62004649D01*
X88685083Y-62004649D01*
X88868434Y-61990541D01*
X88868438Y-61990540D01*
X88874576Y-61990068D01*
X89063556Y-61937303D01*
X89238689Y-61848837D01*
X89246939Y-61842392D01*
X89388453Y-61731829D01*
X89393303Y-61728040D01*
X89407685Y-61711379D01*
X89517485Y-61584173D01*
X89517485Y-61584172D01*
X89521509Y-61579511D01*
X89535677Y-61554572D01*
X89557644Y-61515902D01*
X89618425Y-61408909D01*
X89680358Y-61222732D01*
X89704949Y-61028071D01*
X89705341Y-61000000D01*
X89686194Y-60804728D01*
X89684413Y-60798829D01*
X89684412Y-60798824D01*
X89631265Y-60622793D01*
X89629484Y-60616894D01*
X89537370Y-60443653D01*
X89413361Y-60291602D01*
X89262180Y-60166535D01*
X89089585Y-60073213D01*
X88958531Y-60032645D01*
X88908039Y-60017015D01*
X88908036Y-60017014D01*
X88902152Y-60015193D01*
X88896027Y-60014549D01*
X88896026Y-60014549D01*
X88713147Y-59995327D01*
X88713146Y-59995327D01*
X88707019Y-59994683D01*
X88584383Y-60005844D01*
X88517759Y-60011907D01*
X88517758Y-60011907D01*
X88511618Y-60012466D01*
X88505704Y-60014207D01*
X88505702Y-60014207D01*
X88460795Y-60027424D01*
X88323393Y-60067864D01*
X88317928Y-60070721D01*
X88154972Y-60155912D01*
X88154968Y-60155915D01*
X88149512Y-60158767D01*
X88144712Y-60162627D01*
X88144711Y-60162627D01*
X88110326Y-60190273D01*
X87996600Y-60281711D01*
X87870480Y-60432016D01*
X87867516Y-60437408D01*
X87867513Y-60437412D01*
X87833075Y-60500055D01*
X87775956Y-60603954D01*
X87774095Y-60609821D01*
X87774094Y-60609823D01*
X87771851Y-60616894D01*
X87716628Y-60790978D01*
X87694757Y-60985963D01*
X86887856Y-60985963D01*
X86877843Y-60876987D01*
X86871437Y-60807273D01*
X86871436Y-60807270D01*
X86870908Y-60801519D01*
X86841255Y-60696376D01*
X86818373Y-60615244D01*
X86818372Y-60615242D01*
X86816805Y-60609685D01*
X86811319Y-60598559D01*
X86731205Y-60436104D01*
X86728650Y-60430923D01*
X86714868Y-60412466D01*
X86693510Y-60383865D01*
X86609393Y-60271219D01*
X86463030Y-60135922D01*
X86458147Y-60132841D01*
X86458143Y-60132838D01*
X86299346Y-60032645D01*
X86299341Y-60032643D01*
X86294462Y-60029564D01*
X86109334Y-59955705D01*
X85913847Y-59916820D01*
X85908072Y-59916744D01*
X85908068Y-59916744D01*
X85808588Y-59915442D01*
X85714547Y-59914211D01*
X85708850Y-59915190D01*
X85708849Y-59915190D01*
X85692805Y-59917947D01*
X85518108Y-59947966D01*
X85331111Y-60016953D01*
X85326149Y-60019905D01*
X85236546Y-60073213D01*
X85159816Y-60118862D01*
X85009961Y-60250281D01*
X84886565Y-60406809D01*
X84883876Y-60411920D01*
X84883874Y-60411923D01*
X84837585Y-60499905D01*
X84793760Y-60583202D01*
X84782551Y-60619302D01*
X84746088Y-60736732D01*
X84734654Y-60773554D01*
X84711227Y-60971489D01*
X81500000Y-60971489D01*
X81500000Y-56500000D01*
X79000000Y-54000000D01*
X77786847Y-54000000D01*
X77718726Y-53979998D01*
X77676285Y-53930809D01*
X77675472Y-53931301D01*
X77672557Y-53926488D01*
X77586639Y-53784619D01*
X77465381Y-53663361D01*
X77445698Y-53651441D01*
X77383391Y-53613706D01*
X77335484Y-53561308D01*
X77323511Y-53491329D01*
X77351272Y-53425985D01*
X77408787Y-53386406D01*
X77456105Y-53370620D01*
X77469286Y-53364445D01*
X77602173Y-53282212D01*
X77613574Y-53273176D01*
X77723986Y-53162571D01*
X77732998Y-53151160D01*
X77815004Y-53018120D01*
X77821151Y-53004939D01*
X77870491Y-52856186D01*
X77873358Y-52842810D01*
X77882672Y-52751903D01*
X77882929Y-52746874D01*
X77878525Y-52731876D01*
X77877135Y-52730671D01*
X77869452Y-52729000D01*
X74135115Y-52729000D01*
X74119876Y-52733475D01*
X74109367Y-52745603D01*
X74086923Y-52786706D01*
X74024610Y-52820731D01*
X73997828Y-52823610D01*
X73434000Y-52823610D01*
X73365879Y-52803608D01*
X73319386Y-52749952D01*
X73308000Y-52697610D01*
X73308000Y-52568114D01*
X73293872Y-52519997D01*
X73293872Y-52449001D01*
X73332256Y-52389275D01*
X73396837Y-52359782D01*
X73414768Y-52358500D01*
X74242944Y-52358500D01*
X74254800Y-52359059D01*
X74254803Y-52359059D01*
X74262537Y-52360788D01*
X74333369Y-52358562D01*
X74337327Y-52358500D01*
X74366432Y-52358500D01*
X74370832Y-52357944D01*
X74382664Y-52357012D01*
X74428831Y-52355562D01*
X74449421Y-52349580D01*
X74468782Y-52345570D01*
X74475770Y-52344688D01*
X74482204Y-52343875D01*
X74482205Y-52343875D01*
X74490064Y-52342882D01*
X74497429Y-52339966D01*
X74497433Y-52339965D01*
X74533021Y-52325874D01*
X74544231Y-52322035D01*
X74588600Y-52309145D01*
X74607065Y-52298225D01*
X74624805Y-52289534D01*
X74644756Y-52281635D01*
X74682129Y-52254482D01*
X74692044Y-52247969D01*
X74707979Y-52238545D01*
X74772116Y-52221000D01*
X77864885Y-52221000D01*
X77880124Y-52216525D01*
X77881329Y-52215135D01*
X77883000Y-52207452D01*
X77883000Y-52204562D01*
X77882663Y-52198047D01*
X77873106Y-52105943D01*
X77870211Y-52092541D01*
X77827663Y-51965005D01*
X77825079Y-51894056D01*
X77861263Y-51832972D01*
X77924727Y-51801148D01*
X77973385Y-51801884D01*
X77998049Y-51807127D01*
X77998058Y-51807128D01*
X78004513Y-51808500D01*
X78195487Y-51808500D01*
X78201939Y-51807128D01*
X78201944Y-51807128D01*
X78340660Y-51777642D01*
X78382288Y-51768794D01*
X78388321Y-51766108D01*
X78388324Y-51766107D01*
X78503221Y-51714952D01*
X78573588Y-51705518D01*
X78605717Y-51714952D01*
X78704664Y-51759006D01*
X78704667Y-51759007D01*
X78710700Y-51761693D01*
X78750567Y-51770167D01*
X78891044Y-51800027D01*
X78891049Y-51800027D01*
X78897501Y-51801399D01*
X79088475Y-51801399D01*
X79094927Y-51800027D01*
X79094932Y-51800027D01*
X79181876Y-51781546D01*
X79275276Y-51761693D01*
X79312612Y-51745070D01*
X79443710Y-51686702D01*
X79443712Y-51686701D01*
X79449740Y-51684017D01*
X79604241Y-51571765D01*
X79652380Y-51518301D01*
X79727609Y-51434751D01*
X79727610Y-51434750D01*
X79732028Y-51429843D01*
X79827515Y-51264455D01*
X79886530Y-51082827D01*
X79888106Y-51067837D01*
X79905802Y-50899464D01*
X79906492Y-50892899D01*
X79886530Y-50702971D01*
X79827515Y-50521343D01*
X79820782Y-50509680D01*
X79735329Y-50361673D01*
X79732028Y-50355955D01*
X79690846Y-50310217D01*
X79608663Y-50218944D01*
X79608662Y-50218943D01*
X79604241Y-50214033D01*
X79449740Y-50101781D01*
X79443712Y-50099097D01*
X79443710Y-50099096D01*
X79281307Y-50026790D01*
X79281306Y-50026790D01*
X79275276Y-50024105D01*
X79181875Y-50004252D01*
X79094932Y-49985771D01*
X79094927Y-49985771D01*
X79088475Y-49984399D01*
X78897501Y-49984399D01*
X78891049Y-49985771D01*
X78891044Y-49985771D01*
X78755554Y-50014571D01*
X78710700Y-50024105D01*
X78704667Y-50026791D01*
X78704664Y-50026792D01*
X78589767Y-50077947D01*
X78519400Y-50087381D01*
X78487271Y-50077947D01*
X78388324Y-50033893D01*
X78388321Y-50033892D01*
X78382288Y-50031206D01*
X78340660Y-50022358D01*
X78201944Y-49992872D01*
X78201939Y-49992872D01*
X78195487Y-49991500D01*
X78004513Y-49991500D01*
X77998061Y-49992872D01*
X77998056Y-49992872D01*
X77911113Y-50011353D01*
X77817712Y-50031206D01*
X77811685Y-50033889D01*
X77811677Y-50033892D01*
X77672467Y-50095872D01*
X77602100Y-50105306D01*
X77555103Y-50088025D01*
X77468331Y-50034538D01*
X77468329Y-50034537D01*
X77462101Y-50030698D01*
X77299757Y-49976851D01*
X77292920Y-49976151D01*
X77292918Y-49976150D01*
X77251599Y-49971917D01*
X77198732Y-49966500D01*
X76842106Y-49966500D01*
X76773985Y-49946498D01*
X76727492Y-49892842D01*
X76717388Y-49822568D01*
X76722513Y-49800832D01*
X76770491Y-49656186D01*
X76773358Y-49642810D01*
X76782672Y-49551903D01*
X76782929Y-49546874D01*
X76778525Y-49531876D01*
X76777135Y-49530671D01*
X76769452Y-49529000D01*
X75672000Y-49529000D01*
X75603879Y-49508998D01*
X75557386Y-49455342D01*
X75546000Y-49403000D01*
X75546000Y-49147000D01*
X75566002Y-49078879D01*
X75619658Y-49032386D01*
X75672000Y-49021000D01*
X76764885Y-49021000D01*
X76780124Y-49016525D01*
X76781329Y-49015135D01*
X76783000Y-49007452D01*
X76783000Y-49004562D01*
X76782663Y-48998047D01*
X76773106Y-48905943D01*
X76770212Y-48892544D01*
X76720619Y-48743893D01*
X76714445Y-48730714D01*
X76632212Y-48597827D01*
X76618629Y-48580689D01*
X76620559Y-48579159D01*
X76592097Y-48527120D01*
X76597113Y-48456301D01*
X76620799Y-48419383D01*
X76619843Y-48418628D01*
X76624381Y-48412882D01*
X76629552Y-48407702D01*
X76719302Y-48262101D01*
X76773149Y-48099757D01*
X76783500Y-47998732D01*
X76783500Y-47451268D01*
X76772887Y-47348981D01*
X76753582Y-47291117D01*
X76721073Y-47193676D01*
X76721072Y-47193674D01*
X76718756Y-47186732D01*
X76700968Y-47157986D01*
X76632606Y-47047515D01*
X76628752Y-47041287D01*
X76507702Y-46920448D01*
X76406891Y-46858307D01*
X76368331Y-46834538D01*
X76368329Y-46834537D01*
X76362101Y-46830698D01*
X76199757Y-46776851D01*
X76192920Y-46776151D01*
X76192918Y-46776150D01*
X76151599Y-46771917D01*
X76098732Y-46766500D01*
X75759500Y-46766500D01*
X75691379Y-46746498D01*
X75644886Y-46692842D01*
X75633500Y-46640500D01*
X75633500Y-41578768D01*
X75634027Y-41567585D01*
X75635702Y-41560092D01*
X75633562Y-41492001D01*
X75633500Y-41488044D01*
X75633500Y-41460144D01*
X75632996Y-41456153D01*
X75632063Y-41444311D01*
X75630923Y-41408036D01*
X75630674Y-41400111D01*
X75625021Y-41380652D01*
X75621012Y-41361293D01*
X75620846Y-41359983D01*
X75618474Y-41341203D01*
X75615558Y-41333837D01*
X75615556Y-41333831D01*
X75602200Y-41300098D01*
X75598355Y-41288868D01*
X75588230Y-41254017D01*
X75588230Y-41254016D01*
X75586019Y-41246407D01*
X75575705Y-41228966D01*
X75567008Y-41211213D01*
X75562472Y-41199758D01*
X75559552Y-41192383D01*
X75533563Y-41156612D01*
X75527047Y-41146692D01*
X75504542Y-41108638D01*
X75490221Y-41094317D01*
X75477380Y-41079283D01*
X75470131Y-41069306D01*
X75465472Y-41062893D01*
X75431395Y-41034702D01*
X75422616Y-41026712D01*
X73391030Y-38995125D01*
X73357004Y-38932813D01*
X73362069Y-38861997D01*
X73404616Y-38805162D01*
X73471136Y-38780351D01*
X73492962Y-38780686D01*
X73520428Y-38783500D01*
X74054572Y-38783500D01*
X74057818Y-38783163D01*
X74057822Y-38783163D01*
X74091603Y-38779658D01*
X74155982Y-38772978D01*
X74316849Y-38719308D01*
X74461055Y-38630071D01*
X74580864Y-38510053D01*
X74591139Y-38493384D01*
X74643912Y-38445890D01*
X74698399Y-38433500D01*
X74792775Y-38433500D01*
X74860896Y-38453502D01*
X74900551Y-38494229D01*
X74913361Y-38515381D01*
X75034619Y-38636639D01*
X75181301Y-38725472D01*
X75188548Y-38727743D01*
X75188550Y-38727744D01*
X75207974Y-38733831D01*
X75344938Y-38776753D01*
X75418365Y-38783500D01*
X75421263Y-38783500D01*
X75675665Y-38783499D01*
X75931634Y-38783499D01*
X75934492Y-38783236D01*
X75934501Y-38783236D01*
X75970004Y-38779974D01*
X76005062Y-38776753D01*
X76014839Y-38773689D01*
X76161450Y-38727744D01*
X76161452Y-38727743D01*
X76168699Y-38725472D01*
X76315381Y-38636639D01*
X76411259Y-38540761D01*
X76473571Y-38506735D01*
X76544386Y-38511800D01*
X76589449Y-38540761D01*
X76679557Y-38630869D01*
X76691426Y-38640176D01*
X76825012Y-38721079D01*
X76838757Y-38727285D01*
X76988644Y-38774256D01*
X77001694Y-38776869D01*
X77056586Y-38781913D01*
X77068124Y-38778525D01*
X77069329Y-38777135D01*
X77071000Y-38769452D01*
X77071000Y-38764884D01*
X77579000Y-38764884D01*
X77583475Y-38780123D01*
X77584865Y-38781328D01*
X77589294Y-38782291D01*
X77648315Y-38776868D01*
X77661351Y-38774257D01*
X77811243Y-38727285D01*
X77824988Y-38721079D01*
X77958574Y-38640176D01*
X77970443Y-38630869D01*
X78015349Y-38585963D01*
X87694757Y-38585963D01*
X87711175Y-38781483D01*
X87765258Y-38970091D01*
X87773811Y-38986733D01*
X87852123Y-39139113D01*
X87852126Y-39139117D01*
X87854944Y-39144601D01*
X87976818Y-39298369D01*
X88126238Y-39425535D01*
X88131616Y-39428541D01*
X88131618Y-39428542D01*
X88167932Y-39448837D01*
X88297513Y-39521257D01*
X88484118Y-39581889D01*
X88678946Y-39605121D01*
X88685081Y-39604649D01*
X88685083Y-39604649D01*
X88868434Y-39590541D01*
X88868438Y-39590540D01*
X88874576Y-39590068D01*
X89063556Y-39537303D01*
X89238689Y-39448837D01*
X89268515Y-39425535D01*
X89315996Y-39388438D01*
X89393303Y-39328040D01*
X89423084Y-39293539D01*
X89517485Y-39184173D01*
X89517485Y-39184172D01*
X89521509Y-39179511D01*
X89618425Y-39008909D01*
X89680358Y-38822732D01*
X89704949Y-38628071D01*
X89705341Y-38600000D01*
X89686194Y-38404728D01*
X89684413Y-38398829D01*
X89684412Y-38398824D01*
X89631265Y-38222793D01*
X89629484Y-38216894D01*
X89537370Y-38043653D01*
X89413361Y-37891602D01*
X89262180Y-37766535D01*
X89089585Y-37673213D01*
X88958608Y-37632669D01*
X88908039Y-37617015D01*
X88908036Y-37617014D01*
X88902152Y-37615193D01*
X88896027Y-37614549D01*
X88896026Y-37614549D01*
X88713147Y-37595327D01*
X88713146Y-37595327D01*
X88707019Y-37594683D01*
X88584383Y-37605844D01*
X88517759Y-37611907D01*
X88517758Y-37611907D01*
X88511618Y-37612466D01*
X88505704Y-37614207D01*
X88505702Y-37614207D01*
X88429088Y-37636756D01*
X88323393Y-37667864D01*
X88317928Y-37670721D01*
X88154972Y-37755912D01*
X88154968Y-37755915D01*
X88149512Y-37758767D01*
X88144712Y-37762627D01*
X88144711Y-37762627D01*
X88128286Y-37775833D01*
X87996600Y-37881711D01*
X87870480Y-38032016D01*
X87867516Y-38037408D01*
X87867513Y-38037412D01*
X87796820Y-38166002D01*
X87775956Y-38203954D01*
X87716628Y-38390978D01*
X87694757Y-38585963D01*
X78015349Y-38585963D01*
X78080869Y-38520443D01*
X78090176Y-38508574D01*
X78171079Y-38374988D01*
X78177285Y-38361243D01*
X78224256Y-38211356D01*
X78226869Y-38198306D01*
X78232734Y-38134479D01*
X78233000Y-38128691D01*
X78233000Y-38072115D01*
X78228525Y-38056876D01*
X78227135Y-38055671D01*
X78219452Y-38054000D01*
X77597115Y-38054000D01*
X77581876Y-38058475D01*
X77580671Y-38059865D01*
X77579000Y-38067548D01*
X77579000Y-38764884D01*
X77071000Y-38764884D01*
X77071000Y-37527885D01*
X77579000Y-37527885D01*
X77583475Y-37543124D01*
X77584865Y-37544329D01*
X77592548Y-37546000D01*
X78214884Y-37546000D01*
X78230123Y-37541525D01*
X78231328Y-37540135D01*
X78232999Y-37532452D01*
X78232999Y-37471295D01*
X78232736Y-37465546D01*
X78226868Y-37401685D01*
X78224257Y-37388649D01*
X78177285Y-37238757D01*
X78171079Y-37225012D01*
X78090176Y-37091426D01*
X78080869Y-37079557D01*
X77970443Y-36969131D01*
X77958574Y-36959824D01*
X77824988Y-36878921D01*
X77811243Y-36872715D01*
X77661356Y-36825744D01*
X77648306Y-36823131D01*
X77593414Y-36818087D01*
X77581876Y-36821475D01*
X77580671Y-36822865D01*
X77579000Y-36830548D01*
X77579000Y-37527885D01*
X77071000Y-37527885D01*
X77071000Y-36835116D01*
X77066525Y-36819877D01*
X77065135Y-36818672D01*
X77060706Y-36817709D01*
X77001685Y-36823132D01*
X76988649Y-36825743D01*
X76838757Y-36872715D01*
X76825012Y-36878921D01*
X76691426Y-36959824D01*
X76679557Y-36969131D01*
X76589449Y-37059239D01*
X76527137Y-37093265D01*
X76456322Y-37088200D01*
X76411259Y-37059239D01*
X76315381Y-36963361D01*
X76261986Y-36931024D01*
X76218028Y-36904402D01*
X76170121Y-36852005D01*
X76158148Y-36782025D01*
X76185909Y-36716681D01*
X76186899Y-36715623D01*
X76187107Y-36715472D01*
X76215298Y-36681395D01*
X76223288Y-36672616D01*
X78045500Y-34850405D01*
X78107812Y-34816379D01*
X78134595Y-34813500D01*
X79119618Y-34813500D01*
X79187739Y-34833502D01*
X79234232Y-34887158D01*
X79237599Y-34895269D01*
X79246231Y-34918293D01*
X79249385Y-34926705D01*
X79336739Y-35043261D01*
X79453295Y-35130615D01*
X79589684Y-35181745D01*
X79651866Y-35188500D01*
X82898134Y-35188500D01*
X82960316Y-35181745D01*
X83096705Y-35130615D01*
X83213261Y-35043261D01*
X83300615Y-34926705D01*
X83351745Y-34790316D01*
X83358500Y-34728134D01*
X84241500Y-34728134D01*
X84248255Y-34790316D01*
X84299385Y-34926705D01*
X84386739Y-35043261D01*
X84503295Y-35130615D01*
X84639684Y-35181745D01*
X84701866Y-35188500D01*
X87948134Y-35188500D01*
X88010316Y-35181745D01*
X88146705Y-35130615D01*
X88263261Y-35043261D01*
X88278284Y-35023216D01*
X88335144Y-34980702D01*
X88405963Y-34975678D01*
X88440264Y-34988950D01*
X88443248Y-34991118D01*
X88449275Y-34993801D01*
X88449276Y-34993802D01*
X88611681Y-35066109D01*
X88617712Y-35068794D01*
X88702301Y-35086774D01*
X88798056Y-35107128D01*
X88798061Y-35107128D01*
X88804513Y-35108500D01*
X88995487Y-35108500D01*
X89001939Y-35107128D01*
X89001944Y-35107128D01*
X89097699Y-35086774D01*
X89182288Y-35068794D01*
X89188319Y-35066109D01*
X89350722Y-34993803D01*
X89350724Y-34993802D01*
X89356752Y-34991118D01*
X89371089Y-34980702D01*
X89441428Y-34929597D01*
X89511253Y-34878866D01*
X89523494Y-34865271D01*
X89634621Y-34741852D01*
X89634622Y-34741851D01*
X89639040Y-34736944D01*
X89734527Y-34571556D01*
X89793542Y-34389928D01*
X89802180Y-34307747D01*
X89812814Y-34206565D01*
X89813504Y-34200000D01*
X89793542Y-34010072D01*
X89734527Y-33828444D01*
X89729373Y-33819516D01*
X89667738Y-33712763D01*
X89639040Y-33663056D01*
X89629943Y-33652952D01*
X89515675Y-33526045D01*
X89515674Y-33526044D01*
X89511253Y-33521134D01*
X89391983Y-33434479D01*
X89362094Y-33412763D01*
X89362093Y-33412762D01*
X89356752Y-33408882D01*
X89350724Y-33406198D01*
X89350722Y-33406197D01*
X89188319Y-33333891D01*
X89188318Y-33333891D01*
X89182288Y-33331206D01*
X89088888Y-33311353D01*
X89001944Y-33292872D01*
X89001939Y-33292872D01*
X88995487Y-33291500D01*
X88804513Y-33291500D01*
X88798061Y-33292872D01*
X88798056Y-33292872D01*
X88711112Y-33311353D01*
X88617712Y-33331206D01*
X88611685Y-33333889D01*
X88611677Y-33333892D01*
X88451877Y-33405039D01*
X88381510Y-33414473D01*
X88317213Y-33384366D01*
X88299803Y-33365497D01*
X88291187Y-33354000D01*
X88263261Y-33316739D01*
X88146705Y-33229385D01*
X88010316Y-33178255D01*
X87948134Y-33171500D01*
X84701866Y-33171500D01*
X84639684Y-33178255D01*
X84503295Y-33229385D01*
X84386739Y-33316739D01*
X84299385Y-33433295D01*
X84248255Y-33569684D01*
X84241500Y-33631866D01*
X84241500Y-34728134D01*
X83358500Y-34728134D01*
X83358500Y-33631866D01*
X83351745Y-33569684D01*
X83300615Y-33433295D01*
X83213261Y-33316739D01*
X83096705Y-33229385D01*
X82960316Y-33178255D01*
X82898134Y-33171500D01*
X79651866Y-33171500D01*
X79589684Y-33178255D01*
X79453295Y-33229385D01*
X79336739Y-33316739D01*
X79249385Y-33433295D01*
X79246233Y-33441703D01*
X79246231Y-33441707D01*
X79237599Y-33464731D01*
X79194957Y-33521495D01*
X79128395Y-33546194D01*
X79119618Y-33546500D01*
X77898767Y-33546500D01*
X77887584Y-33545973D01*
X77880091Y-33544298D01*
X77872165Y-33544547D01*
X77872164Y-33544547D01*
X77812014Y-33546438D01*
X77808055Y-33546500D01*
X77780144Y-33546500D01*
X77776210Y-33546997D01*
X77776209Y-33546997D01*
X77776144Y-33547005D01*
X77764307Y-33547938D01*
X77732049Y-33548952D01*
X77728030Y-33549078D01*
X77720111Y-33549327D01*
X77700657Y-33554979D01*
X77681300Y-33558987D01*
X77669070Y-33560532D01*
X77669069Y-33560532D01*
X77661203Y-33561526D01*
X77653832Y-33564445D01*
X77653830Y-33564445D01*
X77620088Y-33577804D01*
X77608858Y-33581649D01*
X77574017Y-33591771D01*
X77574016Y-33591771D01*
X77566407Y-33593982D01*
X77559588Y-33598015D01*
X77559583Y-33598017D01*
X77548972Y-33604293D01*
X77531224Y-33612988D01*
X77512383Y-33620448D01*
X77505967Y-33625110D01*
X77505966Y-33625110D01*
X77476613Y-33646436D01*
X77466693Y-33652952D01*
X77435465Y-33671420D01*
X77435462Y-33671422D01*
X77428638Y-33675458D01*
X77414317Y-33689779D01*
X77399284Y-33702619D01*
X77382893Y-33714528D01*
X77356387Y-33746568D01*
X77354702Y-33748605D01*
X77346712Y-33757384D01*
X75524500Y-35579595D01*
X75462188Y-35613621D01*
X75435405Y-35616500D01*
X72113228Y-35616500D01*
X72045107Y-35596498D01*
X71998614Y-35542842D01*
X71988510Y-35472568D01*
X72018004Y-35407988D01*
X72074291Y-35370667D01*
X72075832Y-35370166D01*
X72082288Y-35368794D01*
X72104012Y-35359122D01*
X72250722Y-35293803D01*
X72250724Y-35293802D01*
X72256752Y-35291118D01*
X72286112Y-35269787D01*
X72369089Y-35209500D01*
X72411253Y-35178866D01*
X72415675Y-35173955D01*
X72534621Y-35041852D01*
X72534622Y-35041851D01*
X72539040Y-35036944D01*
X72629229Y-34880733D01*
X72631223Y-34877279D01*
X72631224Y-34877278D01*
X72634527Y-34871556D01*
X72693542Y-34689928D01*
X72703039Y-34599574D01*
X72712814Y-34506565D01*
X72713504Y-34500000D01*
X72693542Y-34310072D01*
X72634527Y-34128444D01*
X72539040Y-33963056D01*
X72521010Y-33943031D01*
X72415675Y-33826045D01*
X72415674Y-33826044D01*
X72411253Y-33821134D01*
X72256752Y-33708882D01*
X72250724Y-33706198D01*
X72250722Y-33706197D01*
X72088319Y-33633891D01*
X72088318Y-33633891D01*
X72082288Y-33631206D01*
X72075833Y-33629834D01*
X72075830Y-33629833D01*
X72047134Y-33623734D01*
X72027388Y-33619537D01*
X71964915Y-33585809D01*
X71930594Y-33523660D01*
X71928114Y-33484760D01*
X71932734Y-33434479D01*
X71933000Y-33428691D01*
X71933000Y-33372115D01*
X71928525Y-33356876D01*
X71927135Y-33355671D01*
X71919452Y-33354000D01*
X70897000Y-33354000D01*
X70828879Y-33333998D01*
X70782386Y-33280342D01*
X70771000Y-33228000D01*
X70771000Y-32972000D01*
X70791002Y-32903879D01*
X70844658Y-32857386D01*
X70897000Y-32846000D01*
X71914884Y-32846000D01*
X71930123Y-32841525D01*
X71931328Y-32840135D01*
X71932999Y-32832452D01*
X71932999Y-32771295D01*
X71932736Y-32765546D01*
X71926868Y-32701685D01*
X71924257Y-32688649D01*
X71877285Y-32538757D01*
X71871079Y-32525012D01*
X71834596Y-32464772D01*
X71816417Y-32396142D01*
X71838227Y-32328579D01*
X71893103Y-32283532D01*
X71942372Y-32273500D01*
X79119618Y-32273500D01*
X79187739Y-32293502D01*
X79234232Y-32347158D01*
X79237599Y-32355269D01*
X79246231Y-32378293D01*
X79249385Y-32386705D01*
X79336739Y-32503261D01*
X79453295Y-32590615D01*
X79589684Y-32641745D01*
X79651866Y-32648500D01*
X82898134Y-32648500D01*
X82960316Y-32641745D01*
X83096705Y-32590615D01*
X83213261Y-32503261D01*
X83300615Y-32386705D01*
X83351745Y-32250316D01*
X83358500Y-32188134D01*
X83358500Y-32184669D01*
X84242001Y-32184669D01*
X84242371Y-32191490D01*
X84247895Y-32242352D01*
X84251521Y-32257604D01*
X84296676Y-32378054D01*
X84305214Y-32393649D01*
X84381715Y-32495724D01*
X84394276Y-32508285D01*
X84496351Y-32584786D01*
X84511946Y-32593324D01*
X84632394Y-32638478D01*
X84647649Y-32642105D01*
X84698514Y-32647631D01*
X84705328Y-32648000D01*
X86052885Y-32648000D01*
X86068124Y-32643525D01*
X86069329Y-32642135D01*
X86071000Y-32634452D01*
X86071000Y-32629884D01*
X86579000Y-32629884D01*
X86583475Y-32645123D01*
X86584865Y-32646328D01*
X86592548Y-32647999D01*
X87944669Y-32647999D01*
X87951490Y-32647629D01*
X88002352Y-32642105D01*
X88017604Y-32638479D01*
X88138054Y-32593324D01*
X88153649Y-32584786D01*
X88255724Y-32508285D01*
X88268285Y-32495724D01*
X88344786Y-32393649D01*
X88353324Y-32378054D01*
X88398478Y-32257606D01*
X88402105Y-32242351D01*
X88407631Y-32191486D01*
X88408000Y-32184672D01*
X88408000Y-31912115D01*
X88403525Y-31896876D01*
X88402135Y-31895671D01*
X88394452Y-31894000D01*
X86597115Y-31894000D01*
X86581876Y-31898475D01*
X86580671Y-31899865D01*
X86579000Y-31907548D01*
X86579000Y-32629884D01*
X86071000Y-32629884D01*
X86071000Y-31912115D01*
X86066525Y-31896876D01*
X86065135Y-31895671D01*
X86057452Y-31894000D01*
X84260116Y-31894000D01*
X84244877Y-31898475D01*
X84243672Y-31899865D01*
X84242001Y-31907548D01*
X84242001Y-32184669D01*
X83358500Y-32184669D01*
X83358500Y-31367885D01*
X84242000Y-31367885D01*
X84246475Y-31383124D01*
X84247865Y-31384329D01*
X84255548Y-31386000D01*
X86052885Y-31386000D01*
X86068124Y-31381525D01*
X86069329Y-31380135D01*
X86071000Y-31372452D01*
X86071000Y-31367885D01*
X86579000Y-31367885D01*
X86583475Y-31383124D01*
X86584865Y-31384329D01*
X86592548Y-31386000D01*
X88389884Y-31386000D01*
X88405123Y-31381525D01*
X88406328Y-31380135D01*
X88407999Y-31372452D01*
X88407999Y-31095331D01*
X88407629Y-31088510D01*
X88402105Y-31037648D01*
X88398479Y-31022396D01*
X88353324Y-30901946D01*
X88344786Y-30886351D01*
X88268285Y-30784276D01*
X88255724Y-30771715D01*
X88153649Y-30695214D01*
X88138054Y-30686676D01*
X88017606Y-30641522D01*
X88002351Y-30637895D01*
X87951486Y-30632369D01*
X87944672Y-30632000D01*
X86597115Y-30632000D01*
X86581876Y-30636475D01*
X86580671Y-30637865D01*
X86579000Y-30645548D01*
X86579000Y-31367885D01*
X86071000Y-31367885D01*
X86071000Y-30650116D01*
X86066525Y-30634877D01*
X86065135Y-30633672D01*
X86057452Y-30632001D01*
X84705331Y-30632001D01*
X84698510Y-30632371D01*
X84647648Y-30637895D01*
X84632396Y-30641521D01*
X84511946Y-30686676D01*
X84496351Y-30695214D01*
X84394276Y-30771715D01*
X84381715Y-30784276D01*
X84305214Y-30886351D01*
X84296676Y-30901946D01*
X84251522Y-31022394D01*
X84247895Y-31037649D01*
X84242369Y-31088514D01*
X84242000Y-31095328D01*
X84242000Y-31367885D01*
X83358500Y-31367885D01*
X83358500Y-31091866D01*
X83351745Y-31029684D01*
X83300615Y-30893295D01*
X83213261Y-30776739D01*
X83096705Y-30689385D01*
X82960316Y-30638255D01*
X82898134Y-30631500D01*
X79651866Y-30631500D01*
X79589684Y-30638255D01*
X79453295Y-30689385D01*
X79336739Y-30776739D01*
X79249385Y-30893295D01*
X79246233Y-30901703D01*
X79246231Y-30901707D01*
X79237599Y-30924731D01*
X79194957Y-30981495D01*
X79128395Y-31006194D01*
X79119618Y-31006500D01*
X74793594Y-31006500D01*
X74725473Y-30986498D01*
X74678980Y-30932842D01*
X74668876Y-30862568D01*
X74698370Y-30797988D01*
X74704499Y-30791405D01*
X75725499Y-29770405D01*
X75787811Y-29736379D01*
X75814594Y-29733500D01*
X79119618Y-29733500D01*
X79187739Y-29753502D01*
X79234232Y-29807158D01*
X79237599Y-29815269D01*
X79246231Y-29838293D01*
X79249385Y-29846705D01*
X79336739Y-29963261D01*
X79453295Y-30050615D01*
X79589684Y-30101745D01*
X79651866Y-30108500D01*
X82898134Y-30108500D01*
X82960316Y-30101745D01*
X83096705Y-30050615D01*
X83213261Y-29963261D01*
X83300615Y-29846705D01*
X83351745Y-29710316D01*
X83358500Y-29648134D01*
X83358500Y-29644669D01*
X84242001Y-29644669D01*
X84242371Y-29651490D01*
X84247895Y-29702352D01*
X84251521Y-29717604D01*
X84296676Y-29838054D01*
X84305214Y-29853649D01*
X84381715Y-29955724D01*
X84394276Y-29968285D01*
X84496351Y-30044786D01*
X84511946Y-30053324D01*
X84632394Y-30098478D01*
X84647649Y-30102105D01*
X84698514Y-30107631D01*
X84705328Y-30108000D01*
X86052885Y-30108000D01*
X86068124Y-30103525D01*
X86069329Y-30102135D01*
X86071000Y-30094452D01*
X86071000Y-30089884D01*
X86579000Y-30089884D01*
X86583475Y-30105123D01*
X86584865Y-30106328D01*
X86592548Y-30107999D01*
X87944669Y-30107999D01*
X87951490Y-30107629D01*
X88002352Y-30102105D01*
X88017604Y-30098479D01*
X88138054Y-30053324D01*
X88153649Y-30044786D01*
X88255724Y-29968285D01*
X88268285Y-29955724D01*
X88344786Y-29853649D01*
X88353324Y-29838054D01*
X88398478Y-29717606D01*
X88402105Y-29702351D01*
X88407631Y-29651486D01*
X88408000Y-29644672D01*
X88408000Y-29372115D01*
X88403525Y-29356876D01*
X88402135Y-29355671D01*
X88394452Y-29354000D01*
X86597115Y-29354000D01*
X86581876Y-29358475D01*
X86580671Y-29359865D01*
X86579000Y-29367548D01*
X86579000Y-30089884D01*
X86071000Y-30089884D01*
X86071000Y-29372115D01*
X86066525Y-29356876D01*
X86065135Y-29355671D01*
X86057452Y-29354000D01*
X84260116Y-29354000D01*
X84244877Y-29358475D01*
X84243672Y-29359865D01*
X84242001Y-29367548D01*
X84242001Y-29644669D01*
X83358500Y-29644669D01*
X83358500Y-28827885D01*
X84242000Y-28827885D01*
X84246475Y-28843124D01*
X84247865Y-28844329D01*
X84255548Y-28846000D01*
X86052885Y-28846000D01*
X86068124Y-28841525D01*
X86069329Y-28840135D01*
X86071000Y-28832452D01*
X86071000Y-28827885D01*
X86579000Y-28827885D01*
X86583475Y-28843124D01*
X86584865Y-28844329D01*
X86592548Y-28846000D01*
X88389884Y-28846000D01*
X88405123Y-28841525D01*
X88406328Y-28840135D01*
X88407999Y-28832452D01*
X88407999Y-28555331D01*
X88407629Y-28548510D01*
X88402105Y-28497648D01*
X88398479Y-28482396D01*
X88353324Y-28361946D01*
X88344786Y-28346351D01*
X88268285Y-28244276D01*
X88255724Y-28231715D01*
X88153649Y-28155214D01*
X88138054Y-28146676D01*
X88017606Y-28101522D01*
X88002351Y-28097895D01*
X87951486Y-28092369D01*
X87944672Y-28092000D01*
X86597115Y-28092000D01*
X86581876Y-28096475D01*
X86580671Y-28097865D01*
X86579000Y-28105548D01*
X86579000Y-28827885D01*
X86071000Y-28827885D01*
X86071000Y-28110116D01*
X86066525Y-28094877D01*
X86065135Y-28093672D01*
X86057452Y-28092001D01*
X84705331Y-28092001D01*
X84698510Y-28092371D01*
X84647648Y-28097895D01*
X84632396Y-28101521D01*
X84511946Y-28146676D01*
X84496351Y-28155214D01*
X84394276Y-28231715D01*
X84381715Y-28244276D01*
X84305214Y-28346351D01*
X84296676Y-28361946D01*
X84251522Y-28482394D01*
X84247895Y-28497649D01*
X84242369Y-28548514D01*
X84242000Y-28555328D01*
X84242000Y-28827885D01*
X83358500Y-28827885D01*
X83358500Y-28551866D01*
X83351745Y-28489684D01*
X83300615Y-28353295D01*
X83213261Y-28236739D01*
X83096705Y-28149385D01*
X82960316Y-28098255D01*
X82898134Y-28091500D01*
X79651866Y-28091500D01*
X79589684Y-28098255D01*
X79453295Y-28149385D01*
X79336739Y-28236739D01*
X79249385Y-28353295D01*
X79246233Y-28361703D01*
X79246231Y-28361707D01*
X79237599Y-28384731D01*
X79194957Y-28441495D01*
X79128395Y-28466194D01*
X79119618Y-28466500D01*
X75578763Y-28466500D01*
X75567579Y-28465973D01*
X75560091Y-28464299D01*
X75552168Y-28464548D01*
X75492033Y-28466438D01*
X75488075Y-28466500D01*
X75460144Y-28466500D01*
X75456229Y-28466995D01*
X75456225Y-28466995D01*
X75456167Y-28467003D01*
X75456138Y-28467006D01*
X75444296Y-28467939D01*
X75400110Y-28469327D01*
X75382744Y-28474372D01*
X75380658Y-28474978D01*
X75361306Y-28478986D01*
X75349068Y-28480532D01*
X75349066Y-28480533D01*
X75341203Y-28481526D01*
X75300086Y-28497806D01*
X75288885Y-28501641D01*
X75246406Y-28513982D01*
X75239587Y-28518015D01*
X75239582Y-28518017D01*
X75228971Y-28524293D01*
X75211221Y-28532990D01*
X75192383Y-28540448D01*
X75185967Y-28545109D01*
X75185966Y-28545110D01*
X75156625Y-28566428D01*
X75146701Y-28572947D01*
X75115460Y-28591422D01*
X75115455Y-28591426D01*
X75108637Y-28595458D01*
X75094313Y-28609782D01*
X75079281Y-28622621D01*
X75062893Y-28634528D01*
X75034712Y-28668593D01*
X75026722Y-28677373D01*
X73474500Y-30229595D01*
X73412188Y-30263621D01*
X73385405Y-30266500D01*
X69233594Y-30266500D01*
X69165473Y-30246498D01*
X69118980Y-30192842D01*
X69108876Y-30122568D01*
X69138370Y-30057988D01*
X69144499Y-30051405D01*
X72087770Y-27108134D01*
X79191500Y-27108134D01*
X79198255Y-27170316D01*
X79249385Y-27306705D01*
X79336739Y-27423261D01*
X79453295Y-27510615D01*
X79589684Y-27561745D01*
X79651866Y-27568500D01*
X82898134Y-27568500D01*
X82960316Y-27561745D01*
X83096705Y-27510615D01*
X83213261Y-27423261D01*
X83300615Y-27306705D01*
X83351745Y-27170316D01*
X83358500Y-27108134D01*
X84241500Y-27108134D01*
X84248255Y-27170316D01*
X84299385Y-27306705D01*
X84386739Y-27423261D01*
X84503295Y-27510615D01*
X84639684Y-27561745D01*
X84701866Y-27568500D01*
X87948134Y-27568500D01*
X88010316Y-27561745D01*
X88146705Y-27510615D01*
X88263261Y-27423261D01*
X88350615Y-27306705D01*
X88401745Y-27170316D01*
X88408500Y-27108134D01*
X88408500Y-26011866D01*
X88401745Y-25949684D01*
X88350615Y-25813295D01*
X88263261Y-25696739D01*
X88146705Y-25609385D01*
X88010316Y-25558255D01*
X87948134Y-25551500D01*
X84701866Y-25551500D01*
X84639684Y-25558255D01*
X84503295Y-25609385D01*
X84386739Y-25696739D01*
X84299385Y-25813295D01*
X84248255Y-25949684D01*
X84241500Y-26011866D01*
X84241500Y-27108134D01*
X83358500Y-27108134D01*
X83358500Y-26011866D01*
X83351745Y-25949684D01*
X83300615Y-25813295D01*
X83213261Y-25696739D01*
X83096705Y-25609385D01*
X82960316Y-25558255D01*
X82898134Y-25551500D01*
X79651866Y-25551500D01*
X79589684Y-25558255D01*
X79453295Y-25609385D01*
X79336739Y-25696739D01*
X79249385Y-25813295D01*
X79198255Y-25949684D01*
X79191500Y-26011866D01*
X79191500Y-27108134D01*
X72087770Y-27108134D01*
X74505499Y-24690405D01*
X74567811Y-24656379D01*
X74594594Y-24653500D01*
X79119618Y-24653500D01*
X79187739Y-24673502D01*
X79234232Y-24727158D01*
X79237599Y-24735269D01*
X79246231Y-24758293D01*
X79249385Y-24766705D01*
X79336739Y-24883261D01*
X79453295Y-24970615D01*
X79589684Y-25021745D01*
X79651866Y-25028500D01*
X82898134Y-25028500D01*
X82960316Y-25021745D01*
X83096705Y-24970615D01*
X83213261Y-24883261D01*
X83300615Y-24766705D01*
X83351745Y-24630316D01*
X83358500Y-24568134D01*
X83358500Y-24564669D01*
X84242001Y-24564669D01*
X84242371Y-24571490D01*
X84247895Y-24622352D01*
X84251521Y-24637604D01*
X84296676Y-24758054D01*
X84305214Y-24773649D01*
X84381715Y-24875724D01*
X84394276Y-24888285D01*
X84496351Y-24964786D01*
X84511946Y-24973324D01*
X84632394Y-25018478D01*
X84647649Y-25022105D01*
X84698514Y-25027631D01*
X84705328Y-25028000D01*
X86052885Y-25028000D01*
X86068124Y-25023525D01*
X86069329Y-25022135D01*
X86071000Y-25014452D01*
X86071000Y-25009884D01*
X86579000Y-25009884D01*
X86583475Y-25025123D01*
X86584865Y-25026328D01*
X86592548Y-25027999D01*
X87944669Y-25027999D01*
X87951490Y-25027629D01*
X88002352Y-25022105D01*
X88017604Y-25018479D01*
X88138054Y-24973324D01*
X88153649Y-24964786D01*
X88255724Y-24888285D01*
X88268285Y-24875724D01*
X88344786Y-24773649D01*
X88353324Y-24758054D01*
X88398478Y-24637606D01*
X88402105Y-24622351D01*
X88407631Y-24571486D01*
X88408000Y-24564672D01*
X88408000Y-24292115D01*
X88403525Y-24276876D01*
X88402135Y-24275671D01*
X88394452Y-24274000D01*
X86597115Y-24274000D01*
X86581876Y-24278475D01*
X86580671Y-24279865D01*
X86579000Y-24287548D01*
X86579000Y-25009884D01*
X86071000Y-25009884D01*
X86071000Y-24292115D01*
X86066525Y-24276876D01*
X86065135Y-24275671D01*
X86057452Y-24274000D01*
X84260116Y-24274000D01*
X84244877Y-24278475D01*
X84243672Y-24279865D01*
X84242001Y-24287548D01*
X84242001Y-24564669D01*
X83358500Y-24564669D01*
X83358500Y-23747885D01*
X84242000Y-23747885D01*
X84246475Y-23763124D01*
X84247865Y-23764329D01*
X84255548Y-23766000D01*
X86052885Y-23766000D01*
X86068124Y-23761525D01*
X86069329Y-23760135D01*
X86071000Y-23752452D01*
X86071000Y-23747885D01*
X86579000Y-23747885D01*
X86583475Y-23763124D01*
X86584865Y-23764329D01*
X86592548Y-23766000D01*
X88389884Y-23766000D01*
X88405123Y-23761525D01*
X88406328Y-23760135D01*
X88407999Y-23752452D01*
X88407999Y-23475331D01*
X88407629Y-23468510D01*
X88402105Y-23417648D01*
X88398479Y-23402396D01*
X88353324Y-23281946D01*
X88344786Y-23266351D01*
X88268285Y-23164276D01*
X88255724Y-23151715D01*
X88153649Y-23075214D01*
X88138054Y-23066676D01*
X88017606Y-23021522D01*
X88002351Y-23017895D01*
X87951486Y-23012369D01*
X87944672Y-23012000D01*
X86597115Y-23012000D01*
X86581876Y-23016475D01*
X86580671Y-23017865D01*
X86579000Y-23025548D01*
X86579000Y-23747885D01*
X86071000Y-23747885D01*
X86071000Y-23030116D01*
X86066525Y-23014877D01*
X86065135Y-23013672D01*
X86057452Y-23012001D01*
X84705331Y-23012001D01*
X84698510Y-23012371D01*
X84647648Y-23017895D01*
X84632396Y-23021521D01*
X84511946Y-23066676D01*
X84496351Y-23075214D01*
X84394276Y-23151715D01*
X84381715Y-23164276D01*
X84305214Y-23266351D01*
X84296676Y-23281946D01*
X84251522Y-23402394D01*
X84247895Y-23417649D01*
X84242369Y-23468514D01*
X84242000Y-23475328D01*
X84242000Y-23747885D01*
X83358500Y-23747885D01*
X83358500Y-23471866D01*
X83351745Y-23409684D01*
X83300615Y-23273295D01*
X83213261Y-23156739D01*
X83096705Y-23069385D01*
X82960316Y-23018255D01*
X82898134Y-23011500D01*
X79651866Y-23011500D01*
X79589684Y-23018255D01*
X79453295Y-23069385D01*
X79336739Y-23156739D01*
X79249385Y-23273295D01*
X79246233Y-23281703D01*
X79246231Y-23281707D01*
X79237599Y-23304731D01*
X79194957Y-23361495D01*
X79128395Y-23386194D01*
X79119618Y-23386500D01*
X74358767Y-23386500D01*
X74347584Y-23385973D01*
X74340091Y-23384298D01*
X74332165Y-23384547D01*
X74332164Y-23384547D01*
X74272014Y-23386438D01*
X74268055Y-23386500D01*
X74240144Y-23386500D01*
X74236210Y-23386997D01*
X74236209Y-23386997D01*
X74236144Y-23387005D01*
X74224307Y-23387938D01*
X74192490Y-23388938D01*
X74188029Y-23389078D01*
X74180110Y-23389327D01*
X74162454Y-23394456D01*
X74160658Y-23394978D01*
X74141306Y-23398986D01*
X74134235Y-23399880D01*
X74121203Y-23401526D01*
X74113834Y-23404443D01*
X74113832Y-23404444D01*
X74080097Y-23417800D01*
X74068869Y-23421645D01*
X74026407Y-23433982D01*
X74019585Y-23438016D01*
X74019579Y-23438019D01*
X74008968Y-23444294D01*
X73991218Y-23452990D01*
X73979756Y-23457528D01*
X73979751Y-23457531D01*
X73972383Y-23460448D01*
X73965968Y-23465109D01*
X73936625Y-23486427D01*
X73926707Y-23492943D01*
X73908019Y-23503995D01*
X73888637Y-23515458D01*
X73874313Y-23529782D01*
X73859281Y-23542621D01*
X73842893Y-23554528D01*
X73814740Y-23588559D01*
X73814712Y-23588593D01*
X73806722Y-23597373D01*
X66598594Y-30805501D01*
X66536282Y-30839527D01*
X66465467Y-30834462D01*
X66408631Y-30791915D01*
X66383820Y-30725395D01*
X66383499Y-30716406D01*
X66383499Y-30468366D01*
X66382283Y-30455123D01*
X66377364Y-30401592D01*
X66376753Y-30394938D01*
X66366516Y-30362273D01*
X66327744Y-30238550D01*
X66327743Y-30238548D01*
X66325472Y-30231301D01*
X66236639Y-30084619D01*
X66140761Y-29988741D01*
X66106735Y-29926429D01*
X66111800Y-29855614D01*
X66140761Y-29810551D01*
X66230869Y-29720443D01*
X66240176Y-29708574D01*
X66321079Y-29574988D01*
X66327285Y-29561243D01*
X66374256Y-29411356D01*
X66376869Y-29398306D01*
X66381913Y-29343414D01*
X66378525Y-29331876D01*
X66377135Y-29330671D01*
X66369452Y-29329000D01*
X64435116Y-29329000D01*
X64419877Y-29333475D01*
X64418672Y-29334865D01*
X64417709Y-29339295D01*
X64419522Y-29359034D01*
X64405835Y-29428699D01*
X64356657Y-29479905D01*
X64287602Y-29496395D01*
X64220594Y-29472933D01*
X64195302Y-29448822D01*
X64192899Y-29445790D01*
X64078171Y-29331261D01*
X64066760Y-29322249D01*
X63928757Y-29237184D01*
X63915576Y-29231037D01*
X63761290Y-29179862D01*
X63747914Y-29176995D01*
X63653562Y-29167328D01*
X63647145Y-29167000D01*
X63622115Y-29167000D01*
X63606876Y-29171475D01*
X63605671Y-29172865D01*
X63604000Y-29180548D01*
X63604000Y-30528000D01*
X63583998Y-30596121D01*
X63530342Y-30642614D01*
X63478000Y-30654000D01*
X63222000Y-30654000D01*
X63153879Y-30633998D01*
X63107386Y-30580342D01*
X63096000Y-30528000D01*
X63096000Y-29185116D01*
X63091525Y-29169877D01*
X63090135Y-29168672D01*
X63082452Y-29167001D01*
X63052905Y-29167001D01*
X63046386Y-29167338D01*
X62950794Y-29177257D01*
X62937400Y-29180149D01*
X62783216Y-29231588D01*
X62770038Y-29237761D01*
X62632193Y-29323063D01*
X62620792Y-29332099D01*
X62586896Y-29366054D01*
X62524613Y-29400133D01*
X62453793Y-29395130D01*
X62396920Y-29352633D01*
X62372052Y-29286134D01*
X62377890Y-29238100D01*
X62391502Y-29196206D01*
X62393542Y-29189928D01*
X62395336Y-29172865D01*
X62412814Y-29006565D01*
X62413504Y-29000000D01*
X62393542Y-28810072D01*
X62392409Y-28806586D01*
X64418087Y-28806586D01*
X64421475Y-28818124D01*
X64422865Y-28819329D01*
X64430548Y-28821000D01*
X65127885Y-28821000D01*
X65143124Y-28816525D01*
X65144329Y-28815135D01*
X65146000Y-28807452D01*
X65146000Y-28802885D01*
X65654000Y-28802885D01*
X65658475Y-28818124D01*
X65659865Y-28819329D01*
X65667548Y-28821000D01*
X66364884Y-28821000D01*
X66380123Y-28816525D01*
X66381328Y-28815135D01*
X66382291Y-28810706D01*
X66376868Y-28751685D01*
X66374257Y-28738649D01*
X66327285Y-28588757D01*
X66321079Y-28575012D01*
X66240176Y-28441426D01*
X66230869Y-28429557D01*
X66120443Y-28319131D01*
X66108574Y-28309824D01*
X65974988Y-28228921D01*
X65961243Y-28222715D01*
X65811356Y-28175744D01*
X65798306Y-28173131D01*
X65734479Y-28167266D01*
X65728691Y-28167000D01*
X65672115Y-28167000D01*
X65656876Y-28171475D01*
X65655671Y-28172865D01*
X65654000Y-28180548D01*
X65654000Y-28802885D01*
X65146000Y-28802885D01*
X65146000Y-28185116D01*
X65141525Y-28169877D01*
X65140135Y-28168672D01*
X65132452Y-28167001D01*
X65071295Y-28167001D01*
X65065546Y-28167264D01*
X65001685Y-28173132D01*
X64988649Y-28175743D01*
X64838757Y-28222715D01*
X64825012Y-28228921D01*
X64691426Y-28309824D01*
X64679557Y-28319131D01*
X64569131Y-28429557D01*
X64559824Y-28441426D01*
X64478921Y-28575012D01*
X64472715Y-28588757D01*
X64425744Y-28738644D01*
X64423131Y-28751694D01*
X64418087Y-28806586D01*
X62392409Y-28806586D01*
X62334527Y-28628444D01*
X62323753Y-28609782D01*
X62258949Y-28497540D01*
X62239040Y-28463056D01*
X62219627Y-28441495D01*
X62115675Y-28326045D01*
X62115674Y-28326044D01*
X62111253Y-28321134D01*
X62012157Y-28249136D01*
X61962094Y-28212763D01*
X61962093Y-28212762D01*
X61956752Y-28208882D01*
X61950726Y-28206199D01*
X61950719Y-28206195D01*
X61822495Y-28149107D01*
X61768399Y-28103127D01*
X61747749Y-28035200D01*
X61767101Y-27966892D01*
X61820312Y-27919890D01*
X61873743Y-27908000D01*
X62027885Y-27908000D01*
X62043124Y-27903525D01*
X62044329Y-27902135D01*
X62046000Y-27894452D01*
X62046000Y-27889884D01*
X62554000Y-27889884D01*
X62558475Y-27905123D01*
X62559865Y-27906328D01*
X62567548Y-27907999D01*
X62822095Y-27907999D01*
X62828614Y-27907662D01*
X62924206Y-27897743D01*
X62937600Y-27894851D01*
X63091784Y-27843412D01*
X63104962Y-27837239D01*
X63242807Y-27751937D01*
X63254208Y-27742901D01*
X63368739Y-27628171D01*
X63377751Y-27616760D01*
X63462816Y-27478757D01*
X63468963Y-27465576D01*
X63520138Y-27311290D01*
X63523005Y-27297914D01*
X63532672Y-27203562D01*
X63533000Y-27197146D01*
X63533000Y-27172115D01*
X63528525Y-27156876D01*
X63527135Y-27155671D01*
X63519452Y-27154000D01*
X62572115Y-27154000D01*
X62556876Y-27158475D01*
X62555671Y-27159865D01*
X62554000Y-27167548D01*
X62554000Y-27889884D01*
X62046000Y-27889884D01*
X62046000Y-27172115D01*
X62041525Y-27156876D01*
X62040135Y-27155671D01*
X62032452Y-27154000D01*
X60322115Y-27154000D01*
X60306876Y-27158475D01*
X60305671Y-27159865D01*
X60304000Y-27167548D01*
X60304000Y-27714884D01*
X60308475Y-27730123D01*
X60309865Y-27731328D01*
X60317548Y-27732999D01*
X60719669Y-27732999D01*
X60726490Y-27732629D01*
X60777352Y-27727105D01*
X60792604Y-27723479D01*
X60913054Y-27678324D01*
X60928649Y-27669786D01*
X61037904Y-27587904D01*
X61039422Y-27589929D01*
X61089966Y-27562329D01*
X61160781Y-27567394D01*
X61217617Y-27609941D01*
X61222461Y-27617048D01*
X61232099Y-27629208D01*
X61346829Y-27743739D01*
X61358240Y-27752751D01*
X61496243Y-27837816D01*
X61509424Y-27843963D01*
X61515285Y-27845907D01*
X61573645Y-27886338D01*
X61600881Y-27951903D01*
X61588347Y-28021784D01*
X61540022Y-28073796D01*
X61475617Y-28091500D01*
X61404513Y-28091500D01*
X61398061Y-28092872D01*
X61398056Y-28092872D01*
X61316932Y-28110116D01*
X61217712Y-28131206D01*
X61211682Y-28133891D01*
X61211681Y-28133891D01*
X61049278Y-28206197D01*
X61049276Y-28206198D01*
X61043248Y-28208882D01*
X61037907Y-28212762D01*
X61037906Y-28212763D01*
X60987843Y-28249136D01*
X60888747Y-28321134D01*
X60884326Y-28326044D01*
X60884325Y-28326045D01*
X60780374Y-28441495D01*
X60760960Y-28463056D01*
X60741051Y-28497540D01*
X60676248Y-28609782D01*
X60665473Y-28628444D01*
X60606458Y-28810072D01*
X60586496Y-29000000D01*
X60587186Y-29006565D01*
X60604665Y-29172865D01*
X60606458Y-29189928D01*
X60608498Y-29196206D01*
X60645374Y-29309699D01*
X60647402Y-29380666D01*
X60614716Y-29437651D01*
X60606592Y-29445790D01*
X60600695Y-29451697D01*
X60596855Y-29457927D01*
X60596854Y-29457928D01*
X60533170Y-29561243D01*
X60507885Y-29602262D01*
X60505581Y-29609209D01*
X60463401Y-29736379D01*
X60452203Y-29770139D01*
X60441500Y-29874600D01*
X60441500Y-30925400D01*
X60441837Y-30928646D01*
X60441837Y-30928650D01*
X60451564Y-31022394D01*
X60452474Y-31031166D01*
X60454655Y-31037702D01*
X60454655Y-31037704D01*
X60490920Y-31146402D01*
X60508450Y-31198946D01*
X60601522Y-31349348D01*
X60726697Y-31474305D01*
X60732927Y-31478145D01*
X60756618Y-31492749D01*
X60804110Y-31545522D01*
X60816500Y-31600008D01*
X60816500Y-31651227D01*
X60815972Y-31662417D01*
X60814298Y-31669909D01*
X60814547Y-31677832D01*
X60816438Y-31737986D01*
X60816500Y-31741945D01*
X60816500Y-31769856D01*
X60816997Y-31773790D01*
X60816997Y-31773791D01*
X60817005Y-31773856D01*
X60817938Y-31785693D01*
X60819327Y-31829889D01*
X60824978Y-31849339D01*
X60828987Y-31868700D01*
X60831526Y-31888797D01*
X60834445Y-31896168D01*
X60834445Y-31896170D01*
X60847804Y-31929912D01*
X60851649Y-31941142D01*
X60857738Y-31962102D01*
X60863982Y-31983593D01*
X60868015Y-31990412D01*
X60868017Y-31990417D01*
X60874293Y-32001028D01*
X60882988Y-32018776D01*
X60890448Y-32037617D01*
X60895110Y-32044033D01*
X60895110Y-32044034D01*
X60916436Y-32073387D01*
X60922952Y-32083308D01*
X60935993Y-32105359D01*
X60953453Y-32174175D01*
X60930936Y-32241506D01*
X60875592Y-32285975D01*
X60808671Y-32292075D01*
X60808515Y-32293563D01*
X60801944Y-32292872D01*
X60795487Y-32291500D01*
X60604513Y-32291500D01*
X60598061Y-32292872D01*
X60598056Y-32292872D01*
X60511112Y-32311353D01*
X60417712Y-32331206D01*
X60411682Y-32333891D01*
X60411681Y-32333891D01*
X60249278Y-32406197D01*
X60249276Y-32406198D01*
X60243248Y-32408882D01*
X60088747Y-32521134D01*
X60084326Y-32526044D01*
X60084325Y-32526045D01*
X59966271Y-32657158D01*
X59960960Y-32663056D01*
X59865473Y-32828444D01*
X59806458Y-33010072D01*
X59805768Y-33016633D01*
X59805768Y-33016635D01*
X59792983Y-33138275D01*
X59786496Y-33200000D01*
X59787186Y-33206565D01*
X59800580Y-33333998D01*
X59806458Y-33389928D01*
X59865473Y-33571556D01*
X59923130Y-33671420D01*
X59926682Y-33677573D01*
X59943420Y-33746568D01*
X59938561Y-33775722D01*
X59924906Y-33822721D01*
X59896188Y-33921569D01*
X59896187Y-33921574D01*
X59894394Y-33927746D01*
X59893890Y-33934151D01*
X59893889Y-33934156D01*
X59893191Y-33943031D01*
X59891500Y-33964516D01*
X59891500Y-34328000D01*
X59871498Y-34396121D01*
X59817842Y-34442614D01*
X59765500Y-34454000D01*
X58951576Y-34454000D01*
X58936781Y-34458344D01*
X58934937Y-34468775D01*
X58936688Y-34478359D01*
X58978357Y-34621784D01*
X58984604Y-34636220D01*
X59059876Y-34763499D01*
X59069516Y-34775926D01*
X59174074Y-34880484D01*
X59186501Y-34890124D01*
X59313780Y-34965396D01*
X59328216Y-34971643D01*
X59471641Y-35013312D01*
X59488137Y-35016325D01*
X59551555Y-35048240D01*
X59587652Y-35109375D01*
X59591500Y-35140275D01*
X59591500Y-35363244D01*
X59592038Y-35367330D01*
X59592038Y-35367331D01*
X59606519Y-35477324D01*
X59604974Y-35477527D01*
X59604974Y-35522473D01*
X59606519Y-35522676D01*
X59591500Y-35636756D01*
X59591500Y-35863244D01*
X59592038Y-35867330D01*
X59592038Y-35867331D01*
X59606519Y-35977324D01*
X59604974Y-35977527D01*
X59604974Y-36022473D01*
X59606519Y-36022676D01*
X59600106Y-36071391D01*
X59591500Y-36136756D01*
X59591500Y-36363244D01*
X59592038Y-36367330D01*
X59592038Y-36367331D01*
X59606088Y-36474054D01*
X59595148Y-36544203D01*
X59548020Y-36597301D01*
X59481166Y-36616500D01*
X57584000Y-36616500D01*
X57515879Y-36596498D01*
X57469386Y-36542842D01*
X57458000Y-36490500D01*
X57458000Y-36472115D01*
X57453525Y-36456876D01*
X57452135Y-36455671D01*
X57444452Y-36454000D01*
X56222000Y-36454000D01*
X56153879Y-36433998D01*
X56107386Y-36380342D01*
X56096000Y-36328000D01*
X56096000Y-36072000D01*
X56116002Y-36003879D01*
X56169658Y-35957386D01*
X56222000Y-35946000D01*
X57439884Y-35946000D01*
X57455123Y-35941525D01*
X57456328Y-35940135D01*
X57457999Y-35932452D01*
X57457999Y-35455331D01*
X57457629Y-35448510D01*
X57452105Y-35397648D01*
X57448479Y-35382396D01*
X57403324Y-35261946D01*
X57394786Y-35246351D01*
X57318285Y-35144276D01*
X57305724Y-35131715D01*
X57203649Y-35055214D01*
X57188054Y-35046676D01*
X57067606Y-35001522D01*
X57052351Y-34997895D01*
X57001486Y-34992369D01*
X56994672Y-34992000D01*
X56669060Y-34992000D01*
X56600939Y-34971998D01*
X56554446Y-34918342D01*
X56544342Y-34848068D01*
X56548063Y-34830847D01*
X56563312Y-34778359D01*
X56564768Y-34770391D01*
X56561948Y-34756969D01*
X56550487Y-34754000D01*
X55734500Y-34754000D01*
X55666379Y-34733998D01*
X55619886Y-34680342D01*
X55608500Y-34628000D01*
X55608500Y-34264516D01*
X55607043Y-34246000D01*
X55606111Y-34234156D01*
X55606110Y-34234151D01*
X55605617Y-34227885D01*
X56034000Y-34227885D01*
X56038475Y-34243124D01*
X56039865Y-34244329D01*
X56047548Y-34246000D01*
X56548424Y-34246000D01*
X56563219Y-34241656D01*
X56565063Y-34231225D01*
X56563312Y-34221641D01*
X56521643Y-34078216D01*
X56515396Y-34063780D01*
X56440124Y-33936501D01*
X56434778Y-33929609D01*
X58935232Y-33929609D01*
X58938052Y-33943031D01*
X58949513Y-33946000D01*
X59447885Y-33946000D01*
X59463124Y-33941525D01*
X59464329Y-33940135D01*
X59466000Y-33932452D01*
X59466000Y-33406442D01*
X59462027Y-33392911D01*
X59454129Y-33391776D01*
X59328216Y-33428357D01*
X59313780Y-33434604D01*
X59186501Y-33509876D01*
X59174074Y-33519516D01*
X59069516Y-33624074D01*
X59059876Y-33636501D01*
X58984604Y-33763780D01*
X58978357Y-33778216D01*
X58936688Y-33921641D01*
X58935232Y-33929609D01*
X56434778Y-33929609D01*
X56430484Y-33924074D01*
X56325926Y-33819516D01*
X56313499Y-33809876D01*
X56186220Y-33734604D01*
X56171784Y-33728357D01*
X56051395Y-33693381D01*
X56037295Y-33693421D01*
X56034000Y-33700691D01*
X56034000Y-34227885D01*
X55605617Y-34227885D01*
X55605606Y-34227746D01*
X55559894Y-34070403D01*
X55543546Y-34042760D01*
X55526000Y-33978621D01*
X55526000Y-33706442D01*
X55522027Y-33692911D01*
X55514129Y-33691776D01*
X55388216Y-33728357D01*
X55373778Y-33734605D01*
X55364628Y-33740016D01*
X55295812Y-33757474D01*
X55236353Y-33740015D01*
X55227203Y-33734604D01*
X55219597Y-33730106D01*
X55211986Y-33727895D01*
X55211984Y-33727894D01*
X55137301Y-33706197D01*
X55062254Y-33684394D01*
X55055849Y-33683890D01*
X55055844Y-33683889D01*
X55027940Y-33681693D01*
X55027932Y-33681693D01*
X55025484Y-33681500D01*
X54614516Y-33681500D01*
X54612068Y-33681693D01*
X54612060Y-33681693D01*
X54584156Y-33683889D01*
X54584151Y-33683890D01*
X54577746Y-33684394D01*
X54502699Y-33706197D01*
X54428016Y-33727894D01*
X54428014Y-33727895D01*
X54420403Y-33730106D01*
X54413581Y-33734141D01*
X54413580Y-33734141D01*
X54327247Y-33785198D01*
X54279371Y-33813512D01*
X54163512Y-33929371D01*
X54159478Y-33936192D01*
X54141267Y-33966986D01*
X54080106Y-34070403D01*
X54034394Y-34227746D01*
X54033890Y-34234151D01*
X54033889Y-34234156D01*
X54032957Y-34246000D01*
X54031500Y-34264516D01*
X54031500Y-34735484D01*
X54031693Y-34737932D01*
X54031693Y-34737940D01*
X54033705Y-34763499D01*
X54034394Y-34772254D01*
X54036188Y-34778430D01*
X54036189Y-34778434D01*
X54053253Y-34837169D01*
X54053050Y-34908165D01*
X54014496Y-34967781D01*
X53954779Y-34993711D01*
X53955222Y-34995575D01*
X53947540Y-34997402D01*
X53939684Y-34998255D01*
X53803295Y-35049385D01*
X53686739Y-35136739D01*
X53599385Y-35253295D01*
X53548255Y-35389684D01*
X53541500Y-35451866D01*
X53541500Y-36948134D01*
X53548255Y-37010316D01*
X53599385Y-37146705D01*
X53648589Y-37212357D01*
X53657953Y-37224852D01*
X53682801Y-37291358D01*
X53667748Y-37360741D01*
X53657953Y-37375982D01*
X53605214Y-37446352D01*
X53596676Y-37461946D01*
X53551522Y-37582394D01*
X53547895Y-37597649D01*
X53542369Y-37648514D01*
X53542000Y-37655328D01*
X53542000Y-38127885D01*
X53546475Y-38143124D01*
X53547865Y-38144329D01*
X53555548Y-38146000D01*
X54778000Y-38146000D01*
X54846121Y-38166002D01*
X54892614Y-38219658D01*
X54904000Y-38272000D01*
X54904000Y-38528000D01*
X54883998Y-38596121D01*
X54830342Y-38642614D01*
X54778000Y-38654000D01*
X53560116Y-38654000D01*
X53544877Y-38658475D01*
X53543672Y-38659865D01*
X53542001Y-38667548D01*
X53542001Y-39144669D01*
X53542371Y-39151490D01*
X53547895Y-39202352D01*
X53551521Y-39217604D01*
X53596676Y-39338054D01*
X53605214Y-39353649D01*
X53681715Y-39455724D01*
X53694276Y-39468285D01*
X53796351Y-39544786D01*
X53811946Y-39553324D01*
X53932394Y-39598478D01*
X53947649Y-39602105D01*
X53998514Y-39607631D01*
X54005328Y-39608000D01*
X54330940Y-39608000D01*
X54399061Y-39628002D01*
X54445554Y-39681658D01*
X54455658Y-39751932D01*
X54451937Y-39769153D01*
X54436688Y-39821641D01*
X54435232Y-39829609D01*
X54438052Y-39843031D01*
X54449513Y-39846000D01*
X55265500Y-39846000D01*
X55333621Y-39866002D01*
X55380114Y-39919658D01*
X55391500Y-39972000D01*
X55391500Y-40335484D01*
X55391693Y-40337932D01*
X55391693Y-40337940D01*
X55393685Y-40363244D01*
X55394394Y-40372254D01*
X55408371Y-40420364D01*
X55434377Y-40509876D01*
X55440106Y-40529597D01*
X55444141Y-40536419D01*
X55444141Y-40536420D01*
X55456454Y-40557240D01*
X55474000Y-40621379D01*
X55474000Y-40893558D01*
X55477973Y-40907089D01*
X55485871Y-40908224D01*
X55611784Y-40871643D01*
X55626222Y-40865395D01*
X55635372Y-40859984D01*
X55704188Y-40842526D01*
X55763647Y-40859985D01*
X55769158Y-40863244D01*
X55780403Y-40869894D01*
X55788014Y-40872105D01*
X55788016Y-40872106D01*
X55838995Y-40886916D01*
X55937746Y-40915606D01*
X55944151Y-40916110D01*
X55944156Y-40916111D01*
X55972060Y-40918307D01*
X55972068Y-40918307D01*
X55974516Y-40918500D01*
X56385484Y-40918500D01*
X56387932Y-40918307D01*
X56387940Y-40918307D01*
X56415844Y-40916111D01*
X56415849Y-40916110D01*
X56422254Y-40915606D01*
X56521005Y-40886916D01*
X56571984Y-40872106D01*
X56571986Y-40872105D01*
X56579597Y-40869894D01*
X56587205Y-40865395D01*
X56713808Y-40790522D01*
X56720629Y-40786488D01*
X56836488Y-40670629D01*
X56856671Y-40636501D01*
X56915859Y-40536420D01*
X56915859Y-40536419D01*
X56919894Y-40529597D01*
X56925624Y-40509876D01*
X56951629Y-40420364D01*
X56965606Y-40372254D01*
X56966316Y-40363244D01*
X56968307Y-40337940D01*
X56968307Y-40337932D01*
X56968500Y-40335484D01*
X56968500Y-39864516D01*
X56968127Y-39859776D01*
X56966111Y-39834156D01*
X56966110Y-39834151D01*
X56965606Y-39827746D01*
X56963373Y-39820057D01*
X56946747Y-39762831D01*
X56946950Y-39691835D01*
X56985504Y-39632219D01*
X57045221Y-39606289D01*
X57044778Y-39604425D01*
X57052460Y-39602598D01*
X57060316Y-39601745D01*
X57196705Y-39550615D01*
X57313261Y-39463261D01*
X57400615Y-39346705D01*
X57451745Y-39210316D01*
X57458500Y-39148134D01*
X57458500Y-39107730D01*
X57478502Y-39039609D01*
X57532158Y-38993116D01*
X57602432Y-38983012D01*
X57619654Y-38986733D01*
X57753534Y-39025629D01*
X57759941Y-39026133D01*
X57759945Y-39026134D01*
X57787556Y-39028307D01*
X57787562Y-39028307D01*
X57790011Y-39028500D01*
X57989878Y-39028500D01*
X58189988Y-39028499D01*
X58226466Y-39025629D01*
X58331461Y-38995125D01*
X58374983Y-38982481D01*
X58374985Y-38982480D01*
X58382596Y-38980269D01*
X58389421Y-38976233D01*
X58389425Y-38976231D01*
X58435861Y-38948769D01*
X58504677Y-38931309D01*
X58564139Y-38948769D01*
X58610575Y-38976231D01*
X58610579Y-38976233D01*
X58617404Y-38980269D01*
X58625015Y-38982480D01*
X58625017Y-38982481D01*
X58685318Y-39000000D01*
X58773534Y-39025629D01*
X58779941Y-39026133D01*
X58779945Y-39026134D01*
X58807556Y-39028307D01*
X58807562Y-39028307D01*
X58810011Y-39028500D01*
X58815193Y-39028500D01*
X59021895Y-39028499D01*
X59090014Y-39048501D01*
X59136507Y-39102156D01*
X59146612Y-39172430D01*
X59117119Y-39237011D01*
X59110989Y-39243594D01*
X58467742Y-39886841D01*
X58459462Y-39894376D01*
X58452982Y-39898489D01*
X58419188Y-39934476D01*
X58406357Y-39948140D01*
X58403602Y-39950982D01*
X58383865Y-39970719D01*
X58381385Y-39973916D01*
X58373682Y-39982936D01*
X58343414Y-40015168D01*
X58339595Y-40022114D01*
X58339593Y-40022117D01*
X58333652Y-40032923D01*
X58322801Y-40049442D01*
X58310386Y-40065448D01*
X58307241Y-40072717D01*
X58307238Y-40072721D01*
X58292826Y-40106026D01*
X58287609Y-40116676D01*
X58266305Y-40155429D01*
X58264334Y-40163104D01*
X58264334Y-40163105D01*
X58261267Y-40175051D01*
X58254863Y-40193755D01*
X58246819Y-40212344D01*
X58245580Y-40220167D01*
X58245577Y-40220177D01*
X58239901Y-40256013D01*
X58237495Y-40267632D01*
X58227342Y-40307179D01*
X58191029Y-40368186D01*
X58173723Y-40381650D01*
X58158030Y-40391799D01*
X58154000Y-40400691D01*
X58154000Y-40678621D01*
X58136454Y-40742760D01*
X58120106Y-40770403D01*
X58117895Y-40778014D01*
X58117894Y-40778016D01*
X58114267Y-40790500D01*
X58074394Y-40927746D01*
X58073890Y-40934151D01*
X58073889Y-40934156D01*
X58073191Y-40943031D01*
X58071500Y-40964516D01*
X58071500Y-41328000D01*
X58051498Y-41396121D01*
X57997842Y-41442614D01*
X57945500Y-41454000D01*
X57131576Y-41454000D01*
X57116781Y-41458344D01*
X57115970Y-41462931D01*
X57084416Y-41526531D01*
X57023487Y-41562975D01*
X56991893Y-41567000D01*
X56972115Y-41567000D01*
X56956876Y-41571475D01*
X56955671Y-41572865D01*
X56954000Y-41580548D01*
X56954000Y-42928000D01*
X56933998Y-42996121D01*
X56880342Y-43042614D01*
X56828000Y-43054000D01*
X55710116Y-43054000D01*
X55694877Y-43058475D01*
X55693672Y-43059865D01*
X55692001Y-43067548D01*
X55692001Y-43322095D01*
X55692338Y-43328614D01*
X55702257Y-43424206D01*
X55705149Y-43437600D01*
X55756588Y-43591784D01*
X55762762Y-43604963D01*
X55821594Y-43700035D01*
X55840432Y-43768487D01*
X55819271Y-43836257D01*
X55803622Y-43855357D01*
X55768302Y-43890738D01*
X55706019Y-43924816D01*
X55652933Y-43924966D01*
X55501944Y-43892872D01*
X55501939Y-43892872D01*
X55495487Y-43891500D01*
X55304513Y-43891500D01*
X55298061Y-43892872D01*
X55298056Y-43892872D01*
X55211112Y-43911353D01*
X55117712Y-43931206D01*
X55111682Y-43933891D01*
X55111681Y-43933891D01*
X54949278Y-44006197D01*
X54949276Y-44006198D01*
X54943248Y-44008882D01*
X54937907Y-44012762D01*
X54937906Y-44012763D01*
X54903310Y-44037899D01*
X54788747Y-44121134D01*
X54784326Y-44126044D01*
X54784325Y-44126045D01*
X54699486Y-44220269D01*
X54660960Y-44263056D01*
X54627836Y-44320428D01*
X54570546Y-44419658D01*
X54565473Y-44428444D01*
X54506458Y-44610072D01*
X54505768Y-44616633D01*
X54505768Y-44616635D01*
X54503852Y-44634867D01*
X54486496Y-44800000D01*
X54506458Y-44989928D01*
X54565473Y-45171556D01*
X54660960Y-45336944D01*
X54665378Y-45341851D01*
X54665379Y-45341852D01*
X54754375Y-45440692D01*
X54788747Y-45478866D01*
X54943248Y-45591118D01*
X54949276Y-45593802D01*
X54949278Y-45593803D01*
X55106001Y-45663580D01*
X55117712Y-45668794D01*
X55211113Y-45688647D01*
X55298056Y-45707128D01*
X55298061Y-45707128D01*
X55304513Y-45708500D01*
X55495487Y-45708500D01*
X55501939Y-45707128D01*
X55501944Y-45707128D01*
X55674718Y-45670403D01*
X55682288Y-45668794D01*
X55688321Y-45666108D01*
X55688324Y-45666107D01*
X55703891Y-45659176D01*
X55774258Y-45649742D01*
X55838555Y-45679849D01*
X55844153Y-45685106D01*
X55864947Y-45705864D01*
X56009308Y-45794849D01*
X56016256Y-45797154D01*
X56016257Y-45797154D01*
X56163738Y-45846072D01*
X56163740Y-45846072D01*
X56170269Y-45848238D01*
X56270428Y-45858500D01*
X56804572Y-45858500D01*
X56807818Y-45858163D01*
X56807822Y-45858163D01*
X56899124Y-45848690D01*
X56899128Y-45848689D01*
X56905982Y-45847978D01*
X56906849Y-45847689D01*
X56975348Y-45852692D01*
X57032120Y-45895325D01*
X57056829Y-45961883D01*
X57041633Y-46031234D01*
X57012967Y-46066492D01*
X56883792Y-46176818D01*
X56883787Y-46176823D01*
X56880031Y-46180031D01*
X56725824Y-46360584D01*
X56723245Y-46364792D01*
X56723241Y-46364798D01*
X56605867Y-46556335D01*
X56553219Y-46603966D01*
X56498434Y-46616500D01*
X52901566Y-46616500D01*
X52833445Y-46596498D01*
X52794133Y-46556335D01*
X52676759Y-46364798D01*
X52676755Y-46364792D01*
X52674176Y-46360584D01*
X52519969Y-46180031D01*
X52339416Y-46025824D01*
X52335208Y-46023245D01*
X52335202Y-46023241D01*
X52141183Y-45904346D01*
X52136963Y-45901760D01*
X52132393Y-45899867D01*
X52132389Y-45899865D01*
X51922167Y-45812789D01*
X51922165Y-45812788D01*
X51917594Y-45810895D01*
X51834754Y-45791007D01*
X51691524Y-45756620D01*
X51691518Y-45756619D01*
X51686711Y-45755465D01*
X51450000Y-45736835D01*
X51213289Y-45755465D01*
X51208482Y-45756619D01*
X51208476Y-45756620D01*
X51065246Y-45791007D01*
X50982406Y-45810895D01*
X50977835Y-45812788D01*
X50977833Y-45812789D01*
X50767611Y-45899865D01*
X50767607Y-45899867D01*
X50763037Y-45901760D01*
X50758817Y-45904346D01*
X50564798Y-46023241D01*
X50564792Y-46023245D01*
X50560584Y-46025824D01*
X50380031Y-46180031D01*
X50225824Y-46360584D01*
X50223245Y-46364792D01*
X50223241Y-46364798D01*
X50105867Y-46556335D01*
X50101760Y-46563037D01*
X50099867Y-46567607D01*
X50099865Y-46567611D01*
X50015194Y-46772027D01*
X50010895Y-46782406D01*
X50004296Y-46809894D01*
X49962377Y-46984500D01*
X49955465Y-47013289D01*
X49936835Y-47250000D01*
X49955465Y-47486711D01*
X49956619Y-47491518D01*
X49956620Y-47491524D01*
X49981865Y-47596676D01*
X50010895Y-47717594D01*
X50012788Y-47722165D01*
X50012789Y-47722167D01*
X50097361Y-47926342D01*
X50101760Y-47936963D01*
X50104346Y-47941183D01*
X50223241Y-48135202D01*
X50223245Y-48135208D01*
X50225824Y-48139416D01*
X50380031Y-48319969D01*
X50560584Y-48474176D01*
X50564792Y-48476755D01*
X50564798Y-48476759D01*
X50758817Y-48595654D01*
X50763037Y-48598240D01*
X50767607Y-48600133D01*
X50767611Y-48600135D01*
X50968874Y-48683500D01*
X50982406Y-48689105D01*
X51062609Y-48708360D01*
X51208476Y-48743380D01*
X51208482Y-48743381D01*
X51213289Y-48744535D01*
X51450000Y-48763165D01*
X51686711Y-48744535D01*
X51691518Y-48743381D01*
X51691524Y-48743380D01*
X51837391Y-48708360D01*
X51917594Y-48689105D01*
X51931126Y-48683500D01*
X52132389Y-48600135D01*
X52132393Y-48600133D01*
X52136963Y-48598240D01*
X52141183Y-48595654D01*
X52335202Y-48476759D01*
X52335208Y-48476755D01*
X52339416Y-48474176D01*
X52519969Y-48319969D01*
X52674176Y-48139416D01*
X52676755Y-48135208D01*
X52676759Y-48135202D01*
X52794133Y-47943665D01*
X52846781Y-47896034D01*
X52901566Y-47883500D01*
X56498434Y-47883500D01*
X56566555Y-47903502D01*
X56605867Y-47943665D01*
X56723241Y-48135202D01*
X56723245Y-48135208D01*
X56725824Y-48139416D01*
X56880031Y-48319969D01*
X57060584Y-48474176D01*
X57064792Y-48476755D01*
X57064798Y-48476759D01*
X57258817Y-48595654D01*
X57263037Y-48598240D01*
X57267607Y-48600133D01*
X57267611Y-48600135D01*
X57468874Y-48683500D01*
X57482406Y-48689105D01*
X57562609Y-48708360D01*
X57708476Y-48743380D01*
X57708482Y-48743381D01*
X57713289Y-48744535D01*
X57950000Y-48763165D01*
X58186711Y-48744535D01*
X58191518Y-48743381D01*
X58191524Y-48743380D01*
X58337391Y-48708360D01*
X58417594Y-48689105D01*
X58431126Y-48683500D01*
X58632389Y-48600135D01*
X58632393Y-48600133D01*
X58636963Y-48598240D01*
X58641183Y-48595654D01*
X58835202Y-48476759D01*
X58835208Y-48476755D01*
X58839416Y-48474176D01*
X59019969Y-48319969D01*
X59174176Y-48139416D01*
X59176755Y-48135208D01*
X59176759Y-48135202D01*
X59295654Y-47941183D01*
X59298240Y-47936963D01*
X59302640Y-47926342D01*
X59387211Y-47722167D01*
X59387212Y-47722165D01*
X59389105Y-47717594D01*
X59390260Y-47712782D01*
X59391791Y-47708071D01*
X59393947Y-47708772D01*
X59424646Y-47655357D01*
X59487686Y-47622700D01*
X59558374Y-47629309D01*
X59600871Y-47657281D01*
X59624074Y-47680484D01*
X59636501Y-47690124D01*
X59763780Y-47765396D01*
X59778216Y-47771643D01*
X59927825Y-47815109D01*
X59927169Y-47817366D01*
X59981097Y-47844517D01*
X60017182Y-47905660D01*
X60014483Y-47976605D01*
X60004069Y-47994843D01*
X60002947Y-48000000D01*
X60000000Y-48000000D01*
X60000000Y-56000000D01*
X64958290Y-60462461D01*
X64995543Y-60522899D01*
X65000000Y-60556116D01*
X65000000Y-70865500D01*
X64979998Y-70933621D01*
X64926342Y-70980114D01*
X64874000Y-70991500D01*
X50049367Y-70991500D01*
X50029982Y-70990000D01*
X50015148Y-70987690D01*
X50015145Y-70987690D01*
X50006276Y-70986309D01*
X49997373Y-70987473D01*
X49997372Y-70987473D01*
X49986924Y-70988839D01*
X49964406Y-70989751D01*
X49663949Y-70974990D01*
X49651655Y-70973779D01*
X49324966Y-70925320D01*
X49312844Y-70922910D01*
X49218804Y-70899354D01*
X48992477Y-70842661D01*
X48980645Y-70839072D01*
X48669689Y-70727810D01*
X48658265Y-70723078D01*
X48494130Y-70645448D01*
X48359708Y-70581872D01*
X48348812Y-70576047D01*
X48207899Y-70491588D01*
X48065533Y-70406256D01*
X48055252Y-70399386D01*
X47984483Y-70346901D01*
X47789983Y-70202650D01*
X47780444Y-70194823D01*
X47535718Y-69973015D01*
X47526980Y-69964277D01*
X47471101Y-69902624D01*
X47305177Y-69719556D01*
X47297350Y-69710017D01*
X47111725Y-69459730D01*
X47100614Y-69444748D01*
X47093744Y-69434467D01*
X46985151Y-69253292D01*
X46923953Y-69151188D01*
X46918126Y-69140288D01*
X46912515Y-69128423D01*
X46852494Y-69001519D01*
X46776922Y-68841735D01*
X46772190Y-68830311D01*
X46660928Y-68519355D01*
X46657339Y-68507523D01*
X46578536Y-68192927D01*
X46577090Y-68187156D01*
X46574679Y-68175031D01*
X46570519Y-68146987D01*
X46526220Y-67848343D01*
X46525009Y-67836045D01*
X46515020Y-67632703D01*
X47890743Y-67632703D01*
X47891302Y-67636947D01*
X47891302Y-67636951D01*
X47907810Y-67762340D01*
X47928268Y-67917734D01*
X48004129Y-68195036D01*
X48005813Y-68198984D01*
X48056946Y-68318862D01*
X48116923Y-68459476D01*
X48264561Y-68706161D01*
X48444313Y-68930528D01*
X48652851Y-69128423D01*
X48886317Y-69296186D01*
X48890112Y-69298195D01*
X48890113Y-69298196D01*
X48911869Y-69309715D01*
X49140392Y-69430712D01*
X49410373Y-69529511D01*
X49691264Y-69590755D01*
X49719841Y-69593004D01*
X49914282Y-69608307D01*
X49914291Y-69608307D01*
X49916739Y-69608500D01*
X50072271Y-69608500D01*
X50074407Y-69608354D01*
X50074418Y-69608354D01*
X50282548Y-69594165D01*
X50282554Y-69594164D01*
X50286825Y-69593873D01*
X50291020Y-69593004D01*
X50291022Y-69593004D01*
X50460200Y-69557969D01*
X50568342Y-69535574D01*
X50839343Y-69439607D01*
X50927363Y-69394177D01*
X51091005Y-69309715D01*
X51091006Y-69309715D01*
X51094812Y-69307750D01*
X51098313Y-69305289D01*
X51098317Y-69305287D01*
X51212417Y-69225096D01*
X51288692Y-69171489D01*
X57311227Y-69171489D01*
X57313096Y-69200000D01*
X57324263Y-69370380D01*
X57325684Y-69375976D01*
X57325685Y-69375981D01*
X57364910Y-69530425D01*
X57373326Y-69563564D01*
X57375743Y-69568807D01*
X57412265Y-69648029D01*
X57456772Y-69744573D01*
X57571807Y-69907344D01*
X57575949Y-69911379D01*
X57631716Y-69965705D01*
X57714578Y-70046425D01*
X57880304Y-70157160D01*
X57885607Y-70159438D01*
X57885610Y-70159440D01*
X58058128Y-70233559D01*
X58063435Y-70235839D01*
X58135516Y-70252149D01*
X58252201Y-70278553D01*
X58252207Y-70278554D01*
X58257838Y-70279828D01*
X58263609Y-70280055D01*
X58263611Y-70280055D01*
X58324556Y-70282449D01*
X58457001Y-70287653D01*
X58556959Y-70273160D01*
X58648535Y-70259883D01*
X58648540Y-70259882D01*
X58654256Y-70259053D01*
X58659728Y-70257195D01*
X58659730Y-70257195D01*
X58837532Y-70196839D01*
X58837534Y-70196838D01*
X58842996Y-70194984D01*
X59016899Y-70097594D01*
X59170143Y-69970143D01*
X59297594Y-69816899D01*
X59394984Y-69642996D01*
X59406744Y-69608354D01*
X59457195Y-69459730D01*
X59457195Y-69459728D01*
X59459053Y-69454256D01*
X59459882Y-69448540D01*
X59459883Y-69448535D01*
X59481680Y-69298196D01*
X59487653Y-69257001D01*
X59489146Y-69200000D01*
X59470908Y-69001519D01*
X59456283Y-68949661D01*
X59418373Y-68815244D01*
X59418372Y-68815242D01*
X59416805Y-68809685D01*
X59403746Y-68783202D01*
X59331205Y-68636104D01*
X59328650Y-68630923D01*
X59209393Y-68471219D01*
X59063030Y-68335922D01*
X59058147Y-68332841D01*
X59058143Y-68332838D01*
X58899346Y-68232645D01*
X58899341Y-68232643D01*
X58894462Y-68229564D01*
X58709334Y-68155705D01*
X58513847Y-68116820D01*
X58508072Y-68116744D01*
X58508068Y-68116744D01*
X58408588Y-68115442D01*
X58314547Y-68114211D01*
X58308850Y-68115190D01*
X58308849Y-68115190D01*
X58292805Y-68117947D01*
X58118108Y-68147966D01*
X57931111Y-68216953D01*
X57759816Y-68318862D01*
X57609961Y-68450281D01*
X57486565Y-68606809D01*
X57393760Y-68783202D01*
X57377323Y-68836139D01*
X57344011Y-68943421D01*
X57334654Y-68973554D01*
X57311227Y-69171489D01*
X51288692Y-69171489D01*
X51330023Y-69142441D01*
X51540622Y-68946740D01*
X51722713Y-68724268D01*
X51872927Y-68479142D01*
X51878128Y-68467295D01*
X51986757Y-68219830D01*
X51988483Y-68215898D01*
X51995027Y-68192927D01*
X52066068Y-67943534D01*
X52067244Y-67939406D01*
X52107751Y-67654784D01*
X52107845Y-67636951D01*
X52109235Y-67371583D01*
X52109235Y-67371576D01*
X52109257Y-67367297D01*
X52071732Y-67082266D01*
X51995871Y-66804964D01*
X51883077Y-66540524D01*
X51735439Y-66293839D01*
X51555687Y-66069472D01*
X51432289Y-65952372D01*
X51350258Y-65874527D01*
X51350255Y-65874525D01*
X51347149Y-65871577D01*
X51113683Y-65703814D01*
X51096219Y-65694567D01*
X51068654Y-65679972D01*
X50859608Y-65569288D01*
X50589627Y-65470489D01*
X50308736Y-65409245D01*
X50277685Y-65406801D01*
X50085718Y-65391693D01*
X50085709Y-65391693D01*
X50083261Y-65391500D01*
X49927729Y-65391500D01*
X49925593Y-65391646D01*
X49925582Y-65391646D01*
X49717452Y-65405835D01*
X49717446Y-65405836D01*
X49713175Y-65406127D01*
X49708980Y-65406996D01*
X49708978Y-65406996D01*
X49572416Y-65435277D01*
X49431658Y-65464426D01*
X49160657Y-65560393D01*
X48905188Y-65692250D01*
X48901687Y-65694711D01*
X48901683Y-65694713D01*
X48891594Y-65701804D01*
X48669977Y-65857559D01*
X48459378Y-66053260D01*
X48277287Y-66275732D01*
X48127073Y-66520858D01*
X48011517Y-66784102D01*
X47932756Y-67060594D01*
X47892249Y-67345216D01*
X47892227Y-67349505D01*
X47892226Y-67349512D01*
X47890765Y-67628417D01*
X47890743Y-67632703D01*
X46515020Y-67632703D01*
X46510795Y-67546695D01*
X46512387Y-67519619D01*
X46513576Y-67512552D01*
X46513729Y-67500000D01*
X46509773Y-67472376D01*
X46508500Y-67454514D01*
X46508500Y-61385963D01*
X48994757Y-61385963D01*
X49011175Y-61581483D01*
X49065258Y-61770091D01*
X49068076Y-61775574D01*
X49152123Y-61939113D01*
X49152126Y-61939117D01*
X49154944Y-61944601D01*
X49276818Y-62098369D01*
X49426238Y-62225535D01*
X49431616Y-62228541D01*
X49431618Y-62228542D01*
X49467932Y-62248837D01*
X49597513Y-62321257D01*
X49784118Y-62381889D01*
X49978946Y-62405121D01*
X49985081Y-62404649D01*
X49985083Y-62404649D01*
X50168434Y-62390541D01*
X50168438Y-62390540D01*
X50174576Y-62390068D01*
X50363556Y-62337303D01*
X50538689Y-62248837D01*
X50568515Y-62225535D01*
X50688453Y-62131829D01*
X50693303Y-62128040D01*
X50707256Y-62111876D01*
X50817485Y-61984173D01*
X50817485Y-61984172D01*
X50821509Y-61979511D01*
X50918425Y-61808909D01*
X50980358Y-61622732D01*
X51004949Y-61428071D01*
X51005341Y-61400000D01*
X50986194Y-61204728D01*
X50984413Y-61198829D01*
X50984412Y-61198824D01*
X50931265Y-61022793D01*
X50929484Y-61016894D01*
X50837370Y-60843653D01*
X50713361Y-60691602D01*
X50562180Y-60566535D01*
X50389585Y-60473213D01*
X50278637Y-60438869D01*
X50208039Y-60417015D01*
X50208036Y-60417014D01*
X50202152Y-60415193D01*
X50196027Y-60414549D01*
X50196026Y-60414549D01*
X50013147Y-60395327D01*
X50013146Y-60395327D01*
X50007019Y-60394683D01*
X49884383Y-60405844D01*
X49817759Y-60411907D01*
X49817758Y-60411907D01*
X49811618Y-60412466D01*
X49805704Y-60414207D01*
X49805702Y-60414207D01*
X49726859Y-60437412D01*
X49623393Y-60467864D01*
X49617928Y-60470721D01*
X49454972Y-60555912D01*
X49454968Y-60555915D01*
X49449512Y-60558767D01*
X49444712Y-60562627D01*
X49444711Y-60562627D01*
X49425486Y-60578084D01*
X49296600Y-60681711D01*
X49170480Y-60832016D01*
X49167516Y-60837408D01*
X49167513Y-60837412D01*
X49115238Y-60932500D01*
X49075956Y-61003954D01*
X49074095Y-61009821D01*
X49074094Y-61009823D01*
X49067194Y-61031575D01*
X49016628Y-61190978D01*
X48994757Y-61385963D01*
X46508500Y-61385963D01*
X46508500Y-52982670D01*
X50582160Y-52982670D01*
X50587887Y-52990320D01*
X50759042Y-53095205D01*
X50767837Y-53099687D01*
X50977988Y-53186734D01*
X50987373Y-53189783D01*
X51208554Y-53242885D01*
X51218301Y-53244428D01*
X51445070Y-53262275D01*
X51454930Y-53262275D01*
X51681699Y-53244428D01*
X51691446Y-53242885D01*
X51912627Y-53189783D01*
X51922012Y-53186734D01*
X52132163Y-53099687D01*
X52140958Y-53095205D01*
X52308445Y-52992568D01*
X52317400Y-52982670D01*
X57082160Y-52982670D01*
X57087887Y-52990320D01*
X57259042Y-53095205D01*
X57267837Y-53099687D01*
X57477988Y-53186734D01*
X57487373Y-53189783D01*
X57708554Y-53242885D01*
X57718301Y-53244428D01*
X57945070Y-53262275D01*
X57954930Y-53262275D01*
X58181699Y-53244428D01*
X58191446Y-53242885D01*
X58412627Y-53189783D01*
X58422012Y-53186734D01*
X58632163Y-53099687D01*
X58640958Y-53095205D01*
X58808445Y-52992568D01*
X58817907Y-52982110D01*
X58814124Y-52973334D01*
X57962812Y-52122022D01*
X57948868Y-52114408D01*
X57947035Y-52114539D01*
X57940420Y-52118790D01*
X57088920Y-52970290D01*
X57082160Y-52982670D01*
X52317400Y-52982670D01*
X52317907Y-52982110D01*
X52314124Y-52973334D01*
X51462812Y-52122022D01*
X51448868Y-52114408D01*
X51447035Y-52114539D01*
X51440420Y-52118790D01*
X50588920Y-52970290D01*
X50582160Y-52982670D01*
X46508500Y-52982670D01*
X46508500Y-51754930D01*
X49937725Y-51754930D01*
X49955572Y-51981699D01*
X49957115Y-51991446D01*
X50010217Y-52212627D01*
X50013266Y-52222012D01*
X50100313Y-52432163D01*
X50104795Y-52440958D01*
X50207432Y-52608445D01*
X50217890Y-52617907D01*
X50226666Y-52614124D01*
X51077978Y-51762812D01*
X51084356Y-51751132D01*
X51814408Y-51751132D01*
X51814539Y-51752965D01*
X51818790Y-51759580D01*
X52670290Y-52611080D01*
X52682670Y-52617840D01*
X52690320Y-52612113D01*
X52795205Y-52440958D01*
X52799687Y-52432163D01*
X52886734Y-52222012D01*
X52889783Y-52212627D01*
X52942885Y-51991446D01*
X52944428Y-51981699D01*
X52962275Y-51754930D01*
X56437725Y-51754930D01*
X56455572Y-51981699D01*
X56457115Y-51991446D01*
X56510217Y-52212627D01*
X56513266Y-52222012D01*
X56600313Y-52432163D01*
X56604795Y-52440958D01*
X56707432Y-52608445D01*
X56717890Y-52617907D01*
X56726666Y-52614124D01*
X57577978Y-51762812D01*
X57584356Y-51751132D01*
X58314408Y-51751132D01*
X58314539Y-51752965D01*
X58318790Y-51759580D01*
X59170290Y-52611080D01*
X59182670Y-52617840D01*
X59190320Y-52612113D01*
X59295205Y-52440958D01*
X59299687Y-52432163D01*
X59386734Y-52222012D01*
X59389783Y-52212627D01*
X59442885Y-51991446D01*
X59444428Y-51981699D01*
X59462275Y-51754930D01*
X59462275Y-51745070D01*
X59444428Y-51518301D01*
X59442885Y-51508554D01*
X59389783Y-51287373D01*
X59386734Y-51277988D01*
X59299687Y-51067837D01*
X59295205Y-51059042D01*
X59192568Y-50891555D01*
X59182110Y-50882093D01*
X59173334Y-50885876D01*
X58322022Y-51737188D01*
X58314408Y-51751132D01*
X57584356Y-51751132D01*
X57585592Y-51748868D01*
X57585461Y-51747035D01*
X57581210Y-51740420D01*
X56729710Y-50888920D01*
X56717330Y-50882160D01*
X56709680Y-50887887D01*
X56604795Y-51059042D01*
X56600313Y-51067837D01*
X56513266Y-51277988D01*
X56510217Y-51287373D01*
X56457115Y-51508554D01*
X56455572Y-51518301D01*
X56437725Y-51745070D01*
X56437725Y-51754930D01*
X52962275Y-51754930D01*
X52962275Y-51745070D01*
X52944428Y-51518301D01*
X52942885Y-51508554D01*
X52889783Y-51287373D01*
X52886734Y-51277988D01*
X52799687Y-51067837D01*
X52795205Y-51059042D01*
X52692568Y-50891555D01*
X52682110Y-50882093D01*
X52673334Y-50885876D01*
X51822022Y-51737188D01*
X51814408Y-51751132D01*
X51084356Y-51751132D01*
X51085592Y-51748868D01*
X51085461Y-51747035D01*
X51081210Y-51740420D01*
X50229710Y-50888920D01*
X50217330Y-50882160D01*
X50209680Y-50887887D01*
X50104795Y-51059042D01*
X50100313Y-51067837D01*
X50013266Y-51277988D01*
X50010217Y-51287373D01*
X49957115Y-51508554D01*
X49955572Y-51518301D01*
X49937725Y-51745070D01*
X49937725Y-51754930D01*
X46508500Y-51754930D01*
X46508500Y-50517890D01*
X50582093Y-50517890D01*
X50585876Y-50526666D01*
X51437188Y-51377978D01*
X51451132Y-51385592D01*
X51452965Y-51385461D01*
X51459580Y-51381210D01*
X52311080Y-50529710D01*
X52317534Y-50517890D01*
X57082093Y-50517890D01*
X57085876Y-50526666D01*
X57937188Y-51377978D01*
X57951132Y-51385592D01*
X57952965Y-51385461D01*
X57959580Y-51381210D01*
X58811080Y-50529710D01*
X58817840Y-50517330D01*
X58812113Y-50509680D01*
X58640958Y-50404795D01*
X58632163Y-50400313D01*
X58422012Y-50313266D01*
X58412627Y-50310217D01*
X58191446Y-50257115D01*
X58181699Y-50255572D01*
X57954930Y-50237725D01*
X57945070Y-50237725D01*
X57718301Y-50255572D01*
X57708554Y-50257115D01*
X57487373Y-50310217D01*
X57477988Y-50313266D01*
X57267837Y-50400313D01*
X57259042Y-50404795D01*
X57091555Y-50507432D01*
X57082093Y-50517890D01*
X52317534Y-50517890D01*
X52317840Y-50517330D01*
X52312113Y-50509680D01*
X52140958Y-50404795D01*
X52132163Y-50400313D01*
X51922012Y-50313266D01*
X51912627Y-50310217D01*
X51691446Y-50257115D01*
X51681699Y-50255572D01*
X51454930Y-50237725D01*
X51445070Y-50237725D01*
X51218301Y-50255572D01*
X51208554Y-50257115D01*
X50987373Y-50310217D01*
X50977988Y-50313266D01*
X50767837Y-50400313D01*
X50759042Y-50404795D01*
X50591555Y-50507432D01*
X50582093Y-50517890D01*
X46508500Y-50517890D01*
X46508500Y-42527885D01*
X55692000Y-42527885D01*
X55696475Y-42543124D01*
X55697865Y-42544329D01*
X55705548Y-42546000D01*
X56427885Y-42546000D01*
X56443124Y-42541525D01*
X56444329Y-42540135D01*
X56446000Y-42532452D01*
X56446000Y-41585116D01*
X56441525Y-41569877D01*
X56440135Y-41568672D01*
X56432452Y-41567001D01*
X56402905Y-41567001D01*
X56396386Y-41567338D01*
X56300794Y-41577257D01*
X56287400Y-41580149D01*
X56133216Y-41631588D01*
X56120038Y-41637761D01*
X55982193Y-41723063D01*
X55970792Y-41732099D01*
X55856261Y-41846829D01*
X55847249Y-41858240D01*
X55762184Y-41996243D01*
X55756037Y-42009424D01*
X55704862Y-42163710D01*
X55701995Y-42177086D01*
X55692328Y-42271438D01*
X55692000Y-42277855D01*
X55692000Y-42527885D01*
X46508500Y-42527885D01*
X46508500Y-40929609D01*
X57115232Y-40929609D01*
X57118052Y-40943031D01*
X57129513Y-40946000D01*
X57627885Y-40946000D01*
X57643124Y-40941525D01*
X57644329Y-40940135D01*
X57646000Y-40932452D01*
X57646000Y-40406442D01*
X57642027Y-40392911D01*
X57634129Y-40391776D01*
X57508216Y-40428357D01*
X57493780Y-40434604D01*
X57366501Y-40509876D01*
X57354074Y-40519516D01*
X57249516Y-40624074D01*
X57239876Y-40636501D01*
X57164604Y-40763780D01*
X57158357Y-40778216D01*
X57116688Y-40921641D01*
X57115232Y-40929609D01*
X46508500Y-40929609D01*
X46508500Y-40368775D01*
X54434937Y-40368775D01*
X54436688Y-40378359D01*
X54478357Y-40521784D01*
X54484604Y-40536220D01*
X54559876Y-40663499D01*
X54569516Y-40675926D01*
X54674074Y-40780484D01*
X54686501Y-40790124D01*
X54813780Y-40865396D01*
X54828216Y-40871643D01*
X54948605Y-40906619D01*
X54962705Y-40906579D01*
X54966000Y-40899309D01*
X54966000Y-40372115D01*
X54961525Y-40356876D01*
X54960135Y-40355671D01*
X54952452Y-40354000D01*
X54451576Y-40354000D01*
X54436781Y-40358344D01*
X54434937Y-40368775D01*
X46508500Y-40368775D01*
X46508500Y-36985963D01*
X48994757Y-36985963D01*
X49011175Y-37181483D01*
X49065258Y-37370091D01*
X49068076Y-37375574D01*
X49152123Y-37539113D01*
X49152126Y-37539117D01*
X49154944Y-37544601D01*
X49276818Y-37698369D01*
X49281511Y-37702363D01*
X49281512Y-37702364D01*
X49347786Y-37758767D01*
X49426238Y-37825535D01*
X49431616Y-37828541D01*
X49431618Y-37828542D01*
X49501023Y-37867331D01*
X49597513Y-37921257D01*
X49784118Y-37981889D01*
X49978946Y-38005121D01*
X49985081Y-38004649D01*
X49985083Y-38004649D01*
X50168434Y-37990541D01*
X50168438Y-37990540D01*
X50174576Y-37990068D01*
X50363556Y-37937303D01*
X50538689Y-37848837D01*
X50568515Y-37825535D01*
X50688453Y-37731829D01*
X50693303Y-37728040D01*
X50713205Y-37704984D01*
X50817485Y-37584173D01*
X50817485Y-37584172D01*
X50821509Y-37579511D01*
X50918425Y-37408909D01*
X50980358Y-37222732D01*
X51004949Y-37028071D01*
X51005341Y-37000000D01*
X50986194Y-36804728D01*
X50984413Y-36798829D01*
X50984412Y-36798824D01*
X50931265Y-36622793D01*
X50929484Y-36616894D01*
X50837370Y-36443653D01*
X50713361Y-36291602D01*
X50562180Y-36166535D01*
X50389585Y-36073213D01*
X50285360Y-36040950D01*
X50208039Y-36017015D01*
X50208036Y-36017014D01*
X50202152Y-36015193D01*
X50196027Y-36014549D01*
X50196026Y-36014549D01*
X50013147Y-35995327D01*
X50013146Y-35995327D01*
X50007019Y-35994683D01*
X49905973Y-36003879D01*
X49817759Y-36011907D01*
X49817758Y-36011907D01*
X49811618Y-36012466D01*
X49805704Y-36014207D01*
X49805702Y-36014207D01*
X49714838Y-36040950D01*
X49623393Y-36067864D01*
X49617928Y-36070721D01*
X49454972Y-36155912D01*
X49454968Y-36155915D01*
X49449512Y-36158767D01*
X49444712Y-36162627D01*
X49444711Y-36162627D01*
X49410326Y-36190273D01*
X49296600Y-36281711D01*
X49170480Y-36432016D01*
X49167516Y-36437408D01*
X49167513Y-36437412D01*
X49120639Y-36522676D01*
X49075956Y-36603954D01*
X49074095Y-36609821D01*
X49074094Y-36609823D01*
X49064243Y-36640878D01*
X49016628Y-36790978D01*
X48994757Y-36985963D01*
X46508500Y-36985963D01*
X46508500Y-30470604D01*
X50112787Y-30470604D01*
X50122567Y-30681899D01*
X50123971Y-30687724D01*
X50123971Y-30687725D01*
X50163382Y-30851254D01*
X50172125Y-30887534D01*
X50174607Y-30892992D01*
X50174608Y-30892996D01*
X50190819Y-30928650D01*
X50259674Y-31080087D01*
X50306678Y-31146350D01*
X50357999Y-31218699D01*
X50382054Y-31252611D01*
X50534850Y-31398881D01*
X50712548Y-31513620D01*
X50718114Y-31515863D01*
X50903168Y-31590442D01*
X50903171Y-31590443D01*
X50908737Y-31592686D01*
X51116337Y-31633228D01*
X51121899Y-31633500D01*
X51483629Y-31633500D01*
X51551750Y-31653502D01*
X51572724Y-31670405D01*
X52216230Y-32313911D01*
X52228616Y-32328323D01*
X52237149Y-32339918D01*
X52237154Y-32339923D01*
X52241492Y-32345818D01*
X52247070Y-32350557D01*
X52247073Y-32350560D01*
X52281768Y-32380035D01*
X52289284Y-32386965D01*
X52294980Y-32392661D01*
X52297841Y-32394924D01*
X52297846Y-32394929D01*
X52317256Y-32410285D01*
X52320658Y-32413074D01*
X52340711Y-32430110D01*
X52376285Y-32460333D01*
X52382802Y-32463661D01*
X52387850Y-32467027D01*
X52392972Y-32470190D01*
X52398716Y-32474735D01*
X52464895Y-32505664D01*
X52468779Y-32507563D01*
X52533808Y-32540769D01*
X52540923Y-32542510D01*
X52546578Y-32544613D01*
X52552317Y-32546522D01*
X52558950Y-32549622D01*
X52630435Y-32564491D01*
X52634701Y-32565457D01*
X52705610Y-32582808D01*
X52711212Y-32583156D01*
X52711215Y-32583156D01*
X52716764Y-32583500D01*
X52716762Y-32583535D01*
X52720734Y-32583775D01*
X52724955Y-32584152D01*
X52732115Y-32585641D01*
X52809542Y-32583546D01*
X52812950Y-32583500D01*
X53679121Y-32583500D01*
X53747242Y-32603502D01*
X53793735Y-32657158D01*
X53798644Y-32669623D01*
X53830729Y-32765791D01*
X53833450Y-32773946D01*
X53926522Y-32924348D01*
X54051697Y-33049305D01*
X54057927Y-33053145D01*
X54057928Y-33053146D01*
X54195090Y-33137694D01*
X54202262Y-33142115D01*
X54282005Y-33168564D01*
X54363611Y-33195632D01*
X54363613Y-33195632D01*
X54370139Y-33197797D01*
X54376975Y-33198497D01*
X54376978Y-33198498D01*
X54420031Y-33202909D01*
X54474600Y-33208500D01*
X55325400Y-33208500D01*
X55328646Y-33208163D01*
X55328650Y-33208163D01*
X55424308Y-33198238D01*
X55424312Y-33198237D01*
X55431166Y-33197526D01*
X55437702Y-33195345D01*
X55437704Y-33195345D01*
X55569806Y-33151272D01*
X55598946Y-33141550D01*
X55749348Y-33048478D01*
X55874305Y-32923303D01*
X55914937Y-32857386D01*
X55963275Y-32778968D01*
X55963276Y-32778966D01*
X55967115Y-32772738D01*
X56011483Y-32638971D01*
X56020632Y-32611389D01*
X56020632Y-32611387D01*
X56022797Y-32604861D01*
X56024311Y-32590091D01*
X56030978Y-32525012D01*
X56033500Y-32500400D01*
X56033500Y-31149600D01*
X56033163Y-31146350D01*
X56023238Y-31050692D01*
X56023237Y-31050688D01*
X56022526Y-31043834D01*
X56017776Y-31029595D01*
X55968868Y-30883002D01*
X55966550Y-30876054D01*
X55873478Y-30725652D01*
X55748303Y-30600695D01*
X55718382Y-30582251D01*
X55655884Y-30543727D01*
X55608391Y-30490955D01*
X55596777Y-30439884D01*
X56104000Y-30439884D01*
X56108475Y-30455123D01*
X56109865Y-30456328D01*
X56117548Y-30457999D01*
X56147095Y-30457999D01*
X56153614Y-30457662D01*
X56249206Y-30447743D01*
X56262600Y-30444851D01*
X56416784Y-30393412D01*
X56429962Y-30387239D01*
X56567807Y-30301937D01*
X56579208Y-30292901D01*
X56693738Y-30178172D01*
X56700794Y-30169238D01*
X56758712Y-30128177D01*
X56829635Y-30124947D01*
X56891046Y-30160574D01*
X56897845Y-30168406D01*
X56901522Y-30174348D01*
X56906708Y-30179525D01*
X56911249Y-30185254D01*
X56909576Y-30186580D01*
X56938598Y-30239625D01*
X56941500Y-30266511D01*
X56941500Y-30475101D01*
X56921498Y-30543222D01*
X56881803Y-30582245D01*
X56850652Y-30601522D01*
X56725695Y-30726697D01*
X56721855Y-30732927D01*
X56721854Y-30732928D01*
X56641943Y-30862568D01*
X56632885Y-30877262D01*
X56614450Y-30932842D01*
X56579688Y-31037648D01*
X56577203Y-31045139D01*
X56576503Y-31051975D01*
X56576502Y-31051978D01*
X56572763Y-31088469D01*
X56566500Y-31149600D01*
X56566500Y-32500400D01*
X56566837Y-32503646D01*
X56566837Y-32503650D01*
X56576322Y-32595060D01*
X56577474Y-32606166D01*
X56579655Y-32612702D01*
X56579655Y-32612704D01*
X56607091Y-32694938D01*
X56633450Y-32773946D01*
X56726522Y-32924348D01*
X56851697Y-33049305D01*
X56857927Y-33053145D01*
X56857928Y-33053146D01*
X56995090Y-33137694D01*
X57002262Y-33142115D01*
X57082005Y-33168564D01*
X57163611Y-33195632D01*
X57163613Y-33195632D01*
X57170139Y-33197797D01*
X57176975Y-33198497D01*
X57176978Y-33198498D01*
X57220031Y-33202909D01*
X57274600Y-33208500D01*
X58125400Y-33208500D01*
X58128646Y-33208163D01*
X58128650Y-33208163D01*
X58224308Y-33198238D01*
X58224312Y-33198237D01*
X58231166Y-33197526D01*
X58237702Y-33195345D01*
X58237704Y-33195345D01*
X58369806Y-33151272D01*
X58398946Y-33141550D01*
X58549348Y-33048478D01*
X58674305Y-32923303D01*
X58714937Y-32857386D01*
X58763275Y-32778968D01*
X58763276Y-32778966D01*
X58767115Y-32772738D01*
X58811483Y-32638971D01*
X58820632Y-32611389D01*
X58820632Y-32611387D01*
X58822797Y-32604861D01*
X58824311Y-32590091D01*
X58830978Y-32525012D01*
X58833500Y-32500400D01*
X58833500Y-31149600D01*
X58833163Y-31146350D01*
X58823238Y-31050692D01*
X58823237Y-31050688D01*
X58822526Y-31043834D01*
X58817776Y-31029595D01*
X58768868Y-30883002D01*
X58766550Y-30876054D01*
X58673478Y-30725652D01*
X58548303Y-30600695D01*
X58528962Y-30588773D01*
X58518382Y-30582251D01*
X58470890Y-30529478D01*
X58458500Y-30474992D01*
X58458500Y-30366480D01*
X58478502Y-30298359D01*
X58495327Y-30277462D01*
X58505564Y-30267208D01*
X58599305Y-30173303D01*
X58630579Y-30122568D01*
X58688275Y-30028968D01*
X58688276Y-30028966D01*
X58692115Y-30022738D01*
X58724059Y-29926429D01*
X58745632Y-29861389D01*
X58745632Y-29861387D01*
X58747797Y-29854861D01*
X58751728Y-29816500D01*
X58753185Y-29802275D01*
X58758500Y-29750400D01*
X58758500Y-28699600D01*
X58756194Y-28677373D01*
X58748238Y-28600692D01*
X58748237Y-28600688D01*
X58747526Y-28593834D01*
X58741247Y-28575012D01*
X58696702Y-28441495D01*
X58691550Y-28426054D01*
X58598478Y-28275652D01*
X58559497Y-28236739D01*
X58545482Y-28222748D01*
X58511403Y-28160465D01*
X58508500Y-28133575D01*
X58508500Y-27269669D01*
X58917001Y-27269669D01*
X58917371Y-27276490D01*
X58922895Y-27327352D01*
X58926521Y-27342604D01*
X58971676Y-27463054D01*
X58980214Y-27478649D01*
X59056715Y-27580724D01*
X59069276Y-27593285D01*
X59171351Y-27669786D01*
X59186946Y-27678324D01*
X59307394Y-27723478D01*
X59322649Y-27727105D01*
X59373514Y-27732631D01*
X59380328Y-27733000D01*
X59777885Y-27733000D01*
X59793124Y-27728525D01*
X59794329Y-27727135D01*
X59796000Y-27719452D01*
X59796000Y-27172115D01*
X59791525Y-27156876D01*
X59790135Y-27155671D01*
X59782452Y-27154000D01*
X58935116Y-27154000D01*
X58919877Y-27158475D01*
X58918672Y-27159865D01*
X58917001Y-27167548D01*
X58917001Y-27269669D01*
X58508500Y-27269669D01*
X58508500Y-26908884D01*
X58528502Y-26840763D01*
X58582158Y-26794270D01*
X58623207Y-26784174D01*
X58623134Y-26783500D01*
X58685316Y-26776745D01*
X58821705Y-26725615D01*
X58894346Y-26671174D01*
X58960851Y-26646326D01*
X58969910Y-26646000D01*
X63514884Y-26646000D01*
X63530123Y-26641525D01*
X63531328Y-26640135D01*
X63532999Y-26632452D01*
X63532999Y-26602905D01*
X63532662Y-26596386D01*
X63522743Y-26500794D01*
X63519851Y-26487400D01*
X63468412Y-26333216D01*
X63462241Y-26320042D01*
X63373963Y-26177389D01*
X63355125Y-26108937D01*
X63376286Y-26041167D01*
X63430726Y-25995596D01*
X63507303Y-25987838D01*
X63586033Y-26004572D01*
X63604513Y-26008500D01*
X63795487Y-26008500D01*
X63801939Y-26007128D01*
X63801944Y-26007128D01*
X63813969Y-26004572D01*
X67254000Y-26004572D01*
X67254337Y-26007818D01*
X67254337Y-26007822D01*
X67254757Y-26011866D01*
X67264522Y-26105982D01*
X67318192Y-26266849D01*
X67407429Y-26411055D01*
X67412612Y-26416229D01*
X67414244Y-26418288D01*
X67440883Y-26484098D01*
X67441500Y-26496555D01*
X67441500Y-26627952D01*
X67424619Y-26690952D01*
X67402973Y-26728444D01*
X67343958Y-26910072D01*
X67323996Y-27100000D01*
X67324686Y-27106565D01*
X67342546Y-27276490D01*
X67343958Y-27289928D01*
X67402973Y-27471556D01*
X67406276Y-27477278D01*
X67406277Y-27477279D01*
X67408447Y-27481037D01*
X67498460Y-27636944D01*
X67502878Y-27641851D01*
X67502879Y-27641852D01*
X67602000Y-27751937D01*
X67626247Y-27778866D01*
X67780748Y-27891118D01*
X67786776Y-27893802D01*
X67786778Y-27893803D01*
X67845371Y-27919890D01*
X67955212Y-27968794D01*
X68048612Y-27988647D01*
X68135556Y-28007128D01*
X68135561Y-28007128D01*
X68142013Y-28008500D01*
X68332987Y-28008500D01*
X68339439Y-28007128D01*
X68339444Y-28007128D01*
X68426388Y-27988647D01*
X68519788Y-27968794D01*
X68629629Y-27919890D01*
X68688222Y-27893803D01*
X68688224Y-27893802D01*
X68694252Y-27891118D01*
X68848753Y-27778866D01*
X68873000Y-27751937D01*
X68972121Y-27641852D01*
X68972122Y-27641851D01*
X68976540Y-27636944D01*
X69066553Y-27481037D01*
X69068723Y-27477279D01*
X69068724Y-27477278D01*
X69072027Y-27471556D01*
X69131042Y-27289928D01*
X69132455Y-27276490D01*
X69150314Y-27106565D01*
X69151004Y-27100000D01*
X69131042Y-26910072D01*
X69108522Y-26840763D01*
X69088366Y-26778729D01*
X69086338Y-26707762D01*
X69123001Y-26646964D01*
X69186713Y-26615638D01*
X69247866Y-26620200D01*
X69302318Y-26638261D01*
X69401238Y-26671072D01*
X69401240Y-26671072D01*
X69407769Y-26673238D01*
X69507928Y-26683500D01*
X70042072Y-26683500D01*
X70045318Y-26683163D01*
X70045322Y-26683163D01*
X70079103Y-26679658D01*
X70143482Y-26672978D01*
X70304349Y-26619308D01*
X70448555Y-26530071D01*
X70568364Y-26410053D01*
X70657349Y-26265692D01*
X70666045Y-26239476D01*
X70708572Y-26111262D01*
X70708572Y-26111260D01*
X70710738Y-26104731D01*
X70721000Y-26004572D01*
X70721000Y-25395428D01*
X70710478Y-25294018D01*
X70660007Y-25142738D01*
X70659125Y-25140095D01*
X70659124Y-25140093D01*
X70656808Y-25133151D01*
X70614854Y-25065354D01*
X70596000Y-24999054D01*
X70596000Y-24755743D01*
X70614224Y-24690472D01*
X70623000Y-24675981D01*
X70687972Y-24568699D01*
X70692801Y-24553292D01*
X70737252Y-24411446D01*
X70739253Y-24405062D01*
X70746000Y-24331635D01*
X70745999Y-23668366D01*
X70739253Y-23594938D01*
X70726589Y-23554528D01*
X70690244Y-23438550D01*
X70690243Y-23438548D01*
X70687972Y-23431301D01*
X70599139Y-23284619D01*
X70477881Y-23163361D01*
X70331199Y-23074528D01*
X70323952Y-23072257D01*
X70323950Y-23072256D01*
X70257664Y-23051483D01*
X70167562Y-23023247D01*
X70094135Y-23016500D01*
X70091237Y-23016500D01*
X69836835Y-23016501D01*
X69580866Y-23016501D01*
X69578008Y-23016764D01*
X69577999Y-23016764D01*
X69544119Y-23019877D01*
X69507438Y-23023247D01*
X69501060Y-23025246D01*
X69501059Y-23025246D01*
X69351050Y-23072256D01*
X69351048Y-23072257D01*
X69343801Y-23074528D01*
X69197119Y-23163361D01*
X69101241Y-23259239D01*
X69038929Y-23293265D01*
X68968114Y-23288200D01*
X68923051Y-23259239D01*
X68832943Y-23169131D01*
X68821074Y-23159824D01*
X68687488Y-23078921D01*
X68673743Y-23072715D01*
X68523856Y-23025744D01*
X68510806Y-23023131D01*
X68455914Y-23018087D01*
X68444376Y-23021475D01*
X68443171Y-23022865D01*
X68441500Y-23030548D01*
X68441500Y-24128000D01*
X68421498Y-24196121D01*
X68367842Y-24242614D01*
X68315500Y-24254000D01*
X67297616Y-24254000D01*
X67282377Y-24258475D01*
X67281172Y-24259865D01*
X67279501Y-24267548D01*
X67279501Y-24328705D01*
X67279764Y-24334454D01*
X67285632Y-24398315D01*
X67288243Y-24411351D01*
X67335215Y-24561243D01*
X67341421Y-24574988D01*
X67422324Y-24708574D01*
X67431631Y-24720443D01*
X67464739Y-24753551D01*
X67498765Y-24815863D01*
X67493700Y-24886678D01*
X67464817Y-24931663D01*
X67411811Y-24984762D01*
X67411807Y-24984767D01*
X67406636Y-24989947D01*
X67402796Y-24996177D01*
X67402795Y-24996178D01*
X67386814Y-25022105D01*
X67317651Y-25134308D01*
X67315346Y-25141256D01*
X67315346Y-25141257D01*
X67275384Y-25261739D01*
X67264262Y-25295269D01*
X67254000Y-25395428D01*
X67254000Y-26004572D01*
X63813969Y-26004572D01*
X63888888Y-25988647D01*
X63982288Y-25968794D01*
X64025210Y-25949684D01*
X64150722Y-25893803D01*
X64150724Y-25893802D01*
X64156752Y-25891118D01*
X64311253Y-25778866D01*
X64378736Y-25703919D01*
X64434621Y-25641852D01*
X64434622Y-25641851D01*
X64439040Y-25636944D01*
X64521001Y-25494984D01*
X64531223Y-25477279D01*
X64531224Y-25477278D01*
X64534527Y-25471556D01*
X64593542Y-25289928D01*
X64595622Y-25270143D01*
X64612814Y-25106565D01*
X64613504Y-25100000D01*
X64608174Y-25049289D01*
X64594232Y-24916635D01*
X64594232Y-24916633D01*
X64593542Y-24910072D01*
X64534527Y-24728444D01*
X64528798Y-24718520D01*
X64482144Y-24637715D01*
X64439040Y-24563056D01*
X64430249Y-24553292D01*
X64315675Y-24426045D01*
X64315674Y-24426044D01*
X64311253Y-24421134D01*
X64156752Y-24308882D01*
X64150724Y-24306198D01*
X64150722Y-24306197D01*
X63988319Y-24233891D01*
X63988318Y-24233891D01*
X63982288Y-24231206D01*
X63856732Y-24204518D01*
X63801944Y-24192872D01*
X63801939Y-24192872D01*
X63795487Y-24191500D01*
X63604513Y-24191500D01*
X63598061Y-24192872D01*
X63598056Y-24192872D01*
X63417712Y-24231206D01*
X63417430Y-24229879D01*
X63353700Y-24231703D01*
X63296706Y-24199014D01*
X63264136Y-24166500D01*
X63248303Y-24150695D01*
X63181773Y-24109685D01*
X63103968Y-24061725D01*
X63103966Y-24061724D01*
X63097738Y-24057885D01*
X62937254Y-24004655D01*
X62936389Y-24004368D01*
X62936387Y-24004368D01*
X62929861Y-24002203D01*
X62923025Y-24001503D01*
X62923022Y-24001502D01*
X62879969Y-23997091D01*
X62825400Y-23991500D01*
X61774600Y-23991500D01*
X61771354Y-23991837D01*
X61771350Y-23991837D01*
X61675692Y-24001762D01*
X61675688Y-24001763D01*
X61668834Y-24002474D01*
X61662298Y-24004655D01*
X61662296Y-24004655D01*
X61530194Y-24048728D01*
X61501054Y-24058450D01*
X61350652Y-24151522D01*
X61345479Y-24156704D01*
X61297748Y-24204518D01*
X61235465Y-24238597D01*
X61208575Y-24241500D01*
X60982550Y-24241500D01*
X60924842Y-24226736D01*
X60921705Y-24224385D01*
X60785316Y-24173255D01*
X60723134Y-24166500D01*
X59376866Y-24166500D01*
X59314684Y-24173255D01*
X59178295Y-24224385D01*
X59061739Y-24311739D01*
X58974385Y-24428295D01*
X58923255Y-24564684D01*
X58916500Y-24626866D01*
X58916500Y-25028124D01*
X58896498Y-25096245D01*
X58842842Y-25142738D01*
X58772568Y-25152842D01*
X58746273Y-25146107D01*
X58685316Y-25123255D01*
X58623134Y-25116500D01*
X57276866Y-25116500D01*
X57214684Y-25123255D01*
X57078295Y-25174385D01*
X56961739Y-25261739D01*
X56874385Y-25378295D01*
X56823255Y-25514684D01*
X56816500Y-25576866D01*
X56816500Y-26323134D01*
X56823255Y-26385316D01*
X56874385Y-26521705D01*
X56947940Y-26619849D01*
X56961739Y-26638261D01*
X56960135Y-26639463D01*
X56988621Y-26691630D01*
X56991500Y-26718413D01*
X56991500Y-28133607D01*
X56971498Y-28201728D01*
X56954673Y-28222625D01*
X56900695Y-28276697D01*
X56897898Y-28281235D01*
X56840647Y-28321824D01*
X56769724Y-28325054D01*
X56708313Y-28289428D01*
X56700938Y-28280932D01*
X56692902Y-28270793D01*
X56578171Y-28156261D01*
X56566760Y-28147249D01*
X56428757Y-28062184D01*
X56415576Y-28056037D01*
X56261290Y-28004862D01*
X56247914Y-28001995D01*
X56153562Y-27992328D01*
X56147145Y-27992000D01*
X56122115Y-27992000D01*
X56106876Y-27996475D01*
X56105671Y-27997865D01*
X56104000Y-28005548D01*
X56104000Y-30439884D01*
X55596777Y-30439884D01*
X55596000Y-30436467D01*
X55596000Y-29497115D01*
X55591525Y-29481876D01*
X55590135Y-29480671D01*
X55582452Y-29479000D01*
X54860116Y-29479000D01*
X54844877Y-29483475D01*
X54843672Y-29484865D01*
X54842001Y-29492548D01*
X54842001Y-29747095D01*
X54842338Y-29753614D01*
X54852257Y-29849206D01*
X54855149Y-29862600D01*
X54906588Y-30016784D01*
X54912761Y-30029962D01*
X54998063Y-30167807D01*
X55007099Y-30179208D01*
X55054300Y-30226327D01*
X55088379Y-30288610D01*
X55083376Y-30359430D01*
X55040879Y-30416303D01*
X54974380Y-30441171D01*
X54965282Y-30441500D01*
X54474600Y-30441500D01*
X54471354Y-30441837D01*
X54471350Y-30441837D01*
X54375692Y-30451762D01*
X54375688Y-30451763D01*
X54368834Y-30452474D01*
X54362298Y-30454655D01*
X54362296Y-30454655D01*
X54253493Y-30490955D01*
X54201054Y-30508450D01*
X54050652Y-30601522D01*
X53925695Y-30726697D01*
X53921855Y-30732927D01*
X53921854Y-30732928D01*
X53841943Y-30862568D01*
X53832885Y-30877262D01*
X53814450Y-30932842D01*
X53798753Y-30980167D01*
X53758322Y-31038527D01*
X53692758Y-31065764D01*
X53679160Y-31066500D01*
X53166371Y-31066500D01*
X53098250Y-31046498D01*
X53077275Y-31029595D01*
X52898935Y-30851254D01*
X52864910Y-30788942D01*
X52863335Y-30744079D01*
X52886352Y-30585336D01*
X52886352Y-30585333D01*
X52887213Y-30579396D01*
X52877433Y-30368101D01*
X52844053Y-30229595D01*
X52829281Y-30168299D01*
X52829280Y-30168297D01*
X52827875Y-30162466D01*
X52809735Y-30122568D01*
X52761637Y-30016784D01*
X52740326Y-29969913D01*
X52630629Y-29815269D01*
X52621412Y-29802275D01*
X52621411Y-29802274D01*
X52617946Y-29797389D01*
X52613623Y-29793251D01*
X52613619Y-29793246D01*
X52522309Y-29705836D01*
X52486933Y-29644280D01*
X52490452Y-29573371D01*
X52531749Y-29515621D01*
X52543137Y-29507674D01*
X52592807Y-29476937D01*
X52604208Y-29467901D01*
X52718739Y-29353171D01*
X52727751Y-29341760D01*
X52812816Y-29203757D01*
X52818963Y-29190576D01*
X52870138Y-29036290D01*
X52873005Y-29022914D01*
X52880180Y-28952885D01*
X54842000Y-28952885D01*
X54846475Y-28968124D01*
X54847865Y-28969329D01*
X54855548Y-28971000D01*
X55577885Y-28971000D01*
X55593124Y-28966525D01*
X55594329Y-28965135D01*
X55596000Y-28957452D01*
X55596000Y-28010116D01*
X55591525Y-27994877D01*
X55590135Y-27993672D01*
X55582452Y-27992001D01*
X55552905Y-27992001D01*
X55546386Y-27992338D01*
X55450794Y-28002257D01*
X55437400Y-28005149D01*
X55283216Y-28056588D01*
X55270038Y-28062761D01*
X55132193Y-28148063D01*
X55120792Y-28157099D01*
X55006261Y-28271829D01*
X54997249Y-28283240D01*
X54912184Y-28421243D01*
X54906037Y-28434424D01*
X54854862Y-28588710D01*
X54851995Y-28602086D01*
X54842328Y-28696438D01*
X54842000Y-28702855D01*
X54842000Y-28952885D01*
X52880180Y-28952885D01*
X52882672Y-28928562D01*
X52883000Y-28922146D01*
X52883000Y-28797115D01*
X52878525Y-28781876D01*
X52877135Y-28780671D01*
X52869452Y-28779000D01*
X50135116Y-28779000D01*
X50119877Y-28783475D01*
X50118672Y-28784865D01*
X50117001Y-28792548D01*
X50117001Y-28922095D01*
X50117338Y-28928614D01*
X50127257Y-29024206D01*
X50130149Y-29037600D01*
X50181588Y-29191784D01*
X50187761Y-29204962D01*
X50273063Y-29342807D01*
X50282099Y-29354208D01*
X50396829Y-29468739D01*
X50408240Y-29477751D01*
X50453655Y-29505745D01*
X50501148Y-29558517D01*
X50512572Y-29628589D01*
X50484298Y-29693713D01*
X50465375Y-29712088D01*
X50457080Y-29718604D01*
X50453148Y-29723135D01*
X50453145Y-29723138D01*
X50345919Y-29846705D01*
X50318448Y-29878363D01*
X50315448Y-29883549D01*
X50315445Y-29883553D01*
X50251099Y-29994780D01*
X50212527Y-30061454D01*
X50143139Y-30261271D01*
X50142278Y-30267206D01*
X50142278Y-30267208D01*
X50114615Y-30457999D01*
X50112787Y-30470604D01*
X46508500Y-30470604D01*
X46508500Y-28252885D01*
X50117000Y-28252885D01*
X50121475Y-28268124D01*
X50122865Y-28269329D01*
X50130548Y-28271000D01*
X51227885Y-28271000D01*
X51243124Y-28266525D01*
X51244329Y-28265135D01*
X51246000Y-28257452D01*
X51246000Y-28252885D01*
X51754000Y-28252885D01*
X51758475Y-28268124D01*
X51759865Y-28269329D01*
X51767548Y-28271000D01*
X52864884Y-28271000D01*
X52880123Y-28266525D01*
X52881328Y-28265135D01*
X52882999Y-28257452D01*
X52882999Y-28127905D01*
X52882662Y-28121386D01*
X52872743Y-28025794D01*
X52869851Y-28012400D01*
X52818412Y-27858216D01*
X52812239Y-27845038D01*
X52726937Y-27707193D01*
X52717901Y-27695792D01*
X52603171Y-27581261D01*
X52591760Y-27572249D01*
X52453757Y-27487184D01*
X52440576Y-27481037D01*
X52286290Y-27429862D01*
X52272914Y-27426995D01*
X52178562Y-27417328D01*
X52172145Y-27417000D01*
X51772115Y-27417000D01*
X51756876Y-27421475D01*
X51755671Y-27422865D01*
X51754000Y-27430548D01*
X51754000Y-28252885D01*
X51246000Y-28252885D01*
X51246000Y-27435116D01*
X51241525Y-27419877D01*
X51240135Y-27418672D01*
X51232452Y-27417001D01*
X50827905Y-27417001D01*
X50821386Y-27417338D01*
X50725794Y-27427257D01*
X50712400Y-27430149D01*
X50558216Y-27481588D01*
X50545038Y-27487761D01*
X50407193Y-27573063D01*
X50395792Y-27582099D01*
X50281261Y-27696829D01*
X50272249Y-27708240D01*
X50187184Y-27846243D01*
X50181037Y-27859424D01*
X50129862Y-28013710D01*
X50126995Y-28027086D01*
X50117328Y-28121438D01*
X50117000Y-28127855D01*
X50117000Y-28252885D01*
X46508500Y-28252885D01*
X46508500Y-26053250D01*
X46510246Y-26032345D01*
X46512770Y-26017344D01*
X46512770Y-26017341D01*
X46513576Y-26012552D01*
X46513729Y-26000000D01*
X46513040Y-25995185D01*
X46513039Y-25995177D01*
X46511550Y-25984781D01*
X46510429Y-25960735D01*
X46511336Y-25942285D01*
X46525010Y-25663949D01*
X46526221Y-25651650D01*
X46527675Y-25641852D01*
X46574680Y-25324966D01*
X46577091Y-25312841D01*
X46582831Y-25289928D01*
X46621812Y-25134308D01*
X46657339Y-24992477D01*
X46660928Y-24980645D01*
X46772190Y-24669689D01*
X46776922Y-24658265D01*
X46865260Y-24471489D01*
X49911227Y-24471489D01*
X49911605Y-24477255D01*
X49913096Y-24499999D01*
X49913096Y-24500000D01*
X49917336Y-24564684D01*
X49924263Y-24670380D01*
X49925684Y-24675976D01*
X49925685Y-24675981D01*
X49952279Y-24780692D01*
X49973326Y-24863564D01*
X49975743Y-24868807D01*
X50040780Y-25009884D01*
X50056772Y-25044573D01*
X50060105Y-25049289D01*
X50114978Y-25126932D01*
X50171807Y-25207344D01*
X50314578Y-25346425D01*
X50480304Y-25457160D01*
X50485607Y-25459438D01*
X50485610Y-25459440D01*
X50658128Y-25533559D01*
X50663435Y-25535839D01*
X50732647Y-25551500D01*
X50852201Y-25578553D01*
X50852207Y-25578554D01*
X50857838Y-25579828D01*
X50863609Y-25580055D01*
X50863611Y-25580055D01*
X50924556Y-25582449D01*
X51057001Y-25587653D01*
X51156959Y-25573160D01*
X51248535Y-25559883D01*
X51248540Y-25559882D01*
X51254256Y-25559053D01*
X51259728Y-25557195D01*
X51259730Y-25557195D01*
X51437532Y-25496839D01*
X51437534Y-25496838D01*
X51442996Y-25494984D01*
X51616899Y-25397594D01*
X51770143Y-25270143D01*
X51897594Y-25116899D01*
X51994984Y-24942996D01*
X52003933Y-24916635D01*
X52057195Y-24759730D01*
X52057195Y-24759728D01*
X52059053Y-24754256D01*
X52059882Y-24748540D01*
X52059883Y-24748535D01*
X52086039Y-24568134D01*
X52087653Y-24557001D01*
X52089146Y-24500000D01*
X52070908Y-24301519D01*
X52059161Y-24259865D01*
X52018373Y-24115244D01*
X52018372Y-24115242D01*
X52016805Y-24109685D01*
X52008484Y-24092810D01*
X51931205Y-23936104D01*
X51928650Y-23930923D01*
X51809393Y-23771219D01*
X51762515Y-23727885D01*
X67279500Y-23727885D01*
X67283975Y-23743124D01*
X67285365Y-23744329D01*
X67293048Y-23746000D01*
X67915385Y-23746000D01*
X67930624Y-23741525D01*
X67931829Y-23740135D01*
X67933500Y-23732452D01*
X67933500Y-23035116D01*
X67929025Y-23019877D01*
X67927635Y-23018672D01*
X67923206Y-23017709D01*
X67864185Y-23023132D01*
X67851149Y-23025743D01*
X67701257Y-23072715D01*
X67687512Y-23078921D01*
X67553926Y-23159824D01*
X67542057Y-23169131D01*
X67431631Y-23279557D01*
X67422324Y-23291426D01*
X67341421Y-23425012D01*
X67335215Y-23438757D01*
X67288244Y-23588644D01*
X67285631Y-23601694D01*
X67279766Y-23665521D01*
X67279500Y-23671309D01*
X67279500Y-23727885D01*
X51762515Y-23727885D01*
X51663030Y-23635922D01*
X51658147Y-23632841D01*
X51658143Y-23632838D01*
X51499346Y-23532645D01*
X51499341Y-23532643D01*
X51494462Y-23529564D01*
X51309334Y-23455705D01*
X51113847Y-23416820D01*
X51108072Y-23416744D01*
X51108068Y-23416744D01*
X51008588Y-23415442D01*
X50914547Y-23414211D01*
X50908850Y-23415190D01*
X50908849Y-23415190D01*
X50771700Y-23438757D01*
X50718108Y-23447966D01*
X50531111Y-23516953D01*
X50526149Y-23519905D01*
X50467953Y-23554528D01*
X50359816Y-23618862D01*
X50209961Y-23750281D01*
X50086565Y-23906809D01*
X50083876Y-23911920D01*
X50083874Y-23911923D01*
X50036608Y-24001762D01*
X49993760Y-24083202D01*
X49973743Y-24147668D01*
X49936519Y-24267548D01*
X49934654Y-24273554D01*
X49911227Y-24471489D01*
X46865260Y-24471489D01*
X46918126Y-24359712D01*
X46923955Y-24348807D01*
X46941870Y-24318919D01*
X47027515Y-24176029D01*
X47093744Y-24065533D01*
X47100614Y-24055252D01*
X47196254Y-23926296D01*
X47297350Y-23789983D01*
X47305177Y-23780444D01*
X47526985Y-23535718D01*
X47535718Y-23526985D01*
X47780444Y-23305177D01*
X47789983Y-23297350D01*
X48055252Y-23100614D01*
X48065533Y-23093744D01*
X48207899Y-23008412D01*
X48348812Y-22923953D01*
X48359708Y-22918128D01*
X48590500Y-22808972D01*
X48658265Y-22776922D01*
X48669689Y-22772190D01*
X48980645Y-22660928D01*
X48992477Y-22657339D01*
X49218804Y-22600646D01*
X49312844Y-22577090D01*
X49324966Y-22574680D01*
X49651655Y-22526221D01*
X49663949Y-22525010D01*
X49957039Y-22510610D01*
X49982598Y-22511958D01*
X49993724Y-22513691D01*
X50025286Y-22509564D01*
X50041621Y-22508500D01*
X86950633Y-22508500D01*
X86970018Y-22510000D01*
G37*
%TD.AperFunction*%
%TA.AperFunction,Conductor*%
G36*
X69412848Y-53473174D02*
G01*
X69469683Y-53515721D01*
X69494494Y-53582241D01*
X69494815Y-53591230D01*
X69494815Y-53826424D01*
X69474813Y-53894545D01*
X69457910Y-53915519D01*
X69410334Y-53963095D01*
X69348022Y-53997121D01*
X69321239Y-54000000D01*
X69086044Y-54000000D01*
X69017923Y-53979998D01*
X68971430Y-53926342D01*
X68961326Y-53856068D01*
X68990820Y-53791488D01*
X68996949Y-53784904D01*
X69113117Y-53668737D01*
X69279719Y-53502134D01*
X69342032Y-53468109D01*
X69412848Y-53473174D01*
G37*
%TD.AperFunction*%
%TA.AperFunction,Conductor*%
G36*
X67672767Y-52227304D02*
G01*
X67704300Y-52244534D01*
X67771351Y-52294786D01*
X67786946Y-52303324D01*
X67907394Y-52348478D01*
X67922649Y-52352105D01*
X67973514Y-52357631D01*
X67980327Y-52358000D01*
X68266522Y-52357999D01*
X68334642Y-52378001D01*
X68381135Y-52431656D01*
X68391240Y-52501930D01*
X68361747Y-52566511D01*
X68355617Y-52573094D01*
X68243213Y-52685498D01*
X68180901Y-52719524D01*
X68127922Y-52719650D01*
X68101776Y-52714092D01*
X68001944Y-52692872D01*
X68001939Y-52692872D01*
X67995487Y-52691500D01*
X67804513Y-52691500D01*
X67798061Y-52692872D01*
X67798056Y-52692872D01*
X67711113Y-52711353D01*
X67617712Y-52731206D01*
X67611682Y-52733891D01*
X67611681Y-52733891D01*
X67449278Y-52806197D01*
X67449276Y-52806198D01*
X67443248Y-52808882D01*
X67288747Y-52921134D01*
X67284326Y-52926044D01*
X67284325Y-52926045D01*
X67219636Y-52997890D01*
X67159191Y-53035130D01*
X67088207Y-53033778D01*
X67029222Y-52994265D01*
X67000964Y-52929134D01*
X67000000Y-52913580D01*
X67000000Y-52733424D01*
X67020002Y-52665303D01*
X67079617Y-52616272D01*
X67089912Y-52612196D01*
X67101142Y-52608351D01*
X67135983Y-52598229D01*
X67135984Y-52598229D01*
X67143593Y-52596018D01*
X67150412Y-52591985D01*
X67150417Y-52591983D01*
X67161028Y-52585707D01*
X67178776Y-52577012D01*
X67197617Y-52569552D01*
X67233387Y-52543564D01*
X67243307Y-52537048D01*
X67274535Y-52518580D01*
X67274538Y-52518578D01*
X67281362Y-52514542D01*
X67295683Y-52500221D01*
X67310717Y-52487380D01*
X67320694Y-52480131D01*
X67327107Y-52475472D01*
X67332158Y-52469367D01*
X67332163Y-52469362D01*
X67355299Y-52441396D01*
X67363287Y-52432618D01*
X67539640Y-52256265D01*
X67601952Y-52222239D01*
X67672767Y-52227304D01*
G37*
%TD.AperFunction*%
%TA.AperFunction,Conductor*%
G36*
X74759121Y-49353502D02*
G01*
X74805614Y-49407158D01*
X74817000Y-49459500D01*
X74817000Y-49545438D01*
X74817337Y-49551953D01*
X74826894Y-49644057D01*
X74829789Y-49657459D01*
X74878780Y-49804308D01*
X74881364Y-49875257D01*
X74845180Y-49936341D01*
X74781715Y-49968165D01*
X74772262Y-49969510D01*
X74760895Y-49970689D01*
X74705838Y-49976401D01*
X74705833Y-49976402D01*
X74698981Y-49977113D01*
X74692440Y-49979295D01*
X74692441Y-49979295D01*
X74543676Y-50028927D01*
X74543674Y-50028928D01*
X74536732Y-50031244D01*
X74530508Y-50035096D01*
X74530507Y-50035096D01*
X74471946Y-50071335D01*
X74403494Y-50090173D01*
X74335725Y-50069012D01*
X74290153Y-50014571D01*
X74280379Y-49977794D01*
X74278838Y-49963604D01*
X74278839Y-49936394D01*
X74282631Y-49901488D01*
X74283000Y-49894671D01*
X74283000Y-49868115D01*
X74278525Y-49852876D01*
X74277135Y-49851671D01*
X74269452Y-49850000D01*
X73518115Y-49850000D01*
X73502876Y-49854475D01*
X73501671Y-49855865D01*
X73500000Y-49863548D01*
X73500000Y-50915500D01*
X73479998Y-50983621D01*
X73426342Y-51030114D01*
X73374000Y-51041500D01*
X73326000Y-51041500D01*
X73257879Y-51021498D01*
X73211386Y-50967842D01*
X73200000Y-50915500D01*
X73200000Y-49484500D01*
X73220002Y-49416379D01*
X73273658Y-49369886D01*
X73326000Y-49358500D01*
X73374000Y-49358500D01*
X73442121Y-49378502D01*
X73488614Y-49432158D01*
X73500000Y-49484500D01*
X73500000Y-49531885D01*
X73504475Y-49547124D01*
X73505865Y-49548329D01*
X73513548Y-49550000D01*
X74264884Y-49550000D01*
X74280123Y-49545525D01*
X74281328Y-49544135D01*
X74282999Y-49536452D01*
X74282999Y-49505331D01*
X74282630Y-49498512D01*
X74279870Y-49473106D01*
X74292399Y-49403224D01*
X74340720Y-49351209D01*
X74405133Y-49333500D01*
X74691000Y-49333500D01*
X74759121Y-49353502D01*
G37*
%TD.AperFunction*%
%TA.AperFunction,Conductor*%
G36*
X61509532Y-42590538D02*
G01*
X61566368Y-42633085D01*
X61591179Y-42699605D01*
X61591500Y-42708594D01*
X61591500Y-42863244D01*
X61606519Y-42977324D01*
X61609678Y-42984951D01*
X61609679Y-42984954D01*
X61633563Y-43042614D01*
X61665314Y-43119268D01*
X61758843Y-43241157D01*
X61765393Y-43246183D01*
X61765394Y-43246184D01*
X61790901Y-43265756D01*
X61880733Y-43334686D01*
X61965846Y-43369941D01*
X62015049Y-43390322D01*
X62015051Y-43390322D01*
X62022676Y-43393481D01*
X62025320Y-43393829D01*
X62083732Y-43429430D01*
X62114755Y-43493290D01*
X62116500Y-43514188D01*
X62116500Y-47071233D01*
X62115973Y-47082416D01*
X62114298Y-47089909D01*
X62114547Y-47097835D01*
X62114547Y-47097836D01*
X62116438Y-47157986D01*
X62116500Y-47161945D01*
X62116500Y-47189856D01*
X62116997Y-47193790D01*
X62116997Y-47193791D01*
X62117005Y-47193856D01*
X62117938Y-47205693D01*
X62119327Y-47249889D01*
X62123426Y-47263998D01*
X62124978Y-47269339D01*
X62128987Y-47288700D01*
X62131526Y-47308797D01*
X62134445Y-47316168D01*
X62134445Y-47316170D01*
X62147804Y-47349912D01*
X62151649Y-47361142D01*
X62163982Y-47403593D01*
X62168015Y-47410412D01*
X62168017Y-47410417D01*
X62174293Y-47421028D01*
X62182988Y-47438776D01*
X62190448Y-47457617D01*
X62195110Y-47464033D01*
X62195110Y-47464034D01*
X62216436Y-47493387D01*
X62222952Y-47503307D01*
X62245458Y-47541362D01*
X62259779Y-47555683D01*
X62272619Y-47570716D01*
X62284528Y-47587107D01*
X62318605Y-47615298D01*
X62327384Y-47623288D01*
X62489001Y-47784905D01*
X62523027Y-47847217D01*
X62517962Y-47918032D01*
X62475415Y-47974868D01*
X62408895Y-47999679D01*
X62399906Y-48000000D01*
X60700105Y-48000000D01*
X60631984Y-47979998D01*
X60585491Y-47926342D01*
X60575387Y-47856068D01*
X60604881Y-47791488D01*
X60635966Y-47765546D01*
X60763499Y-47690124D01*
X60775926Y-47680484D01*
X60880484Y-47575926D01*
X60890124Y-47563499D01*
X60965396Y-47436220D01*
X60971643Y-47421784D01*
X61006619Y-47301395D01*
X61006579Y-47287295D01*
X60999309Y-47284000D01*
X60072000Y-47284000D01*
X60003879Y-47263998D01*
X59957386Y-47210342D01*
X59946000Y-47158000D01*
X59946000Y-46984500D01*
X59966002Y-46916379D01*
X60019658Y-46869886D01*
X60072000Y-46858500D01*
X60435484Y-46858500D01*
X60437932Y-46858307D01*
X60437940Y-46858307D01*
X60465844Y-46856111D01*
X60465849Y-46856110D01*
X60472254Y-46855606D01*
X60571005Y-46826916D01*
X60621984Y-46812106D01*
X60621986Y-46812105D01*
X60629597Y-46809894D01*
X60657240Y-46793546D01*
X60721379Y-46776000D01*
X60993558Y-46776000D01*
X61007089Y-46772027D01*
X61008224Y-46764129D01*
X60971643Y-46638216D01*
X60965395Y-46623778D01*
X60959984Y-46614628D01*
X60942526Y-46545812D01*
X60959985Y-46486353D01*
X60965857Y-46476423D01*
X60969894Y-46469597D01*
X61015606Y-46312254D01*
X61018500Y-46275484D01*
X61018500Y-45864516D01*
X61018000Y-45858163D01*
X61016111Y-45834156D01*
X61016110Y-45834151D01*
X61015606Y-45827746D01*
X60978694Y-45700693D01*
X60972106Y-45678016D01*
X60972105Y-45678014D01*
X60969894Y-45670403D01*
X60945914Y-45629854D01*
X60890522Y-45536192D01*
X60886488Y-45529371D01*
X60870405Y-45513288D01*
X60836379Y-45450976D01*
X60833500Y-45424193D01*
X60833500Y-43214594D01*
X60853502Y-43146473D01*
X60870405Y-43125499D01*
X61376405Y-42619499D01*
X61438717Y-42585473D01*
X61509532Y-42590538D01*
G37*
%TD.AperFunction*%
%TA.AperFunction,Conductor*%
G36*
X66564131Y-46008095D02*
G01*
X66615433Y-46039198D01*
X67929290Y-47353055D01*
X67963316Y-47415367D01*
X67958251Y-47486182D01*
X67915704Y-47543018D01*
X67884425Y-47560132D01*
X67786946Y-47596676D01*
X67771352Y-47605213D01*
X67719148Y-47644338D01*
X67652642Y-47669185D01*
X67583259Y-47654132D01*
X67554489Y-47632606D01*
X66293648Y-46371765D01*
X66259622Y-46309453D01*
X66264687Y-46238638D01*
X66302516Y-46188849D01*
X66301002Y-46187167D01*
X66305909Y-46182749D01*
X66311253Y-46178866D01*
X66432702Y-46043983D01*
X66493148Y-46006743D01*
X66564131Y-46008095D01*
G37*
%TD.AperFunction*%
%TA.AperFunction,Conductor*%
G36*
X68663240Y-42748502D02*
G01*
X68682588Y-42767795D01*
X68700691Y-42776000D01*
X68978621Y-42776000D01*
X69042760Y-42793546D01*
X69070403Y-42809894D01*
X69078014Y-42812105D01*
X69078016Y-42812106D01*
X69128995Y-42826916D01*
X69227746Y-42855606D01*
X69234151Y-42856110D01*
X69234156Y-42856111D01*
X69262060Y-42858307D01*
X69262068Y-42858307D01*
X69264516Y-42858500D01*
X69628000Y-42858500D01*
X69696121Y-42878502D01*
X69742614Y-42932158D01*
X69754000Y-42984500D01*
X69754000Y-43158000D01*
X69733998Y-43226121D01*
X69680342Y-43272614D01*
X69628000Y-43284000D01*
X68706442Y-43284000D01*
X68692911Y-43287973D01*
X68691776Y-43295871D01*
X68728357Y-43421784D01*
X68734604Y-43436220D01*
X68809876Y-43563499D01*
X68819516Y-43575926D01*
X68924074Y-43680484D01*
X68936501Y-43690124D01*
X69063780Y-43765396D01*
X69078220Y-43771644D01*
X69103447Y-43778974D01*
X69163282Y-43817187D01*
X69192958Y-43881684D01*
X69183054Y-43951986D01*
X69175552Y-43966087D01*
X69134994Y-44031884D01*
X69128849Y-44045061D01*
X69079509Y-44193814D01*
X69076642Y-44207190D01*
X69067328Y-44298097D01*
X69067000Y-44304514D01*
X69067000Y-44327885D01*
X69071475Y-44343124D01*
X69072865Y-44344329D01*
X69080548Y-44346000D01*
X70153000Y-44346000D01*
X70221121Y-44366002D01*
X70267614Y-44419658D01*
X70279000Y-44472000D01*
X70279000Y-44728000D01*
X70258998Y-44796121D01*
X70205342Y-44842614D01*
X70153000Y-44854000D01*
X69085114Y-44854000D01*
X69052323Y-44863628D01*
X68981327Y-44863628D01*
X68927731Y-44831827D01*
X68358961Y-44263056D01*
X67719500Y-43623595D01*
X67685474Y-43561283D01*
X67690539Y-43490467D01*
X67733086Y-43433632D01*
X67799606Y-43408821D01*
X67808595Y-43408500D01*
X67863244Y-43408500D01*
X67867330Y-43407962D01*
X67867331Y-43407962D01*
X67906153Y-43402851D01*
X67977324Y-43393481D01*
X67984951Y-43390322D01*
X67984954Y-43390321D01*
X68048296Y-43364083D01*
X68119268Y-43334686D01*
X68241157Y-43241157D01*
X68246186Y-43234604D01*
X68329659Y-43125818D01*
X68334686Y-43119267D01*
X68393481Y-42977324D01*
X68408500Y-42863244D01*
X68408500Y-42854500D01*
X68428502Y-42786379D01*
X68482158Y-42739886D01*
X68534500Y-42728500D01*
X68595119Y-42728500D01*
X68663240Y-42748502D01*
G37*
%TD.AperFunction*%
%TA.AperFunction,Conductor*%
G36*
X70595487Y-43010692D02*
G01*
X70655303Y-43021631D01*
X70707150Y-43070132D01*
X70724545Y-43138965D01*
X70718469Y-43173104D01*
X70708498Y-43203791D01*
X70708496Y-43203798D01*
X70706458Y-43210072D01*
X70705768Y-43216633D01*
X70705768Y-43216635D01*
X70702662Y-43246185D01*
X70686496Y-43400000D01*
X70687186Y-43406565D01*
X70701197Y-43539877D01*
X70688425Y-43609715D01*
X70639922Y-43661562D01*
X70571089Y-43678956D01*
X70536219Y-43672640D01*
X70406186Y-43629509D01*
X70392810Y-43626642D01*
X70362301Y-43623516D01*
X70296574Y-43596675D01*
X70255792Y-43538560D01*
X70252903Y-43467623D01*
X70262721Y-43443702D01*
X70262247Y-43443497D01*
X70271643Y-43421784D01*
X70313312Y-43278359D01*
X70315614Y-43265756D01*
X70317807Y-43237898D01*
X70318000Y-43232969D01*
X70318000Y-43134500D01*
X70338002Y-43066379D01*
X70391658Y-43019886D01*
X70444000Y-43008500D01*
X70595487Y-43008500D01*
X70595487Y-43010692D01*
G37*
%TD.AperFunction*%
%TA.AperFunction,Conductor*%
G36*
X63076121Y-31966002D02*
G01*
X63122614Y-32019658D01*
X63134000Y-32072000D01*
X63134000Y-32470342D01*
X63113998Y-32538463D01*
X63060342Y-32584956D01*
X62990068Y-32595060D01*
X62925488Y-32565566D01*
X62887104Y-32505840D01*
X62883714Y-32491056D01*
X62883713Y-32491050D01*
X62882061Y-32474292D01*
X62881623Y-32460333D01*
X62880673Y-32430110D01*
X62875022Y-32410658D01*
X62871014Y-32391306D01*
X62869468Y-32379068D01*
X62869467Y-32379066D01*
X62868474Y-32371203D01*
X62852194Y-32330086D01*
X62848359Y-32318885D01*
X62836018Y-32276406D01*
X62831985Y-32269587D01*
X62831983Y-32269582D01*
X62825707Y-32258971D01*
X62817010Y-32241221D01*
X62809552Y-32222383D01*
X62803220Y-32213667D01*
X62787104Y-32191486D01*
X62783571Y-32186623D01*
X62777053Y-32176701D01*
X62754542Y-32138636D01*
X62756815Y-32137292D01*
X62735552Y-32083152D01*
X62749447Y-32013528D01*
X62798777Y-31962469D01*
X62861058Y-31946000D01*
X63008000Y-31946000D01*
X63076121Y-31966002D01*
G37*
%TD.AperFunction*%
%TA.AperFunction,Conductor*%
G36*
X64457191Y-31203279D02*
G01*
X64484259Y-31234767D01*
X64527269Y-31305786D01*
X64545448Y-31374416D01*
X64523637Y-31441979D01*
X64508588Y-31460152D01*
X63883095Y-32085645D01*
X63820783Y-32119671D01*
X63749968Y-32114606D01*
X63693132Y-32072059D01*
X63668321Y-32005539D01*
X63668000Y-31996550D01*
X63668000Y-31967031D01*
X63667807Y-31962102D01*
X63665614Y-31934244D01*
X63663312Y-31921640D01*
X63623628Y-31785048D01*
X63623831Y-31714052D01*
X63662385Y-31654436D01*
X63731621Y-31624568D01*
X63749206Y-31622743D01*
X63762600Y-31619851D01*
X63916784Y-31568412D01*
X63929962Y-31562239D01*
X64067807Y-31476937D01*
X64079208Y-31467901D01*
X64193739Y-31353171D01*
X64202751Y-31341760D01*
X64269223Y-31233922D01*
X64321995Y-31186429D01*
X64392067Y-31175005D01*
X64457191Y-31203279D01*
G37*
%TD.AperFunction*%
%TD*%
M02*
