%TF.GenerationSoftware,KiCad,Pcbnew,(6.0.4)*%
%TF.CreationDate,2022-08-25T17:00:53-03:00*%
%TF.ProjectId,rf-system-transmitter,72662d73-7973-4746-956d-2d7472616e73,rev?*%
%TF.SameCoordinates,Original*%
%TF.FileFunction,Paste,Top*%
%TF.FilePolarity,Positive*%
%FSLAX46Y46*%
G04 Gerber Fmt 4.6, Leading zero omitted, Abs format (unit mm)*
G04 Created by KiCad (PCBNEW (6.0.4)) date 2022-08-25 17:00:53*
%MOMM*%
%LPD*%
G01*
G04 APERTURE LIST*
G04 Aperture macros list*
%AMRoundRect*
0 Rectangle with rounded corners*
0 $1 Rounding radius*
0 $2 $3 $4 $5 $6 $7 $8 $9 X,Y pos of 4 corners*
0 Add a 4 corners polygon primitive as box body*
4,1,4,$2,$3,$4,$5,$6,$7,$8,$9,$2,$3,0*
0 Add four circle primitives for the rounded corners*
1,1,$1+$1,$2,$3*
1,1,$1+$1,$4,$5*
1,1,$1+$1,$6,$7*
1,1,$1+$1,$8,$9*
0 Add four rect primitives between the rounded corners*
20,1,$1+$1,$2,$3,$4,$5,0*
20,1,$1+$1,$4,$5,$6,$7,0*
20,1,$1+$1,$6,$7,$8,$9,0*
20,1,$1+$1,$8,$9,$2,$3,0*%
G04 Aperture macros list end*
%ADD10RoundRect,0.218750X-0.218750X-0.381250X0.218750X-0.381250X0.218750X0.381250X-0.218750X0.381250X0*%
%ADD11RoundRect,0.225000X-0.250000X0.225000X-0.250000X-0.225000X0.250000X-0.225000X0.250000X0.225000X0*%
%ADD12R,1.200000X1.400000*%
%ADD13RoundRect,0.140000X-0.170000X0.140000X-0.170000X-0.140000X0.170000X-0.140000X0.170000X0.140000X0*%
%ADD14RoundRect,0.225000X0.250000X-0.225000X0.250000X0.225000X-0.250000X0.225000X-0.250000X-0.225000X0*%
%ADD15RoundRect,0.250000X0.250000X0.475000X-0.250000X0.475000X-0.250000X-0.475000X0.250000X-0.475000X0*%
%ADD16RoundRect,0.200000X0.200000X0.275000X-0.200000X0.275000X-0.200000X-0.275000X0.200000X-0.275000X0*%
%ADD17RoundRect,0.140000X0.140000X0.170000X-0.140000X0.170000X-0.140000X-0.170000X0.140000X-0.170000X0*%
%ADD18RoundRect,0.218750X0.218750X0.256250X-0.218750X0.256250X-0.218750X-0.256250X0.218750X-0.256250X0*%
%ADD19RoundRect,0.200000X-0.200000X-0.275000X0.200000X-0.275000X0.200000X0.275000X-0.200000X0.275000X0*%
%ADD20RoundRect,0.200000X0.275000X-0.200000X0.275000X0.200000X-0.275000X0.200000X-0.275000X-0.200000X0*%
%ADD21RoundRect,0.140000X-0.140000X-0.170000X0.140000X-0.170000X0.140000X0.170000X-0.140000X0.170000X0*%
%ADD22RoundRect,0.218750X0.256250X-0.218750X0.256250X0.218750X-0.256250X0.218750X-0.256250X-0.218750X0*%
%ADD23RoundRect,0.135000X0.185000X-0.135000X0.185000X0.135000X-0.185000X0.135000X-0.185000X-0.135000X0*%
%ADD24R,0.300000X0.850000*%
%ADD25R,0.850000X0.300000*%
%ADD26R,3.400000X3.400000*%
%ADD27RoundRect,0.135000X-0.135000X-0.185000X0.135000X-0.185000X0.135000X0.185000X-0.135000X0.185000X0*%
%ADD28RoundRect,0.250000X-0.250000X-0.475000X0.250000X-0.475000X0.250000X0.475000X-0.250000X0.475000X0*%
%ADD29RoundRect,0.218750X-0.256250X0.218750X-0.256250X-0.218750X0.256250X-0.218750X0.256250X0.218750X0*%
%ADD30RoundRect,0.250000X-0.475000X0.250000X-0.475000X-0.250000X0.475000X-0.250000X0.475000X0.250000X0*%
%ADD31R,1.250000X0.650000*%
%ADD32RoundRect,0.075000X-0.662500X-0.075000X0.662500X-0.075000X0.662500X0.075000X-0.662500X0.075000X0*%
%ADD33RoundRect,0.075000X-0.075000X-0.662500X0.075000X-0.662500X0.075000X0.662500X-0.075000X0.662500X0*%
%ADD34RoundRect,0.225000X0.225000X0.250000X-0.225000X0.250000X-0.225000X-0.250000X0.225000X-0.250000X0*%
%ADD35R,3.150000X1.000000*%
%ADD36RoundRect,0.225000X-0.225000X-0.250000X0.225000X-0.250000X0.225000X0.250000X-0.225000X0.250000X0*%
%ADD37RoundRect,0.250000X-0.375000X-0.625000X0.375000X-0.625000X0.375000X0.625000X-0.375000X0.625000X0*%
G04 APERTURE END LIST*
D10*
%TO.C,FB1*%
X56537500Y-44750000D03*
X58662500Y-44750000D03*
%TD*%
D11*
%TO.C,C12*%
X68400000Y-59725000D03*
X68400000Y-61275000D03*
%TD*%
D12*
%TO.C,X1*%
X61950000Y-50600000D03*
X61950000Y-52800000D03*
X63650000Y-52800000D03*
X63650000Y-50600000D03*
%TD*%
D13*
%TO.C,C16*%
X70800000Y-34520000D03*
X70800000Y-35480000D03*
%TD*%
D14*
%TO.C,C10*%
X73300000Y-58075000D03*
X73300000Y-56525000D03*
%TD*%
D15*
%TO.C,C2*%
X57750000Y-29225000D03*
X55850000Y-29225000D03*
%TD*%
D16*
%TO.C,R3*%
X69837500Y-24000000D03*
X68187500Y-24000000D03*
%TD*%
D15*
%TO.C,C21*%
X58600000Y-42800000D03*
X56700000Y-42800000D03*
%TD*%
D17*
%TO.C,C20*%
X56180000Y-40100000D03*
X55220000Y-40100000D03*
%TD*%
D18*
%TO.C,D1*%
X69775000Y-25700000D03*
X68200000Y-25700000D03*
%TD*%
D19*
%TO.C,R6*%
X69375000Y-33100000D03*
X71025000Y-33100000D03*
%TD*%
D11*
%TO.C,C6*%
X76900000Y-50925000D03*
X76900000Y-52475000D03*
%TD*%
D14*
%TO.C,C3*%
X75800000Y-49275000D03*
X75800000Y-47725000D03*
%TD*%
D20*
%TO.C,R4*%
X65400000Y-30725000D03*
X65400000Y-29075000D03*
%TD*%
D21*
%TO.C,C15*%
X61920000Y-32200000D03*
X62880000Y-32200000D03*
%TD*%
D17*
%TO.C,C17*%
X60680000Y-34200000D03*
X59720000Y-34200000D03*
%TD*%
D22*
%TO.C,L3*%
X70100000Y-61287500D03*
X70100000Y-59712500D03*
%TD*%
D12*
%TO.C,X2*%
X54650000Y-36200000D03*
X54650000Y-38400000D03*
X56350000Y-38400000D03*
X56350000Y-36200000D03*
%TD*%
D23*
%TO.C,R1*%
X66300000Y-52010000D03*
X66300000Y-50990000D03*
%TD*%
D18*
%TO.C,L1*%
X71687500Y-56500000D03*
X70112500Y-56500000D03*
%TD*%
D11*
%TO.C,C9*%
X75100000Y-50925000D03*
X75100000Y-52475000D03*
%TD*%
D24*
%TO.C,IC1*%
X72650000Y-47500000D03*
X72150000Y-47500000D03*
X71650000Y-47500000D03*
X71150000Y-47500000D03*
X70650000Y-47500000D03*
X70150000Y-47500000D03*
X69650000Y-47500000D03*
X69150000Y-47500000D03*
D25*
X68450000Y-48200000D03*
X68450000Y-48700000D03*
X68450000Y-49200000D03*
X68450000Y-49700000D03*
X68450000Y-50200000D03*
X68450000Y-50700000D03*
X68450000Y-51200000D03*
X68450000Y-51700000D03*
D24*
X69150000Y-52400000D03*
X69650000Y-52400000D03*
X70150000Y-52400000D03*
X70650000Y-52400000D03*
X71150000Y-52400000D03*
X71650000Y-52400000D03*
X72150000Y-52400000D03*
X72650000Y-52400000D03*
D25*
X73350000Y-51700000D03*
X73350000Y-51200000D03*
X73350000Y-50700000D03*
X73350000Y-50200000D03*
X73350000Y-49700000D03*
X73350000Y-49200000D03*
X73350000Y-48700000D03*
X73350000Y-48200000D03*
D26*
X70900000Y-49950000D03*
%TD*%
D19*
%TO.C,R7*%
X75675000Y-37800000D03*
X77325000Y-37800000D03*
%TD*%
D27*
%TO.C,R5*%
X57990000Y-38200000D03*
X59010000Y-38200000D03*
%TD*%
D28*
%TO.C,C14*%
X61450000Y-30400000D03*
X63350000Y-30400000D03*
%TD*%
D16*
%TO.C,R2*%
X76825000Y-54500000D03*
X75175000Y-54500000D03*
%TD*%
D11*
%TO.C,C13*%
X73400000Y-59725000D03*
X73400000Y-61275000D03*
%TD*%
D29*
%TO.C,L2*%
X71700000Y-59712500D03*
X71700000Y-61287500D03*
%TD*%
D30*
%TO.C,C8*%
X62300000Y-25000000D03*
X62300000Y-26900000D03*
%TD*%
D31*
%TO.C,IC2*%
X60050000Y-26900000D03*
X60050000Y-25000000D03*
X57950000Y-25950000D03*
%TD*%
D21*
%TO.C,C4*%
X62020000Y-48900000D03*
X62980000Y-48900000D03*
%TD*%
D32*
%TO.C,U1*%
X60837500Y-35250000D03*
X60837500Y-35750000D03*
X60837500Y-36250000D03*
X60837500Y-36750000D03*
X60837500Y-37250000D03*
X60837500Y-37750000D03*
X60837500Y-38250000D03*
X60837500Y-38750000D03*
X60837500Y-39250000D03*
X60837500Y-39750000D03*
X60837500Y-40250000D03*
X60837500Y-40750000D03*
D33*
X62250000Y-42162500D03*
X62750000Y-42162500D03*
X63250000Y-42162500D03*
X63750000Y-42162500D03*
X64250000Y-42162500D03*
X64750000Y-42162500D03*
X65250000Y-42162500D03*
X65750000Y-42162500D03*
X66250000Y-42162500D03*
X66750000Y-42162500D03*
X67250000Y-42162500D03*
X67750000Y-42162500D03*
D32*
X69162500Y-40750000D03*
X69162500Y-40250000D03*
X69162500Y-39750000D03*
X69162500Y-39250000D03*
X69162500Y-38750000D03*
X69162500Y-38250000D03*
X69162500Y-37750000D03*
X69162500Y-37250000D03*
X69162500Y-36750000D03*
X69162500Y-36250000D03*
X69162500Y-35750000D03*
X69162500Y-35250000D03*
D33*
X67750000Y-33837500D03*
X67250000Y-33837500D03*
X66750000Y-33837500D03*
X66250000Y-33837500D03*
X65750000Y-33837500D03*
X65250000Y-33837500D03*
X64750000Y-33837500D03*
X64250000Y-33837500D03*
X63750000Y-33837500D03*
X63250000Y-33837500D03*
X62750000Y-33837500D03*
X62250000Y-33837500D03*
%TD*%
D34*
%TO.C,C7*%
X67675000Y-54900000D03*
X66125000Y-54900000D03*
%TD*%
D18*
%TO.C,D2*%
X73787500Y-37800000D03*
X72212500Y-37800000D03*
%TD*%
D21*
%TO.C,C19*%
X54820000Y-34500000D03*
X55780000Y-34500000D03*
%TD*%
D35*
%TO.C,J3*%
X86325000Y-34180000D03*
X81275000Y-34180000D03*
X86325000Y-31640000D03*
X81275000Y-31640000D03*
X86325000Y-29100000D03*
X81275000Y-29100000D03*
X86325000Y-26560000D03*
X81275000Y-26560000D03*
X86325000Y-24020000D03*
X81275000Y-24020000D03*
%TD*%
D13*
%TO.C,C18*%
X69500000Y-42070000D03*
X69500000Y-43030000D03*
%TD*%
%TO.C,C23*%
X60200000Y-46070000D03*
X60200000Y-47030000D03*
%TD*%
D36*
%TO.C,C1*%
X70025000Y-44600000D03*
X71575000Y-44600000D03*
%TD*%
D17*
%TO.C,C5*%
X63280000Y-54500000D03*
X62320000Y-54500000D03*
%TD*%
%TO.C,C22*%
X58860000Y-41200000D03*
X57900000Y-41200000D03*
%TD*%
D11*
%TO.C,C11*%
X68400000Y-56625000D03*
X68400000Y-58175000D03*
%TD*%
D37*
%TO.C,F1*%
X54900000Y-31825000D03*
X57700000Y-31825000D03*
%TD*%
M02*
