*%FSLAX24Y24*%
*%MOIN*%
G01*
%ADD11C,0.0010*%
%ADD12C,0.0030*%
%ADD13C,0.0043*%
%ADD14C,0.0050*%
%ADD15C,0.0060*%
%ADD16C,0.0070*%
%ADD17C,0.0073*%
%ADD18C,0.0080*%
%ADD19C,0.0100*%
%ADD20C,0.0110*%
%ADD21C,0.0118*%
%ADD22C,0.0150*%
%ADD23C,0.0200*%
%ADD24C,0.0300*%
%ADD25C,0.0360*%
%ADD26C,0.0440*%
%ADD27C,0.0600*%
%ADD28R,0.0300X0.0300*%
%ADD29R,0.0380X0.0380*%
%ADD30R,0.0551X0.0453*%
%ADD31R,0.0631X0.0533*%
%ADD32O,0.0118X0.0354*%
%ADD33O,0.0198X0.0434*%
%ADD34O,0.0354X0.0118*%
%ADD35O,0.0434X0.0198*%
D16*
X19082Y18100D02*
X19660D01*
Y18050D02*
X19095D01*
Y18000D02*
X19660D01*
Y17950D02*
X19095D01*
Y17900D02*
X19660D01*
Y17850D02*
X19095D01*
Y17800D02*
X19660D01*
Y17500D02*
Y19560D01*
X19650D02*
Y17294D01*
X19660Y18200D02*
X18982D01*
X19032Y18150D02*
X19660D01*
Y17750D02*
X19095D01*
Y17700D02*
X19660D01*
Y17650D02*
X19095D01*
Y17600D02*
X19660D01*
Y17550D02*
X19095D01*
Y17500D02*
X19660D01*
Y17340D01*
Y17500D01*
Y17340D02*
Y17294D01*
X19197D01*
Y16906D02*
X19660D01*
Y16900D02*
X19191D01*
X19660Y16906D02*
Y16614D01*
Y16850D02*
X19141D01*
X19095Y17450D02*
X19660D01*
Y17400D02*
X19095D01*
Y17350D02*
X19660D01*
Y17300D02*
X19062D01*
X19091Y16800D02*
X19660D01*
Y16750D02*
X19061D01*
X19111Y16700D02*
X19660D01*
Y16650D02*
X19161D01*
X19600Y17294D02*
Y19560D01*
X19550D02*
Y17294D01*
X19500D02*
Y19560D01*
X19450D02*
Y17294D01*
X19400D02*
Y19560D01*
X19350D02*
Y17294D01*
X19300D02*
Y19560D01*
X19250D02*
Y17294D01*
X19200D02*
Y19560D01*
X19050D02*
Y18132D01*
X19008Y18175D02*
X19095Y18088D01*
X19000Y18182D02*
Y19560D01*
X18945Y18525D02*
Y18238D01*
X19150Y17294D02*
Y19560D01*
X19100D02*
Y17294D01*
X19095Y18088D02*
X19008Y18175D01*
X19095Y18088D02*
Y17912D01*
X19650Y16906D02*
Y16614D01*
X19150Y16661D02*
Y16859D01*
X19095Y17912D02*
Y18088D01*
Y17912D02*
Y17508D01*
X19600Y16906D02*
Y16614D01*
X19550D02*
Y16906D01*
X19500D02*
Y16614D01*
X19450D02*
Y16906D01*
X19095Y17332D02*
Y17508D01*
Y17332D01*
X19057Y17294D01*
X19095Y17332D01*
X19057Y17294D02*
X19197D01*
X19057D01*
X19197Y16906D02*
X19052Y16761D01*
X19100Y16809D02*
Y16711D01*
X19660Y16226D02*
Y15790D01*
X19650Y16226D02*
Y12880D01*
X19660Y16000D02*
X19395D01*
X19400Y16614D02*
Y16906D01*
X19395Y16028D02*
Y15712D01*
X19600Y16226D02*
Y12880D01*
X19550D02*
Y16226D01*
X19500D02*
Y12880D01*
X19450D02*
Y16226D01*
X19660Y16614D02*
X19197D01*
Y16226D02*
X19660D01*
Y16200D02*
X19125D01*
X19272Y16150D02*
X19660D01*
Y16100D02*
X19322D01*
X19372Y16050D02*
X19660D01*
X19395Y16028D02*
X19238Y16185D01*
X19395Y15950D02*
X19660D01*
Y15900D02*
X19395D01*
Y15850D02*
X19660D01*
Y15800D02*
X19395D01*
Y15750D02*
X19660D01*
Y15790D02*
Y15630D01*
Y15700D02*
X19382D01*
X19660Y15630D02*
Y15790D01*
Y15630D02*
Y12880D01*
Y15650D02*
X19332D01*
X19282Y15600D02*
X19660D01*
Y15550D02*
X19125D01*
Y15500D02*
X19660D01*
Y15450D02*
X19125D01*
X19104Y15400D02*
X19660D01*
Y15350D02*
X19054D01*
X19004Y15300D02*
X19660D01*
X19350Y16614D02*
Y16906D01*
X19300D02*
Y16614D01*
X19250D02*
Y16906D01*
X19200D02*
Y16614D01*
X19250Y16226D02*
Y16172D01*
X19400Y16226D02*
Y12880D01*
X19238Y15555D02*
X19395Y15712D01*
X19350Y16072D02*
Y16226D01*
X19300D02*
Y16122D01*
X19197Y16614D02*
X19052Y16759D01*
X19125Y16226D02*
X19197D01*
X19125D01*
X19200D02*
Y16185D01*
X19150D02*
Y16226D01*
X19125Y16185D02*
X19238D01*
X19125Y16188D02*
Y16226D01*
Y16188D01*
X19350Y15668D02*
Y12880D01*
X19238Y15555D02*
X19125D01*
Y15421D01*
Y15555D01*
X19300Y15618D02*
Y12880D01*
X19250D02*
Y15568D01*
X19200Y15555D02*
Y12880D01*
X19150D02*
Y15555D01*
X19125Y15421D02*
X19032Y15328D01*
X19125Y15421D01*
X19032Y15328D02*
X18945Y15241D01*
Y14968D01*
X19100Y15396D02*
Y12880D01*
X19050D02*
Y15346D01*
X19000Y15296D02*
Y12880D01*
X18945Y14398D02*
Y14948D01*
X18660Y19560D02*
X19660D01*
Y19550D02*
X18660D01*
Y19500D02*
X19660D01*
Y19450D02*
X18660D01*
X18945Y19050D02*
X19660D01*
Y19000D02*
X18945D01*
Y18950D02*
X19660D01*
X18950Y19560D02*
Y18232D01*
X18945Y18545D02*
Y19095D01*
X18660Y19400D02*
X19660D01*
Y19350D02*
X18660D01*
Y19300D02*
X19660D01*
Y19250D02*
X18660D01*
Y19200D02*
X19660D01*
Y19150D02*
X18660D01*
Y19100D02*
X19660D01*
X18945Y19095D02*
X18660D01*
X18945Y18900D02*
X19660D01*
Y18850D02*
X18945D01*
Y18800D02*
X19660D01*
Y18750D02*
X18945D01*
Y18700D02*
X19660D01*
Y18650D02*
X18945D01*
Y18600D02*
X19660D01*
Y18550D02*
X18945D01*
Y18500D02*
X19660D01*
Y18450D02*
X18945D01*
Y18400D02*
X19660D01*
Y18350D02*
X18945D01*
Y18300D02*
X19660D01*
Y18250D02*
X18945D01*
Y18238D02*
X19008Y18175D01*
X18900Y19095D02*
Y19560D01*
X18850D02*
Y19095D01*
X18800D02*
Y19560D01*
X18750D02*
Y19095D01*
X18700D02*
Y19560D01*
X18682Y17975D02*
X18745Y17912D01*
Y17643D01*
X18660Y19095D02*
Y19560D01*
X18700Y17958D02*
Y17643D01*
X18660Y17900D02*
X18745D01*
Y17850D02*
X18660D01*
Y17950D02*
X18708D01*
X18745Y17800D02*
X18660D01*
Y17750D02*
X18745D01*
X18660Y17643D02*
Y17975D01*
Y17700D02*
X18745D01*
Y17650D02*
X18660D01*
Y17643D02*
X18745D01*
X18746Y15877D02*
X18660D01*
X18755Y15886D02*
Y15778D01*
Y15886D01*
Y15778D02*
Y15606D01*
X18700Y15551D02*
Y15877D01*
X18660D02*
Y15518D01*
Y15850D02*
X18755D01*
Y15800D02*
X18660D01*
Y15750D02*
X18755D01*
Y15700D02*
X18660D01*
Y15650D02*
X18755D01*
X18749Y15600D02*
X18660D01*
X18668Y15518D02*
X18755Y15606D01*
X18699Y15550D02*
X18660D01*
X18954Y15250D02*
X19660D01*
Y15200D02*
X18945D01*
Y15150D02*
X19660D01*
Y15100D02*
X18945D01*
Y15050D02*
X19660D01*
Y15000D02*
X18945D01*
Y14900D02*
X19660D01*
Y14850D02*
X18945D01*
Y14800D02*
X19660D01*
Y14750D02*
X18945D01*
Y14700D02*
X19660D01*
Y14650D02*
X18945D01*
Y14600D02*
X19660D01*
Y14550D02*
X18945D01*
Y14500D02*
X19660D01*
Y14450D02*
X18945D01*
Y14400D02*
X19660D01*
Y14350D02*
X18660D01*
Y14300D02*
X19660D01*
Y14250D02*
X18660D01*
Y14200D02*
X19660D01*
Y14150D02*
X18660D01*
X18805Y13700D02*
X19660D01*
Y13650D02*
X18805D01*
Y13600D02*
X19660D01*
Y14100D02*
X18660D01*
Y14050D02*
X19660D01*
Y14000D02*
X18660D01*
Y13950D02*
X19660D01*
Y13900D02*
X18660D01*
Y13850D02*
X19660D01*
Y13800D02*
X18660D01*
Y13750D02*
X19660D01*
Y13550D02*
X18805D01*
Y13500D02*
X19660D01*
Y13450D02*
X18805D01*
X18800Y13745D02*
Y14398D01*
X18805Y13400D02*
X19660D01*
X18950Y12880D02*
Y15246D01*
X18900Y14398D02*
Y12880D01*
X18850D02*
Y14398D01*
X18805Y13745D02*
Y13175D01*
X18945Y14398D02*
X18660D01*
X18750D02*
Y13745D01*
X18805D02*
X18660D01*
X18700D02*
Y14398D01*
X18660D02*
Y13745D01*
X18805Y13350D02*
X19660D01*
Y13300D02*
X18805D01*
Y13250D02*
X19660D01*
Y13200D02*
X18805D01*
X18660Y13150D02*
X19660D01*
X18800Y13175D02*
Y12880D01*
X18750D02*
Y13175D01*
X18700D02*
Y12880D01*
X18660Y13100D02*
X19660D01*
Y13050D02*
X18660D01*
Y13175D02*
X18805D01*
X18660Y13000D02*
X19660D01*
Y12950D02*
X18660D01*
Y12900D02*
X19660D01*
X18660Y12880D02*
Y13175D01*
Y12880D02*
X19660D01*
X19250Y18705D02*
Y19560D01*
Y18705D01*
X19200D02*
Y19560D01*
X19150D02*
Y18705D01*
X19250Y19050D02*
X18945D01*
Y19000D02*
X19250D01*
X19100Y18705D02*
Y19560D01*
X19050D02*
Y18705D01*
X19000D02*
Y19560D01*
X18950D02*
Y18705D01*
X18945D02*
Y19095D01*
X19250Y19150D02*
X18292D01*
X18342Y19100D02*
X19250D01*
Y19250D02*
X18192D01*
X18242Y19200D02*
X19250D01*
Y18950D02*
X18945D01*
Y18900D02*
X19250D01*
Y18850D02*
X18945D01*
X18900Y19095D02*
Y19560D01*
X18850D02*
Y19095D01*
X18800D02*
Y19560D01*
X18750D02*
Y19095D01*
X18700D02*
Y19560D01*
X18945Y19095D02*
X18375D01*
X18945Y18800D02*
X19250D01*
Y18750D02*
X18945D01*
Y18705D02*
X19250D01*
Y16906D02*
X19197D01*
X19191Y16900D02*
X19250D01*
Y16850D02*
X19141D01*
X19161Y16650D02*
X19250D01*
Y16700D02*
X19111D01*
X19250Y16614D02*
Y16906D01*
Y16614D01*
X19200D02*
Y16906D01*
X19197Y16614D02*
X19250D01*
X19150Y16661D02*
Y16859D01*
X18745Y17912D02*
X18682Y17975D01*
X18745Y17900D02*
X18453D01*
Y17850D02*
X18745D01*
Y17800D02*
X18453D01*
Y17750D02*
X18745D01*
Y17700D02*
X18453D01*
X18544Y17975D02*
X18682D01*
X18700Y17958D02*
Y17643D01*
X18708Y17950D02*
X18544D01*
X18453Y17650D02*
X18745D01*
Y17643D02*
Y17912D01*
Y17643D02*
X18453D01*
X19091Y16800D02*
X19250D01*
Y16750D02*
X19061D01*
X19052Y16761D02*
X19197Y16906D01*
X19100Y16809D02*
Y16711D01*
X19052Y16759D02*
X19197Y16614D01*
X18650Y19095D02*
Y19560D01*
X18600D02*
Y19095D01*
X18300Y19142D02*
Y19560D01*
X18550D02*
Y19095D01*
X18250Y19192D02*
Y19560D01*
X18178Y19265D02*
X18295Y19148D01*
X18178Y19265D01*
X18150D02*
Y19560D01*
X18200D02*
Y19242D01*
X18100Y19265D02*
Y19560D01*
X18050D02*
Y19265D01*
X18000D02*
Y19560D01*
X17950D02*
Y19265D01*
X18650Y17975D02*
Y17643D01*
X18600D02*
Y17975D01*
X18500Y19095D02*
Y19560D01*
X18544Y17975D02*
Y17902D01*
X18550Y17975D02*
Y17643D01*
X18544Y17902D02*
X18453D01*
X18450Y19095D02*
Y19560D01*
X18400D02*
Y19095D01*
X18350Y19092D02*
Y19560D01*
X18500Y17902D02*
Y17643D01*
X18453D02*
Y17902D01*
X18375Y19068D02*
X18295Y19148D01*
X17900Y19265D02*
Y19560D01*
X17850D02*
Y19265D01*
X17800D02*
Y19560D01*
X17750D02*
Y19265D01*
X17942D02*
X18178D01*
X17942D01*
X17700D02*
Y19560D01*
X17650D02*
Y19265D01*
X17600D02*
Y19560D01*
X17550D02*
Y19265D01*
X17500D02*
Y19560D01*
X17450D02*
Y19265D01*
X17768Y17409D02*
X17857D01*
X17767Y17319D01*
X17800Y17352D02*
Y17409D01*
X17750D02*
Y17305D01*
X17765Y17409D02*
X17571D01*
X17700D02*
Y17255D01*
X17650Y17205D02*
Y17409D01*
X17600D02*
Y17155D01*
X18219Y17155D02*
Y17194D01*
Y17201D02*
X18172Y17154D01*
X18179D02*
X18219Y17194D01*
X18179Y17154D01*
X18168Y17150D02*
X18219D01*
Y17100D02*
X18118D01*
X18068Y17050D02*
X18219D01*
X18172Y17154D02*
X18052Y17034D01*
X18219Y16958D02*
Y17152D01*
X18049Y17034D02*
X17954Y16939D01*
X18219Y16955D02*
Y16761D01*
Y16759D02*
Y16565D01*
Y17000D02*
X18018D01*
X18075Y16400D02*
X18219D01*
Y16368D02*
Y16562D01*
Y16450D02*
X18025D01*
X18219Y16365D02*
Y16330D01*
X18185D01*
X18219Y16350D02*
X18125D01*
X18100Y16375D02*
Y17082D01*
X18200Y17175D02*
Y16330D01*
X18050Y16425D02*
Y17032D01*
X18185Y16330D02*
X18219D01*
X18185D02*
X18145D01*
X18000Y16475D02*
Y16982D01*
X17957Y16939D02*
X18052Y17034D01*
X17957Y16939D01*
X17669Y17224D02*
X17764Y17319D01*
X17968Y16950D02*
X18219D01*
Y16900D02*
X17915D01*
X17865Y16850D02*
X18219D01*
Y16800D02*
X17815D01*
X17550Y17105D02*
Y17409D01*
X17500D02*
Y17055D01*
X17450Y17048D02*
Y17409D01*
X17669Y17224D02*
X17764Y17319D01*
X17767D02*
X17672Y17224D01*
X17669D02*
X17493Y17048D01*
X17778Y16750D02*
X18219D01*
Y16650D02*
X17825D01*
X17778Y16700D02*
X18219D01*
Y16550D02*
X17925D01*
X17975Y16500D02*
X18219D01*
Y16600D02*
X17875D01*
X17900Y16575D02*
Y16885D01*
X17950Y16935D02*
Y16525D01*
X17778Y16763D02*
X17954Y16939D01*
X17800Y16785D02*
Y16675D01*
X17850Y16625D02*
Y16835D01*
X17778Y16763D02*
Y16697D01*
X19250Y14800D02*
Y12880D01*
Y14800D01*
X19200D02*
Y12880D01*
X18755Y15778D02*
Y15886D01*
Y15778D01*
X18746Y15877D02*
X18453D01*
Y15850D02*
X18755D01*
Y15800D02*
X18453D01*
Y15750D02*
X18755D01*
Y15778D02*
Y15606D01*
Y15700D02*
X18453D01*
X18500Y15600D02*
X18749D01*
X18755Y15606D02*
X18668Y15518D01*
X18755Y15650D02*
X18453D01*
X18945Y14800D02*
X19250D01*
X18945D01*
Y14750D02*
X19250D01*
Y14700D02*
X18945D01*
Y14650D02*
X19250D01*
Y14600D02*
X18945D01*
Y14550D02*
X19250D01*
Y14500D02*
X18945D01*
Y14450D02*
X19250D01*
X18945Y14398D02*
Y14800D01*
Y14400D02*
X19250D01*
Y13700D02*
X18805D01*
Y13650D02*
X19250D01*
Y13600D02*
X18805D01*
Y13550D02*
X19250D01*
X19150Y12880D02*
Y14800D01*
X19100D02*
Y12880D01*
X19250Y13500D02*
X18805D01*
Y13450D02*
X19250D01*
Y13400D02*
X18805D01*
Y13350D02*
X19250D01*
X19050Y12880D02*
Y14800D01*
X19000D02*
Y12880D01*
X18950D02*
Y14800D01*
X18900Y14398D02*
Y12880D01*
X18850D02*
Y14398D01*
X18805Y13745D02*
Y13175D01*
X19250Y14350D02*
X18260D01*
Y14300D02*
X19250D01*
Y14250D02*
X18260D01*
Y14200D02*
X19250D01*
Y14150D02*
X18260D01*
Y14100D02*
X19250D01*
Y14050D02*
X18260D01*
X18375Y14398D02*
X18945D01*
X19250Y14000D02*
X18260D01*
Y13950D02*
X19250D01*
Y13900D02*
X18260D01*
Y13850D02*
X19250D01*
Y13800D02*
X18260D01*
X18800Y13745D02*
Y14398D01*
X19250Y13750D02*
X18260D01*
X18805Y13300D02*
X19250D01*
Y13250D02*
X18805D01*
Y13200D02*
X19250D01*
X18750Y13745D02*
Y14398D01*
X18805Y13745D02*
X18260D01*
X18800Y13175D02*
Y12880D01*
X18750D02*
Y13175D01*
X18805D02*
X18255D01*
X18700Y15551D02*
Y15877D01*
X18650D02*
Y15518D01*
X18550Y15550D02*
Y15877D01*
X18600D02*
Y15518D01*
X18550Y15550D02*
X18699D01*
X18668Y15518D02*
X18560D01*
Y15540D02*
X18453Y15647D01*
Y15877D01*
X18500D02*
Y15600D01*
X18415Y14960D02*
X18375D01*
X18278D01*
X18260Y14900D02*
X18375D01*
Y14850D02*
X18260D01*
Y14800D02*
X18375D01*
Y14948D02*
Y14398D01*
X18350Y14960D02*
Y13745D01*
X18300D02*
Y14960D01*
X18260Y14750D02*
X18375D01*
X18260Y14942D02*
Y14421D01*
Y14700D02*
X18375D01*
X18150Y16330D02*
Y17132D01*
X17778Y16697D02*
X18145Y16330D01*
X17750Y16155D02*
Y16111D01*
X17794D02*
X17493Y16412D01*
X17571Y16111D02*
X17765D01*
X17550D02*
Y16355D01*
X17500Y16405D02*
Y16111D01*
X17450D02*
Y16455D01*
X17700Y16205D02*
Y16111D01*
X17650D02*
Y16255D01*
X17600Y16305D02*
Y16111D01*
X18700Y14398D02*
Y13745D01*
X18650D02*
Y14398D01*
X18375Y14650D02*
X18260D01*
X18600Y14398D02*
Y13745D01*
X18550D02*
Y14398D01*
X18500D02*
Y13745D01*
X18450D02*
Y14398D01*
X18375Y14600D02*
X18260D01*
Y14550D02*
X18375D01*
Y14500D02*
X18260D01*
Y14450D02*
X18375D01*
X18260Y14421D02*
Y14329D01*
Y14421D01*
X18700Y13175D02*
Y12880D01*
X18650D02*
Y13175D01*
X18600D02*
Y12880D01*
X18550D02*
Y13175D01*
X18500D02*
Y12880D01*
X18450D02*
Y13175D01*
X18400Y13745D02*
Y14398D01*
Y13175D02*
Y12880D01*
X18350D02*
Y13175D01*
X18300D02*
Y12880D01*
X18260Y14400D02*
X18375D01*
X18260Y14329D02*
Y13745D01*
X18255D02*
Y13699D01*
X18260D02*
Y13745D01*
X18235D02*
Y13699D01*
Y13175D02*
X17855D01*
X18200D02*
Y12880D01*
X18150D02*
Y13175D01*
X18100D02*
Y12880D01*
X17855Y13175D02*
X17685D01*
X18050D02*
Y12880D01*
X17855Y13175D02*
X17685D01*
X18000D02*
Y12880D01*
X17950D02*
Y13175D01*
X17900D02*
Y12880D01*
X17850D02*
Y13175D01*
X17800D02*
Y12880D01*
X17750D02*
Y13175D01*
X17700D02*
Y12880D01*
X17650D02*
Y13175D01*
X17600D02*
Y12880D01*
X17550D02*
Y13175D01*
X17500D02*
Y12880D01*
X17450D02*
Y13175D01*
X17400Y19265D02*
Y19560D01*
X17350D02*
Y19265D01*
X17300D02*
Y19560D01*
X17250D02*
Y19265D01*
X17200D02*
Y19560D01*
X17424Y18795D02*
Y18472D01*
X17150Y19265D02*
Y19560D01*
X17100D02*
Y19265D01*
X17050D02*
Y19560D01*
X17000D02*
Y19265D01*
X16950D02*
Y19560D01*
X16900D02*
Y19265D01*
X16850D02*
Y19560D01*
X17400Y18795D02*
Y18110D01*
X17350D02*
Y18795D01*
X17300D02*
Y18110D01*
X17250Y18453D02*
Y18795D01*
X17200D02*
Y18453D01*
X17150D02*
Y18795D01*
X17100D02*
Y18453D01*
X17050D02*
Y18795D01*
X17000D02*
Y18453D01*
X16950D02*
Y18795D01*
X16900D02*
Y18453D01*
X16850D02*
Y18795D01*
X15000Y19560D02*
X19250D01*
X15000D01*
Y19550D02*
X19250D01*
Y19500D02*
X15000D01*
Y19450D02*
X19250D01*
Y19400D02*
X15000D01*
Y19350D02*
X19250D01*
X16800Y19265D02*
Y19560D01*
X16750D02*
Y19265D01*
X16700D02*
Y19560D01*
X16650D02*
Y19265D01*
X16600D02*
Y19560D01*
X15000Y19300D02*
X19250D01*
X16550Y19265D02*
Y19560D01*
X16500D02*
Y19265D01*
X16398D02*
X17942D01*
X16800Y18795D02*
Y18453D01*
X16750D02*
Y18795D01*
X16398D02*
X17424D01*
X16450Y19265D02*
Y19560D01*
X16400D02*
Y19265D01*
X16350D02*
Y19560D01*
X16300D02*
Y19265D01*
X16398D02*
X16162D01*
X16398D01*
X17424Y18472D02*
Y18302D01*
Y18472D01*
Y18450D02*
X17263D01*
Y18400D02*
X17424D01*
Y18350D02*
X17263D01*
Y18300D02*
X17424D01*
Y18250D02*
X17268D01*
X17263Y18268D02*
Y18453D01*
X17424Y18302D02*
Y18110D01*
X17268D02*
Y18263D01*
Y18200D02*
X17424D01*
Y18150D02*
X17268D01*
Y18110D02*
X17424D01*
X17375Y17409D02*
X17569D01*
X17400D02*
Y17048D01*
X17848Y17400D02*
X16921D01*
X17350Y17409D02*
Y17048D01*
X17300D02*
Y17409D01*
X17372D02*
X17178D01*
X17250D02*
Y17048D01*
X17200D02*
Y17409D01*
X17175D02*
X16981D01*
X16978D02*
X16921D01*
Y17352D01*
Y17349D02*
Y17155D01*
X17424Y18750D02*
X16352D01*
X16302Y18700D02*
X17424D01*
Y18650D02*
X16252D01*
X16202Y18600D02*
X17424D01*
Y18550D02*
X16152D01*
X16713Y18453D02*
X17263D01*
X17424Y18500D02*
X16102D01*
X16650Y18453D02*
Y18795D01*
X16600D02*
Y18453D01*
X16550D02*
Y18795D01*
X16500D02*
Y18453D01*
X16450D02*
Y18795D01*
X16400D02*
Y18453D01*
X16921Y17300D02*
X17745D01*
X17695Y17250D02*
X16921D01*
X16693Y18453D02*
X16143D01*
X16921Y17200D02*
X17645D01*
X17595Y17150D02*
X16921D01*
Y17100D02*
X17545D01*
X16350Y18453D02*
Y18748D01*
X16398Y18795D02*
X15785Y18182D01*
X16250Y19265D02*
Y19560D01*
X16200D02*
Y19265D01*
X16150Y19252D02*
Y19560D01*
X16100D02*
Y19202D01*
X16050Y19152D02*
Y19560D01*
X16162Y19265D02*
X16045Y19148D01*
X16162Y19265D01*
X16000Y19102D02*
Y19560D01*
X15950D02*
Y19052D01*
X15900Y19002D02*
Y19560D01*
X15850D02*
Y18952D01*
X15800Y18902D02*
Y19560D01*
X15750D02*
Y18852D01*
X15700Y18802D02*
Y19560D01*
X16300Y18698D02*
Y18453D01*
X16045Y19148D02*
X15432Y18535D01*
X16250Y18453D02*
Y18648D01*
X16200Y18598D02*
Y18453D01*
X16150D02*
Y18548D01*
X15650Y18752D02*
Y19560D01*
X15600D02*
Y18702D01*
X15550Y18652D02*
Y19560D01*
X15500D02*
Y18602D01*
X15450Y18552D02*
Y19560D01*
X15400D02*
Y18535D01*
X15000Y19250D02*
X16148D01*
X16098Y19200D02*
X15000D01*
Y19150D02*
X16048D01*
X15998Y19100D02*
X15000D01*
Y19050D02*
X15948D01*
X15898Y19000D02*
X15000D01*
Y18950D02*
X15848D01*
X15798Y18900D02*
X15000D01*
Y18850D02*
X15748D01*
X15698Y18800D02*
X15000D01*
Y18750D02*
X15648D01*
X15598Y18700D02*
X15000D01*
Y18650D02*
X15548D01*
X15350Y18535D02*
Y19560D01*
X15300D02*
Y18535D01*
X15250D02*
Y19560D01*
X15498Y18600D02*
X15000D01*
X15200Y18535D02*
Y19560D01*
X15000Y18550D02*
X15448D01*
X15150Y18535D02*
Y19560D01*
X15100D02*
Y18535D01*
X15050D02*
Y19560D01*
X15000D02*
Y18535D01*
Y19560D01*
Y18535D01*
X16052Y18450D02*
X16143D01*
Y18400D02*
X16002D01*
X15952Y18350D02*
X16143D01*
Y18300D02*
X15902D01*
X15852Y18250D02*
X16143D01*
Y18200D02*
X15802D01*
X15752Y18150D02*
X16143D01*
Y17896D02*
Y18453D01*
X16100Y18498D02*
Y17879D01*
X16050Y17829D02*
Y18448D01*
X16143Y18100D02*
X15702D01*
X15668Y18065D02*
X15785Y18182D01*
X15668Y18065D01*
X16000Y17779D02*
Y18398D01*
X15950Y18348D02*
Y17772D01*
X15900D02*
Y18298D01*
X16117Y17896D02*
X16029Y17809D01*
X16117Y17896D01*
X16029Y17809D02*
X15992Y17772D01*
X15850D02*
Y18248D01*
X15800Y18198D02*
Y17772D01*
X15750D02*
Y18148D01*
X15700Y18098D02*
Y17772D01*
X15650D02*
Y18065D01*
X15600D02*
Y17772D01*
X15668Y18065D02*
X15432D01*
X15000Y18050D02*
X16143D01*
Y18000D02*
X15000D01*
Y17950D02*
X16143D01*
Y17900D02*
X15000D01*
Y17850D02*
X16071D01*
X16021Y17800D02*
X15000D01*
X15432Y18065D02*
X15668D01*
X15550D02*
Y17772D01*
X15432Y18535D02*
X15000D01*
X15500Y18065D02*
Y17772D01*
X15450D02*
Y18065D01*
X15432D02*
X15000D01*
X15400D02*
Y17772D01*
X15350D02*
Y18065D01*
X15300D02*
Y17772D01*
X15250D02*
Y18065D01*
X15200D02*
Y17772D01*
X15000D02*
X15992D01*
X15150D02*
Y18065D01*
X15100D02*
Y17772D01*
X15050D02*
Y18065D01*
X15000D02*
Y17772D01*
Y18065D01*
Y17772D01*
X17398Y16668D02*
Y16507D01*
Y16668D01*
X17493Y17048D02*
X16921D01*
Y17050D02*
X17495D01*
X17398Y16507D02*
X17493Y16412D01*
X17400Y16505D02*
Y16111D01*
X17493Y16412D02*
X17398Y16507D01*
X17150Y17048D02*
Y17409D01*
X17100D02*
Y17048D01*
X17050D02*
Y17409D01*
X17000D02*
Y17048D01*
X16950D02*
Y17409D01*
X16921Y17152D02*
Y17048D01*
X17350Y16668D02*
Y16111D01*
X17300D02*
Y16668D01*
X17250D02*
Y16111D01*
X17375D02*
X17569D01*
X17200D02*
Y16668D01*
X17178Y16111D02*
X17372D01*
X17150D02*
Y16668D01*
X17100D02*
Y16111D01*
X17050D02*
Y16668D01*
X17000D02*
Y16111D01*
X16981D02*
X17175D01*
X16950D02*
Y16668D01*
X16921D02*
X17398D01*
X17455Y16450D02*
X16921D01*
Y16400D02*
X17505D01*
X17555Y16350D02*
X16921D01*
Y16300D02*
X17605D01*
X17655Y16250D02*
X16921D01*
Y16200D02*
X17705D01*
X17398Y16650D02*
X16921D01*
Y16668D02*
Y16565D01*
Y16600D02*
X17398D01*
Y16550D02*
X16921D01*
Y16562D02*
Y16368D01*
Y16500D02*
X17405D01*
X16921Y16365D02*
Y16171D01*
Y16150D02*
X17755D01*
X16921Y16168D02*
Y16111D01*
X16978D01*
X17400Y13175D02*
Y12880D01*
X17305Y13175D02*
X17685D01*
X17350D02*
Y12880D01*
X17285Y13175D02*
X16905D01*
X16735D01*
X17250D02*
Y12880D01*
X16905Y13175D02*
X16735D01*
X17200D02*
Y12880D01*
X17150D02*
Y13175D01*
X17100D02*
Y12880D01*
X17050D02*
Y13175D01*
X17000D02*
Y12880D01*
X16950D02*
Y13175D01*
X16900D02*
Y12880D01*
X16850D02*
Y13175D01*
X16800D02*
Y12880D01*
X16750D02*
Y13175D01*
X16700D02*
Y12880D01*
X16650D02*
Y13175D01*
X16242Y14885D02*
X16155Y14972D01*
X16242Y14885D01*
X15000Y13150D02*
X19250D01*
X16735Y13175D02*
X16355D01*
X16335D02*
X15785D01*
X15000Y13100D02*
X19250D01*
X16259Y14850D02*
X15000D01*
Y14800D02*
X16259D01*
Y14750D02*
X15000D01*
Y14700D02*
X16259D01*
Y14650D02*
X15000D01*
Y14600D02*
X16259D01*
X15000Y13050D02*
X19250D01*
Y13000D02*
X15000D01*
Y12950D02*
X19250D01*
Y12900D02*
X15000D01*
Y12880D02*
X19250D01*
X15000D01*
X16600D02*
Y13175D01*
X16550D02*
Y12880D01*
X16500D02*
Y13175D01*
X16450D02*
Y12880D01*
X16400D02*
Y13175D01*
X16300D02*
Y12880D01*
X16155Y14972D02*
X15992Y15135D01*
X15950D02*
Y13745D01*
X15900D02*
Y15135D01*
X15850D02*
Y13745D01*
X16100D02*
Y15028D01*
X16050Y15078D02*
Y13745D01*
X16000D02*
Y15128D01*
X15306Y16640D02*
Y16917D01*
X15300D02*
Y16640D01*
X15250D02*
Y16917D01*
X15800Y15135D02*
Y13745D01*
X15200Y16640D02*
Y16917D01*
X15750Y15135D02*
Y12880D01*
X15700D02*
Y15135D01*
X15650D02*
Y12880D01*
X15600D02*
Y15135D01*
X15550D02*
Y12880D01*
X15500D02*
Y15135D01*
X15450D02*
Y12880D01*
X15400D02*
Y15135D01*
X15350D02*
Y12880D01*
X15300D02*
Y15135D01*
X15250D02*
Y12880D01*
X15200D02*
Y15135D01*
X15306Y16917D02*
X15000D01*
Y16900D02*
X15306D01*
Y16850D02*
X15000D01*
Y16800D02*
X15306D01*
Y16750D02*
X15000D01*
Y16700D02*
X15306D01*
Y16640D02*
X15000D01*
X15150D02*
Y16917D01*
X15100D02*
Y16640D01*
X15050D02*
Y16917D01*
X15000D02*
Y16640D01*
Y16917D01*
Y16640D01*
Y16650D02*
X15306D01*
X15000Y15135D02*
X15992D01*
X16028Y15100D02*
X15000D01*
Y15050D02*
X16078D01*
X16128Y15000D02*
X15000D01*
Y14950D02*
X16178D01*
X15150Y15135D02*
Y12880D01*
X15100D02*
Y15135D01*
X15050D02*
Y12880D01*
X15000D02*
Y15135D01*
Y12880D01*
Y15135D01*
Y14550D02*
X16259D01*
Y14421D02*
Y14885D01*
Y14500D02*
X15000D01*
Y14450D02*
X16259D01*
Y14421D02*
Y14329D01*
Y14421D01*
Y14329D02*
Y13745D01*
X16200D02*
Y14928D01*
X16150Y14978D02*
Y13745D01*
X16228Y14900D02*
X15000D01*
X15785Y13745D02*
X16259D01*
X16250Y13175D02*
Y12880D01*
X16200D02*
Y13175D01*
X16150D02*
Y12880D01*
X16100D02*
Y13175D01*
X16050D02*
Y12880D01*
X16000D02*
Y13175D01*
X15950D02*
Y12880D01*
X15785Y13175D02*
Y13745D01*
X15900Y13175D02*
Y12880D01*
X15850D02*
Y13175D01*
X15800D02*
Y12880D01*
X16259Y14400D02*
X15000D01*
Y14350D02*
X16259D01*
Y14300D02*
X15000D01*
Y14250D02*
X16259D01*
Y14200D02*
X15000D01*
Y14150D02*
X16259D01*
Y14100D02*
X15000D01*
Y14050D02*
X16259D01*
Y14000D02*
X15000D01*
Y13950D02*
X16259D01*
Y13900D02*
X15000D01*
Y13850D02*
X16259D01*
Y13800D02*
X15000D01*
Y13750D02*
X16259D01*
X15785Y13700D02*
X15000D01*
Y13650D02*
X15785D01*
Y13600D02*
X15000D01*
Y13550D02*
X15785D01*
Y13500D02*
X15000D01*
Y13450D02*
X15785D01*
Y13400D02*
X15000D01*
Y13350D02*
X15785D01*
Y13300D02*
X15000D01*
Y13250D02*
X15785D01*
Y13200D02*
X15000D01*
D18*
X15010Y17092D02*
X16338D01*
X18752Y17252D02*
X18920Y17420D01*
Y18000D02*
X18660Y18260D01*
X18920Y18000D02*
Y17420D01*
X17970Y13460D02*
X17570D01*
X17020D02*
X16620D01*
X17850Y14691D02*
Y15290D01*
X17865Y15532D02*
X17120Y14786D01*
X17420Y14560D02*
Y13610D01*
Y14560D02*
X17551Y14691D01*
X17850D01*
X17865Y15532D02*
Y15799D01*
X18062Y15502D02*
X17850Y15290D01*
X18062Y15502D02*
Y15799D01*
X16609Y16465D02*
X15010D01*
X16338Y17092D02*
X16375Y17055D01*
X16609D01*
Y16268D02*
X15010D01*
Y16071D02*
X16609D01*
X17078Y15618D02*
X16970Y15510D01*
X17078Y15618D02*
Y15799D01*
X17275Y15615D02*
X17020Y15360D01*
X17275Y15615D02*
Y15799D01*
X17472Y15612D02*
X17070Y15210D01*
X17472Y15612D02*
Y15799D01*
X17668Y15608D02*
X17120Y15060D01*
X17668Y15608D02*
Y15799D01*
X16609Y17252D02*
X15010D01*
X16204Y17721D02*
X16881D01*
X16204D02*
X16080Y17597D01*
X15010D01*
Y17437D02*
X16520D01*
X17420Y13610D02*
X17570Y13460D01*
X17120Y13559D02*
X17119D01*
X17020Y13460D01*
X17120Y14060D02*
X16670D01*
X17120Y13559D02*
Y14786D01*
X18531Y17252D02*
X18752D01*
X16970Y15510D02*
X16630D01*
X16260Y15880D01*
X15010D01*
X16200Y15690D02*
X16530Y15360D01*
X16200Y15690D02*
X15010D01*
X16530Y15360D02*
X17020D01*
X16140Y15500D02*
X15010D01*
X16140D02*
X16430Y15210D01*
X17070D01*
X16080Y15310D02*
X15010D01*
X16080D02*
X16330Y15060D01*
X17120D01*
D19*
X18940Y15513D02*
Y16280D01*
Y15870D02*
X19080D01*
X18910Y18810D02*
X18660D01*
Y19060D01*
Y14683D02*
X18910D01*
X18660D02*
Y14433D01*
X18770Y13460D02*
X18520D01*
X18660Y18810D02*
Y19060D01*
Y18810D02*
X18910D01*
X17709Y18587D02*
X17459D01*
X17865Y17721D02*
Y17444D01*
X17709Y18187D02*
X17459D01*
X17668Y17721D02*
Y17444D01*
X17472D02*
Y17721D01*
X18660Y14683D02*
X18910D01*
X18770Y13460D02*
X18520D01*
X18410Y14683D02*
X18660D01*
Y14433D01*
X18520Y13710D02*
Y13460D01*
Y13210D01*
X18225Y14060D02*
X17850D01*
X16428Y18168D02*
Y18418D01*
Y18168D02*
X16178D01*
X16294Y14691D02*
X16670D01*
X15591Y16788D02*
X15341D01*
X16070Y13710D02*
Y13460D01*
X15820D01*
X16070D02*
Y13210D01*
X17668Y17358D02*
X17858D01*
X18062Y17562D01*
X18175Y17055D02*
X18030Y16910D01*
X18250Y16330D02*
X18310D01*
X18250D02*
X18030Y16550D01*
X17865Y17405D02*
Y17721D01*
X18062D02*
Y17562D01*
X18310Y16330D02*
X18350Y16290D01*
X18380D01*
X18402Y16268D01*
X18531D01*
X18755Y16465D02*
X18940Y16280D01*
Y15513D02*
X18660Y15233D01*
X18755Y16465D02*
X18531D01*
D20*
X17588Y16858D02*
X16212D01*
X17588Y16602D02*
X18050Y16140D01*
X17588Y16602D02*
Y16858D01*
X18050Y16140D02*
X18280D01*
X17862Y17129D02*
X18077Y17344D01*
X18084D01*
X18220Y17480D01*
X17859Y17129D02*
X17588Y16858D01*
X17859Y17129D02*
X17862D01*
X16212Y16858D02*
X16141Y16788D01*
X18175Y17055D02*
X18531D01*
X18280Y16140D02*
X18349Y16071D01*
X18531D01*
X17110Y16300D02*
X16909Y16099D01*
Y15959D01*
X16881Y15931D01*
Y15799D01*
X16609Y16662D02*
X17248D01*
X17668Y17358D02*
Y17721D01*
X17472D02*
Y17302D01*
X17275Y17345D02*
Y17721D01*
X18220Y17510D02*
Y17480D01*
Y17510D02*
X18259Y17549D01*
Y17721D01*
X18541Y15799D02*
X18620Y15720D01*
X18541Y15799D02*
X18259D01*
X18531Y17721D02*
X18620Y17810D01*
X18531Y17721D02*
Y17449D01*
X17078Y17721D02*
Y18168D01*
X18259Y18187D02*
Y17721D01*
D21*
X19100Y16420D02*
X19970D01*
X20110Y16280D01*
X19930Y17100D02*
X19100D01*
X19930D02*
X20110Y17280D01*
X19100Y17100D02*
X18858Y16858D01*
Y16662D02*
X19100Y16420D01*
X18858Y16662D02*
X18531D01*
Y16858D02*
X18858D01*
D23*
X15550Y18300D02*
X15070D01*
X15550D02*
X16280Y19030D01*
X18060D01*
X18259Y18831D01*
Y18587D01*
D24*
Y18187D01*
X20510Y16760D02*
X20940D01*
X19960D02*
X19240D01*
D25*
X19080Y15870D02*
D03*
X19510Y16760D02*
D03*
Y14000D02*
D03*
Y16080D02*
D03*
Y17440D02*
D03*
Y18360D02*
D03*
Y15150D02*
D03*
Y19410D02*
D03*
Y13030D02*
D03*
X15150Y17920D02*
D03*
X16650Y13030D02*
D03*
X18150D02*
D03*
X15150Y19410D02*
D03*
X16650D02*
D03*
X18150D02*
D03*
X15150Y14990D02*
D03*
X18060Y16910D02*
D03*
Y16550D02*
D03*
X18620Y15720D02*
D03*
Y17810D02*
D03*
X19100Y14680D02*
D03*
X15150Y13030D02*
D03*
X16100Y14060D02*
D03*
X17470Y17210D02*
D03*
Y16300D02*
D03*
X15630Y13460D02*
D03*
X18960D02*
D03*
X15981Y18168D02*
D03*
X16100Y14691D02*
D03*
X18430Y14060D02*
D03*
X15150Y16788D02*
D03*
X17110Y17210D02*
D03*
Y16300D02*
D03*
X17240Y18650D02*
D03*
X19100Y18810D02*
D03*
X20940Y16760D02*
D03*
X19240D02*
D03*
D28*
X19960D02*
D03*
X20510D02*
D03*
X18660Y14683D02*
D03*
Y15233D02*
D03*
X16978Y18168D02*
D03*
X16620Y13460D02*
D03*
X17020D02*
D03*
X17970D02*
D03*
X17570D02*
D03*
X16141Y16788D02*
D03*
X18660Y18260D02*
D03*
X16070Y13460D02*
D03*
X18520D02*
D03*
X16428Y18168D02*
D03*
X15591Y16788D02*
D03*
X18660Y18810D02*
D03*
X17709Y18187D02*
D03*
X18259D02*
D03*
X17709Y18587D02*
D03*
X18259D02*
D03*
D30*
X16670Y14060D02*
D03*
X17850Y14691D02*
D03*
Y14060D02*
D03*
X16670Y14691D02*
D03*
D32*
X16881Y15799D02*
D03*
X17078D02*
D03*
X17668D02*
D03*
X17865D02*
D03*
X18062D02*
D03*
X17275D02*
D03*
X17472D02*
D03*
X18259D02*
D03*
Y17721D02*
D03*
X18062D02*
D03*
X17472D02*
D03*
X17275D02*
D03*
X17078D02*
D03*
X17865D02*
D03*
X17668D02*
D03*
X16881D02*
D03*
D34*
X18531Y16071D02*
D03*
Y16268D02*
D03*
Y16858D02*
D03*
Y17055D02*
D03*
Y17252D02*
D03*
Y16465D02*
D03*
Y16662D02*
D03*
Y17449D02*
D03*
X16609D02*
D03*
Y17252D02*
D03*
Y16662D02*
D03*
Y16465D02*
D03*
Y16268D02*
D03*
Y17055D02*
D03*
Y16858D02*
D03*
Y16071D02*
D03*
M02*
