*%FSLAX24Y24*%
*%MOIN*%
G01*
%ADD11C,0.0010*%
%ADD12C,0.0030*%
%ADD13C,0.0043*%
%ADD14C,0.0050*%
%ADD15C,0.0060*%
%ADD16C,0.0070*%
%ADD17C,0.0073*%
%ADD18C,0.0080*%
%ADD19C,0.0100*%
%ADD20C,0.0110*%
%ADD21C,0.0118*%
%ADD22C,0.0150*%
%ADD23C,0.0200*%
%ADD24C,0.0300*%
%ADD25C,0.0360*%
%ADD26C,0.0440*%
%ADD27C,0.0600*%
%ADD28R,0.0300X0.0300*%
%ADD29R,0.0380X0.0380*%
%ADD30R,0.0551X0.0453*%
%ADD31R,0.0631X0.0533*%
%ADD32O,0.0118X0.0354*%
%ADD33O,0.0198X0.0434*%
%ADD34O,0.0354X0.0118*%
%ADD35O,0.0434X0.0198*%
D13*
X16473Y14304D02*
Y14442D01*
X16965Y13891D02*
X17556D01*
X18040Y14300D02*
Y14446D01*
X17556Y14871D02*
X16969D01*
D14*
X20360Y16560D02*
X20710D01*
Y16960D02*
X20360D01*
X20110D02*
X19760D01*
Y16560D02*
X20110D01*
X20710D02*
Y16960D01*
X19760D02*
Y16560D01*
X18860Y15433D02*
Y15083D01*
X18460D02*
Y15433D01*
Y14833D02*
Y14483D01*
X18860D02*
Y14833D01*
Y15433D02*
X18460D01*
Y14483D02*
X18860D01*
X15870Y13660D02*
Y13260D01*
X16820D02*
Y13660D01*
X16220Y13260D02*
X15870D01*
Y13660D02*
X16220D01*
X16470D02*
X16820D01*
Y13260D02*
X16470D01*
X17770D02*
Y13660D01*
X18720D02*
Y13260D01*
X18120D02*
X17770D01*
Y13660D02*
X18120D01*
X18370D02*
X18720D01*
Y13260D02*
X18370D01*
X16228Y17968D02*
Y18368D01*
X17178D02*
Y17968D01*
X16578D02*
X16228D01*
Y18368D02*
X16578D01*
X16828D02*
X17178D01*
Y17968D02*
X16828D01*
X15391Y16988D02*
Y16588D01*
X16341D02*
Y16988D01*
X15741Y16588D02*
X15391D01*
Y16988D02*
X15741D01*
X15991D02*
X16341D01*
Y16588D02*
X15991D01*
X17770Y13660D02*
Y13260D01*
X16820D02*
Y13660D01*
X17420D02*
X17770D01*
Y13260D02*
X17420D01*
X17170D02*
X16820D01*
Y13660D02*
X17170D01*
X18460Y19010D02*
X18860D01*
Y18060D02*
X18460D01*
Y18660D02*
Y19010D01*
X18860D02*
Y18660D01*
Y18410D02*
Y18060D01*
X18460D02*
Y18410D01*
X17509Y18387D02*
Y17987D01*
X18459D02*
Y18387D01*
X17859Y17987D02*
X17509D01*
Y18387D02*
X17859D01*
X18109D02*
X18459D01*
Y17987D02*
X18109D01*
X16600Y15940D02*
Y15790D01*
X16750D01*
X18530Y17580D02*
Y17730D01*
X18380D01*
Y15790D02*
X18530D01*
Y15940D01*
X16650Y17730D02*
X16600Y17680D01*
Y17580D01*
X16650Y17730D02*
X16750D01*
X18109Y18387D02*
X18459D01*
Y18787D02*
X18109D01*
X17859D02*
X17509D01*
Y18387D02*
X17859D01*
X18459D02*
Y18787D01*
X17509D02*
Y18387D01*
X20155Y16881D02*
X20195Y16841D01*
X20155Y16881D02*
X20075D01*
X20035Y16841D01*
Y16681D01*
X20075Y16641D01*
X20155D01*
X20195Y16681D01*
X20275Y16841D02*
X20315Y16881D01*
X20395D01*
X20435Y16841D01*
Y16801D01*
X20436D01*
X20435D02*
X20436D01*
X20435D02*
X20436D01*
X20435D02*
X20395Y16761D01*
X20355D01*
X20395D01*
X20435Y16721D01*
Y16681D01*
X20395Y16641D01*
X20315D01*
X20275Y16681D01*
X15833Y16871D02*
X15791Y16913D01*
X15708D01*
X15666Y16871D01*
Y16704D01*
X15708Y16663D01*
X15791D01*
X15833Y16704D01*
X15916Y16871D02*
X15958Y16913D01*
X16041D01*
X16083Y16871D01*
Y16829D01*
X16041Y16788D01*
X16083Y16746D01*
Y16704D01*
X16041Y16663D01*
X15958D01*
X15916Y16704D01*
Y16746D01*
X15958Y16788D01*
X15916Y16829D01*
Y16871D01*
X15958Y16788D02*
X16041D01*
X16669Y18251D02*
X16628Y18293D01*
X16545D01*
X16503Y18251D01*
Y18084D01*
X16545Y18043D01*
X16628D01*
X16669Y18084D01*
X16753Y18293D02*
X16919D01*
Y18251D01*
X16753Y18084D01*
Y18043D01*
X17919Y18725D02*
X17961Y18683D01*
X17919Y18725D02*
X17836D01*
X17794Y18683D01*
Y18516D01*
X17836Y18475D01*
X17919D01*
X17961Y18516D01*
X18127Y18683D02*
X18211Y18725D01*
X18127Y18683D02*
X18044Y18600D01*
Y18516D01*
X18086Y18475D01*
X18169D01*
X18211Y18516D01*
Y18558D01*
X18169Y18600D01*
X18044D01*
X17899Y18318D02*
X17941Y18276D01*
X17899Y18318D02*
X17816D01*
X17774Y18276D01*
Y18110D01*
X17816Y18068D01*
X17899D01*
X17941Y18110D01*
X18024Y18318D02*
X18191D01*
X18024D02*
Y18193D01*
X18107Y18234D01*
X18149D01*
X18191Y18193D01*
Y18110D01*
X18149Y18068D01*
X18066D01*
X18024Y18110D01*
X18535Y18751D02*
X18785D01*
Y18626D01*
X18743Y18585D01*
X18660D01*
X18618Y18626D01*
Y18751D01*
Y18668D02*
X18535Y18585D01*
Y18501D02*
Y18335D01*
Y18501D02*
X18701Y18335D01*
X18743D01*
X18785Y18376D01*
Y18460D01*
X18743Y18501D01*
X18795Y15043D02*
X18753Y15001D01*
X18795Y15043D02*
Y15126D01*
X18753Y15168D01*
X18586D01*
X18545Y15126D01*
Y15043D01*
X18586Y15001D01*
X18545Y14793D02*
X18795D01*
X18670Y14918D01*
Y14752D01*
X18160Y13585D02*
X18202Y13543D01*
X18160Y13585D02*
X18077D01*
X18035Y13543D01*
Y13376D01*
X18077Y13335D01*
X18160D01*
X18202Y13376D01*
X18285Y13335D02*
X18452D01*
X18285D02*
X18452Y13501D01*
Y13543D01*
X18410Y13585D01*
X18327D01*
X18285Y13543D01*
X17155Y13585D02*
Y13335D01*
Y13585D02*
X17280D01*
X17322Y13543D01*
Y13460D01*
X17280Y13418D01*
X17155D01*
X17238D02*
X17322Y13335D01*
X17405D02*
X17488D01*
X17447D01*
Y13585D01*
X17448D01*
X17447D02*
X17405Y13543D01*
X16362D02*
X16320Y13585D01*
X16237D01*
X16195Y13543D01*
Y13376D01*
X16237Y13335D01*
X16320D01*
X16362Y13376D01*
X16445Y13335D02*
X16528D01*
X16487D01*
Y13585D01*
X16488D01*
X16487D02*
X16445Y13543D01*
X16239Y13899D02*
X16189D01*
X16214D02*
X16239D01*
X16214D02*
Y14049D01*
X16215D01*
X16214D02*
X16189Y14024D01*
D15*
X21523Y16910D02*
X21590Y16843D01*
Y16710D01*
X21523Y16643D01*
X21457D01*
X21458D01*
X21457D02*
X21458D01*
X21457D02*
X21458D01*
X21457D02*
X21390Y16710D01*
Y16777D01*
Y16710D01*
X21323Y16643D01*
X21257D01*
X21190Y16710D01*
Y16843D01*
X21257Y16910D01*
X20440Y16360D02*
Y16093D01*
Y16360D02*
X20707Y16093D01*
X20773D01*
X20840Y16160D01*
Y16293D01*
X20773Y16360D01*
X20440Y17177D02*
Y17310D01*
Y17243D02*
Y17177D01*
Y17243D02*
X20840D01*
X20841D01*
X20840D02*
X20773Y17310D01*
X17332Y16998D02*
Y16665D01*
X17398Y16598D01*
X17532D01*
X17598Y16665D01*
Y16998D01*
X17732Y16598D02*
X17865D01*
X17798D01*
Y16998D01*
X17799D01*
X17798D02*
X17732Y16931D01*
X16989Y14617D02*
X17255Y14217D01*
X16989D02*
X17255Y14617D01*
X17389Y14217D02*
X17522D01*
X17455D01*
Y14617D01*
X17456D01*
X17455D02*
X17389Y14550D01*
D02*
M02*
