*%FSLAX24Y24*%
*%MOIN*%
G01*
%ADD11C,0.0010*%
%ADD12C,0.0030*%
%ADD13C,0.0043*%
%ADD14C,0.0050*%
%ADD15C,0.0060*%
%ADD16C,0.0070*%
%ADD17C,0.0073*%
%ADD18C,0.0080*%
%ADD19C,0.0100*%
%ADD20C,0.0110*%
%ADD21C,0.0118*%
%ADD22C,0.0150*%
%ADD23C,0.0200*%
%ADD24C,0.0300*%
%ADD25C,0.0360*%
%ADD26C,0.0440*%
%ADD27C,0.0600*%
%ADD28R,0.0300X0.0300*%
%ADD29R,0.0380X0.0380*%
%ADD30R,0.0551X0.0453*%
%ADD31R,0.0631X0.0533*%
%ADD32O,0.0118X0.0354*%
%ADD33O,0.0198X0.0434*%
%ADD34O,0.0354X0.0118*%
%ADD35O,0.0434X0.0198*%
D11*
X19360Y16760D02*
X19660D01*
X19510Y16610D02*
Y16910D01*
X19360Y14000D02*
X19660D01*
X19510Y13850D02*
Y14150D01*
X19360Y16080D02*
X19660D01*
X19510Y15930D02*
Y16230D01*
X19360Y17440D02*
X19660D01*
X19510Y17290D02*
Y17590D01*
X19360Y18360D02*
X19660D01*
X19510Y18210D02*
Y18510D01*
X19360Y15150D02*
X19660D01*
X19510Y15000D02*
Y15300D01*
X19360Y19410D02*
X19660D01*
X19510Y19260D02*
Y19560D01*
X19360Y13030D02*
X19660D01*
X19510Y12880D02*
Y13180D01*
X15300Y17920D02*
X15000D01*
X15150Y17770D02*
Y18070D01*
X16500Y13030D02*
X16800D01*
X16650Y12880D02*
Y13180D01*
X18000Y13030D02*
X18300D01*
X18150Y12880D02*
Y13180D01*
X15300Y19410D02*
X15000D01*
X15150Y19260D02*
Y19560D01*
X16500Y19410D02*
X16800D01*
X16650Y19260D02*
Y19560D01*
X18000Y19410D02*
X18300D01*
X18150Y19260D02*
Y19560D01*
X15300Y14990D02*
X15000D01*
X15150Y14840D02*
Y15140D01*
X17910Y16910D02*
X18210D01*
X18060Y16760D02*
Y17060D01*
X17910Y16550D02*
X18210D01*
X18060Y16400D02*
Y16700D01*
X18470Y15720D02*
X18770D01*
X18620Y15570D02*
Y15870D01*
X18470Y17810D02*
X18770D01*
X18620Y17660D02*
Y17960D01*
X18950Y14680D02*
X19250D01*
X19100Y14530D02*
Y14830D01*
X15300Y13030D02*
X15000D01*
X15150Y12880D02*
Y13180D01*
X15950Y14060D02*
X16250D01*
X16100Y13910D02*
Y14210D01*
X17320Y17210D02*
X17620D01*
X17470Y17060D02*
Y17360D01*
X17320Y16300D02*
X17620D01*
X17470Y16150D02*
Y16450D01*
X15780Y13460D02*
X15480D01*
X15630Y13310D02*
Y13610D01*
X18810Y13460D02*
X19110D01*
X18960Y13310D02*
Y13610D01*
X16131Y18168D02*
X15831D01*
X15981Y18018D02*
Y18318D01*
X15950Y14691D02*
X16250D01*
X16100Y14541D02*
Y14841D01*
X18280Y14060D02*
X18580D01*
X18430Y13910D02*
Y14210D01*
X15300Y16788D02*
X15000D01*
X15150Y16638D02*
Y16938D01*
X16960Y17210D02*
X17260D01*
X17110Y17060D02*
Y17360D01*
X16960Y16300D02*
X17260D01*
X17110Y16150D02*
Y16450D01*
X17090Y18650D02*
X17390D01*
X17240Y18500D02*
Y18800D01*
X18950Y18810D02*
X19250D01*
X19100Y18660D02*
Y18960D01*
X20790Y16760D02*
X21090D01*
X20940Y16610D02*
Y16910D01*
X19390Y16760D02*
X19090D01*
X19240Y16610D02*
Y16910D01*
X19180Y15870D02*
X18980D01*
X19080Y15770D02*
Y15970D01*
D02*
M02*
