M72
M48
T1F00S00C0.020
%
T01
X00031Y00031
Y00227
X00126Y00197
Y00134
X00079Y00074
X00181Y00031
X00331
X00412Y00074
X00467Y00031
Y00128
X00426Y00196
X00467Y00243
X00359Y00134
X00378Y003
X00424Y00315
X00467Y00336
Y00404
X0044
X00467Y00472
Y00564
X00426Y00609
X00467Y00669
X00331
X00181
X0024Y00593
X00227Y00449
X00263
X00322Y00419
Y00383
X00263Y00358
X00227
X00114Y00545
X00378Y00509
X0061Y00404
X00031Y00407
Y0052
Y00669
M30
