*%FSLAX24Y24*%
*%MOIN*%
G01*
%ADD11C,0.0010*%
%ADD12C,0.0030*%
%ADD13C,0.0043*%
%ADD14C,0.0050*%
%ADD15C,0.0060*%
%ADD16C,0.0070*%
%ADD17C,0.0073*%
%ADD18C,0.0080*%
%ADD19C,0.0100*%
%ADD20C,0.0110*%
%ADD21C,0.0118*%
%ADD22C,0.0150*%
%ADD23C,0.0200*%
%ADD24C,0.0300*%
%ADD25C,0.0360*%
%ADD26C,0.0440*%
%ADD27C,0.0600*%
%ADD28R,0.0300X0.0300*%
%ADD29R,0.0380X0.0380*%
%ADD30R,0.0551X0.0453*%
%ADD31R,0.0631X0.0533*%
%ADD32O,0.0118X0.0354*%
%ADD33O,0.0198X0.0434*%
%ADD34O,0.0354X0.0118*%
%ADD35O,0.0434X0.0198*%
D11*
X19310Y16560D02*
Y16960D01*
X19710D01*
Y16560D01*
X19310D01*
Y14200D02*
Y13800D01*
Y14200D02*
X19710D01*
Y13800D01*
X19310D01*
Y15880D02*
Y16280D01*
X19710D01*
Y15880D01*
X19310D01*
Y17240D02*
Y17640D01*
X19710D01*
Y17240D01*
X19310D01*
Y18160D02*
Y18560D01*
X19710D01*
Y18160D01*
X19310D01*
Y15350D02*
Y14950D01*
Y15350D02*
X19710D01*
Y14950D01*
X19310D01*
Y19210D02*
Y19610D01*
X19710D01*
Y19210D01*
X19310D01*
Y13230D02*
Y12830D01*
Y13230D02*
X19710D01*
Y12830D01*
X19310D01*
X14950Y17720D02*
Y18120D01*
X15350D01*
Y17720D01*
X14950D01*
X16450Y13230D02*
Y12830D01*
Y13230D02*
X16850D01*
Y12830D01*
X16450D01*
X17950D02*
Y13230D01*
X18350D01*
Y12830D01*
X17950D01*
X14950Y19210D02*
Y19610D01*
X15350D01*
Y19210D01*
X14950D01*
X16450D02*
Y19610D01*
X16850D01*
Y19210D01*
X16450D01*
X17950D02*
Y19610D01*
X18350D01*
Y19210D01*
X17950D01*
X14950Y15190D02*
Y14790D01*
Y15190D02*
X15350D01*
Y14790D01*
X14950D01*
X17860Y16710D02*
Y17110D01*
X18260D01*
Y16710D01*
X17860D01*
Y16750D02*
Y16350D01*
Y16750D02*
X18260D01*
Y16350D01*
X17860D01*
X18420Y15920D02*
Y15520D01*
Y15920D02*
X18820D01*
Y15520D01*
X18420D01*
Y17610D02*
Y18010D01*
X18820D01*
Y17610D01*
X18420D01*
X18900Y14880D02*
Y14480D01*
Y14880D02*
X19300D01*
Y14480D01*
X18900D01*
X14950Y13230D02*
Y12830D01*
Y13230D02*
X15350D01*
Y12830D01*
X14950D01*
X15900Y13860D02*
Y14260D01*
X16300D01*
Y13860D01*
X15900D01*
X17270Y17010D02*
Y17410D01*
X17670D01*
Y17010D01*
X17270D01*
Y16500D02*
Y16100D01*
Y16500D02*
X17670D01*
Y16100D01*
X17270D01*
X15430Y13660D02*
Y13260D01*
Y13660D02*
X15830D01*
Y13260D01*
X15430D01*
X18760D02*
Y13660D01*
X19160D01*
Y13260D01*
X18760D01*
X15781Y17968D02*
Y18368D01*
X16181D01*
Y17968D01*
X15781D01*
X15900Y14891D02*
Y14491D01*
Y14891D02*
X16300D01*
Y14491D01*
X15900D01*
X18230Y14260D02*
Y13860D01*
Y14260D02*
X18630D01*
Y13860D01*
X18230D01*
X14950Y16588D02*
Y16988D01*
X15350D01*
Y16588D01*
X14950D01*
X16910Y17010D02*
Y17410D01*
X17310D01*
Y17010D01*
X16910D01*
Y16500D02*
Y16100D01*
Y16500D02*
X17310D01*
Y16100D01*
X16910D01*
X17040Y18450D02*
Y18850D01*
X17440D01*
Y18450D01*
X17040D01*
X18900Y18610D02*
Y19010D01*
X19300D01*
Y18610D01*
X18900D01*
X20740Y16960D02*
Y16560D01*
Y16960D02*
X21140D01*
Y16560D01*
X20740D01*
X19040D02*
Y16960D01*
X19440D01*
Y16560D01*
X19040D01*
X18880Y16070D02*
Y15670D01*
Y16070D02*
X19280D01*
Y15670D01*
X18880D01*
D02*
M02*
