%FSLAX24Y24*%
%MOIN*%
G70*
G01*
G75*
G04 Layer_Color=8388736*
G04 Layer_Color=8388736*
%ADD10R,0.0300X0.0300*%
%ADD11O,0.0118X0.0354*%
%ADD12O,0.0354X0.0118*%
%ADD13R,0.0551X0.0453*%
%ADD14C,0.0300*%
%ADD15C,0.0080*%
%ADD16C,0.0060*%
%ADD17C,0.0070*%
%ADD18C,0.0100*%
%ADD19C,0.0110*%
%ADD20C,0.0200*%
%ADD21C,0.0360*%
%ADD22C,0.0050*%
%ADD23C,0.0043*%
%ADD24R,0.0380X0.0380*%
%ADD25O,0.0198X0.0434*%
%ADD26O,0.0434X0.0198*%
%ADD27R,0.0631X0.0533*%
%ADD28C,0.0440*%
D24*
X6650Y4720D02*
D03*
X4720D02*
D03*
X5670D02*
D03*
X4870Y2970D02*
D03*
X6650Y5270D02*
D03*
X751Y4068D02*
D03*
X1301D02*
D03*
X2869Y5867D02*
D03*
X3419D02*
D03*
X2869Y5467D02*
D03*
X3419D02*
D03*
X1230Y740D02*
D03*
X1780D02*
D03*
X5270Y4720D02*
D03*
X1588Y5448D02*
D03*
X2138D02*
D03*
X4870Y2420D02*
D03*
X5270Y3770D02*
D03*
X4720Y3770D02*
D03*
X5270Y2420D02*
D03*
Y2970D02*
D03*
X5270Y3370D02*
D03*
X4720Y3370D02*
D03*
X6220Y4720D02*
D03*
X4320Y4320D02*
D03*
Y3770D02*
D03*
X3820Y6090D02*
D03*
X3680Y740D02*
D03*
X3820Y5540D02*
D03*
X2730Y740D02*
D03*
X3130D02*
D03*
X2180D02*
D03*
X4720Y4320D02*
D03*
X5270Y4320D02*
D03*
D25*
X2238Y5001D02*
D03*
X2041D02*
D03*
X2828D02*
D03*
X3025D02*
D03*
X2435D02*
D03*
X2632D02*
D03*
X3222D02*
D03*
X3419D02*
D03*
Y3079D02*
D03*
X2632D02*
D03*
X2435D02*
D03*
X3222D02*
D03*
X3025D02*
D03*
X2828D02*
D03*
X2238D02*
D03*
X2041D02*
D03*
D26*
X3691Y3745D02*
D03*
X1769Y3351D02*
D03*
Y4138D02*
D03*
Y4335D02*
D03*
Y3548D02*
D03*
Y3745D02*
D03*
Y3942D02*
D03*
Y4532D02*
D03*
Y4729D02*
D03*
X3691D02*
D03*
Y3942D02*
D03*
Y4532D02*
D03*
Y4335D02*
D03*
Y4138D02*
D03*
Y3548D02*
D03*
Y3351D02*
D03*
D27*
X1830Y1971D02*
D03*
X3010Y1340D02*
D03*
Y1971D02*
D03*
X1830Y1340D02*
D03*
D28*
X6840Y3000D02*
D03*
X6650Y5700D02*
D03*
X6090Y5600D02*
D03*
X6840Y6690D02*
D03*
X5207D02*
D03*
X3575D02*
D03*
X4260Y6090D02*
D03*
X4450Y5600D02*
D03*
X3780Y5090D02*
D03*
X3220Y4190D02*
D03*
Y3830D02*
D03*
X3740Y2780D02*
D03*
X3380Y2470D02*
D03*
X4260Y1960D02*
D03*
X5790Y1340D02*
D03*
X6840Y1700D02*
D03*
Y310D02*
D03*
X5207D02*
D03*
X4120Y740D02*
D03*
X3590Y1340D02*
D03*
X3575Y310D02*
D03*
X1943D02*
D03*
X310D02*
D03*
X790Y740D02*
D03*
X1260Y1340D02*
D03*
Y1971D02*
D03*
X310Y2270D02*
D03*
X2630Y3580D02*
D03*
X2270D02*
D03*
X2630Y4490D02*
D03*
X2270D02*
D03*
X310Y4068D02*
D03*
X2400Y5930D02*
D03*
X1141Y5448D02*
D03*
X310Y5200D02*
D03*
X1943Y6690D02*
D03*
X310D02*
D03*
X5520Y3840D02*
D03*
Y4250D02*
D03*
X6340Y2340D02*
D03*
X6840Y4180D02*
D03*
X5270Y2000D02*
D03*
X4870D02*
D03*
X5290Y5600D02*
D03*
M02*
