%FSLAX24Y24*%
%MOIN*%
G70*
G01*
G75*
G04 Layer_Physical_Order=1*
G04 Layer_Color=255*
%ADD10R,0.0300X0.0300*%
%ADD11O,0.0118X0.0354*%
%ADD12O,0.0354X0.0118*%
%ADD13R,0.0551X0.0453*%
%ADD14C,0.0300*%
%ADD15C,0.0080*%
%ADD16C,0.0060*%
%ADD17C,0.0070*%
%ADD18C,0.0100*%
%ADD19C,0.0110*%
%ADD20C,0.0200*%
%ADD21C,0.0360*%
D10*
X6650Y4720D02*
D03*
X4720D02*
D03*
X5670D02*
D03*
X4870Y2970D02*
D03*
X6650Y5270D02*
D03*
X751Y4068D02*
D03*
X1301D02*
D03*
X2869Y5867D02*
D03*
X3419D02*
D03*
X2869Y5467D02*
D03*
X3419D02*
D03*
X1230Y740D02*
D03*
X1780D02*
D03*
X5270Y4720D02*
D03*
X1588Y5448D02*
D03*
X2138D02*
D03*
X4870Y2420D02*
D03*
X5270Y3770D02*
D03*
X4720Y3770D02*
D03*
X5270Y2420D02*
D03*
Y2970D02*
D03*
X5270Y3370D02*
D03*
X4720Y3370D02*
D03*
X6220Y4720D02*
D03*
X4320Y4320D02*
D03*
Y3770D02*
D03*
X3820Y6090D02*
D03*
X3680Y740D02*
D03*
X3820Y5540D02*
D03*
X2730Y740D02*
D03*
X3130D02*
D03*
X2180D02*
D03*
X4720Y4320D02*
D03*
X5270Y4320D02*
D03*
D11*
X2238Y5001D02*
D03*
X2041D02*
D03*
X2828D02*
D03*
X3025D02*
D03*
X2435D02*
D03*
X2632D02*
D03*
X3222D02*
D03*
X3419D02*
D03*
Y3079D02*
D03*
X2632D02*
D03*
X2435D02*
D03*
X3222D02*
D03*
X3025D02*
D03*
X2828D02*
D03*
X2238D02*
D03*
X2041D02*
D03*
D12*
X3691Y3745D02*
D03*
X1769Y3351D02*
D03*
Y4138D02*
D03*
Y4335D02*
D03*
Y3548D02*
D03*
Y3745D02*
D03*
Y3942D02*
D03*
Y4532D02*
D03*
Y4729D02*
D03*
X3691D02*
D03*
Y3942D02*
D03*
Y4532D02*
D03*
Y4335D02*
D03*
Y4138D02*
D03*
Y3548D02*
D03*
Y3351D02*
D03*
D13*
X1830Y1971D02*
D03*
X3010Y1340D02*
D03*
Y1971D02*
D03*
X1830Y1340D02*
D03*
D14*
X6220Y4720D02*
X6915D01*
X3419Y5467D02*
Y5867D01*
D15*
X5270Y4720D02*
X5670D01*
X4720Y4320D02*
Y4720D01*
Y3370D02*
Y3770D01*
X5270Y2970D02*
Y3370D01*
X4870Y2970D02*
X5270D01*
X4870Y2970D02*
X4870Y2970D01*
X4529Y2970D02*
X4870D01*
X4010Y3489D02*
X4529Y2970D01*
X3905Y3745D02*
X4010Y3640D01*
Y3489D02*
Y3640D01*
X4717Y4317D02*
X4720Y4320D01*
X4322Y4317D02*
X4717D01*
X3643Y3930D02*
X4155D01*
X4320Y3765D01*
Y3770D02*
X4320Y3770D01*
X4720D01*
X3691Y4138D02*
X4143D01*
X4322Y4317D01*
X1490Y2340D02*
X2280D01*
X1240Y2590D02*
X1490Y2340D01*
X170Y2590D02*
X1240D01*
X1590Y2490D02*
X2230D01*
X1300Y2780D02*
X1590Y2490D01*
X170Y2780D02*
X1300D01*
X1690Y2640D02*
X2180D01*
X170Y2970D02*
X1360D01*
X1690Y2640D01*
X170Y3160D02*
X1420D01*
X1790Y2790D01*
X2130D01*
X3691Y4532D02*
X3912D01*
X2280Y839D02*
Y2066D01*
X1830Y1340D02*
X2280D01*
X2180Y740D02*
X2279Y839D01*
X2280D01*
X2580Y890D02*
X2730Y740D01*
X170Y4717D02*
X1680D01*
X170Y4877D02*
X1240D01*
X1364Y5001D01*
X2041D01*
X170Y4532D02*
X1769D01*
X2828Y2888D02*
Y3079D01*
X2280Y2340D02*
X2828Y2888D01*
X2632Y2892D02*
Y3079D01*
X2230Y2490D02*
X2632Y2892D01*
X2435Y2895D02*
Y3079D01*
X2180Y2640D02*
X2435Y2895D01*
X2238Y2898D02*
Y3079D01*
X2130Y2790D02*
X2238Y2898D01*
X170Y3351D02*
X1769D01*
X170Y3548D02*
X1769D01*
X1535Y4335D02*
X1769D01*
X1498Y4372D02*
X1535Y4335D01*
X170Y3745D02*
X1769D01*
X3222Y2782D02*
Y3079D01*
X3010Y2570D02*
X3222Y2782D01*
X3025Y2812D02*
Y3079D01*
X2711Y1971D02*
X3010D01*
X2580Y1840D02*
X2711Y1971D01*
X2580Y890D02*
Y1840D01*
X2280Y2066D02*
X3025Y2812D01*
X3010Y1971D02*
Y2570D01*
X1780Y740D02*
X2180D01*
X2730D02*
X3130D01*
X4080Y4700D02*
Y5280D01*
X3820Y5540D02*
X4080Y5280D01*
X3912Y4532D02*
X4080Y4700D01*
X170Y4372D02*
X1498D01*
X3691Y3745D02*
X3905D01*
D16*
X2938Y4118D02*
X3549Y4729D01*
X2938Y3977D02*
Y4118D01*
X3549Y4729D02*
X3691D01*
D17*
X3379Y4481D02*
Y4557D01*
X3820Y2180D02*
X4625D01*
X3820Y2230D02*
X4625D01*
X3820Y2280D02*
X4625D01*
X3820Y2330D02*
X4625D01*
X3820Y2380D02*
X4625D01*
X3820Y2430D02*
X4625D01*
X3820Y2480D02*
X4625D01*
X3820Y2530D02*
X4625D01*
X3820Y2580D02*
X4625D01*
Y2175D02*
Y2665D01*
X3820Y2630D02*
X4625D01*
X4660Y2665D02*
Y2725D01*
X4710Y2665D02*
Y2725D01*
X4760Y2665D02*
Y2725D01*
X4810Y2665D02*
Y2725D01*
X4860Y2665D02*
Y2725D01*
X3820Y2150D02*
Y3197D01*
X3860Y2150D02*
Y3197D01*
X3960Y2150D02*
Y2912D01*
X3910Y2150D02*
Y2950D01*
X4060Y2150D02*
Y2836D01*
X4010Y2150D02*
Y2874D01*
X4160Y2150D02*
Y2760D01*
X4110Y2150D02*
Y2798D01*
X4210Y2150D02*
Y2730D01*
X4260Y2150D02*
Y2730D01*
X4310Y2150D02*
Y2730D01*
X4360Y2150D02*
Y2730D01*
X4410Y2150D02*
Y2730D01*
X4460Y2150D02*
Y2730D01*
X4510Y2150D02*
Y2730D01*
X4560Y2150D02*
Y2730D01*
X4610Y2150D02*
Y2730D01*
X4625Y2175D02*
X5025D01*
X5115D01*
X3820Y2150D02*
X6990D01*
X5025Y2175D02*
X5115D01*
X4625Y2665D02*
X5025D01*
X5115Y2175D02*
X5515D01*
Y2430D02*
X6990D01*
X5515Y2480D02*
X6990D01*
X5515Y2530D02*
X6990D01*
X5515Y2580D02*
X6990D01*
X5515Y2630D02*
X6990D01*
X4910Y2665D02*
Y2725D01*
X4960Y2665D02*
Y2725D01*
X5025Y2665D02*
X5115D01*
X5010D02*
Y2725D01*
X5060Y2665D02*
Y2725D01*
X5110Y2665D02*
Y2725D01*
X5025Y2665D02*
X5115D01*
X5515D01*
X5160D02*
Y2725D01*
X5210Y2665D02*
Y2725D01*
X5515Y2175D02*
Y2665D01*
X5260D02*
Y2725D01*
X5310Y2665D02*
Y2725D01*
X5360Y2665D02*
Y2725D01*
X5410Y2665D02*
Y2725D01*
X5460Y2665D02*
Y2725D01*
X5510Y2665D02*
Y2725D01*
X3820Y2830D02*
X4068D01*
X3820Y2880D02*
X4002D01*
X3820Y2730D02*
X4200D01*
X3820Y2780D02*
X4134D01*
X3820Y3030D02*
X3870D01*
X3820Y3080D02*
X3869D01*
X3820Y2930D02*
X3936D01*
X3820Y2980D02*
X3870D01*
X3820Y3130D02*
X3869D01*
X3820Y3180D02*
X3868D01*
X3870Y2980D02*
X4200Y2730D01*
X3868Y3197D02*
X3870Y2980D01*
X3820Y4930D02*
X3854D01*
X3820Y4980D02*
X3854D01*
X3820Y3197D02*
X3868D01*
X3820Y4883D02*
X3854D01*
X3820Y5130D02*
X3852D01*
X3820Y4883D02*
Y5295D01*
Y5030D02*
X3853D01*
X3820Y5080D02*
X3853D01*
X3820Y5280D02*
X3851D01*
X3820Y5295D02*
X3851D01*
X3820Y5180D02*
X3852D01*
X3820Y5230D02*
X3851D01*
X3851Y5295D02*
X3854Y4883D01*
X4160Y5410D02*
Y5550D01*
X4210Y5410D02*
Y5550D01*
X4260Y5410D02*
Y5550D01*
X4065Y5497D02*
Y5550D01*
X4110Y5452D02*
Y5550D01*
X4065Y5497D02*
X4148Y5415D01*
X4310Y5410D02*
Y5550D01*
X4360Y5410D02*
Y5550D01*
X4200Y2730D02*
X4625D01*
X4410Y5410D02*
Y5550D01*
X3820Y2680D02*
X6990D01*
X4153Y5410D02*
X6405D01*
X4132Y5430D02*
X6405D01*
X4460Y5410D02*
Y5550D01*
X4083Y5480D02*
X6405D01*
X4065Y5530D02*
X6990D01*
X4625Y2725D02*
X5025D01*
X5115D01*
X5025Y2725D02*
X5515D01*
Y2730D02*
X6560D01*
X4510Y5410D02*
Y5550D01*
X4560Y5410D02*
Y5550D01*
X4610Y5410D02*
Y5550D01*
X4660Y5410D02*
Y5550D01*
X4710Y5410D02*
Y5550D01*
X4760Y5410D02*
Y5550D01*
X4810Y5410D02*
Y5550D01*
X4860Y5410D02*
Y5550D01*
X4910Y5410D02*
Y5550D01*
X4960Y5410D02*
Y5550D01*
X5010Y5410D02*
Y5550D01*
X5060Y5410D02*
Y5550D01*
X4065D02*
X6990D01*
X5110Y5410D02*
Y5550D01*
X5160Y5410D02*
Y5550D01*
X5210Y5410D02*
Y5550D01*
X5260Y5410D02*
Y5550D01*
X5310Y5410D02*
Y5550D01*
X5360Y5410D02*
Y5550D01*
X5410Y5410D02*
Y5550D01*
X5460Y5410D02*
Y5550D01*
X5510Y5410D02*
Y5550D01*
X5560Y2150D02*
Y2730D01*
X5610Y2150D02*
Y2730D01*
X5660Y2150D02*
Y2730D01*
X5710Y2150D02*
Y2730D01*
X5760Y2150D02*
Y2730D01*
X5810Y2150D02*
Y2730D01*
X5515Y2180D02*
X6990D01*
X5860Y2150D02*
Y2730D01*
X5910Y2150D02*
Y2730D01*
X5960Y2150D02*
Y2730D01*
X6010Y2150D02*
Y2730D01*
X6060Y2150D02*
Y2730D01*
X6110Y2150D02*
Y2730D01*
X6160Y2150D02*
Y2730D01*
X6210Y2150D02*
Y2730D01*
X6260Y2150D02*
Y2730D01*
X6310Y2150D02*
Y2730D01*
X6360Y2150D02*
Y2730D01*
X6410Y2150D02*
Y2730D01*
X6460Y2150D02*
Y2730D01*
X6510Y2150D02*
Y2730D01*
X6560Y2150D02*
Y2730D01*
Y4475D01*
Y2730D02*
Y4475D01*
X6610Y2150D02*
Y4475D01*
X6660Y2150D02*
Y4475D01*
X6710Y2150D02*
Y4475D01*
X6760Y2150D02*
Y4475D01*
X6810Y2150D02*
Y4475D01*
X6860Y2150D02*
Y4475D01*
X6910Y2150D02*
Y4475D01*
X6960Y2150D02*
Y4475D01*
X6990Y2150D02*
Y4475D01*
X5515Y2230D02*
X6990D01*
X5515Y2280D02*
X6990D01*
X5515Y2330D02*
X6990D01*
X5515Y2380D02*
X6990D01*
X6560Y2730D02*
X6990D01*
X6560Y2780D02*
X6990D01*
X6560Y2830D02*
X6990D01*
X6560Y2880D02*
X6990D01*
X6560Y2930D02*
X6990D01*
X6560Y2980D02*
X6990D01*
X6560Y3030D02*
X6990D01*
X6560Y3080D02*
X6990D01*
X6560Y3130D02*
X6990D01*
X6560Y3180D02*
X6990D01*
X6560Y3230D02*
X6990D01*
X6560Y3280D02*
X6990D01*
X6560Y3330D02*
X6990D01*
X6560Y3380D02*
X6990D01*
X6560Y3430D02*
X6990D01*
X6560Y3480D02*
X6990D01*
X6560Y3530D02*
X6990D01*
X6560Y3580D02*
X6990D01*
X6560Y3630D02*
X6990D01*
X6560Y3680D02*
X6990D01*
X6560Y3730D02*
X6990D01*
X6560Y3780D02*
X6990D01*
X6560Y3830D02*
X6990D01*
X6560Y3880D02*
X6990D01*
X6560Y3930D02*
X6990D01*
X6560Y3980D02*
X6990D01*
X6560Y4030D02*
X6990D01*
X6560Y4080D02*
X6990D01*
X6560Y4130D02*
X6990D01*
X6560Y4180D02*
X6990D01*
X5560Y5410D02*
Y5550D01*
X5610Y5410D02*
Y5550D01*
X5660Y5410D02*
Y5550D01*
X5710Y5410D02*
Y5550D01*
X5760Y5410D02*
Y5550D01*
X5810Y5410D02*
Y5550D01*
X6405Y5410D02*
Y5515D01*
X5860Y5410D02*
Y5550D01*
X6560Y4965D02*
Y5025D01*
Y4965D02*
Y5025D01*
X6610Y4965D02*
Y5025D01*
X6660Y4965D02*
Y5025D01*
X6710Y4965D02*
Y5025D01*
X6760Y4965D02*
Y5025D01*
X5910Y5410D02*
Y5550D01*
X5960Y5410D02*
Y5550D01*
X6010Y5410D02*
Y5550D01*
X6060Y5410D02*
Y5550D01*
X6110Y5410D02*
Y5550D01*
X6160Y5410D02*
Y5550D01*
X6210Y5410D02*
Y5550D01*
X6260Y5410D02*
Y5550D01*
X6310Y5410D02*
Y5550D01*
X6360Y5410D02*
Y5550D01*
X6410Y5515D02*
Y5550D01*
X6460Y5515D02*
Y5550D01*
X6510Y5515D02*
Y5550D01*
X6560Y5515D02*
Y5550D01*
X6610Y5515D02*
Y5550D01*
X6660Y5515D02*
Y5550D01*
X6710Y5515D02*
Y5550D01*
X6560Y4230D02*
X6990D01*
X6560Y4280D02*
X6990D01*
X6560Y4330D02*
X6990D01*
X6560Y4380D02*
X6990D01*
X6560Y4475D02*
X6895D01*
X6560D02*
X6895D01*
X6560Y4430D02*
X6990D01*
X6560Y4965D02*
X6895D01*
X6810D02*
Y5025D01*
X6860Y4965D02*
Y5025D01*
X6895Y4475D02*
X6990D01*
X6560Y4965D02*
X6895D01*
X6990D01*
X6560Y5025D02*
X6895D01*
X6560Y4980D02*
X6990D01*
X6895Y5030D02*
X6990D01*
X6895Y5080D02*
X6990D01*
X6895Y5130D02*
X6990D01*
X6895Y5180D02*
X6990D01*
X6895Y5230D02*
X6990D01*
X6760Y5515D02*
Y5550D01*
X6810Y5515D02*
Y5550D01*
X6405Y5515D02*
X6895D01*
X6860D02*
Y5550D01*
X6895Y5025D02*
Y5515D01*
X6910Y4965D02*
Y5550D01*
X6960Y4965D02*
Y5550D01*
X6990Y4965D02*
Y5550D01*
X6895Y5280D02*
X6990D01*
X6895Y5330D02*
X6990D01*
X6895Y5380D02*
X6990D01*
X6895Y5430D02*
X6990D01*
X6895Y5480D02*
X6990D01*
X160Y480D02*
X945D01*
X160Y530D02*
X945D01*
X160Y580D02*
X945D01*
X160Y630D02*
X945D01*
X160Y680D02*
X945D01*
X160Y730D02*
X945D01*
X160Y780D02*
X945D01*
X160Y830D02*
X945D01*
X160Y880D02*
X945D01*
X160Y930D02*
X945D01*
X160Y980D02*
X945D01*
X160Y1030D02*
X1419D01*
X160Y1080D02*
X1419D01*
X160Y1130D02*
X1419D01*
X160Y1180D02*
X1419D01*
X160Y1230D02*
X1419D01*
X160Y1280D02*
X1419D01*
X160Y1330D02*
X1419D01*
X160Y1380D02*
X1419D01*
X160Y1430D02*
X1419D01*
X160Y1480D02*
X1419D01*
X160Y1530D02*
X1419D01*
X160Y1580D02*
X1419D01*
X160Y1630D02*
X1419D01*
X960Y160D02*
Y455D01*
X1010Y160D02*
Y455D01*
X1060Y160D02*
Y455D01*
X945D02*
Y1025D01*
X1110Y160D02*
Y455D01*
X1160Y160D02*
Y455D01*
X1210Y160D02*
Y455D01*
X1260Y160D02*
Y455D01*
X1310Y160D02*
Y455D01*
X1360Y160D02*
Y455D01*
X1410Y160D02*
Y455D01*
X160Y2180D02*
X1388D01*
X160Y2230D02*
X1338D01*
X1360Y1025D02*
Y2208D01*
X1315Y2253D02*
X1402Y2165D01*
X160Y1680D02*
X1419D01*
X945Y1025D02*
X1419D01*
Y1609D01*
Y1701D01*
Y1609D02*
Y1701D01*
Y2165D01*
X160Y160D02*
Y2415D01*
Y160D02*
Y2415D01*
X210Y160D02*
Y2415D01*
X160Y3920D02*
Y4197D01*
X260Y160D02*
Y2415D01*
X310Y160D02*
Y2415D01*
X160Y2280D02*
X1287D01*
X160Y2330D02*
X1238D01*
X160Y2380D02*
X1187D01*
X160Y2415D02*
X1152D01*
X360Y160D02*
Y2415D01*
X160Y3920D02*
X466D01*
X160Y3930D02*
X466D01*
X160Y3920D02*
Y4197D01*
X210Y3920D02*
Y4197D01*
X260Y3920D02*
Y4197D01*
X310Y3920D02*
Y4197D01*
X360Y3920D02*
Y4197D01*
X160Y3980D02*
X466D01*
X160Y4030D02*
X466D01*
X160Y4080D02*
X466D01*
X160Y4130D02*
X466D01*
X160Y4180D02*
X466D01*
X160Y4197D02*
X466D01*
X410Y160D02*
Y2415D01*
X460Y160D02*
Y2415D01*
X510Y160D02*
Y2415D01*
X560Y160D02*
Y2415D01*
X610Y160D02*
Y2415D01*
X660Y160D02*
Y2415D01*
X710Y160D02*
Y2415D01*
X760Y160D02*
Y2415D01*
X810Y160D02*
Y2415D01*
X860Y160D02*
Y2415D01*
X910Y160D02*
Y2415D01*
X960Y1025D02*
Y2415D01*
X1010Y1025D02*
Y2415D01*
X1060Y1025D02*
Y2415D01*
X410Y3920D02*
Y4197D01*
X460Y3920D02*
Y4197D01*
X466Y3920D02*
Y4197D01*
X1260Y1025D02*
Y2307D01*
X1310Y1025D02*
Y2257D01*
X1315Y2253D02*
X1402Y2165D01*
X1110Y1025D02*
Y2415D01*
X1152D02*
X1315Y2253D01*
X1160Y1025D02*
Y2407D01*
X1210Y1025D02*
Y2358D01*
X160Y160D02*
X6990D01*
X1460D02*
Y455D01*
X1560Y160D02*
Y455D01*
X1610Y160D02*
Y455D01*
X1660Y160D02*
Y455D01*
X1710Y160D02*
Y455D01*
X160Y180D02*
X6990D01*
X160Y230D02*
X6990D01*
X160Y280D02*
X6990D01*
X160Y330D02*
X6990D01*
X160Y380D02*
X6990D01*
X160Y430D02*
X6990D01*
X160Y1730D02*
X1419D01*
X160Y1780D02*
X1419D01*
X160Y1830D02*
X1419D01*
X160Y1880D02*
X1419D01*
X160Y1930D02*
X1419D01*
X160Y1980D02*
X1419D01*
X945Y455D02*
X1495D01*
X1515D02*
X1895D01*
X160Y2030D02*
X1419D01*
X160Y2080D02*
X1419D01*
X160Y2130D02*
X1419D01*
X1760Y160D02*
Y455D01*
X1810Y160D02*
Y455D01*
X1860Y160D02*
Y455D01*
X1910Y160D02*
Y455D01*
X1960Y160D02*
Y455D01*
X2010Y160D02*
Y455D01*
X2060Y160D02*
Y455D01*
X2110Y160D02*
Y455D01*
X2160Y160D02*
Y455D01*
X2210Y160D02*
Y455D01*
X2260Y160D02*
Y455D01*
X2310Y160D02*
Y455D01*
X1895D02*
X2065D01*
X2360Y160D02*
Y455D01*
X1895D02*
X2065D01*
X2081Y3391D02*
X2138D01*
X2410Y160D02*
Y455D01*
X2141Y3391D02*
X2335D01*
X2065Y455D02*
X2445D01*
X2510Y160D02*
Y455D01*
X2560Y160D02*
Y455D01*
X2465D02*
X2845D01*
X2338Y3391D02*
X2532D01*
X2610Y160D02*
Y455D01*
X2660Y160D02*
Y455D01*
X2081Y3391D02*
Y3448D01*
Y3451D02*
Y3645D01*
Y3648D02*
Y3842D01*
X2110Y3391D02*
Y3948D01*
X2160Y3391D02*
Y3948D01*
X2210Y3391D02*
Y3948D01*
X2081Y3430D02*
X2915D01*
X2081Y3480D02*
X2865D01*
X2081Y3530D02*
X2815D01*
X2081Y3580D02*
X2765D01*
X2081Y3630D02*
X2715D01*
X2081Y3680D02*
X2665D01*
X2081Y3830D02*
X2558D01*
X2081Y3845D02*
Y3948D01*
Y3880D02*
X2558D01*
X2081Y4328D02*
Y4432D01*
X2110Y4328D02*
Y4689D01*
X2160Y4328D02*
Y4689D01*
X2081Y3730D02*
X2615D01*
X2081Y3780D02*
X2565D01*
X2081Y3930D02*
X2558D01*
X2081Y3948D02*
X2558D01*
X2081Y4328D02*
X2653D01*
X2081Y4330D02*
X2655D01*
X2260Y3391D02*
Y3948D01*
X2310Y3391D02*
Y3948D01*
X2360Y3391D02*
Y3948D01*
X2410Y3391D02*
Y3948D01*
X2460Y3391D02*
Y3948D01*
X2510Y3391D02*
Y3948D01*
X2535Y3391D02*
X2729D01*
X2653Y3692D02*
X2954Y3391D01*
X2660D02*
Y3685D01*
X2558Y3787D02*
X2653Y3692D01*
X2560Y3391D02*
Y3785D01*
X2610Y3391D02*
Y3735D01*
X2210Y4328D02*
Y4689D01*
X2260Y4328D02*
Y4689D01*
X2310Y4328D02*
Y4689D01*
X2360Y4328D02*
Y4689D01*
X2410Y4328D02*
Y4689D01*
X2460Y4328D02*
Y4689D01*
X2558Y3787D02*
X2653Y3692D01*
X2558Y3787D02*
Y3948D01*
Y3787D02*
Y3948D01*
X2510Y4328D02*
Y4689D01*
X2560Y4328D02*
Y4689D01*
X2610Y4328D02*
Y4689D01*
X2653Y4328D02*
X2829Y4504D01*
X160Y5052D02*
Y5345D01*
Y5052D02*
Y5345D01*
X210Y5052D02*
Y5345D01*
X260Y5052D02*
Y5345D01*
X310Y5052D02*
Y5345D01*
X360Y5052D02*
Y5345D01*
X160Y5052D02*
X1152D01*
X410D02*
Y5345D01*
X460Y5052D02*
Y5345D01*
X510Y5052D02*
Y5345D01*
X560Y5052D02*
Y5345D01*
X610Y5052D02*
Y5345D01*
X160D02*
X593D01*
X660Y5052D02*
Y5345D01*
X710Y5052D02*
Y5345D01*
X160Y5815D02*
X593D01*
Y5345D02*
X828D01*
X593D02*
X828D01*
X160Y5080D02*
X1181D01*
X160Y5130D02*
X1231D01*
X160Y5180D02*
X1303D01*
X160Y5230D02*
X1303D01*
X160Y5280D02*
X1303D01*
X160Y5330D02*
X1303D01*
X760Y5052D02*
Y5345D01*
X810Y5052D02*
Y5345D01*
X860Y5052D02*
Y5378D01*
X910Y5052D02*
Y5428D01*
X960Y5052D02*
Y5477D01*
X1010Y5052D02*
Y5527D01*
X1152Y5052D02*
X1189Y5089D01*
X1277Y5176D01*
X1189Y5089D02*
X1277Y5176D01*
X1060Y5052D02*
Y5577D01*
X1110Y5052D02*
Y5627D01*
X1160Y5059D02*
Y5677D01*
X828Y5345D02*
X945Y5462D01*
X828Y5345D02*
X945Y5462D01*
X862Y5380D02*
X1303D01*
X1210Y5109D02*
Y5727D01*
X1260Y5159D02*
Y5778D01*
X1303Y5176D02*
Y5733D01*
X913Y5430D02*
X1303D01*
X962Y5480D02*
X1303D01*
X1013Y5530D02*
X1303D01*
X1063Y5580D02*
X1303D01*
X1112Y5630D02*
X1303D01*
X1163Y5680D02*
X1303D01*
X1213Y5730D02*
X1303D01*
X160Y5815D02*
Y6840D01*
Y5815D02*
Y6840D01*
X210Y5815D02*
Y6840D01*
X260Y5815D02*
Y6840D01*
X310Y5815D02*
Y6840D01*
X360Y5815D02*
Y6840D01*
X160Y5830D02*
X608D01*
X160Y5880D02*
X658D01*
X160Y5930D02*
X707D01*
X410Y5815D02*
Y6840D01*
X460Y5815D02*
Y6840D01*
X510Y5815D02*
Y6840D01*
X160Y5980D02*
X758D01*
X160Y6030D02*
X808D01*
X160Y6080D02*
X857D01*
X160Y6130D02*
X908D01*
X160Y6180D02*
X957D01*
X160Y6230D02*
X1007D01*
X160Y6280D02*
X1058D01*
X160Y6330D02*
X1107D01*
X160Y6380D02*
X1157D01*
X160Y6430D02*
X1208D01*
X160Y6480D02*
X1258D01*
X160Y6530D02*
X1308D01*
X560Y5815D02*
Y6840D01*
X610Y5832D02*
Y6840D01*
X660Y5882D02*
Y6840D01*
X710Y5932D02*
Y6840D01*
X760Y5982D02*
Y6840D01*
X810Y6033D02*
Y6840D01*
X1310Y5733D02*
Y5828D01*
X1360Y5733D02*
Y5878D01*
X1410Y5733D02*
Y5928D01*
X593Y5815D02*
X1205Y6428D01*
X1460Y5733D02*
Y5978D01*
X860Y6083D02*
Y6840D01*
X910Y6133D02*
Y6840D01*
X960Y6183D02*
Y6840D01*
X1010Y6233D02*
Y6840D01*
X1060Y6283D02*
Y6840D01*
X1110Y6332D02*
Y6840D01*
X1160Y6382D02*
Y6840D01*
X1205Y6428D02*
X1322Y6545D01*
X1205Y6428D02*
X1322Y6545D01*
X1210Y6432D02*
Y6840D01*
X1260Y6482D02*
Y6840D01*
X1310Y6532D02*
Y6840D01*
X1360Y6545D02*
Y6840D01*
X1410Y6545D02*
Y6840D01*
X1510Y5733D02*
Y6028D01*
X945Y5462D02*
X1558Y6075D01*
X1560Y5733D02*
Y6075D01*
X1610Y5733D02*
Y6075D01*
X2081Y4380D02*
X2705D01*
X2081Y4430D02*
X2755D01*
X2081Y4480D02*
X2805D01*
X1303Y5733D02*
X1853D01*
X1660D02*
Y6075D01*
X1710Y5733D02*
Y6075D01*
X1760Y5733D02*
Y6075D01*
X1810Y5733D02*
Y6075D01*
X1873Y5733D02*
X2423D01*
X1910D02*
Y6075D01*
X1960Y5733D02*
Y6075D01*
X2010Y5733D02*
Y6075D01*
X1262Y5780D02*
X2584D01*
X1312Y5830D02*
X2584D01*
X1363Y5880D02*
X2584D01*
X1412Y5930D02*
X2584D01*
X1462Y5980D02*
X2584D01*
X1513Y6030D02*
X2584D01*
X2081Y4435D02*
Y4629D01*
Y4632D02*
Y4689D01*
X2138D01*
X2141D02*
X2335D01*
X2338D02*
X2532D01*
X2081Y4530D02*
X2855D01*
X2081Y4580D02*
X2905D01*
X2081Y4680D02*
X3008D01*
X2535Y4689D02*
X2729D01*
X2660Y4335D02*
Y4689D01*
X2710Y4385D02*
Y4689D01*
X2423Y5480D02*
X2584D01*
X2428Y5420D02*
X2584D01*
X2423Y5530D02*
X2584D01*
X2423Y5580D02*
X2584D01*
Y5420D02*
Y5582D01*
X2423Y5448D02*
Y5733D01*
Y5630D02*
X2584D01*
X2423Y5680D02*
X2584D01*
Y5582D02*
Y5752D01*
X2423Y5730D02*
X2584D01*
Y5582D02*
Y5752D01*
X1322Y6545D02*
X1558D01*
X1322D02*
X1558D01*
X1460D02*
Y6840D01*
X1510Y6545D02*
Y6840D01*
X1560Y6545D02*
Y6840D01*
X1610Y6545D02*
Y6840D01*
X1558Y6075D02*
X2584D01*
X2060Y5733D02*
Y6075D01*
X1558Y6545D02*
X3103D01*
X1660D02*
Y6840D01*
X1710Y6545D02*
Y6840D01*
X1760Y6545D02*
Y6840D01*
X160Y6580D02*
X6990D01*
X1810Y6545D02*
Y6840D01*
X1860Y6545D02*
Y6840D01*
X1910Y6545D02*
Y6840D01*
X1960Y6545D02*
Y6840D01*
X2010Y6545D02*
Y6840D01*
X160Y6630D02*
X6990D01*
X160Y6680D02*
X6990D01*
X160Y6730D02*
X6990D01*
X160Y6780D02*
X6990D01*
X160Y6830D02*
X6990D01*
X160Y6840D02*
X6990D01*
X2110Y5733D02*
Y6075D01*
X2160Y5733D02*
Y6075D01*
X2210Y5733D02*
Y6075D01*
X2060Y6545D02*
Y6840D01*
X2260Y5733D02*
Y6075D01*
X2310Y5733D02*
Y6075D01*
X2360Y5733D02*
Y6075D01*
X2460Y5420D02*
Y6075D01*
X2410Y5733D02*
Y6075D01*
X2510Y5420D02*
Y6075D01*
X2560Y5420D02*
Y6075D01*
X2584Y5752D02*
Y6075D01*
X2110Y6545D02*
Y6840D01*
X2160Y6545D02*
Y6840D01*
X2210Y6545D02*
Y6840D01*
X2260Y6545D02*
Y6840D01*
X2310Y6545D02*
Y6840D01*
X2360Y6545D02*
Y6840D01*
X2410Y6545D02*
Y6840D01*
X2460Y6545D02*
Y6840D01*
X2510Y6545D02*
Y6840D01*
X2560Y6545D02*
Y6840D01*
X2610Y6545D02*
Y6840D01*
X2660Y6545D02*
Y6840D01*
X2710Y6545D02*
Y6840D01*
Y160D02*
Y455D01*
X2760Y160D02*
Y455D01*
X2810Y160D02*
Y455D01*
X2860Y160D02*
Y455D01*
X2910Y160D02*
Y455D01*
X2960Y160D02*
Y455D01*
X3010Y160D02*
Y455D01*
X3060Y160D02*
Y455D01*
X3110Y160D02*
Y455D01*
X3160Y160D02*
Y455D01*
X3210Y160D02*
Y455D01*
X3260Y160D02*
Y455D01*
X2845D02*
X3015D01*
X3310Y160D02*
Y455D01*
X2845D02*
X3015D01*
X3395D01*
X3360Y160D02*
Y455D01*
X3395Y979D02*
Y1025D01*
X3415Y455D02*
X3965D01*
X3415Y979D02*
Y1025D01*
X3420Y979D02*
Y1025D01*
X3965D01*
X3420D02*
Y1609D01*
X3460Y160D02*
Y455D01*
X3510Y160D02*
Y455D01*
X3560Y160D02*
Y455D01*
X3610Y160D02*
Y455D01*
X3660Y160D02*
Y455D01*
X3710Y160D02*
Y455D01*
X3760Y160D02*
Y455D01*
X3810Y160D02*
Y455D01*
X3860Y160D02*
Y455D01*
X3910Y160D02*
Y455D01*
X3960Y160D02*
Y455D01*
X4010Y160D02*
Y2140D01*
X3420Y1609D02*
Y1701D01*
Y1609D02*
Y1701D01*
X3860Y1025D02*
Y2140D01*
X3910Y1025D02*
Y2140D01*
X3965Y455D02*
Y1025D01*
X3960D02*
Y2140D01*
X4060Y160D02*
Y2140D01*
X4110Y160D02*
Y2140D01*
X4160Y160D02*
Y2140D01*
X3185Y2332D02*
Y2482D01*
X3210Y2332D02*
Y2508D01*
X3260Y2332D02*
Y2558D01*
X3185Y2482D02*
X3310Y2607D01*
X3310Y2332D02*
Y2607D01*
X3360Y2332D02*
Y2657D01*
X3185Y2332D02*
X3420D01*
Y2180D02*
X3820D01*
X3185Y2380D02*
X3820D01*
X3185Y2430D02*
X3820D01*
X3410Y2332D02*
Y2767D01*
X3185Y2480D02*
X3820D01*
X3310Y2607D02*
X3397Y2695D01*
X3310Y2607D02*
X3397Y2695D01*
Y2767D01*
X2710Y3391D02*
Y3635D01*
X3397Y2695D02*
Y2767D01*
X2731Y3391D02*
X2925D01*
X3232Y2530D02*
X3820D01*
X3282Y2580D02*
X3820D01*
X3332Y2630D02*
X3820D01*
X3383Y2680D02*
X3820D01*
X3397Y2730D02*
X3820D01*
X3397Y2767D02*
X3516D01*
X3420Y1701D02*
Y2332D01*
X3460Y1025D02*
Y2767D01*
X3510Y1025D02*
Y2767D01*
X3560Y1025D02*
Y2811D01*
X3610Y1025D02*
Y2861D01*
X3660Y1025D02*
Y3157D01*
X3420Y2230D02*
X3820D01*
X4210Y160D02*
Y2140D01*
X3710Y1025D02*
Y3157D01*
X3760Y1025D02*
Y3157D01*
X3810Y1025D02*
Y3157D01*
X3820Y2140D02*
Y3157D01*
X3420Y2280D02*
X3820D01*
X3420Y2330D02*
X3820D01*
X3529Y2780D02*
X3820D01*
X3516Y2767D02*
X3613Y2864D01*
X3579Y2830D02*
X3820D01*
X3613Y2864D02*
Y3157D01*
Y2880D02*
X3820D01*
X3613Y2930D02*
X3820D01*
X3613Y2980D02*
X3820D01*
X3613Y3030D02*
X3820D01*
X3613Y3080D02*
X3820D01*
X3613Y3130D02*
X3820D01*
X3613Y3157D02*
X3820D01*
X3420Y1030D02*
X6990D01*
X3965Y480D02*
X6990D01*
X3420Y1080D02*
X6990D01*
X3420Y1130D02*
X6990D01*
X3420Y1180D02*
X6990D01*
X3420Y1230D02*
X6990D01*
X3420Y1280D02*
X6990D01*
X3420Y1330D02*
X6990D01*
X3420Y1380D02*
X6990D01*
X3420Y1430D02*
X6990D01*
X3420Y1480D02*
X6990D01*
X3420Y1530D02*
X6990D01*
X3420Y1580D02*
X6990D01*
X3420Y1630D02*
X6990D01*
X3420Y1680D02*
X6990D01*
X3420Y1730D02*
X6990D01*
X3420Y1780D02*
X6990D01*
X3420Y1830D02*
X6990D01*
X3420Y1880D02*
X6990D01*
X3420Y1930D02*
X6990D01*
X3420Y1980D02*
X6990D01*
X3420Y2030D02*
X6990D01*
X3420Y2080D02*
X6990D01*
X3420Y2130D02*
X6990D01*
X4610Y160D02*
Y2135D01*
X4660Y160D02*
Y2135D01*
X4710Y160D02*
Y2135D01*
X4760Y160D02*
Y2135D01*
X4810Y160D02*
Y2135D01*
X4860Y160D02*
Y2135D01*
X4910Y160D02*
Y2135D01*
X4960Y160D02*
Y2135D01*
X5010Y160D02*
Y2135D01*
X5060Y160D02*
Y2135D01*
X5110Y160D02*
Y2135D01*
X5160Y160D02*
Y2135D01*
X3965Y530D02*
X6990D01*
X3965Y580D02*
X6990D01*
X3965Y630D02*
X6990D01*
X4585Y2135D02*
X4985D01*
X5155D01*
X4985D02*
X5155D01*
X3965Y680D02*
X6990D01*
X3965Y730D02*
X6990D01*
X3965Y780D02*
X6990D01*
X3965Y830D02*
X6990D01*
X3965Y880D02*
X6990D01*
X3965Y930D02*
X6990D01*
X3965Y980D02*
X6990D01*
X4260Y160D02*
Y2140D01*
X4310Y160D02*
Y2140D01*
X4360Y160D02*
Y2140D01*
X4410Y160D02*
Y2140D01*
X4460Y160D02*
Y2140D01*
X4510Y160D02*
Y2140D01*
X5210Y160D02*
Y2135D01*
X5260Y160D02*
Y2135D01*
X5310Y160D02*
Y2135D01*
X4560Y160D02*
Y2140D01*
X5360Y160D02*
Y2135D01*
X5410Y160D02*
Y2135D01*
X5155D02*
X5555D01*
X5460Y160D02*
Y2135D01*
X5510Y160D02*
Y2135D01*
X3820Y2140D02*
X4585D01*
X5560Y160D02*
Y2140D01*
X5610Y160D02*
Y2140D01*
X5660Y160D02*
Y2140D01*
X5555D02*
X6990D01*
X5710Y160D02*
Y2140D01*
X5760Y160D02*
Y2140D01*
X5810Y160D02*
Y2140D01*
X5860Y160D02*
Y2140D01*
X5910Y160D02*
Y2140D01*
X5960Y160D02*
Y2140D01*
X6010Y160D02*
Y2140D01*
X6060Y160D02*
Y2140D01*
X6110Y160D02*
Y2140D01*
X6160Y160D02*
Y2140D01*
X6210Y160D02*
Y2140D01*
X6260Y160D02*
Y2140D01*
X6310Y160D02*
Y2140D01*
X6360Y160D02*
Y2140D01*
X6410Y160D02*
Y2140D01*
X6460Y160D02*
Y2140D01*
X6510Y160D02*
Y2140D01*
X6560Y160D02*
Y2140D01*
X6610Y160D02*
Y2140D01*
X6660Y160D02*
Y2140D01*
X6710Y160D02*
Y2140D01*
X6760Y160D02*
Y2140D01*
X6810Y160D02*
Y2140D01*
X6860Y160D02*
Y2140D01*
X6910Y160D02*
Y2140D01*
X6960Y160D02*
Y2140D01*
X6990Y160D02*
Y2140D01*
X2810Y3391D02*
Y3535D01*
X2860Y3391D02*
Y3485D01*
X2910Y3391D02*
Y3435D01*
X2760Y3391D02*
Y3585D01*
X3060Y3855D02*
Y4165D01*
X3010Y3905D02*
Y4115D01*
X3035Y3880D02*
X3379D01*
X3135Y3780D02*
X3379D01*
X3085Y3830D02*
X3379D01*
X2938Y3977D02*
X3305Y3610D01*
X3110Y3805D02*
Y4215D01*
X2985Y3930D02*
X3379D01*
X2938Y3977D02*
Y4043D01*
X2960Y3955D02*
Y4065D01*
X2938Y4043D02*
X3114Y4219D01*
X3209Y4314D01*
X3117Y4219D02*
X3212Y4314D01*
X3117Y4219D02*
X3212Y4314D01*
X2938Y3980D02*
X3379D01*
X2938Y4030D02*
X3379D01*
X2975Y4080D02*
X3379D01*
X3025Y4130D02*
X3379D01*
X3075Y4180D02*
X3379D01*
X3128Y4230D02*
X3379D01*
X3210Y3705D02*
Y4312D01*
X3305Y3610D02*
X3345D01*
X3379D01*
X3260Y3655D02*
Y4362D01*
X3310Y3610D02*
Y4412D01*
X3360Y3610D02*
Y4455D01*
X3285Y3630D02*
X3379D01*
X3345Y3610D02*
X3379D01*
Y3645D01*
X3185Y3730D02*
X3379D01*
Y3648D02*
Y3842D01*
X3235Y3680D02*
X3379D01*
X3160Y3755D02*
Y4262D01*
X3379Y3845D02*
Y4039D01*
Y4041D02*
Y4235D01*
X3178Y4280D02*
X3379D01*
Y4238D02*
Y4432D01*
X3212Y4314D02*
X3332Y4434D01*
X3228Y4330D02*
X3379D01*
X3278Y4380D02*
X3379D01*
X3328Y4430D02*
X3379D01*
X3332Y4434D02*
X3379Y4481D01*
X3339Y4434D02*
X3379Y4474D01*
X3339Y4434D02*
X3379Y4474D01*
Y4435D02*
Y4474D01*
X2760Y4435D02*
Y4689D01*
X2810Y4485D02*
Y4689D01*
X2829Y4504D02*
X2924Y4599D01*
X2860Y4535D02*
Y4689D01*
X2910Y4585D02*
Y4689D01*
X2731D02*
X2925D01*
X2829Y4504D02*
X2924Y4599D01*
X2832Y4504D02*
X2927Y4599D01*
X3017Y4689D01*
X2960Y4632D02*
Y4689D01*
X2928D02*
X3017D01*
X2760Y6545D02*
Y6840D01*
X2810Y6545D02*
Y6840D01*
X2860Y6545D02*
Y6840D01*
X2910Y6545D02*
Y6840D01*
X2960Y6545D02*
Y6840D01*
X3010Y6545D02*
Y6840D01*
X3103Y6545D02*
X3338D01*
X3103D02*
X3338D01*
X3060D02*
Y6840D01*
X3110Y6545D02*
Y6840D01*
X3160Y6545D02*
Y6840D01*
X3613Y4923D02*
Y5182D01*
X3660Y4923D02*
Y5182D01*
X3613D02*
X3704D01*
X3455Y6428D02*
X3535Y6348D01*
X3510Y6373D02*
Y6840D01*
X3560Y6375D02*
Y6840D01*
X3613Y4923D02*
X3820D01*
X3710D02*
Y5255D01*
X3704Y5182D02*
Y5255D01*
X3760Y4923D02*
Y5255D01*
X3810Y4923D02*
Y5255D01*
X3820Y4923D02*
Y5255D01*
X3210Y6545D02*
Y6840D01*
X3338Y6545D02*
X3455Y6428D01*
X3260Y6545D02*
Y6840D01*
X3310Y6545D02*
Y6840D01*
X3410Y6472D02*
Y6840D01*
X3360Y6522D02*
Y6840D01*
X3338Y6545D02*
X3455Y6428D01*
X3610Y6375D02*
Y6840D01*
X3460Y6423D02*
Y6840D01*
X3660Y6375D02*
Y6840D01*
X3710Y6375D02*
Y6840D01*
X3760Y6375D02*
Y6840D01*
X3810Y6375D02*
Y6840D01*
X3613Y4930D02*
X3820D01*
X3613Y4980D02*
X3820D01*
X3613Y5030D02*
X3820D01*
X3613Y5080D02*
X3820D01*
X3613Y5130D02*
X3820D01*
X3613Y5180D02*
X3820D01*
X3704Y5230D02*
X3820D01*
X3704Y5255D02*
X3820D01*
X4105Y5560D02*
X6990D01*
X4105Y5580D02*
X6990D01*
X4105Y5630D02*
X6990D01*
X4105Y5680D02*
X6990D01*
X3860Y6375D02*
Y6840D01*
X3910Y6375D02*
Y6840D01*
X3960Y6375D02*
Y6840D01*
X4010Y6375D02*
Y6840D01*
X4060Y6375D02*
Y6840D01*
X3503Y6380D02*
X6990D01*
X3535Y6375D02*
X4105D01*
X3352Y6530D02*
X6990D01*
X3453Y6430D02*
X6990D01*
X3402Y6480D02*
X6990D01*
X4105Y5560D02*
Y5805D01*
X4110Y5560D02*
Y6840D01*
X4160Y5560D02*
Y6840D01*
X4210Y5560D02*
Y6840D01*
X4260Y5560D02*
Y6840D01*
X4310Y5560D02*
Y6840D01*
X4105Y5730D02*
X6990D01*
X4360Y5560D02*
Y6840D01*
X4410Y5560D02*
Y6840D01*
X4460Y5560D02*
Y6840D01*
X4510Y5560D02*
Y6840D01*
X4560Y5560D02*
Y6840D01*
X4105Y5780D02*
X6990D01*
X4105Y5830D02*
X6990D01*
X4105Y5880D02*
X6990D01*
X4105Y5930D02*
X6990D01*
X4105Y5825D02*
Y6375D01*
Y5980D02*
X6990D01*
X4105Y6030D02*
X6990D01*
X4105Y6080D02*
X6990D01*
X4105Y6130D02*
X6990D01*
X4105Y6180D02*
X6990D01*
X4105Y6230D02*
X6990D01*
X4105Y6280D02*
X6990D01*
X4105Y6330D02*
X6990D01*
X4610Y5560D02*
Y6840D01*
X4660Y5560D02*
Y6840D01*
X4710Y5560D02*
Y6840D01*
X4760Y5560D02*
Y6840D01*
X4810Y5560D02*
Y6840D01*
X4860Y5560D02*
Y6840D01*
X4910Y5560D02*
Y6840D01*
X4960Y5560D02*
Y6840D01*
X5010Y5560D02*
Y6840D01*
X5060Y5560D02*
Y6840D01*
X5110Y5560D02*
Y6840D01*
X5160Y5560D02*
Y6840D01*
X5210Y5560D02*
Y6840D01*
X5260Y5560D02*
Y6840D01*
X5310Y5560D02*
Y6840D01*
X5360Y5560D02*
Y6840D01*
X5410Y5560D02*
Y6840D01*
X5460Y5560D02*
Y6840D01*
X5510Y5560D02*
Y6840D01*
X5560Y5560D02*
Y6840D01*
X5610Y5560D02*
Y6840D01*
X5660Y5560D02*
Y6840D01*
X5710Y5560D02*
Y6840D01*
X5760Y5560D02*
Y6840D01*
X5810Y5560D02*
Y6840D01*
X5860Y5560D02*
Y6840D01*
X5910Y5560D02*
Y6840D01*
X5960Y5560D02*
Y6840D01*
X6010Y5560D02*
Y6840D01*
X6060Y5560D02*
Y6840D01*
X6110Y5560D02*
Y6840D01*
X6160Y5560D02*
Y6840D01*
X6210Y5560D02*
Y6840D01*
X6260Y5560D02*
Y6840D01*
X6310Y5560D02*
Y6840D01*
X6360Y5560D02*
Y6840D01*
X6410Y5560D02*
Y6840D01*
X6460Y5560D02*
Y6840D01*
X6510Y5560D02*
Y6840D01*
X6560Y5560D02*
Y6840D01*
X6610Y5560D02*
Y6840D01*
X6660Y5560D02*
Y6840D01*
X6710Y5560D02*
Y6840D01*
X6760Y5560D02*
Y6840D01*
X6810Y5560D02*
Y6840D01*
X6860Y5560D02*
Y6840D01*
X6910Y5560D02*
Y6840D01*
X6960Y5560D02*
Y6840D01*
X6990Y5560D02*
Y6840D01*
D18*
X3025Y4724D02*
X3084D01*
X3222Y4862D01*
Y5001D01*
X2964Y4663D02*
X3025Y4724D01*
X2871Y4570D02*
X2964Y4663D01*
X2810Y4570D02*
X2871D01*
X3190Y4190D02*
X3335Y4335D01*
X2041Y3211D02*
X2069Y3239D01*
Y3379D01*
X2270Y3580D01*
X3509Y3351D02*
X3691D01*
X3440Y3420D02*
X3509Y3351D01*
X3335Y4335D02*
X3691D01*
X4870Y2210D02*
Y2420D01*
X4660D02*
X4870D01*
Y2630D01*
X5270Y2210D02*
Y2420D01*
Y2630D01*
Y2420D02*
X5480D01*
X6650Y5060D02*
Y5270D01*
Y5480D01*
Y5270D02*
X6860D01*
X3419Y3079D02*
X3721D01*
X3419Y2669D02*
Y3079D01*
X1230Y490D02*
Y740D01*
X980D02*
X1230D01*
Y990D01*
X501Y4068D02*
X751D01*
X1454Y1971D02*
X1830D01*
X1338Y5448D02*
X1588D01*
Y5698D01*
X2632Y4724D02*
Y5001D01*
X2619Y5467D02*
X2869D01*
X2619Y5867D02*
X2869D01*
X3010Y1340D02*
X3385D01*
X3680Y490D02*
Y740D01*
Y990D01*
Y740D02*
X3930D01*
X4870Y2170D02*
Y2420D01*
X5270Y2170D02*
Y2420D01*
X2828Y4724D02*
Y5001D01*
X3025Y4724D02*
Y5001D01*
X3820Y6090D02*
Y6340D01*
Y6090D02*
X4070D01*
X3620Y3548D02*
X3691D01*
X3410Y3610D02*
X3620Y3548D01*
X3190Y3830D02*
X3410Y3610D01*
D19*
X2748Y4138D02*
X3380Y4770D01*
X1372Y4138D02*
X2748D01*
X3380Y4770D02*
X3420Y4860D01*
X3419Y5001D02*
Y5467D01*
X3691Y4729D02*
Y5001D01*
X3780Y5090D01*
X2435Y4625D02*
Y5001D01*
X2632Y4582D02*
Y5001D01*
X2828Y4638D02*
Y5001D01*
X1769Y3942D02*
X2408D01*
X2041Y3079D02*
Y3211D01*
X1301Y4068D02*
X1372Y4138D01*
X3210Y3420D02*
X3440D01*
X2748Y3882D02*
Y4138D01*
Y3882D02*
X3210Y3420D01*
X2238Y5001D02*
Y5348D01*
X2138Y5448D02*
X2238Y5348D01*
X3721Y3079D02*
X3730Y3070D01*
X3410Y2660D02*
X3419Y2669D01*
X3730Y2780D02*
Y3070D01*
D20*
X3419Y5867D02*
Y6111D01*
X3220Y6310D02*
X3419Y6111D01*
X1440Y6310D02*
X3220D01*
X710Y5580D02*
X1440Y6310D01*
X230Y5580D02*
X710D01*
D21*
X6840Y3000D02*
D03*
X6650Y5700D02*
D03*
X6090Y5600D02*
D03*
X6840Y6690D02*
D03*
X5207D02*
D03*
X3575D02*
D03*
X4260Y6090D02*
D03*
X4450Y5600D02*
D03*
X3780Y5090D02*
D03*
X3220Y4190D02*
D03*
Y3830D02*
D03*
X3740Y2780D02*
D03*
X3380Y2470D02*
D03*
X4260Y1960D02*
D03*
X5790Y1340D02*
D03*
X6840Y1700D02*
D03*
Y310D02*
D03*
X5207D02*
D03*
X4120Y740D02*
D03*
X3590Y1340D02*
D03*
X3575Y310D02*
D03*
X1943D02*
D03*
X310D02*
D03*
X790Y740D02*
D03*
X1260Y1340D02*
D03*
Y1971D02*
D03*
X310Y2270D02*
D03*
X2630Y3580D02*
D03*
X2270D02*
D03*
X2630Y4490D02*
D03*
X2270D02*
D03*
X310Y4068D02*
D03*
X2400Y5930D02*
D03*
X1141Y5448D02*
D03*
X310Y5200D02*
D03*
X1943Y6690D02*
D03*
X310D02*
D03*
X5520Y3840D02*
D03*
Y4250D02*
D03*
X6340Y2340D02*
D03*
X6840Y4180D02*
D03*
X5270Y2000D02*
D03*
X4870D02*
D03*
X5290Y5600D02*
D03*
M02*
