*%FSLAX24Y24*%
*%MOIN*%
G01*
%ADD11C,0.0010*%
%ADD12C,0.0030*%
%ADD13C,0.0043*%
%ADD14C,0.0050*%
%ADD15C,0.0060*%
%ADD16C,0.0070*%
%ADD17C,0.0073*%
%ADD18C,0.0080*%
%ADD19C,0.0100*%
%ADD20C,0.0110*%
%ADD21C,0.0150*%
%ADD22C,0.0200*%
%ADD23C,0.0250*%
%ADD24C,0.0300*%
%ADD25C,0.0360*%
%ADD26C,0.0440*%
%ADD27C,0.0600*%
%ADD28R,0.0300X0.0300*%
%ADD29R,0.0380X0.0380*%
%ADD30R,0.0551X0.0453*%
%ADD31R,0.0631X0.0533*%
%ADD32O,0.0118X0.0354*%
%ADD33O,0.0198X0.0434*%
%ADD34O,0.0354X0.0118*%
%ADD35O,0.0434X0.0198*%
D26*
X21680Y18640D02*
D03*
X19100Y18810D02*
D03*
X17240Y18650D02*
D03*
X21680Y13030D02*
D03*
X20040Y17870D02*
D03*
X19290D02*
D03*
Y15640D02*
D03*
X17110Y16300D02*
D03*
Y17210D02*
D03*
X15150Y16788D02*
D03*
X18430Y14060D02*
D03*
X16100Y14691D02*
D03*
X15981Y18168D02*
D03*
X18960Y13460D02*
D03*
X15630D02*
D03*
X17470Y16300D02*
D03*
Y17210D02*
D03*
X16100Y14060D02*
D03*
X20790Y15690D02*
D03*
X15150Y13030D02*
D03*
X20800Y17870D02*
D03*
X19100Y14680D02*
D03*
X18620Y17810D02*
D03*
Y15720D02*
D03*
X18060Y16550D02*
D03*
Y16910D02*
D03*
X19700Y14980D02*
D03*
X15150Y14990D02*
D03*
X18415Y19410D02*
D03*
X16782D02*
D03*
X20048D02*
D03*
X15150D02*
D03*
X21680D02*
D03*
X18415Y13030D02*
D03*
X16782D02*
D03*
X20048D02*
D03*
X21680Y14625D02*
D03*
X15150Y17920D02*
D03*
X21240Y16890D02*
D03*
X21680Y16220D02*
D03*
X20280Y14100D02*
D03*
X19290Y18320D02*
D03*
X20040D02*
D03*
X20800D02*
D03*
X21680Y16890D02*
D03*
X21240Y16220D02*
D03*
X20260Y15340D02*
D03*
X21670Y17870D02*
D03*
M02*
