*%FSLAX24Y24*%
*%MOIN*%
G01*
%ADD11C,0.0010*%
%ADD12C,0.0030*%
%ADD13C,0.0043*%
%ADD14C,0.0050*%
%ADD15C,0.0060*%
%ADD16C,0.0070*%
%ADD17C,0.0073*%
%ADD18C,0.0080*%
%ADD19C,0.0100*%
%ADD20C,0.0110*%
%ADD21C,0.0150*%
%ADD22C,0.0200*%
%ADD23C,0.0250*%
%ADD24C,0.0300*%
%ADD25C,0.0360*%
%ADD26C,0.0440*%
%ADD27C,0.0600*%
%ADD28R,0.0300X0.0300*%
%ADD29R,0.0380X0.0380*%
%ADD30R,0.0551X0.0453*%
%ADD31R,0.0631X0.0533*%
%ADD32O,0.0118X0.0354*%
%ADD33O,0.0198X0.0434*%
%ADD34O,0.0354X0.0118*%
%ADD35O,0.0434X0.0198*%
D11*
X17570Y17429D02*
X18239D01*
Y16091D01*
X16901D01*
Y17429D01*
X17570D01*
D14*
X22490Y14102D02*
Y12850D01*
Y18338D02*
Y19590D01*
X22323Y13350D02*
X22490Y12850D01*
X22657Y13350D01*
X22323Y19090D02*
X22490Y19590D01*
X22657Y19090D01*
X22540Y12850D02*
X22440D01*
Y19590D02*
X22540D01*
X16297Y12220D02*
X14970D01*
X20533D02*
X21860D01*
X15470Y12387D02*
X14970Y12220D01*
X15470Y12053D01*
X21360Y12387D02*
X21860Y12220D01*
X21360Y12053D01*
X14970Y12170D02*
Y12270D01*
X21860D02*
Y12170D01*
D15*
X22383Y14369D02*
X22300Y14536D01*
X22383Y14369D02*
X22550Y14202D01*
X22717D01*
X22800Y14286D01*
Y14452D01*
X22717Y14536D01*
X22633D01*
X22550Y14452D01*
Y14202D01*
X22300Y14702D02*
Y15035D01*
X22383D01*
X22717Y14702D01*
X22800D01*
Y15452D02*
X22300D01*
X22550Y15202D01*
Y15535D01*
X22633Y16202D02*
X22800Y16368D01*
X22633Y16202D02*
X22467D01*
X22300Y16368D01*
X22467Y16618D02*
X22800D01*
X22467D02*
Y16701D01*
X22550Y16785D01*
X22800D01*
X22550D01*
X22467Y16868D01*
X22550Y16951D01*
X22800D01*
Y17118D02*
Y17285D01*
Y17201D01*
X22467D01*
Y17118D01*
X22300Y17201D02*
X22301D01*
X22800Y17535D02*
Y17701D01*
Y17618D01*
X22300D01*
Y17535D01*
X22800Y17951D02*
X22633Y18118D01*
X22467D01*
X22300Y17951D01*
X16731Y12410D02*
X16564Y12327D01*
X16397Y12160D01*
Y11993D01*
X16481Y11910D01*
X16647D01*
X16731Y11993D01*
Y12077D01*
X16647Y12160D01*
X16397D01*
X16897Y12327D02*
X16980Y12410D01*
X17147D01*
X17230Y12327D01*
Y12243D01*
X17147Y12160D01*
X17230Y12077D01*
Y11993D01*
X17147Y11910D01*
X16980D01*
X16897Y11993D01*
Y12077D01*
X16980Y12160D01*
X16897Y12243D01*
Y12327D01*
X16980Y12160D02*
X17147D01*
X17397Y11993D02*
X17480Y11910D01*
X17647D01*
X17730Y11993D01*
Y12327D01*
X17647Y12410D01*
X17480D01*
X17397Y12327D01*
Y12243D01*
X17480Y12160D01*
X17730D01*
X18397Y12077D02*
X18563Y11910D01*
X18397Y12077D02*
Y12243D01*
X18563Y12410D01*
X18813Y12243D02*
Y11910D01*
Y12243D02*
X18896D01*
X18980Y12160D01*
Y11910D01*
Y12160D01*
X19063Y12243D01*
X19146Y12160D01*
Y11910D01*
X19313D02*
X19480D01*
X19396D01*
Y12243D01*
X19313D01*
X19396Y12410D02*
X19397D01*
X19730Y11910D02*
X19896D01*
X19813D01*
Y12410D01*
X19730D01*
X20146Y11910D02*
X20313Y12077D01*
Y12243D01*
X20146Y12410D01*
D02*
M02*
