*%FSLAX24Y24*%
*%MOIN*%
G01*
%ADD11C,0.0010*%
%ADD12C,0.0030*%
%ADD13C,0.0043*%
%ADD14C,0.0050*%
%ADD15C,0.0060*%
%ADD16C,0.0070*%
%ADD17C,0.0073*%
%ADD18C,0.0080*%
%ADD19C,0.0100*%
%ADD20C,0.0110*%
%ADD21C,0.0150*%
%ADD22C,0.0200*%
%ADD23C,0.0250*%
%ADD24C,0.0300*%
%ADD25C,0.0360*%
%ADD26C,0.0440*%
%ADD27C,0.0600*%
%ADD28R,0.0300X0.0300*%
%ADD29R,0.0380X0.0380*%
%ADD30R,0.0551X0.0453*%
%ADD31R,0.0631X0.0533*%
%ADD32O,0.0118X0.0354*%
%ADD33O,0.0198X0.0434*%
%ADD34O,0.0354X0.0118*%
%ADD35O,0.0434X0.0198*%
D11*
X21530Y18640D02*
X21830D01*
X21680Y18490D02*
Y18790D01*
X19250Y18810D02*
X18950D01*
X19100Y18660D02*
Y18960D01*
X17390Y18650D02*
X17090D01*
X17240Y18500D02*
Y18800D01*
X21530Y13030D02*
X21830D01*
X21680Y12880D02*
Y13180D01*
X20190Y17870D02*
X19890D01*
X20040Y17720D02*
Y18020D01*
X19440Y17870D02*
X19140D01*
X19290Y17720D02*
Y18020D01*
X19140Y15640D02*
X19440D01*
X19290Y15490D02*
Y15790D01*
X17260Y16300D02*
X16960D01*
X17110Y16150D02*
Y16450D01*
X16960Y17210D02*
X17260D01*
X17110Y17060D02*
Y17360D01*
X15300Y16788D02*
X15000D01*
X15150Y16638D02*
Y16938D01*
X18280Y14060D02*
X18580D01*
X18430Y13910D02*
Y14210D01*
X16250Y14691D02*
X15950D01*
X16100Y14541D02*
Y14841D01*
X16131Y18168D02*
X15831D01*
X15981Y18018D02*
Y18318D01*
X18810Y13460D02*
X19110D01*
X18960Y13310D02*
Y13610D01*
X15780Y13460D02*
X15480D01*
X15630Y13310D02*
Y13610D01*
X17320Y16300D02*
X17620D01*
X17470Y16150D02*
Y16450D01*
X17320Y17210D02*
X17620D01*
X17470Y17060D02*
Y17360D01*
X16250Y14060D02*
X15950D01*
X16100Y13910D02*
Y14210D01*
X20640Y15690D02*
X20940D01*
X20790Y15540D02*
Y15840D01*
X15300Y13030D02*
X15000D01*
X15150Y12880D02*
Y13180D01*
X20650Y17870D02*
X20950D01*
X20800Y17720D02*
Y18020D01*
X19250Y14680D02*
X18950D01*
X19100Y14530D02*
Y14830D01*
X18770Y17810D02*
X18470D01*
X18620Y17660D02*
Y17960D01*
X18470Y15720D02*
X18770D01*
X18620Y15570D02*
Y15870D01*
X18210Y16550D02*
X17910D01*
X18060Y16400D02*
Y16700D01*
X17910Y16910D02*
X18210D01*
X18060Y16760D02*
Y17060D01*
X19550Y14980D02*
X19850D01*
X19700Y14830D02*
Y15130D01*
X15300Y14990D02*
X15000D01*
X15150Y14840D02*
Y15140D01*
X18265Y19410D02*
X18565D01*
X18415Y19260D02*
Y19560D01*
X16932Y19410D02*
X16632D01*
X16782Y19260D02*
Y19560D01*
X19898Y19410D02*
X20198D01*
X20048Y19260D02*
Y19560D01*
X15300Y19410D02*
X15000D01*
X15150Y19260D02*
Y19560D01*
X21530Y19410D02*
X21830D01*
X21680Y19260D02*
Y19560D01*
X18565Y13030D02*
X18265D01*
X18415Y12880D02*
Y13180D01*
X16932Y13030D02*
X16632D01*
X16782Y12880D02*
Y13180D01*
X19898Y13030D02*
X20198D01*
X20048Y12880D02*
Y13180D01*
X21530Y14625D02*
X21830D01*
X21680Y14475D02*
Y14775D01*
X15300Y17920D02*
X15000D01*
X15150Y17770D02*
Y18070D01*
X21090Y16890D02*
X21390D01*
X21240Y16740D02*
Y17040D01*
X21530Y16220D02*
X21830D01*
X21680Y16070D02*
Y16370D01*
X20430Y14100D02*
X20130D01*
X20280Y13950D02*
Y14250D01*
X19440Y18320D02*
X19140D01*
X19290Y18170D02*
Y18470D01*
X19890Y18320D02*
X20190D01*
X20040Y18170D02*
Y18470D01*
X20650Y18320D02*
X20950D01*
X20800Y18170D02*
Y18470D01*
X21530Y16890D02*
X21830D01*
X21680Y16740D02*
Y17040D01*
X21390Y16220D02*
X21090D01*
X21240Y16070D02*
Y16370D01*
X20410Y15340D02*
X20110D01*
X20260Y15190D02*
Y15490D01*
X21520Y17870D02*
X21820D01*
X21670Y17720D02*
Y18020D01*
D02*
M02*
