*%FSLAX24Y24*%
*%MOIN*%
G01*
%ADD11C,0.0010*%
%ADD12C,0.0030*%
%ADD13C,0.0043*%
%ADD14C,0.0050*%
%ADD15C,0.0060*%
%ADD16C,0.0070*%
%ADD17C,0.0073*%
%ADD18C,0.0080*%
%ADD19C,0.0100*%
%ADD20C,0.0110*%
%ADD21C,0.0150*%
%ADD22C,0.0200*%
%ADD23C,0.0250*%
%ADD24C,0.0300*%
%ADD25C,0.0360*%
%ADD26C,0.0440*%
%ADD27C,0.0600*%
%ADD28R,0.0300X0.0300*%
%ADD29R,0.0380X0.0380*%
%ADD30R,0.0551X0.0453*%
%ADD31R,0.0631X0.0533*%
%ADD32O,0.0118X0.0354*%
%ADD33O,0.0198X0.0434*%
%ADD34O,0.0354X0.0118*%
%ADD35O,0.0434X0.0198*%
D28*
X18259Y18587D02*
D03*
X17709D02*
D03*
X18259Y18187D02*
D03*
X17709D02*
D03*
X20240Y16560D02*
D03*
X20790D02*
D03*
X18660Y18810D02*
D03*
X19290Y17430D02*
D03*
X15591Y16788D02*
D03*
X16428Y18168D02*
D03*
X20790Y16133D02*
D03*
X18520Y13460D02*
D03*
X21240Y18330D02*
D03*
X16070Y13460D02*
D03*
X19840Y16080D02*
D03*
X21240Y17780D02*
D03*
X20790Y17380D02*
D03*
Y16960D02*
D03*
X20240Y17380D02*
D03*
X18660Y18260D02*
D03*
X20240Y16960D02*
D03*
X19840Y17030D02*
D03*
Y17430D02*
D03*
X19440Y17030D02*
D03*
X19840Y16480D02*
D03*
X19440D02*
D03*
X19290Y16080D02*
D03*
X20240Y16133D02*
D03*
X16141Y16788D02*
D03*
X17570Y13460D02*
D03*
X17970D02*
D03*
X17020D02*
D03*
X16620D02*
D03*
X16978Y18168D02*
D03*
X18660Y15233D02*
D03*
Y14683D02*
D03*
D30*
X16670Y14691D02*
D03*
X17850Y14060D02*
D03*
Y14691D02*
D03*
X16670Y14060D02*
D03*
D32*
X16881Y17721D02*
D03*
X17668D02*
D03*
X17865D02*
D03*
X17078D02*
D03*
X17275D02*
D03*
X17472D02*
D03*
X18062D02*
D03*
X18259D02*
D03*
Y15799D02*
D03*
X17472D02*
D03*
X17275D02*
D03*
X18062D02*
D03*
X17865D02*
D03*
X17668D02*
D03*
X17078D02*
D03*
X16881D02*
D03*
D34*
X16609Y16071D02*
D03*
Y16858D02*
D03*
Y17055D02*
D03*
Y16268D02*
D03*
Y16465D02*
D03*
Y16662D02*
D03*
Y17252D02*
D03*
Y17449D02*
D03*
X18531D02*
D03*
Y16662D02*
D03*
Y16465D02*
D03*
Y17252D02*
D03*
Y17055D02*
D03*
Y16858D02*
D03*
Y16268D02*
D03*
Y16071D02*
D03*
M02*
