M72
M48
T1F00S00C0.020
%
T01
X00031Y00031
Y00227
X00126Y00197
Y00134
X00079Y00074
X00194Y00031
X00358
X00412Y00074
X00359Y00134
X00426Y00196
X00486Y00226
X00542Y00262
X00544Y00138
X00521Y00031
X00684
Y0019
Y0035
X0064
Y00417
X00684
X00683Y00515
X00684Y00592
Y00669
X00521
X0052Y0056
Y00515
X00445
Y0056
X00426Y00609
X00358Y00669
X00194
X0024Y00593
X00227Y00449
X00263
X00322Y00419
Y00383
X00263Y00358
X00227
X00378Y003
X00445Y00292
X00595Y00297
X00596Y00515
Y0056
X00378Y00509
X00114Y00545
X00031Y0052
Y00407
Y00669
M30
