*%FSLAX24Y24*%
*%MOIN*%
G01*
%ADD11C,0.0010*%
%ADD12C,0.0030*%
%ADD13C,0.0043*%
%ADD14C,0.0050*%
%ADD15C,0.0060*%
%ADD16C,0.0070*%
%ADD17C,0.0073*%
%ADD18C,0.0080*%
%ADD19C,0.0100*%
%ADD20C,0.0110*%
%ADD21C,0.0150*%
%ADD22C,0.0200*%
%ADD23C,0.0250*%
%ADD24C,0.0300*%
%ADD25C,0.0360*%
%ADD26C,0.0440*%
%ADD27C,0.0600*%
%ADD28R,0.0300X0.0300*%
%ADD29R,0.0380X0.0380*%
%ADD30R,0.0551X0.0453*%
%ADD31R,0.0631X0.0533*%
%ADD32O,0.0118X0.0354*%
%ADD33O,0.0198X0.0434*%
%ADD34O,0.0354X0.0118*%
%ADD35O,0.0434X0.0198*%
D13*
X16969Y14871D02*
X17556D01*
X18040Y14446D02*
Y14300D01*
X17556Y13891D02*
X16965D01*
X16473Y14304D02*
Y14442D01*
D14*
X17509Y18387D02*
Y18787D01*
X18459D02*
Y18387D01*
X17859D02*
X17509D01*
Y18787D02*
X17859D01*
X18109D02*
X18459D01*
Y18387D02*
X18109D01*
X16750Y17730D02*
X16650D01*
X16600Y17680D02*
Y17580D01*
Y17680D02*
X16650Y17730D01*
X18530Y15940D02*
Y15790D01*
X18380D01*
Y17730D02*
X18530D01*
Y17580D01*
X16750Y15790D02*
X16600D01*
Y15940D01*
X18109Y17987D02*
X18459D01*
Y18387D02*
X18109D01*
X17859D02*
X17509D01*
Y17987D02*
X17859D01*
X18459D02*
Y18387D01*
X17509D02*
Y17987D01*
X20040Y16760D02*
X20390D01*
Y16360D02*
X20040D01*
X20640D02*
X20990D01*
Y16760D02*
X20640D01*
X20040D02*
Y16360D01*
X20990D02*
Y16760D01*
X18460Y18060D02*
Y18410D01*
X18860D02*
Y18060D01*
Y18660D02*
Y19010D01*
X18460D02*
Y18660D01*
Y18060D02*
X18860D01*
Y19010D02*
X18460D01*
X17170Y13660D02*
X16820D01*
Y13260D02*
X17170D01*
X17420D02*
X17770D01*
Y13660D02*
X17420D01*
X16820D02*
Y13260D01*
X17770D02*
Y13660D01*
X20040Y17160D02*
X20390D01*
Y16760D02*
X20040D01*
X20640D02*
X20990D01*
Y17160D02*
X20640D01*
X20040D02*
Y16760D01*
X20990D02*
Y17160D01*
X20040Y17230D02*
Y16880D01*
X19640D02*
Y17230D01*
Y16630D02*
Y16280D01*
X20040D02*
Y16630D01*
Y17230D02*
X19640D01*
Y16280D02*
X20040D01*
X21040Y17580D02*
Y17930D01*
X21440D02*
Y17580D01*
Y18180D02*
Y18530D01*
X21040D02*
Y18180D01*
Y17580D02*
X21440D01*
Y18530D02*
X21040D01*
X20390Y17580D02*
X20040D01*
Y17180D02*
X20390D01*
X20640D02*
X20990D01*
Y17580D02*
X20640D01*
X20040D02*
Y17180D01*
X20990D02*
Y17580D01*
X19640Y17230D02*
Y16880D01*
X19240D02*
Y17230D01*
Y16630D02*
Y16280D01*
X19640D02*
Y16630D01*
Y17230D02*
X19240D01*
Y16280D02*
X19640D01*
X19690Y15880D02*
X20040D01*
Y16280D02*
X19690D01*
X19440D02*
X19090D01*
Y15880D02*
X19440D01*
X20040D02*
Y16280D01*
X19090D02*
Y15880D01*
X19690Y17230D02*
X20040D01*
Y17630D02*
X19690D01*
X19440D02*
X19090D01*
Y17230D02*
X19440D01*
X20040D02*
Y17630D01*
X19090D02*
Y17230D01*
X16341Y16588D02*
X15991D01*
Y16988D02*
X16341D01*
X15741D02*
X15391D01*
Y16588D02*
X15741D01*
X16341D02*
Y16988D01*
X15391D02*
Y16588D01*
X16828Y17968D02*
X17178D01*
Y18368D02*
X16828D01*
X16578D02*
X16228D01*
Y17968D02*
X16578D01*
X17178D02*
Y18368D01*
X16228D02*
Y17968D01*
X20040Y16333D02*
X20390D01*
Y15933D02*
X20040D01*
X20640D02*
X20990D01*
Y16333D02*
X20640D01*
X20040D02*
Y15933D01*
X20990D02*
Y16333D01*
X18720Y13260D02*
X18370D01*
Y13660D02*
X18720D01*
X18120D02*
X17770D01*
Y13260D02*
X18120D01*
X18720D02*
Y13660D01*
X17770D02*
Y13260D01*
X16820D02*
X16470D01*
Y13660D02*
X16820D01*
X16220D02*
X15870D01*
Y13260D02*
X16220D01*
X16820D02*
Y13660D01*
X15870D02*
Y13260D01*
X18460Y14483D02*
X18860D01*
Y15433D02*
X18460D01*
X18860Y14833D02*
Y14483D01*
X18460D02*
Y14833D01*
Y15083D02*
Y15433D01*
X18860D02*
Y15083D01*
X16362Y13543D02*
X16320Y13585D01*
X16237D01*
X16195Y13543D01*
Y13376D01*
X16237Y13335D01*
X16320D01*
X16362Y13376D01*
X16445Y13335D02*
X16528D01*
X16487D01*
Y13585D01*
X16488D01*
X16487D02*
X16445Y13543D01*
X17155Y13585D02*
Y13335D01*
Y13585D02*
X17280D01*
X17322Y13543D01*
Y13460D01*
X17280Y13418D01*
X17155D01*
X17238D02*
X17322Y13335D01*
X17405D02*
X17488D01*
X17447D01*
Y13585D01*
X17448D01*
X17447D02*
X17405Y13543D01*
X18160Y13585D02*
X18202Y13543D01*
X18160Y13585D02*
X18077D01*
X18035Y13543D01*
Y13376D01*
X18077Y13335D01*
X18160D01*
X18202Y13376D01*
X18285Y13335D02*
X18452D01*
X18285D02*
X18452Y13501D01*
Y13543D01*
X18410Y13585D01*
X18327D01*
X18285Y13543D01*
X18753Y15001D02*
X18795Y15043D01*
Y15126D01*
X18753Y15168D01*
X18586D01*
X18545Y15126D01*
Y15043D01*
X18586Y15001D01*
X18545Y14793D02*
X18795D01*
X18670Y14918D01*
Y14752D01*
X19432Y16173D02*
X19390Y16215D01*
X19307D01*
X19265Y16173D01*
Y16006D01*
X19307Y15965D01*
X19390D01*
X19432Y16006D01*
X19515Y15965D02*
X19598D01*
X19557D01*
Y16215D01*
X19558D01*
X19557D02*
X19515Y16173D01*
X19723D02*
X19765Y16215D01*
X19848D01*
X19890Y16173D01*
Y16006D01*
X19848Y15965D01*
X19765D01*
X19723Y16006D01*
Y16173D01*
X20435Y16258D02*
X20475Y16218D01*
X20435Y16258D02*
X20355D01*
X20315Y16218D01*
Y16058D01*
X20355Y16018D01*
X20435D01*
X20475Y16058D01*
X20555Y16218D02*
X20595Y16258D01*
X20675D01*
X20715Y16218D01*
Y16178D01*
X20716D01*
X20715D02*
X20716D01*
X20715D02*
X20716D01*
X20715D02*
X20675Y16138D01*
X20635D01*
X20675D01*
X20715Y16098D01*
Y16058D01*
X20675Y16018D01*
X20595D01*
X20555Y16058D01*
X20305Y16435D02*
Y16685D01*
Y16435D02*
X20472D01*
X20555Y16643D02*
X20597Y16685D01*
X20680D01*
X20722Y16643D01*
Y16601D01*
X20723D01*
X20722D02*
X20723D01*
X20722D02*
X20723D01*
X20722D02*
X20680Y16560D01*
X20638D01*
X20680D01*
X20722Y16518D01*
Y16476D01*
X20680Y16435D01*
X20597D01*
X20555Y16476D01*
X20305Y16835D02*
Y17085D01*
Y16835D02*
X20472D01*
X20555D02*
X20722D01*
X20555D02*
X20722Y17001D01*
Y17043D01*
X20680Y17085D01*
X20597D01*
X20555Y17043D01*
X20362Y17473D02*
X20320Y17515D01*
X20237D01*
X20195Y17473D01*
Y17306D01*
X20237Y17265D01*
X20320D01*
X20362Y17306D01*
X20445Y17265D02*
X20528D01*
X20487D01*
Y17515D01*
X20488D01*
X20487D02*
X20445Y17473D01*
X20653Y17265D02*
X20820D01*
X20653D02*
X20820Y17431D01*
Y17473D01*
X20778Y17515D01*
X20695D01*
X20653Y17473D01*
X19532Y17513D02*
X19490Y17555D01*
X19407D01*
X19365Y17513D01*
Y17346D01*
X19407Y17305D01*
X19490D01*
X19532Y17346D01*
X19615D02*
X19657Y17305D01*
X19740D01*
X19782Y17346D01*
Y17513D01*
X19740Y17555D01*
X19657D01*
X19615Y17513D01*
Y17471D01*
X19657Y17430D01*
X19782D01*
X19715Y16915D02*
X19965D01*
X19715D02*
Y16748D01*
Y16665D02*
Y16582D01*
Y16623D01*
X19965D01*
X19966D01*
X19965D02*
X19923Y16665D01*
X19575Y16900D02*
X19533Y16858D01*
X19575Y16900D02*
Y16983D01*
X19533Y17025D01*
X19366D01*
X19325Y16983D01*
Y16900D01*
X19366Y16858D01*
X19325Y16775D02*
Y16692D01*
Y16733D01*
X19575D01*
X19576D01*
X19575D02*
X19533Y16775D01*
X19325Y16567D02*
Y16484D01*
Y16525D01*
X19575D01*
X19576D01*
X19575D02*
X19533Y16567D01*
X18785Y18751D02*
X18535D01*
X18785D02*
Y18626D01*
X18743Y18585D01*
X18660D01*
X18618Y18626D01*
Y18751D01*
Y18668D02*
X18535Y18585D01*
Y18501D02*
Y18335D01*
Y18501D02*
X18701Y18335D01*
X18743D01*
X18785Y18376D01*
Y18460D01*
X18743Y18501D01*
X17941Y18276D02*
X17899Y18318D01*
X17816D01*
X17774Y18276D01*
Y18110D01*
X17816Y18068D01*
X17899D01*
X17941Y18110D01*
X18024Y18318D02*
X18191D01*
X18024D02*
Y18193D01*
X18107Y18234D01*
X18149D01*
X18191Y18193D01*
Y18110D01*
X18149Y18068D01*
X18066D01*
X18024Y18110D01*
X17961Y18683D02*
X17919Y18725D01*
X17836D01*
X17794Y18683D01*
Y18516D01*
X17836Y18475D01*
X17919D01*
X17961Y18516D01*
X18127Y18683D02*
X18211Y18725D01*
X18127Y18683D02*
X18044Y18600D01*
Y18516D01*
X18086Y18475D01*
X18169D01*
X18211Y18516D01*
Y18558D01*
X18169Y18600D01*
X18044D01*
X16669Y18251D02*
X16628Y18293D01*
X16545D01*
X16503Y18251D01*
Y18084D01*
X16545Y18043D01*
X16628D01*
X16669Y18084D01*
X16753Y18293D02*
X16919D01*
Y18251D01*
X16753Y18084D01*
Y18043D01*
X15791Y16913D02*
X15833Y16871D01*
X15791Y16913D02*
X15708D01*
X15666Y16871D01*
Y16704D01*
X15708Y16663D01*
X15791D01*
X15833Y16704D01*
X15916Y16871D02*
X15958Y16913D01*
X16041D01*
X16083Y16871D01*
Y16829D01*
X16041Y16788D01*
X16083Y16746D01*
Y16704D01*
X16041Y16663D01*
X15958D01*
X15916Y16704D01*
Y16746D01*
X15958Y16788D01*
X15916Y16829D01*
Y16871D01*
X15958Y16788D02*
X16041D01*
X21323Y18208D02*
X21365Y18250D01*
Y18333D01*
X21323Y18375D01*
X21156D01*
X21115Y18333D01*
Y18250D01*
X21156Y18208D01*
X21115Y18125D02*
Y18042D01*
Y18083D01*
X21365D01*
X21366D01*
X21365D02*
X21323Y18125D01*
Y17917D02*
X21365Y17875D01*
Y17792D01*
X21323Y17750D01*
X21281D01*
X21282D01*
X21281D02*
X21282D01*
X21281D02*
X21282D01*
X21281D02*
X21240Y17792D01*
Y17834D01*
Y17792D01*
X21198Y17750D01*
X21156D01*
X21115Y17792D01*
Y17875D01*
X21156Y17917D01*
X16239Y13899D02*
X16189D01*
X16214D02*
X16239D01*
X16214D02*
Y14049D01*
X16215D01*
X16214D02*
X16189Y14024D01*
D15*
X16989Y14617D02*
X17255Y14217D01*
X16989D02*
X17255Y14617D01*
X17389Y14217D02*
X17522D01*
X17455D01*
Y14617D01*
X17456D01*
X17455D02*
X17389Y14550D01*
X17332Y16665D02*
Y16998D01*
Y16665D02*
X17398Y16598D01*
X17532D01*
X17598Y16665D01*
Y16998D01*
X17732Y16598D02*
X17865D01*
X17798D01*
Y16998D01*
X17799D01*
X17798D02*
X17732Y16931D01*
D02*
M02*
