%TF.GenerationSoftware,KiCad,Pcbnew,(6.0.4)*%
%TF.CreationDate,2022-08-12T18:00:06-03:00*%
%TF.ProjectId,rf-system-receiver,72662d73-7973-4746-956d-2d7265636569,rev?*%
%TF.SameCoordinates,Original*%
%TF.FileFunction,Copper,L4,Bot*%
%TF.FilePolarity,Positive*%
%FSLAX46Y46*%
G04 Gerber Fmt 4.6, Leading zero omitted, Abs format (unit mm)*
G04 Created by KiCad (PCBNEW (6.0.4)) date 2022-08-12 18:00:06*
%MOMM*%
%LPD*%
G01*
G04 APERTURE LIST*
%TA.AperFunction,ComponentPad*%
%ADD10C,2.000000*%
%TD*%
%TA.AperFunction,ComponentPad*%
%ADD11C,2.100000*%
%TD*%
%TA.AperFunction,ComponentPad*%
%ADD12C,2.250000*%
%TD*%
%TA.AperFunction,ComponentPad*%
%ADD13C,1.950000*%
%TD*%
%TA.AperFunction,ViaPad*%
%ADD14C,0.700000*%
%TD*%
%TA.AperFunction,Conductor*%
%ADD15C,0.250000*%
%TD*%
%TA.AperFunction,Conductor*%
%ADD16C,0.400000*%
%TD*%
G04 APERTURE END LIST*
D10*
%TO.P,SW1,1,1*%
%TO.N,NRST*%
X118050000Y-62020000D03*
X124550000Y-62020000D03*
%TO.P,SW1,2,2*%
%TO.N,GND*%
X124550000Y-66520000D03*
X118050000Y-66520000D03*
%TD*%
D11*
%TO.P,J2,1,1*%
%TO.N,Net-(C13-Pad2)*%
X141500000Y-82100000D03*
D12*
%TO.P,J2,2,2*%
%TO.N,GND*%
X144050000Y-84650000D03*
%TO.P,J2,3,3*%
X144050000Y-79550000D03*
%TO.P,J2,4,4*%
X138950000Y-79550000D03*
%TO.P,J2,5,5*%
X138950000Y-84650000D03*
%TD*%
D13*
%TO.P,J1,MH1*%
%TO.N,N/C*%
X165565000Y-53967500D03*
%TO.P,J1,MH2*%
X165565000Y-47367500D03*
%TD*%
D14*
%TO.N,GND*%
X120000000Y-47000000D03*
X120000000Y-51000000D03*
X120000000Y-55000000D03*
X120000000Y-59000000D03*
X119987016Y-69987016D03*
X165000000Y-73974032D03*
X157000000Y-70000000D03*
X161000000Y-82000000D03*
X161000000Y-78000000D03*
X161000000Y-74000000D03*
X157000000Y-74000000D03*
X157000000Y-78000000D03*
X156987016Y-82000000D03*
X132000000Y-82000000D03*
X128000000Y-74000000D03*
X128000000Y-78000000D03*
X128000000Y-82000000D03*
X123999999Y-82000000D03*
X124000000Y-78000000D03*
X123999055Y-74000000D03*
X124000000Y-70000000D03*
X137100000Y-58700000D03*
X146000000Y-62000000D03*
X158500000Y-58000000D03*
X138700000Y-57100000D03*
X132300000Y-63500000D03*
X153400000Y-45500000D03*
X140300000Y-49400000D03*
X146200000Y-66500000D03*
X129500000Y-69000000D03*
X137500000Y-67700000D03*
X133500000Y-69300000D03*
X160700000Y-44500000D03*
X125300000Y-48400000D03*
X122200000Y-54100000D03*
X135500000Y-66500000D03*
X134000000Y-41600000D03*
X162000000Y-67500000D03*
X143200000Y-70100000D03*
X142600000Y-72700000D03*
X132300000Y-45700000D03*
X131900000Y-42600000D03*
X158000000Y-59000000D03*
X144800000Y-63500000D03*
X135200000Y-76300000D03*
X135500000Y-61500000D03*
X154093750Y-54600000D03*
X125000000Y-55700000D03*
X153400000Y-37900000D03*
X146200000Y-67400000D03*
X127000000Y-48100000D03*
X153400000Y-43000000D03*
X141500000Y-47000000D03*
X123500000Y-57400000D03*
X158700000Y-45400000D03*
X135200000Y-72700000D03*
X127000000Y-62800000D03*
X161600000Y-48700000D03*
X161500000Y-68500000D03*
%TO.N,+3V3*%
X138700000Y-56100000D03*
X136200000Y-67600000D03*
X149000000Y-64250000D03*
X145750000Y-57500000D03*
X123900000Y-59400000D03*
X162000000Y-65500000D03*
X153500000Y-48100000D03*
X156600000Y-39600000D03*
X146200000Y-65500000D03*
X129000000Y-47100000D03*
X129200000Y-45800000D03*
X162000000Y-64500000D03*
X149000000Y-63250000D03*
X149000000Y-65250000D03*
X139800000Y-57600000D03*
X128600000Y-44200000D03*
X140300000Y-48400000D03*
X146200000Y-64600000D03*
%TO.N,NRST*%
X132600000Y-50400000D03*
X134800000Y-45800000D03*
%TO.N,+5V*%
X161300000Y-55250000D03*
X163250000Y-58000000D03*
%TO.N,SPI_MOSI*%
X134300000Y-60300000D03*
X134900000Y-62900000D03*
%TD*%
D15*
%TO.N,NRST*%
X134350000Y-46250000D02*
X134800000Y-45800000D01*
X134350000Y-47050000D02*
X134350000Y-46750000D01*
X134350000Y-46750000D02*
X134350000Y-46250000D01*
X134350000Y-48650000D02*
X134350000Y-47050000D01*
X132600000Y-50400000D02*
X134350000Y-48650000D01*
D16*
%TO.N,+5V*%
X163172500Y-58000000D02*
X161300000Y-56127500D01*
X161300000Y-56127500D02*
X161300000Y-55250000D01*
D15*
%TO.N,SPI_MOSI*%
X134300000Y-60300000D02*
X134300000Y-62300000D01*
X134300000Y-62300000D02*
X134900000Y-62900000D01*
%TD*%
%TA.AperFunction,Conductor*%
%TO.N,GND*%
G36*
X165770018Y-36510000D02*
G01*
X165784851Y-36512310D01*
X165784855Y-36512310D01*
X165793724Y-36513691D01*
X165812436Y-36511244D01*
X165835366Y-36510353D01*
X166106103Y-36524542D01*
X166119209Y-36525919D01*
X166334134Y-36559960D01*
X166415445Y-36572838D01*
X166428345Y-36575580D01*
X166573196Y-36614393D01*
X166718052Y-36653207D01*
X166730586Y-36657279D01*
X167010587Y-36764762D01*
X167022635Y-36770126D01*
X167289870Y-36906289D01*
X167301286Y-36912880D01*
X167552832Y-37076236D01*
X167563495Y-37083984D01*
X167796573Y-37272727D01*
X167806374Y-37281552D01*
X168018448Y-37493626D01*
X168027273Y-37503427D01*
X168187916Y-37701804D01*
X168216016Y-37736505D01*
X168223764Y-37747168D01*
X168306472Y-37874527D01*
X168387117Y-37998709D01*
X168393711Y-38010130D01*
X168529874Y-38277365D01*
X168535237Y-38289412D01*
X168630216Y-38536837D01*
X168642719Y-38569409D01*
X168646795Y-38581953D01*
X168724420Y-38871655D01*
X168727162Y-38884555D01*
X168761020Y-39098325D01*
X168774080Y-39180785D01*
X168775458Y-39193902D01*
X168789262Y-39457299D01*
X168787935Y-39483276D01*
X168787691Y-39484846D01*
X168787691Y-39484850D01*
X168786309Y-39493724D01*
X168787473Y-39502626D01*
X168787473Y-39502628D01*
X168790436Y-39525283D01*
X168791500Y-39541621D01*
X168791500Y-83450633D01*
X168790000Y-83470018D01*
X168787690Y-83484851D01*
X168787690Y-83484855D01*
X168786309Y-83493724D01*
X168788135Y-83507683D01*
X168788756Y-83512433D01*
X168789647Y-83535366D01*
X168775584Y-83803704D01*
X168775458Y-83806099D01*
X168774081Y-83819209D01*
X168768095Y-83857001D01*
X168727162Y-84115445D01*
X168724420Y-84128345D01*
X168695213Y-84237347D01*
X168647103Y-84416899D01*
X168646795Y-84418047D01*
X168642721Y-84430586D01*
X168539143Y-84700413D01*
X168535238Y-84710587D01*
X168529874Y-84722635D01*
X168393711Y-84989870D01*
X168387120Y-85001286D01*
X168223764Y-85252832D01*
X168216016Y-85263495D01*
X168027273Y-85496573D01*
X168018448Y-85506374D01*
X167806374Y-85718448D01*
X167796573Y-85727273D01*
X167563495Y-85916016D01*
X167552832Y-85923764D01*
X167301286Y-86087120D01*
X167289870Y-86093711D01*
X167022635Y-86229874D01*
X167010588Y-86235237D01*
X166730586Y-86342721D01*
X166718052Y-86346793D01*
X166573196Y-86385608D01*
X166428345Y-86424420D01*
X166415445Y-86427162D01*
X166334134Y-86440040D01*
X166119209Y-86474081D01*
X166106101Y-86475458D01*
X166030937Y-86479397D01*
X165842701Y-86489262D01*
X165816724Y-86487935D01*
X165815154Y-86487691D01*
X165815150Y-86487691D01*
X165806276Y-86486309D01*
X165797374Y-86487473D01*
X165797372Y-86487473D01*
X165782323Y-86489441D01*
X165774714Y-86490436D01*
X165758379Y-86491500D01*
X151126000Y-86491500D01*
X151057879Y-86471498D01*
X151011386Y-86417842D01*
X151000000Y-86365500D01*
X151000000Y-83532703D01*
X163590743Y-83532703D01*
X163591302Y-83536947D01*
X163591302Y-83536951D01*
X163599071Y-83595958D01*
X163628268Y-83817734D01*
X163629401Y-83821874D01*
X163629401Y-83821876D01*
X163650415Y-83898689D01*
X163704129Y-84095036D01*
X163816923Y-84359476D01*
X163891473Y-84484040D01*
X163959767Y-84598150D01*
X163964561Y-84606161D01*
X164144313Y-84830528D01*
X164267711Y-84947628D01*
X164312225Y-84989870D01*
X164352851Y-85028423D01*
X164586317Y-85196186D01*
X164590112Y-85198195D01*
X164590113Y-85198196D01*
X164611869Y-85209715D01*
X164840392Y-85330712D01*
X165110373Y-85429511D01*
X165391264Y-85490755D01*
X165419841Y-85493004D01*
X165614282Y-85508307D01*
X165614291Y-85508307D01*
X165616739Y-85508500D01*
X165772271Y-85508500D01*
X165774407Y-85508354D01*
X165774418Y-85508354D01*
X165982548Y-85494165D01*
X165982554Y-85494164D01*
X165986825Y-85493873D01*
X165991020Y-85493004D01*
X165991022Y-85493004D01*
X166127583Y-85464724D01*
X166268342Y-85435574D01*
X166539343Y-85339607D01*
X166794812Y-85207750D01*
X166798313Y-85205289D01*
X166798317Y-85205287D01*
X166912418Y-85125095D01*
X167030023Y-85042441D01*
X167129949Y-84949584D01*
X167237479Y-84849661D01*
X167237481Y-84849658D01*
X167240622Y-84846740D01*
X167422713Y-84624268D01*
X167572927Y-84379142D01*
X167688483Y-84115898D01*
X167767244Y-83839406D01*
X167807751Y-83554784D01*
X167807845Y-83536951D01*
X167809235Y-83271583D01*
X167809235Y-83271576D01*
X167809257Y-83267297D01*
X167805151Y-83236104D01*
X167772292Y-82986522D01*
X167771732Y-82982266D01*
X167695871Y-82704964D01*
X167583077Y-82440524D01*
X167435439Y-82193839D01*
X167255687Y-81969472D01*
X167047149Y-81771577D01*
X166813683Y-81603814D01*
X166791843Y-81592250D01*
X166768654Y-81579972D01*
X166559608Y-81469288D01*
X166289627Y-81370489D01*
X166008736Y-81309245D01*
X165977685Y-81306801D01*
X165785718Y-81291693D01*
X165785709Y-81291693D01*
X165783261Y-81291500D01*
X165627729Y-81291500D01*
X165625593Y-81291646D01*
X165625582Y-81291646D01*
X165417452Y-81305835D01*
X165417446Y-81305836D01*
X165413175Y-81306127D01*
X165408980Y-81306996D01*
X165408978Y-81306996D01*
X165272417Y-81335276D01*
X165131658Y-81364426D01*
X164860657Y-81460393D01*
X164605188Y-81592250D01*
X164601687Y-81594711D01*
X164601683Y-81594713D01*
X164591594Y-81601804D01*
X164369977Y-81757559D01*
X164159378Y-81953260D01*
X163977287Y-82175732D01*
X163827073Y-82420858D01*
X163711517Y-82684102D01*
X163710342Y-82688229D01*
X163710341Y-82688230D01*
X163702661Y-82715190D01*
X163632756Y-82960594D01*
X163592249Y-83245216D01*
X163592227Y-83249505D01*
X163592226Y-83249512D01*
X163590789Y-83523859D01*
X163590743Y-83532703D01*
X151000000Y-83532703D01*
X151000000Y-78000000D01*
X146782893Y-70971489D01*
X164811227Y-70971489D01*
X164813096Y-71000000D01*
X164824263Y-71170380D01*
X164873326Y-71363564D01*
X164875743Y-71368807D01*
X164912265Y-71448029D01*
X164956772Y-71544573D01*
X165071807Y-71707344D01*
X165214578Y-71846425D01*
X165380304Y-71957160D01*
X165385607Y-71959438D01*
X165385610Y-71959440D01*
X165558128Y-72033559D01*
X165563435Y-72035839D01*
X165635516Y-72052149D01*
X165752201Y-72078553D01*
X165752207Y-72078554D01*
X165757838Y-72079828D01*
X165763609Y-72080055D01*
X165763611Y-72080055D01*
X165824556Y-72082449D01*
X165957001Y-72087653D01*
X166056959Y-72073160D01*
X166148535Y-72059883D01*
X166148540Y-72059882D01*
X166154256Y-72059053D01*
X166159728Y-72057195D01*
X166159730Y-72057195D01*
X166337532Y-71996839D01*
X166337534Y-71996838D01*
X166342996Y-71994984D01*
X166516899Y-71897594D01*
X166670143Y-71770143D01*
X166797594Y-71616899D01*
X166894984Y-71442996D01*
X166959053Y-71254256D01*
X166959882Y-71248540D01*
X166959883Y-71248535D01*
X166976918Y-71131039D01*
X166987653Y-71057001D01*
X166989146Y-71000000D01*
X166970908Y-70801519D01*
X166916805Y-70609685D01*
X166903746Y-70583202D01*
X166831205Y-70436104D01*
X166828650Y-70430923D01*
X166709393Y-70271219D01*
X166563030Y-70135922D01*
X166558147Y-70132841D01*
X166558143Y-70132838D01*
X166399346Y-70032645D01*
X166399341Y-70032643D01*
X166394462Y-70029564D01*
X166209334Y-69955705D01*
X166013847Y-69916820D01*
X166008072Y-69916744D01*
X166008068Y-69916744D01*
X165908588Y-69915442D01*
X165814547Y-69914211D01*
X165808850Y-69915190D01*
X165808849Y-69915190D01*
X165792805Y-69917947D01*
X165618108Y-69947966D01*
X165431111Y-70016953D01*
X165259816Y-70118862D01*
X165109961Y-70250281D01*
X164986565Y-70406809D01*
X164893760Y-70583202D01*
X164834654Y-70773554D01*
X164811227Y-70971489D01*
X146782893Y-70971489D01*
X145000000Y-68000000D01*
X137146136Y-68000000D01*
X137078015Y-67979998D01*
X137031522Y-67926342D01*
X137021418Y-67856068D01*
X137026303Y-67835064D01*
X137042325Y-67785754D01*
X137042325Y-67785753D01*
X137044365Y-67779475D01*
X137063229Y-67600000D01*
X137044365Y-67420525D01*
X136988599Y-67248893D01*
X136981045Y-67235808D01*
X136901668Y-67098325D01*
X136898367Y-67092607D01*
X136777613Y-66958496D01*
X136631615Y-66852422D01*
X136625587Y-66849738D01*
X136625585Y-66849737D01*
X136472783Y-66781705D01*
X136472781Y-66781705D01*
X136466752Y-66779020D01*
X136378492Y-66760260D01*
X136296689Y-66742872D01*
X136296685Y-66742872D01*
X136290232Y-66741500D01*
X136109768Y-66741500D01*
X136103315Y-66742872D01*
X136103311Y-66742872D01*
X136021508Y-66760260D01*
X135933248Y-66779020D01*
X135927219Y-66781704D01*
X135927217Y-66781705D01*
X135774416Y-66849737D01*
X135774414Y-66849738D01*
X135768386Y-66852422D01*
X135763045Y-66856302D01*
X135763044Y-66856303D01*
X135627731Y-66954613D01*
X135627729Y-66954615D01*
X135622387Y-66958496D01*
X135501633Y-67092607D01*
X135498332Y-67098325D01*
X135434022Y-67209713D01*
X135382640Y-67258706D01*
X135312926Y-67272142D01*
X135247015Y-67245756D01*
X135235808Y-67235808D01*
X135036905Y-67036905D01*
X135002879Y-66974593D01*
X135000000Y-66947810D01*
X135000000Y-65500000D01*
X145336771Y-65500000D01*
X145337461Y-65506565D01*
X145353475Y-65658920D01*
X145355635Y-65679475D01*
X145357675Y-65685753D01*
X145357675Y-65685754D01*
X145384541Y-65768440D01*
X145411401Y-65851107D01*
X145501633Y-66007393D01*
X145622387Y-66141504D01*
X145627729Y-66145385D01*
X145627731Y-66145387D01*
X145635746Y-66151210D01*
X145768385Y-66247578D01*
X145774413Y-66250262D01*
X145774415Y-66250263D01*
X145859850Y-66288301D01*
X145933248Y-66320980D01*
X146021508Y-66339740D01*
X146103311Y-66357128D01*
X146103315Y-66357128D01*
X146109768Y-66358500D01*
X146290232Y-66358500D01*
X146296685Y-66357128D01*
X146296689Y-66357128D01*
X146378492Y-66339740D01*
X146466752Y-66320980D01*
X146540150Y-66288301D01*
X146625585Y-66250263D01*
X146625587Y-66250262D01*
X146631615Y-66247578D01*
X146764254Y-66151210D01*
X146772269Y-66145387D01*
X146772271Y-66145385D01*
X146777613Y-66141504D01*
X146898367Y-66007393D01*
X146988599Y-65851107D01*
X147015459Y-65768440D01*
X147042325Y-65685754D01*
X147042325Y-65685753D01*
X147044365Y-65679475D01*
X147046526Y-65658920D01*
X147062539Y-65506565D01*
X147063229Y-65500000D01*
X147044365Y-65320525D01*
X147033580Y-65287330D01*
X147021451Y-65250000D01*
X148136771Y-65250000D01*
X148155635Y-65429475D01*
X148211401Y-65601107D01*
X148301633Y-65757393D01*
X148422387Y-65891504D01*
X148568385Y-65997578D01*
X148574413Y-66000262D01*
X148574415Y-66000263D01*
X148601453Y-66012301D01*
X148733248Y-66070980D01*
X148821508Y-66089740D01*
X148903311Y-66107128D01*
X148903315Y-66107128D01*
X148909768Y-66108500D01*
X149090232Y-66108500D01*
X149096685Y-66107128D01*
X149096689Y-66107128D01*
X149178492Y-66089740D01*
X149266752Y-66070980D01*
X149398547Y-66012301D01*
X149425585Y-66000263D01*
X149425587Y-66000262D01*
X149431615Y-65997578D01*
X149577613Y-65891504D01*
X149698367Y-65757393D01*
X149788599Y-65601107D01*
X149821450Y-65500000D01*
X161136771Y-65500000D01*
X161137461Y-65506565D01*
X161153475Y-65658920D01*
X161155635Y-65679475D01*
X161157675Y-65685753D01*
X161157675Y-65685754D01*
X161184541Y-65768440D01*
X161211401Y-65851107D01*
X161301633Y-66007393D01*
X161422387Y-66141504D01*
X161427729Y-66145385D01*
X161427731Y-66145387D01*
X161435746Y-66151210D01*
X161568385Y-66247578D01*
X161574413Y-66250262D01*
X161574415Y-66250263D01*
X161659850Y-66288301D01*
X161733248Y-66320980D01*
X161821508Y-66339740D01*
X161903311Y-66357128D01*
X161903315Y-66357128D01*
X161909768Y-66358500D01*
X162090232Y-66358500D01*
X162096685Y-66357128D01*
X162096689Y-66357128D01*
X162178492Y-66339740D01*
X162266752Y-66320980D01*
X162340150Y-66288301D01*
X162425585Y-66250263D01*
X162425587Y-66250262D01*
X162431615Y-66247578D01*
X162564254Y-66151210D01*
X162572269Y-66145387D01*
X162572271Y-66145385D01*
X162577613Y-66141504D01*
X162698367Y-66007393D01*
X162788599Y-65851107D01*
X162815459Y-65768440D01*
X162842325Y-65685754D01*
X162842325Y-65685753D01*
X162844365Y-65679475D01*
X162846526Y-65658920D01*
X162862539Y-65506565D01*
X162863229Y-65500000D01*
X162844365Y-65320525D01*
X162833580Y-65287330D01*
X162790641Y-65155178D01*
X162788599Y-65148893D01*
X162739007Y-65062998D01*
X162722270Y-64994005D01*
X162739007Y-64937002D01*
X162788599Y-64851107D01*
X162844365Y-64679475D01*
X162863229Y-64500000D01*
X162844365Y-64320525D01*
X162788599Y-64148893D01*
X162759404Y-64098325D01*
X162701668Y-63998325D01*
X162698367Y-63992607D01*
X162667654Y-63958496D01*
X162582035Y-63863407D01*
X162582034Y-63863406D01*
X162577613Y-63858496D01*
X162565558Y-63849737D01*
X162436957Y-63756303D01*
X162436956Y-63756302D01*
X162431615Y-63752422D01*
X162425587Y-63749738D01*
X162425585Y-63749737D01*
X162272783Y-63681705D01*
X162272781Y-63681705D01*
X162266752Y-63679020D01*
X162178492Y-63660260D01*
X162096689Y-63642872D01*
X162096685Y-63642872D01*
X162090232Y-63641500D01*
X161909768Y-63641500D01*
X161903315Y-63642872D01*
X161903311Y-63642872D01*
X161821508Y-63660260D01*
X161733248Y-63679020D01*
X161727219Y-63681704D01*
X161727217Y-63681705D01*
X161574416Y-63749737D01*
X161574414Y-63749738D01*
X161568386Y-63752422D01*
X161563045Y-63756302D01*
X161563044Y-63756303D01*
X161427731Y-63854613D01*
X161427729Y-63854615D01*
X161422387Y-63858496D01*
X161417966Y-63863406D01*
X161417965Y-63863407D01*
X161332347Y-63958496D01*
X161301633Y-63992607D01*
X161298332Y-63998325D01*
X161240597Y-64098325D01*
X161211401Y-64148893D01*
X161155635Y-64320525D01*
X161136771Y-64500000D01*
X161155635Y-64679475D01*
X161211401Y-64851107D01*
X161260993Y-64937002D01*
X161277730Y-65005995D01*
X161260993Y-65062998D01*
X161211401Y-65148893D01*
X161209359Y-65155178D01*
X161166421Y-65287330D01*
X161155635Y-65320525D01*
X161136771Y-65500000D01*
X149821450Y-65500000D01*
X149844365Y-65429475D01*
X149863229Y-65250000D01*
X149862539Y-65243435D01*
X149845055Y-65077089D01*
X149845055Y-65077088D01*
X149844365Y-65070525D01*
X149788599Y-64898893D01*
X149739007Y-64812998D01*
X149722270Y-64744005D01*
X149739007Y-64687002D01*
X149788599Y-64601107D01*
X149844365Y-64429475D01*
X149863229Y-64250000D01*
X149852602Y-64148893D01*
X149845055Y-64077089D01*
X149845055Y-64077088D01*
X149844365Y-64070525D01*
X149817454Y-63987699D01*
X149790641Y-63905178D01*
X149788599Y-63898893D01*
X149739007Y-63812998D01*
X149722270Y-63744005D01*
X149739007Y-63687002D01*
X149788599Y-63601107D01*
X149817103Y-63513380D01*
X149842325Y-63435754D01*
X149842325Y-63435753D01*
X149844365Y-63429475D01*
X149863229Y-63250000D01*
X149844365Y-63070525D01*
X149788599Y-62898893D01*
X149698367Y-62742607D01*
X149672282Y-62713636D01*
X149582035Y-62613407D01*
X149582034Y-62613406D01*
X149577613Y-62608496D01*
X149537791Y-62579563D01*
X149436957Y-62506303D01*
X149436956Y-62506302D01*
X149431615Y-62502422D01*
X149425587Y-62499738D01*
X149425585Y-62499737D01*
X149272783Y-62431705D01*
X149272781Y-62431705D01*
X149266752Y-62429020D01*
X149178492Y-62410260D01*
X149096689Y-62392872D01*
X149096685Y-62392872D01*
X149090232Y-62391500D01*
X148909768Y-62391500D01*
X148903315Y-62392872D01*
X148903311Y-62392872D01*
X148821508Y-62410260D01*
X148733248Y-62429020D01*
X148727219Y-62431704D01*
X148727217Y-62431705D01*
X148574416Y-62499737D01*
X148574414Y-62499738D01*
X148568386Y-62502422D01*
X148563045Y-62506302D01*
X148563044Y-62506303D01*
X148427731Y-62604613D01*
X148427729Y-62604615D01*
X148422387Y-62608496D01*
X148417966Y-62613406D01*
X148417965Y-62613407D01*
X148327719Y-62713636D01*
X148301633Y-62742607D01*
X148211401Y-62898893D01*
X148155635Y-63070525D01*
X148136771Y-63250000D01*
X148155635Y-63429475D01*
X148157675Y-63435753D01*
X148157675Y-63435754D01*
X148182897Y-63513380D01*
X148211401Y-63601107D01*
X148260993Y-63687002D01*
X148277730Y-63755995D01*
X148260993Y-63812998D01*
X148211401Y-63898893D01*
X148209359Y-63905178D01*
X148182547Y-63987699D01*
X148155635Y-64070525D01*
X148154945Y-64077088D01*
X148154945Y-64077089D01*
X148147398Y-64148893D01*
X148136771Y-64250000D01*
X148155635Y-64429475D01*
X148211401Y-64601107D01*
X148260993Y-64687002D01*
X148277730Y-64755995D01*
X148260993Y-64812998D01*
X148211401Y-64898893D01*
X148155635Y-65070525D01*
X148154945Y-65077088D01*
X148154945Y-65077089D01*
X148137461Y-65243435D01*
X148136771Y-65250000D01*
X147021451Y-65250000D01*
X146990641Y-65155178D01*
X146988599Y-65148893D01*
X146967876Y-65113000D01*
X146951138Y-65044005D01*
X146967876Y-64987000D01*
X146985295Y-64956830D01*
X146985296Y-64956829D01*
X146988599Y-64951107D01*
X147044365Y-64779475D01*
X147063229Y-64600000D01*
X147044365Y-64420525D01*
X146988599Y-64248893D01*
X146898367Y-64092607D01*
X146803908Y-63987699D01*
X146782035Y-63963407D01*
X146782034Y-63963406D01*
X146777613Y-63958496D01*
X146704228Y-63905178D01*
X146636957Y-63856303D01*
X146636956Y-63856302D01*
X146631615Y-63852422D01*
X146625587Y-63849738D01*
X146625585Y-63849737D01*
X146472783Y-63781705D01*
X146472781Y-63781705D01*
X146466752Y-63779020D01*
X146359876Y-63756303D01*
X146296689Y-63742872D01*
X146296685Y-63742872D01*
X146290232Y-63741500D01*
X146109768Y-63741500D01*
X146103315Y-63742872D01*
X146103311Y-63742872D01*
X146040124Y-63756303D01*
X145933248Y-63779020D01*
X145927219Y-63781704D01*
X145927217Y-63781705D01*
X145774416Y-63849737D01*
X145774414Y-63849738D01*
X145768386Y-63852422D01*
X145763045Y-63856302D01*
X145763044Y-63856303D01*
X145627731Y-63954613D01*
X145627729Y-63954615D01*
X145622387Y-63958496D01*
X145617966Y-63963406D01*
X145617965Y-63963407D01*
X145596093Y-63987699D01*
X145501633Y-64092607D01*
X145411401Y-64248893D01*
X145355635Y-64420525D01*
X145336771Y-64600000D01*
X145355635Y-64779475D01*
X145411401Y-64951107D01*
X145414704Y-64956829D01*
X145414705Y-64956830D01*
X145432124Y-64987000D01*
X145448862Y-65055995D01*
X145432124Y-65113000D01*
X145411401Y-65148893D01*
X145409359Y-65155178D01*
X145366421Y-65287330D01*
X145355635Y-65320525D01*
X145336771Y-65500000D01*
X135000000Y-65500000D01*
X135000000Y-63858457D01*
X135020002Y-63790336D01*
X135073658Y-63743843D01*
X135099804Y-63735210D01*
X135160294Y-63722353D01*
X135160297Y-63722352D01*
X135166752Y-63720980D01*
X135172783Y-63718295D01*
X135325585Y-63650263D01*
X135325587Y-63650262D01*
X135331615Y-63647578D01*
X135336957Y-63643697D01*
X135472269Y-63545387D01*
X135472271Y-63545385D01*
X135477613Y-63541504D01*
X135482035Y-63536593D01*
X135593948Y-63412301D01*
X135593949Y-63412300D01*
X135598367Y-63407393D01*
X135688599Y-63251107D01*
X135744365Y-63079475D01*
X135763229Y-62900000D01*
X135744365Y-62720525D01*
X135739959Y-62706963D01*
X135690641Y-62555178D01*
X135688599Y-62548893D01*
X135598367Y-62392607D01*
X135559788Y-62349760D01*
X135482035Y-62263407D01*
X135482034Y-62263406D01*
X135477613Y-62258496D01*
X135468366Y-62251777D01*
X135336957Y-62156303D01*
X135336956Y-62156302D01*
X135331615Y-62152422D01*
X135325587Y-62149738D01*
X135325585Y-62149737D01*
X135172783Y-62081705D01*
X135172781Y-62081705D01*
X135166752Y-62079020D01*
X135160297Y-62077648D01*
X135160294Y-62077647D01*
X135033304Y-62050655D01*
X134970830Y-62016927D01*
X134936508Y-61954777D01*
X134933500Y-61927408D01*
X134933500Y-60927802D01*
X134953502Y-60859681D01*
X134965864Y-60843491D01*
X134993948Y-60812301D01*
X134993949Y-60812300D01*
X134998367Y-60807393D01*
X135088599Y-60651107D01*
X135144365Y-60479475D01*
X135163229Y-60300000D01*
X135155068Y-60222352D01*
X135145055Y-60127089D01*
X135145055Y-60127088D01*
X135144365Y-60120525D01*
X135088599Y-59948893D01*
X134998367Y-59792607D01*
X134877613Y-59658496D01*
X134777493Y-59585754D01*
X134736957Y-59556303D01*
X134736956Y-59556302D01*
X134731615Y-59552422D01*
X134725587Y-59549738D01*
X134725585Y-59549737D01*
X134572783Y-59481705D01*
X134572781Y-59481705D01*
X134566752Y-59479020D01*
X134478492Y-59460260D01*
X134396689Y-59442872D01*
X134396685Y-59442872D01*
X134390232Y-59441500D01*
X134209768Y-59441500D01*
X134203315Y-59442872D01*
X134203311Y-59442872D01*
X134121508Y-59460260D01*
X134033248Y-59479020D01*
X134027219Y-59481704D01*
X134027217Y-59481705D01*
X133874416Y-59549737D01*
X133874414Y-59549738D01*
X133868386Y-59552422D01*
X133863045Y-59556302D01*
X133863044Y-59556303D01*
X133727731Y-59654613D01*
X133727729Y-59654615D01*
X133722387Y-59658496D01*
X133601633Y-59792607D01*
X133511401Y-59948893D01*
X133455635Y-60120525D01*
X133454945Y-60127088D01*
X133454945Y-60127089D01*
X133444932Y-60222352D01*
X133436771Y-60300000D01*
X133455635Y-60479475D01*
X133511401Y-60651107D01*
X133601633Y-60807393D01*
X133606051Y-60812300D01*
X133606052Y-60812301D01*
X133634136Y-60843491D01*
X133664853Y-60907499D01*
X133666500Y-60927802D01*
X133666500Y-62221233D01*
X133665973Y-62232416D01*
X133664298Y-62239909D01*
X133664547Y-62247835D01*
X133664547Y-62247836D01*
X133666438Y-62307986D01*
X133666500Y-62311945D01*
X133666500Y-62339856D01*
X133666997Y-62343790D01*
X133666997Y-62343791D01*
X133667005Y-62343856D01*
X133667938Y-62355697D01*
X133668389Y-62370040D01*
X133650538Y-62438756D01*
X133598370Y-62486912D01*
X133542451Y-62500000D01*
X128500000Y-62500000D01*
X127923844Y-63460260D01*
X127037801Y-64936999D01*
X127000000Y-65000000D01*
X127000000Y-69000000D01*
X127008812Y-69014686D01*
X127008812Y-69014687D01*
X132982044Y-78970073D01*
X133000000Y-79034899D01*
X133000000Y-86365500D01*
X132979998Y-86433621D01*
X132926342Y-86480114D01*
X132874000Y-86491500D01*
X119549367Y-86491500D01*
X119529982Y-86490000D01*
X119515149Y-86487690D01*
X119515145Y-86487690D01*
X119506276Y-86486309D01*
X119487564Y-86488756D01*
X119464634Y-86489647D01*
X119193897Y-86475458D01*
X119180791Y-86474081D01*
X118965866Y-86440040D01*
X118884555Y-86427162D01*
X118871655Y-86424420D01*
X118726804Y-86385608D01*
X118581948Y-86346793D01*
X118569414Y-86342721D01*
X118289412Y-86235237D01*
X118277365Y-86229874D01*
X118010130Y-86093711D01*
X117998714Y-86087120D01*
X117747168Y-85923764D01*
X117736505Y-85916016D01*
X117503427Y-85727273D01*
X117493626Y-85718448D01*
X117281552Y-85506374D01*
X117272727Y-85496573D01*
X117083984Y-85263495D01*
X117076236Y-85252832D01*
X116912880Y-85001286D01*
X116906289Y-84989870D01*
X116770126Y-84722635D01*
X116764762Y-84710587D01*
X116760857Y-84700413D01*
X116657279Y-84430586D01*
X116653205Y-84418047D01*
X116652898Y-84416899D01*
X116604787Y-84237347D01*
X116575580Y-84128345D01*
X116572838Y-84115445D01*
X116531905Y-83857001D01*
X116525919Y-83819209D01*
X116524542Y-83806098D01*
X116524223Y-83800000D01*
X116522729Y-83771489D01*
X121511227Y-83771489D01*
X121511605Y-83777255D01*
X121513096Y-83799999D01*
X121513096Y-83800000D01*
X121517701Y-83870253D01*
X121524263Y-83970380D01*
X121525684Y-83975976D01*
X121525685Y-83975981D01*
X121560172Y-84111770D01*
X121573326Y-84163564D01*
X121575743Y-84168807D01*
X121612265Y-84248029D01*
X121656772Y-84344573D01*
X121771807Y-84507344D01*
X121914578Y-84646425D01*
X122080304Y-84757160D01*
X122085607Y-84759438D01*
X122085610Y-84759440D01*
X122258128Y-84833559D01*
X122263435Y-84835839D01*
X122335516Y-84852149D01*
X122452201Y-84878553D01*
X122452207Y-84878554D01*
X122457838Y-84879828D01*
X122463609Y-84880055D01*
X122463611Y-84880055D01*
X122524556Y-84882449D01*
X122657001Y-84887653D01*
X122756959Y-84873160D01*
X122848535Y-84859883D01*
X122848540Y-84859882D01*
X122854256Y-84859053D01*
X122859728Y-84857195D01*
X122859730Y-84857195D01*
X123037532Y-84796839D01*
X123037534Y-84796838D01*
X123042996Y-84794984D01*
X123216899Y-84697594D01*
X123370143Y-84570143D01*
X123497594Y-84416899D01*
X123594984Y-84242996D01*
X123636794Y-84119830D01*
X123657195Y-84059730D01*
X123657195Y-84059728D01*
X123659053Y-84054256D01*
X123659882Y-84048540D01*
X123659883Y-84048535D01*
X123676918Y-83931039D01*
X123687653Y-83857001D01*
X123689146Y-83800000D01*
X123670908Y-83601519D01*
X123666759Y-83586805D01*
X123618373Y-83415244D01*
X123618372Y-83415242D01*
X123616805Y-83409685D01*
X123603746Y-83383202D01*
X123531205Y-83236104D01*
X123528650Y-83230923D01*
X123409393Y-83071219D01*
X123317769Y-82986522D01*
X123267275Y-82939846D01*
X123263030Y-82935922D01*
X123258147Y-82932841D01*
X123258143Y-82932838D01*
X123099346Y-82832645D01*
X123099341Y-82832643D01*
X123094462Y-82829564D01*
X122909334Y-82755705D01*
X122713847Y-82716820D01*
X122708072Y-82716744D01*
X122708068Y-82716744D01*
X122608588Y-82715442D01*
X122514547Y-82714211D01*
X122508850Y-82715190D01*
X122508849Y-82715190D01*
X122492805Y-82717947D01*
X122318108Y-82747966D01*
X122131111Y-82816953D01*
X121959816Y-82918862D01*
X121809961Y-83050281D01*
X121686565Y-83206809D01*
X121683876Y-83211920D01*
X121683874Y-83211923D01*
X121654741Y-83267297D01*
X121593760Y-83383202D01*
X121585537Y-83409685D01*
X121546020Y-83536951D01*
X121534654Y-83573554D01*
X121511227Y-83771489D01*
X116522729Y-83771489D01*
X116510932Y-83546409D01*
X116512505Y-83518915D01*
X116513576Y-83512552D01*
X116513729Y-83500000D01*
X116509773Y-83472376D01*
X116508500Y-83454514D01*
X116508500Y-67752670D01*
X117182160Y-67752670D01*
X117187887Y-67760320D01*
X117359042Y-67865205D01*
X117367837Y-67869687D01*
X117577988Y-67956734D01*
X117587373Y-67959783D01*
X117808554Y-68012885D01*
X117818301Y-68014428D01*
X118045070Y-68032275D01*
X118054930Y-68032275D01*
X118281699Y-68014428D01*
X118291446Y-68012885D01*
X118512627Y-67959783D01*
X118522012Y-67956734D01*
X118732163Y-67869687D01*
X118740958Y-67865205D01*
X118908445Y-67762568D01*
X118917400Y-67752670D01*
X123682160Y-67752670D01*
X123687887Y-67760320D01*
X123859042Y-67865205D01*
X123867837Y-67869687D01*
X124077988Y-67956734D01*
X124087373Y-67959783D01*
X124308554Y-68012885D01*
X124318301Y-68014428D01*
X124545070Y-68032275D01*
X124554930Y-68032275D01*
X124781699Y-68014428D01*
X124791446Y-68012885D01*
X125012627Y-67959783D01*
X125022012Y-67956734D01*
X125232163Y-67869687D01*
X125240958Y-67865205D01*
X125408445Y-67762568D01*
X125417907Y-67752110D01*
X125414124Y-67743334D01*
X124562812Y-66892022D01*
X124548868Y-66884408D01*
X124547035Y-66884539D01*
X124540420Y-66888790D01*
X123688920Y-67740290D01*
X123682160Y-67752670D01*
X118917400Y-67752670D01*
X118917907Y-67752110D01*
X118914124Y-67743334D01*
X118062812Y-66892022D01*
X118048868Y-66884408D01*
X118047035Y-66884539D01*
X118040420Y-66888790D01*
X117188920Y-67740290D01*
X117182160Y-67752670D01*
X116508500Y-67752670D01*
X116508500Y-67337395D01*
X116528502Y-67269274D01*
X116582158Y-67222781D01*
X116652432Y-67212677D01*
X116717012Y-67242171D01*
X116741932Y-67271560D01*
X116807432Y-67378445D01*
X116817890Y-67387907D01*
X116826666Y-67384124D01*
X117677978Y-66532812D01*
X117684356Y-66521132D01*
X118414408Y-66521132D01*
X118414539Y-66522965D01*
X118418790Y-66529580D01*
X119270290Y-67381080D01*
X119282670Y-67387840D01*
X119290320Y-67382113D01*
X119395205Y-67210958D01*
X119399687Y-67202163D01*
X119486734Y-66992012D01*
X119489783Y-66982627D01*
X119542885Y-66761446D01*
X119544428Y-66751699D01*
X119562275Y-66524930D01*
X123037725Y-66524930D01*
X123055572Y-66751699D01*
X123057115Y-66761446D01*
X123110217Y-66982627D01*
X123113266Y-66992012D01*
X123200313Y-67202163D01*
X123204795Y-67210958D01*
X123307432Y-67378445D01*
X123317890Y-67387907D01*
X123326666Y-67384124D01*
X124177978Y-66532812D01*
X124184356Y-66521132D01*
X124914408Y-66521132D01*
X124914539Y-66522965D01*
X124918790Y-66529580D01*
X125770290Y-67381080D01*
X125782670Y-67387840D01*
X125790320Y-67382113D01*
X125895205Y-67210958D01*
X125899687Y-67202163D01*
X125986734Y-66992012D01*
X125989783Y-66982627D01*
X126042885Y-66761446D01*
X126044428Y-66751699D01*
X126062275Y-66524930D01*
X126062275Y-66515070D01*
X126044428Y-66288301D01*
X126042885Y-66278554D01*
X125989783Y-66057373D01*
X125986734Y-66047988D01*
X125899687Y-65837837D01*
X125895205Y-65829042D01*
X125792568Y-65661555D01*
X125782110Y-65652093D01*
X125773334Y-65655876D01*
X124922022Y-66507188D01*
X124914408Y-66521132D01*
X124184356Y-66521132D01*
X124185592Y-66518868D01*
X124185461Y-66517035D01*
X124181210Y-66510420D01*
X123329710Y-65658920D01*
X123317330Y-65652160D01*
X123309680Y-65657887D01*
X123204795Y-65829042D01*
X123200313Y-65837837D01*
X123113266Y-66047988D01*
X123110217Y-66057373D01*
X123057115Y-66278554D01*
X123055572Y-66288301D01*
X123037725Y-66515070D01*
X123037725Y-66524930D01*
X119562275Y-66524930D01*
X119562275Y-66515070D01*
X119544428Y-66288301D01*
X119542885Y-66278554D01*
X119489783Y-66057373D01*
X119486734Y-66047988D01*
X119399687Y-65837837D01*
X119395205Y-65829042D01*
X119292568Y-65661555D01*
X119282110Y-65652093D01*
X119273334Y-65655876D01*
X118422022Y-66507188D01*
X118414408Y-66521132D01*
X117684356Y-66521132D01*
X117685592Y-66518868D01*
X117685461Y-66517035D01*
X117681210Y-66510420D01*
X116829710Y-65658920D01*
X116817330Y-65652160D01*
X116809680Y-65657887D01*
X116741932Y-65768440D01*
X116689285Y-65816072D01*
X116619243Y-65827678D01*
X116554046Y-65799574D01*
X116514392Y-65740684D01*
X116508500Y-65702605D01*
X116508500Y-65287890D01*
X117182093Y-65287890D01*
X117185876Y-65296666D01*
X118037188Y-66147978D01*
X118051132Y-66155592D01*
X118052965Y-66155461D01*
X118059580Y-66151210D01*
X118911080Y-65299710D01*
X118917534Y-65287890D01*
X123682093Y-65287890D01*
X123685876Y-65296666D01*
X124537188Y-66147978D01*
X124551132Y-66155592D01*
X124552965Y-66155461D01*
X124559580Y-66151210D01*
X125411080Y-65299710D01*
X125417840Y-65287330D01*
X125412113Y-65279680D01*
X125240958Y-65174795D01*
X125232163Y-65170313D01*
X125022012Y-65083266D01*
X125012627Y-65080217D01*
X124791446Y-65027115D01*
X124781699Y-65025572D01*
X124554930Y-65007725D01*
X124545070Y-65007725D01*
X124318301Y-65025572D01*
X124308554Y-65027115D01*
X124087373Y-65080217D01*
X124077988Y-65083266D01*
X123867837Y-65170313D01*
X123859042Y-65174795D01*
X123691555Y-65277432D01*
X123682093Y-65287890D01*
X118917534Y-65287890D01*
X118917840Y-65287330D01*
X118912113Y-65279680D01*
X118740958Y-65174795D01*
X118732163Y-65170313D01*
X118522012Y-65083266D01*
X118512627Y-65080217D01*
X118291446Y-65027115D01*
X118281699Y-65025572D01*
X118054930Y-65007725D01*
X118045070Y-65007725D01*
X117818301Y-65025572D01*
X117808554Y-65027115D01*
X117587373Y-65080217D01*
X117577988Y-65083266D01*
X117367837Y-65170313D01*
X117359042Y-65174795D01*
X117191555Y-65277432D01*
X117182093Y-65287890D01*
X116508500Y-65287890D01*
X116508500Y-62838354D01*
X116528502Y-62770233D01*
X116582158Y-62723740D01*
X116652432Y-62713636D01*
X116717012Y-62743130D01*
X116741933Y-62772519D01*
X116823241Y-62905202D01*
X116823245Y-62905208D01*
X116825824Y-62909416D01*
X116980031Y-63089969D01*
X117160584Y-63244176D01*
X117164792Y-63246755D01*
X117164798Y-63246759D01*
X117358817Y-63365654D01*
X117363037Y-63368240D01*
X117367607Y-63370133D01*
X117367611Y-63370135D01*
X117457561Y-63407393D01*
X117582406Y-63459105D01*
X117662609Y-63478360D01*
X117808476Y-63513380D01*
X117808482Y-63513381D01*
X117813289Y-63514535D01*
X118050000Y-63533165D01*
X118286711Y-63514535D01*
X118291518Y-63513381D01*
X118291524Y-63513380D01*
X118437391Y-63478360D01*
X118517594Y-63459105D01*
X118642439Y-63407393D01*
X118732389Y-63370135D01*
X118732393Y-63370133D01*
X118736963Y-63368240D01*
X118741183Y-63365654D01*
X118935202Y-63246759D01*
X118935208Y-63246755D01*
X118939416Y-63244176D01*
X119119969Y-63089969D01*
X119274176Y-62909416D01*
X119276755Y-62905208D01*
X119276759Y-62905202D01*
X119395654Y-62711183D01*
X119398240Y-62706963D01*
X119440635Y-62604613D01*
X119487211Y-62492167D01*
X119487212Y-62492165D01*
X119489105Y-62487594D01*
X119522196Y-62349760D01*
X119543380Y-62261524D01*
X119543381Y-62261518D01*
X119544535Y-62256711D01*
X119563165Y-62020000D01*
X123036835Y-62020000D01*
X123055465Y-62256711D01*
X123056619Y-62261518D01*
X123056620Y-62261524D01*
X123077804Y-62349760D01*
X123110895Y-62487594D01*
X123112788Y-62492165D01*
X123112789Y-62492167D01*
X123159366Y-62604613D01*
X123201760Y-62706963D01*
X123204346Y-62711183D01*
X123323241Y-62905202D01*
X123323245Y-62905208D01*
X123325824Y-62909416D01*
X123480031Y-63089969D01*
X123660584Y-63244176D01*
X123664792Y-63246755D01*
X123664798Y-63246759D01*
X123858817Y-63365654D01*
X123863037Y-63368240D01*
X123867607Y-63370133D01*
X123867611Y-63370135D01*
X123957561Y-63407393D01*
X124082406Y-63459105D01*
X124162609Y-63478360D01*
X124308476Y-63513380D01*
X124308482Y-63513381D01*
X124313289Y-63514535D01*
X124550000Y-63533165D01*
X124786711Y-63514535D01*
X124791518Y-63513381D01*
X124791524Y-63513380D01*
X124937391Y-63478360D01*
X125017594Y-63459105D01*
X125142439Y-63407393D01*
X125232389Y-63370135D01*
X125232393Y-63370133D01*
X125236963Y-63368240D01*
X125241183Y-63365654D01*
X125435202Y-63246759D01*
X125435208Y-63246755D01*
X125439416Y-63244176D01*
X125619969Y-63089969D01*
X125774176Y-62909416D01*
X125776755Y-62905208D01*
X125776759Y-62905202D01*
X125895654Y-62711183D01*
X125898240Y-62706963D01*
X125940635Y-62604613D01*
X125987211Y-62492167D01*
X125987212Y-62492165D01*
X125989105Y-62487594D01*
X126022196Y-62349760D01*
X126043380Y-62261524D01*
X126043381Y-62261518D01*
X126044535Y-62256711D01*
X126063165Y-62020000D01*
X126044535Y-61783289D01*
X125989105Y-61552406D01*
X125898240Y-61333037D01*
X125894368Y-61326719D01*
X125776759Y-61134798D01*
X125776755Y-61134792D01*
X125774176Y-61130584D01*
X125619969Y-60950031D01*
X125439416Y-60795824D01*
X125435208Y-60793245D01*
X125435202Y-60793241D01*
X125241183Y-60674346D01*
X125236963Y-60671760D01*
X125232393Y-60669867D01*
X125232389Y-60669865D01*
X125022167Y-60582789D01*
X125022165Y-60582788D01*
X125017594Y-60580895D01*
X124937391Y-60561640D01*
X124791524Y-60526620D01*
X124791518Y-60526619D01*
X124786711Y-60525465D01*
X124550000Y-60506835D01*
X124313289Y-60525465D01*
X124308482Y-60526619D01*
X124308476Y-60526620D01*
X124162609Y-60561640D01*
X124082406Y-60580895D01*
X124077835Y-60582788D01*
X124077833Y-60582789D01*
X123867611Y-60669865D01*
X123867607Y-60669867D01*
X123863037Y-60671760D01*
X123858817Y-60674346D01*
X123664798Y-60793241D01*
X123664792Y-60793245D01*
X123660584Y-60795824D01*
X123480031Y-60950031D01*
X123325824Y-61130584D01*
X123323245Y-61134792D01*
X123323241Y-61134798D01*
X123205632Y-61326719D01*
X123201760Y-61333037D01*
X123110895Y-61552406D01*
X123055465Y-61783289D01*
X123036835Y-62020000D01*
X119563165Y-62020000D01*
X119544535Y-61783289D01*
X119489105Y-61552406D01*
X119398240Y-61333037D01*
X119394368Y-61326719D01*
X119276759Y-61134798D01*
X119276755Y-61134792D01*
X119274176Y-61130584D01*
X119119969Y-60950031D01*
X118939416Y-60795824D01*
X118935208Y-60793245D01*
X118935202Y-60793241D01*
X118741183Y-60674346D01*
X118736963Y-60671760D01*
X118732393Y-60669867D01*
X118732389Y-60669865D01*
X118522167Y-60582789D01*
X118522165Y-60582788D01*
X118517594Y-60580895D01*
X118437391Y-60561640D01*
X118291524Y-60526620D01*
X118291518Y-60526619D01*
X118286711Y-60525465D01*
X118050000Y-60506835D01*
X117813289Y-60525465D01*
X117808482Y-60526619D01*
X117808476Y-60526620D01*
X117662609Y-60561640D01*
X117582406Y-60580895D01*
X117577835Y-60582788D01*
X117577833Y-60582789D01*
X117367611Y-60669865D01*
X117367607Y-60669867D01*
X117363037Y-60671760D01*
X117358817Y-60674346D01*
X117164798Y-60793241D01*
X117164792Y-60793245D01*
X117160584Y-60795824D01*
X116980031Y-60950031D01*
X116825824Y-61130584D01*
X116823245Y-61134792D01*
X116823241Y-61134798D01*
X116741933Y-61267481D01*
X116689285Y-61315112D01*
X116619243Y-61326719D01*
X116554046Y-61298616D01*
X116514392Y-61239725D01*
X116508500Y-61201646D01*
X116508500Y-59400000D01*
X123036771Y-59400000D01*
X123037461Y-59406565D01*
X123052792Y-59552422D01*
X123055635Y-59579475D01*
X123111401Y-59751107D01*
X123201633Y-59907393D01*
X123322387Y-60041504D01*
X123327729Y-60045385D01*
X123327731Y-60045387D01*
X123431150Y-60120525D01*
X123468385Y-60147578D01*
X123474413Y-60150262D01*
X123474415Y-60150263D01*
X123627217Y-60218295D01*
X123633248Y-60220980D01*
X123721508Y-60239740D01*
X123803311Y-60257128D01*
X123803315Y-60257128D01*
X123809768Y-60258500D01*
X123990232Y-60258500D01*
X123996685Y-60257128D01*
X123996689Y-60257128D01*
X124078492Y-60239740D01*
X124166752Y-60220980D01*
X124172783Y-60218295D01*
X124325585Y-60150263D01*
X124325587Y-60150262D01*
X124331615Y-60147578D01*
X124368850Y-60120525D01*
X124472269Y-60045387D01*
X124472271Y-60045385D01*
X124477613Y-60041504D01*
X124598367Y-59907393D01*
X124688599Y-59751107D01*
X124744365Y-59579475D01*
X124747209Y-59552422D01*
X124762539Y-59406565D01*
X124763229Y-59400000D01*
X124744365Y-59220525D01*
X124688599Y-59048893D01*
X124598367Y-58892607D01*
X124477613Y-58758496D01*
X124466282Y-58750263D01*
X124336957Y-58656303D01*
X124336956Y-58656302D01*
X124331615Y-58652422D01*
X124325587Y-58649738D01*
X124325585Y-58649737D01*
X124172783Y-58581705D01*
X124172781Y-58581705D01*
X124166752Y-58579020D01*
X124078492Y-58560260D01*
X123996689Y-58542872D01*
X123996685Y-58542872D01*
X123990232Y-58541500D01*
X123809768Y-58541500D01*
X123803315Y-58542872D01*
X123803311Y-58542872D01*
X123721508Y-58560260D01*
X123633248Y-58579020D01*
X123627219Y-58581704D01*
X123627217Y-58581705D01*
X123474416Y-58649737D01*
X123474414Y-58649738D01*
X123468386Y-58652422D01*
X123463045Y-58656302D01*
X123463044Y-58656303D01*
X123327731Y-58754613D01*
X123327729Y-58754615D01*
X123322387Y-58758496D01*
X123201633Y-58892607D01*
X123111401Y-59048893D01*
X123055635Y-59220525D01*
X123036771Y-59400000D01*
X116508500Y-59400000D01*
X116508500Y-56100000D01*
X137836771Y-56100000D01*
X137837461Y-56106565D01*
X137850204Y-56227799D01*
X137855635Y-56279475D01*
X137857675Y-56285753D01*
X137857675Y-56285754D01*
X137873281Y-56333784D01*
X137911401Y-56451107D01*
X138001633Y-56607393D01*
X138122387Y-56741504D01*
X138127729Y-56745385D01*
X138127731Y-56745387D01*
X138263043Y-56843697D01*
X138268385Y-56847578D01*
X138274413Y-56850262D01*
X138274415Y-56850263D01*
X138292907Y-56858496D01*
X138433248Y-56920980D01*
X138521508Y-56939740D01*
X138603311Y-56957128D01*
X138603315Y-56957128D01*
X138609768Y-56958500D01*
X138790232Y-56958500D01*
X138816655Y-56952884D01*
X138956636Y-56923131D01*
X139027427Y-56928534D01*
X139084059Y-56971351D01*
X139108552Y-57037988D01*
X139091952Y-57109375D01*
X139011401Y-57248893D01*
X139009359Y-57255178D01*
X138974194Y-57363407D01*
X138955635Y-57420525D01*
X138936771Y-57600000D01*
X138955635Y-57779475D01*
X138957675Y-57785753D01*
X138957675Y-57785754D01*
X138976867Y-57844822D01*
X139011401Y-57951107D01*
X139014704Y-57956829D01*
X139014705Y-57956830D01*
X139043420Y-58006565D01*
X139101633Y-58107393D01*
X139106051Y-58112300D01*
X139106052Y-58112301D01*
X139217965Y-58236593D01*
X139222387Y-58241504D01*
X139227729Y-58245385D01*
X139227731Y-58245387D01*
X139331776Y-58320980D01*
X139368385Y-58347578D01*
X139374413Y-58350262D01*
X139374415Y-58350263D01*
X139392916Y-58358500D01*
X139533248Y-58420980D01*
X139621508Y-58439740D01*
X139703311Y-58457128D01*
X139703315Y-58457128D01*
X139709768Y-58458500D01*
X139890232Y-58458500D01*
X139896685Y-58457128D01*
X139896689Y-58457128D01*
X139978492Y-58439740D01*
X140066752Y-58420980D01*
X140207084Y-58358500D01*
X140225585Y-58350263D01*
X140225587Y-58350262D01*
X140231615Y-58347578D01*
X140268224Y-58320980D01*
X140372269Y-58245387D01*
X140372271Y-58245385D01*
X140377613Y-58241504D01*
X140382035Y-58236593D01*
X140493948Y-58112301D01*
X140493949Y-58112300D01*
X140498367Y-58107393D01*
X140556580Y-58006565D01*
X140585295Y-57956830D01*
X140585296Y-57956829D01*
X140588599Y-57951107D01*
X140623133Y-57844822D01*
X140642325Y-57785754D01*
X140642325Y-57785753D01*
X140644365Y-57779475D01*
X140663229Y-57600000D01*
X140652718Y-57500000D01*
X144886771Y-57500000D01*
X144905635Y-57679475D01*
X144961401Y-57851107D01*
X145051633Y-58007393D01*
X145056051Y-58012300D01*
X145056052Y-58012301D01*
X145167965Y-58136593D01*
X145172387Y-58141504D01*
X145177729Y-58145385D01*
X145177731Y-58145387D01*
X145303265Y-58236593D01*
X145318385Y-58247578D01*
X145324413Y-58250262D01*
X145324415Y-58250263D01*
X145477217Y-58318295D01*
X145483248Y-58320980D01*
X145571508Y-58339740D01*
X145653311Y-58357128D01*
X145653315Y-58357128D01*
X145659768Y-58358500D01*
X145840232Y-58358500D01*
X145846685Y-58357128D01*
X145846689Y-58357128D01*
X145928492Y-58339740D01*
X146016752Y-58320980D01*
X146022783Y-58318295D01*
X146175585Y-58250263D01*
X146175587Y-58250262D01*
X146181615Y-58247578D01*
X146196735Y-58236593D01*
X146322269Y-58145387D01*
X146322271Y-58145385D01*
X146327613Y-58141504D01*
X146332035Y-58136593D01*
X146443948Y-58012301D01*
X146443949Y-58012300D01*
X146448367Y-58007393D01*
X146538599Y-57851107D01*
X146594365Y-57679475D01*
X146613229Y-57500000D01*
X146594365Y-57320525D01*
X146538599Y-57148893D01*
X146509404Y-57098325D01*
X146451668Y-56998325D01*
X146448367Y-56992607D01*
X146417654Y-56958496D01*
X146332035Y-56863407D01*
X146332034Y-56863406D01*
X146327613Y-56858496D01*
X146316282Y-56850263D01*
X146186957Y-56756303D01*
X146186956Y-56756302D01*
X146181615Y-56752422D01*
X146175587Y-56749738D01*
X146175585Y-56749737D01*
X146022783Y-56681705D01*
X146022781Y-56681705D01*
X146016752Y-56679020D01*
X145928492Y-56660260D01*
X145846689Y-56642872D01*
X145846685Y-56642872D01*
X145840232Y-56641500D01*
X145659768Y-56641500D01*
X145653315Y-56642872D01*
X145653311Y-56642872D01*
X145571508Y-56660260D01*
X145483248Y-56679020D01*
X145477219Y-56681704D01*
X145477217Y-56681705D01*
X145324416Y-56749737D01*
X145324414Y-56749738D01*
X145318386Y-56752422D01*
X145313045Y-56756302D01*
X145313044Y-56756303D01*
X145177731Y-56854613D01*
X145177729Y-56854615D01*
X145172387Y-56858496D01*
X145167966Y-56863406D01*
X145167965Y-56863407D01*
X145082347Y-56958496D01*
X145051633Y-56992607D01*
X145048332Y-56998325D01*
X144990597Y-57098325D01*
X144961401Y-57148893D01*
X144905635Y-57320525D01*
X144886771Y-57500000D01*
X140652718Y-57500000D01*
X140644365Y-57420525D01*
X140625807Y-57363407D01*
X140590641Y-57255178D01*
X140588599Y-57248893D01*
X140498367Y-57092607D01*
X140403908Y-56987699D01*
X140382035Y-56963407D01*
X140382034Y-56963406D01*
X140377613Y-56958496D01*
X140328938Y-56923131D01*
X140236957Y-56856303D01*
X140236956Y-56856302D01*
X140231615Y-56852422D01*
X140225587Y-56849738D01*
X140225585Y-56849737D01*
X140072783Y-56781705D01*
X140072781Y-56781705D01*
X140066752Y-56779020D01*
X139959876Y-56756303D01*
X139896689Y-56742872D01*
X139896685Y-56742872D01*
X139890232Y-56741500D01*
X139709768Y-56741500D01*
X139691481Y-56745387D01*
X139543364Y-56776869D01*
X139472573Y-56771466D01*
X139415941Y-56728649D01*
X139391448Y-56662012D01*
X139408048Y-56590625D01*
X139488599Y-56451107D01*
X139526719Y-56333784D01*
X139542325Y-56285754D01*
X139542325Y-56285753D01*
X139544365Y-56279475D01*
X139549797Y-56227799D01*
X139562539Y-56106565D01*
X139563229Y-56100000D01*
X139544365Y-55920525D01*
X139488599Y-55748893D01*
X139483374Y-55739842D01*
X139453311Y-55687773D01*
X139398367Y-55592607D01*
X139277613Y-55458496D01*
X139271925Y-55454363D01*
X139136957Y-55356303D01*
X139136956Y-55356302D01*
X139131615Y-55352422D01*
X139125587Y-55349738D01*
X139125585Y-55349737D01*
X138972783Y-55281705D01*
X138972781Y-55281705D01*
X138966752Y-55279020D01*
X138878492Y-55260260D01*
X138830223Y-55250000D01*
X160436771Y-55250000D01*
X160455635Y-55429475D01*
X160457675Y-55435753D01*
X160457675Y-55435754D01*
X160463783Y-55454552D01*
X160511401Y-55601107D01*
X160514704Y-55606829D01*
X160514705Y-55606830D01*
X160574619Y-55710603D01*
X160591500Y-55773603D01*
X160591500Y-56098588D01*
X160591208Y-56107158D01*
X160587275Y-56164852D01*
X160588580Y-56172329D01*
X160588580Y-56172330D01*
X160598261Y-56227799D01*
X160599223Y-56234321D01*
X160606898Y-56297742D01*
X160609581Y-56304843D01*
X160610222Y-56307452D01*
X160614685Y-56323762D01*
X160615450Y-56326298D01*
X160616757Y-56333784D01*
X160619811Y-56340741D01*
X160642442Y-56392295D01*
X160644935Y-56398404D01*
X160662475Y-56444822D01*
X160667513Y-56458156D01*
X160671817Y-56464419D01*
X160673054Y-56466785D01*
X160681299Y-56481597D01*
X160682632Y-56483851D01*
X160685685Y-56490805D01*
X160690307Y-56496828D01*
X160724579Y-56541491D01*
X160728459Y-56546832D01*
X160760339Y-56593220D01*
X160760344Y-56593225D01*
X160764643Y-56599481D01*
X160770313Y-56604532D01*
X160770314Y-56604534D01*
X160811170Y-56640935D01*
X160816446Y-56645916D01*
X162411020Y-58240490D01*
X162441756Y-58290646D01*
X162461401Y-58351107D01*
X162551633Y-58507393D01*
X162672387Y-58641504D01*
X162677729Y-58645385D01*
X162677731Y-58645387D01*
X162687414Y-58652422D01*
X162818385Y-58747578D01*
X162824413Y-58750262D01*
X162824415Y-58750263D01*
X162842907Y-58758496D01*
X162983248Y-58820980D01*
X163071508Y-58839740D01*
X163153311Y-58857128D01*
X163153315Y-58857128D01*
X163159768Y-58858500D01*
X163340232Y-58858500D01*
X163346685Y-58857128D01*
X163346689Y-58857128D01*
X163428492Y-58839740D01*
X163516752Y-58820980D01*
X163657093Y-58758496D01*
X163675585Y-58750263D01*
X163675587Y-58750262D01*
X163681615Y-58747578D01*
X163812586Y-58652422D01*
X163822269Y-58645387D01*
X163822271Y-58645385D01*
X163827613Y-58641504D01*
X163948367Y-58507393D01*
X164038599Y-58351107D01*
X164074540Y-58240490D01*
X164092325Y-58185754D01*
X164092325Y-58185753D01*
X164094365Y-58179475D01*
X164113229Y-58000000D01*
X164094365Y-57820525D01*
X164078895Y-57772911D01*
X164040641Y-57655178D01*
X164038599Y-57648893D01*
X163948367Y-57492607D01*
X163889375Y-57427089D01*
X163832035Y-57363407D01*
X163832034Y-57363406D01*
X163827613Y-57358496D01*
X163766709Y-57314246D01*
X163686957Y-57256303D01*
X163686956Y-57256302D01*
X163681615Y-57252422D01*
X163675587Y-57249738D01*
X163675585Y-57249737D01*
X163522783Y-57181705D01*
X163522781Y-57181705D01*
X163516752Y-57179020D01*
X163375014Y-57148893D01*
X163345926Y-57142710D01*
X163283028Y-57108558D01*
X162045405Y-55870935D01*
X162011379Y-55808623D01*
X162008500Y-55781840D01*
X162008500Y-55773603D01*
X162025381Y-55710603D01*
X162085295Y-55606830D01*
X162085296Y-55606829D01*
X162088599Y-55601107D01*
X162136217Y-55454552D01*
X162142325Y-55435754D01*
X162142325Y-55435753D01*
X162144365Y-55429475D01*
X162163229Y-55250000D01*
X162144365Y-55070525D01*
X162130271Y-55027146D01*
X162090641Y-54905178D01*
X162088599Y-54898893D01*
X161998367Y-54742607D01*
X161877613Y-54608496D01*
X161755983Y-54520126D01*
X161736957Y-54506303D01*
X161736956Y-54506302D01*
X161731615Y-54502422D01*
X161725587Y-54499738D01*
X161725585Y-54499737D01*
X161572783Y-54431705D01*
X161572781Y-54431705D01*
X161566752Y-54429020D01*
X161466001Y-54407605D01*
X161396689Y-54392872D01*
X161396685Y-54392872D01*
X161390232Y-54391500D01*
X161209768Y-54391500D01*
X161203315Y-54392872D01*
X161203311Y-54392872D01*
X161133999Y-54407605D01*
X161033248Y-54429020D01*
X161027219Y-54431704D01*
X161027217Y-54431705D01*
X160874416Y-54499737D01*
X160874414Y-54499738D01*
X160868386Y-54502422D01*
X160863045Y-54506302D01*
X160863044Y-54506303D01*
X160727731Y-54604613D01*
X160727729Y-54604615D01*
X160722387Y-54608496D01*
X160601633Y-54742607D01*
X160511401Y-54898893D01*
X160509359Y-54905178D01*
X160469730Y-55027146D01*
X160455635Y-55070525D01*
X160436771Y-55250000D01*
X138830223Y-55250000D01*
X138796689Y-55242872D01*
X138796685Y-55242872D01*
X138790232Y-55241500D01*
X138609768Y-55241500D01*
X138603315Y-55242872D01*
X138603311Y-55242872D01*
X138521508Y-55260260D01*
X138433248Y-55279020D01*
X138427219Y-55281704D01*
X138427217Y-55281705D01*
X138274416Y-55349737D01*
X138274414Y-55349738D01*
X138268386Y-55352422D01*
X138263045Y-55356302D01*
X138263044Y-55356303D01*
X138127731Y-55454613D01*
X138127729Y-55454615D01*
X138122387Y-55458496D01*
X138001633Y-55592607D01*
X137946689Y-55687773D01*
X137916627Y-55739842D01*
X137911401Y-55748893D01*
X137855635Y-55920525D01*
X137836771Y-56100000D01*
X116508500Y-56100000D01*
X116508500Y-53931131D01*
X164076860Y-53931131D01*
X164077157Y-53936283D01*
X164077157Y-53936287D01*
X164088558Y-54133999D01*
X164090903Y-54174671D01*
X164092040Y-54179717D01*
X164092041Y-54179723D01*
X164115107Y-54282075D01*
X164144533Y-54412647D01*
X164146475Y-54417429D01*
X164146476Y-54417433D01*
X164222482Y-54604613D01*
X164236311Y-54638669D01*
X164363772Y-54846666D01*
X164523492Y-55031053D01*
X164711183Y-55186877D01*
X164921804Y-55309953D01*
X165149698Y-55396978D01*
X165154764Y-55398009D01*
X165154765Y-55398009D01*
X165383667Y-55444580D01*
X165383671Y-55444580D01*
X165388746Y-55445613D01*
X165393922Y-55445803D01*
X165393924Y-55445803D01*
X165627363Y-55454363D01*
X165627367Y-55454363D01*
X165632527Y-55454552D01*
X165637647Y-55453896D01*
X165637649Y-55453896D01*
X165714377Y-55444067D01*
X165874494Y-55423555D01*
X165879443Y-55422070D01*
X165879449Y-55422069D01*
X166103200Y-55354940D01*
X166103199Y-55354940D01*
X166108150Y-55353455D01*
X166327219Y-55246134D01*
X166331424Y-55243134D01*
X166331430Y-55243131D01*
X166521614Y-55107474D01*
X166521616Y-55107472D01*
X166525818Y-55104475D01*
X166698614Y-54932281D01*
X166718090Y-54905178D01*
X166757330Y-54850569D01*
X166840966Y-54734177D01*
X166949050Y-54515484D01*
X166986720Y-54391500D01*
X167018462Y-54287027D01*
X167018463Y-54287021D01*
X167019966Y-54282075D01*
X167051807Y-54040217D01*
X167053584Y-53967500D01*
X167033596Y-53724376D01*
X166974167Y-53487780D01*
X166876894Y-53264068D01*
X166744390Y-53059248D01*
X166580212Y-52878819D01*
X166576161Y-52875620D01*
X166576157Y-52875616D01*
X166392825Y-52730829D01*
X166392821Y-52730827D01*
X166388770Y-52727627D01*
X166175205Y-52609733D01*
X166170336Y-52608009D01*
X166170332Y-52608007D01*
X165950127Y-52530028D01*
X165950123Y-52530027D01*
X165945252Y-52528302D01*
X165940159Y-52527395D01*
X165940156Y-52527394D01*
X165710177Y-52486428D01*
X165710171Y-52486427D01*
X165705088Y-52485522D01*
X165625380Y-52484548D01*
X165466332Y-52482605D01*
X165466330Y-52482605D01*
X165461162Y-52482542D01*
X165220024Y-52519441D01*
X164988150Y-52595229D01*
X164771769Y-52707870D01*
X164767636Y-52710973D01*
X164767633Y-52710975D01*
X164580825Y-52851235D01*
X164576690Y-52854340D01*
X164408153Y-53030704D01*
X164405239Y-53034976D01*
X164405238Y-53034977D01*
X164385719Y-53063591D01*
X164270684Y-53232226D01*
X164167974Y-53453495D01*
X164102783Y-53688567D01*
X164076860Y-53931131D01*
X116508500Y-53931131D01*
X116508500Y-50400000D01*
X131736771Y-50400000D01*
X131755635Y-50579475D01*
X131811401Y-50751107D01*
X131901633Y-50907393D01*
X132022387Y-51041504D01*
X132168385Y-51147578D01*
X132174413Y-51150262D01*
X132174415Y-51150263D01*
X132327217Y-51218295D01*
X132333248Y-51220980D01*
X132421508Y-51239740D01*
X132503311Y-51257128D01*
X132503315Y-51257128D01*
X132509768Y-51258500D01*
X132690232Y-51258500D01*
X132696685Y-51257128D01*
X132696689Y-51257128D01*
X132778492Y-51239740D01*
X132866752Y-51220980D01*
X132872783Y-51218295D01*
X133025585Y-51150263D01*
X133025587Y-51150262D01*
X133031615Y-51147578D01*
X133177613Y-51041504D01*
X133298367Y-50907393D01*
X133388599Y-50751107D01*
X133444365Y-50579475D01*
X133454727Y-50480887D01*
X133481740Y-50415230D01*
X133490942Y-50404962D01*
X134742253Y-49153652D01*
X134750539Y-49146112D01*
X134757018Y-49142000D01*
X134803644Y-49092348D01*
X134806398Y-49089507D01*
X134826135Y-49069770D01*
X134828615Y-49066573D01*
X134836320Y-49057551D01*
X134861159Y-49031100D01*
X134866586Y-49025321D01*
X134870405Y-49018375D01*
X134870407Y-49018372D01*
X134876348Y-49007566D01*
X134887199Y-48991047D01*
X134894758Y-48981301D01*
X134899614Y-48975041D01*
X134902759Y-48967772D01*
X134902762Y-48967768D01*
X134917174Y-48934463D01*
X134922391Y-48923813D01*
X134943695Y-48885060D01*
X134948733Y-48865437D01*
X134955137Y-48846734D01*
X134960033Y-48835420D01*
X134960033Y-48835419D01*
X134963181Y-48828145D01*
X134964420Y-48820322D01*
X134964423Y-48820312D01*
X134970099Y-48784476D01*
X134972505Y-48772856D01*
X134981528Y-48737711D01*
X134981528Y-48737710D01*
X134983500Y-48730030D01*
X134983500Y-48709776D01*
X134985051Y-48690065D01*
X134986980Y-48677886D01*
X134988220Y-48670057D01*
X134984059Y-48626038D01*
X134983500Y-48614181D01*
X134983500Y-48400000D01*
X139436771Y-48400000D01*
X139455635Y-48579475D01*
X139457675Y-48585753D01*
X139457675Y-48585754D01*
X139468843Y-48620125D01*
X139511401Y-48751107D01*
X139601633Y-48907393D01*
X139606051Y-48912300D01*
X139606052Y-48912301D01*
X139647650Y-48958500D01*
X139722387Y-49041504D01*
X139727729Y-49045385D01*
X139727731Y-49045387D01*
X139863043Y-49143697D01*
X139868385Y-49147578D01*
X139874413Y-49150262D01*
X139874415Y-49150263D01*
X139882027Y-49153652D01*
X140033248Y-49220980D01*
X140121508Y-49239740D01*
X140203311Y-49257128D01*
X140203315Y-49257128D01*
X140209768Y-49258500D01*
X140390232Y-49258500D01*
X140396685Y-49257128D01*
X140396689Y-49257128D01*
X140478492Y-49239740D01*
X140566752Y-49220980D01*
X140717973Y-49153652D01*
X140725585Y-49150263D01*
X140725587Y-49150262D01*
X140731615Y-49147578D01*
X140736957Y-49143697D01*
X140872269Y-49045387D01*
X140872271Y-49045385D01*
X140877613Y-49041504D01*
X140952350Y-48958500D01*
X140993948Y-48912301D01*
X140993949Y-48912300D01*
X140998367Y-48907393D01*
X141088599Y-48751107D01*
X141131157Y-48620125D01*
X141142325Y-48585754D01*
X141142325Y-48585753D01*
X141144365Y-48579475D01*
X141163229Y-48400000D01*
X141144365Y-48220525D01*
X141105204Y-48100000D01*
X152636771Y-48100000D01*
X152637461Y-48106565D01*
X152652187Y-48246666D01*
X152655635Y-48279475D01*
X152657675Y-48285753D01*
X152657675Y-48285754D01*
X152673808Y-48335406D01*
X152711401Y-48451107D01*
X152801633Y-48607393D01*
X152806051Y-48612300D01*
X152806052Y-48612301D01*
X152838566Y-48648411D01*
X152922387Y-48741504D01*
X152927729Y-48745385D01*
X152927731Y-48745387D01*
X153041638Y-48828145D01*
X153068385Y-48847578D01*
X153074413Y-48850262D01*
X153074415Y-48850263D01*
X153227217Y-48918295D01*
X153233248Y-48920980D01*
X153321508Y-48939740D01*
X153403311Y-48957128D01*
X153403315Y-48957128D01*
X153409768Y-48958500D01*
X153590232Y-48958500D01*
X153596685Y-48957128D01*
X153596689Y-48957128D01*
X153678492Y-48939740D01*
X153766752Y-48920980D01*
X153772783Y-48918295D01*
X153925585Y-48850263D01*
X153925587Y-48850262D01*
X153931615Y-48847578D01*
X153958362Y-48828145D01*
X154072269Y-48745387D01*
X154072271Y-48745385D01*
X154077613Y-48741504D01*
X154161434Y-48648411D01*
X154193948Y-48612301D01*
X154193949Y-48612300D01*
X154198367Y-48607393D01*
X154288599Y-48451107D01*
X154326192Y-48335406D01*
X154342325Y-48285754D01*
X154342325Y-48285753D01*
X154344365Y-48279475D01*
X154347814Y-48246666D01*
X154362539Y-48106565D01*
X154363229Y-48100000D01*
X154344365Y-47920525D01*
X154341118Y-47910530D01*
X154290641Y-47755178D01*
X154288599Y-47748893D01*
X154198367Y-47592607D01*
X154182218Y-47574671D01*
X154082035Y-47463407D01*
X154082034Y-47463406D01*
X154077613Y-47458496D01*
X154058793Y-47444822D01*
X153936957Y-47356303D01*
X153936956Y-47356302D01*
X153931615Y-47352422D01*
X153925587Y-47349738D01*
X153925585Y-47349737D01*
X153883795Y-47331131D01*
X164076860Y-47331131D01*
X164077157Y-47336283D01*
X164077157Y-47336287D01*
X164083416Y-47444822D01*
X164090903Y-47574671D01*
X164092040Y-47579717D01*
X164092041Y-47579723D01*
X164115107Y-47682075D01*
X164144533Y-47812647D01*
X164146475Y-47817429D01*
X164146476Y-47817433D01*
X164234367Y-48033882D01*
X164236311Y-48038669D01*
X164363772Y-48246666D01*
X164523492Y-48431053D01*
X164711183Y-48586877D01*
X164921804Y-48709953D01*
X165149698Y-48796978D01*
X165154764Y-48798009D01*
X165154765Y-48798009D01*
X165383667Y-48844580D01*
X165383671Y-48844580D01*
X165388746Y-48845613D01*
X165393922Y-48845803D01*
X165393924Y-48845803D01*
X165627363Y-48854363D01*
X165627367Y-48854363D01*
X165632527Y-48854552D01*
X165637647Y-48853896D01*
X165637649Y-48853896D01*
X165717263Y-48843697D01*
X165874494Y-48823555D01*
X165879443Y-48822070D01*
X165879449Y-48822069D01*
X166079337Y-48762099D01*
X166108150Y-48753455D01*
X166327219Y-48646134D01*
X166331424Y-48643134D01*
X166331430Y-48643131D01*
X166521614Y-48507474D01*
X166521616Y-48507472D01*
X166525818Y-48504475D01*
X166698614Y-48332281D01*
X166840966Y-48134177D01*
X166880010Y-48055178D01*
X166946756Y-47920126D01*
X166946757Y-47920124D01*
X166949050Y-47915484D01*
X166995255Y-47763407D01*
X167018462Y-47687027D01*
X167018463Y-47687021D01*
X167019966Y-47682075D01*
X167049912Y-47454613D01*
X167051370Y-47443538D01*
X167051370Y-47443534D01*
X167051807Y-47440217D01*
X167053584Y-47367500D01*
X167033596Y-47124376D01*
X166974167Y-46887780D01*
X166876894Y-46664068D01*
X166744390Y-46459248D01*
X166740177Y-46454617D01*
X166583690Y-46282641D01*
X166583688Y-46282640D01*
X166580212Y-46278819D01*
X166576161Y-46275620D01*
X166576157Y-46275616D01*
X166392825Y-46130829D01*
X166392821Y-46130827D01*
X166388770Y-46127627D01*
X166366846Y-46115524D01*
X166237580Y-46044166D01*
X166175205Y-46009733D01*
X166170336Y-46008009D01*
X166170332Y-46008007D01*
X165950127Y-45930028D01*
X165950123Y-45930027D01*
X165945252Y-45928302D01*
X165940159Y-45927395D01*
X165940156Y-45927394D01*
X165710177Y-45886428D01*
X165710171Y-45886427D01*
X165705088Y-45885522D01*
X165625380Y-45884548D01*
X165466332Y-45882605D01*
X165466330Y-45882605D01*
X165461162Y-45882542D01*
X165220024Y-45919441D01*
X164988150Y-45995229D01*
X164771769Y-46107870D01*
X164767636Y-46110973D01*
X164767633Y-46110975D01*
X164580825Y-46251235D01*
X164576690Y-46254340D01*
X164408153Y-46430704D01*
X164405239Y-46434976D01*
X164405238Y-46434977D01*
X164385719Y-46463591D01*
X164270684Y-46632226D01*
X164167974Y-46853495D01*
X164102783Y-47088567D01*
X164076860Y-47331131D01*
X153883795Y-47331131D01*
X153772783Y-47281705D01*
X153772781Y-47281705D01*
X153766752Y-47279020D01*
X153678492Y-47260260D01*
X153596689Y-47242872D01*
X153596685Y-47242872D01*
X153590232Y-47241500D01*
X153409768Y-47241500D01*
X153403315Y-47242872D01*
X153403311Y-47242872D01*
X153321508Y-47260260D01*
X153233248Y-47279020D01*
X153227219Y-47281704D01*
X153227217Y-47281705D01*
X153074416Y-47349737D01*
X153074414Y-47349738D01*
X153068386Y-47352422D01*
X153063045Y-47356302D01*
X153063044Y-47356303D01*
X152927731Y-47454613D01*
X152927729Y-47454615D01*
X152922387Y-47458496D01*
X152917966Y-47463406D01*
X152917965Y-47463407D01*
X152817783Y-47574671D01*
X152801633Y-47592607D01*
X152711401Y-47748893D01*
X152709359Y-47755178D01*
X152658883Y-47910530D01*
X152655635Y-47920525D01*
X152636771Y-48100000D01*
X141105204Y-48100000D01*
X141088599Y-48048893D01*
X141079933Y-48033882D01*
X141014748Y-47920980D01*
X140998367Y-47892607D01*
X140877613Y-47758496D01*
X140859571Y-47745387D01*
X140736957Y-47656303D01*
X140736956Y-47656302D01*
X140731615Y-47652422D01*
X140725587Y-47649738D01*
X140725585Y-47649737D01*
X140572783Y-47581705D01*
X140572781Y-47581705D01*
X140566752Y-47579020D01*
X140478492Y-47560260D01*
X140396689Y-47542872D01*
X140396685Y-47542872D01*
X140390232Y-47541500D01*
X140209768Y-47541500D01*
X140203315Y-47542872D01*
X140203311Y-47542872D01*
X140121508Y-47560260D01*
X140033248Y-47579020D01*
X140027219Y-47581704D01*
X140027217Y-47581705D01*
X139874416Y-47649737D01*
X139874414Y-47649738D01*
X139868386Y-47652422D01*
X139863045Y-47656302D01*
X139863044Y-47656303D01*
X139727731Y-47754613D01*
X139727729Y-47754615D01*
X139722387Y-47758496D01*
X139601633Y-47892607D01*
X139585252Y-47920980D01*
X139520068Y-48033882D01*
X139511401Y-48048893D01*
X139455635Y-48220525D01*
X139436771Y-48400000D01*
X134983500Y-48400000D01*
X134983500Y-46738849D01*
X135003502Y-46670728D01*
X135057158Y-46624235D01*
X135064036Y-46621557D01*
X135066752Y-46620980D01*
X135162419Y-46578386D01*
X135225585Y-46550263D01*
X135225587Y-46550262D01*
X135231615Y-46547578D01*
X135236957Y-46543697D01*
X135372269Y-46445387D01*
X135372271Y-46445385D01*
X135377613Y-46441504D01*
X135498367Y-46307393D01*
X135573131Y-46177899D01*
X135585295Y-46156830D01*
X135585296Y-46156829D01*
X135588599Y-46151107D01*
X135634534Y-46009733D01*
X135642325Y-45985754D01*
X135642325Y-45985753D01*
X135644365Y-45979475D01*
X135663229Y-45800000D01*
X135644365Y-45620525D01*
X135588599Y-45448893D01*
X135498367Y-45292607D01*
X135377613Y-45158496D01*
X135231615Y-45052422D01*
X135225587Y-45049738D01*
X135225585Y-45049737D01*
X135072783Y-44981705D01*
X135072781Y-44981705D01*
X135066752Y-44979020D01*
X134978492Y-44960260D01*
X134896689Y-44942872D01*
X134896685Y-44942872D01*
X134890232Y-44941500D01*
X134709768Y-44941500D01*
X134703315Y-44942872D01*
X134703311Y-44942872D01*
X134621508Y-44960260D01*
X134533248Y-44979020D01*
X134527219Y-44981704D01*
X134527217Y-44981705D01*
X134374416Y-45049737D01*
X134374414Y-45049738D01*
X134368386Y-45052422D01*
X134363045Y-45056302D01*
X134363044Y-45056303D01*
X134227731Y-45154613D01*
X134227729Y-45154615D01*
X134222387Y-45158496D01*
X134101633Y-45292607D01*
X134011401Y-45448893D01*
X133955635Y-45620525D01*
X133954945Y-45627088D01*
X133954945Y-45627089D01*
X133945391Y-45717984D01*
X133918377Y-45783641D01*
X133911934Y-45791063D01*
X133896373Y-45807635D01*
X133893615Y-45810481D01*
X133873865Y-45830230D01*
X133871385Y-45833427D01*
X133863682Y-45842447D01*
X133833414Y-45874679D01*
X133829595Y-45881625D01*
X133829593Y-45881628D01*
X133823652Y-45892434D01*
X133812801Y-45908953D01*
X133800386Y-45924959D01*
X133797241Y-45932228D01*
X133797238Y-45932232D01*
X133782826Y-45965537D01*
X133777609Y-45976187D01*
X133756305Y-46014940D01*
X133754334Y-46022615D01*
X133754334Y-46022616D01*
X133751267Y-46034562D01*
X133744863Y-46053266D01*
X133736819Y-46071855D01*
X133735580Y-46079678D01*
X133735577Y-46079688D01*
X133729901Y-46115524D01*
X133727495Y-46127144D01*
X133721343Y-46151107D01*
X133716500Y-46169970D01*
X133716500Y-46190224D01*
X133714949Y-46209934D01*
X133711780Y-46229943D01*
X133712526Y-46237835D01*
X133715941Y-46273961D01*
X133716500Y-46285819D01*
X133716500Y-48335406D01*
X133696498Y-48403527D01*
X133679595Y-48424501D01*
X132599500Y-49504595D01*
X132537188Y-49538621D01*
X132522869Y-49540160D01*
X132522937Y-49540810D01*
X132516370Y-49541500D01*
X132509768Y-49541500D01*
X132503315Y-49542872D01*
X132503311Y-49542872D01*
X132421508Y-49560260D01*
X132333248Y-49579020D01*
X132327219Y-49581704D01*
X132327217Y-49581705D01*
X132174416Y-49649737D01*
X132174414Y-49649738D01*
X132168386Y-49652422D01*
X132163045Y-49656302D01*
X132163044Y-49656303D01*
X132027731Y-49754613D01*
X132027729Y-49754615D01*
X132022387Y-49758496D01*
X131901633Y-49892607D01*
X131811401Y-50048893D01*
X131755635Y-50220525D01*
X131736771Y-50400000D01*
X116508500Y-50400000D01*
X116508500Y-43771489D01*
X123211227Y-43771489D01*
X123213096Y-43800000D01*
X123224263Y-43970380D01*
X123225684Y-43975976D01*
X123225685Y-43975981D01*
X123236998Y-44020525D01*
X123273326Y-44163564D01*
X123275743Y-44168807D01*
X123312265Y-44248029D01*
X123356772Y-44344573D01*
X123471807Y-44507344D01*
X123614578Y-44646425D01*
X123780304Y-44757160D01*
X123785607Y-44759438D01*
X123785610Y-44759440D01*
X123958128Y-44833559D01*
X123963435Y-44835839D01*
X124035516Y-44852149D01*
X124152201Y-44878553D01*
X124152207Y-44878554D01*
X124157838Y-44879828D01*
X124163609Y-44880055D01*
X124163611Y-44880055D01*
X124224556Y-44882449D01*
X124357001Y-44887653D01*
X124456959Y-44873160D01*
X124548535Y-44859883D01*
X124548540Y-44859882D01*
X124554256Y-44859053D01*
X124559728Y-44857195D01*
X124559730Y-44857195D01*
X124737532Y-44796839D01*
X124737534Y-44796838D01*
X124742996Y-44794984D01*
X124916899Y-44697594D01*
X125070143Y-44570143D01*
X125197594Y-44416899D01*
X125294984Y-44242996D01*
X125309579Y-44200000D01*
X127736771Y-44200000D01*
X127737461Y-44206565D01*
X127751967Y-44344573D01*
X127755635Y-44379475D01*
X127811401Y-44551107D01*
X127901633Y-44707393D01*
X128022387Y-44841504D01*
X128027729Y-44845385D01*
X128027731Y-44845387D01*
X128163043Y-44943697D01*
X128168385Y-44947578D01*
X128174413Y-44950262D01*
X128174415Y-44950263D01*
X128245035Y-44981705D01*
X128333248Y-45020980D01*
X128457682Y-45047429D01*
X128466400Y-45049282D01*
X128528873Y-45083010D01*
X128563195Y-45145160D01*
X128558467Y-45215999D01*
X128533842Y-45256836D01*
X128501633Y-45292607D01*
X128411401Y-45448893D01*
X128355635Y-45620525D01*
X128336771Y-45800000D01*
X128355635Y-45979475D01*
X128357675Y-45985753D01*
X128357675Y-45985754D01*
X128365466Y-46009733D01*
X128411401Y-46151107D01*
X128414704Y-46156829D01*
X128414705Y-46156830D01*
X128482949Y-46275031D01*
X128499687Y-46344026D01*
X128476467Y-46411118D01*
X128447893Y-46439965D01*
X128422387Y-46458496D01*
X128301633Y-46592607D01*
X128211401Y-46748893D01*
X128155635Y-46920525D01*
X128136771Y-47100000D01*
X128155635Y-47279475D01*
X128211401Y-47451107D01*
X128301633Y-47607393D01*
X128422387Y-47741504D01*
X128427729Y-47745385D01*
X128427731Y-47745387D01*
X128526894Y-47817433D01*
X128568385Y-47847578D01*
X128574413Y-47850262D01*
X128574415Y-47850263D01*
X128727217Y-47918295D01*
X128733248Y-47920980D01*
X128821508Y-47939740D01*
X128903311Y-47957128D01*
X128903315Y-47957128D01*
X128909768Y-47958500D01*
X129090232Y-47958500D01*
X129096685Y-47957128D01*
X129096689Y-47957128D01*
X129178492Y-47939740D01*
X129266752Y-47920980D01*
X129272783Y-47918295D01*
X129425585Y-47850263D01*
X129425587Y-47850262D01*
X129431615Y-47847578D01*
X129473106Y-47817433D01*
X129572269Y-47745387D01*
X129572271Y-47745385D01*
X129577613Y-47741504D01*
X129698367Y-47607393D01*
X129788599Y-47451107D01*
X129844365Y-47279475D01*
X129863229Y-47100000D01*
X129844365Y-46920525D01*
X129788599Y-46748893D01*
X129717051Y-46624968D01*
X129700313Y-46555974D01*
X129723533Y-46488882D01*
X129752107Y-46460035D01*
X129777613Y-46441504D01*
X129898367Y-46307393D01*
X129973131Y-46177899D01*
X129985295Y-46156830D01*
X129985296Y-46156829D01*
X129988599Y-46151107D01*
X130034534Y-46009733D01*
X130042325Y-45985754D01*
X130042325Y-45985753D01*
X130044365Y-45979475D01*
X130063229Y-45800000D01*
X130044365Y-45620525D01*
X129988599Y-45448893D01*
X129898367Y-45292607D01*
X129777613Y-45158496D01*
X129631615Y-45052422D01*
X129625587Y-45049738D01*
X129625585Y-45049737D01*
X129472783Y-44981705D01*
X129472781Y-44981705D01*
X129466752Y-44979020D01*
X129333600Y-44950718D01*
X129271127Y-44916990D01*
X129236805Y-44854840D01*
X129241533Y-44784001D01*
X129266158Y-44743164D01*
X129298367Y-44707393D01*
X129388599Y-44551107D01*
X129444365Y-44379475D01*
X129448034Y-44344573D01*
X129462539Y-44206565D01*
X129463229Y-44200000D01*
X129444365Y-44020525D01*
X129388599Y-43848893D01*
X129298367Y-43692607D01*
X129177613Y-43558496D01*
X129031615Y-43452422D01*
X129025587Y-43449738D01*
X129025585Y-43449737D01*
X128872783Y-43381705D01*
X128872781Y-43381705D01*
X128866752Y-43379020D01*
X128778492Y-43360260D01*
X128696689Y-43342872D01*
X128696685Y-43342872D01*
X128690232Y-43341500D01*
X128509768Y-43341500D01*
X128503315Y-43342872D01*
X128503311Y-43342872D01*
X128421508Y-43360260D01*
X128333248Y-43379020D01*
X128327219Y-43381704D01*
X128327217Y-43381705D01*
X128174416Y-43449737D01*
X128174414Y-43449738D01*
X128168386Y-43452422D01*
X128163045Y-43456302D01*
X128163044Y-43456303D01*
X128027731Y-43554613D01*
X128027729Y-43554615D01*
X128022387Y-43558496D01*
X127901633Y-43692607D01*
X127811401Y-43848893D01*
X127755635Y-44020525D01*
X127736771Y-44200000D01*
X125309579Y-44200000D01*
X125359053Y-44054256D01*
X125359882Y-44048540D01*
X125359883Y-44048535D01*
X125376918Y-43931039D01*
X125387653Y-43857001D01*
X125389146Y-43800000D01*
X125370908Y-43601519D01*
X125360160Y-43563407D01*
X125318373Y-43415244D01*
X125318372Y-43415242D01*
X125316805Y-43409685D01*
X125303746Y-43383202D01*
X125231205Y-43236104D01*
X125228650Y-43230923D01*
X125109393Y-43071219D01*
X124963030Y-42935922D01*
X124958147Y-42932841D01*
X124958143Y-42932838D01*
X124799346Y-42832645D01*
X124799341Y-42832643D01*
X124794462Y-42829564D01*
X124609334Y-42755705D01*
X124413847Y-42716820D01*
X124408072Y-42716744D01*
X124408068Y-42716744D01*
X124308588Y-42715442D01*
X124214547Y-42714211D01*
X124208850Y-42715190D01*
X124208849Y-42715190D01*
X124192805Y-42717947D01*
X124018108Y-42747966D01*
X123831111Y-42816953D01*
X123659816Y-42918862D01*
X123509961Y-43050281D01*
X123386565Y-43206809D01*
X123293760Y-43383202D01*
X123261334Y-43487631D01*
X123237805Y-43563407D01*
X123234654Y-43573554D01*
X123211227Y-43771489D01*
X116508500Y-43771489D01*
X116508500Y-39632703D01*
X117390743Y-39632703D01*
X117428268Y-39917734D01*
X117504129Y-40195036D01*
X117505813Y-40198984D01*
X117599358Y-40418295D01*
X117616923Y-40459476D01*
X117764561Y-40706161D01*
X117944313Y-40930528D01*
X118152851Y-41128423D01*
X118386317Y-41296186D01*
X118390112Y-41298195D01*
X118390113Y-41298196D01*
X118411869Y-41309715D01*
X118640392Y-41430712D01*
X118910373Y-41529511D01*
X119191264Y-41590755D01*
X119219841Y-41593004D01*
X119414282Y-41608307D01*
X119414291Y-41608307D01*
X119416739Y-41608500D01*
X119572271Y-41608500D01*
X119574407Y-41608354D01*
X119574418Y-41608354D01*
X119782548Y-41594165D01*
X119782554Y-41594164D01*
X119786825Y-41593873D01*
X119791020Y-41593004D01*
X119791022Y-41593004D01*
X119927584Y-41564723D01*
X120068342Y-41535574D01*
X120339343Y-41439607D01*
X120594812Y-41307750D01*
X120598313Y-41305289D01*
X120598317Y-41305287D01*
X120712417Y-41225096D01*
X120830023Y-41142441D01*
X121040622Y-40946740D01*
X121222713Y-40724268D01*
X121372927Y-40479142D01*
X121382591Y-40457128D01*
X121486757Y-40219830D01*
X121488483Y-40215898D01*
X121567244Y-39939406D01*
X121607751Y-39654784D01*
X121607845Y-39636951D01*
X121608039Y-39600000D01*
X155736771Y-39600000D01*
X155755635Y-39779475D01*
X155811401Y-39951107D01*
X155901633Y-40107393D01*
X156022387Y-40241504D01*
X156168385Y-40347578D01*
X156174413Y-40350262D01*
X156174415Y-40350263D01*
X156327217Y-40418295D01*
X156333248Y-40420980D01*
X156421508Y-40439740D01*
X156503311Y-40457128D01*
X156503315Y-40457128D01*
X156509768Y-40458500D01*
X156690232Y-40458500D01*
X156696685Y-40457128D01*
X156696689Y-40457128D01*
X156778492Y-40439740D01*
X156866752Y-40420980D01*
X156872783Y-40418295D01*
X157025585Y-40350263D01*
X157025587Y-40350262D01*
X157031615Y-40347578D01*
X157177613Y-40241504D01*
X157298367Y-40107393D01*
X157388599Y-39951107D01*
X157444365Y-39779475D01*
X157463229Y-39600000D01*
X157444365Y-39420525D01*
X157388599Y-39248893D01*
X157298367Y-39092607D01*
X157285327Y-39078124D01*
X157182035Y-38963407D01*
X157182034Y-38963406D01*
X157177613Y-38958496D01*
X157075843Y-38884555D01*
X157036957Y-38856303D01*
X157036956Y-38856302D01*
X157031615Y-38852422D01*
X157025587Y-38849738D01*
X157025585Y-38849737D01*
X156872783Y-38781705D01*
X156872781Y-38781705D01*
X156866752Y-38779020D01*
X156778492Y-38760260D01*
X156696689Y-38742872D01*
X156696685Y-38742872D01*
X156690232Y-38741500D01*
X156509768Y-38741500D01*
X156503315Y-38742872D01*
X156503311Y-38742872D01*
X156421508Y-38760260D01*
X156333248Y-38779020D01*
X156327219Y-38781704D01*
X156327217Y-38781705D01*
X156174416Y-38849737D01*
X156174414Y-38849738D01*
X156168386Y-38852422D01*
X156163045Y-38856302D01*
X156163044Y-38856303D01*
X156027731Y-38954613D01*
X156027729Y-38954615D01*
X156022387Y-38958496D01*
X156017966Y-38963406D01*
X156017965Y-38963407D01*
X155914674Y-39078124D01*
X155901633Y-39092607D01*
X155811401Y-39248893D01*
X155755635Y-39420525D01*
X155736771Y-39600000D01*
X121608039Y-39600000D01*
X121609235Y-39371583D01*
X121609235Y-39371576D01*
X121609257Y-39367297D01*
X121571732Y-39082266D01*
X121495871Y-38804964D01*
X121383077Y-38540524D01*
X121235439Y-38293839D01*
X121055687Y-38069472D01*
X120847149Y-37871577D01*
X120613683Y-37703814D01*
X120591843Y-37692250D01*
X120568654Y-37679972D01*
X120359608Y-37569288D01*
X120089627Y-37470489D01*
X119808736Y-37409245D01*
X119777685Y-37406801D01*
X119585718Y-37391693D01*
X119585709Y-37391693D01*
X119583261Y-37391500D01*
X119427729Y-37391500D01*
X119425593Y-37391646D01*
X119425582Y-37391646D01*
X119217452Y-37405835D01*
X119217446Y-37405836D01*
X119213175Y-37406127D01*
X119208980Y-37406996D01*
X119208978Y-37406996D01*
X119072417Y-37435276D01*
X118931658Y-37464426D01*
X118660657Y-37560393D01*
X118405188Y-37692250D01*
X118401687Y-37694711D01*
X118401683Y-37694713D01*
X118287583Y-37774904D01*
X118169977Y-37857559D01*
X117959378Y-38053260D01*
X117777287Y-38275732D01*
X117627073Y-38520858D01*
X117511517Y-38784102D01*
X117432756Y-39060594D01*
X117392249Y-39345216D01*
X117392227Y-39349505D01*
X117392226Y-39349512D01*
X117390765Y-39628417D01*
X117390743Y-39632703D01*
X116508500Y-39632703D01*
X116508500Y-39553250D01*
X116510246Y-39532345D01*
X116512770Y-39517344D01*
X116512770Y-39517341D01*
X116513576Y-39512552D01*
X116513729Y-39500000D01*
X116513039Y-39495180D01*
X116511644Y-39485437D01*
X116510545Y-39460983D01*
X116524542Y-39193902D01*
X116525920Y-39180785D01*
X116538981Y-39098325D01*
X116572838Y-38884555D01*
X116575580Y-38871655D01*
X116653205Y-38581953D01*
X116657281Y-38569409D01*
X116669785Y-38536837D01*
X116764763Y-38289412D01*
X116770126Y-38277365D01*
X116906289Y-38010130D01*
X116912883Y-37998709D01*
X116993528Y-37874527D01*
X117076236Y-37747168D01*
X117083984Y-37736505D01*
X117112085Y-37701804D01*
X117272727Y-37503427D01*
X117281552Y-37493626D01*
X117493626Y-37281552D01*
X117503427Y-37272727D01*
X117736505Y-37083984D01*
X117747168Y-37076236D01*
X117998714Y-36912880D01*
X118010130Y-36906289D01*
X118277365Y-36770126D01*
X118289413Y-36764762D01*
X118569414Y-36657279D01*
X118581948Y-36653207D01*
X118726804Y-36614393D01*
X118871655Y-36575580D01*
X118884555Y-36572838D01*
X118965866Y-36559960D01*
X119180791Y-36525919D01*
X119193899Y-36524542D01*
X119269063Y-36520603D01*
X119457299Y-36510738D01*
X119483276Y-36512065D01*
X119484846Y-36512309D01*
X119484850Y-36512309D01*
X119493724Y-36513691D01*
X119502626Y-36512527D01*
X119502628Y-36512527D01*
X119517677Y-36510559D01*
X119525286Y-36509564D01*
X119541621Y-36508500D01*
X165750633Y-36508500D01*
X165770018Y-36510000D01*
G37*
%TD.AperFunction*%
%TD*%
M02*
