%TF.GenerationSoftware,KiCad,Pcbnew,(6.0.4)*%
%TF.CreationDate,2022-08-12T18:00:07-03:00*%
%TF.ProjectId,rf-system-receiver,72662d73-7973-4746-956d-2d7265636569,rev?*%
%TF.SameCoordinates,Original*%
%TF.FileFunction,Legend,Top*%
%TF.FilePolarity,Positive*%
%FSLAX46Y46*%
G04 Gerber Fmt 4.6, Leading zero omitted, Abs format (unit mm)*
G04 Created by KiCad (PCBNEW (6.0.4)) date 2022-08-12 18:00:07*
%MOMM*%
%LPD*%
G01*
G04 APERTURE LIST*
%ADD10C,0.150000*%
%ADD11C,0.300000*%
%ADD12C,0.120000*%
%ADD13C,0.100000*%
%ADD14C,0.250000*%
%ADD15C,0.200000*%
G04 APERTURE END LIST*
D10*
X148161904Y-46495238D02*
X148733333Y-46495238D01*
X148847619Y-46533333D01*
X148923809Y-46609523D01*
X148961904Y-46723809D01*
X148961904Y-46800000D01*
X148961904Y-45733333D02*
X148961904Y-46114285D01*
X148161904Y-46114285D01*
X148885714Y-45009523D02*
X148923809Y-45047619D01*
X148961904Y-45161904D01*
X148961904Y-45238095D01*
X148923809Y-45352380D01*
X148847619Y-45428571D01*
X148771428Y-45466666D01*
X148619047Y-45504761D01*
X148504761Y-45504761D01*
X148352380Y-45466666D01*
X148276190Y-45428571D01*
X148200000Y-45352380D01*
X148161904Y-45238095D01*
X148161904Y-45161904D01*
X148200000Y-45047619D01*
X148238095Y-45009523D01*
X148161904Y-44438095D02*
X148733333Y-44438095D01*
X148847619Y-44476190D01*
X148923809Y-44552380D01*
X148961904Y-44666666D01*
X148961904Y-44742857D01*
X148961904Y-43676190D02*
X148961904Y-44057142D01*
X148161904Y-44057142D01*
X148885714Y-42952380D02*
X148923809Y-42990476D01*
X148961904Y-43104761D01*
X148961904Y-43180952D01*
X148923809Y-43295238D01*
X148847619Y-43371428D01*
X148771428Y-43409523D01*
X148619047Y-43447619D01*
X148504761Y-43447619D01*
X148352380Y-43409523D01*
X148276190Y-43371428D01*
X148200000Y-43295238D01*
X148161904Y-43180952D01*
X148161904Y-43104761D01*
X148200000Y-42990476D01*
X148238095Y-42952380D01*
X148161904Y-42380952D02*
X148733333Y-42380952D01*
X148847619Y-42419047D01*
X148923809Y-42495238D01*
X148961904Y-42609523D01*
X148961904Y-42685714D01*
X148961904Y-41619047D02*
X148961904Y-42000000D01*
X148161904Y-42000000D01*
X148885714Y-40895238D02*
X148923809Y-40933333D01*
X148961904Y-41047619D01*
X148961904Y-41123809D01*
X148923809Y-41238095D01*
X148847619Y-41314285D01*
X148771428Y-41352380D01*
X148619047Y-41390476D01*
X148504761Y-41390476D01*
X148352380Y-41352380D01*
X148276190Y-41314285D01*
X148200000Y-41238095D01*
X148161904Y-41123809D01*
X148161904Y-41047619D01*
X148200000Y-40933333D01*
X148238095Y-40895238D01*
X148161904Y-40323809D02*
X148733333Y-40323809D01*
X148847619Y-40361904D01*
X148923809Y-40438095D01*
X148961904Y-40552380D01*
X148961904Y-40628571D01*
X148961904Y-39561904D02*
X148961904Y-39942857D01*
X148161904Y-39942857D01*
X148885714Y-38838095D02*
X148923809Y-38876190D01*
X148961904Y-38990476D01*
X148961904Y-39066666D01*
X148923809Y-39180952D01*
X148847619Y-39257142D01*
X148771428Y-39295238D01*
X148619047Y-39333333D01*
X148504761Y-39333333D01*
X148352380Y-39295238D01*
X148276190Y-39257142D01*
X148200000Y-39180952D01*
X148161904Y-39066666D01*
X148161904Y-38990476D01*
X148200000Y-38876190D01*
X148238095Y-38838095D01*
D11*
X152192857Y-53628571D02*
X152192857Y-54771428D01*
X151621428Y-54200000D02*
X152764285Y-54200000D01*
X143778571Y-60700000D02*
X142278571Y-60700000D01*
X142278571Y-60128571D01*
X142350000Y-59985714D01*
X142421428Y-59914285D01*
X142564285Y-59842857D01*
X142778571Y-59842857D01*
X142921428Y-59914285D01*
X142992857Y-59985714D01*
X143064285Y-60128571D01*
X143064285Y-60700000D01*
X142278571Y-59342857D02*
X143778571Y-58985714D01*
X142707142Y-58700000D01*
X143778571Y-58414285D01*
X142278571Y-58057142D01*
X143778571Y-56628571D02*
X143064285Y-57128571D01*
X143778571Y-57485714D02*
X142278571Y-57485714D01*
X142278571Y-56914285D01*
X142350000Y-56771428D01*
X142421428Y-56700000D01*
X142564285Y-56628571D01*
X142778571Y-56628571D01*
X142921428Y-56700000D01*
X142992857Y-56771428D01*
X143064285Y-56914285D01*
X143064285Y-57485714D01*
X128178571Y-66571428D02*
X127464285Y-67071428D01*
X128178571Y-67428571D02*
X126678571Y-67428571D01*
X126678571Y-66857142D01*
X126750000Y-66714285D01*
X126821428Y-66642857D01*
X126964285Y-66571428D01*
X127178571Y-66571428D01*
X127321428Y-66642857D01*
X127392857Y-66714285D01*
X127464285Y-66857142D01*
X127464285Y-67428571D01*
X128107142Y-66000000D02*
X128178571Y-65785714D01*
X128178571Y-65428571D01*
X128107142Y-65285714D01*
X128035714Y-65214285D01*
X127892857Y-65142857D01*
X127750000Y-65142857D01*
X127607142Y-65214285D01*
X127535714Y-65285714D01*
X127464285Y-65428571D01*
X127392857Y-65714285D01*
X127321428Y-65857142D01*
X127250000Y-65928571D01*
X127107142Y-66000000D01*
X126964285Y-66000000D01*
X126821428Y-65928571D01*
X126750000Y-65857142D01*
X126678571Y-65714285D01*
X126678571Y-65357142D01*
X126750000Y-65142857D01*
X126678571Y-64714285D02*
X126678571Y-63857142D01*
X128178571Y-64285714D02*
X126678571Y-64285714D01*
X119871071Y-79813437D02*
X118871071Y-79688437D01*
X119156785Y-79724151D02*
X119013928Y-79634866D01*
X118942500Y-79554508D01*
X118871071Y-79402723D01*
X118871071Y-79259866D01*
X119799642Y-78304508D02*
X119871071Y-78456294D01*
X119871071Y-78742008D01*
X119799642Y-78875937D01*
X119656785Y-78929508D01*
X119085357Y-78858080D01*
X118942500Y-78768794D01*
X118871071Y-78617008D01*
X118871071Y-78331294D01*
X118942500Y-78197366D01*
X119085357Y-78143794D01*
X119228214Y-78161651D01*
X119371071Y-78893794D01*
X119799642Y-76947366D02*
X119871071Y-77099151D01*
X119871071Y-77384866D01*
X119799642Y-77518794D01*
X119728214Y-77581294D01*
X119585357Y-77634866D01*
X119156785Y-77581294D01*
X119013928Y-77492008D01*
X118942500Y-77411651D01*
X118871071Y-77259866D01*
X118871071Y-76974151D01*
X118942500Y-76840223D01*
X119799642Y-75733080D02*
X119871071Y-75884866D01*
X119871071Y-76170580D01*
X119799642Y-76304508D01*
X119656785Y-76358080D01*
X119085357Y-76286651D01*
X118942500Y-76197366D01*
X118871071Y-76045580D01*
X118871071Y-75759866D01*
X118942500Y-75625937D01*
X119085357Y-75572366D01*
X119228214Y-75590223D01*
X119371071Y-76322366D01*
X119871071Y-75027723D02*
X118871071Y-74902723D01*
X118371071Y-74840223D02*
X118442500Y-74920580D01*
X118513928Y-74858080D01*
X118442500Y-74777723D01*
X118371071Y-74840223D01*
X118513928Y-74858080D01*
X118871071Y-74331294D02*
X119871071Y-74099151D01*
X118871071Y-73617008D01*
X119799642Y-72590223D02*
X119871071Y-72742008D01*
X119871071Y-73027723D01*
X119799642Y-73161651D01*
X119656785Y-73215223D01*
X119085357Y-73143794D01*
X118942500Y-73054508D01*
X118871071Y-72902723D01*
X118871071Y-72617008D01*
X118942500Y-72483080D01*
X119085357Y-72429508D01*
X119228214Y-72447366D01*
X119371071Y-73179508D01*
X119871071Y-71884866D02*
X118871071Y-71759866D01*
X119156785Y-71795580D02*
X119013928Y-71706294D01*
X118942500Y-71625937D01*
X118871071Y-71474151D01*
X118871071Y-71331294D01*
X121286071Y-78831294D02*
X122286071Y-78599151D01*
X121286071Y-78117008D01*
X122286071Y-76884866D02*
X122286071Y-77742008D01*
X122286071Y-77313437D02*
X120786071Y-77125937D01*
X121000357Y-77295580D01*
X121143214Y-77456294D01*
X121214642Y-77608080D01*
X122143214Y-76224151D02*
X122214642Y-76161651D01*
X122286071Y-76242008D01*
X122214642Y-76304508D01*
X122143214Y-76224151D01*
X122286071Y-76242008D01*
X120786071Y-75054508D02*
X120786071Y-74911651D01*
X120857500Y-74777723D01*
X120928928Y-74715223D01*
X121071785Y-74661651D01*
X121357500Y-74625937D01*
X121714642Y-74670580D01*
X122000357Y-74777723D01*
X122143214Y-74867008D01*
X122214642Y-74947366D01*
X122286071Y-75099151D01*
X122286071Y-75242008D01*
X122214642Y-75375937D01*
X122143214Y-75438437D01*
X122000357Y-75492008D01*
X121714642Y-75527723D01*
X121357500Y-75483080D01*
X121071785Y-75375937D01*
X120928928Y-75286651D01*
X120857500Y-75206294D01*
X120786071Y-75054508D01*
X122143214Y-74081294D02*
X122214642Y-74018794D01*
X122286071Y-74099151D01*
X122214642Y-74161651D01*
X122143214Y-74081294D01*
X122286071Y-74099151D01*
X120786071Y-72911651D02*
X120786071Y-72768794D01*
X120857500Y-72634866D01*
X120928928Y-72572366D01*
X121071785Y-72518794D01*
X121357500Y-72483080D01*
X121714642Y-72527723D01*
X122000357Y-72634866D01*
X122143214Y-72724151D01*
X122214642Y-72804508D01*
X122286071Y-72956294D01*
X122286071Y-73099151D01*
X122214642Y-73233080D01*
X122143214Y-73295580D01*
X122000357Y-73349151D01*
X121714642Y-73384866D01*
X121357500Y-73340223D01*
X121071785Y-73233080D01*
X120928928Y-73143794D01*
X120857500Y-73063437D01*
X120786071Y-72911651D01*
X143107142Y-45035714D02*
X143178571Y-44821428D01*
X143178571Y-44464285D01*
X143107142Y-44321428D01*
X143035714Y-44250000D01*
X142892857Y-44178571D01*
X142750000Y-44178571D01*
X142607142Y-44250000D01*
X142535714Y-44321428D01*
X142464285Y-44464285D01*
X142392857Y-44750000D01*
X142321428Y-44892857D01*
X142250000Y-44964285D01*
X142107142Y-45035714D01*
X141964285Y-45035714D01*
X141821428Y-44964285D01*
X141750000Y-44892857D01*
X141678571Y-44750000D01*
X141678571Y-44392857D01*
X141750000Y-44178571D01*
X141678571Y-43678571D02*
X143178571Y-43321428D01*
X142107142Y-43035714D01*
X143178571Y-42750000D01*
X141678571Y-42392857D01*
X143178571Y-41821428D02*
X141678571Y-41821428D01*
X141678571Y-41464285D01*
X141750000Y-41250000D01*
X141892857Y-41107142D01*
X142035714Y-41035714D01*
X142321428Y-40964285D01*
X142535714Y-40964285D01*
X142821428Y-41035714D01*
X142964285Y-41107142D01*
X143107142Y-41250000D01*
X143178571Y-41464285D01*
X143178571Y-41821428D01*
X127500000Y-49214285D02*
X127595238Y-49309523D01*
X127500000Y-49404761D01*
X127404761Y-49309523D01*
X127500000Y-49214285D01*
X127500000Y-49404761D01*
X156857142Y-58964285D02*
X156928571Y-58750000D01*
X156928571Y-58392857D01*
X156857142Y-58250000D01*
X156785714Y-58178571D01*
X156642857Y-58107142D01*
X156500000Y-58107142D01*
X156357142Y-58178571D01*
X156285714Y-58250000D01*
X156214285Y-58392857D01*
X156142857Y-58678571D01*
X156071428Y-58821428D01*
X156000000Y-58892857D01*
X155857142Y-58964285D01*
X155714285Y-58964285D01*
X155571428Y-58892857D01*
X155500000Y-58821428D01*
X155428571Y-58678571D01*
X155428571Y-58321428D01*
X155500000Y-58107142D01*
X155428571Y-57678571D02*
X155428571Y-56821428D01*
X156928571Y-57250000D02*
X155428571Y-57250000D01*
X156500000Y-56392857D02*
X156500000Y-55678571D01*
X156928571Y-56535714D02*
X155428571Y-56035714D01*
X156928571Y-55535714D01*
X155428571Y-55250000D02*
X155428571Y-54392857D01*
X156928571Y-54821428D02*
X155428571Y-54821428D01*
X144892857Y-59228571D02*
X144892857Y-60371428D01*
X144321428Y-59800000D02*
X145464285Y-59800000D01*
X154078571Y-86035714D02*
X154078571Y-85464285D01*
X153578571Y-85821428D02*
X154864285Y-85821428D01*
X155007142Y-85750000D01*
X155078571Y-85607142D01*
X155078571Y-85464285D01*
X155007142Y-84321428D02*
X155078571Y-84464285D01*
X155078571Y-84750000D01*
X155007142Y-84892857D01*
X154935714Y-84964285D01*
X154792857Y-85035714D01*
X154364285Y-85035714D01*
X154221428Y-84964285D01*
X154150000Y-84892857D01*
X154078571Y-84750000D01*
X154078571Y-84464285D01*
X154150000Y-84321428D01*
X155007142Y-83035714D02*
X155078571Y-83178571D01*
X155078571Y-83464285D01*
X155007142Y-83607142D01*
X154935714Y-83678571D01*
X154792857Y-83750000D01*
X154364285Y-83750000D01*
X154221428Y-83678571D01*
X154150000Y-83607142D01*
X154078571Y-83464285D01*
X154078571Y-83178571D01*
X154150000Y-83035714D01*
X153507142Y-81321428D02*
X155435714Y-82607142D01*
X155078571Y-80821428D02*
X154078571Y-80821428D01*
X154364285Y-80821428D02*
X154221428Y-80750000D01*
X154150000Y-80678571D01*
X154078571Y-80535714D01*
X154078571Y-80392857D01*
X155078571Y-79250000D02*
X154292857Y-79250000D01*
X154150000Y-79321428D01*
X154078571Y-79464285D01*
X154078571Y-79750000D01*
X154150000Y-79892857D01*
X155007142Y-79250000D02*
X155078571Y-79392857D01*
X155078571Y-79750000D01*
X155007142Y-79892857D01*
X154864285Y-79964285D01*
X154721428Y-79964285D01*
X154578571Y-79892857D01*
X154507142Y-79750000D01*
X154507142Y-79392857D01*
X154435714Y-79250000D01*
X154078571Y-78750000D02*
X154078571Y-78178571D01*
X155078571Y-78535714D02*
X153792857Y-78535714D01*
X153650000Y-78464285D01*
X153578571Y-78321428D01*
X153578571Y-78178571D01*
X155078571Y-77035714D02*
X154292857Y-77035714D01*
X154150000Y-77107142D01*
X154078571Y-77250000D01*
X154078571Y-77535714D01*
X154150000Y-77678571D01*
X155007142Y-77035714D02*
X155078571Y-77178571D01*
X155078571Y-77535714D01*
X155007142Y-77678571D01*
X154864285Y-77750000D01*
X154721428Y-77750000D01*
X154578571Y-77678571D01*
X154507142Y-77535714D01*
X154507142Y-77178571D01*
X154435714Y-77035714D01*
X154078571Y-75678571D02*
X155292857Y-75678571D01*
X155435714Y-75750000D01*
X155507142Y-75821428D01*
X155578571Y-75964285D01*
X155578571Y-76178571D01*
X155507142Y-76321428D01*
X155007142Y-75678571D02*
X155078571Y-75821428D01*
X155078571Y-76107142D01*
X155007142Y-76250000D01*
X154935714Y-76321428D01*
X154792857Y-76392857D01*
X154364285Y-76392857D01*
X154221428Y-76321428D01*
X154150000Y-76250000D01*
X154078571Y-76107142D01*
X154078571Y-75821428D01*
X154150000Y-75678571D01*
X155007142Y-74392857D02*
X155078571Y-74535714D01*
X155078571Y-74821428D01*
X155007142Y-74964285D01*
X154864285Y-75035714D01*
X154292857Y-75035714D01*
X154150000Y-74964285D01*
X154078571Y-74821428D01*
X154078571Y-74535714D01*
X154150000Y-74392857D01*
X154292857Y-74321428D01*
X154435714Y-74321428D01*
X154578571Y-75035714D01*
X154078571Y-73678571D02*
X155078571Y-73678571D01*
X154221428Y-73678571D02*
X154150000Y-73607142D01*
X154078571Y-73464285D01*
X154078571Y-73250000D01*
X154150000Y-73107142D01*
X154292857Y-73035714D01*
X155078571Y-73035714D01*
X155078571Y-72107142D02*
X155007142Y-72250000D01*
X154935714Y-72321428D01*
X154792857Y-72392857D01*
X154364285Y-72392857D01*
X154221428Y-72321428D01*
X154150000Y-72250000D01*
X154078571Y-72107142D01*
X154078571Y-71892857D01*
X154150000Y-71750000D01*
X154221428Y-71678571D01*
X154364285Y-71607142D01*
X154792857Y-71607142D01*
X154935714Y-71678571D01*
X155007142Y-71750000D01*
X155078571Y-71892857D01*
X155078571Y-72107142D01*
X154078571Y-71107142D02*
X155078571Y-70750000D01*
X154078571Y-70392857D01*
X155078571Y-69178571D02*
X154292857Y-69178571D01*
X154150000Y-69250000D01*
X154078571Y-69392857D01*
X154078571Y-69678571D01*
X154150000Y-69821428D01*
X155007142Y-69178571D02*
X155078571Y-69321428D01*
X155078571Y-69678571D01*
X155007142Y-69821428D01*
X154864285Y-69892857D01*
X154721428Y-69892857D01*
X154578571Y-69821428D01*
X154507142Y-69678571D01*
X154507142Y-69321428D01*
X154435714Y-69178571D01*
D12*
%TO.C,SW1*%
X117800000Y-63520000D02*
X117800000Y-65020000D01*
X124800000Y-65020000D02*
X124800000Y-63520000D01*
X123550000Y-61020000D02*
X119050000Y-61020000D01*
X119050000Y-67520000D02*
X123550000Y-67520000D01*
%TO.C,U1*%
X129740000Y-48840000D02*
X128450000Y-48840000D01*
X136510000Y-48390000D02*
X136960000Y-48390000D01*
X136960000Y-48390000D02*
X136960000Y-48840000D01*
X129740000Y-55610000D02*
X129740000Y-55160000D01*
X136960000Y-55610000D02*
X136960000Y-55160000D01*
X130190000Y-55610000D02*
X129740000Y-55610000D01*
X129740000Y-48390000D02*
X129740000Y-48840000D01*
X136510000Y-55610000D02*
X136960000Y-55610000D01*
X130190000Y-48390000D02*
X129740000Y-48390000D01*
%TO.C,C15*%
X139610000Y-48892164D02*
X139610000Y-49107836D01*
X138890000Y-48892164D02*
X138890000Y-49107836D01*
%TO.C,C8*%
X160910000Y-64963748D02*
X160910000Y-66386252D01*
X159090000Y-64963748D02*
X159090000Y-66386252D01*
%TO.C,FB1*%
X125837221Y-58890000D02*
X126162779Y-58890000D01*
X125837221Y-59910000D02*
X126162779Y-59910000D01*
%TO.C,C7*%
X135540580Y-68790000D02*
X135259420Y-68790000D01*
X135540580Y-69810000D02*
X135259420Y-69810000D01*
%TO.C,L2*%
X140310000Y-75337221D02*
X140310000Y-75662779D01*
X139290000Y-75337221D02*
X139290000Y-75662779D01*
%TO.C,D1*%
X148160000Y-58065000D02*
X145875000Y-58065000D01*
X145875000Y-59535000D02*
X148160000Y-59535000D01*
X148160000Y-59535000D02*
X148160000Y-58065000D01*
%TO.C,R5*%
X126546359Y-52630000D02*
X126853641Y-52630000D01*
X126546359Y-51870000D02*
X126853641Y-51870000D01*
%TO.C,C10*%
X140890000Y-72040580D02*
X140890000Y-71759420D01*
X141910000Y-72040580D02*
X141910000Y-71759420D01*
%TO.C,J3*%
X146000000Y-49410000D02*
X146000000Y-48840000D01*
X151200000Y-39700000D02*
X151200000Y-38680000D01*
X151200000Y-36590000D02*
X146000000Y-36590000D01*
X151200000Y-42240000D02*
X151200000Y-41220000D01*
X146000000Y-47320000D02*
X146000000Y-46300000D01*
X146000000Y-42240000D02*
X146000000Y-41220000D01*
X146000000Y-37160000D02*
X146000000Y-36590000D01*
X146000000Y-44780000D02*
X146000000Y-43760000D01*
X151200000Y-44780000D02*
X151200000Y-43760000D01*
X151200000Y-37160000D02*
X151200000Y-36590000D01*
X151200000Y-49410000D02*
X151200000Y-48840000D01*
X151200000Y-49410000D02*
X146000000Y-49410000D01*
X146000000Y-39700000D02*
X146000000Y-38680000D01*
X152640000Y-48840000D02*
X151200000Y-48840000D01*
X151200000Y-47320000D02*
X151200000Y-46300000D01*
%TO.C,R2*%
X144237258Y-69322500D02*
X143762742Y-69322500D01*
X144237258Y-68277500D02*
X143762742Y-68277500D01*
%TO.C,C1*%
X138859420Y-58287745D02*
X139140580Y-58287745D01*
X138859420Y-59307745D02*
X139140580Y-59307745D01*
D13*
%TO.C,J2*%
X140000000Y-78600000D02*
X143000000Y-78600000D01*
X140000000Y-85600000D02*
X143000000Y-85600000D01*
X145000000Y-83600000D02*
X145000000Y-80600000D01*
X138000000Y-83600000D02*
X138000000Y-80600000D01*
D12*
%TO.C,C23*%
X127360000Y-61292164D02*
X127360000Y-61507836D01*
X126640000Y-61292164D02*
X126640000Y-61507836D01*
%TO.C,R6*%
X139262742Y-47522500D02*
X139737258Y-47522500D01*
X139262742Y-46477500D02*
X139737258Y-46477500D01*
%TO.C,F1*%
X164502064Y-62985000D02*
X163297936Y-62985000D01*
X164502064Y-61165000D02*
X163297936Y-61165000D01*
%TO.C,C14*%
X130638748Y-44935000D02*
X131161252Y-44935000D01*
X130638748Y-43465000D02*
X131161252Y-43465000D01*
%TO.C,C13*%
X142010000Y-75359420D02*
X142010000Y-75640580D01*
X140990000Y-75359420D02*
X140990000Y-75640580D01*
%TO.C,L3*%
X138610000Y-75662779D02*
X138610000Y-75337221D01*
X137590000Y-75662779D02*
X137590000Y-75337221D01*
%TO.C,C19*%
X123692164Y-48760000D02*
X123907836Y-48760000D01*
X123692164Y-48040000D02*
X123907836Y-48040000D01*
%TO.C,R3*%
X146912258Y-61322500D02*
X146437742Y-61322500D01*
X146912258Y-60277500D02*
X146437742Y-60277500D01*
%TO.C,R9*%
X163567500Y-42704758D02*
X163567500Y-42230242D01*
X164612500Y-42704758D02*
X164612500Y-42230242D01*
%TO.C,C4*%
X130812164Y-62925000D02*
X131027836Y-62925000D01*
X130812164Y-63645000D02*
X131027836Y-63645000D01*
D14*
%TO.C,IC1*%
X141625000Y-61275000D02*
G75*
G03*
X141625000Y-61275000I-125000J0D01*
G01*
D12*
%TO.C,R1*%
X134450000Y-66163641D02*
X134450000Y-65856359D01*
X133690000Y-66163641D02*
X133690000Y-65856359D01*
%TO.C,L1*%
X139062779Y-71710000D02*
X138737221Y-71710000D01*
X139062779Y-70690000D02*
X138737221Y-70690000D01*
%TO.C,C11*%
X136910000Y-71759420D02*
X136910000Y-72040580D01*
X135890000Y-71759420D02*
X135890000Y-72040580D01*
%TO.C,U2*%
X152090000Y-60965000D02*
X152090000Y-62225000D01*
X152090000Y-67785000D02*
X152090000Y-66525000D01*
X158100000Y-67785000D02*
X152090000Y-67785000D01*
X155850000Y-60965000D02*
X152090000Y-60965000D01*
%TO.C,R7*%
X153571250Y-56837258D02*
X153571250Y-56362742D01*
X154616250Y-56837258D02*
X154616250Y-56362742D01*
%TO.C,X2*%
X125450000Y-49250000D02*
X122150000Y-49250000D01*
X122150000Y-49250000D02*
X122150000Y-53250000D01*
%TO.C,C6*%
X142690000Y-65859420D02*
X142690000Y-66140580D01*
X143710000Y-65859420D02*
X143710000Y-66140580D01*
%TO.C,C20*%
X123907836Y-54460000D02*
X123692164Y-54460000D01*
X123907836Y-53740000D02*
X123692164Y-53740000D01*
%TO.C,C12*%
X135890000Y-75359420D02*
X135890000Y-75640580D01*
X136910000Y-75359420D02*
X136910000Y-75640580D01*
%TO.C,C22*%
X126607836Y-56010000D02*
X126392164Y-56010000D01*
X126607836Y-55290000D02*
X126392164Y-55290000D01*
D13*
%TO.C,J1*%
X168315000Y-46737500D02*
X168315000Y-46737500D01*
X168315000Y-46737500D02*
X168315000Y-46737500D01*
X168315000Y-54597500D02*
X168315000Y-54597500D01*
X168315000Y-46737500D02*
X168315000Y-54597500D01*
X167490000Y-54597500D02*
X168315000Y-54597500D01*
X167490000Y-46737500D02*
X168315000Y-46737500D01*
D15*
X160790000Y-52067500D02*
X160790000Y-52067500D01*
D13*
X168315000Y-54597500D02*
X168315000Y-54597500D01*
X167490000Y-54597500D02*
X167490000Y-54597500D01*
X168315000Y-46737500D02*
X167490000Y-46737500D01*
X168315000Y-54597500D02*
X167490000Y-54597500D01*
X167490000Y-46737500D02*
X167490000Y-46737500D01*
D15*
X160790000Y-52067500D02*
X160790000Y-52067500D01*
X160790000Y-51967500D02*
X160790000Y-51967500D01*
D13*
X168315000Y-54597500D02*
X168315000Y-46737500D01*
D15*
X160790000Y-51967500D02*
G75*
G03*
X160790000Y-52067500I0J-50000D01*
G01*
X160790000Y-52067500D02*
G75*
G03*
X160790000Y-51967500I0J50000D01*
G01*
X160790000Y-52067500D02*
G75*
G03*
X160790000Y-51967500I0J50000D01*
G01*
D12*
%TO.C,X1*%
X132570000Y-64095000D02*
X129270000Y-64095000D01*
X129270000Y-64095000D02*
X129270000Y-68095000D01*
%TO.C,C21*%
X126011252Y-56665000D02*
X125488748Y-56665000D01*
X126011252Y-58135000D02*
X125488748Y-58135000D01*
%TO.C,R10*%
X161212500Y-42230242D02*
X161212500Y-42704758D01*
X160167500Y-42230242D02*
X160167500Y-42704758D01*
%TO.C,C3*%
X142990000Y-62888325D02*
X142990000Y-62607165D01*
X144010000Y-62888325D02*
X144010000Y-62607165D01*
%TO.C,Q1*%
X156030000Y-42067500D02*
X156030000Y-42717500D01*
X159150000Y-42067500D02*
X159150000Y-42717500D01*
X159150000Y-42067500D02*
X159150000Y-40392500D01*
X156030000Y-42067500D02*
X156030000Y-41417500D01*
%TO.C,R8*%
X159212500Y-47704758D02*
X159212500Y-47230242D01*
X158167500Y-47704758D02*
X158167500Y-47230242D01*
%TO.C,C18*%
X128607836Y-47740000D02*
X128392164Y-47740000D01*
X128607836Y-48460000D02*
X128392164Y-48460000D01*
%TO.C,C17*%
X130692164Y-45740000D02*
X130907836Y-45740000D01*
X130692164Y-46460000D02*
X130907836Y-46460000D01*
%TO.C,R4*%
X133477500Y-43837258D02*
X133477500Y-43362742D01*
X134522500Y-43837258D02*
X134522500Y-43362742D01*
%TO.C,R11*%
X162912500Y-42230242D02*
X162912500Y-42704758D01*
X161867500Y-42230242D02*
X161867500Y-42704758D01*
%TO.C,D2*%
X151458750Y-58085000D02*
X152928750Y-58085000D01*
X152928750Y-58085000D02*
X152928750Y-55800000D01*
X151458750Y-55800000D02*
X151458750Y-58085000D01*
%TO.C,C2*%
X160910000Y-61286252D02*
X160910000Y-59863748D01*
X159090000Y-61286252D02*
X159090000Y-59863748D01*
%TO.C,C5*%
X131027836Y-69395000D02*
X130812164Y-69395000D01*
X131027836Y-68675000D02*
X130812164Y-68675000D01*
%TO.C,C16*%
X138110000Y-56492164D02*
X138110000Y-56707836D01*
X137390000Y-56492164D02*
X137390000Y-56707836D01*
%TO.C,C9*%
X144490000Y-65859420D02*
X144490000Y-66140580D01*
X145510000Y-65859420D02*
X145510000Y-66140580D01*
%TD*%
M02*
