%TF.GenerationSoftware,KiCad,Pcbnew,(6.0.4)*%
%TF.CreationDate,2022-08-12T18:00:06-03:00*%
%TF.ProjectId,rf-system-receiver,72662d73-7973-4746-956d-2d7265636569,rev?*%
%TF.SameCoordinates,Original*%
%TF.FileFunction,Copper,L3,Inr*%
%TF.FilePolarity,Positive*%
%FSLAX46Y46*%
G04 Gerber Fmt 4.6, Leading zero omitted, Abs format (unit mm)*
G04 Created by KiCad (PCBNEW (6.0.4)) date 2022-08-12 18:00:06*
%MOMM*%
%LPD*%
G01*
G04 APERTURE LIST*
%TA.AperFunction,ComponentPad*%
%ADD10C,2.000000*%
%TD*%
%TA.AperFunction,ComponentPad*%
%ADD11C,2.100000*%
%TD*%
%TA.AperFunction,ComponentPad*%
%ADD12C,2.250000*%
%TD*%
%TA.AperFunction,ComponentPad*%
%ADD13C,1.950000*%
%TD*%
%TA.AperFunction,ViaPad*%
%ADD14C,0.700000*%
%TD*%
G04 APERTURE END LIST*
D10*
%TO.N,NRST*%
%TO.C,SW1*%
X118050000Y-62020000D03*
X124550000Y-62020000D03*
%TO.N,GND*%
X124550000Y-66520000D03*
X118050000Y-66520000D03*
%TD*%
D11*
%TO.N,Net-(C13-Pad2)*%
%TO.C,J2*%
X141500000Y-82100000D03*
D12*
%TO.N,GND*%
X144050000Y-84650000D03*
X144050000Y-79550000D03*
X138950000Y-79550000D03*
X138950000Y-84650000D03*
%TD*%
D13*
%TO.N,N/C*%
%TO.C,J1*%
X165565000Y-53967500D03*
X165565000Y-47367500D03*
%TD*%
D14*
%TO.N,GND*%
X120000000Y-47000000D03*
X120000000Y-51000000D03*
X120000000Y-55000000D03*
X120000000Y-59000000D03*
X119987016Y-69987016D03*
X165000000Y-73974032D03*
X157000000Y-70000000D03*
X161000000Y-82000000D03*
X161000000Y-78000000D03*
X161000000Y-74000000D03*
X157000000Y-74000000D03*
X157000000Y-78000000D03*
X156987016Y-82000000D03*
X132000000Y-82000000D03*
X128000000Y-74000000D03*
X128000000Y-78000000D03*
X128000000Y-82000000D03*
X123999999Y-82000000D03*
X124000000Y-78000000D03*
X123999055Y-74000000D03*
X124000000Y-70000000D03*
X137100000Y-58700000D03*
X146000000Y-62000000D03*
X158500000Y-58000000D03*
X138700000Y-57100000D03*
X132300000Y-63500000D03*
X153400000Y-45500000D03*
X140300000Y-49400000D03*
X146200000Y-66500000D03*
X129500000Y-69000000D03*
X137500000Y-67700000D03*
X133500000Y-69300000D03*
X160700000Y-44500000D03*
X125300000Y-48400000D03*
X122200000Y-54100000D03*
X135500000Y-66500000D03*
X134000000Y-41600000D03*
X162000000Y-67500000D03*
X143200000Y-70100000D03*
X142600000Y-72700000D03*
X132300000Y-45700000D03*
X131900000Y-42600000D03*
X158000000Y-59000000D03*
X144800000Y-63500000D03*
X135200000Y-76300000D03*
X135500000Y-61500000D03*
X154093750Y-54600000D03*
X125000000Y-55700000D03*
X153400000Y-37900000D03*
X146200000Y-67400000D03*
X127000000Y-48100000D03*
X153400000Y-43000000D03*
X141500000Y-47000000D03*
X123500000Y-57400000D03*
X158700000Y-45400000D03*
X135200000Y-72700000D03*
X127000000Y-62800000D03*
X161600000Y-48700000D03*
X161500000Y-68500000D03*
%TO.N,+3V3*%
X138700000Y-56100000D03*
X136200000Y-67600000D03*
X149000000Y-64250000D03*
X145750000Y-57500000D03*
X123900000Y-59400000D03*
X162000000Y-65500000D03*
X153500000Y-48100000D03*
X156600000Y-39600000D03*
X146200000Y-65500000D03*
X129000000Y-47100000D03*
X129200000Y-45800000D03*
X162000000Y-64500000D03*
X149000000Y-63250000D03*
X149000000Y-65250000D03*
X139800000Y-57600000D03*
X128600000Y-44200000D03*
X140300000Y-48400000D03*
X146200000Y-64600000D03*
%TO.N,NRST*%
X132600000Y-50400000D03*
X134800000Y-45800000D03*
%TO.N,+5V*%
X161300000Y-55250000D03*
X163250000Y-58000000D03*
%TO.N,SPI_MOSI*%
X134300000Y-60300000D03*
X134900000Y-62900000D03*
%TD*%
%TA.AperFunction,Conductor*%
%TO.N,+3V3*%
G36*
X165770018Y-36510000D02*
G01*
X165784851Y-36512310D01*
X165784855Y-36512310D01*
X165793724Y-36513691D01*
X165812436Y-36511244D01*
X165835366Y-36510353D01*
X166106103Y-36524542D01*
X166119209Y-36525919D01*
X166334134Y-36559960D01*
X166415445Y-36572838D01*
X166428345Y-36575580D01*
X166573196Y-36614393D01*
X166718052Y-36653207D01*
X166730586Y-36657279D01*
X167010587Y-36764762D01*
X167022635Y-36770126D01*
X167289870Y-36906289D01*
X167301286Y-36912880D01*
X167552832Y-37076236D01*
X167563495Y-37083984D01*
X167796573Y-37272727D01*
X167806374Y-37281552D01*
X168018448Y-37493626D01*
X168027273Y-37503427D01*
X168203076Y-37720525D01*
X168216016Y-37736505D01*
X168223764Y-37747168D01*
X168327278Y-37906565D01*
X168387117Y-37998709D01*
X168393711Y-38010130D01*
X168513293Y-38244822D01*
X168529874Y-38277365D01*
X168535237Y-38289412D01*
X168633498Y-38545387D01*
X168642719Y-38569409D01*
X168646793Y-38581948D01*
X168683328Y-38718295D01*
X168724420Y-38871655D01*
X168727162Y-38884555D01*
X168774080Y-39180785D01*
X168775458Y-39193902D01*
X168789262Y-39457299D01*
X168787935Y-39483276D01*
X168787691Y-39484846D01*
X168787691Y-39484850D01*
X168786309Y-39493724D01*
X168787473Y-39502626D01*
X168787473Y-39502628D01*
X168790436Y-39525283D01*
X168791500Y-39541621D01*
X168791500Y-83450633D01*
X168790000Y-83470018D01*
X168787690Y-83484851D01*
X168787690Y-83484855D01*
X168786309Y-83493724D01*
X168788135Y-83507683D01*
X168788756Y-83512433D01*
X168789647Y-83535366D01*
X168775584Y-83803704D01*
X168775458Y-83806099D01*
X168774081Y-83819209D01*
X168768095Y-83857001D01*
X168727162Y-84115445D01*
X168724420Y-84128345D01*
X168695213Y-84237347D01*
X168647103Y-84416899D01*
X168646795Y-84418047D01*
X168642721Y-84430586D01*
X168539143Y-84700413D01*
X168535238Y-84710587D01*
X168529874Y-84722635D01*
X168393711Y-84989870D01*
X168387120Y-85001286D01*
X168223764Y-85252832D01*
X168216018Y-85263492D01*
X168082773Y-85428036D01*
X168027273Y-85496573D01*
X168018448Y-85506374D01*
X167806374Y-85718448D01*
X167796573Y-85727273D01*
X167563495Y-85916016D01*
X167552832Y-85923764D01*
X167301286Y-86087120D01*
X167289870Y-86093711D01*
X167022635Y-86229874D01*
X167010588Y-86235237D01*
X166730586Y-86342721D01*
X166718052Y-86346793D01*
X166573196Y-86385608D01*
X166428345Y-86424420D01*
X166415445Y-86427162D01*
X166334134Y-86440040D01*
X166119209Y-86474081D01*
X166106101Y-86475458D01*
X166030937Y-86479397D01*
X165842701Y-86489262D01*
X165816724Y-86487935D01*
X165815154Y-86487691D01*
X165815150Y-86487691D01*
X165806276Y-86486309D01*
X165797374Y-86487473D01*
X165797372Y-86487473D01*
X165782323Y-86489441D01*
X165774714Y-86490436D01*
X165758379Y-86491500D01*
X151126000Y-86491500D01*
X151057879Y-86471498D01*
X151011386Y-86417842D01*
X151000000Y-86365500D01*
X151000000Y-83532703D01*
X163590743Y-83532703D01*
X163591302Y-83536947D01*
X163591302Y-83536951D01*
X163599071Y-83595958D01*
X163628268Y-83817734D01*
X163629401Y-83821874D01*
X163629401Y-83821876D01*
X163650415Y-83898689D01*
X163704129Y-84095036D01*
X163816923Y-84359476D01*
X163891473Y-84484040D01*
X163959767Y-84598150D01*
X163964561Y-84606161D01*
X164144313Y-84830528D01*
X164267711Y-84947628D01*
X164312225Y-84989870D01*
X164352851Y-85028423D01*
X164586317Y-85196186D01*
X164590112Y-85198195D01*
X164590113Y-85198196D01*
X164611869Y-85209715D01*
X164840392Y-85330712D01*
X165110373Y-85429511D01*
X165391264Y-85490755D01*
X165419841Y-85493004D01*
X165614282Y-85508307D01*
X165614291Y-85508307D01*
X165616739Y-85508500D01*
X165772271Y-85508500D01*
X165774407Y-85508354D01*
X165774418Y-85508354D01*
X165982548Y-85494165D01*
X165982554Y-85494164D01*
X165986825Y-85493873D01*
X165991020Y-85493004D01*
X165991022Y-85493004D01*
X166127583Y-85464724D01*
X166268342Y-85435574D01*
X166539343Y-85339607D01*
X166794812Y-85207750D01*
X166798313Y-85205289D01*
X166798317Y-85205287D01*
X166912418Y-85125095D01*
X167030023Y-85042441D01*
X167176500Y-84906326D01*
X167237479Y-84849661D01*
X167237481Y-84849658D01*
X167240622Y-84846740D01*
X167422713Y-84624268D01*
X167572927Y-84379142D01*
X167688483Y-84115898D01*
X167767244Y-83839406D01*
X167807751Y-83554784D01*
X167807845Y-83536951D01*
X167809235Y-83271583D01*
X167809235Y-83271576D01*
X167809257Y-83267297D01*
X167805151Y-83236104D01*
X167772292Y-82986522D01*
X167771732Y-82982266D01*
X167695871Y-82704964D01*
X167611599Y-82507393D01*
X167584763Y-82444476D01*
X167584761Y-82444472D01*
X167583077Y-82440524D01*
X167435439Y-82193839D01*
X167255687Y-81969472D01*
X167132289Y-81852372D01*
X167050258Y-81774527D01*
X167050255Y-81774525D01*
X167047149Y-81771577D01*
X166813683Y-81603814D01*
X166791843Y-81592250D01*
X166768654Y-81579972D01*
X166559608Y-81469288D01*
X166289627Y-81370489D01*
X166008736Y-81309245D01*
X165977685Y-81306801D01*
X165785718Y-81291693D01*
X165785709Y-81291693D01*
X165783261Y-81291500D01*
X165627729Y-81291500D01*
X165625593Y-81291646D01*
X165625582Y-81291646D01*
X165417452Y-81305835D01*
X165417446Y-81305836D01*
X165413175Y-81306127D01*
X165408980Y-81306996D01*
X165408978Y-81306996D01*
X165272417Y-81335276D01*
X165131658Y-81364426D01*
X164860657Y-81460393D01*
X164605188Y-81592250D01*
X164601687Y-81594711D01*
X164601683Y-81594713D01*
X164575759Y-81612933D01*
X164369977Y-81757559D01*
X164159378Y-81953260D01*
X163977287Y-82175732D01*
X163827073Y-82420858D01*
X163711517Y-82684102D01*
X163710342Y-82688229D01*
X163710341Y-82688230D01*
X163702661Y-82715190D01*
X163632756Y-82960594D01*
X163592249Y-83245216D01*
X163592227Y-83249505D01*
X163592226Y-83249512D01*
X163590789Y-83523859D01*
X163590743Y-83532703D01*
X151000000Y-83532703D01*
X151000000Y-82000000D01*
X156123787Y-82000000D01*
X156142651Y-82179475D01*
X156144691Y-82185753D01*
X156144691Y-82185754D01*
X156147318Y-82193839D01*
X156198417Y-82351107D01*
X156288649Y-82507393D01*
X156293067Y-82512300D01*
X156293068Y-82512301D01*
X156404981Y-82636593D01*
X156409403Y-82641504D01*
X156414745Y-82645385D01*
X156414747Y-82645387D01*
X156550059Y-82743697D01*
X156555401Y-82747578D01*
X156561429Y-82750262D01*
X156561431Y-82750263D01*
X156711219Y-82816953D01*
X156720264Y-82820980D01*
X156808524Y-82839740D01*
X156890327Y-82857128D01*
X156890331Y-82857128D01*
X156896784Y-82858500D01*
X157077248Y-82858500D01*
X157083701Y-82857128D01*
X157083705Y-82857128D01*
X157165508Y-82839740D01*
X157253768Y-82820980D01*
X157262813Y-82816953D01*
X157412601Y-82750263D01*
X157412603Y-82750262D01*
X157418631Y-82747578D01*
X157423973Y-82743697D01*
X157559285Y-82645387D01*
X157559287Y-82645385D01*
X157564629Y-82641504D01*
X157569051Y-82636593D01*
X157680964Y-82512301D01*
X157680965Y-82512300D01*
X157685383Y-82507393D01*
X157775615Y-82351107D01*
X157826714Y-82193839D01*
X157829341Y-82185754D01*
X157829341Y-82185753D01*
X157831381Y-82179475D01*
X157850245Y-82000000D01*
X160136771Y-82000000D01*
X160155635Y-82179475D01*
X160157675Y-82185753D01*
X160157675Y-82185754D01*
X160160302Y-82193839D01*
X160211401Y-82351107D01*
X160301633Y-82507393D01*
X160306051Y-82512300D01*
X160306052Y-82512301D01*
X160417965Y-82636593D01*
X160422387Y-82641504D01*
X160427729Y-82645385D01*
X160427731Y-82645387D01*
X160563043Y-82743697D01*
X160568385Y-82747578D01*
X160574413Y-82750262D01*
X160574415Y-82750263D01*
X160724203Y-82816953D01*
X160733248Y-82820980D01*
X160821508Y-82839740D01*
X160903311Y-82857128D01*
X160903315Y-82857128D01*
X160909768Y-82858500D01*
X161090232Y-82858500D01*
X161096685Y-82857128D01*
X161096689Y-82857128D01*
X161178492Y-82839740D01*
X161266752Y-82820980D01*
X161275797Y-82816953D01*
X161425585Y-82750263D01*
X161425587Y-82750262D01*
X161431615Y-82747578D01*
X161436957Y-82743697D01*
X161572269Y-82645387D01*
X161572271Y-82645385D01*
X161577613Y-82641504D01*
X161582035Y-82636593D01*
X161693948Y-82512301D01*
X161693949Y-82512300D01*
X161698367Y-82507393D01*
X161788599Y-82351107D01*
X161839698Y-82193839D01*
X161842325Y-82185754D01*
X161842325Y-82185753D01*
X161844365Y-82179475D01*
X161863229Y-82000000D01*
X161844365Y-81820525D01*
X161788599Y-81648893D01*
X161783486Y-81640036D01*
X161701668Y-81498325D01*
X161698367Y-81492607D01*
X161677371Y-81469288D01*
X161582035Y-81363407D01*
X161582034Y-81363406D01*
X161577613Y-81358496D01*
X161506730Y-81306996D01*
X161436957Y-81256303D01*
X161436956Y-81256302D01*
X161431615Y-81252422D01*
X161425587Y-81249738D01*
X161425585Y-81249737D01*
X161272783Y-81181705D01*
X161272781Y-81181705D01*
X161266752Y-81179020D01*
X161178492Y-81160260D01*
X161096689Y-81142872D01*
X161096685Y-81142872D01*
X161090232Y-81141500D01*
X160909768Y-81141500D01*
X160903315Y-81142872D01*
X160903311Y-81142872D01*
X160821508Y-81160260D01*
X160733248Y-81179020D01*
X160727219Y-81181704D01*
X160727217Y-81181705D01*
X160574416Y-81249737D01*
X160574414Y-81249738D01*
X160568386Y-81252422D01*
X160563045Y-81256302D01*
X160563044Y-81256303D01*
X160427731Y-81354613D01*
X160427729Y-81354615D01*
X160422387Y-81358496D01*
X160417966Y-81363406D01*
X160417965Y-81363407D01*
X160322630Y-81469288D01*
X160301633Y-81492607D01*
X160298332Y-81498325D01*
X160216515Y-81640036D01*
X160211401Y-81648893D01*
X160155635Y-81820525D01*
X160136771Y-82000000D01*
X157850245Y-82000000D01*
X157831381Y-81820525D01*
X157775615Y-81648893D01*
X157770502Y-81640036D01*
X157688684Y-81498325D01*
X157685383Y-81492607D01*
X157664387Y-81469288D01*
X157569051Y-81363407D01*
X157569050Y-81363406D01*
X157564629Y-81358496D01*
X157493746Y-81306996D01*
X157423973Y-81256303D01*
X157423972Y-81256302D01*
X157418631Y-81252422D01*
X157412603Y-81249738D01*
X157412601Y-81249737D01*
X157259799Y-81181705D01*
X157259797Y-81181705D01*
X157253768Y-81179020D01*
X157165508Y-81160260D01*
X157083705Y-81142872D01*
X157083701Y-81142872D01*
X157077248Y-81141500D01*
X156896784Y-81141500D01*
X156890331Y-81142872D01*
X156890327Y-81142872D01*
X156808524Y-81160260D01*
X156720264Y-81179020D01*
X156714235Y-81181704D01*
X156714233Y-81181705D01*
X156561432Y-81249737D01*
X156561430Y-81249738D01*
X156555402Y-81252422D01*
X156550061Y-81256302D01*
X156550060Y-81256303D01*
X156414747Y-81354613D01*
X156414745Y-81354615D01*
X156409403Y-81358496D01*
X156404982Y-81363406D01*
X156404981Y-81363407D01*
X156309646Y-81469288D01*
X156288649Y-81492607D01*
X156285348Y-81498325D01*
X156203531Y-81640036D01*
X156198417Y-81648893D01*
X156142651Y-81820525D01*
X156123787Y-82000000D01*
X151000000Y-82000000D01*
X151000000Y-78000000D01*
X156136771Y-78000000D01*
X156155635Y-78179475D01*
X156211401Y-78351107D01*
X156301633Y-78507393D01*
X156422387Y-78641504D01*
X156568385Y-78747578D01*
X156574413Y-78750262D01*
X156574415Y-78750263D01*
X156699856Y-78806113D01*
X156733248Y-78820980D01*
X156821508Y-78839740D01*
X156903311Y-78857128D01*
X156903315Y-78857128D01*
X156909768Y-78858500D01*
X157090232Y-78858500D01*
X157096685Y-78857128D01*
X157096689Y-78857128D01*
X157178492Y-78839740D01*
X157266752Y-78820980D01*
X157300144Y-78806113D01*
X157425585Y-78750263D01*
X157425587Y-78750262D01*
X157431615Y-78747578D01*
X157577613Y-78641504D01*
X157698367Y-78507393D01*
X157788599Y-78351107D01*
X157844365Y-78179475D01*
X157863229Y-78000000D01*
X160136771Y-78000000D01*
X160155635Y-78179475D01*
X160211401Y-78351107D01*
X160301633Y-78507393D01*
X160422387Y-78641504D01*
X160568385Y-78747578D01*
X160574413Y-78750262D01*
X160574415Y-78750263D01*
X160699856Y-78806113D01*
X160733248Y-78820980D01*
X160821508Y-78839740D01*
X160903311Y-78857128D01*
X160903315Y-78857128D01*
X160909768Y-78858500D01*
X161090232Y-78858500D01*
X161096685Y-78857128D01*
X161096689Y-78857128D01*
X161178492Y-78839740D01*
X161266752Y-78820980D01*
X161300144Y-78806113D01*
X161425585Y-78750263D01*
X161425587Y-78750262D01*
X161431615Y-78747578D01*
X161577613Y-78641504D01*
X161698367Y-78507393D01*
X161788599Y-78351107D01*
X161844365Y-78179475D01*
X161863229Y-78000000D01*
X161844365Y-77820525D01*
X161788599Y-77648893D01*
X161698367Y-77492607D01*
X161577613Y-77358496D01*
X161431615Y-77252422D01*
X161425587Y-77249738D01*
X161425585Y-77249737D01*
X161272783Y-77181705D01*
X161272781Y-77181705D01*
X161266752Y-77179020D01*
X161170212Y-77158500D01*
X161096689Y-77142872D01*
X161096685Y-77142872D01*
X161090232Y-77141500D01*
X160909768Y-77141500D01*
X160903315Y-77142872D01*
X160903311Y-77142872D01*
X160829788Y-77158500D01*
X160733248Y-77179020D01*
X160727219Y-77181704D01*
X160727217Y-77181705D01*
X160574416Y-77249737D01*
X160574414Y-77249738D01*
X160568386Y-77252422D01*
X160563045Y-77256302D01*
X160563044Y-77256303D01*
X160427731Y-77354613D01*
X160427729Y-77354615D01*
X160422387Y-77358496D01*
X160301633Y-77492607D01*
X160211401Y-77648893D01*
X160155635Y-77820525D01*
X160136771Y-78000000D01*
X157863229Y-78000000D01*
X157844365Y-77820525D01*
X157788599Y-77648893D01*
X157698367Y-77492607D01*
X157577613Y-77358496D01*
X157431615Y-77252422D01*
X157425587Y-77249738D01*
X157425585Y-77249737D01*
X157272783Y-77181705D01*
X157272781Y-77181705D01*
X157266752Y-77179020D01*
X157170212Y-77158500D01*
X157096689Y-77142872D01*
X157096685Y-77142872D01*
X157090232Y-77141500D01*
X156909768Y-77141500D01*
X156903315Y-77142872D01*
X156903311Y-77142872D01*
X156829788Y-77158500D01*
X156733248Y-77179020D01*
X156727219Y-77181704D01*
X156727217Y-77181705D01*
X156574416Y-77249737D01*
X156574414Y-77249738D01*
X156568386Y-77252422D01*
X156563045Y-77256302D01*
X156563044Y-77256303D01*
X156427731Y-77354613D01*
X156427729Y-77354615D01*
X156422387Y-77358496D01*
X156301633Y-77492607D01*
X156211401Y-77648893D01*
X156155635Y-77820525D01*
X156136771Y-78000000D01*
X151000000Y-78000000D01*
X150896254Y-77827089D01*
X148600000Y-74000000D01*
X156136771Y-74000000D01*
X156137461Y-74006565D01*
X156153566Y-74159786D01*
X156155635Y-74179475D01*
X156211401Y-74351107D01*
X156301633Y-74507393D01*
X156306051Y-74512300D01*
X156306052Y-74512301D01*
X156417965Y-74636593D01*
X156422387Y-74641504D01*
X156427729Y-74645385D01*
X156427731Y-74645387D01*
X156563043Y-74743697D01*
X156568385Y-74747578D01*
X156574413Y-74750262D01*
X156574415Y-74750263D01*
X156727217Y-74818295D01*
X156733248Y-74820980D01*
X156787597Y-74832532D01*
X156903311Y-74857128D01*
X156903315Y-74857128D01*
X156909768Y-74858500D01*
X157090232Y-74858500D01*
X157096685Y-74857128D01*
X157096689Y-74857128D01*
X157212403Y-74832532D01*
X157266752Y-74820980D01*
X157272783Y-74818295D01*
X157425585Y-74750263D01*
X157425587Y-74750262D01*
X157431615Y-74747578D01*
X157436957Y-74743697D01*
X157572269Y-74645387D01*
X157572271Y-74645385D01*
X157577613Y-74641504D01*
X157582035Y-74636593D01*
X157693948Y-74512301D01*
X157693949Y-74512300D01*
X157698367Y-74507393D01*
X157788599Y-74351107D01*
X157844365Y-74179475D01*
X157846435Y-74159786D01*
X157862539Y-74006565D01*
X157863229Y-74000000D01*
X160136771Y-74000000D01*
X160137461Y-74006565D01*
X160153566Y-74159786D01*
X160155635Y-74179475D01*
X160211401Y-74351107D01*
X160301633Y-74507393D01*
X160306051Y-74512300D01*
X160306052Y-74512301D01*
X160417965Y-74636593D01*
X160422387Y-74641504D01*
X160427729Y-74645385D01*
X160427731Y-74645387D01*
X160563043Y-74743697D01*
X160568385Y-74747578D01*
X160574413Y-74750262D01*
X160574415Y-74750263D01*
X160727217Y-74818295D01*
X160733248Y-74820980D01*
X160787597Y-74832532D01*
X160903311Y-74857128D01*
X160903315Y-74857128D01*
X160909768Y-74858500D01*
X161090232Y-74858500D01*
X161096685Y-74857128D01*
X161096689Y-74857128D01*
X161212403Y-74832532D01*
X161266752Y-74820980D01*
X161272783Y-74818295D01*
X161425585Y-74750263D01*
X161425587Y-74750262D01*
X161431615Y-74747578D01*
X161436957Y-74743697D01*
X161572269Y-74645387D01*
X161572271Y-74645385D01*
X161577613Y-74641504D01*
X161582035Y-74636593D01*
X161693948Y-74512301D01*
X161693949Y-74512300D01*
X161698367Y-74507393D01*
X161788599Y-74351107D01*
X161844365Y-74179475D01*
X161846435Y-74159786D01*
X161862539Y-74006565D01*
X161863229Y-74000000D01*
X161860500Y-73974032D01*
X164136771Y-73974032D01*
X164155635Y-74153507D01*
X164157675Y-74159785D01*
X164157675Y-74159786D01*
X164188825Y-74255657D01*
X164211401Y-74325139D01*
X164301633Y-74481425D01*
X164422387Y-74615536D01*
X164427729Y-74619417D01*
X164427731Y-74619419D01*
X164463473Y-74645387D01*
X164568385Y-74721610D01*
X164574413Y-74724294D01*
X164574415Y-74724295D01*
X164632740Y-74750263D01*
X164733248Y-74795012D01*
X164821508Y-74813772D01*
X164903311Y-74831160D01*
X164903315Y-74831160D01*
X164909768Y-74832532D01*
X165090232Y-74832532D01*
X165096685Y-74831160D01*
X165096689Y-74831160D01*
X165178492Y-74813772D01*
X165266752Y-74795012D01*
X165367260Y-74750263D01*
X165425585Y-74724295D01*
X165425587Y-74724294D01*
X165431615Y-74721610D01*
X165536527Y-74645387D01*
X165572269Y-74619419D01*
X165572271Y-74619417D01*
X165577613Y-74615536D01*
X165698367Y-74481425D01*
X165788599Y-74325139D01*
X165811175Y-74255657D01*
X165842325Y-74159786D01*
X165842325Y-74159785D01*
X165844365Y-74153507D01*
X165863229Y-73974032D01*
X165847094Y-73820525D01*
X165845055Y-73801121D01*
X165845055Y-73801120D01*
X165844365Y-73794557D01*
X165788599Y-73622925D01*
X165698367Y-73466639D01*
X165681205Y-73447578D01*
X165582035Y-73337439D01*
X165582034Y-73337438D01*
X165577613Y-73332528D01*
X165463662Y-73249737D01*
X165436957Y-73230335D01*
X165436956Y-73230334D01*
X165431615Y-73226454D01*
X165425587Y-73223770D01*
X165425585Y-73223769D01*
X165272783Y-73155737D01*
X165272781Y-73155737D01*
X165266752Y-73153052D01*
X165178492Y-73134292D01*
X165096689Y-73116904D01*
X165096685Y-73116904D01*
X165090232Y-73115532D01*
X164909768Y-73115532D01*
X164903315Y-73116904D01*
X164903311Y-73116904D01*
X164821508Y-73134292D01*
X164733248Y-73153052D01*
X164727219Y-73155736D01*
X164727217Y-73155737D01*
X164574416Y-73223769D01*
X164574414Y-73223770D01*
X164568386Y-73226454D01*
X164563045Y-73230334D01*
X164563044Y-73230335D01*
X164427731Y-73328645D01*
X164427729Y-73328647D01*
X164422387Y-73332528D01*
X164417966Y-73337438D01*
X164417965Y-73337439D01*
X164318796Y-73447578D01*
X164301633Y-73466639D01*
X164211401Y-73622925D01*
X164155635Y-73794557D01*
X164154945Y-73801120D01*
X164154945Y-73801121D01*
X164152906Y-73820525D01*
X164136771Y-73974032D01*
X161860500Y-73974032D01*
X161844365Y-73820525D01*
X161833888Y-73788278D01*
X161790641Y-73655178D01*
X161788599Y-73648893D01*
X161698367Y-73492607D01*
X161577613Y-73358496D01*
X161541872Y-73332528D01*
X161436957Y-73256303D01*
X161436956Y-73256302D01*
X161431615Y-73252422D01*
X161425587Y-73249738D01*
X161425585Y-73249737D01*
X161272783Y-73181705D01*
X161272781Y-73181705D01*
X161266752Y-73179020D01*
X161144581Y-73153052D01*
X161096689Y-73142872D01*
X161096685Y-73142872D01*
X161090232Y-73141500D01*
X160909768Y-73141500D01*
X160903315Y-73142872D01*
X160903311Y-73142872D01*
X160855419Y-73153052D01*
X160733248Y-73179020D01*
X160727219Y-73181704D01*
X160727217Y-73181705D01*
X160574416Y-73249737D01*
X160574414Y-73249738D01*
X160568386Y-73252422D01*
X160563045Y-73256302D01*
X160563044Y-73256303D01*
X160427731Y-73354613D01*
X160427729Y-73354615D01*
X160422387Y-73358496D01*
X160301633Y-73492607D01*
X160211401Y-73648893D01*
X160209359Y-73655178D01*
X160166113Y-73788278D01*
X160155635Y-73820525D01*
X160136771Y-74000000D01*
X157863229Y-74000000D01*
X157844365Y-73820525D01*
X157833888Y-73788278D01*
X157790641Y-73655178D01*
X157788599Y-73648893D01*
X157698367Y-73492607D01*
X157577613Y-73358496D01*
X157541872Y-73332528D01*
X157436957Y-73256303D01*
X157436956Y-73256302D01*
X157431615Y-73252422D01*
X157425587Y-73249738D01*
X157425585Y-73249737D01*
X157272783Y-73181705D01*
X157272781Y-73181705D01*
X157266752Y-73179020D01*
X157144581Y-73153052D01*
X157096689Y-73142872D01*
X157096685Y-73142872D01*
X157090232Y-73141500D01*
X156909768Y-73141500D01*
X156903315Y-73142872D01*
X156903311Y-73142872D01*
X156855419Y-73153052D01*
X156733248Y-73179020D01*
X156727219Y-73181704D01*
X156727217Y-73181705D01*
X156574416Y-73249737D01*
X156574414Y-73249738D01*
X156568386Y-73252422D01*
X156563045Y-73256302D01*
X156563044Y-73256303D01*
X156427731Y-73354613D01*
X156427729Y-73354615D01*
X156422387Y-73358496D01*
X156301633Y-73492607D01*
X156211401Y-73648893D01*
X156209359Y-73655178D01*
X156166113Y-73788278D01*
X156155635Y-73820525D01*
X156136771Y-74000000D01*
X148600000Y-74000000D01*
X146782893Y-70971489D01*
X164811227Y-70971489D01*
X164813096Y-71000000D01*
X164824263Y-71170380D01*
X164873326Y-71363564D01*
X164875743Y-71368807D01*
X164912265Y-71448029D01*
X164956772Y-71544573D01*
X165071807Y-71707344D01*
X165214578Y-71846425D01*
X165380304Y-71957160D01*
X165385607Y-71959438D01*
X165385610Y-71959440D01*
X165558128Y-72033559D01*
X165563435Y-72035839D01*
X165635516Y-72052149D01*
X165752201Y-72078553D01*
X165752207Y-72078554D01*
X165757838Y-72079828D01*
X165763609Y-72080055D01*
X165763611Y-72080055D01*
X165824556Y-72082449D01*
X165957001Y-72087653D01*
X166056959Y-72073160D01*
X166148535Y-72059883D01*
X166148540Y-72059882D01*
X166154256Y-72059053D01*
X166159728Y-72057195D01*
X166159730Y-72057195D01*
X166337532Y-71996839D01*
X166337534Y-71996838D01*
X166342996Y-71994984D01*
X166516899Y-71897594D01*
X166670143Y-71770143D01*
X166797594Y-71616899D01*
X166894984Y-71442996D01*
X166959053Y-71254256D01*
X166959882Y-71248540D01*
X166959883Y-71248535D01*
X166976918Y-71131039D01*
X166987653Y-71057001D01*
X166989146Y-71000000D01*
X166974825Y-70844144D01*
X166971437Y-70807273D01*
X166971436Y-70807270D01*
X166970908Y-70801519D01*
X166956453Y-70750263D01*
X166918373Y-70615244D01*
X166918372Y-70615242D01*
X166916805Y-70609685D01*
X166903746Y-70583202D01*
X166831205Y-70436104D01*
X166828650Y-70430923D01*
X166709393Y-70271219D01*
X166563030Y-70135922D01*
X166558147Y-70132841D01*
X166558143Y-70132838D01*
X166399346Y-70032645D01*
X166399341Y-70032643D01*
X166394462Y-70029564D01*
X166209334Y-69955705D01*
X166013847Y-69916820D01*
X166008072Y-69916744D01*
X166008068Y-69916744D01*
X165908588Y-69915442D01*
X165814547Y-69914211D01*
X165808850Y-69915190D01*
X165808849Y-69915190D01*
X165792805Y-69917947D01*
X165618108Y-69947966D01*
X165431111Y-70016953D01*
X165426149Y-70019905D01*
X165379635Y-70047578D01*
X165259816Y-70118862D01*
X165109961Y-70250281D01*
X164986565Y-70406809D01*
X164983876Y-70411920D01*
X164983874Y-70411923D01*
X164933645Y-70507393D01*
X164893760Y-70583202D01*
X164878483Y-70632403D01*
X164842720Y-70747578D01*
X164834654Y-70773554D01*
X164811227Y-70971489D01*
X146782893Y-70971489D01*
X146200000Y-70000000D01*
X156136771Y-70000000D01*
X156155635Y-70179475D01*
X156211401Y-70351107D01*
X156301633Y-70507393D01*
X156422387Y-70641504D01*
X156427729Y-70645385D01*
X156427731Y-70645387D01*
X156560025Y-70741504D01*
X156568385Y-70747578D01*
X156574413Y-70750262D01*
X156574415Y-70750263D01*
X156707167Y-70809368D01*
X156733248Y-70820980D01*
X156821508Y-70839740D01*
X156903311Y-70857128D01*
X156903315Y-70857128D01*
X156909768Y-70858500D01*
X157090232Y-70858500D01*
X157096685Y-70857128D01*
X157096689Y-70857128D01*
X157178492Y-70839740D01*
X157266752Y-70820980D01*
X157292833Y-70809368D01*
X157425585Y-70750263D01*
X157425587Y-70750262D01*
X157431615Y-70747578D01*
X157439975Y-70741504D01*
X157572269Y-70645387D01*
X157572271Y-70645385D01*
X157577613Y-70641504D01*
X157698367Y-70507393D01*
X157788599Y-70351107D01*
X157844365Y-70179475D01*
X157863229Y-70000000D01*
X157844365Y-69820525D01*
X157788599Y-69648893D01*
X157784732Y-69642194D01*
X157753311Y-69587773D01*
X157698367Y-69492607D01*
X157667654Y-69458496D01*
X157582035Y-69363407D01*
X157582034Y-69363406D01*
X157577613Y-69358496D01*
X157566502Y-69350423D01*
X157436957Y-69256303D01*
X157436956Y-69256302D01*
X157431615Y-69252422D01*
X157425587Y-69249738D01*
X157425585Y-69249737D01*
X157272783Y-69181705D01*
X157272781Y-69181705D01*
X157266752Y-69179020D01*
X157178492Y-69160260D01*
X157096689Y-69142872D01*
X157096685Y-69142872D01*
X157090232Y-69141500D01*
X156909768Y-69141500D01*
X156903315Y-69142872D01*
X156903311Y-69142872D01*
X156821508Y-69160260D01*
X156733248Y-69179020D01*
X156727219Y-69181704D01*
X156727217Y-69181705D01*
X156574416Y-69249737D01*
X156574414Y-69249738D01*
X156568386Y-69252422D01*
X156563045Y-69256302D01*
X156563044Y-69256303D01*
X156427731Y-69354613D01*
X156427729Y-69354615D01*
X156422387Y-69358496D01*
X156417966Y-69363406D01*
X156417965Y-69363407D01*
X156332347Y-69458496D01*
X156301633Y-69492607D01*
X156246689Y-69587773D01*
X156215269Y-69642194D01*
X156211401Y-69648893D01*
X156155635Y-69820525D01*
X156136771Y-70000000D01*
X146200000Y-70000000D01*
X145300000Y-68500000D01*
X160636771Y-68500000D01*
X160655635Y-68679475D01*
X160711401Y-68851107D01*
X160801633Y-69007393D01*
X160806051Y-69012300D01*
X160806052Y-69012301D01*
X160911928Y-69129888D01*
X160922387Y-69141504D01*
X160927729Y-69145385D01*
X160927731Y-69145387D01*
X161057181Y-69239438D01*
X161068385Y-69247578D01*
X161074413Y-69250262D01*
X161074415Y-69250263D01*
X161186126Y-69300000D01*
X161233248Y-69320980D01*
X161321508Y-69339740D01*
X161403311Y-69357128D01*
X161403315Y-69357128D01*
X161409768Y-69358500D01*
X161590232Y-69358500D01*
X161596685Y-69357128D01*
X161596689Y-69357128D01*
X161678492Y-69339740D01*
X161766752Y-69320980D01*
X161813874Y-69300000D01*
X161925585Y-69250263D01*
X161925587Y-69250262D01*
X161931615Y-69247578D01*
X161942819Y-69239438D01*
X162072269Y-69145387D01*
X162072271Y-69145385D01*
X162077613Y-69141504D01*
X162088072Y-69129888D01*
X162193948Y-69012301D01*
X162193949Y-69012300D01*
X162198367Y-69007393D01*
X162288599Y-68851107D01*
X162344365Y-68679475D01*
X162363229Y-68500000D01*
X162350510Y-68378991D01*
X162363282Y-68309154D01*
X162411784Y-68257307D01*
X162424574Y-68250713D01*
X162425583Y-68250264D01*
X162425586Y-68250262D01*
X162431615Y-68247578D01*
X162468224Y-68220980D01*
X162572269Y-68145387D01*
X162572271Y-68145385D01*
X162577613Y-68141504D01*
X162664157Y-68045387D01*
X162693948Y-68012301D01*
X162693949Y-68012300D01*
X162698367Y-68007393D01*
X162756102Y-67907393D01*
X162785295Y-67856830D01*
X162785296Y-67856829D01*
X162788599Y-67851107D01*
X162823343Y-67744176D01*
X162842325Y-67685754D01*
X162842325Y-67685753D01*
X162844365Y-67679475D01*
X162853436Y-67593177D01*
X162862539Y-67506565D01*
X162863229Y-67500000D01*
X162844365Y-67320525D01*
X162788599Y-67148893D01*
X162698367Y-66992607D01*
X162665402Y-66955995D01*
X162582035Y-66863407D01*
X162582034Y-66863406D01*
X162577613Y-66858496D01*
X162558793Y-66844822D01*
X162436957Y-66756303D01*
X162436956Y-66756302D01*
X162431615Y-66752422D01*
X162425587Y-66749738D01*
X162425585Y-66749737D01*
X162272783Y-66681705D01*
X162272781Y-66681705D01*
X162266752Y-66679020D01*
X162178492Y-66660260D01*
X162096689Y-66642872D01*
X162096685Y-66642872D01*
X162090232Y-66641500D01*
X161909768Y-66641500D01*
X161903315Y-66642872D01*
X161903311Y-66642872D01*
X161821508Y-66660260D01*
X161733248Y-66679020D01*
X161727219Y-66681704D01*
X161727217Y-66681705D01*
X161574416Y-66749737D01*
X161574414Y-66749738D01*
X161568386Y-66752422D01*
X161563045Y-66756302D01*
X161563044Y-66756303D01*
X161427731Y-66854613D01*
X161427729Y-66854615D01*
X161422387Y-66858496D01*
X161417966Y-66863406D01*
X161417965Y-66863407D01*
X161334599Y-66955995D01*
X161301633Y-66992607D01*
X161211401Y-67148893D01*
X161155635Y-67320525D01*
X161136771Y-67500000D01*
X161146228Y-67589969D01*
X161149490Y-67621008D01*
X161136718Y-67690846D01*
X161088216Y-67742693D01*
X161075432Y-67749284D01*
X161074423Y-67749733D01*
X161074414Y-67749738D01*
X161068386Y-67752422D01*
X161063045Y-67756302D01*
X161063044Y-67756303D01*
X160927731Y-67854613D01*
X160927729Y-67854615D01*
X160922387Y-67858496D01*
X160801633Y-67992607D01*
X160711401Y-68148893D01*
X160709359Y-68155178D01*
X160659330Y-68309154D01*
X160655635Y-68320525D01*
X160636771Y-68500000D01*
X145300000Y-68500000D01*
X145009321Y-68015535D01*
X145000000Y-68000000D01*
X138471635Y-68000000D01*
X138403514Y-67979998D01*
X138357021Y-67926342D01*
X138346325Y-67860829D01*
X138362539Y-67706565D01*
X138363229Y-67700000D01*
X138344365Y-67520525D01*
X138337990Y-67500903D01*
X138305205Y-67400000D01*
X145336771Y-67400000D01*
X145355635Y-67579475D01*
X145411401Y-67751107D01*
X145501633Y-67907393D01*
X145506051Y-67912300D01*
X145506052Y-67912301D01*
X145617965Y-68036593D01*
X145622387Y-68041504D01*
X145768385Y-68147578D01*
X145774413Y-68150262D01*
X145774415Y-68150263D01*
X145902731Y-68207393D01*
X145933248Y-68220980D01*
X146021508Y-68239740D01*
X146103311Y-68257128D01*
X146103315Y-68257128D01*
X146109768Y-68258500D01*
X146290232Y-68258500D01*
X146296685Y-68257128D01*
X146296689Y-68257128D01*
X146378492Y-68239740D01*
X146466752Y-68220980D01*
X146497269Y-68207393D01*
X146625585Y-68150263D01*
X146625587Y-68150262D01*
X146631615Y-68147578D01*
X146777613Y-68041504D01*
X146782035Y-68036593D01*
X146893948Y-67912301D01*
X146893949Y-67912300D01*
X146898367Y-67907393D01*
X146988599Y-67751107D01*
X147044365Y-67579475D01*
X147063229Y-67400000D01*
X147055068Y-67322353D01*
X147045055Y-67227089D01*
X147045055Y-67227088D01*
X147044365Y-67220525D01*
X147039959Y-67206963D01*
X146990641Y-67055178D01*
X146988599Y-67048893D01*
X146967876Y-67013000D01*
X146951138Y-66944005D01*
X146967876Y-66887000D01*
X146973276Y-66877648D01*
X146988599Y-66851107D01*
X147044365Y-66679475D01*
X147063229Y-66500000D01*
X147044365Y-66320525D01*
X147032267Y-66283289D01*
X146990641Y-66155178D01*
X146988599Y-66148893D01*
X146898367Y-65992607D01*
X146777613Y-65858496D01*
X146748868Y-65837611D01*
X146636957Y-65756303D01*
X146636956Y-65756302D01*
X146631615Y-65752422D01*
X146625587Y-65749738D01*
X146625585Y-65749737D01*
X146472783Y-65681705D01*
X146472781Y-65681705D01*
X146466752Y-65679020D01*
X146378492Y-65660260D01*
X146296689Y-65642872D01*
X146296685Y-65642872D01*
X146290232Y-65641500D01*
X146109768Y-65641500D01*
X146103315Y-65642872D01*
X146103311Y-65642872D01*
X146021508Y-65660260D01*
X145933248Y-65679020D01*
X145927219Y-65681704D01*
X145927217Y-65681705D01*
X145774416Y-65749737D01*
X145774414Y-65749738D01*
X145768386Y-65752422D01*
X145763045Y-65756302D01*
X145763044Y-65756303D01*
X145627731Y-65854613D01*
X145627729Y-65854615D01*
X145622387Y-65858496D01*
X145501633Y-65992607D01*
X145411401Y-66148893D01*
X145409359Y-66155178D01*
X145367734Y-66283289D01*
X145355635Y-66320525D01*
X145336771Y-66500000D01*
X145355635Y-66679475D01*
X145411401Y-66851107D01*
X145426725Y-66877648D01*
X145432124Y-66887000D01*
X145448862Y-66955995D01*
X145432124Y-67013000D01*
X145411401Y-67048893D01*
X145409359Y-67055178D01*
X145360042Y-67206963D01*
X145355635Y-67220525D01*
X145354945Y-67227088D01*
X145354945Y-67227089D01*
X145344932Y-67322353D01*
X145336771Y-67400000D01*
X138305205Y-67400000D01*
X138290641Y-67355178D01*
X138288599Y-67348893D01*
X138276011Y-67327089D01*
X138244504Y-67272519D01*
X138198367Y-67192607D01*
X138077613Y-67058496D01*
X138014994Y-67013000D01*
X137936957Y-66956303D01*
X137936956Y-66956302D01*
X137931615Y-66952422D01*
X137925587Y-66949738D01*
X137925585Y-66949737D01*
X137772783Y-66881705D01*
X137772781Y-66881705D01*
X137766752Y-66879020D01*
X137651925Y-66854613D01*
X137596689Y-66842872D01*
X137596685Y-66842872D01*
X137590232Y-66841500D01*
X137409768Y-66841500D01*
X137403315Y-66842872D01*
X137403311Y-66842872D01*
X137348075Y-66854613D01*
X137233248Y-66879020D01*
X137227219Y-66881704D01*
X137227217Y-66881705D01*
X137074416Y-66949737D01*
X137074414Y-66949738D01*
X137068386Y-66952422D01*
X137063045Y-66956302D01*
X137063044Y-66956303D01*
X136927731Y-67054613D01*
X136927729Y-67054615D01*
X136922387Y-67058496D01*
X136801633Y-67192607D01*
X136755496Y-67272519D01*
X136723990Y-67327089D01*
X136711401Y-67348893D01*
X136709359Y-67355178D01*
X136662011Y-67500903D01*
X136655635Y-67520525D01*
X136636771Y-67700000D01*
X136637461Y-67706565D01*
X136653675Y-67860829D01*
X136640903Y-67930668D01*
X136592401Y-67982514D01*
X136528365Y-68000000D01*
X136052190Y-68000000D01*
X135984069Y-67979998D01*
X135963095Y-67963095D01*
X135563215Y-67563215D01*
X135529189Y-67500903D01*
X135534254Y-67430088D01*
X135576801Y-67373252D01*
X135626113Y-67350873D01*
X135685013Y-67338354D01*
X135760294Y-67322353D01*
X135760297Y-67322352D01*
X135766752Y-67320980D01*
X135875597Y-67272519D01*
X135925585Y-67250263D01*
X135925587Y-67250262D01*
X135931615Y-67247578D01*
X135968850Y-67220525D01*
X136072269Y-67145387D01*
X136072271Y-67145385D01*
X136077613Y-67141504D01*
X136166153Y-67043170D01*
X136193948Y-67012301D01*
X136193949Y-67012300D01*
X136198367Y-67007393D01*
X136288599Y-66851107D01*
X136344365Y-66679475D01*
X136363229Y-66500000D01*
X136344365Y-66320525D01*
X136332267Y-66283289D01*
X136290641Y-66155178D01*
X136288599Y-66148893D01*
X136198367Y-65992607D01*
X136077613Y-65858496D01*
X136048868Y-65837611D01*
X135936957Y-65756303D01*
X135936956Y-65756302D01*
X135931615Y-65752422D01*
X135925587Y-65749738D01*
X135925585Y-65749737D01*
X135772783Y-65681705D01*
X135772781Y-65681705D01*
X135766752Y-65679020D01*
X135678492Y-65660260D01*
X135596689Y-65642872D01*
X135596685Y-65642872D01*
X135590232Y-65641500D01*
X135409768Y-65641500D01*
X135403315Y-65642872D01*
X135403311Y-65642872D01*
X135321508Y-65660260D01*
X135233248Y-65679020D01*
X135227221Y-65681703D01*
X135227213Y-65681706D01*
X135177250Y-65703952D01*
X135106883Y-65713387D01*
X135042586Y-65683281D01*
X135004772Y-65623193D01*
X135000000Y-65588846D01*
X135000000Y-63858457D01*
X135020002Y-63790336D01*
X135073658Y-63743843D01*
X135099804Y-63735210D01*
X135160294Y-63722353D01*
X135160297Y-63722352D01*
X135166752Y-63720980D01*
X135245871Y-63685754D01*
X135325585Y-63650263D01*
X135325587Y-63650262D01*
X135331615Y-63647578D01*
X135368224Y-63620980D01*
X135472269Y-63545387D01*
X135472271Y-63545385D01*
X135477613Y-63541504D01*
X135482035Y-63536593D01*
X135514983Y-63500000D01*
X143936771Y-63500000D01*
X143937461Y-63506565D01*
X143938340Y-63514923D01*
X143955635Y-63679475D01*
X144011401Y-63851107D01*
X144014704Y-63856829D01*
X144014705Y-63856830D01*
X144046689Y-63912227D01*
X144101633Y-64007393D01*
X144222387Y-64141504D01*
X144368385Y-64247578D01*
X144374413Y-64250262D01*
X144374415Y-64250263D01*
X144527217Y-64318295D01*
X144533248Y-64320980D01*
X144621508Y-64339740D01*
X144703311Y-64357128D01*
X144703315Y-64357128D01*
X144709768Y-64358500D01*
X144890232Y-64358500D01*
X144896685Y-64357128D01*
X144896689Y-64357128D01*
X144978492Y-64339740D01*
X145066752Y-64320980D01*
X145072783Y-64318295D01*
X145225585Y-64250263D01*
X145225587Y-64250262D01*
X145231615Y-64247578D01*
X145377613Y-64141504D01*
X145498367Y-64007393D01*
X145553311Y-63912227D01*
X145585295Y-63856830D01*
X145585296Y-63856829D01*
X145588599Y-63851107D01*
X145644365Y-63679475D01*
X145661661Y-63514923D01*
X145662539Y-63506565D01*
X145663229Y-63500000D01*
X145644365Y-63320525D01*
X145623670Y-63256830D01*
X145590641Y-63155178D01*
X145588599Y-63148893D01*
X145498367Y-62992607D01*
X145479912Y-62972110D01*
X145449196Y-62908106D01*
X145457959Y-62837652D01*
X145503422Y-62783121D01*
X145571149Y-62761825D01*
X145624798Y-62772695D01*
X145671374Y-62793432D01*
X145733248Y-62820980D01*
X145811685Y-62837652D01*
X145903311Y-62857128D01*
X145903315Y-62857128D01*
X145909768Y-62858500D01*
X146090232Y-62858500D01*
X146096685Y-62857128D01*
X146096689Y-62857128D01*
X146188315Y-62837652D01*
X146266752Y-62820980D01*
X146328626Y-62793432D01*
X146425585Y-62750263D01*
X146425587Y-62750262D01*
X146431615Y-62747578D01*
X146444557Y-62738175D01*
X146572269Y-62645387D01*
X146572271Y-62645385D01*
X146577613Y-62641504D01*
X146698367Y-62507393D01*
X146767473Y-62387699D01*
X146785295Y-62356830D01*
X146785296Y-62356829D01*
X146788599Y-62351107D01*
X146844365Y-62179475D01*
X146847209Y-62152422D01*
X146862539Y-62006565D01*
X146863229Y-62000000D01*
X146858827Y-61958117D01*
X146845055Y-61827089D01*
X146845055Y-61827088D01*
X146844365Y-61820525D01*
X146832267Y-61783289D01*
X146790641Y-61655178D01*
X146788599Y-61648893D01*
X146698367Y-61492607D01*
X146577613Y-61358496D01*
X146548868Y-61337611D01*
X146436957Y-61256303D01*
X146436956Y-61256302D01*
X146431615Y-61252422D01*
X146425587Y-61249738D01*
X146425585Y-61249737D01*
X146272783Y-61181705D01*
X146272781Y-61181705D01*
X146266752Y-61179020D01*
X146154583Y-61155178D01*
X146096689Y-61142872D01*
X146096685Y-61142872D01*
X146090232Y-61141500D01*
X145909768Y-61141500D01*
X145903315Y-61142872D01*
X145903311Y-61142872D01*
X145845417Y-61155178D01*
X145733248Y-61179020D01*
X145727219Y-61181704D01*
X145727217Y-61181705D01*
X145574416Y-61249737D01*
X145574414Y-61249738D01*
X145568386Y-61252422D01*
X145563045Y-61256302D01*
X145563044Y-61256303D01*
X145427731Y-61354613D01*
X145427729Y-61354615D01*
X145422387Y-61358496D01*
X145301633Y-61492607D01*
X145211401Y-61648893D01*
X145209359Y-61655178D01*
X145167734Y-61783289D01*
X145155635Y-61820525D01*
X145154945Y-61827088D01*
X145154945Y-61827089D01*
X145141173Y-61958117D01*
X145136771Y-62000000D01*
X145137461Y-62006565D01*
X145152792Y-62152422D01*
X145155635Y-62179475D01*
X145211401Y-62351107D01*
X145214704Y-62356829D01*
X145214705Y-62356830D01*
X145232527Y-62387699D01*
X145301633Y-62507393D01*
X145320088Y-62527890D01*
X145350804Y-62591894D01*
X145342041Y-62662348D01*
X145296578Y-62716879D01*
X145228851Y-62738175D01*
X145175202Y-62727305D01*
X145072783Y-62681705D01*
X145072781Y-62681705D01*
X145066752Y-62679020D01*
X144978492Y-62660260D01*
X144896689Y-62642872D01*
X144896685Y-62642872D01*
X144890232Y-62641500D01*
X144709768Y-62641500D01*
X144703315Y-62642872D01*
X144703311Y-62642872D01*
X144621508Y-62660260D01*
X144533248Y-62679020D01*
X144527219Y-62681704D01*
X144527217Y-62681705D01*
X144374416Y-62749737D01*
X144374414Y-62749738D01*
X144368386Y-62752422D01*
X144363045Y-62756302D01*
X144363044Y-62756303D01*
X144227731Y-62854613D01*
X144227729Y-62854615D01*
X144222387Y-62858496D01*
X144217966Y-62863406D01*
X144217965Y-62863407D01*
X144179106Y-62906565D01*
X144101633Y-62992607D01*
X144011401Y-63148893D01*
X144009359Y-63155178D01*
X143976331Y-63256830D01*
X143955635Y-63320525D01*
X143936771Y-63500000D01*
X135514983Y-63500000D01*
X135593948Y-63412301D01*
X135593949Y-63412300D01*
X135598367Y-63407393D01*
X135656102Y-63307393D01*
X135685295Y-63256830D01*
X135685296Y-63256829D01*
X135688599Y-63251107D01*
X135723133Y-63144822D01*
X135742325Y-63085754D01*
X135742325Y-63085753D01*
X135744365Y-63079475D01*
X135763229Y-62900000D01*
X135755068Y-62822352D01*
X135745055Y-62727089D01*
X135745055Y-62727088D01*
X135744365Y-62720525D01*
X135739959Y-62706963D01*
X135690641Y-62555178D01*
X135688599Y-62548893D01*
X135666651Y-62510878D01*
X135649913Y-62441883D01*
X135673133Y-62374791D01*
X135728940Y-62330904D01*
X135749577Y-62324631D01*
X135760289Y-62322354D01*
X135760291Y-62322353D01*
X135766752Y-62320980D01*
X135830479Y-62292607D01*
X135925585Y-62250263D01*
X135925587Y-62250262D01*
X135931615Y-62247578D01*
X135936957Y-62243697D01*
X136072269Y-62145387D01*
X136072271Y-62145385D01*
X136077613Y-62141504D01*
X136137161Y-62075369D01*
X136193948Y-62012301D01*
X136193949Y-62012300D01*
X136198367Y-62007393D01*
X136288599Y-61851107D01*
X136344365Y-61679475D01*
X136363229Y-61500000D01*
X136344365Y-61320525D01*
X136337247Y-61298616D01*
X136290641Y-61155178D01*
X136288599Y-61148893D01*
X136198367Y-60992607D01*
X136163414Y-60953787D01*
X136082035Y-60863407D01*
X136082034Y-60863406D01*
X136077613Y-60858496D01*
X136014032Y-60812301D01*
X135936957Y-60756303D01*
X135936956Y-60756302D01*
X135931615Y-60752422D01*
X135925587Y-60749738D01*
X135925585Y-60749737D01*
X135772783Y-60681705D01*
X135772781Y-60681705D01*
X135766752Y-60679020D01*
X135662355Y-60656830D01*
X135596689Y-60642872D01*
X135596685Y-60642872D01*
X135590232Y-60641500D01*
X135409768Y-60641500D01*
X135403315Y-60642872D01*
X135403311Y-60642872D01*
X135307911Y-60663150D01*
X135281594Y-60668744D01*
X135210803Y-60663342D01*
X135154170Y-60620525D01*
X135129677Y-60553887D01*
X135135564Y-60506563D01*
X135144365Y-60479475D01*
X135163229Y-60300000D01*
X135144365Y-60120525D01*
X135088599Y-59948893D01*
X134998367Y-59792607D01*
X134877613Y-59658496D01*
X134859571Y-59645387D01*
X134736957Y-59556303D01*
X134736956Y-59556302D01*
X134731615Y-59552422D01*
X134725587Y-59549738D01*
X134725585Y-59549737D01*
X134572783Y-59481705D01*
X134572781Y-59481705D01*
X134566752Y-59479020D01*
X134478492Y-59460260D01*
X134396689Y-59442872D01*
X134396685Y-59442872D01*
X134390232Y-59441500D01*
X134209768Y-59441500D01*
X134203315Y-59442872D01*
X134203311Y-59442872D01*
X134121508Y-59460260D01*
X134033248Y-59479020D01*
X134027219Y-59481704D01*
X134027217Y-59481705D01*
X133874416Y-59549737D01*
X133874414Y-59549738D01*
X133868386Y-59552422D01*
X133863045Y-59556302D01*
X133863044Y-59556303D01*
X133727731Y-59654613D01*
X133727729Y-59654615D01*
X133722387Y-59658496D01*
X133601633Y-59792607D01*
X133511401Y-59948893D01*
X133455635Y-60120525D01*
X133436771Y-60300000D01*
X133455635Y-60479475D01*
X133511401Y-60651107D01*
X133601633Y-60807393D01*
X133722387Y-60941504D01*
X133727729Y-60945385D01*
X133727731Y-60945387D01*
X133792724Y-60992607D01*
X133868385Y-61047578D01*
X133874413Y-61050262D01*
X133874415Y-61050263D01*
X134027217Y-61118295D01*
X134033248Y-61120980D01*
X134121508Y-61139740D01*
X134203311Y-61157128D01*
X134203315Y-61157128D01*
X134209768Y-61158500D01*
X134390232Y-61158500D01*
X134396685Y-61157128D01*
X134396689Y-61157128D01*
X134492992Y-61136658D01*
X134518406Y-61131256D01*
X134589197Y-61136658D01*
X134645830Y-61179475D01*
X134670323Y-61246113D01*
X134664436Y-61293437D01*
X134655635Y-61320525D01*
X134636771Y-61500000D01*
X134655635Y-61679475D01*
X134711401Y-61851107D01*
X134714704Y-61856829D01*
X134714705Y-61856830D01*
X134733349Y-61889122D01*
X134750087Y-61958117D01*
X134726867Y-62025209D01*
X134671060Y-62069096D01*
X134650423Y-62075369D01*
X134639711Y-62077646D01*
X134639709Y-62077647D01*
X134633248Y-62079020D01*
X134627219Y-62081704D01*
X134627217Y-62081705D01*
X134474416Y-62149737D01*
X134474414Y-62149738D01*
X134468386Y-62152422D01*
X134463045Y-62156302D01*
X134463044Y-62156303D01*
X134327731Y-62254613D01*
X134327729Y-62254615D01*
X134322387Y-62258496D01*
X134317966Y-62263406D01*
X134317965Y-62263407D01*
X134217675Y-62374791D01*
X134201633Y-62392607D01*
X134198331Y-62398326D01*
X134198329Y-62398329D01*
X134176001Y-62437001D01*
X134124618Y-62485994D01*
X134066883Y-62500000D01*
X128500000Y-62500000D01*
X127000000Y-65000000D01*
X127000000Y-69000000D01*
X127008812Y-69014686D01*
X127008812Y-69014687D01*
X128523597Y-71539328D01*
X132511453Y-78185754D01*
X132982044Y-78970073D01*
X133000000Y-79034899D01*
X133000000Y-81544812D01*
X132979998Y-81612933D01*
X132926342Y-81659426D01*
X132856068Y-81669530D01*
X132791488Y-81640036D01*
X132764881Y-81607812D01*
X132701668Y-81498325D01*
X132698367Y-81492607D01*
X132677371Y-81469288D01*
X132582035Y-81363407D01*
X132582034Y-81363406D01*
X132577613Y-81358496D01*
X132506730Y-81306996D01*
X132436957Y-81256303D01*
X132436956Y-81256302D01*
X132431615Y-81252422D01*
X132425587Y-81249738D01*
X132425585Y-81249737D01*
X132272783Y-81181705D01*
X132272781Y-81181705D01*
X132266752Y-81179020D01*
X132178492Y-81160260D01*
X132096689Y-81142872D01*
X132096685Y-81142872D01*
X132090232Y-81141500D01*
X131909768Y-81141500D01*
X131903315Y-81142872D01*
X131903311Y-81142872D01*
X131821508Y-81160260D01*
X131733248Y-81179020D01*
X131727219Y-81181704D01*
X131727217Y-81181705D01*
X131574416Y-81249737D01*
X131574414Y-81249738D01*
X131568386Y-81252422D01*
X131563045Y-81256302D01*
X131563044Y-81256303D01*
X131427731Y-81354613D01*
X131427729Y-81354615D01*
X131422387Y-81358496D01*
X131417966Y-81363406D01*
X131417965Y-81363407D01*
X131322630Y-81469288D01*
X131301633Y-81492607D01*
X131298332Y-81498325D01*
X131216515Y-81640036D01*
X131211401Y-81648893D01*
X131155635Y-81820525D01*
X131136771Y-82000000D01*
X131155635Y-82179475D01*
X131157675Y-82185753D01*
X131157675Y-82185754D01*
X131160302Y-82193839D01*
X131211401Y-82351107D01*
X131301633Y-82507393D01*
X131306051Y-82512300D01*
X131306052Y-82512301D01*
X131417965Y-82636593D01*
X131422387Y-82641504D01*
X131427729Y-82645385D01*
X131427731Y-82645387D01*
X131563043Y-82743697D01*
X131568385Y-82747578D01*
X131574413Y-82750262D01*
X131574415Y-82750263D01*
X131724203Y-82816953D01*
X131733248Y-82820980D01*
X131821508Y-82839740D01*
X131903311Y-82857128D01*
X131903315Y-82857128D01*
X131909768Y-82858500D01*
X132090232Y-82858500D01*
X132096685Y-82857128D01*
X132096689Y-82857128D01*
X132178492Y-82839740D01*
X132266752Y-82820980D01*
X132275797Y-82816953D01*
X132425585Y-82750263D01*
X132425587Y-82750262D01*
X132431615Y-82747578D01*
X132436957Y-82743697D01*
X132572269Y-82645387D01*
X132572271Y-82645385D01*
X132577613Y-82641504D01*
X132582035Y-82636593D01*
X132693948Y-82512301D01*
X132693949Y-82512300D01*
X132698367Y-82507393D01*
X132764881Y-82392188D01*
X132816264Y-82343195D01*
X132885977Y-82329759D01*
X132951888Y-82356145D01*
X132993070Y-82413978D01*
X133000000Y-82455188D01*
X133000000Y-86365500D01*
X132979998Y-86433621D01*
X132926342Y-86480114D01*
X132874000Y-86491500D01*
X119549367Y-86491500D01*
X119529982Y-86490000D01*
X119515149Y-86487690D01*
X119515145Y-86487690D01*
X119506276Y-86486309D01*
X119487564Y-86488756D01*
X119464634Y-86489647D01*
X119193897Y-86475458D01*
X119180791Y-86474081D01*
X118965866Y-86440040D01*
X118884555Y-86427162D01*
X118871655Y-86424420D01*
X118726804Y-86385608D01*
X118581948Y-86346793D01*
X118569414Y-86342721D01*
X118289412Y-86235237D01*
X118277365Y-86229874D01*
X118010130Y-86093711D01*
X117998714Y-86087120D01*
X117747168Y-85923764D01*
X117736505Y-85916016D01*
X117503427Y-85727273D01*
X117493626Y-85718448D01*
X117281552Y-85506374D01*
X117272727Y-85496573D01*
X117217227Y-85428036D01*
X117083982Y-85263492D01*
X117076236Y-85252832D01*
X116912880Y-85001286D01*
X116906289Y-84989870D01*
X116770126Y-84722635D01*
X116764762Y-84710587D01*
X116760857Y-84700413D01*
X116657279Y-84430586D01*
X116653205Y-84418047D01*
X116652898Y-84416899D01*
X116604787Y-84237347D01*
X116575580Y-84128345D01*
X116572838Y-84115445D01*
X116531905Y-83857001D01*
X116525919Y-83819209D01*
X116524542Y-83806098D01*
X116524223Y-83800000D01*
X116522729Y-83771489D01*
X121511227Y-83771489D01*
X121511605Y-83777255D01*
X121513096Y-83799999D01*
X121513096Y-83800000D01*
X121517701Y-83870253D01*
X121524263Y-83970380D01*
X121525684Y-83975976D01*
X121525685Y-83975981D01*
X121560172Y-84111770D01*
X121573326Y-84163564D01*
X121575743Y-84168807D01*
X121612265Y-84248029D01*
X121656772Y-84344573D01*
X121771807Y-84507344D01*
X121914578Y-84646425D01*
X122080304Y-84757160D01*
X122085607Y-84759438D01*
X122085610Y-84759440D01*
X122258128Y-84833559D01*
X122263435Y-84835839D01*
X122335516Y-84852149D01*
X122452201Y-84878553D01*
X122452207Y-84878554D01*
X122457838Y-84879828D01*
X122463609Y-84880055D01*
X122463611Y-84880055D01*
X122524556Y-84882449D01*
X122657001Y-84887653D01*
X122756959Y-84873160D01*
X122848535Y-84859883D01*
X122848540Y-84859882D01*
X122854256Y-84859053D01*
X122859728Y-84857195D01*
X122859730Y-84857195D01*
X123037532Y-84796839D01*
X123037534Y-84796838D01*
X123042996Y-84794984D01*
X123216899Y-84697594D01*
X123370143Y-84570143D01*
X123497594Y-84416899D01*
X123594984Y-84242996D01*
X123636794Y-84119830D01*
X123657195Y-84059730D01*
X123657195Y-84059728D01*
X123659053Y-84054256D01*
X123659882Y-84048540D01*
X123659883Y-84048535D01*
X123680532Y-83906113D01*
X123687653Y-83857001D01*
X123689146Y-83800000D01*
X123670908Y-83601519D01*
X123666759Y-83586805D01*
X123618373Y-83415244D01*
X123618372Y-83415242D01*
X123616805Y-83409685D01*
X123603746Y-83383202D01*
X123531205Y-83236104D01*
X123528650Y-83230923D01*
X123409393Y-83071219D01*
X123317769Y-82986522D01*
X123267275Y-82939846D01*
X123263030Y-82935922D01*
X123258147Y-82932841D01*
X123258143Y-82932838D01*
X123099346Y-82832645D01*
X123099341Y-82832643D01*
X123094462Y-82829564D01*
X122909334Y-82755705D01*
X122713847Y-82716820D01*
X122708072Y-82716744D01*
X122708068Y-82716744D01*
X122608588Y-82715442D01*
X122514547Y-82714211D01*
X122508850Y-82715190D01*
X122508849Y-82715190D01*
X122323805Y-82746987D01*
X122318108Y-82747966D01*
X122131111Y-82816953D01*
X121959816Y-82918862D01*
X121809961Y-83050281D01*
X121686565Y-83206809D01*
X121683876Y-83211920D01*
X121683874Y-83211923D01*
X121654741Y-83267297D01*
X121593760Y-83383202D01*
X121585537Y-83409685D01*
X121546020Y-83536951D01*
X121534654Y-83573554D01*
X121511227Y-83771489D01*
X116522729Y-83771489D01*
X116510932Y-83546409D01*
X116512505Y-83518915D01*
X116513576Y-83512552D01*
X116513729Y-83500000D01*
X116509773Y-83472376D01*
X116508500Y-83454514D01*
X116508500Y-82000000D01*
X123136770Y-82000000D01*
X123155634Y-82179475D01*
X123157674Y-82185753D01*
X123157674Y-82185754D01*
X123160301Y-82193839D01*
X123211400Y-82351107D01*
X123301632Y-82507393D01*
X123306050Y-82512300D01*
X123306051Y-82512301D01*
X123417964Y-82636593D01*
X123422386Y-82641504D01*
X123427728Y-82645385D01*
X123427730Y-82645387D01*
X123563042Y-82743697D01*
X123568384Y-82747578D01*
X123574412Y-82750262D01*
X123574414Y-82750263D01*
X123724202Y-82816953D01*
X123733247Y-82820980D01*
X123821507Y-82839740D01*
X123903310Y-82857128D01*
X123903314Y-82857128D01*
X123909767Y-82858500D01*
X124090231Y-82858500D01*
X124096684Y-82857128D01*
X124096688Y-82857128D01*
X124178491Y-82839740D01*
X124266751Y-82820980D01*
X124275796Y-82816953D01*
X124425584Y-82750263D01*
X124425586Y-82750262D01*
X124431614Y-82747578D01*
X124436956Y-82743697D01*
X124572268Y-82645387D01*
X124572270Y-82645385D01*
X124577612Y-82641504D01*
X124582034Y-82636593D01*
X124693947Y-82512301D01*
X124693948Y-82512300D01*
X124698366Y-82507393D01*
X124788598Y-82351107D01*
X124839697Y-82193839D01*
X124842324Y-82185754D01*
X124842324Y-82185753D01*
X124844364Y-82179475D01*
X124863228Y-82000000D01*
X127136771Y-82000000D01*
X127155635Y-82179475D01*
X127157675Y-82185753D01*
X127157675Y-82185754D01*
X127160302Y-82193839D01*
X127211401Y-82351107D01*
X127301633Y-82507393D01*
X127306051Y-82512300D01*
X127306052Y-82512301D01*
X127417965Y-82636593D01*
X127422387Y-82641504D01*
X127427729Y-82645385D01*
X127427731Y-82645387D01*
X127563043Y-82743697D01*
X127568385Y-82747578D01*
X127574413Y-82750262D01*
X127574415Y-82750263D01*
X127724203Y-82816953D01*
X127733248Y-82820980D01*
X127821508Y-82839740D01*
X127903311Y-82857128D01*
X127903315Y-82857128D01*
X127909768Y-82858500D01*
X128090232Y-82858500D01*
X128096685Y-82857128D01*
X128096689Y-82857128D01*
X128178492Y-82839740D01*
X128266752Y-82820980D01*
X128275797Y-82816953D01*
X128425585Y-82750263D01*
X128425587Y-82750262D01*
X128431615Y-82747578D01*
X128436957Y-82743697D01*
X128572269Y-82645387D01*
X128572271Y-82645385D01*
X128577613Y-82641504D01*
X128582035Y-82636593D01*
X128693948Y-82512301D01*
X128693949Y-82512300D01*
X128698367Y-82507393D01*
X128788599Y-82351107D01*
X128839698Y-82193839D01*
X128842325Y-82185754D01*
X128842325Y-82185753D01*
X128844365Y-82179475D01*
X128863229Y-82000000D01*
X128844365Y-81820525D01*
X128788599Y-81648893D01*
X128783486Y-81640036D01*
X128701668Y-81498325D01*
X128698367Y-81492607D01*
X128677371Y-81469288D01*
X128582035Y-81363407D01*
X128582034Y-81363406D01*
X128577613Y-81358496D01*
X128506730Y-81306996D01*
X128436957Y-81256303D01*
X128436956Y-81256302D01*
X128431615Y-81252422D01*
X128425587Y-81249738D01*
X128425585Y-81249737D01*
X128272783Y-81181705D01*
X128272781Y-81181705D01*
X128266752Y-81179020D01*
X128178492Y-81160260D01*
X128096689Y-81142872D01*
X128096685Y-81142872D01*
X128090232Y-81141500D01*
X127909768Y-81141500D01*
X127903315Y-81142872D01*
X127903311Y-81142872D01*
X127821508Y-81160260D01*
X127733248Y-81179020D01*
X127727219Y-81181704D01*
X127727217Y-81181705D01*
X127574416Y-81249737D01*
X127574414Y-81249738D01*
X127568386Y-81252422D01*
X127563045Y-81256302D01*
X127563044Y-81256303D01*
X127427731Y-81354613D01*
X127427729Y-81354615D01*
X127422387Y-81358496D01*
X127417966Y-81363406D01*
X127417965Y-81363407D01*
X127322630Y-81469288D01*
X127301633Y-81492607D01*
X127298332Y-81498325D01*
X127216515Y-81640036D01*
X127211401Y-81648893D01*
X127155635Y-81820525D01*
X127136771Y-82000000D01*
X124863228Y-82000000D01*
X124844364Y-81820525D01*
X124788598Y-81648893D01*
X124783485Y-81640036D01*
X124701667Y-81498325D01*
X124698366Y-81492607D01*
X124677370Y-81469288D01*
X124582034Y-81363407D01*
X124582033Y-81363406D01*
X124577612Y-81358496D01*
X124506729Y-81306996D01*
X124436956Y-81256303D01*
X124436955Y-81256302D01*
X124431614Y-81252422D01*
X124425586Y-81249738D01*
X124425584Y-81249737D01*
X124272782Y-81181705D01*
X124272780Y-81181705D01*
X124266751Y-81179020D01*
X124178491Y-81160260D01*
X124096688Y-81142872D01*
X124096684Y-81142872D01*
X124090231Y-81141500D01*
X123909767Y-81141500D01*
X123903314Y-81142872D01*
X123903310Y-81142872D01*
X123821507Y-81160260D01*
X123733247Y-81179020D01*
X123727218Y-81181704D01*
X123727216Y-81181705D01*
X123574415Y-81249737D01*
X123574413Y-81249738D01*
X123568385Y-81252422D01*
X123563044Y-81256302D01*
X123563043Y-81256303D01*
X123427730Y-81354613D01*
X123427728Y-81354615D01*
X123422386Y-81358496D01*
X123417965Y-81363406D01*
X123417964Y-81363407D01*
X123322629Y-81469288D01*
X123301632Y-81492607D01*
X123298331Y-81498325D01*
X123216514Y-81640036D01*
X123211400Y-81648893D01*
X123155634Y-81820525D01*
X123136770Y-82000000D01*
X116508500Y-82000000D01*
X116508500Y-78000000D01*
X123136771Y-78000000D01*
X123155635Y-78179475D01*
X123211401Y-78351107D01*
X123301633Y-78507393D01*
X123422387Y-78641504D01*
X123568385Y-78747578D01*
X123574413Y-78750262D01*
X123574415Y-78750263D01*
X123699856Y-78806113D01*
X123733248Y-78820980D01*
X123821508Y-78839740D01*
X123903311Y-78857128D01*
X123903315Y-78857128D01*
X123909768Y-78858500D01*
X124090232Y-78858500D01*
X124096685Y-78857128D01*
X124096689Y-78857128D01*
X124178492Y-78839740D01*
X124266752Y-78820980D01*
X124300144Y-78806113D01*
X124425585Y-78750263D01*
X124425587Y-78750262D01*
X124431615Y-78747578D01*
X124577613Y-78641504D01*
X124698367Y-78507393D01*
X124788599Y-78351107D01*
X124844365Y-78179475D01*
X124863229Y-78000000D01*
X127136771Y-78000000D01*
X127155635Y-78179475D01*
X127211401Y-78351107D01*
X127301633Y-78507393D01*
X127422387Y-78641504D01*
X127568385Y-78747578D01*
X127574413Y-78750262D01*
X127574415Y-78750263D01*
X127699856Y-78806113D01*
X127733248Y-78820980D01*
X127821508Y-78839740D01*
X127903311Y-78857128D01*
X127903315Y-78857128D01*
X127909768Y-78858500D01*
X128090232Y-78858500D01*
X128096685Y-78857128D01*
X128096689Y-78857128D01*
X128178492Y-78839740D01*
X128266752Y-78820980D01*
X128300144Y-78806113D01*
X128425585Y-78750263D01*
X128425587Y-78750262D01*
X128431615Y-78747578D01*
X128577613Y-78641504D01*
X128698367Y-78507393D01*
X128788599Y-78351107D01*
X128844365Y-78179475D01*
X128863229Y-78000000D01*
X128844365Y-77820525D01*
X128788599Y-77648893D01*
X128698367Y-77492607D01*
X128577613Y-77358496D01*
X128431615Y-77252422D01*
X128425587Y-77249738D01*
X128425585Y-77249737D01*
X128272783Y-77181705D01*
X128272781Y-77181705D01*
X128266752Y-77179020D01*
X128170212Y-77158500D01*
X128096689Y-77142872D01*
X128096685Y-77142872D01*
X128090232Y-77141500D01*
X127909768Y-77141500D01*
X127903315Y-77142872D01*
X127903311Y-77142872D01*
X127829788Y-77158500D01*
X127733248Y-77179020D01*
X127727219Y-77181704D01*
X127727217Y-77181705D01*
X127574416Y-77249737D01*
X127574414Y-77249738D01*
X127568386Y-77252422D01*
X127563045Y-77256302D01*
X127563044Y-77256303D01*
X127427731Y-77354613D01*
X127427729Y-77354615D01*
X127422387Y-77358496D01*
X127301633Y-77492607D01*
X127211401Y-77648893D01*
X127155635Y-77820525D01*
X127136771Y-78000000D01*
X124863229Y-78000000D01*
X124844365Y-77820525D01*
X124788599Y-77648893D01*
X124698367Y-77492607D01*
X124577613Y-77358496D01*
X124431615Y-77252422D01*
X124425587Y-77249738D01*
X124425585Y-77249737D01*
X124272783Y-77181705D01*
X124272781Y-77181705D01*
X124266752Y-77179020D01*
X124170212Y-77158500D01*
X124096689Y-77142872D01*
X124096685Y-77142872D01*
X124090232Y-77141500D01*
X123909768Y-77141500D01*
X123903315Y-77142872D01*
X123903311Y-77142872D01*
X123829788Y-77158500D01*
X123733248Y-77179020D01*
X123727219Y-77181704D01*
X123727217Y-77181705D01*
X123574416Y-77249737D01*
X123574414Y-77249738D01*
X123568386Y-77252422D01*
X123563045Y-77256302D01*
X123563044Y-77256303D01*
X123427731Y-77354613D01*
X123427729Y-77354615D01*
X123422387Y-77358496D01*
X123301633Y-77492607D01*
X123211401Y-77648893D01*
X123155635Y-77820525D01*
X123136771Y-78000000D01*
X116508500Y-78000000D01*
X116508500Y-74000000D01*
X123135826Y-74000000D01*
X123136516Y-74006565D01*
X123152621Y-74159786D01*
X123154690Y-74179475D01*
X123210456Y-74351107D01*
X123300688Y-74507393D01*
X123305106Y-74512300D01*
X123305107Y-74512301D01*
X123417020Y-74636593D01*
X123421442Y-74641504D01*
X123426784Y-74645385D01*
X123426786Y-74645387D01*
X123562098Y-74743697D01*
X123567440Y-74747578D01*
X123573468Y-74750262D01*
X123573470Y-74750263D01*
X123726272Y-74818295D01*
X123732303Y-74820980D01*
X123786652Y-74832532D01*
X123902366Y-74857128D01*
X123902370Y-74857128D01*
X123908823Y-74858500D01*
X124089287Y-74858500D01*
X124095740Y-74857128D01*
X124095744Y-74857128D01*
X124211458Y-74832532D01*
X124265807Y-74820980D01*
X124271838Y-74818295D01*
X124424640Y-74750263D01*
X124424642Y-74750262D01*
X124430670Y-74747578D01*
X124436012Y-74743697D01*
X124571324Y-74645387D01*
X124571326Y-74645385D01*
X124576668Y-74641504D01*
X124581090Y-74636593D01*
X124693003Y-74512301D01*
X124693004Y-74512300D01*
X124697422Y-74507393D01*
X124787654Y-74351107D01*
X124843420Y-74179475D01*
X124845490Y-74159786D01*
X124861594Y-74006565D01*
X124862284Y-74000000D01*
X127136771Y-74000000D01*
X127137461Y-74006565D01*
X127153566Y-74159786D01*
X127155635Y-74179475D01*
X127211401Y-74351107D01*
X127301633Y-74507393D01*
X127306051Y-74512300D01*
X127306052Y-74512301D01*
X127417965Y-74636593D01*
X127422387Y-74641504D01*
X127427729Y-74645385D01*
X127427731Y-74645387D01*
X127563043Y-74743697D01*
X127568385Y-74747578D01*
X127574413Y-74750262D01*
X127574415Y-74750263D01*
X127727217Y-74818295D01*
X127733248Y-74820980D01*
X127787597Y-74832532D01*
X127903311Y-74857128D01*
X127903315Y-74857128D01*
X127909768Y-74858500D01*
X128090232Y-74858500D01*
X128096685Y-74857128D01*
X128096689Y-74857128D01*
X128212403Y-74832532D01*
X128266752Y-74820980D01*
X128272783Y-74818295D01*
X128425585Y-74750263D01*
X128425587Y-74750262D01*
X128431615Y-74747578D01*
X128436957Y-74743697D01*
X128572269Y-74645387D01*
X128572271Y-74645385D01*
X128577613Y-74641504D01*
X128582035Y-74636593D01*
X128693948Y-74512301D01*
X128693949Y-74512300D01*
X128698367Y-74507393D01*
X128788599Y-74351107D01*
X128844365Y-74179475D01*
X128846435Y-74159786D01*
X128862539Y-74006565D01*
X128863229Y-74000000D01*
X128844365Y-73820525D01*
X128833888Y-73788278D01*
X128790641Y-73655178D01*
X128788599Y-73648893D01*
X128698367Y-73492607D01*
X128577613Y-73358496D01*
X128541872Y-73332528D01*
X128436957Y-73256303D01*
X128436956Y-73256302D01*
X128431615Y-73252422D01*
X128425587Y-73249738D01*
X128425585Y-73249737D01*
X128272783Y-73181705D01*
X128272781Y-73181705D01*
X128266752Y-73179020D01*
X128144581Y-73153052D01*
X128096689Y-73142872D01*
X128096685Y-73142872D01*
X128090232Y-73141500D01*
X127909768Y-73141500D01*
X127903315Y-73142872D01*
X127903311Y-73142872D01*
X127855419Y-73153052D01*
X127733248Y-73179020D01*
X127727219Y-73181704D01*
X127727217Y-73181705D01*
X127574416Y-73249737D01*
X127574414Y-73249738D01*
X127568386Y-73252422D01*
X127563045Y-73256302D01*
X127563044Y-73256303D01*
X127427731Y-73354613D01*
X127427729Y-73354615D01*
X127422387Y-73358496D01*
X127301633Y-73492607D01*
X127211401Y-73648893D01*
X127209359Y-73655178D01*
X127166113Y-73788278D01*
X127155635Y-73820525D01*
X127136771Y-74000000D01*
X124862284Y-74000000D01*
X124843420Y-73820525D01*
X124832943Y-73788278D01*
X124789696Y-73655178D01*
X124787654Y-73648893D01*
X124697422Y-73492607D01*
X124576668Y-73358496D01*
X124540927Y-73332528D01*
X124436012Y-73256303D01*
X124436011Y-73256302D01*
X124430670Y-73252422D01*
X124424642Y-73249738D01*
X124424640Y-73249737D01*
X124271838Y-73181705D01*
X124271836Y-73181705D01*
X124265807Y-73179020D01*
X124143636Y-73153052D01*
X124095744Y-73142872D01*
X124095740Y-73142872D01*
X124089287Y-73141500D01*
X123908823Y-73141500D01*
X123902370Y-73142872D01*
X123902366Y-73142872D01*
X123854474Y-73153052D01*
X123732303Y-73179020D01*
X123726274Y-73181704D01*
X123726272Y-73181705D01*
X123573471Y-73249737D01*
X123573469Y-73249738D01*
X123567441Y-73252422D01*
X123562100Y-73256302D01*
X123562099Y-73256303D01*
X123426786Y-73354613D01*
X123426784Y-73354615D01*
X123421442Y-73358496D01*
X123300688Y-73492607D01*
X123210456Y-73648893D01*
X123208414Y-73655178D01*
X123165168Y-73788278D01*
X123154690Y-73820525D01*
X123135826Y-74000000D01*
X116508500Y-74000000D01*
X116508500Y-69987016D01*
X119123787Y-69987016D01*
X119142651Y-70166491D01*
X119198417Y-70338123D01*
X119201720Y-70343845D01*
X119201721Y-70343846D01*
X119233705Y-70399243D01*
X119288649Y-70494409D01*
X119293067Y-70499316D01*
X119293068Y-70499317D01*
X119373573Y-70588727D01*
X119409403Y-70628520D01*
X119414745Y-70632401D01*
X119414747Y-70632403D01*
X119432618Y-70645387D01*
X119555401Y-70734594D01*
X119561429Y-70737278D01*
X119561431Y-70737279D01*
X119693226Y-70795958D01*
X119720264Y-70807996D01*
X119781350Y-70820980D01*
X119890327Y-70844144D01*
X119890331Y-70844144D01*
X119896784Y-70845516D01*
X120077248Y-70845516D01*
X120083701Y-70844144D01*
X120083705Y-70844144D01*
X120192682Y-70820980D01*
X120253768Y-70807996D01*
X120280806Y-70795958D01*
X120412601Y-70737279D01*
X120412603Y-70737278D01*
X120418631Y-70734594D01*
X120541414Y-70645387D01*
X120559285Y-70632403D01*
X120559287Y-70632401D01*
X120564629Y-70628520D01*
X120600459Y-70588727D01*
X120680964Y-70499317D01*
X120680965Y-70499316D01*
X120685383Y-70494409D01*
X120740327Y-70399243D01*
X120772311Y-70343846D01*
X120772312Y-70343845D01*
X120775615Y-70338123D01*
X120831381Y-70166491D01*
X120848880Y-70000000D01*
X123136771Y-70000000D01*
X123155635Y-70179475D01*
X123211401Y-70351107D01*
X123301633Y-70507393D01*
X123422387Y-70641504D01*
X123427729Y-70645385D01*
X123427731Y-70645387D01*
X123560025Y-70741504D01*
X123568385Y-70747578D01*
X123574413Y-70750262D01*
X123574415Y-70750263D01*
X123707167Y-70809368D01*
X123733248Y-70820980D01*
X123821508Y-70839740D01*
X123903311Y-70857128D01*
X123903315Y-70857128D01*
X123909768Y-70858500D01*
X124090232Y-70858500D01*
X124096685Y-70857128D01*
X124096689Y-70857128D01*
X124178492Y-70839740D01*
X124266752Y-70820980D01*
X124292833Y-70809368D01*
X124425585Y-70750263D01*
X124425587Y-70750262D01*
X124431615Y-70747578D01*
X124439975Y-70741504D01*
X124572269Y-70645387D01*
X124572271Y-70645385D01*
X124577613Y-70641504D01*
X124698367Y-70507393D01*
X124788599Y-70351107D01*
X124844365Y-70179475D01*
X124863229Y-70000000D01*
X124844365Y-69820525D01*
X124788599Y-69648893D01*
X124784732Y-69642194D01*
X124753311Y-69587773D01*
X124698367Y-69492607D01*
X124667654Y-69458496D01*
X124582035Y-69363407D01*
X124582034Y-69363406D01*
X124577613Y-69358496D01*
X124566502Y-69350423D01*
X124436957Y-69256303D01*
X124436956Y-69256302D01*
X124431615Y-69252422D01*
X124425587Y-69249738D01*
X124425585Y-69249737D01*
X124272783Y-69181705D01*
X124272781Y-69181705D01*
X124266752Y-69179020D01*
X124178492Y-69160260D01*
X124096689Y-69142872D01*
X124096685Y-69142872D01*
X124090232Y-69141500D01*
X123909768Y-69141500D01*
X123903315Y-69142872D01*
X123903311Y-69142872D01*
X123821508Y-69160260D01*
X123733248Y-69179020D01*
X123727219Y-69181704D01*
X123727217Y-69181705D01*
X123574416Y-69249737D01*
X123574414Y-69249738D01*
X123568386Y-69252422D01*
X123563045Y-69256302D01*
X123563044Y-69256303D01*
X123427731Y-69354613D01*
X123427729Y-69354615D01*
X123422387Y-69358496D01*
X123417966Y-69363406D01*
X123417965Y-69363407D01*
X123332347Y-69458496D01*
X123301633Y-69492607D01*
X123246689Y-69587773D01*
X123215269Y-69642194D01*
X123211401Y-69648893D01*
X123155635Y-69820525D01*
X123136771Y-70000000D01*
X120848880Y-70000000D01*
X120850245Y-69987016D01*
X120831381Y-69807541D01*
X120775615Y-69635909D01*
X120685383Y-69479623D01*
X120576324Y-69358500D01*
X120569051Y-69350423D01*
X120569050Y-69350422D01*
X120564629Y-69345512D01*
X120532753Y-69322352D01*
X120423973Y-69243319D01*
X120423972Y-69243318D01*
X120418631Y-69239438D01*
X120412603Y-69236754D01*
X120412601Y-69236753D01*
X120259799Y-69168721D01*
X120259797Y-69168721D01*
X120253768Y-69166036D01*
X120138334Y-69141500D01*
X120083705Y-69129888D01*
X120083701Y-69129888D01*
X120077248Y-69128516D01*
X119896784Y-69128516D01*
X119890331Y-69129888D01*
X119890327Y-69129888D01*
X119835698Y-69141500D01*
X119720264Y-69166036D01*
X119714235Y-69168720D01*
X119714233Y-69168721D01*
X119561432Y-69236753D01*
X119561430Y-69236754D01*
X119555402Y-69239438D01*
X119550061Y-69243318D01*
X119550060Y-69243319D01*
X119414747Y-69341629D01*
X119414745Y-69341631D01*
X119409403Y-69345512D01*
X119404982Y-69350422D01*
X119404981Y-69350423D01*
X119397709Y-69358500D01*
X119288649Y-69479623D01*
X119198417Y-69635909D01*
X119142651Y-69807541D01*
X119123787Y-69987016D01*
X116508500Y-69987016D01*
X116508500Y-67338354D01*
X116528502Y-67270233D01*
X116582158Y-67223740D01*
X116652432Y-67213636D01*
X116717012Y-67243130D01*
X116741933Y-67272519D01*
X116823241Y-67405202D01*
X116823245Y-67405208D01*
X116825824Y-67409416D01*
X116980031Y-67589969D01*
X117160584Y-67744176D01*
X117164792Y-67746755D01*
X117164798Y-67746759D01*
X117340800Y-67854613D01*
X117363037Y-67868240D01*
X117367607Y-67870133D01*
X117367611Y-67870135D01*
X117577833Y-67957211D01*
X117582406Y-67959105D01*
X117599026Y-67963095D01*
X117808476Y-68013380D01*
X117808482Y-68013381D01*
X117813289Y-68014535D01*
X118050000Y-68033165D01*
X118286711Y-68014535D01*
X118291518Y-68013381D01*
X118291524Y-68013380D01*
X118500974Y-67963095D01*
X118517594Y-67959105D01*
X118522167Y-67957211D01*
X118732389Y-67870135D01*
X118732393Y-67870133D01*
X118736963Y-67868240D01*
X118759200Y-67854613D01*
X118935202Y-67746759D01*
X118935208Y-67746755D01*
X118939416Y-67744176D01*
X119119969Y-67589969D01*
X119274176Y-67409416D01*
X119276755Y-67405208D01*
X119276759Y-67405202D01*
X119395654Y-67211183D01*
X119398240Y-67206963D01*
X119404187Y-67192607D01*
X119487211Y-66992167D01*
X119487212Y-66992165D01*
X119489105Y-66987594D01*
X119508360Y-66907391D01*
X119543380Y-66761524D01*
X119543381Y-66761518D01*
X119544535Y-66756711D01*
X119563165Y-66520000D01*
X123036835Y-66520000D01*
X123055465Y-66756711D01*
X123056619Y-66761518D01*
X123056620Y-66761524D01*
X123091640Y-66907391D01*
X123110895Y-66987594D01*
X123112788Y-66992165D01*
X123112789Y-66992167D01*
X123195814Y-67192607D01*
X123201760Y-67206963D01*
X123204346Y-67211183D01*
X123323241Y-67405202D01*
X123323245Y-67405208D01*
X123325824Y-67409416D01*
X123480031Y-67589969D01*
X123660584Y-67744176D01*
X123664792Y-67746755D01*
X123664798Y-67746759D01*
X123840800Y-67854613D01*
X123863037Y-67868240D01*
X123867607Y-67870133D01*
X123867611Y-67870135D01*
X124077833Y-67957211D01*
X124082406Y-67959105D01*
X124099026Y-67963095D01*
X124308476Y-68013380D01*
X124308482Y-68013381D01*
X124313289Y-68014535D01*
X124550000Y-68033165D01*
X124786711Y-68014535D01*
X124791518Y-68013381D01*
X124791524Y-68013380D01*
X125000974Y-67963095D01*
X125017594Y-67959105D01*
X125022167Y-67957211D01*
X125232389Y-67870135D01*
X125232393Y-67870133D01*
X125236963Y-67868240D01*
X125259200Y-67854613D01*
X125435202Y-67746759D01*
X125435208Y-67746755D01*
X125439416Y-67744176D01*
X125619969Y-67589969D01*
X125774176Y-67409416D01*
X125776755Y-67405208D01*
X125776759Y-67405202D01*
X125895654Y-67211183D01*
X125898240Y-67206963D01*
X125904187Y-67192607D01*
X125987211Y-66992167D01*
X125987212Y-66992165D01*
X125989105Y-66987594D01*
X126008360Y-66907391D01*
X126043380Y-66761524D01*
X126043381Y-66761518D01*
X126044535Y-66756711D01*
X126063165Y-66520000D01*
X126044535Y-66283289D01*
X126010896Y-66143170D01*
X125990260Y-66057218D01*
X125989105Y-66052406D01*
X125910820Y-65863407D01*
X125900135Y-65837611D01*
X125900133Y-65837607D01*
X125898240Y-65833037D01*
X125894368Y-65826719D01*
X125776759Y-65634798D01*
X125776755Y-65634792D01*
X125774176Y-65630584D01*
X125619969Y-65450031D01*
X125439416Y-65295824D01*
X125435208Y-65293245D01*
X125435202Y-65293241D01*
X125241183Y-65174346D01*
X125236963Y-65171760D01*
X125232393Y-65169867D01*
X125232389Y-65169865D01*
X125022167Y-65082789D01*
X125022165Y-65082788D01*
X125017594Y-65080895D01*
X124937391Y-65061640D01*
X124791524Y-65026620D01*
X124791518Y-65026619D01*
X124786711Y-65025465D01*
X124550000Y-65006835D01*
X124313289Y-65025465D01*
X124308482Y-65026619D01*
X124308476Y-65026620D01*
X124162609Y-65061640D01*
X124082406Y-65080895D01*
X124077835Y-65082788D01*
X124077833Y-65082789D01*
X123867611Y-65169865D01*
X123867607Y-65169867D01*
X123863037Y-65171760D01*
X123858817Y-65174346D01*
X123664798Y-65293241D01*
X123664792Y-65293245D01*
X123660584Y-65295824D01*
X123480031Y-65450031D01*
X123325824Y-65630584D01*
X123323245Y-65634792D01*
X123323241Y-65634798D01*
X123205632Y-65826719D01*
X123201760Y-65833037D01*
X123199867Y-65837607D01*
X123199865Y-65837611D01*
X123189180Y-65863407D01*
X123110895Y-66052406D01*
X123109740Y-66057218D01*
X123089105Y-66143170D01*
X123055465Y-66283289D01*
X123036835Y-66520000D01*
X119563165Y-66520000D01*
X119544535Y-66283289D01*
X119510896Y-66143170D01*
X119490260Y-66057218D01*
X119489105Y-66052406D01*
X119410820Y-65863407D01*
X119400135Y-65837611D01*
X119400133Y-65837607D01*
X119398240Y-65833037D01*
X119394368Y-65826719D01*
X119276759Y-65634798D01*
X119276755Y-65634792D01*
X119274176Y-65630584D01*
X119119969Y-65450031D01*
X118939416Y-65295824D01*
X118935208Y-65293245D01*
X118935202Y-65293241D01*
X118741183Y-65174346D01*
X118736963Y-65171760D01*
X118732393Y-65169867D01*
X118732389Y-65169865D01*
X118522167Y-65082789D01*
X118522165Y-65082788D01*
X118517594Y-65080895D01*
X118437391Y-65061640D01*
X118291524Y-65026620D01*
X118291518Y-65026619D01*
X118286711Y-65025465D01*
X118050000Y-65006835D01*
X117813289Y-65025465D01*
X117808482Y-65026619D01*
X117808476Y-65026620D01*
X117662609Y-65061640D01*
X117582406Y-65080895D01*
X117577835Y-65082788D01*
X117577833Y-65082789D01*
X117367611Y-65169865D01*
X117367607Y-65169867D01*
X117363037Y-65171760D01*
X117358817Y-65174346D01*
X117164798Y-65293241D01*
X117164792Y-65293245D01*
X117160584Y-65295824D01*
X116980031Y-65450031D01*
X116825824Y-65630584D01*
X116823245Y-65634792D01*
X116823241Y-65634798D01*
X116741933Y-65767481D01*
X116689285Y-65815112D01*
X116619243Y-65826719D01*
X116554046Y-65798616D01*
X116514392Y-65739725D01*
X116508500Y-65701646D01*
X116508500Y-62838354D01*
X116528502Y-62770233D01*
X116582158Y-62723740D01*
X116652432Y-62713636D01*
X116717012Y-62743130D01*
X116741933Y-62772519D01*
X116823241Y-62905202D01*
X116823245Y-62905208D01*
X116825824Y-62909416D01*
X116980031Y-63089969D01*
X117160584Y-63244176D01*
X117164792Y-63246755D01*
X117164798Y-63246759D01*
X117295885Y-63327089D01*
X117363037Y-63368240D01*
X117367607Y-63370133D01*
X117367611Y-63370135D01*
X117577833Y-63457211D01*
X117582406Y-63459105D01*
X117662609Y-63478360D01*
X117808476Y-63513380D01*
X117808482Y-63513381D01*
X117813289Y-63514535D01*
X118050000Y-63533165D01*
X118286711Y-63514535D01*
X118291518Y-63513381D01*
X118291524Y-63513380D01*
X118437391Y-63478360D01*
X118517594Y-63459105D01*
X118522167Y-63457211D01*
X118732389Y-63370135D01*
X118732393Y-63370133D01*
X118736963Y-63368240D01*
X118804115Y-63327089D01*
X118935202Y-63246759D01*
X118935208Y-63246755D01*
X118939416Y-63244176D01*
X119119969Y-63089969D01*
X119274176Y-62909416D01*
X119276755Y-62905208D01*
X119276759Y-62905202D01*
X119395654Y-62711183D01*
X119398240Y-62706963D01*
X119401519Y-62699048D01*
X119487211Y-62492167D01*
X119487212Y-62492165D01*
X119489105Y-62487594D01*
X119521873Y-62351107D01*
X119543380Y-62261524D01*
X119543381Y-62261518D01*
X119544535Y-62256711D01*
X119563165Y-62020000D01*
X123036835Y-62020000D01*
X123055465Y-62256711D01*
X123056619Y-62261518D01*
X123056620Y-62261524D01*
X123078127Y-62351107D01*
X123110895Y-62487594D01*
X123112788Y-62492165D01*
X123112789Y-62492167D01*
X123198482Y-62699048D01*
X123201760Y-62706963D01*
X123204346Y-62711183D01*
X123323241Y-62905202D01*
X123323245Y-62905208D01*
X123325824Y-62909416D01*
X123480031Y-63089969D01*
X123660584Y-63244176D01*
X123664792Y-63246755D01*
X123664798Y-63246759D01*
X123795885Y-63327089D01*
X123863037Y-63368240D01*
X123867607Y-63370133D01*
X123867611Y-63370135D01*
X124077833Y-63457211D01*
X124082406Y-63459105D01*
X124162609Y-63478360D01*
X124308476Y-63513380D01*
X124308482Y-63513381D01*
X124313289Y-63514535D01*
X124550000Y-63533165D01*
X124786711Y-63514535D01*
X124791518Y-63513381D01*
X124791524Y-63513380D01*
X124937391Y-63478360D01*
X125017594Y-63459105D01*
X125022167Y-63457211D01*
X125232389Y-63370135D01*
X125232393Y-63370133D01*
X125236963Y-63368240D01*
X125304115Y-63327089D01*
X125435202Y-63246759D01*
X125435208Y-63246755D01*
X125439416Y-63244176D01*
X125619969Y-63089969D01*
X125774176Y-62909416D01*
X125776755Y-62905208D01*
X125776759Y-62905202D01*
X125895654Y-62711183D01*
X125898240Y-62706963D01*
X125900135Y-62702389D01*
X125902381Y-62697980D01*
X125904478Y-62699048D01*
X125942861Y-62651312D01*
X126010201Y-62628818D01*
X126079011Y-62646302D01*
X126127445Y-62698211D01*
X126140144Y-62767902D01*
X126138545Y-62783121D01*
X126136771Y-62800000D01*
X126137461Y-62806565D01*
X126142776Y-62857128D01*
X126155635Y-62979475D01*
X126211401Y-63151107D01*
X126301633Y-63307393D01*
X126306051Y-63312300D01*
X126306052Y-63312301D01*
X126417965Y-63436593D01*
X126422387Y-63441504D01*
X126427729Y-63445385D01*
X126427731Y-63445387D01*
X126522905Y-63514535D01*
X126568385Y-63547578D01*
X126574413Y-63550262D01*
X126574415Y-63550263D01*
X126727217Y-63618295D01*
X126733248Y-63620980D01*
X126821508Y-63639740D01*
X126903311Y-63657128D01*
X126903315Y-63657128D01*
X126909768Y-63658500D01*
X127090232Y-63658500D01*
X127096685Y-63657128D01*
X127096689Y-63657128D01*
X127178492Y-63639740D01*
X127266752Y-63620980D01*
X127272783Y-63618295D01*
X127425585Y-63550263D01*
X127425587Y-63550262D01*
X127431615Y-63547578D01*
X127477095Y-63514535D01*
X127572269Y-63445387D01*
X127572271Y-63445385D01*
X127577613Y-63441504D01*
X127582035Y-63436593D01*
X127693948Y-63312301D01*
X127693949Y-63312300D01*
X127698367Y-63307393D01*
X127788599Y-63151107D01*
X127844365Y-62979475D01*
X127857225Y-62857128D01*
X127862539Y-62806565D01*
X127863229Y-62800000D01*
X127844365Y-62620525D01*
X127788599Y-62448893D01*
X127698367Y-62292607D01*
X127667654Y-62258496D01*
X127582035Y-62163407D01*
X127582034Y-62163406D01*
X127577613Y-62158496D01*
X127565558Y-62149737D01*
X127436957Y-62056303D01*
X127436956Y-62056302D01*
X127431615Y-62052422D01*
X127425587Y-62049738D01*
X127425585Y-62049737D01*
X127272783Y-61981705D01*
X127272781Y-61981705D01*
X127266752Y-61979020D01*
X127168410Y-61958117D01*
X127096689Y-61942872D01*
X127096685Y-61942872D01*
X127090232Y-61941500D01*
X126909768Y-61941500D01*
X126903315Y-61942872D01*
X126903311Y-61942872D01*
X126831590Y-61958117D01*
X126733248Y-61979020D01*
X126727219Y-61981704D01*
X126727217Y-61981705D01*
X126574416Y-62049737D01*
X126574414Y-62049738D01*
X126568386Y-62052422D01*
X126563045Y-62056302D01*
X126563044Y-62056303D01*
X126427731Y-62154613D01*
X126427729Y-62154615D01*
X126422387Y-62158496D01*
X126417966Y-62163406D01*
X126417965Y-62163407D01*
X126332347Y-62258496D01*
X126301633Y-62292607D01*
X126278883Y-62332011D01*
X126227502Y-62381003D01*
X126157789Y-62394440D01*
X126091878Y-62368053D01*
X126050695Y-62310221D01*
X126045979Y-62256825D01*
X126044535Y-62256711D01*
X126062777Y-62024930D01*
X126063165Y-62020000D01*
X126044535Y-61783289D01*
X126010896Y-61643170D01*
X125990260Y-61557218D01*
X125989105Y-61552406D01*
X125910820Y-61363407D01*
X125900135Y-61337611D01*
X125900133Y-61337607D01*
X125898240Y-61333037D01*
X125890573Y-61320525D01*
X125776759Y-61134798D01*
X125776755Y-61134792D01*
X125774176Y-61130584D01*
X125619969Y-60950031D01*
X125439416Y-60795824D01*
X125435208Y-60793245D01*
X125435202Y-60793241D01*
X125241183Y-60674346D01*
X125236963Y-60671760D01*
X125232393Y-60669867D01*
X125232389Y-60669865D01*
X125022167Y-60582789D01*
X125022165Y-60582788D01*
X125017594Y-60580895D01*
X124937391Y-60561640D01*
X124791524Y-60526620D01*
X124791518Y-60526619D01*
X124786711Y-60525465D01*
X124550000Y-60506835D01*
X124313289Y-60525465D01*
X124308482Y-60526619D01*
X124308476Y-60526620D01*
X124162609Y-60561640D01*
X124082406Y-60580895D01*
X124077835Y-60582788D01*
X124077833Y-60582789D01*
X123867611Y-60669865D01*
X123867607Y-60669867D01*
X123863037Y-60671760D01*
X123858817Y-60674346D01*
X123664798Y-60793241D01*
X123664792Y-60793245D01*
X123660584Y-60795824D01*
X123480031Y-60950031D01*
X123325824Y-61130584D01*
X123323245Y-61134792D01*
X123323241Y-61134798D01*
X123209427Y-61320525D01*
X123201760Y-61333037D01*
X123199867Y-61337607D01*
X123199865Y-61337611D01*
X123189180Y-61363407D01*
X123110895Y-61552406D01*
X123109740Y-61557218D01*
X123089105Y-61643170D01*
X123055465Y-61783289D01*
X123036835Y-62020000D01*
X119563165Y-62020000D01*
X119544535Y-61783289D01*
X119510896Y-61643170D01*
X119490260Y-61557218D01*
X119489105Y-61552406D01*
X119410820Y-61363407D01*
X119400135Y-61337611D01*
X119400133Y-61337607D01*
X119398240Y-61333037D01*
X119390573Y-61320525D01*
X119276759Y-61134798D01*
X119276755Y-61134792D01*
X119274176Y-61130584D01*
X119119969Y-60950031D01*
X118939416Y-60795824D01*
X118935208Y-60793245D01*
X118935202Y-60793241D01*
X118741183Y-60674346D01*
X118736963Y-60671760D01*
X118732393Y-60669867D01*
X118732389Y-60669865D01*
X118522167Y-60582789D01*
X118522165Y-60582788D01*
X118517594Y-60580895D01*
X118437391Y-60561640D01*
X118291524Y-60526620D01*
X118291518Y-60526619D01*
X118286711Y-60525465D01*
X118050000Y-60506835D01*
X117813289Y-60525465D01*
X117808482Y-60526619D01*
X117808476Y-60526620D01*
X117662609Y-60561640D01*
X117582406Y-60580895D01*
X117577835Y-60582788D01*
X117577833Y-60582789D01*
X117367611Y-60669865D01*
X117367607Y-60669867D01*
X117363037Y-60671760D01*
X117358817Y-60674346D01*
X117164798Y-60793241D01*
X117164792Y-60793245D01*
X117160584Y-60795824D01*
X116980031Y-60950031D01*
X116825824Y-61130584D01*
X116823245Y-61134792D01*
X116823241Y-61134798D01*
X116741933Y-61267481D01*
X116689285Y-61315112D01*
X116619243Y-61326719D01*
X116554046Y-61298616D01*
X116514392Y-61239725D01*
X116508500Y-61201646D01*
X116508500Y-59000000D01*
X119136771Y-59000000D01*
X119155635Y-59179475D01*
X119211401Y-59351107D01*
X119301633Y-59507393D01*
X119306051Y-59512300D01*
X119306052Y-59512301D01*
X119347650Y-59558500D01*
X119422387Y-59641504D01*
X119427729Y-59645385D01*
X119427731Y-59645387D01*
X119563043Y-59743697D01*
X119568385Y-59747578D01*
X119574413Y-59750262D01*
X119574415Y-59750263D01*
X119669521Y-59792607D01*
X119733248Y-59820980D01*
X119821508Y-59839740D01*
X119903311Y-59857128D01*
X119903315Y-59857128D01*
X119909768Y-59858500D01*
X120090232Y-59858500D01*
X120096685Y-59857128D01*
X120096689Y-59857128D01*
X120178492Y-59839740D01*
X120266752Y-59820980D01*
X120330479Y-59792607D01*
X120425585Y-59750263D01*
X120425587Y-59750262D01*
X120431615Y-59747578D01*
X120436957Y-59743697D01*
X120572269Y-59645387D01*
X120572271Y-59645385D01*
X120577613Y-59641504D01*
X120652350Y-59558500D01*
X120693948Y-59512301D01*
X120693949Y-59512300D01*
X120698367Y-59507393D01*
X120788599Y-59351107D01*
X120844365Y-59179475D01*
X120863229Y-59000000D01*
X120844365Y-58820525D01*
X120840671Y-58809154D01*
X120805205Y-58700000D01*
X136236771Y-58700000D01*
X136255635Y-58879475D01*
X136311401Y-59051107D01*
X136401633Y-59207393D01*
X136522387Y-59341504D01*
X136527729Y-59345385D01*
X136527731Y-59345387D01*
X136663043Y-59443697D01*
X136668385Y-59447578D01*
X136674413Y-59450262D01*
X136674415Y-59450263D01*
X136827217Y-59518295D01*
X136833248Y-59520980D01*
X136921508Y-59539740D01*
X137003311Y-59557128D01*
X137003315Y-59557128D01*
X137009768Y-59558500D01*
X137190232Y-59558500D01*
X137196685Y-59557128D01*
X137196689Y-59557128D01*
X137278492Y-59539740D01*
X137366752Y-59520980D01*
X137372783Y-59518295D01*
X137525585Y-59450263D01*
X137525587Y-59450262D01*
X137531615Y-59447578D01*
X137536957Y-59443697D01*
X137672269Y-59345387D01*
X137672271Y-59345385D01*
X137677613Y-59341504D01*
X137798367Y-59207393D01*
X137888599Y-59051107D01*
X137905204Y-59000000D01*
X157136771Y-59000000D01*
X157155635Y-59179475D01*
X157211401Y-59351107D01*
X157301633Y-59507393D01*
X157306051Y-59512300D01*
X157306052Y-59512301D01*
X157347650Y-59558500D01*
X157422387Y-59641504D01*
X157427729Y-59645385D01*
X157427731Y-59645387D01*
X157563043Y-59743697D01*
X157568385Y-59747578D01*
X157574413Y-59750262D01*
X157574415Y-59750263D01*
X157669521Y-59792607D01*
X157733248Y-59820980D01*
X157821508Y-59839740D01*
X157903311Y-59857128D01*
X157903315Y-59857128D01*
X157909768Y-59858500D01*
X158090232Y-59858500D01*
X158096685Y-59857128D01*
X158096689Y-59857128D01*
X158178492Y-59839740D01*
X158266752Y-59820980D01*
X158330479Y-59792607D01*
X158425585Y-59750263D01*
X158425587Y-59750262D01*
X158431615Y-59747578D01*
X158436957Y-59743697D01*
X158572269Y-59645387D01*
X158572271Y-59645385D01*
X158577613Y-59641504D01*
X158652350Y-59558500D01*
X158693948Y-59512301D01*
X158693949Y-59512300D01*
X158698367Y-59507393D01*
X158788599Y-59351107D01*
X158844365Y-59179475D01*
X158863229Y-59000000D01*
X158850510Y-58878991D01*
X158863282Y-58809154D01*
X158911784Y-58757307D01*
X158924574Y-58750713D01*
X158925583Y-58750264D01*
X158925586Y-58750262D01*
X158931615Y-58747578D01*
X158936957Y-58743697D01*
X159072269Y-58645387D01*
X159072271Y-58645385D01*
X159077613Y-58641504D01*
X159198367Y-58507393D01*
X159288599Y-58351107D01*
X159321683Y-58249284D01*
X159342325Y-58185754D01*
X159342325Y-58185753D01*
X159344365Y-58179475D01*
X159363229Y-58000000D01*
X162386771Y-58000000D01*
X162405635Y-58179475D01*
X162407675Y-58185753D01*
X162407675Y-58185754D01*
X162428317Y-58249284D01*
X162461401Y-58351107D01*
X162551633Y-58507393D01*
X162672387Y-58641504D01*
X162677729Y-58645385D01*
X162677731Y-58645387D01*
X162813043Y-58743697D01*
X162818385Y-58747578D01*
X162824413Y-58750262D01*
X162824415Y-58750263D01*
X162956686Y-58809154D01*
X162983248Y-58820980D01*
X163071508Y-58839740D01*
X163153311Y-58857128D01*
X163153315Y-58857128D01*
X163159768Y-58858500D01*
X163340232Y-58858500D01*
X163346685Y-58857128D01*
X163346689Y-58857128D01*
X163428492Y-58839740D01*
X163516752Y-58820980D01*
X163543314Y-58809154D01*
X163675585Y-58750263D01*
X163675587Y-58750262D01*
X163681615Y-58747578D01*
X163686957Y-58743697D01*
X163822269Y-58645387D01*
X163822271Y-58645385D01*
X163827613Y-58641504D01*
X163948367Y-58507393D01*
X164038599Y-58351107D01*
X164071683Y-58249284D01*
X164092325Y-58185754D01*
X164092325Y-58185753D01*
X164094365Y-58179475D01*
X164113229Y-58000000D01*
X164105068Y-57922352D01*
X164095055Y-57827089D01*
X164095055Y-57827088D01*
X164094365Y-57820525D01*
X164073670Y-57756830D01*
X164040641Y-57655178D01*
X164038599Y-57648893D01*
X163948367Y-57492607D01*
X163870895Y-57406565D01*
X163832035Y-57363407D01*
X163832034Y-57363406D01*
X163827613Y-57358496D01*
X163727493Y-57285754D01*
X163686957Y-57256303D01*
X163686956Y-57256302D01*
X163681615Y-57252422D01*
X163675587Y-57249738D01*
X163675585Y-57249737D01*
X163522783Y-57181705D01*
X163522781Y-57181705D01*
X163516752Y-57179020D01*
X163428492Y-57160260D01*
X163346689Y-57142872D01*
X163346685Y-57142872D01*
X163340232Y-57141500D01*
X163159768Y-57141500D01*
X163153315Y-57142872D01*
X163153311Y-57142872D01*
X163071508Y-57160260D01*
X162983248Y-57179020D01*
X162977219Y-57181704D01*
X162977217Y-57181705D01*
X162824416Y-57249737D01*
X162824414Y-57249738D01*
X162818386Y-57252422D01*
X162813045Y-57256302D01*
X162813044Y-57256303D01*
X162677731Y-57354613D01*
X162677729Y-57354615D01*
X162672387Y-57358496D01*
X162667966Y-57363406D01*
X162667965Y-57363407D01*
X162629106Y-57406565D01*
X162551633Y-57492607D01*
X162461401Y-57648893D01*
X162459359Y-57655178D01*
X162426331Y-57756830D01*
X162405635Y-57820525D01*
X162404945Y-57827088D01*
X162404945Y-57827089D01*
X162394932Y-57922352D01*
X162386771Y-58000000D01*
X159363229Y-58000000D01*
X159355068Y-57922352D01*
X159345055Y-57827089D01*
X159345055Y-57827088D01*
X159344365Y-57820525D01*
X159323670Y-57756830D01*
X159290641Y-57655178D01*
X159288599Y-57648893D01*
X159198367Y-57492607D01*
X159120895Y-57406565D01*
X159082035Y-57363407D01*
X159082034Y-57363406D01*
X159077613Y-57358496D01*
X158977493Y-57285754D01*
X158936957Y-57256303D01*
X158936956Y-57256302D01*
X158931615Y-57252422D01*
X158925587Y-57249738D01*
X158925585Y-57249737D01*
X158772783Y-57181705D01*
X158772781Y-57181705D01*
X158766752Y-57179020D01*
X158678492Y-57160260D01*
X158596689Y-57142872D01*
X158596685Y-57142872D01*
X158590232Y-57141500D01*
X158409768Y-57141500D01*
X158403315Y-57142872D01*
X158403311Y-57142872D01*
X158321508Y-57160260D01*
X158233248Y-57179020D01*
X158227219Y-57181704D01*
X158227217Y-57181705D01*
X158074416Y-57249737D01*
X158074414Y-57249738D01*
X158068386Y-57252422D01*
X158063045Y-57256302D01*
X158063044Y-57256303D01*
X157927731Y-57354613D01*
X157927729Y-57354615D01*
X157922387Y-57358496D01*
X157917966Y-57363406D01*
X157917965Y-57363407D01*
X157879106Y-57406565D01*
X157801633Y-57492607D01*
X157711401Y-57648893D01*
X157709359Y-57655178D01*
X157676331Y-57756830D01*
X157655635Y-57820525D01*
X157654945Y-57827088D01*
X157654945Y-57827089D01*
X157644932Y-57922352D01*
X157636771Y-58000000D01*
X157643436Y-58063407D01*
X157649490Y-58121008D01*
X157636718Y-58190846D01*
X157588216Y-58242693D01*
X157575432Y-58249284D01*
X157574423Y-58249733D01*
X157574414Y-58249738D01*
X157568386Y-58252422D01*
X157563045Y-58256302D01*
X157563044Y-58256303D01*
X157427731Y-58354613D01*
X157427729Y-58354615D01*
X157422387Y-58358496D01*
X157301633Y-58492607D01*
X157211401Y-58648893D01*
X157209359Y-58655178D01*
X157159330Y-58809154D01*
X157155635Y-58820525D01*
X157136771Y-59000000D01*
X137905204Y-59000000D01*
X137944365Y-58879475D01*
X137963229Y-58700000D01*
X137944365Y-58520525D01*
X137888599Y-58348893D01*
X137798367Y-58192607D01*
X137753586Y-58142872D01*
X137682035Y-58063407D01*
X137682034Y-58063406D01*
X137677613Y-58058496D01*
X137659571Y-58045387D01*
X137536957Y-57956303D01*
X137536956Y-57956302D01*
X137531615Y-57952422D01*
X137525587Y-57949738D01*
X137525585Y-57949737D01*
X137372783Y-57881705D01*
X137372781Y-57881705D01*
X137366752Y-57879020D01*
X137278492Y-57860260D01*
X137196689Y-57842872D01*
X137196685Y-57842872D01*
X137190232Y-57841500D01*
X137009768Y-57841500D01*
X137003315Y-57842872D01*
X137003311Y-57842872D01*
X136921508Y-57860260D01*
X136833248Y-57879020D01*
X136827219Y-57881704D01*
X136827217Y-57881705D01*
X136674416Y-57949737D01*
X136674414Y-57949738D01*
X136668386Y-57952422D01*
X136663045Y-57956302D01*
X136663044Y-57956303D01*
X136527731Y-58054613D01*
X136527729Y-58054615D01*
X136522387Y-58058496D01*
X136517966Y-58063406D01*
X136517965Y-58063407D01*
X136446415Y-58142872D01*
X136401633Y-58192607D01*
X136311401Y-58348893D01*
X136255635Y-58520525D01*
X136236771Y-58700000D01*
X120805205Y-58700000D01*
X120790641Y-58655178D01*
X120788599Y-58648893D01*
X120698367Y-58492607D01*
X120577613Y-58358496D01*
X120558793Y-58344822D01*
X120436957Y-58256303D01*
X120436956Y-58256302D01*
X120431615Y-58252422D01*
X120425587Y-58249738D01*
X120425585Y-58249737D01*
X120272783Y-58181705D01*
X120272781Y-58181705D01*
X120266752Y-58179020D01*
X120178492Y-58160260D01*
X120096689Y-58142872D01*
X120096685Y-58142872D01*
X120090232Y-58141500D01*
X119909768Y-58141500D01*
X119903315Y-58142872D01*
X119903311Y-58142872D01*
X119821508Y-58160260D01*
X119733248Y-58179020D01*
X119727219Y-58181704D01*
X119727217Y-58181705D01*
X119574416Y-58249737D01*
X119574414Y-58249738D01*
X119568386Y-58252422D01*
X119563045Y-58256302D01*
X119563044Y-58256303D01*
X119427731Y-58354613D01*
X119427729Y-58354615D01*
X119422387Y-58358496D01*
X119301633Y-58492607D01*
X119211401Y-58648893D01*
X119209359Y-58655178D01*
X119159330Y-58809154D01*
X119155635Y-58820525D01*
X119136771Y-59000000D01*
X116508500Y-59000000D01*
X116508500Y-57400000D01*
X122636771Y-57400000D01*
X122655635Y-57579475D01*
X122657675Y-57585753D01*
X122657675Y-57585754D01*
X122678190Y-57648893D01*
X122711401Y-57751107D01*
X122801633Y-57907393D01*
X122806051Y-57912300D01*
X122806052Y-57912301D01*
X122885017Y-58000000D01*
X122922387Y-58041504D01*
X122927729Y-58045385D01*
X122927731Y-58045387D01*
X123063043Y-58143697D01*
X123068385Y-58147578D01*
X123074413Y-58150262D01*
X123074415Y-58150263D01*
X123165566Y-58190846D01*
X123233248Y-58220980D01*
X123321508Y-58239740D01*
X123403311Y-58257128D01*
X123403315Y-58257128D01*
X123409768Y-58258500D01*
X123590232Y-58258500D01*
X123596685Y-58257128D01*
X123596689Y-58257128D01*
X123678492Y-58239740D01*
X123766752Y-58220980D01*
X123834434Y-58190846D01*
X123925585Y-58150263D01*
X123925587Y-58150262D01*
X123931615Y-58147578D01*
X123936957Y-58143697D01*
X124072269Y-58045387D01*
X124072271Y-58045385D01*
X124077613Y-58041504D01*
X124114983Y-58000000D01*
X124193948Y-57912301D01*
X124193949Y-57912300D01*
X124198367Y-57907393D01*
X124288599Y-57751107D01*
X124321810Y-57648893D01*
X124342325Y-57585754D01*
X124342325Y-57585753D01*
X124344365Y-57579475D01*
X124363229Y-57400000D01*
X124344365Y-57220525D01*
X124305204Y-57100000D01*
X137836771Y-57100000D01*
X137837461Y-57106565D01*
X137852792Y-57252422D01*
X137855635Y-57279475D01*
X137911401Y-57451107D01*
X138001633Y-57607393D01*
X138122387Y-57741504D01*
X138127729Y-57745385D01*
X138127731Y-57745387D01*
X138263043Y-57843697D01*
X138268385Y-57847578D01*
X138274413Y-57850262D01*
X138274415Y-57850263D01*
X138427217Y-57918295D01*
X138433248Y-57920980D01*
X138521508Y-57939740D01*
X138603311Y-57957128D01*
X138603315Y-57957128D01*
X138609768Y-57958500D01*
X138790232Y-57958500D01*
X138796685Y-57957128D01*
X138796689Y-57957128D01*
X138878492Y-57939740D01*
X138966752Y-57920980D01*
X138972783Y-57918295D01*
X139125585Y-57850263D01*
X139125587Y-57850262D01*
X139131615Y-57847578D01*
X139136957Y-57843697D01*
X139272269Y-57745387D01*
X139272271Y-57745385D01*
X139277613Y-57741504D01*
X139398367Y-57607393D01*
X139488599Y-57451107D01*
X139544365Y-57279475D01*
X139547209Y-57252422D01*
X139562539Y-57106565D01*
X139563229Y-57100000D01*
X139544365Y-56920525D01*
X139488599Y-56748893D01*
X139398367Y-56592607D01*
X139353586Y-56542872D01*
X139282035Y-56463407D01*
X139282034Y-56463406D01*
X139277613Y-56458496D01*
X139266282Y-56450263D01*
X139136957Y-56356303D01*
X139136956Y-56356302D01*
X139131615Y-56352422D01*
X139125587Y-56349738D01*
X139125585Y-56349737D01*
X138972783Y-56281705D01*
X138972781Y-56281705D01*
X138966752Y-56279020D01*
X138878492Y-56260260D01*
X138796689Y-56242872D01*
X138796685Y-56242872D01*
X138790232Y-56241500D01*
X138609768Y-56241500D01*
X138603315Y-56242872D01*
X138603311Y-56242872D01*
X138521508Y-56260260D01*
X138433248Y-56279020D01*
X138427219Y-56281704D01*
X138427217Y-56281705D01*
X138274416Y-56349737D01*
X138274414Y-56349738D01*
X138268386Y-56352422D01*
X138263045Y-56356302D01*
X138263044Y-56356303D01*
X138127731Y-56454613D01*
X138127729Y-56454615D01*
X138122387Y-56458496D01*
X138117966Y-56463406D01*
X138117965Y-56463407D01*
X138046415Y-56542872D01*
X138001633Y-56592607D01*
X137911401Y-56748893D01*
X137855635Y-56920525D01*
X137836771Y-57100000D01*
X124305204Y-57100000D01*
X124288599Y-57048893D01*
X124198367Y-56892607D01*
X124077613Y-56758496D01*
X123931615Y-56652422D01*
X123925587Y-56649738D01*
X123925585Y-56649737D01*
X123772783Y-56581705D01*
X123772781Y-56581705D01*
X123766752Y-56579020D01*
X123663757Y-56557128D01*
X123596689Y-56542872D01*
X123596685Y-56542872D01*
X123590232Y-56541500D01*
X123409768Y-56541500D01*
X123403315Y-56542872D01*
X123403311Y-56542872D01*
X123336243Y-56557128D01*
X123233248Y-56579020D01*
X123227219Y-56581704D01*
X123227217Y-56581705D01*
X123074416Y-56649737D01*
X123074414Y-56649738D01*
X123068386Y-56652422D01*
X123063045Y-56656302D01*
X123063044Y-56656303D01*
X122927731Y-56754613D01*
X122927729Y-56754615D01*
X122922387Y-56758496D01*
X122801633Y-56892607D01*
X122711401Y-57048893D01*
X122655635Y-57220525D01*
X122636771Y-57400000D01*
X116508500Y-57400000D01*
X116508500Y-55000000D01*
X119136771Y-55000000D01*
X119155635Y-55179475D01*
X119157675Y-55185753D01*
X119157675Y-55185754D01*
X119175789Y-55241504D01*
X119211401Y-55351107D01*
X119301633Y-55507393D01*
X119422387Y-55641504D01*
X119427729Y-55645385D01*
X119427731Y-55645387D01*
X119563043Y-55743697D01*
X119568385Y-55747578D01*
X119574413Y-55750262D01*
X119574415Y-55750263D01*
X119601453Y-55762301D01*
X119733248Y-55820980D01*
X119821508Y-55839740D01*
X119903311Y-55857128D01*
X119903315Y-55857128D01*
X119909768Y-55858500D01*
X120090232Y-55858500D01*
X120096685Y-55857128D01*
X120096689Y-55857128D01*
X120178492Y-55839740D01*
X120266752Y-55820980D01*
X120398547Y-55762301D01*
X120425585Y-55750263D01*
X120425587Y-55750262D01*
X120431615Y-55747578D01*
X120436957Y-55743697D01*
X120497101Y-55700000D01*
X124136771Y-55700000D01*
X124155635Y-55879475D01*
X124211401Y-56051107D01*
X124214704Y-56056829D01*
X124214705Y-56056830D01*
X124222875Y-56070980D01*
X124301633Y-56207393D01*
X124422387Y-56341504D01*
X124427729Y-56345385D01*
X124427731Y-56345387D01*
X124437414Y-56352422D01*
X124568385Y-56447578D01*
X124574413Y-56450262D01*
X124574415Y-56450263D01*
X124592907Y-56458496D01*
X124733248Y-56520980D01*
X124821508Y-56539740D01*
X124903311Y-56557128D01*
X124903315Y-56557128D01*
X124909768Y-56558500D01*
X125090232Y-56558500D01*
X125096685Y-56557128D01*
X125096689Y-56557128D01*
X125178492Y-56539740D01*
X125266752Y-56520980D01*
X125407093Y-56458496D01*
X125425585Y-56450263D01*
X125425587Y-56450262D01*
X125431615Y-56447578D01*
X125562586Y-56352422D01*
X125572269Y-56345387D01*
X125572271Y-56345385D01*
X125577613Y-56341504D01*
X125698367Y-56207393D01*
X125777125Y-56070980D01*
X125785295Y-56056830D01*
X125785296Y-56056829D01*
X125788599Y-56051107D01*
X125844365Y-55879475D01*
X125863229Y-55700000D01*
X125844365Y-55520525D01*
X125788599Y-55348893D01*
X125698367Y-55192607D01*
X125577613Y-55058496D01*
X125506137Y-55006565D01*
X125436957Y-54956303D01*
X125436956Y-54956302D01*
X125431615Y-54952422D01*
X125425587Y-54949738D01*
X125425585Y-54949737D01*
X125272783Y-54881705D01*
X125272781Y-54881705D01*
X125266752Y-54879020D01*
X125178492Y-54860260D01*
X125096689Y-54842872D01*
X125096685Y-54842872D01*
X125090232Y-54841500D01*
X124909768Y-54841500D01*
X124903315Y-54842872D01*
X124903311Y-54842872D01*
X124821508Y-54860260D01*
X124733248Y-54879020D01*
X124727219Y-54881704D01*
X124727217Y-54881705D01*
X124574416Y-54949737D01*
X124574414Y-54949738D01*
X124568386Y-54952422D01*
X124563045Y-54956302D01*
X124563044Y-54956303D01*
X124427731Y-55054613D01*
X124427729Y-55054615D01*
X124422387Y-55058496D01*
X124301633Y-55192607D01*
X124211401Y-55348893D01*
X124155635Y-55520525D01*
X124136771Y-55700000D01*
X120497101Y-55700000D01*
X120572269Y-55645387D01*
X120572271Y-55645385D01*
X120577613Y-55641504D01*
X120698367Y-55507393D01*
X120788599Y-55351107D01*
X120824211Y-55241504D01*
X120842325Y-55185754D01*
X120842325Y-55185753D01*
X120844365Y-55179475D01*
X120863229Y-55000000D01*
X120855068Y-54922352D01*
X120845055Y-54827089D01*
X120845055Y-54827088D01*
X120844365Y-54820525D01*
X120828895Y-54772911D01*
X120790641Y-54655178D01*
X120788599Y-54648893D01*
X120779933Y-54633882D01*
X120706274Y-54506303D01*
X120698367Y-54492607D01*
X120639375Y-54427089D01*
X120582035Y-54363407D01*
X120582034Y-54363406D01*
X120577613Y-54358496D01*
X120477493Y-54285754D01*
X120436957Y-54256303D01*
X120436956Y-54256302D01*
X120431615Y-54252422D01*
X120425587Y-54249738D01*
X120425585Y-54249737D01*
X120272783Y-54181705D01*
X120272781Y-54181705D01*
X120266752Y-54179020D01*
X120178492Y-54160260D01*
X120096689Y-54142872D01*
X120096685Y-54142872D01*
X120090232Y-54141500D01*
X119909768Y-54141500D01*
X119903315Y-54142872D01*
X119903311Y-54142872D01*
X119821508Y-54160260D01*
X119733248Y-54179020D01*
X119727219Y-54181704D01*
X119727217Y-54181705D01*
X119574416Y-54249737D01*
X119574414Y-54249738D01*
X119568386Y-54252422D01*
X119563045Y-54256302D01*
X119563044Y-54256303D01*
X119427731Y-54354613D01*
X119427729Y-54354615D01*
X119422387Y-54358496D01*
X119417966Y-54363406D01*
X119417965Y-54363407D01*
X119360626Y-54427089D01*
X119301633Y-54492607D01*
X119293726Y-54506303D01*
X119220068Y-54633882D01*
X119211401Y-54648893D01*
X119209359Y-54655178D01*
X119171106Y-54772911D01*
X119155635Y-54820525D01*
X119154945Y-54827088D01*
X119154945Y-54827089D01*
X119144932Y-54922352D01*
X119136771Y-55000000D01*
X116508500Y-55000000D01*
X116508500Y-54100000D01*
X121336771Y-54100000D01*
X121337461Y-54106565D01*
X121352792Y-54252422D01*
X121355635Y-54279475D01*
X121411401Y-54451107D01*
X121414704Y-54456829D01*
X121414705Y-54456830D01*
X121445709Y-54510530D01*
X121501633Y-54607393D01*
X121622387Y-54741504D01*
X121627729Y-54745385D01*
X121627731Y-54745387D01*
X121763043Y-54843697D01*
X121768385Y-54847578D01*
X121774413Y-54850262D01*
X121774415Y-54850263D01*
X121883640Y-54898893D01*
X121933248Y-54920980D01*
X122021508Y-54939740D01*
X122103311Y-54957128D01*
X122103315Y-54957128D01*
X122109768Y-54958500D01*
X122290232Y-54958500D01*
X122296685Y-54957128D01*
X122296689Y-54957128D01*
X122378492Y-54939740D01*
X122466752Y-54920980D01*
X122516360Y-54898893D01*
X122625585Y-54850263D01*
X122625587Y-54850262D01*
X122631615Y-54847578D01*
X122636957Y-54843697D01*
X122772269Y-54745387D01*
X122772271Y-54745385D01*
X122777613Y-54741504D01*
X122898367Y-54607393D01*
X122902635Y-54600000D01*
X153230521Y-54600000D01*
X153249385Y-54779475D01*
X153251425Y-54785753D01*
X153251425Y-54785754D01*
X153269538Y-54841500D01*
X153305151Y-54951107D01*
X153395383Y-55107393D01*
X153399801Y-55112300D01*
X153399802Y-55112301D01*
X153466951Y-55186877D01*
X153516137Y-55241504D01*
X153521479Y-55245385D01*
X153521481Y-55245387D01*
X153612885Y-55311796D01*
X153662135Y-55347578D01*
X153668163Y-55350262D01*
X153668165Y-55350263D01*
X153775404Y-55398009D01*
X153826998Y-55420980D01*
X153915258Y-55439740D01*
X153997061Y-55457128D01*
X153997065Y-55457128D01*
X154003518Y-55458500D01*
X154183982Y-55458500D01*
X154190435Y-55457128D01*
X154190439Y-55457128D01*
X154272242Y-55439740D01*
X154360502Y-55420980D01*
X154412096Y-55398009D01*
X154519335Y-55350263D01*
X154519337Y-55350262D01*
X154525365Y-55347578D01*
X154574615Y-55311796D01*
X154659670Y-55250000D01*
X160436771Y-55250000D01*
X160437461Y-55256565D01*
X160448000Y-55356830D01*
X160455635Y-55429475D01*
X160457675Y-55435753D01*
X160457675Y-55435754D01*
X160483178Y-55514246D01*
X160511401Y-55601107D01*
X160601633Y-55757393D01*
X160722387Y-55891504D01*
X160868385Y-55997578D01*
X160874413Y-56000262D01*
X160874415Y-56000263D01*
X161027217Y-56068295D01*
X161033248Y-56070980D01*
X161121508Y-56089740D01*
X161203311Y-56107128D01*
X161203315Y-56107128D01*
X161209768Y-56108500D01*
X161390232Y-56108500D01*
X161396685Y-56107128D01*
X161396689Y-56107128D01*
X161478492Y-56089740D01*
X161566752Y-56070980D01*
X161572783Y-56068295D01*
X161725585Y-56000263D01*
X161725587Y-56000262D01*
X161731615Y-55997578D01*
X161877613Y-55891504D01*
X161998367Y-55757393D01*
X162088599Y-55601107D01*
X162116822Y-55514246D01*
X162142325Y-55435754D01*
X162142325Y-55435753D01*
X162144365Y-55429475D01*
X162152001Y-55356830D01*
X162162539Y-55256565D01*
X162163229Y-55250000D01*
X162144365Y-55070525D01*
X162130271Y-55027146D01*
X162090641Y-54905178D01*
X162088599Y-54898893D01*
X162078676Y-54881705D01*
X162001668Y-54748325D01*
X161998367Y-54742607D01*
X161877613Y-54608496D01*
X161865920Y-54600000D01*
X161736957Y-54506303D01*
X161736956Y-54506302D01*
X161731615Y-54502422D01*
X161725587Y-54499738D01*
X161725585Y-54499737D01*
X161572783Y-54431705D01*
X161572781Y-54431705D01*
X161566752Y-54429020D01*
X161466001Y-54407605D01*
X161396689Y-54392872D01*
X161396685Y-54392872D01*
X161390232Y-54391500D01*
X161209768Y-54391500D01*
X161203315Y-54392872D01*
X161203311Y-54392872D01*
X161133999Y-54407605D01*
X161033248Y-54429020D01*
X161027219Y-54431704D01*
X161027217Y-54431705D01*
X160874416Y-54499737D01*
X160874414Y-54499738D01*
X160868386Y-54502422D01*
X160863045Y-54506302D01*
X160863044Y-54506303D01*
X160727731Y-54604613D01*
X160727729Y-54604615D01*
X160722387Y-54608496D01*
X160601633Y-54742607D01*
X160598332Y-54748325D01*
X160521325Y-54881705D01*
X160511401Y-54898893D01*
X160509359Y-54905178D01*
X160469730Y-55027146D01*
X160455635Y-55070525D01*
X160436771Y-55250000D01*
X154659670Y-55250000D01*
X154666019Y-55245387D01*
X154666021Y-55245385D01*
X154671363Y-55241504D01*
X154720549Y-55186877D01*
X154787698Y-55112301D01*
X154787699Y-55112300D01*
X154792117Y-55107393D01*
X154882349Y-54951107D01*
X154917962Y-54841500D01*
X154936075Y-54785754D01*
X154936075Y-54785753D01*
X154938115Y-54779475D01*
X154956979Y-54600000D01*
X154938115Y-54420525D01*
X154919557Y-54363407D01*
X154884391Y-54255178D01*
X154882349Y-54248893D01*
X154792117Y-54092607D01*
X154671363Y-53958496D01*
X154633699Y-53931131D01*
X164076860Y-53931131D01*
X164077157Y-53936283D01*
X164077157Y-53936287D01*
X164085888Y-54087699D01*
X164090903Y-54174671D01*
X164092040Y-54179717D01*
X164092041Y-54179723D01*
X164116223Y-54287027D01*
X164144533Y-54412647D01*
X164146475Y-54417429D01*
X164146476Y-54417433D01*
X164217943Y-54593435D01*
X164236311Y-54638669D01*
X164363772Y-54846666D01*
X164523492Y-55031053D01*
X164711183Y-55186877D01*
X164921804Y-55309953D01*
X165149698Y-55396978D01*
X165154764Y-55398009D01*
X165154765Y-55398009D01*
X165383667Y-55444580D01*
X165383671Y-55444580D01*
X165388746Y-55445613D01*
X165393922Y-55445803D01*
X165393924Y-55445803D01*
X165627363Y-55454363D01*
X165627367Y-55454363D01*
X165632527Y-55454552D01*
X165637647Y-55453896D01*
X165637649Y-55453896D01*
X165714377Y-55444067D01*
X165874494Y-55423555D01*
X165879443Y-55422070D01*
X165879449Y-55422069D01*
X166079337Y-55362099D01*
X166108150Y-55353455D01*
X166327219Y-55246134D01*
X166331424Y-55243134D01*
X166331430Y-55243131D01*
X166521614Y-55107474D01*
X166521616Y-55107472D01*
X166525818Y-55104475D01*
X166698614Y-54932281D01*
X166718090Y-54905178D01*
X166726718Y-54893170D01*
X166840966Y-54734177D01*
X166880010Y-54655178D01*
X166946756Y-54520126D01*
X166946757Y-54520124D01*
X166949050Y-54515484D01*
X166966871Y-54456830D01*
X167018462Y-54287027D01*
X167018463Y-54287021D01*
X167019966Y-54282075D01*
X167043072Y-54106565D01*
X167051370Y-54043538D01*
X167051370Y-54043534D01*
X167051807Y-54040217D01*
X167053584Y-53967500D01*
X167033596Y-53724376D01*
X166974167Y-53487780D01*
X166884563Y-53281705D01*
X166878954Y-53268805D01*
X166878952Y-53268802D01*
X166876894Y-53264068D01*
X166744390Y-53059248D01*
X166580212Y-52878819D01*
X166576161Y-52875620D01*
X166576157Y-52875616D01*
X166392825Y-52730829D01*
X166392821Y-52730827D01*
X166388770Y-52727627D01*
X166175205Y-52609733D01*
X166170336Y-52608009D01*
X166170332Y-52608007D01*
X165950127Y-52530028D01*
X165950123Y-52530027D01*
X165945252Y-52528302D01*
X165940159Y-52527395D01*
X165940156Y-52527394D01*
X165710177Y-52486428D01*
X165710171Y-52486427D01*
X165705088Y-52485522D01*
X165625380Y-52484548D01*
X165466332Y-52482605D01*
X165466330Y-52482605D01*
X165461162Y-52482542D01*
X165220024Y-52519441D01*
X164988150Y-52595229D01*
X164771769Y-52707870D01*
X164767636Y-52710973D01*
X164767633Y-52710975D01*
X164580825Y-52851235D01*
X164576690Y-52854340D01*
X164408153Y-53030704D01*
X164405239Y-53034976D01*
X164405238Y-53034977D01*
X164385719Y-53063591D01*
X164270684Y-53232226D01*
X164167974Y-53453495D01*
X164102783Y-53688567D01*
X164076860Y-53931131D01*
X154633699Y-53931131D01*
X154530707Y-53856303D01*
X154530706Y-53856302D01*
X154525365Y-53852422D01*
X154519337Y-53849738D01*
X154519335Y-53849737D01*
X154366533Y-53781705D01*
X154366531Y-53781705D01*
X154360502Y-53779020D01*
X154248333Y-53755178D01*
X154190439Y-53742872D01*
X154190435Y-53742872D01*
X154183982Y-53741500D01*
X154003518Y-53741500D01*
X153997065Y-53742872D01*
X153997061Y-53742872D01*
X153939167Y-53755178D01*
X153826998Y-53779020D01*
X153820969Y-53781704D01*
X153820967Y-53781705D01*
X153668166Y-53849737D01*
X153668164Y-53849738D01*
X153662136Y-53852422D01*
X153656795Y-53856302D01*
X153656794Y-53856303D01*
X153521481Y-53954613D01*
X153521479Y-53954615D01*
X153516137Y-53958496D01*
X153395383Y-54092607D01*
X153305151Y-54248893D01*
X153303109Y-54255178D01*
X153267944Y-54363407D01*
X153249385Y-54420525D01*
X153230521Y-54600000D01*
X122902635Y-54600000D01*
X122954291Y-54510530D01*
X122985295Y-54456830D01*
X122985296Y-54456829D01*
X122988599Y-54451107D01*
X123044365Y-54279475D01*
X123047209Y-54252422D01*
X123062539Y-54106565D01*
X123063229Y-54100000D01*
X123061936Y-54087699D01*
X123045055Y-53927089D01*
X123045055Y-53927088D01*
X123044365Y-53920525D01*
X122988599Y-53748893D01*
X122898367Y-53592607D01*
X122803981Y-53487780D01*
X122782035Y-53463407D01*
X122782034Y-53463406D01*
X122777613Y-53458496D01*
X122764274Y-53448804D01*
X122636957Y-53356303D01*
X122636956Y-53356302D01*
X122631615Y-53352422D01*
X122625587Y-53349738D01*
X122625585Y-53349737D01*
X122472783Y-53281705D01*
X122472781Y-53281705D01*
X122466752Y-53279020D01*
X122375999Y-53259730D01*
X122296689Y-53242872D01*
X122296685Y-53242872D01*
X122290232Y-53241500D01*
X122109768Y-53241500D01*
X122103315Y-53242872D01*
X122103311Y-53242872D01*
X122024001Y-53259730D01*
X121933248Y-53279020D01*
X121927219Y-53281704D01*
X121927217Y-53281705D01*
X121774416Y-53349737D01*
X121774414Y-53349738D01*
X121768386Y-53352422D01*
X121763045Y-53356302D01*
X121763044Y-53356303D01*
X121627731Y-53454613D01*
X121627729Y-53454615D01*
X121622387Y-53458496D01*
X121617966Y-53463406D01*
X121617965Y-53463407D01*
X121596020Y-53487780D01*
X121501633Y-53592607D01*
X121411401Y-53748893D01*
X121355635Y-53920525D01*
X121354945Y-53927088D01*
X121354945Y-53927089D01*
X121338064Y-54087699D01*
X121336771Y-54100000D01*
X116508500Y-54100000D01*
X116508500Y-51000000D01*
X119136771Y-51000000D01*
X119155635Y-51179475D01*
X119211401Y-51351107D01*
X119301633Y-51507393D01*
X119422387Y-51641504D01*
X119568385Y-51747578D01*
X119574413Y-51750262D01*
X119574415Y-51750263D01*
X119727217Y-51818295D01*
X119733248Y-51820980D01*
X119821508Y-51839740D01*
X119903311Y-51857128D01*
X119903315Y-51857128D01*
X119909768Y-51858500D01*
X120090232Y-51858500D01*
X120096685Y-51857128D01*
X120096689Y-51857128D01*
X120178492Y-51839740D01*
X120266752Y-51820980D01*
X120272783Y-51818295D01*
X120425585Y-51750263D01*
X120425587Y-51750262D01*
X120431615Y-51747578D01*
X120577613Y-51641504D01*
X120698367Y-51507393D01*
X120788599Y-51351107D01*
X120844365Y-51179475D01*
X120863229Y-51000000D01*
X120844365Y-50820525D01*
X120823670Y-50756830D01*
X120790641Y-50655178D01*
X120788599Y-50648893D01*
X120698367Y-50492607D01*
X120620895Y-50406565D01*
X120614984Y-50400000D01*
X131736771Y-50400000D01*
X131755635Y-50579475D01*
X131757675Y-50585753D01*
X131757675Y-50585754D01*
X131778190Y-50648893D01*
X131811401Y-50751107D01*
X131901633Y-50907393D01*
X131906051Y-50912300D01*
X131906052Y-50912301D01*
X131985017Y-51000000D01*
X132022387Y-51041504D01*
X132168385Y-51147578D01*
X132174413Y-51150262D01*
X132174415Y-51150263D01*
X132254129Y-51185754D01*
X132333248Y-51220980D01*
X132421508Y-51239740D01*
X132503311Y-51257128D01*
X132503315Y-51257128D01*
X132509768Y-51258500D01*
X132690232Y-51258500D01*
X132696685Y-51257128D01*
X132696689Y-51257128D01*
X132778492Y-51239740D01*
X132866752Y-51220980D01*
X132945871Y-51185754D01*
X133025585Y-51150263D01*
X133025587Y-51150262D01*
X133031615Y-51147578D01*
X133177613Y-51041504D01*
X133214983Y-51000000D01*
X133293948Y-50912301D01*
X133293949Y-50912300D01*
X133298367Y-50907393D01*
X133388599Y-50751107D01*
X133421810Y-50648893D01*
X133442325Y-50585754D01*
X133442325Y-50585753D01*
X133444365Y-50579475D01*
X133463229Y-50400000D01*
X133444365Y-50220525D01*
X133388599Y-50048893D01*
X133298367Y-49892607D01*
X133177613Y-49758496D01*
X133158793Y-49744822D01*
X133036957Y-49656303D01*
X133036956Y-49656302D01*
X133031615Y-49652422D01*
X133025587Y-49649738D01*
X133025585Y-49649737D01*
X132872783Y-49581705D01*
X132872781Y-49581705D01*
X132866752Y-49579020D01*
X132763757Y-49557128D01*
X132696689Y-49542872D01*
X132696685Y-49542872D01*
X132690232Y-49541500D01*
X132509768Y-49541500D01*
X132503315Y-49542872D01*
X132503311Y-49542872D01*
X132436243Y-49557128D01*
X132333248Y-49579020D01*
X132327219Y-49581704D01*
X132327217Y-49581705D01*
X132174416Y-49649737D01*
X132174414Y-49649738D01*
X132168386Y-49652422D01*
X132163045Y-49656302D01*
X132163044Y-49656303D01*
X132027731Y-49754613D01*
X132027729Y-49754615D01*
X132022387Y-49758496D01*
X131901633Y-49892607D01*
X131811401Y-50048893D01*
X131755635Y-50220525D01*
X131736771Y-50400000D01*
X120614984Y-50400000D01*
X120582035Y-50363407D01*
X120582034Y-50363406D01*
X120577613Y-50358496D01*
X120438093Y-50257128D01*
X120436957Y-50256303D01*
X120436956Y-50256302D01*
X120431615Y-50252422D01*
X120425587Y-50249738D01*
X120425585Y-50249737D01*
X120272783Y-50181705D01*
X120272781Y-50181705D01*
X120266752Y-50179020D01*
X120178492Y-50160260D01*
X120096689Y-50142872D01*
X120096685Y-50142872D01*
X120090232Y-50141500D01*
X119909768Y-50141500D01*
X119903315Y-50142872D01*
X119903311Y-50142872D01*
X119821508Y-50160260D01*
X119733248Y-50179020D01*
X119727219Y-50181704D01*
X119727217Y-50181705D01*
X119574416Y-50249737D01*
X119574414Y-50249738D01*
X119568386Y-50252422D01*
X119563045Y-50256302D01*
X119563044Y-50256303D01*
X119427731Y-50354613D01*
X119427729Y-50354615D01*
X119422387Y-50358496D01*
X119417966Y-50363406D01*
X119417965Y-50363407D01*
X119379106Y-50406565D01*
X119301633Y-50492607D01*
X119211401Y-50648893D01*
X119209359Y-50655178D01*
X119176331Y-50756830D01*
X119155635Y-50820525D01*
X119136771Y-51000000D01*
X116508500Y-51000000D01*
X116508500Y-49400000D01*
X139436771Y-49400000D01*
X139455635Y-49579475D01*
X139511401Y-49751107D01*
X139601633Y-49907393D01*
X139722387Y-50041504D01*
X139727729Y-50045385D01*
X139727731Y-50045387D01*
X139863043Y-50143697D01*
X139868385Y-50147578D01*
X139874413Y-50150262D01*
X139874415Y-50150263D01*
X139945035Y-50181705D01*
X140033248Y-50220980D01*
X140121508Y-50239740D01*
X140203311Y-50257128D01*
X140203315Y-50257128D01*
X140209768Y-50258500D01*
X140390232Y-50258500D01*
X140396685Y-50257128D01*
X140396689Y-50257128D01*
X140478492Y-50239740D01*
X140566752Y-50220980D01*
X140654965Y-50181705D01*
X140725585Y-50150263D01*
X140725587Y-50150262D01*
X140731615Y-50147578D01*
X140736957Y-50143697D01*
X140872269Y-50045387D01*
X140872271Y-50045385D01*
X140877613Y-50041504D01*
X140998367Y-49907393D01*
X141088599Y-49751107D01*
X141144365Y-49579475D01*
X141163229Y-49400000D01*
X141144365Y-49220525D01*
X141088599Y-49048893D01*
X140998367Y-48892607D01*
X140963512Y-48853896D01*
X140882035Y-48763407D01*
X140882034Y-48763406D01*
X140877613Y-48758496D01*
X140867543Y-48751179D01*
X140797101Y-48700000D01*
X160736771Y-48700000D01*
X160737461Y-48706565D01*
X160752996Y-48854363D01*
X160755635Y-48879475D01*
X160811401Y-49051107D01*
X160901633Y-49207393D01*
X160906051Y-49212300D01*
X160906052Y-49212301D01*
X160947650Y-49258500D01*
X161022387Y-49341504D01*
X161027729Y-49345385D01*
X161027731Y-49345387D01*
X161163043Y-49443697D01*
X161168385Y-49447578D01*
X161174413Y-49450262D01*
X161174415Y-49450263D01*
X161327217Y-49518295D01*
X161333248Y-49520980D01*
X161421508Y-49539740D01*
X161503311Y-49557128D01*
X161503315Y-49557128D01*
X161509768Y-49558500D01*
X161690232Y-49558500D01*
X161696685Y-49557128D01*
X161696689Y-49557128D01*
X161778492Y-49539740D01*
X161866752Y-49520980D01*
X161872783Y-49518295D01*
X162025585Y-49450263D01*
X162025587Y-49450262D01*
X162031615Y-49447578D01*
X162036957Y-49443697D01*
X162172269Y-49345387D01*
X162172271Y-49345385D01*
X162177613Y-49341504D01*
X162252350Y-49258500D01*
X162293948Y-49212301D01*
X162293949Y-49212300D01*
X162298367Y-49207393D01*
X162388599Y-49051107D01*
X162444365Y-48879475D01*
X162447005Y-48854363D01*
X162462539Y-48706565D01*
X162463229Y-48700000D01*
X162457252Y-48643131D01*
X162445055Y-48527089D01*
X162445055Y-48527088D01*
X162444365Y-48520525D01*
X162423670Y-48456830D01*
X162390641Y-48355178D01*
X162388599Y-48348893D01*
X162298367Y-48192607D01*
X162245757Y-48134177D01*
X162182035Y-48063407D01*
X162182034Y-48063406D01*
X162177613Y-48058496D01*
X162156386Y-48043073D01*
X162036957Y-47956303D01*
X162036956Y-47956302D01*
X162031615Y-47952422D01*
X162025587Y-47949738D01*
X162025585Y-47949737D01*
X161872783Y-47881705D01*
X161872781Y-47881705D01*
X161866752Y-47879020D01*
X161763757Y-47857128D01*
X161696689Y-47842872D01*
X161696685Y-47842872D01*
X161690232Y-47841500D01*
X161509768Y-47841500D01*
X161503315Y-47842872D01*
X161503311Y-47842872D01*
X161436243Y-47857128D01*
X161333248Y-47879020D01*
X161327219Y-47881704D01*
X161327217Y-47881705D01*
X161174416Y-47949737D01*
X161174414Y-47949738D01*
X161168386Y-47952422D01*
X161163045Y-47956302D01*
X161163044Y-47956303D01*
X161027731Y-48054613D01*
X161027729Y-48054615D01*
X161022387Y-48058496D01*
X161017966Y-48063406D01*
X161017965Y-48063407D01*
X160954244Y-48134177D01*
X160901633Y-48192607D01*
X160811401Y-48348893D01*
X160809359Y-48355178D01*
X160776331Y-48456830D01*
X160755635Y-48520525D01*
X160754945Y-48527088D01*
X160754945Y-48527089D01*
X160742748Y-48643131D01*
X160736771Y-48700000D01*
X140797101Y-48700000D01*
X140736957Y-48656303D01*
X140736956Y-48656302D01*
X140731615Y-48652422D01*
X140725587Y-48649738D01*
X140725585Y-48649737D01*
X140572783Y-48581705D01*
X140572781Y-48581705D01*
X140566752Y-48579020D01*
X140478492Y-48560260D01*
X140396689Y-48542872D01*
X140396685Y-48542872D01*
X140390232Y-48541500D01*
X140209768Y-48541500D01*
X140203315Y-48542872D01*
X140203311Y-48542872D01*
X140121508Y-48560260D01*
X140033248Y-48579020D01*
X140027219Y-48581704D01*
X140027217Y-48581705D01*
X139874416Y-48649737D01*
X139874414Y-48649738D01*
X139868386Y-48652422D01*
X139863045Y-48656302D01*
X139863044Y-48656303D01*
X139727731Y-48754613D01*
X139727729Y-48754615D01*
X139722387Y-48758496D01*
X139717966Y-48763406D01*
X139717965Y-48763407D01*
X139636489Y-48853896D01*
X139601633Y-48892607D01*
X139511401Y-49048893D01*
X139455635Y-49220525D01*
X139436771Y-49400000D01*
X116508500Y-49400000D01*
X116508500Y-48400000D01*
X124436771Y-48400000D01*
X124455635Y-48579475D01*
X124511401Y-48751107D01*
X124601633Y-48907393D01*
X124606051Y-48912300D01*
X124606052Y-48912301D01*
X124647650Y-48958500D01*
X124722387Y-49041504D01*
X124727729Y-49045385D01*
X124727731Y-49045387D01*
X124743481Y-49056830D01*
X124868385Y-49147578D01*
X124874413Y-49150262D01*
X124874415Y-49150263D01*
X125018123Y-49214246D01*
X125033248Y-49220980D01*
X125121508Y-49239740D01*
X125203311Y-49257128D01*
X125203315Y-49257128D01*
X125209768Y-49258500D01*
X125390232Y-49258500D01*
X125396685Y-49257128D01*
X125396689Y-49257128D01*
X125478492Y-49239740D01*
X125566752Y-49220980D01*
X125581877Y-49214246D01*
X125725585Y-49150263D01*
X125725587Y-49150262D01*
X125731615Y-49147578D01*
X125856519Y-49056830D01*
X125872269Y-49045387D01*
X125872271Y-49045385D01*
X125877613Y-49041504D01*
X125952350Y-48958500D01*
X125993948Y-48912301D01*
X125993949Y-48912300D01*
X125998367Y-48907393D01*
X126088599Y-48751107D01*
X126105205Y-48700000D01*
X126111963Y-48679199D01*
X126152036Y-48620593D01*
X126217433Y-48592956D01*
X126287389Y-48605063D01*
X126325431Y-48633823D01*
X126422387Y-48741504D01*
X126427729Y-48745385D01*
X126427731Y-48745387D01*
X126563043Y-48843697D01*
X126568385Y-48847578D01*
X126574413Y-48850262D01*
X126574415Y-48850263D01*
X126727217Y-48918295D01*
X126733248Y-48920980D01*
X126821508Y-48939740D01*
X126903311Y-48957128D01*
X126903315Y-48957128D01*
X126909768Y-48958500D01*
X127090232Y-48958500D01*
X127096685Y-48957128D01*
X127096689Y-48957128D01*
X127178492Y-48939740D01*
X127266752Y-48920980D01*
X127272783Y-48918295D01*
X127425585Y-48850263D01*
X127425587Y-48850262D01*
X127431615Y-48847578D01*
X127436957Y-48843697D01*
X127572269Y-48745387D01*
X127572271Y-48745385D01*
X127577613Y-48741504D01*
X127614983Y-48700000D01*
X127693948Y-48612301D01*
X127693949Y-48612300D01*
X127698367Y-48607393D01*
X127788599Y-48451107D01*
X127821810Y-48348893D01*
X127842325Y-48285754D01*
X127842325Y-48285753D01*
X127844365Y-48279475D01*
X127847814Y-48246666D01*
X127862539Y-48106565D01*
X127863229Y-48100000D01*
X127844365Y-47920525D01*
X127841118Y-47910530D01*
X127793315Y-47763407D01*
X127788599Y-47748893D01*
X127698367Y-47592607D01*
X127682218Y-47574671D01*
X127582035Y-47463407D01*
X127582034Y-47463406D01*
X127577613Y-47458496D01*
X127557026Y-47443538D01*
X127436957Y-47356303D01*
X127436956Y-47356302D01*
X127431615Y-47352422D01*
X127425587Y-47349738D01*
X127425585Y-47349737D01*
X127272783Y-47281705D01*
X127272781Y-47281705D01*
X127266752Y-47279020D01*
X127178492Y-47260260D01*
X127096689Y-47242872D01*
X127096685Y-47242872D01*
X127090232Y-47241500D01*
X126909768Y-47241500D01*
X126903315Y-47242872D01*
X126903311Y-47242872D01*
X126821508Y-47260260D01*
X126733248Y-47279020D01*
X126727219Y-47281704D01*
X126727217Y-47281705D01*
X126574416Y-47349737D01*
X126574414Y-47349738D01*
X126568386Y-47352422D01*
X126563045Y-47356302D01*
X126563044Y-47356303D01*
X126427731Y-47454613D01*
X126427729Y-47454615D01*
X126422387Y-47458496D01*
X126417966Y-47463406D01*
X126417965Y-47463407D01*
X126317783Y-47574671D01*
X126301633Y-47592607D01*
X126211401Y-47748893D01*
X126209360Y-47755175D01*
X126209359Y-47755177D01*
X126188037Y-47820801D01*
X126147964Y-47879407D01*
X126082567Y-47907044D01*
X126012611Y-47894937D01*
X125974568Y-47866176D01*
X125877613Y-47758496D01*
X125866282Y-47750263D01*
X125736957Y-47656303D01*
X125736956Y-47656302D01*
X125731615Y-47652422D01*
X125725587Y-47649738D01*
X125725585Y-47649737D01*
X125572783Y-47581705D01*
X125572781Y-47581705D01*
X125566752Y-47579020D01*
X125478492Y-47560260D01*
X125396689Y-47542872D01*
X125396685Y-47542872D01*
X125390232Y-47541500D01*
X125209768Y-47541500D01*
X125203315Y-47542872D01*
X125203311Y-47542872D01*
X125121508Y-47560260D01*
X125033248Y-47579020D01*
X125027219Y-47581704D01*
X125027217Y-47581705D01*
X124874416Y-47649737D01*
X124874414Y-47649738D01*
X124868386Y-47652422D01*
X124863045Y-47656302D01*
X124863044Y-47656303D01*
X124727731Y-47754613D01*
X124727729Y-47754615D01*
X124722387Y-47758496D01*
X124717969Y-47763403D01*
X124717965Y-47763407D01*
X124625432Y-47866176D01*
X124601633Y-47892607D01*
X124581725Y-47927089D01*
X124520068Y-48033882D01*
X124511401Y-48048893D01*
X124455635Y-48220525D01*
X124436771Y-48400000D01*
X116508500Y-48400000D01*
X116508500Y-47000000D01*
X119136771Y-47000000D01*
X119155635Y-47179475D01*
X119211401Y-47351107D01*
X119214704Y-47356829D01*
X119214705Y-47356830D01*
X119222808Y-47370865D01*
X119301633Y-47507393D01*
X119422387Y-47641504D01*
X119427729Y-47645385D01*
X119427731Y-47645387D01*
X119562318Y-47743170D01*
X119568385Y-47747578D01*
X119574413Y-47750262D01*
X119574415Y-47750263D01*
X119725281Y-47817433D01*
X119733248Y-47820980D01*
X119821508Y-47839740D01*
X119903311Y-47857128D01*
X119903315Y-47857128D01*
X119909768Y-47858500D01*
X120090232Y-47858500D01*
X120096685Y-47857128D01*
X120096689Y-47857128D01*
X120178492Y-47839740D01*
X120266752Y-47820980D01*
X120274719Y-47817433D01*
X120425585Y-47750263D01*
X120425587Y-47750262D01*
X120431615Y-47747578D01*
X120437682Y-47743170D01*
X120572269Y-47645387D01*
X120572271Y-47645385D01*
X120577613Y-47641504D01*
X120698367Y-47507393D01*
X120777192Y-47370865D01*
X120785295Y-47356830D01*
X120785296Y-47356829D01*
X120788599Y-47351107D01*
X120844365Y-47179475D01*
X120863229Y-47000000D01*
X140636771Y-47000000D01*
X140655635Y-47179475D01*
X140711401Y-47351107D01*
X140714704Y-47356829D01*
X140714705Y-47356830D01*
X140722808Y-47370865D01*
X140801633Y-47507393D01*
X140922387Y-47641504D01*
X140927729Y-47645385D01*
X140927731Y-47645387D01*
X141062318Y-47743170D01*
X141068385Y-47747578D01*
X141074413Y-47750262D01*
X141074415Y-47750263D01*
X141225281Y-47817433D01*
X141233248Y-47820980D01*
X141321508Y-47839740D01*
X141403311Y-47857128D01*
X141403315Y-47857128D01*
X141409768Y-47858500D01*
X141590232Y-47858500D01*
X141596685Y-47857128D01*
X141596689Y-47857128D01*
X141678492Y-47839740D01*
X141766752Y-47820980D01*
X141774719Y-47817433D01*
X141925585Y-47750263D01*
X141925587Y-47750262D01*
X141931615Y-47747578D01*
X141937682Y-47743170D01*
X142072269Y-47645387D01*
X142072271Y-47645385D01*
X142077613Y-47641504D01*
X142198367Y-47507393D01*
X142277192Y-47370865D01*
X142285295Y-47356830D01*
X142285296Y-47356829D01*
X142288599Y-47351107D01*
X142295090Y-47331131D01*
X164076860Y-47331131D01*
X164077157Y-47336283D01*
X164077157Y-47336287D01*
X164083980Y-47454613D01*
X164090903Y-47574671D01*
X164092040Y-47579717D01*
X164092041Y-47579723D01*
X164115107Y-47682075D01*
X164144533Y-47812647D01*
X164146475Y-47817429D01*
X164146476Y-47817433D01*
X164234367Y-48033882D01*
X164236311Y-48038669D01*
X164363772Y-48246666D01*
X164523492Y-48431053D01*
X164711183Y-48586877D01*
X164921804Y-48709953D01*
X165149698Y-48796978D01*
X165154764Y-48798009D01*
X165154765Y-48798009D01*
X165383667Y-48844580D01*
X165383671Y-48844580D01*
X165388746Y-48845613D01*
X165393922Y-48845803D01*
X165393924Y-48845803D01*
X165627363Y-48854363D01*
X165627367Y-48854363D01*
X165632527Y-48854552D01*
X165637647Y-48853896D01*
X165637649Y-48853896D01*
X165717263Y-48843697D01*
X165874494Y-48823555D01*
X165879443Y-48822070D01*
X165879449Y-48822069D01*
X166091347Y-48758496D01*
X166108150Y-48753455D01*
X166327219Y-48646134D01*
X166331424Y-48643134D01*
X166331430Y-48643131D01*
X166521614Y-48507474D01*
X166521616Y-48507472D01*
X166525818Y-48504475D01*
X166698614Y-48332281D01*
X166840966Y-48134177D01*
X166875943Y-48063407D01*
X166946756Y-47920126D01*
X166946757Y-47920124D01*
X166949050Y-47915484D01*
X166966780Y-47857128D01*
X167018462Y-47687027D01*
X167018463Y-47687021D01*
X167019966Y-47682075D01*
X167051807Y-47440217D01*
X167053584Y-47367500D01*
X167033596Y-47124376D01*
X166974167Y-46887780D01*
X166876894Y-46664068D01*
X166744390Y-46459248D01*
X166736215Y-46450263D01*
X166583690Y-46282641D01*
X166583688Y-46282640D01*
X166580212Y-46278819D01*
X166576161Y-46275620D01*
X166576157Y-46275616D01*
X166392825Y-46130829D01*
X166392821Y-46130827D01*
X166388770Y-46127627D01*
X166175205Y-46009733D01*
X166170336Y-46008009D01*
X166170332Y-46008007D01*
X165950127Y-45930028D01*
X165950123Y-45930027D01*
X165945252Y-45928302D01*
X165940159Y-45927395D01*
X165940156Y-45927394D01*
X165710177Y-45886428D01*
X165710171Y-45886427D01*
X165705088Y-45885522D01*
X165625380Y-45884548D01*
X165466332Y-45882605D01*
X165466330Y-45882605D01*
X165461162Y-45882542D01*
X165220024Y-45919441D01*
X164988150Y-45995229D01*
X164983558Y-45997619D01*
X164983559Y-45997619D01*
X164880810Y-46051107D01*
X164771769Y-46107870D01*
X164767636Y-46110973D01*
X164767633Y-46110975D01*
X164582120Y-46250263D01*
X164576690Y-46254340D01*
X164408153Y-46430704D01*
X164405239Y-46434976D01*
X164405238Y-46434977D01*
X164385719Y-46463591D01*
X164270684Y-46632226D01*
X164253705Y-46668805D01*
X164186193Y-46814246D01*
X164167974Y-46853495D01*
X164102783Y-47088567D01*
X164076860Y-47331131D01*
X142295090Y-47331131D01*
X142344365Y-47179475D01*
X142363229Y-47000000D01*
X142344365Y-46820525D01*
X142288599Y-46648893D01*
X142198367Y-46492607D01*
X142168331Y-46459248D01*
X142082035Y-46363407D01*
X142082034Y-46363406D01*
X142077613Y-46358496D01*
X142059571Y-46345387D01*
X141936957Y-46256303D01*
X141936956Y-46256302D01*
X141931615Y-46252422D01*
X141925587Y-46249738D01*
X141925585Y-46249737D01*
X141772783Y-46181705D01*
X141772781Y-46181705D01*
X141766752Y-46179020D01*
X141662355Y-46156830D01*
X141596689Y-46142872D01*
X141596685Y-46142872D01*
X141590232Y-46141500D01*
X141409768Y-46141500D01*
X141403315Y-46142872D01*
X141403311Y-46142872D01*
X141337645Y-46156830D01*
X141233248Y-46179020D01*
X141227219Y-46181704D01*
X141227217Y-46181705D01*
X141074416Y-46249737D01*
X141074414Y-46249738D01*
X141068386Y-46252422D01*
X141063045Y-46256302D01*
X141063044Y-46256303D01*
X140927731Y-46354613D01*
X140927729Y-46354615D01*
X140922387Y-46358496D01*
X140917966Y-46363406D01*
X140917965Y-46363407D01*
X140831670Y-46459248D01*
X140801633Y-46492607D01*
X140711401Y-46648893D01*
X140655635Y-46820525D01*
X140636771Y-47000000D01*
X120863229Y-47000000D01*
X120844365Y-46820525D01*
X120788599Y-46648893D01*
X120698367Y-46492607D01*
X120668331Y-46459248D01*
X120582035Y-46363407D01*
X120582034Y-46363406D01*
X120577613Y-46358496D01*
X120559571Y-46345387D01*
X120436957Y-46256303D01*
X120436956Y-46256302D01*
X120431615Y-46252422D01*
X120425587Y-46249738D01*
X120425585Y-46249737D01*
X120272783Y-46181705D01*
X120272781Y-46181705D01*
X120266752Y-46179020D01*
X120162355Y-46156830D01*
X120096689Y-46142872D01*
X120096685Y-46142872D01*
X120090232Y-46141500D01*
X119909768Y-46141500D01*
X119903315Y-46142872D01*
X119903311Y-46142872D01*
X119837645Y-46156830D01*
X119733248Y-46179020D01*
X119727219Y-46181704D01*
X119727217Y-46181705D01*
X119574416Y-46249737D01*
X119574414Y-46249738D01*
X119568386Y-46252422D01*
X119563045Y-46256302D01*
X119563044Y-46256303D01*
X119427731Y-46354613D01*
X119427729Y-46354615D01*
X119422387Y-46358496D01*
X119417966Y-46363406D01*
X119417965Y-46363407D01*
X119331670Y-46459248D01*
X119301633Y-46492607D01*
X119211401Y-46648893D01*
X119155635Y-46820525D01*
X119136771Y-47000000D01*
X116508500Y-47000000D01*
X116508500Y-45700000D01*
X131436771Y-45700000D01*
X131455635Y-45879475D01*
X131457675Y-45885753D01*
X131457675Y-45885754D01*
X131468621Y-45919441D01*
X131511401Y-46051107D01*
X131601633Y-46207393D01*
X131606051Y-46212300D01*
X131606052Y-46212301D01*
X131703907Y-46320980D01*
X131722387Y-46341504D01*
X131727729Y-46345385D01*
X131727731Y-46345387D01*
X131840016Y-46426967D01*
X131868385Y-46447578D01*
X131874413Y-46450262D01*
X131874415Y-46450263D01*
X131969521Y-46492607D01*
X132033248Y-46520980D01*
X132121508Y-46539740D01*
X132203311Y-46557128D01*
X132203315Y-46557128D01*
X132209768Y-46558500D01*
X132390232Y-46558500D01*
X132396685Y-46557128D01*
X132396689Y-46557128D01*
X132478492Y-46539740D01*
X132566752Y-46520980D01*
X132630479Y-46492607D01*
X132725585Y-46450263D01*
X132725587Y-46450262D01*
X132731615Y-46447578D01*
X132759984Y-46426967D01*
X132872269Y-46345387D01*
X132872271Y-46345385D01*
X132877613Y-46341504D01*
X132896093Y-46320980D01*
X132993948Y-46212301D01*
X132993949Y-46212300D01*
X132998367Y-46207393D01*
X133088599Y-46051107D01*
X133131379Y-45919441D01*
X133142325Y-45885754D01*
X133142325Y-45885753D01*
X133144365Y-45879475D01*
X133152718Y-45800000D01*
X133936771Y-45800000D01*
X133955635Y-45979475D01*
X133957675Y-45985753D01*
X133957675Y-45985754D01*
X133975789Y-46041504D01*
X134011401Y-46151107D01*
X134014704Y-46156829D01*
X134014705Y-46156830D01*
X134043898Y-46207393D01*
X134101633Y-46307393D01*
X134106051Y-46312300D01*
X134106052Y-46312301D01*
X134147646Y-46358496D01*
X134222387Y-46441504D01*
X134227729Y-46445385D01*
X134227731Y-46445387D01*
X134331776Y-46520980D01*
X134368385Y-46547578D01*
X134374413Y-46550262D01*
X134374415Y-46550263D01*
X134392916Y-46558500D01*
X134533248Y-46620980D01*
X134608255Y-46636923D01*
X134703311Y-46657128D01*
X134703315Y-46657128D01*
X134709768Y-46658500D01*
X134890232Y-46658500D01*
X134896685Y-46657128D01*
X134896689Y-46657128D01*
X134991745Y-46636923D01*
X135066752Y-46620980D01*
X135207084Y-46558500D01*
X135225585Y-46550263D01*
X135225587Y-46550262D01*
X135231615Y-46547578D01*
X135268224Y-46520980D01*
X135372269Y-46445387D01*
X135372271Y-46445385D01*
X135377613Y-46441504D01*
X135452354Y-46358496D01*
X135493948Y-46312301D01*
X135493949Y-46312300D01*
X135498367Y-46307393D01*
X135556102Y-46207393D01*
X135585295Y-46156830D01*
X135585296Y-46156829D01*
X135588599Y-46151107D01*
X135624211Y-46041504D01*
X135642325Y-45985754D01*
X135642325Y-45985753D01*
X135644365Y-45979475D01*
X135663229Y-45800000D01*
X135644365Y-45620525D01*
X135628895Y-45572911D01*
X135605205Y-45500000D01*
X152536771Y-45500000D01*
X152555635Y-45679475D01*
X152611401Y-45851107D01*
X152614704Y-45856829D01*
X152614705Y-45856830D01*
X152643898Y-45907393D01*
X152701633Y-46007393D01*
X152706051Y-46012300D01*
X152706052Y-46012301D01*
X152807644Y-46125130D01*
X152822387Y-46141504D01*
X152827729Y-46145385D01*
X152827731Y-46145387D01*
X152931776Y-46220980D01*
X152968385Y-46247578D01*
X152974413Y-46250262D01*
X152974415Y-46250263D01*
X153127217Y-46318295D01*
X153133248Y-46320980D01*
X153221508Y-46339740D01*
X153303311Y-46357128D01*
X153303315Y-46357128D01*
X153309768Y-46358500D01*
X153490232Y-46358500D01*
X153496685Y-46357128D01*
X153496689Y-46357128D01*
X153578492Y-46339740D01*
X153666752Y-46320980D01*
X153672783Y-46318295D01*
X153825585Y-46250263D01*
X153825587Y-46250262D01*
X153831615Y-46247578D01*
X153868224Y-46220980D01*
X153972269Y-46145387D01*
X153972271Y-46145385D01*
X153977613Y-46141504D01*
X153992356Y-46125130D01*
X154093948Y-46012301D01*
X154093949Y-46012300D01*
X154098367Y-46007393D01*
X154156102Y-45907393D01*
X154185295Y-45856830D01*
X154185296Y-45856829D01*
X154188599Y-45851107D01*
X154244365Y-45679475D01*
X154263229Y-45500000D01*
X154252718Y-45400000D01*
X157836771Y-45400000D01*
X157855635Y-45579475D01*
X157857675Y-45585753D01*
X157857675Y-45585754D01*
X157885994Y-45672911D01*
X157911401Y-45751107D01*
X158001633Y-45907393D01*
X158006051Y-45912300D01*
X158006052Y-45912301D01*
X158117965Y-46036593D01*
X158122387Y-46041504D01*
X158127729Y-46045385D01*
X158127731Y-46045387D01*
X158263043Y-46143697D01*
X158268385Y-46147578D01*
X158274413Y-46150262D01*
X158274415Y-46150263D01*
X158427217Y-46218295D01*
X158433248Y-46220980D01*
X158521508Y-46239740D01*
X158603311Y-46257128D01*
X158603315Y-46257128D01*
X158609768Y-46258500D01*
X158790232Y-46258500D01*
X158796685Y-46257128D01*
X158796689Y-46257128D01*
X158878492Y-46239740D01*
X158966752Y-46220980D01*
X158972783Y-46218295D01*
X159125585Y-46150263D01*
X159125587Y-46150262D01*
X159131615Y-46147578D01*
X159136957Y-46143697D01*
X159272269Y-46045387D01*
X159272271Y-46045385D01*
X159277613Y-46041504D01*
X159282035Y-46036593D01*
X159393948Y-45912301D01*
X159393949Y-45912300D01*
X159398367Y-45907393D01*
X159488599Y-45751107D01*
X159514006Y-45672911D01*
X159542325Y-45585754D01*
X159542325Y-45585753D01*
X159544365Y-45579475D01*
X159563229Y-45400000D01*
X159555068Y-45322352D01*
X159545055Y-45227089D01*
X159545055Y-45227088D01*
X159544365Y-45220525D01*
X159525807Y-45163407D01*
X159490641Y-45055178D01*
X159488599Y-45048893D01*
X159459404Y-44998325D01*
X159431351Y-44949737D01*
X159398367Y-44892607D01*
X159393907Y-44887653D01*
X159282035Y-44763407D01*
X159282034Y-44763406D01*
X159277613Y-44758496D01*
X159265558Y-44749737D01*
X159136957Y-44656303D01*
X159136956Y-44656302D01*
X159131615Y-44652422D01*
X159125587Y-44649738D01*
X159125585Y-44649737D01*
X158972783Y-44581705D01*
X158972781Y-44581705D01*
X158966752Y-44579020D01*
X158878492Y-44560260D01*
X158796689Y-44542872D01*
X158796685Y-44542872D01*
X158790232Y-44541500D01*
X158609768Y-44541500D01*
X158603315Y-44542872D01*
X158603311Y-44542872D01*
X158521508Y-44560260D01*
X158433248Y-44579020D01*
X158427219Y-44581704D01*
X158427217Y-44581705D01*
X158274416Y-44649737D01*
X158274414Y-44649738D01*
X158268386Y-44652422D01*
X158263045Y-44656302D01*
X158263044Y-44656303D01*
X158127731Y-44754613D01*
X158127729Y-44754615D01*
X158122387Y-44758496D01*
X158117966Y-44763406D01*
X158117965Y-44763407D01*
X158006094Y-44887653D01*
X158001633Y-44892607D01*
X157968649Y-44949737D01*
X157940597Y-44998325D01*
X157911401Y-45048893D01*
X157909359Y-45055178D01*
X157874194Y-45163407D01*
X157855635Y-45220525D01*
X157854945Y-45227088D01*
X157854945Y-45227089D01*
X157844932Y-45322352D01*
X157836771Y-45400000D01*
X154252718Y-45400000D01*
X154244365Y-45320525D01*
X154188599Y-45148893D01*
X154098367Y-44992607D01*
X154053586Y-44942872D01*
X153982035Y-44863407D01*
X153982034Y-44863406D01*
X153977613Y-44858496D01*
X153958793Y-44844822D01*
X153836957Y-44756303D01*
X153836956Y-44756302D01*
X153831615Y-44752422D01*
X153825587Y-44749738D01*
X153825585Y-44749737D01*
X153672783Y-44681705D01*
X153672781Y-44681705D01*
X153666752Y-44679020D01*
X153559876Y-44656303D01*
X153496689Y-44642872D01*
X153496685Y-44642872D01*
X153490232Y-44641500D01*
X153309768Y-44641500D01*
X153303315Y-44642872D01*
X153303311Y-44642872D01*
X153240124Y-44656303D01*
X153133248Y-44679020D01*
X153127219Y-44681704D01*
X153127217Y-44681705D01*
X152974416Y-44749737D01*
X152974414Y-44749738D01*
X152968386Y-44752422D01*
X152963045Y-44756302D01*
X152963044Y-44756303D01*
X152827731Y-44854613D01*
X152827729Y-44854615D01*
X152822387Y-44858496D01*
X152817966Y-44863406D01*
X152817965Y-44863407D01*
X152746415Y-44942872D01*
X152701633Y-44992607D01*
X152611401Y-45148893D01*
X152555635Y-45320525D01*
X152536771Y-45500000D01*
X135605205Y-45500000D01*
X135590641Y-45455178D01*
X135588599Y-45448893D01*
X135498367Y-45292607D01*
X135439375Y-45227089D01*
X135382035Y-45163407D01*
X135382034Y-45163406D01*
X135377613Y-45158496D01*
X135359571Y-45145387D01*
X135236957Y-45056303D01*
X135236956Y-45056302D01*
X135231615Y-45052422D01*
X135225587Y-45049738D01*
X135225585Y-45049737D01*
X135072783Y-44981705D01*
X135072781Y-44981705D01*
X135066752Y-44979020D01*
X134959876Y-44956303D01*
X134896689Y-44942872D01*
X134896685Y-44942872D01*
X134890232Y-44941500D01*
X134709768Y-44941500D01*
X134703315Y-44942872D01*
X134703311Y-44942872D01*
X134640124Y-44956303D01*
X134533248Y-44979020D01*
X134527219Y-44981704D01*
X134527217Y-44981705D01*
X134374416Y-45049737D01*
X134374414Y-45049738D01*
X134368386Y-45052422D01*
X134363045Y-45056302D01*
X134363044Y-45056303D01*
X134227731Y-45154613D01*
X134227729Y-45154615D01*
X134222387Y-45158496D01*
X134217966Y-45163406D01*
X134217965Y-45163407D01*
X134160626Y-45227089D01*
X134101633Y-45292607D01*
X134011401Y-45448893D01*
X134009359Y-45455178D01*
X133971106Y-45572911D01*
X133955635Y-45620525D01*
X133936771Y-45800000D01*
X133152718Y-45800000D01*
X133163229Y-45700000D01*
X133144365Y-45520525D01*
X133088599Y-45348893D01*
X133076011Y-45327089D01*
X133031655Y-45250263D01*
X132998367Y-45192607D01*
X132967654Y-45158496D01*
X132882035Y-45063407D01*
X132882034Y-45063406D01*
X132877613Y-45058496D01*
X132865558Y-45049737D01*
X132736957Y-44956303D01*
X132736956Y-44956302D01*
X132731615Y-44952422D01*
X132725587Y-44949738D01*
X132725585Y-44949737D01*
X132572783Y-44881705D01*
X132572781Y-44881705D01*
X132566752Y-44879020D01*
X132476718Y-44859883D01*
X132396689Y-44842872D01*
X132396685Y-44842872D01*
X132390232Y-44841500D01*
X132209768Y-44841500D01*
X132203315Y-44842872D01*
X132203311Y-44842872D01*
X132123282Y-44859883D01*
X132033248Y-44879020D01*
X132027219Y-44881704D01*
X132027217Y-44881705D01*
X131874416Y-44949737D01*
X131874414Y-44949738D01*
X131868386Y-44952422D01*
X131863045Y-44956302D01*
X131863044Y-44956303D01*
X131727731Y-45054613D01*
X131727729Y-45054615D01*
X131722387Y-45058496D01*
X131717966Y-45063406D01*
X131717965Y-45063407D01*
X131632347Y-45158496D01*
X131601633Y-45192607D01*
X131568345Y-45250263D01*
X131523990Y-45327089D01*
X131511401Y-45348893D01*
X131455635Y-45520525D01*
X131436771Y-45700000D01*
X116508500Y-45700000D01*
X116508500Y-43771489D01*
X123211227Y-43771489D01*
X123213096Y-43800000D01*
X123224263Y-43970380D01*
X123225684Y-43975976D01*
X123225685Y-43975981D01*
X123269600Y-44148893D01*
X123273326Y-44163564D01*
X123275743Y-44168807D01*
X123312265Y-44248029D01*
X123356772Y-44344573D01*
X123471807Y-44507344D01*
X123614578Y-44646425D01*
X123780304Y-44757160D01*
X123785607Y-44759438D01*
X123785610Y-44759440D01*
X123958128Y-44833559D01*
X123963435Y-44835839D01*
X124030910Y-44851107D01*
X124152201Y-44878553D01*
X124152207Y-44878554D01*
X124157838Y-44879828D01*
X124163609Y-44880055D01*
X124163611Y-44880055D01*
X124224556Y-44882449D01*
X124357001Y-44887653D01*
X124456959Y-44873160D01*
X124548535Y-44859883D01*
X124548540Y-44859882D01*
X124554256Y-44859053D01*
X124559728Y-44857195D01*
X124559730Y-44857195D01*
X124737532Y-44796839D01*
X124737534Y-44796838D01*
X124742996Y-44794984D01*
X124916899Y-44697594D01*
X125070143Y-44570143D01*
X125128480Y-44500000D01*
X159836771Y-44500000D01*
X159837461Y-44506565D01*
X159852792Y-44652422D01*
X159855635Y-44679475D01*
X159911401Y-44851107D01*
X159914704Y-44856829D01*
X159914705Y-44856830D01*
X159916468Y-44859883D01*
X160001633Y-45007393D01*
X160122387Y-45141504D01*
X160127729Y-45145385D01*
X160127731Y-45145387D01*
X160231150Y-45220525D01*
X160268385Y-45247578D01*
X160274413Y-45250262D01*
X160274415Y-45250263D01*
X160369521Y-45292607D01*
X160433248Y-45320980D01*
X160521508Y-45339740D01*
X160603311Y-45357128D01*
X160603315Y-45357128D01*
X160609768Y-45358500D01*
X160790232Y-45358500D01*
X160796685Y-45357128D01*
X160796689Y-45357128D01*
X160878492Y-45339740D01*
X160966752Y-45320980D01*
X161030479Y-45292607D01*
X161125585Y-45250263D01*
X161125587Y-45250262D01*
X161131615Y-45247578D01*
X161168850Y-45220525D01*
X161272269Y-45145387D01*
X161272271Y-45145385D01*
X161277613Y-45141504D01*
X161398367Y-45007393D01*
X161483532Y-44859883D01*
X161485295Y-44856830D01*
X161485296Y-44856829D01*
X161488599Y-44851107D01*
X161544365Y-44679475D01*
X161547209Y-44652422D01*
X161562539Y-44506565D01*
X161563229Y-44500000D01*
X161544365Y-44320525D01*
X161488599Y-44148893D01*
X161398367Y-43992607D01*
X161277613Y-43858496D01*
X161270451Y-43853292D01*
X161136957Y-43756303D01*
X161136956Y-43756302D01*
X161131615Y-43752422D01*
X161125587Y-43749738D01*
X161125585Y-43749737D01*
X160972783Y-43681705D01*
X160972781Y-43681705D01*
X160966752Y-43679020D01*
X160878492Y-43660260D01*
X160796689Y-43642872D01*
X160796685Y-43642872D01*
X160790232Y-43641500D01*
X160609768Y-43641500D01*
X160603315Y-43642872D01*
X160603311Y-43642872D01*
X160521508Y-43660260D01*
X160433248Y-43679020D01*
X160427219Y-43681704D01*
X160427217Y-43681705D01*
X160274416Y-43749737D01*
X160274414Y-43749738D01*
X160268386Y-43752422D01*
X160263045Y-43756302D01*
X160263044Y-43756303D01*
X160127731Y-43854613D01*
X160127729Y-43854615D01*
X160122387Y-43858496D01*
X160001633Y-43992607D01*
X159911401Y-44148893D01*
X159855635Y-44320525D01*
X159836771Y-44500000D01*
X125128480Y-44500000D01*
X125197594Y-44416899D01*
X125294984Y-44242996D01*
X125324795Y-44155178D01*
X125357195Y-44059730D01*
X125357195Y-44059728D01*
X125359053Y-44054256D01*
X125359882Y-44048540D01*
X125359883Y-44048535D01*
X125376918Y-43931039D01*
X125387653Y-43857001D01*
X125389146Y-43800000D01*
X125370908Y-43601519D01*
X125330573Y-43458500D01*
X125318373Y-43415244D01*
X125318372Y-43415242D01*
X125316805Y-43409685D01*
X125303746Y-43383202D01*
X125231205Y-43236104D01*
X125228650Y-43230923D01*
X125109393Y-43071219D01*
X124963030Y-42935922D01*
X124958147Y-42932841D01*
X124958143Y-42932838D01*
X124799346Y-42832645D01*
X124799341Y-42832643D01*
X124794462Y-42829564D01*
X124609334Y-42755705D01*
X124413847Y-42716820D01*
X124408072Y-42716744D01*
X124408068Y-42716744D01*
X124308588Y-42715442D01*
X124214547Y-42714211D01*
X124208850Y-42715190D01*
X124208849Y-42715190D01*
X124192805Y-42717947D01*
X124018108Y-42747966D01*
X123831111Y-42816953D01*
X123659816Y-42918862D01*
X123509961Y-43050281D01*
X123386565Y-43206809D01*
X123293760Y-43383202D01*
X123282030Y-43420980D01*
X123253674Y-43512301D01*
X123234654Y-43573554D01*
X123211227Y-43771489D01*
X116508500Y-43771489D01*
X116508500Y-42600000D01*
X131036771Y-42600000D01*
X131037461Y-42606565D01*
X131052534Y-42749967D01*
X131055635Y-42779475D01*
X131057675Y-42785753D01*
X131057675Y-42785754D01*
X131071214Y-42827424D01*
X131111401Y-42951107D01*
X131201633Y-43107393D01*
X131206051Y-43112300D01*
X131206052Y-43112301D01*
X131295752Y-43211923D01*
X131322387Y-43241504D01*
X131468385Y-43347578D01*
X131474413Y-43350262D01*
X131474415Y-43350263D01*
X131627217Y-43418295D01*
X131633248Y-43420980D01*
X131721508Y-43439740D01*
X131803311Y-43457128D01*
X131803315Y-43457128D01*
X131809768Y-43458500D01*
X131990232Y-43458500D01*
X131996685Y-43457128D01*
X131996689Y-43457128D01*
X132078492Y-43439740D01*
X132166752Y-43420980D01*
X132172783Y-43418295D01*
X132325585Y-43350263D01*
X132325587Y-43350262D01*
X132331615Y-43347578D01*
X132477613Y-43241504D01*
X132504248Y-43211923D01*
X132593948Y-43112301D01*
X132593949Y-43112300D01*
X132598367Y-43107393D01*
X132660371Y-43000000D01*
X152536771Y-43000000D01*
X152555635Y-43179475D01*
X152557675Y-43185753D01*
X152557675Y-43185754D01*
X152575789Y-43241504D01*
X152611401Y-43351107D01*
X152701633Y-43507393D01*
X152706051Y-43512300D01*
X152706052Y-43512301D01*
X152766363Y-43579283D01*
X152822387Y-43641504D01*
X152827729Y-43645385D01*
X152827731Y-43645387D01*
X152947632Y-43732500D01*
X152968385Y-43747578D01*
X152974413Y-43750262D01*
X152974415Y-43750263D01*
X153127217Y-43818295D01*
X153133248Y-43820980D01*
X153221508Y-43839740D01*
X153303311Y-43857128D01*
X153303315Y-43857128D01*
X153309768Y-43858500D01*
X153490232Y-43858500D01*
X153496685Y-43857128D01*
X153496689Y-43857128D01*
X153578492Y-43839740D01*
X153666752Y-43820980D01*
X153672783Y-43818295D01*
X153825585Y-43750263D01*
X153825587Y-43750262D01*
X153831615Y-43747578D01*
X153852368Y-43732500D01*
X153972269Y-43645387D01*
X153972271Y-43645385D01*
X153977613Y-43641504D01*
X154033637Y-43579283D01*
X154093948Y-43512301D01*
X154093949Y-43512300D01*
X154098367Y-43507393D01*
X154188599Y-43351107D01*
X154224211Y-43241504D01*
X154242325Y-43185754D01*
X154242325Y-43185753D01*
X154244365Y-43179475D01*
X154263229Y-43000000D01*
X154244365Y-42820525D01*
X154228895Y-42772911D01*
X154190641Y-42655178D01*
X154188599Y-42648893D01*
X154098367Y-42492607D01*
X154039375Y-42427089D01*
X153982035Y-42363407D01*
X153982034Y-42363406D01*
X153977613Y-42358496D01*
X153966282Y-42350263D01*
X153836957Y-42256303D01*
X153836956Y-42256302D01*
X153831615Y-42252422D01*
X153825587Y-42249738D01*
X153825585Y-42249737D01*
X153672783Y-42181705D01*
X153672781Y-42181705D01*
X153666752Y-42179020D01*
X153578492Y-42160260D01*
X153496689Y-42142872D01*
X153496685Y-42142872D01*
X153490232Y-42141500D01*
X153309768Y-42141500D01*
X153303315Y-42142872D01*
X153303311Y-42142872D01*
X153221508Y-42160260D01*
X153133248Y-42179020D01*
X153127219Y-42181704D01*
X153127217Y-42181705D01*
X152974416Y-42249737D01*
X152974414Y-42249738D01*
X152968386Y-42252422D01*
X152963045Y-42256302D01*
X152963044Y-42256303D01*
X152827731Y-42354613D01*
X152827729Y-42354615D01*
X152822387Y-42358496D01*
X152817966Y-42363406D01*
X152817965Y-42363407D01*
X152760626Y-42427089D01*
X152701633Y-42492607D01*
X152611401Y-42648893D01*
X152609359Y-42655178D01*
X152571106Y-42772911D01*
X152555635Y-42820525D01*
X152536771Y-43000000D01*
X132660371Y-43000000D01*
X132688599Y-42951107D01*
X132728786Y-42827424D01*
X132742325Y-42785754D01*
X132742325Y-42785753D01*
X132744365Y-42779475D01*
X132747467Y-42749967D01*
X132762539Y-42606565D01*
X132763229Y-42600000D01*
X132744365Y-42420525D01*
X132725807Y-42363407D01*
X132690641Y-42255178D01*
X132688599Y-42248893D01*
X132598367Y-42092607D01*
X132477613Y-41958496D01*
X132458793Y-41944822D01*
X132336957Y-41856303D01*
X132336956Y-41856302D01*
X132331615Y-41852422D01*
X132325587Y-41849738D01*
X132325585Y-41849737D01*
X132172783Y-41781705D01*
X132172781Y-41781705D01*
X132166752Y-41779020D01*
X132078492Y-41760260D01*
X131996689Y-41742872D01*
X131996685Y-41742872D01*
X131990232Y-41741500D01*
X131809768Y-41741500D01*
X131803315Y-41742872D01*
X131803311Y-41742872D01*
X131721508Y-41760260D01*
X131633248Y-41779020D01*
X131627219Y-41781704D01*
X131627217Y-41781705D01*
X131474416Y-41849737D01*
X131474414Y-41849738D01*
X131468386Y-41852422D01*
X131463045Y-41856302D01*
X131463044Y-41856303D01*
X131327731Y-41954613D01*
X131327729Y-41954615D01*
X131322387Y-41958496D01*
X131201633Y-42092607D01*
X131111401Y-42248893D01*
X131109359Y-42255178D01*
X131074194Y-42363407D01*
X131055635Y-42420525D01*
X131036771Y-42600000D01*
X116508500Y-42600000D01*
X116508500Y-39632703D01*
X117390743Y-39632703D01*
X117428268Y-39917734D01*
X117504129Y-40195036D01*
X117616923Y-40459476D01*
X117764561Y-40706161D01*
X117944313Y-40930528D01*
X118152851Y-41128423D01*
X118386317Y-41296186D01*
X118390112Y-41298195D01*
X118390113Y-41298196D01*
X118411869Y-41309715D01*
X118640392Y-41430712D01*
X118910373Y-41529511D01*
X119191264Y-41590755D01*
X119219841Y-41593004D01*
X119414282Y-41608307D01*
X119414291Y-41608307D01*
X119416739Y-41608500D01*
X119572271Y-41608500D01*
X119574407Y-41608354D01*
X119574418Y-41608354D01*
X119696958Y-41600000D01*
X133136771Y-41600000D01*
X133155635Y-41779475D01*
X133211401Y-41951107D01*
X133301633Y-42107393D01*
X133422387Y-42241504D01*
X133427729Y-42245385D01*
X133427731Y-42245387D01*
X133442756Y-42256303D01*
X133568385Y-42347578D01*
X133574413Y-42350262D01*
X133574415Y-42350263D01*
X133592907Y-42358496D01*
X133733248Y-42420980D01*
X133821508Y-42439740D01*
X133903311Y-42457128D01*
X133903315Y-42457128D01*
X133909768Y-42458500D01*
X134090232Y-42458500D01*
X134096685Y-42457128D01*
X134096689Y-42457128D01*
X134178492Y-42439740D01*
X134266752Y-42420980D01*
X134407093Y-42358496D01*
X134425585Y-42350263D01*
X134425587Y-42350262D01*
X134431615Y-42347578D01*
X134557244Y-42256303D01*
X134572269Y-42245387D01*
X134572271Y-42245385D01*
X134577613Y-42241504D01*
X134698367Y-42107393D01*
X134788599Y-41951107D01*
X134844365Y-41779475D01*
X134863229Y-41600000D01*
X134844365Y-41420525D01*
X134788599Y-41248893D01*
X134698367Y-41092607D01*
X134577613Y-40958496D01*
X134561433Y-40946740D01*
X134436957Y-40856303D01*
X134436956Y-40856302D01*
X134431615Y-40852422D01*
X134425587Y-40849738D01*
X134425585Y-40849737D01*
X134272783Y-40781705D01*
X134272781Y-40781705D01*
X134266752Y-40779020D01*
X134178492Y-40760260D01*
X134096689Y-40742872D01*
X134096685Y-40742872D01*
X134090232Y-40741500D01*
X133909768Y-40741500D01*
X133903315Y-40742872D01*
X133903311Y-40742872D01*
X133821508Y-40760260D01*
X133733248Y-40779020D01*
X133727219Y-40781704D01*
X133727217Y-40781705D01*
X133574416Y-40849737D01*
X133574414Y-40849738D01*
X133568386Y-40852422D01*
X133563045Y-40856302D01*
X133563044Y-40856303D01*
X133427731Y-40954613D01*
X133427729Y-40954615D01*
X133422387Y-40958496D01*
X133301633Y-41092607D01*
X133211401Y-41248893D01*
X133155635Y-41420525D01*
X133136771Y-41600000D01*
X119696958Y-41600000D01*
X119782548Y-41594165D01*
X119782554Y-41594164D01*
X119786825Y-41593873D01*
X119791020Y-41593004D01*
X119791022Y-41593004D01*
X119927584Y-41564723D01*
X120068342Y-41535574D01*
X120339343Y-41439607D01*
X120594812Y-41307750D01*
X120598313Y-41305289D01*
X120598317Y-41305287D01*
X120712417Y-41225096D01*
X120830023Y-41142441D01*
X120908403Y-41069606D01*
X121037479Y-40949661D01*
X121037481Y-40949658D01*
X121040622Y-40946740D01*
X121222713Y-40724268D01*
X121372927Y-40479142D01*
X121488483Y-40215898D01*
X121567244Y-39939406D01*
X121607751Y-39654784D01*
X121607845Y-39636951D01*
X121609235Y-39371583D01*
X121609235Y-39371576D01*
X121609257Y-39367297D01*
X121571732Y-39082266D01*
X121495871Y-38804964D01*
X121428740Y-38647578D01*
X121384763Y-38544476D01*
X121384761Y-38544472D01*
X121383077Y-38540524D01*
X121235439Y-38293839D01*
X121055687Y-38069472D01*
X120877101Y-37900000D01*
X152536771Y-37900000D01*
X152555635Y-38079475D01*
X152611401Y-38251107D01*
X152701633Y-38407393D01*
X152822387Y-38541504D01*
X152827729Y-38545385D01*
X152827731Y-38545387D01*
X152869283Y-38575576D01*
X152968385Y-38647578D01*
X152974413Y-38650262D01*
X152974415Y-38650263D01*
X153127217Y-38718295D01*
X153133248Y-38720980D01*
X153221508Y-38739740D01*
X153303311Y-38757128D01*
X153303315Y-38757128D01*
X153309768Y-38758500D01*
X153490232Y-38758500D01*
X153496685Y-38757128D01*
X153496689Y-38757128D01*
X153578492Y-38739740D01*
X153666752Y-38720980D01*
X153672783Y-38718295D01*
X153825585Y-38650263D01*
X153825587Y-38650262D01*
X153831615Y-38647578D01*
X153930717Y-38575576D01*
X153972269Y-38545387D01*
X153972271Y-38545385D01*
X153977613Y-38541504D01*
X154098367Y-38407393D01*
X154188599Y-38251107D01*
X154244365Y-38079475D01*
X154263229Y-37900000D01*
X154260242Y-37871577D01*
X154245055Y-37727089D01*
X154245055Y-37727088D01*
X154244365Y-37720525D01*
X154188599Y-37548893D01*
X154156691Y-37493626D01*
X154107779Y-37408909D01*
X154098367Y-37392607D01*
X154093807Y-37387542D01*
X153982035Y-37263407D01*
X153982034Y-37263406D01*
X153977613Y-37258496D01*
X153831615Y-37152422D01*
X153825587Y-37149738D01*
X153825585Y-37149737D01*
X153672783Y-37081705D01*
X153672781Y-37081705D01*
X153666752Y-37079020D01*
X153578492Y-37060260D01*
X153496689Y-37042872D01*
X153496685Y-37042872D01*
X153490232Y-37041500D01*
X153309768Y-37041500D01*
X153303315Y-37042872D01*
X153303311Y-37042872D01*
X153221508Y-37060260D01*
X153133248Y-37079020D01*
X153127219Y-37081704D01*
X153127217Y-37081705D01*
X152974416Y-37149737D01*
X152974414Y-37149738D01*
X152968386Y-37152422D01*
X152963045Y-37156302D01*
X152963044Y-37156303D01*
X152827731Y-37254613D01*
X152827729Y-37254615D01*
X152822387Y-37258496D01*
X152817966Y-37263406D01*
X152817965Y-37263407D01*
X152706194Y-37387542D01*
X152701633Y-37392607D01*
X152692221Y-37408909D01*
X152643310Y-37493626D01*
X152611401Y-37548893D01*
X152555635Y-37720525D01*
X152554945Y-37727088D01*
X152554945Y-37727089D01*
X152539758Y-37871577D01*
X152536771Y-37900000D01*
X120877101Y-37900000D01*
X120847149Y-37871577D01*
X120657064Y-37734987D01*
X120617172Y-37706321D01*
X120617171Y-37706320D01*
X120613683Y-37703814D01*
X120591843Y-37692250D01*
X120568654Y-37679972D01*
X120359608Y-37569288D01*
X120089627Y-37470489D01*
X119808736Y-37409245D01*
X119777685Y-37406801D01*
X119585718Y-37391693D01*
X119585709Y-37391693D01*
X119583261Y-37391500D01*
X119427729Y-37391500D01*
X119425593Y-37391646D01*
X119425582Y-37391646D01*
X119217452Y-37405835D01*
X119217446Y-37405836D01*
X119213175Y-37406127D01*
X119208980Y-37406996D01*
X119208978Y-37406996D01*
X119072417Y-37435276D01*
X118931658Y-37464426D01*
X118660657Y-37560393D01*
X118405188Y-37692250D01*
X118401687Y-37694711D01*
X118401683Y-37694713D01*
X118287583Y-37774904D01*
X118169977Y-37857559D01*
X117959378Y-38053260D01*
X117777287Y-38275732D01*
X117627073Y-38520858D01*
X117625347Y-38524791D01*
X117625346Y-38524792D01*
X117605761Y-38569409D01*
X117511517Y-38784102D01*
X117432756Y-39060594D01*
X117392249Y-39345216D01*
X117392227Y-39349505D01*
X117392226Y-39349512D01*
X117391263Y-39533421D01*
X117390743Y-39632703D01*
X116508500Y-39632703D01*
X116508500Y-39553250D01*
X116510246Y-39532345D01*
X116512770Y-39517344D01*
X116512770Y-39517341D01*
X116513576Y-39512552D01*
X116513729Y-39500000D01*
X116513039Y-39495180D01*
X116511644Y-39485437D01*
X116510545Y-39460983D01*
X116524542Y-39193902D01*
X116525920Y-39180785D01*
X116572838Y-38884555D01*
X116575580Y-38871655D01*
X116616672Y-38718295D01*
X116653207Y-38581948D01*
X116657281Y-38569409D01*
X116666503Y-38545387D01*
X116764763Y-38289412D01*
X116770126Y-38277365D01*
X116786708Y-38244822D01*
X116906289Y-38010130D01*
X116912883Y-37998709D01*
X116972722Y-37906565D01*
X117076236Y-37747168D01*
X117083984Y-37736505D01*
X117096925Y-37720525D01*
X117272727Y-37503427D01*
X117281552Y-37493626D01*
X117493626Y-37281552D01*
X117503427Y-37272727D01*
X117736505Y-37083984D01*
X117747168Y-37076236D01*
X117998714Y-36912880D01*
X118010130Y-36906289D01*
X118277365Y-36770126D01*
X118289413Y-36764762D01*
X118569414Y-36657279D01*
X118581948Y-36653207D01*
X118726804Y-36614393D01*
X118871655Y-36575580D01*
X118884555Y-36572838D01*
X118965866Y-36559960D01*
X119180791Y-36525919D01*
X119193899Y-36524542D01*
X119269063Y-36520603D01*
X119457299Y-36510738D01*
X119483276Y-36512065D01*
X119484846Y-36512309D01*
X119484850Y-36512309D01*
X119493724Y-36513691D01*
X119502626Y-36512527D01*
X119502628Y-36512527D01*
X119517677Y-36510559D01*
X119525286Y-36509564D01*
X119541621Y-36508500D01*
X165750633Y-36508500D01*
X165770018Y-36510000D01*
G37*
%TD.AperFunction*%
%TD*%
M02*
