%TF.GenerationSoftware,KiCad,Pcbnew,(6.0.4)*%
%TF.CreationDate,2022-08-12T18:00:06-03:00*%
%TF.ProjectId,rf-system-receiver,72662d73-7973-4746-956d-2d7265636569,rev?*%
%TF.SameCoordinates,Original*%
%TF.FileFunction,Copper,L1,Top*%
%TF.FilePolarity,Positive*%
%FSLAX46Y46*%
G04 Gerber Fmt 4.6, Leading zero omitted, Abs format (unit mm)*
G04 Created by KiCad (PCBNEW (6.0.4)) date 2022-08-12 18:00:06*
%MOMM*%
%LPD*%
G01*
G04 APERTURE LIST*
G04 Aperture macros list*
%AMRoundRect*
0 Rectangle with rounded corners*
0 $1 Rounding radius*
0 $2 $3 $4 $5 $6 $7 $8 $9 X,Y pos of 4 corners*
0 Add a 4 corners polygon primitive as box body*
4,1,4,$2,$3,$4,$5,$6,$7,$8,$9,$2,$3,0*
0 Add four circle primitives for the rounded corners*
1,1,$1+$1,$2,$3*
1,1,$1+$1,$4,$5*
1,1,$1+$1,$6,$7*
1,1,$1+$1,$8,$9*
0 Add four rect primitives between the rounded corners*
20,1,$1+$1,$2,$3,$4,$5,0*
20,1,$1+$1,$4,$5,$6,$7,0*
20,1,$1+$1,$6,$7,$8,$9,0*
20,1,$1+$1,$8,$9,$2,$3,0*%
G04 Aperture macros list end*
%TA.AperFunction,ComponentPad*%
%ADD10C,2.000000*%
%TD*%
%TA.AperFunction,SMDPad,CuDef*%
%ADD11RoundRect,0.075000X-0.662500X-0.075000X0.662500X-0.075000X0.662500X0.075000X-0.662500X0.075000X0*%
%TD*%
%TA.AperFunction,SMDPad,CuDef*%
%ADD12RoundRect,0.075000X-0.075000X-0.662500X0.075000X-0.662500X0.075000X0.662500X-0.075000X0.662500X0*%
%TD*%
%TA.AperFunction,SMDPad,CuDef*%
%ADD13RoundRect,0.140000X-0.170000X0.140000X-0.170000X-0.140000X0.170000X-0.140000X0.170000X0.140000X0*%
%TD*%
%TA.AperFunction,SMDPad,CuDef*%
%ADD14RoundRect,0.250000X-0.650000X0.325000X-0.650000X-0.325000X0.650000X-0.325000X0.650000X0.325000X0*%
%TD*%
%TA.AperFunction,SMDPad,CuDef*%
%ADD15RoundRect,0.218750X-0.218750X-0.256250X0.218750X-0.256250X0.218750X0.256250X-0.218750X0.256250X0*%
%TD*%
%TA.AperFunction,SMDPad,CuDef*%
%ADD16RoundRect,0.225000X0.225000X0.250000X-0.225000X0.250000X-0.225000X-0.250000X0.225000X-0.250000X0*%
%TD*%
%TA.AperFunction,SMDPad,CuDef*%
%ADD17RoundRect,0.218750X-0.256250X0.218750X-0.256250X-0.218750X0.256250X-0.218750X0.256250X0.218750X0*%
%TD*%
%TA.AperFunction,SMDPad,CuDef*%
%ADD18RoundRect,0.218750X0.218750X0.256250X-0.218750X0.256250X-0.218750X-0.256250X0.218750X-0.256250X0*%
%TD*%
%TA.AperFunction,SMDPad,CuDef*%
%ADD19RoundRect,0.135000X-0.135000X-0.185000X0.135000X-0.185000X0.135000X0.185000X-0.135000X0.185000X0*%
%TD*%
%TA.AperFunction,SMDPad,CuDef*%
%ADD20RoundRect,0.225000X0.250000X-0.225000X0.250000X0.225000X-0.250000X0.225000X-0.250000X-0.225000X0*%
%TD*%
%TA.AperFunction,SMDPad,CuDef*%
%ADD21C,1.000000*%
%TD*%
%TA.AperFunction,SMDPad,CuDef*%
%ADD22R,3.150000X1.000000*%
%TD*%
%TA.AperFunction,SMDPad,CuDef*%
%ADD23RoundRect,0.200000X0.200000X0.275000X-0.200000X0.275000X-0.200000X-0.275000X0.200000X-0.275000X0*%
%TD*%
%TA.AperFunction,SMDPad,CuDef*%
%ADD24RoundRect,0.225000X-0.225000X-0.250000X0.225000X-0.250000X0.225000X0.250000X-0.225000X0.250000X0*%
%TD*%
%TA.AperFunction,ComponentPad*%
%ADD25C,2.100000*%
%TD*%
%TA.AperFunction,ComponentPad*%
%ADD26C,2.250000*%
%TD*%
%TA.AperFunction,SMDPad,CuDef*%
%ADD27RoundRect,0.200000X-0.200000X-0.275000X0.200000X-0.275000X0.200000X0.275000X-0.200000X0.275000X0*%
%TD*%
%TA.AperFunction,SMDPad,CuDef*%
%ADD28RoundRect,0.250000X0.375000X0.625000X-0.375000X0.625000X-0.375000X-0.625000X0.375000X-0.625000X0*%
%TD*%
%TA.AperFunction,SMDPad,CuDef*%
%ADD29RoundRect,0.250000X-0.250000X-0.475000X0.250000X-0.475000X0.250000X0.475000X-0.250000X0.475000X0*%
%TD*%
%TA.AperFunction,SMDPad,CuDef*%
%ADD30RoundRect,0.225000X-0.250000X0.225000X-0.250000X-0.225000X0.250000X-0.225000X0.250000X0.225000X0*%
%TD*%
%TA.AperFunction,SMDPad,CuDef*%
%ADD31RoundRect,0.218750X0.256250X-0.218750X0.256250X0.218750X-0.256250X0.218750X-0.256250X-0.218750X0*%
%TD*%
%TA.AperFunction,SMDPad,CuDef*%
%ADD32RoundRect,0.140000X-0.140000X-0.170000X0.140000X-0.170000X0.140000X0.170000X-0.140000X0.170000X0*%
%TD*%
%TA.AperFunction,SMDPad,CuDef*%
%ADD33RoundRect,0.200000X0.275000X-0.200000X0.275000X0.200000X-0.275000X0.200000X-0.275000X-0.200000X0*%
%TD*%
%TA.AperFunction,SMDPad,CuDef*%
%ADD34R,0.300000X0.850000*%
%TD*%
%TA.AperFunction,SMDPad,CuDef*%
%ADD35R,0.850000X0.300000*%
%TD*%
%TA.AperFunction,SMDPad,CuDef*%
%ADD36R,3.400000X3.400000*%
%TD*%
%TA.AperFunction,SMDPad,CuDef*%
%ADD37RoundRect,0.135000X0.185000X-0.135000X0.185000X0.135000X-0.185000X0.135000X-0.185000X-0.135000X0*%
%TD*%
%TA.AperFunction,SMDPad,CuDef*%
%ADD38R,2.000000X1.500000*%
%TD*%
%TA.AperFunction,SMDPad,CuDef*%
%ADD39R,2.000000X3.800000*%
%TD*%
%TA.AperFunction,SMDPad,CuDef*%
%ADD40R,1.200000X1.400000*%
%TD*%
%TA.AperFunction,SMDPad,CuDef*%
%ADD41RoundRect,0.140000X0.140000X0.170000X-0.140000X0.170000X-0.140000X-0.170000X0.140000X-0.170000X0*%
%TD*%
%TA.AperFunction,SMDPad,CuDef*%
%ADD42R,1.350000X0.400000*%
%TD*%
%TA.AperFunction,ComponentPad*%
%ADD43C,1.950000*%
%TD*%
%TA.AperFunction,SMDPad,CuDef*%
%ADD44R,1.400000X1.600000*%
%TD*%
%TA.AperFunction,SMDPad,CuDef*%
%ADD45R,1.600000X1.900000*%
%TD*%
%TA.AperFunction,SMDPad,CuDef*%
%ADD46RoundRect,0.250000X0.250000X0.475000X-0.250000X0.475000X-0.250000X-0.475000X0.250000X-0.475000X0*%
%TD*%
%TA.AperFunction,SMDPad,CuDef*%
%ADD47RoundRect,0.200000X-0.275000X0.200000X-0.275000X-0.200000X0.275000X-0.200000X0.275000X0.200000X0*%
%TD*%
%TA.AperFunction,SMDPad,CuDef*%
%ADD48RoundRect,0.150000X-0.150000X0.587500X-0.150000X-0.587500X0.150000X-0.587500X0.150000X0.587500X0*%
%TD*%
%TA.AperFunction,SMDPad,CuDef*%
%ADD49RoundRect,0.250000X0.650000X-0.325000X0.650000X0.325000X-0.650000X0.325000X-0.650000X-0.325000X0*%
%TD*%
%TA.AperFunction,ViaPad*%
%ADD50C,0.700000*%
%TD*%
%TA.AperFunction,Conductor*%
%ADD51C,0.500000*%
%TD*%
%TA.AperFunction,Conductor*%
%ADD52C,0.250000*%
%TD*%
%TA.AperFunction,Conductor*%
%ADD53C,0.293370*%
%TD*%
%TA.AperFunction,Conductor*%
%ADD54C,0.261112*%
%TD*%
%TA.AperFunction,Conductor*%
%ADD55C,0.300000*%
%TD*%
%TA.AperFunction,Conductor*%
%ADD56C,0.400000*%
%TD*%
G04 APERTURE END LIST*
D10*
%TO.P,SW1,1,1*%
%TO.N,NRST*%
X118050000Y-62020000D03*
X124550000Y-62020000D03*
%TO.P,SW1,2,2*%
%TO.N,GND*%
X124550000Y-66520000D03*
X118050000Y-66520000D03*
%TD*%
D11*
%TO.P,U1,1,VBAT*%
%TO.N,+3V3*%
X129187500Y-49250000D03*
%TO.P,U1,2,PC13*%
%TO.N,unconnected-(U1-Pad2)*%
X129187500Y-49750000D03*
%TO.P,U1,3,PC14*%
%TO.N,unconnected-(U1-Pad3)*%
X129187500Y-50250000D03*
%TO.P,U1,4,PC15*%
%TO.N,unconnected-(U1-Pad4)*%
X129187500Y-50750000D03*
%TO.P,U1,5,PD0*%
%TO.N,OSC_IN*%
X129187500Y-51250000D03*
%TO.P,U1,6,PD1*%
%TO.N,OSC_OUT*%
X129187500Y-51750000D03*
%TO.P,U1,7,NRST*%
%TO.N,NRST*%
X129187500Y-52250000D03*
%TO.P,U1,8,VSSA*%
%TO.N,GND*%
X129187500Y-52750000D03*
%TO.P,U1,9,VDDA*%
%TO.N,+3.3VA*%
X129187500Y-53250000D03*
%TO.P,U1,10,PA0*%
%TO.N,unconnected-(U1-Pad10)*%
X129187500Y-53750000D03*
%TO.P,U1,11,PA1*%
%TO.N,unconnected-(U1-Pad11)*%
X129187500Y-54250000D03*
%TO.P,U1,12,PA2*%
%TO.N,unconnected-(U1-Pad12)*%
X129187500Y-54750000D03*
D12*
%TO.P,U1,13,PA3*%
%TO.N,unconnected-(U1-Pad13)*%
X130600000Y-56162500D03*
%TO.P,U1,14,PA4*%
%TO.N,SPI_CSN*%
X131100000Y-56162500D03*
%TO.P,U1,15,PA5*%
%TO.N,SPI_SCK*%
X131600000Y-56162500D03*
%TO.P,U1,16,PA6*%
%TO.N,SPI_MISO*%
X132100000Y-56162500D03*
%TO.P,U1,17,PA7*%
%TO.N,SPI_MOSI*%
X132600000Y-56162500D03*
%TO.P,U1,18,PB0*%
%TO.N,unconnected-(U1-Pad18)*%
X133100000Y-56162500D03*
%TO.P,U1,19,PB1*%
%TO.N,DR*%
X133600000Y-56162500D03*
%TO.P,U1,20,PB2*%
%TO.N,BOOT1*%
X134100000Y-56162500D03*
%TO.P,U1,21,PB10*%
%TO.N,AM*%
X134600000Y-56162500D03*
%TO.P,U1,22,PB11*%
%TO.N,CD*%
X135100000Y-56162500D03*
%TO.P,U1,23,VSS*%
%TO.N,GND*%
X135600000Y-56162500D03*
%TO.P,U1,24,VDD*%
%TO.N,+3V3*%
X136100000Y-56162500D03*
D11*
%TO.P,U1,25,PB12*%
%TO.N,UPCLK*%
X137512500Y-54750000D03*
%TO.P,U1,26,PB13*%
%TO.N,PWR_UP*%
X137512500Y-54250000D03*
%TO.P,U1,27,PB14*%
%TO.N,TRX_CE*%
X137512500Y-53750000D03*
%TO.P,U1,28,PB15*%
%TO.N,TX_EN*%
X137512500Y-53250000D03*
%TO.P,U1,29,PA8*%
%TO.N,STATUS*%
X137512500Y-52750000D03*
%TO.P,U1,30,PA9*%
%TO.N,USB_PULLUP*%
X137512500Y-52250000D03*
%TO.P,U1,31,PA10*%
%TO.N,unconnected-(U1-Pad31)*%
X137512500Y-51750000D03*
%TO.P,U1,32,PA11*%
%TO.N,USB_D-*%
X137512500Y-51250000D03*
%TO.P,U1,33,PA12*%
%TO.N,USB_D+*%
X137512500Y-50750000D03*
%TO.P,U1,34,PA13*%
%TO.N,SWDIO*%
X137512500Y-50250000D03*
%TO.P,U1,35,VSS*%
%TO.N,GND*%
X137512500Y-49750000D03*
%TO.P,U1,36,VDD*%
%TO.N,+3V3*%
X137512500Y-49250000D03*
D12*
%TO.P,U1,37,PA14*%
%TO.N,SWCLK*%
X136100000Y-47837500D03*
%TO.P,U1,38,PA15*%
%TO.N,unconnected-(U1-Pad38)*%
X135600000Y-47837500D03*
%TO.P,U1,39,PB3*%
%TO.N,SWO*%
X135100000Y-47837500D03*
%TO.P,U1,40,PB4*%
%TO.N,unconnected-(U1-Pad40)*%
X134600000Y-47837500D03*
%TO.P,U1,41,PB5*%
%TO.N,unconnected-(U1-Pad41)*%
X134100000Y-47837500D03*
%TO.P,U1,42,PB6*%
%TO.N,unconnected-(U1-Pad42)*%
X133600000Y-47837500D03*
%TO.P,U1,43,PB7*%
%TO.N,unconnected-(U1-Pad43)*%
X133100000Y-47837500D03*
%TO.P,U1,44,BOOT0*%
%TO.N,BOOT0*%
X132600000Y-47837500D03*
%TO.P,U1,45,PB8*%
%TO.N,unconnected-(U1-Pad45)*%
X132100000Y-47837500D03*
%TO.P,U1,46,PB9*%
%TO.N,unconnected-(U1-Pad46)*%
X131600000Y-47837500D03*
%TO.P,U1,47,VSS*%
%TO.N,GND*%
X131100000Y-47837500D03*
%TO.P,U1,48,VDD*%
%TO.N,+3V3*%
X130600000Y-47837500D03*
%TD*%
D13*
%TO.P,C15,1*%
%TO.N,+3V3*%
X139250000Y-48520000D03*
%TO.P,C15,2*%
%TO.N,GND*%
X139250000Y-49480000D03*
%TD*%
D14*
%TO.P,C8,1*%
%TO.N,+3V3*%
X160000000Y-64200000D03*
%TO.P,C8,2*%
%TO.N,GND*%
X160000000Y-67150000D03*
%TD*%
D15*
%TO.P,FB1,1*%
%TO.N,+3V3*%
X125212500Y-59400000D03*
%TO.P,FB1,2*%
%TO.N,+3.3VA*%
X126787500Y-59400000D03*
%TD*%
D16*
%TO.P,C7,1*%
%TO.N,Net-(C12-Pad1)*%
X136175000Y-69300000D03*
%TO.P,C7,2*%
%TO.N,GND*%
X134625000Y-69300000D03*
%TD*%
D17*
%TO.P,L2,1*%
%TO.N,Net-(C10-Pad2)*%
X139800000Y-74712500D03*
%TO.P,L2,2*%
%TO.N,Net-(C13-Pad1)*%
X139800000Y-76287500D03*
%TD*%
D18*
%TO.P,D1,1,K*%
%TO.N,Net-(D1-Pad1)*%
X147462500Y-58800000D03*
%TO.P,D1,2,A*%
%TO.N,+3V3*%
X145887500Y-58800000D03*
%TD*%
D19*
%TO.P,R5,1*%
%TO.N,Net-(C20-Pad1)*%
X126190000Y-52250000D03*
%TO.P,R5,2*%
%TO.N,OSC_OUT*%
X127210000Y-52250000D03*
%TD*%
D20*
%TO.P,C10,1*%
%TO.N,GND*%
X141400000Y-72675000D03*
%TO.P,C10,2*%
%TO.N,Net-(C10-Pad2)*%
X141400000Y-71125000D03*
%TD*%
D21*
%TO.P,FID4,*%
%TO.N,*%
X166300000Y-39100000D03*
%TD*%
D22*
%TO.P,J3,1,Pin_1*%
%TO.N,+3V3*%
X151125000Y-48080000D03*
%TO.P,J3,2,Pin_2*%
%TO.N,SWDIO*%
X146075000Y-48080000D03*
%TO.P,J3,3,Pin_3*%
%TO.N,GND*%
X151125000Y-45540000D03*
%TO.P,J3,4,Pin_4*%
%TO.N,SWCLK*%
X146075000Y-45540000D03*
%TO.P,J3,5,Pin_5*%
%TO.N,GND*%
X151125000Y-43000000D03*
%TO.P,J3,6,Pin_6*%
%TO.N,SWO*%
X146075000Y-43000000D03*
%TO.P,J3,7,Pin_7*%
%TO.N,unconnected-(J3-Pad7)*%
X151125000Y-40460000D03*
%TO.P,J3,8,Pin_8*%
%TO.N,unconnected-(J3-Pad8)*%
X146075000Y-40460000D03*
%TO.P,J3,9,Pin_9*%
%TO.N,GND*%
X151125000Y-37920000D03*
%TO.P,J3,10,Pin_10*%
%TO.N,NRST*%
X146075000Y-37920000D03*
%TD*%
D23*
%TO.P,R2,1*%
%TO.N,Net-(IC1-Pad23)*%
X144825000Y-68800000D03*
%TO.P,R2,2*%
%TO.N,GND*%
X143175000Y-68800000D03*
%TD*%
D24*
%TO.P,C1,1*%
%TO.N,GND*%
X138225000Y-58797745D03*
%TO.P,C1,2*%
%TO.N,+3V3*%
X139775000Y-58797745D03*
%TD*%
D25*
%TO.P,J2,1,1*%
%TO.N,Net-(C13-Pad2)*%
X141500000Y-82100000D03*
D26*
%TO.P,J2,2,2*%
%TO.N,GND*%
X144050000Y-84650000D03*
%TO.P,J2,3,3*%
X144050000Y-79550000D03*
%TO.P,J2,4,4*%
X138950000Y-79550000D03*
%TO.P,J2,5,5*%
X138950000Y-84650000D03*
%TD*%
D13*
%TO.P,C23,1*%
%TO.N,NRST*%
X127000000Y-60920000D03*
%TO.P,C23,2*%
%TO.N,GND*%
X127000000Y-61880000D03*
%TD*%
D27*
%TO.P,R6,1*%
%TO.N,BOOT1*%
X138675000Y-47000000D03*
%TO.P,R6,2*%
%TO.N,GND*%
X140325000Y-47000000D03*
%TD*%
D28*
%TO.P,F1,1*%
%TO.N,+5V*%
X165300000Y-62075000D03*
%TO.P,F1,2*%
%TO.N,Net-(C2-Pad1)*%
X162500000Y-62075000D03*
%TD*%
D29*
%TO.P,C14,1*%
%TO.N,+3V3*%
X129950000Y-44200000D03*
%TO.P,C14,2*%
%TO.N,GND*%
X131850000Y-44200000D03*
%TD*%
D21*
%TO.P,FID2,*%
%TO.N,*%
X165800000Y-76800000D03*
%TD*%
D30*
%TO.P,C13,1*%
%TO.N,Net-(C13-Pad1)*%
X141500000Y-74725000D03*
%TO.P,C13,2*%
%TO.N,Net-(C13-Pad2)*%
X141500000Y-76275000D03*
%TD*%
D31*
%TO.P,L3,1*%
%TO.N,Net-(C12-Pad1)*%
X138100000Y-76287500D03*
%TO.P,L3,2*%
%TO.N,Net-(C11-Pad1)*%
X138100000Y-74712500D03*
%TD*%
D32*
%TO.P,C19,1*%
%TO.N,OSC_IN*%
X123320000Y-48400000D03*
%TO.P,C19,2*%
%TO.N,GND*%
X124280000Y-48400000D03*
%TD*%
D23*
%TO.P,R3,1*%
%TO.N,Net-(D1-Pad1)*%
X147500000Y-60800000D03*
%TO.P,R3,2*%
%TO.N,GND*%
X145850000Y-60800000D03*
%TD*%
D33*
%TO.P,R9,1*%
%TO.N,+5V*%
X164090000Y-43292500D03*
%TO.P,R9,2*%
%TO.N,Net-(Q1-Pad1)*%
X164090000Y-41642500D03*
%TD*%
D32*
%TO.P,C4,1*%
%TO.N,XC1*%
X130440000Y-63285000D03*
%TO.P,C4,2*%
%TO.N,GND*%
X131400000Y-63285000D03*
%TD*%
D34*
%TO.P,IC1,1,TRX_CE*%
%TO.N,TRX_CE*%
X140750000Y-61700000D03*
%TO.P,IC1,2,PWR_UP*%
%TO.N,PWR_UP*%
X140250000Y-61700000D03*
%TO.P,IC1,3,UPCLK*%
%TO.N,UPCLK*%
X139750000Y-61700000D03*
%TO.P,IC1,4,VDD_1*%
%TO.N,+3V3*%
X139250000Y-61700000D03*
%TO.P,IC1,5,VSS_1*%
%TO.N,GND*%
X138750000Y-61700000D03*
%TO.P,IC1,6,CD*%
%TO.N,CD*%
X138250000Y-61700000D03*
%TO.P,IC1,7,AM*%
%TO.N,AM*%
X137750000Y-61700000D03*
%TO.P,IC1,8,DR*%
%TO.N,DR*%
X137250000Y-61700000D03*
D35*
%TO.P,IC1,9,VSS_2*%
%TO.N,GND*%
X136550000Y-62400000D03*
%TO.P,IC1,10,MISO*%
%TO.N,SPI_MISO*%
X136550000Y-62900000D03*
%TO.P,IC1,11,MOSI*%
%TO.N,SPI_MOSI*%
X136550000Y-63400000D03*
%TO.P,IC1,12,SCK*%
%TO.N,SPI_SCK*%
X136550000Y-63900000D03*
%TO.P,IC1,13,CSN*%
%TO.N,SPI_CSN*%
X136550000Y-64400000D03*
%TO.P,IC1,14,XC1*%
%TO.N,XC1*%
X136550000Y-64900000D03*
%TO.P,IC1,15,XC2*%
%TO.N,XC2*%
X136550000Y-65400000D03*
%TO.P,IC1,16,VSS_3*%
%TO.N,GND*%
X136550000Y-65900000D03*
D34*
%TO.P,IC1,17,VDD_2*%
%TO.N,+3V3*%
X137250000Y-66600000D03*
%TO.P,IC1,18,VSS_4*%
%TO.N,GND*%
X137750000Y-66600000D03*
%TO.P,IC1,19,VDD_PA*%
%TO.N,Net-(C12-Pad1)*%
X138250000Y-66600000D03*
%TO.P,IC1,20,ANT1*%
%TO.N,Net-(C11-Pad1)*%
X138750000Y-66600000D03*
%TO.P,IC1,21,ANT2*%
%TO.N,Net-(C10-Pad2)*%
X139250000Y-66600000D03*
%TO.P,IC1,22,VSS_5*%
%TO.N,GND*%
X139750000Y-66600000D03*
%TO.P,IC1,23,IREF*%
%TO.N,Net-(IC1-Pad23)*%
X140250000Y-66600000D03*
%TO.P,IC1,24,VSS_6*%
%TO.N,GND*%
X140750000Y-66600000D03*
D35*
%TO.P,IC1,25,VDD_3*%
%TO.N,+3V3*%
X141450000Y-65900000D03*
%TO.P,IC1,26,VSS_7*%
%TO.N,GND*%
X141450000Y-65400000D03*
%TO.P,IC1,27,VSS_8*%
X141450000Y-64900000D03*
%TO.P,IC1,28,VSS_9*%
X141450000Y-64400000D03*
%TO.P,IC1,29,VSS_10*%
X141450000Y-63900000D03*
%TO.P,IC1,30,VSS_11*%
X141450000Y-63400000D03*
%TO.P,IC1,31,DVDD_1V2*%
%TO.N,Net-(C3-Pad2)*%
X141450000Y-62900000D03*
%TO.P,IC1,32,TX_EN*%
%TO.N,TX_EN*%
X141450000Y-62400000D03*
D36*
%TO.P,IC1,33,EP*%
%TO.N,unconnected-(IC1-Pad33)*%
X139000000Y-64150000D03*
%TD*%
D37*
%TO.P,R1,1*%
%TO.N,XC2*%
X134070000Y-66520000D03*
%TO.P,R1,2*%
%TO.N,XC1*%
X134070000Y-65500000D03*
%TD*%
D18*
%TO.P,L1,1*%
%TO.N,Net-(C10-Pad2)*%
X139687500Y-71200000D03*
%TO.P,L1,2*%
%TO.N,Net-(C11-Pad1)*%
X138112500Y-71200000D03*
%TD*%
D30*
%TO.P,C11,1*%
%TO.N,Net-(C11-Pad1)*%
X136400000Y-71125000D03*
%TO.P,C11,2*%
%TO.N,GND*%
X136400000Y-72675000D03*
%TD*%
D38*
%TO.P,U2,1,GND*%
%TO.N,GND*%
X157150000Y-66675000D03*
D39*
%TO.P,U2,2,VO*%
%TO.N,+3V3*%
X150850000Y-64375000D03*
D38*
X157150000Y-64375000D03*
%TO.P,U2,3,VI*%
%TO.N,Net-(C2-Pad1)*%
X157150000Y-62075000D03*
%TD*%
D33*
%TO.P,R7,1*%
%TO.N,Net-(D2-Pad1)*%
X154093750Y-57425000D03*
%TO.P,R7,2*%
%TO.N,GND*%
X154093750Y-55775000D03*
%TD*%
D40*
%TO.P,X2,1,1*%
%TO.N,OSC_IN*%
X122950000Y-50150000D03*
%TO.P,X2,2,2*%
%TO.N,GND*%
X122950000Y-52350000D03*
%TO.P,X2,3,3*%
%TO.N,Net-(C20-Pad1)*%
X124650000Y-52350000D03*
%TO.P,X2,4,4*%
%TO.N,GND*%
X124650000Y-50150000D03*
%TD*%
D30*
%TO.P,C6,1*%
%TO.N,+3V3*%
X143200000Y-65225000D03*
%TO.P,C6,2*%
%TO.N,GND*%
X143200000Y-66775000D03*
%TD*%
D41*
%TO.P,C20,1*%
%TO.N,Net-(C20-Pad1)*%
X124280000Y-54100000D03*
%TO.P,C20,2*%
%TO.N,GND*%
X123320000Y-54100000D03*
%TD*%
D30*
%TO.P,C12,1*%
%TO.N,Net-(C12-Pad1)*%
X136400000Y-74725000D03*
%TO.P,C12,2*%
%TO.N,GND*%
X136400000Y-76275000D03*
%TD*%
D41*
%TO.P,C22,1*%
%TO.N,+3.3VA*%
X126980000Y-55650000D03*
%TO.P,C22,2*%
%TO.N,GND*%
X126020000Y-55650000D03*
%TD*%
D42*
%TO.P,J1,1,VBUS*%
%TO.N,+5V*%
X162890000Y-51967500D03*
%TO.P,J1,2,D-*%
%TO.N,USB_D-*%
X162890000Y-51317500D03*
%TO.P,J1,3,D+*%
%TO.N,USB_D+*%
X162890000Y-50667500D03*
%TO.P,J1,4,ID*%
%TO.N,Net-(J1-Pad4)*%
X162890000Y-50017500D03*
%TO.P,J1,5,GND*%
%TO.N,GND*%
X162890000Y-49367500D03*
D43*
%TO.P,J1,MH1*%
%TO.N,N/C*%
X165565000Y-53967500D03*
%TO.P,J1,MH2*%
X165565000Y-47367500D03*
D44*
%TO.P,J1,MP1*%
X163115000Y-53867500D03*
D45*
%TO.P,J1,MP2*%
X165565000Y-51867500D03*
%TO.P,J1,MP3*%
X165565000Y-49467500D03*
D44*
%TO.P,J1,MP4*%
X163115000Y-47467500D03*
%TD*%
D40*
%TO.P,X1,1,1*%
%TO.N,XC1*%
X130070000Y-64995000D03*
%TO.P,X1,2,2*%
%TO.N,GND*%
X130070000Y-67195000D03*
%TO.P,X1,3,3*%
%TO.N,XC2*%
X131770000Y-67195000D03*
%TO.P,X1,4,4*%
%TO.N,GND*%
X131770000Y-64995000D03*
%TD*%
D21*
%TO.P,FID3,*%
%TO.N,*%
X119100000Y-83700000D03*
%TD*%
D46*
%TO.P,C21,1*%
%TO.N,+3.3VA*%
X126700000Y-57400000D03*
%TO.P,C21,2*%
%TO.N,GND*%
X124800000Y-57400000D03*
%TD*%
D47*
%TO.P,R10,1*%
%TO.N,Net-(Q1-Pad1)*%
X160690000Y-41642500D03*
%TO.P,R10,2*%
%TO.N,GND*%
X160690000Y-43292500D03*
%TD*%
D20*
%TO.P,C3,1*%
%TO.N,GND*%
X143500000Y-63522745D03*
%TO.P,C3,2*%
%TO.N,Net-(C3-Pad2)*%
X143500000Y-61972745D03*
%TD*%
D48*
%TO.P,Q1,1,B*%
%TO.N,Net-(Q1-Pad1)*%
X158540000Y-41130000D03*
%TO.P,Q1,2,C*%
%TO.N,+3V3*%
X156640000Y-41130000D03*
%TO.P,Q1,3,E*%
%TO.N,USB_D+*%
X157590000Y-43005000D03*
%TD*%
D33*
%TO.P,R8,1*%
%TO.N,Net-(J1-Pad4)*%
X158690000Y-48292500D03*
%TO.P,R8,2*%
%TO.N,GND*%
X158690000Y-46642500D03*
%TD*%
D41*
%TO.P,C18,1*%
%TO.N,+3V3*%
X128980000Y-48100000D03*
%TO.P,C18,2*%
%TO.N,GND*%
X128020000Y-48100000D03*
%TD*%
D21*
%TO.P,FID1,*%
%TO.N,*%
X126900000Y-39400000D03*
%TD*%
D32*
%TO.P,C17,1*%
%TO.N,+3V3*%
X130320000Y-46100000D03*
%TO.P,C17,2*%
%TO.N,GND*%
X131280000Y-46100000D03*
%TD*%
D33*
%TO.P,R4,1*%
%TO.N,BOOT0*%
X134000000Y-44425000D03*
%TO.P,R4,2*%
%TO.N,GND*%
X134000000Y-42775000D03*
%TD*%
D47*
%TO.P,R11,1*%
%TO.N,Net-(Q1-Pad1)*%
X162390000Y-41642500D03*
%TO.P,R11,2*%
%TO.N,USB_PULLUP*%
X162390000Y-43292500D03*
%TD*%
D31*
%TO.P,D2,1,K*%
%TO.N,Net-(D2-Pad1)*%
X152193750Y-57387500D03*
%TO.P,D2,2,A*%
%TO.N,STATUS*%
X152193750Y-55812500D03*
%TD*%
D49*
%TO.P,C2,1*%
%TO.N,Net-(C2-Pad1)*%
X160000000Y-62050000D03*
%TO.P,C2,2*%
%TO.N,GND*%
X160000000Y-59100000D03*
%TD*%
D41*
%TO.P,C5,1*%
%TO.N,XC2*%
X131400000Y-69035000D03*
%TO.P,C5,2*%
%TO.N,GND*%
X130440000Y-69035000D03*
%TD*%
D13*
%TO.P,C16,1*%
%TO.N,+3V3*%
X137750000Y-56120000D03*
%TO.P,C16,2*%
%TO.N,GND*%
X137750000Y-57080000D03*
%TD*%
D30*
%TO.P,C9,1*%
%TO.N,+3V3*%
X145000000Y-65225000D03*
%TO.P,C9,2*%
%TO.N,GND*%
X145000000Y-66775000D03*
%TD*%
D50*
%TO.N,GND*%
X120000000Y-47000000D03*
X120000000Y-51000000D03*
X120000000Y-55000000D03*
X120000000Y-59000000D03*
X119987016Y-69987016D03*
X165000000Y-73974032D03*
X157000000Y-70000000D03*
X161000000Y-82000000D03*
X161000000Y-78000000D03*
X161000000Y-74000000D03*
X157000000Y-74000000D03*
X157000000Y-78000000D03*
X156987016Y-82000000D03*
X132000000Y-82000000D03*
X128000000Y-74000000D03*
X128000000Y-78000000D03*
X128000000Y-82000000D03*
X123999999Y-82000000D03*
X124000000Y-78000000D03*
X123999055Y-74000000D03*
X124000000Y-70000000D03*
X137100000Y-58700000D03*
X146000000Y-62000000D03*
X158500000Y-58000000D03*
X138700000Y-57100000D03*
X132300000Y-63500000D03*
X153400000Y-45500000D03*
X140300000Y-49400000D03*
X146200000Y-66500000D03*
X129500000Y-69000000D03*
X137500000Y-67700000D03*
X133500000Y-69300000D03*
X160700000Y-44500000D03*
X125300000Y-48400000D03*
X122200000Y-54100000D03*
X135500000Y-66500000D03*
X134000000Y-41600000D03*
X162000000Y-67500000D03*
X143200000Y-70100000D03*
X142600000Y-72700000D03*
X132300000Y-45700000D03*
X131900000Y-42600000D03*
X158000000Y-59000000D03*
X144800000Y-63500000D03*
X135200000Y-76300000D03*
X135500000Y-61500000D03*
X154093750Y-54600000D03*
X125000000Y-55700000D03*
X153400000Y-37900000D03*
X146200000Y-67400000D03*
X127000000Y-48100000D03*
X153400000Y-43000000D03*
X141500000Y-47000000D03*
X123500000Y-57400000D03*
X158700000Y-45400000D03*
X135200000Y-72700000D03*
X127000000Y-62800000D03*
X161600000Y-48700000D03*
X161500000Y-68500000D03*
%TO.N,+3V3*%
X138700000Y-56100000D03*
X136200000Y-67600000D03*
X149000000Y-64250000D03*
X145750000Y-57500000D03*
X123900000Y-59400000D03*
X162000000Y-65500000D03*
X153500000Y-48100000D03*
X156600000Y-39600000D03*
X146200000Y-65500000D03*
X129000000Y-47100000D03*
X129200000Y-45800000D03*
X162000000Y-64500000D03*
X149000000Y-63250000D03*
X149000000Y-65250000D03*
X139800000Y-57600000D03*
X128600000Y-44200000D03*
X140300000Y-48400000D03*
X146200000Y-64600000D03*
%TO.N,NRST*%
X132600000Y-50400000D03*
X134800000Y-45800000D03*
%TO.N,+5V*%
X161300000Y-55250000D03*
X163250000Y-58000000D03*
%TO.N,SPI_MOSI*%
X134300000Y-60300000D03*
X134900000Y-62900000D03*
%TD*%
D51*
%TO.N,GND*%
X131900000Y-44150000D02*
X131850000Y-44200000D01*
X161500000Y-68500000D02*
X161500000Y-68000000D01*
D52*
X124280000Y-49780000D02*
X124650000Y-50150000D01*
D51*
X160350000Y-67500000D02*
X160000000Y-67150000D01*
D52*
X135600000Y-56162500D02*
X135600000Y-56965006D01*
X138750000Y-61700000D02*
X138750000Y-59322745D01*
X128249276Y-52750000D02*
X126020000Y-54979276D01*
D51*
X160000000Y-67150000D02*
X157625000Y-67150000D01*
X131900000Y-42600000D02*
X131900000Y-44150000D01*
D52*
X144777255Y-63522745D02*
X144800000Y-63500000D01*
D51*
X132300000Y-45700000D02*
X131680000Y-45700000D01*
D52*
X137100000Y-58700000D02*
X138127255Y-58700000D01*
X143500000Y-63522745D02*
X144777255Y-63522745D01*
X135600000Y-56965006D02*
X135934994Y-57300000D01*
X131100000Y-47837500D02*
X131100000Y-46280000D01*
D53*
X135200000Y-72700000D02*
X136375000Y-72700000D01*
D52*
X137750000Y-57080000D02*
X138680000Y-57080000D01*
X151165000Y-45500000D02*
X151125000Y-45540000D01*
D51*
X131850000Y-44200000D02*
X131850000Y-45530000D01*
D52*
X141450000Y-63400000D02*
X143377255Y-63400000D01*
D53*
X141400000Y-72675000D02*
X142575000Y-72675000D01*
X139750000Y-66600000D02*
X139750000Y-67750000D01*
X143175000Y-70075000D02*
X143200000Y-70100000D01*
D52*
X124280000Y-48400000D02*
X124280000Y-49780000D01*
X153400000Y-37900000D02*
X151145000Y-37900000D01*
X135934994Y-57300000D02*
X137530000Y-57300000D01*
X151145000Y-37900000D02*
X151125000Y-37920000D01*
X129535000Y-69035000D02*
X129500000Y-69000000D01*
X125000000Y-55700000D02*
X125970000Y-55700000D01*
X138680000Y-57080000D02*
X138700000Y-57100000D01*
X136550000Y-65900000D02*
X136100000Y-65900000D01*
X129187500Y-52750000D02*
X128249276Y-52750000D01*
D54*
X158690000Y-46642500D02*
X158690000Y-45410000D01*
D52*
X123320000Y-54100000D02*
X123320000Y-52720000D01*
D51*
X145925000Y-66775000D02*
X146200000Y-66500000D01*
D52*
X154093750Y-55775000D02*
X154093750Y-54600000D01*
X139330000Y-49400000D02*
X139250000Y-49480000D01*
X140750000Y-66600000D02*
X144825000Y-66600000D01*
X130440000Y-69035000D02*
X130440000Y-67565000D01*
D51*
X131850000Y-45530000D02*
X131280000Y-46100000D01*
D54*
X162890000Y-49367500D02*
X162267500Y-49367500D01*
D52*
X124280000Y-48400000D02*
X125300000Y-48400000D01*
X131400000Y-63285000D02*
X132085000Y-63285000D01*
X137750000Y-67450000D02*
X137500000Y-67700000D01*
D51*
X158500000Y-58000000D02*
X158500000Y-58500000D01*
D52*
X131400000Y-64625000D02*
X131770000Y-64995000D01*
D53*
X133500000Y-69300000D02*
X134625000Y-69300000D01*
D52*
X137512500Y-49750000D02*
X138980000Y-49750000D01*
X153400000Y-45500000D02*
X151165000Y-45500000D01*
X127000000Y-48100000D02*
X128020000Y-48100000D01*
D51*
X160000000Y-59100000D02*
X159900000Y-59000000D01*
D52*
X136400000Y-62400000D02*
X135500000Y-61500000D01*
D55*
X137750000Y-66600000D02*
X137750000Y-67450000D01*
D51*
X160650000Y-67150000D02*
X160000000Y-67150000D01*
D52*
X130440000Y-67565000D02*
X130070000Y-67195000D01*
X134000000Y-41600000D02*
X134000000Y-42775000D01*
X138980000Y-49750000D02*
X139250000Y-49480000D01*
X136100000Y-65900000D02*
X135500000Y-66500000D01*
D51*
X162000000Y-67500000D02*
X162000000Y-68000000D01*
X157625000Y-67150000D02*
X157150000Y-66675000D01*
X162000000Y-67500000D02*
X160350000Y-67500000D01*
X146200000Y-66500000D02*
X146200000Y-67400000D01*
D53*
X143175000Y-68800000D02*
X143175000Y-70075000D01*
D52*
X123500000Y-57400000D02*
X124800000Y-57400000D01*
X138750000Y-59322745D02*
X138225000Y-58797745D01*
D51*
X146000000Y-62000000D02*
X146000000Y-60950000D01*
X159900000Y-59000000D02*
X158500000Y-59000000D01*
D52*
X144825000Y-66600000D02*
X145000000Y-66775000D01*
D53*
X142575000Y-72675000D02*
X142600000Y-72700000D01*
X136375000Y-72700000D02*
X136400000Y-72675000D01*
D51*
X159000000Y-59000000D02*
X159900000Y-59000000D01*
X162000000Y-68000000D02*
X161500000Y-68500000D01*
D52*
X125970000Y-55700000D02*
X126020000Y-55650000D01*
X141450000Y-65400000D02*
X141450000Y-63400000D01*
D51*
X145000000Y-66775000D02*
X145475000Y-66775000D01*
X161500000Y-68000000D02*
X162000000Y-67500000D01*
X145475000Y-66775000D02*
X146100000Y-67400000D01*
D53*
X140800000Y-68800000D02*
X143175000Y-68800000D01*
D51*
X158500000Y-58000000D02*
X159000000Y-58500000D01*
D52*
X122200000Y-54100000D02*
X123320000Y-54100000D01*
D51*
X158000000Y-59000000D02*
X158500000Y-59000000D01*
D52*
X138127255Y-58700000D02*
X138225000Y-58797745D01*
X132085000Y-63285000D02*
X132300000Y-63500000D01*
X126020000Y-54979276D02*
X126020000Y-55650000D01*
D51*
X158500000Y-58500000D02*
X159000000Y-59000000D01*
D52*
X127000000Y-61880000D02*
X127000000Y-62800000D01*
X143377255Y-63400000D02*
X143500000Y-63522745D01*
D53*
X136375000Y-76300000D02*
X136400000Y-76275000D01*
D51*
X145000000Y-66775000D02*
X145925000Y-66775000D01*
X161500000Y-68000000D02*
X160650000Y-67150000D01*
X159000000Y-58500000D02*
X159000000Y-59000000D01*
X158500000Y-59000000D02*
X159000000Y-59000000D01*
D52*
X136550000Y-62400000D02*
X136400000Y-62400000D01*
D51*
X158500000Y-58500000D02*
X158000000Y-59000000D01*
X146000000Y-60950000D02*
X145850000Y-60800000D01*
D54*
X160690000Y-43292500D02*
X160690000Y-44490000D01*
D52*
X130440000Y-69035000D02*
X129535000Y-69035000D01*
X140300000Y-49400000D02*
X139330000Y-49400000D01*
D53*
X139750000Y-67750000D02*
X140800000Y-68800000D01*
D52*
X137530000Y-57300000D02*
X137750000Y-57080000D01*
X140325000Y-47000000D02*
X141500000Y-47000000D01*
X153400000Y-43000000D02*
X151125000Y-43000000D01*
X131400000Y-63285000D02*
X131400000Y-64625000D01*
D54*
X160690000Y-44490000D02*
X160700000Y-44500000D01*
D52*
X131100000Y-46280000D02*
X131280000Y-46100000D01*
X123320000Y-52720000D02*
X122950000Y-52350000D01*
D51*
X131680000Y-45700000D02*
X131280000Y-46100000D01*
X146100000Y-67400000D02*
X146200000Y-67400000D01*
D53*
X135200000Y-76300000D02*
X136375000Y-76300000D01*
D54*
X162267500Y-49367500D02*
X161600000Y-48700000D01*
X158690000Y-45410000D02*
X158700000Y-45400000D01*
D51*
%TO.N,+3V3*%
X130020000Y-45800000D02*
X130320000Y-46100000D01*
D52*
X136100000Y-56162500D02*
X137707500Y-56162500D01*
D51*
X150125000Y-64375000D02*
X150850000Y-64375000D01*
X129950000Y-45730000D02*
X130320000Y-46100000D01*
X149000000Y-63750000D02*
X149375000Y-64125000D01*
D52*
X130600000Y-46380000D02*
X130320000Y-46100000D01*
X139250000Y-59322745D02*
X139775000Y-58797745D01*
X137512500Y-49250000D02*
X137950000Y-49250000D01*
D51*
X149000000Y-64250000D02*
X150725000Y-64250000D01*
X150725000Y-64250000D02*
X150850000Y-64375000D01*
X145925000Y-65225000D02*
X146200000Y-65500000D01*
X159825000Y-64375000D02*
X160000000Y-64200000D01*
X162000000Y-64500000D02*
X160300000Y-64500000D01*
D52*
X137250000Y-66600000D02*
X137200000Y-66600000D01*
D51*
X149000000Y-65250000D02*
X149375000Y-64875000D01*
X149000000Y-63250000D02*
X149000000Y-65250000D01*
X145575000Y-65225000D02*
X146200000Y-64600000D01*
X149750000Y-64250000D02*
X150725000Y-64250000D01*
X128600000Y-44200000D02*
X129950000Y-44200000D01*
D52*
X138700000Y-56100000D02*
X137770000Y-56100000D01*
X123900000Y-59400000D02*
X125212500Y-59400000D01*
D51*
X162000000Y-65500000D02*
X162000000Y-64500000D01*
X162000000Y-64500000D02*
X161500000Y-65000000D01*
D52*
X128980000Y-48100000D02*
X128980000Y-49042500D01*
X137200000Y-66600000D02*
X136200000Y-67600000D01*
D51*
X160300000Y-64500000D02*
X160000000Y-64200000D01*
X149375000Y-64125000D02*
X149375000Y-64875000D01*
D52*
X139250000Y-61700000D02*
X139250000Y-59322745D01*
D51*
X149000000Y-63250000D02*
X149000000Y-63750000D01*
D52*
X140300000Y-48400000D02*
X139370000Y-48400000D01*
X151145000Y-48100000D02*
X151125000Y-48080000D01*
D51*
X149375000Y-64875000D02*
X149750000Y-64500000D01*
D52*
X137950000Y-49250000D02*
X138680000Y-48520000D01*
D51*
X161500000Y-65000000D02*
X160700000Y-64200000D01*
X149000000Y-63250000D02*
X150125000Y-64375000D01*
D52*
X130600000Y-47837500D02*
X130600000Y-46380000D01*
D51*
X145750000Y-58662500D02*
X145887500Y-58800000D01*
X162000000Y-65500000D02*
X161500000Y-65000000D01*
X160700000Y-64200000D02*
X160000000Y-64200000D01*
X146200000Y-65500000D02*
X146200000Y-64600000D01*
D52*
X137770000Y-56100000D02*
X137750000Y-56120000D01*
D51*
X129950000Y-44200000D02*
X129950000Y-45730000D01*
D52*
X139775000Y-57625000D02*
X139800000Y-57600000D01*
X139370000Y-48400000D02*
X139250000Y-48520000D01*
D51*
X145000000Y-65225000D02*
X145575000Y-65225000D01*
X145750000Y-57500000D02*
X145750000Y-58662500D01*
D52*
X138680000Y-48520000D02*
X139250000Y-48520000D01*
D54*
X156600000Y-41090000D02*
X156640000Y-41130000D01*
D51*
X145000000Y-65225000D02*
X145925000Y-65225000D01*
D54*
X156600000Y-39600000D02*
X156600000Y-41090000D01*
D52*
X142525000Y-65900000D02*
X143200000Y-65225000D01*
X129000000Y-47100000D02*
X129000000Y-48080000D01*
X128980000Y-49042500D02*
X129187500Y-49250000D01*
X137707500Y-56162500D02*
X137750000Y-56120000D01*
X143200000Y-65225000D02*
X145000000Y-65225000D01*
D51*
X157150000Y-64375000D02*
X159825000Y-64375000D01*
X129200000Y-45800000D02*
X130020000Y-45800000D01*
D52*
X129000000Y-48080000D02*
X128980000Y-48100000D01*
X153500000Y-48100000D02*
X151145000Y-48100000D01*
X141450000Y-65900000D02*
X142525000Y-65900000D01*
D51*
X149750000Y-64500000D02*
X149750000Y-64250000D01*
D52*
X139775000Y-58797745D02*
X139775000Y-57625000D01*
D51*
%TO.N,Net-(C2-Pad1)*%
X157150000Y-62075000D02*
X159975000Y-62075000D01*
X162500000Y-62075000D02*
X160025000Y-62075000D01*
X160025000Y-62075000D02*
X160000000Y-62050000D01*
X159975000Y-62075000D02*
X160000000Y-62050000D01*
D52*
%TO.N,Net-(C3-Pad2)*%
X141450000Y-62900000D02*
X142572745Y-62900000D01*
X142572745Y-62900000D02*
X143500000Y-61972745D01*
%TO.N,XC1*%
X133470000Y-66100000D02*
X131075000Y-66100000D01*
X130070000Y-65095000D02*
X130070000Y-64995000D01*
X134670000Y-64900000D02*
X134070000Y-65500000D01*
X136550000Y-64900000D02*
X134670000Y-64900000D01*
X130440000Y-64625000D02*
X130070000Y-64995000D01*
X134070000Y-65500000D02*
X133470000Y-66100000D01*
X130440000Y-63285000D02*
X130440000Y-64625000D01*
X131075000Y-66100000D02*
X130070000Y-65095000D01*
%TO.N,XC2*%
X133395000Y-67195000D02*
X131770000Y-67195000D01*
X135190000Y-65400000D02*
X134070000Y-66520000D01*
X131400000Y-67565000D02*
X131770000Y-67195000D01*
X136550000Y-65400000D02*
X135190000Y-65400000D01*
X134070000Y-66520000D02*
X133395000Y-67195000D01*
X131400000Y-69035000D02*
X131400000Y-67565000D01*
D53*
%TO.N,Net-(C12-Pad1)*%
X136400000Y-74725000D02*
X136537500Y-74725000D01*
X137400000Y-69300000D02*
X136175000Y-69300000D01*
X136537500Y-74725000D02*
X138100000Y-76287500D01*
X136100000Y-69300000D02*
X134300000Y-71100000D01*
X138250000Y-68450000D02*
X137400000Y-69300000D01*
X136175000Y-69300000D02*
X136100000Y-69300000D01*
X135925000Y-74725000D02*
X136400000Y-74725000D01*
X138250000Y-66600000D02*
X138250000Y-68450000D01*
X134300000Y-73100000D02*
X135925000Y-74725000D01*
X134300000Y-71100000D02*
X134300000Y-73100000D01*
%TO.N,Net-(C10-Pad2)*%
X139800000Y-71312500D02*
X139800000Y-74712500D01*
X139250000Y-70762500D02*
X139687500Y-71200000D01*
X139687500Y-71200000D02*
X139800000Y-71312500D01*
X141400000Y-71125000D02*
X139762500Y-71125000D01*
X139250000Y-66600000D02*
X139250000Y-70762500D01*
X139762500Y-71125000D02*
X139687500Y-71200000D01*
%TO.N,Net-(C11-Pad1)*%
X138112500Y-74700000D02*
X138100000Y-74712500D01*
X138750000Y-70562500D02*
X138112500Y-71200000D01*
X138750000Y-66600000D02*
X138750000Y-70562500D01*
X138037500Y-71125000D02*
X138112500Y-71200000D01*
X138112500Y-71200000D02*
X138112500Y-74700000D01*
X136400000Y-71125000D02*
X138037500Y-71125000D01*
%TO.N,Net-(C13-Pad1)*%
X141500000Y-74725000D02*
X141362500Y-74725000D01*
X141362500Y-74725000D02*
X139800000Y-76287500D01*
%TO.N,Net-(C13-Pad2)*%
X141500000Y-76275000D02*
X141500000Y-82100000D01*
D52*
%TO.N,OSC_IN*%
X129187500Y-51250000D02*
X123800978Y-51250000D01*
X122950000Y-50399022D02*
X122950000Y-50150000D01*
X123800978Y-51250000D02*
X122950000Y-50399022D01*
X123320000Y-49780000D02*
X122950000Y-50150000D01*
X123320000Y-48400000D02*
X123320000Y-49780000D01*
%TO.N,Net-(C20-Pad1)*%
X126190000Y-52250000D02*
X124750000Y-52250000D01*
X124750000Y-52250000D02*
X124650000Y-52350000D01*
X124280000Y-52720000D02*
X124650000Y-52350000D01*
X124280000Y-54100000D02*
X124280000Y-52720000D01*
%TO.N,+3.3VA*%
X128384994Y-53250000D02*
X126980000Y-54654994D01*
X129187500Y-53250000D02*
X128384994Y-53250000D01*
X126980000Y-55650000D02*
X126980000Y-59207500D01*
X126980000Y-54654994D02*
X126980000Y-55650000D01*
X126980000Y-59207500D02*
X126787500Y-59400000D01*
%TO.N,NRST*%
X130750000Y-52250000D02*
X129187500Y-52250000D01*
X132600000Y-51500000D02*
X132600000Y-52640006D01*
X127000000Y-60920000D02*
X128500000Y-59420000D01*
X132600000Y-51500000D02*
X132600000Y-50400000D01*
X125650000Y-60920000D02*
X124550000Y-62020000D01*
X128500000Y-59420000D02*
X128500000Y-56700000D01*
X128540006Y-56700000D02*
X131100000Y-54140006D01*
X128500000Y-56700000D02*
X128540006Y-56700000D01*
X127000000Y-60920000D02*
X125650000Y-60920000D01*
X132600000Y-50400000D02*
X130750000Y-52250000D01*
X132600000Y-52640006D02*
X131100000Y-54140006D01*
X146075000Y-37920000D02*
X142680000Y-37920000D01*
X118050000Y-62020000D02*
X124550000Y-62020000D01*
X142680000Y-37920000D02*
X134800000Y-45800000D01*
D51*
%TO.N,Net-(D1-Pad1)*%
X147500000Y-58837500D02*
X147462500Y-58800000D01*
X147500000Y-60800000D02*
X147500000Y-58837500D01*
%TO.N,Net-(D2-Pad1)*%
X152193750Y-57387500D02*
X154056250Y-57387500D01*
X154056250Y-57387500D02*
X154093750Y-57425000D01*
D52*
%TO.N,STATUS*%
X147212500Y-55812500D02*
X152193750Y-55812500D01*
X144150000Y-52750000D02*
X147212500Y-55812500D01*
X137512500Y-52750000D02*
X144150000Y-52750000D01*
D56*
%TO.N,+5V*%
X162040000Y-51967500D02*
X161300000Y-52707500D01*
X164750000Y-59750000D02*
X164750000Y-61525000D01*
X167790000Y-54960000D02*
X164750000Y-58000000D01*
X164750000Y-59750000D02*
X163250000Y-58250000D01*
X164750000Y-58000000D02*
X164750000Y-59750000D01*
X167790000Y-46117500D02*
X167790000Y-54960000D01*
X164965000Y-43292500D02*
X167790000Y-46117500D01*
X164750000Y-61525000D02*
X165300000Y-62075000D01*
X161300000Y-52707500D02*
X161300000Y-55250000D01*
X164090000Y-43292500D02*
X164965000Y-43292500D01*
X163250000Y-58250000D02*
X163250000Y-58000000D01*
X162890000Y-51967500D02*
X162040000Y-51967500D01*
D52*
%TO.N,TRX_CE*%
X140000000Y-53750000D02*
X137512500Y-53750000D01*
X142045000Y-60405000D02*
X142045000Y-55795000D01*
X142045000Y-55795000D02*
X140000000Y-53750000D01*
X140750000Y-61700000D02*
X142045000Y-60405000D01*
%TO.N,PWR_UP*%
X141180000Y-60180000D02*
X140806128Y-60553873D01*
X139500000Y-54250000D02*
X141500000Y-56250000D01*
X140224511Y-61135489D02*
X140224511Y-61635489D01*
X141500000Y-56250000D02*
X141500000Y-59860000D01*
X141500000Y-59860000D02*
X140806128Y-60553873D01*
X137512500Y-54250000D02*
X139500000Y-54250000D01*
X140806128Y-60553873D02*
X140224511Y-61135489D01*
X141500000Y-59860001D02*
X141180000Y-60180000D01*
X141500000Y-59860000D02*
X141180000Y-60180000D01*
%TO.N,UPCLK*%
X137512500Y-54750000D02*
X139000000Y-54750000D01*
X141000000Y-59360000D02*
X140431127Y-59928872D01*
X141000000Y-56750000D02*
X141000000Y-59360000D01*
X139750000Y-60610000D02*
X139750000Y-61700000D01*
X140431127Y-59928872D02*
X139750000Y-60610000D01*
X141000000Y-59359999D02*
X140431127Y-59928872D01*
X139000000Y-54750000D02*
X141000000Y-56750000D01*
%TO.N,CD*%
X137700000Y-60197745D02*
X138250000Y-60747745D01*
X138250000Y-60747745D02*
X138250000Y-61700000D01*
X135100000Y-58097744D02*
X135251128Y-58248872D01*
X137200000Y-60197745D02*
X137700000Y-60197745D01*
X135100000Y-56162500D02*
X135100000Y-58097744D01*
X135100000Y-58097745D02*
X135251128Y-58248872D01*
X135251128Y-58248872D02*
X137200000Y-60197745D01*
%TO.N,AM*%
X134976127Y-58723873D02*
X136925000Y-60672745D01*
X134600000Y-58347746D02*
X134976127Y-58723873D01*
X137750000Y-60997745D02*
X137750000Y-61700000D01*
X136925000Y-60672745D02*
X137425000Y-60672745D01*
X137425000Y-60672745D02*
X137750000Y-60997745D01*
X134600000Y-56162500D02*
X134600000Y-58347746D01*
X134600000Y-58347745D02*
X134976127Y-58723873D01*
%TO.N,DR*%
X136702255Y-61700000D02*
X137250000Y-61700000D01*
X133600000Y-58597745D02*
X133801128Y-58798872D01*
X133600000Y-58597744D02*
X133801128Y-58798872D01*
X133600000Y-56162500D02*
X133600000Y-58597744D01*
X133801128Y-58798872D02*
X136702255Y-61700000D01*
%TO.N,SPI_MISO*%
X135902255Y-62900000D02*
X136550000Y-62900000D01*
X132100000Y-59097744D02*
X132401128Y-59398872D01*
X132100000Y-59097745D02*
X132401128Y-59398872D01*
X132401128Y-59398872D02*
X135902255Y-62900000D01*
X132100000Y-56162500D02*
X132100000Y-59097744D01*
%TO.N,SPI_MOSI*%
X132600000Y-58600000D02*
X132600000Y-56162500D01*
X135400000Y-63400000D02*
X134900000Y-62900000D01*
X136550000Y-63400000D02*
X135400000Y-63400000D01*
X134300000Y-60300000D02*
X132600000Y-58600000D01*
%TO.N,SPI_SCK*%
X134900000Y-63900000D02*
X136550000Y-63900000D01*
X131600000Y-60600000D02*
X134900000Y-63900000D01*
X131600000Y-56162500D02*
X131600000Y-60600000D01*
%TO.N,SPI_CSN*%
X131100000Y-56162500D02*
X131100000Y-61300000D01*
X131100000Y-61300000D02*
X134200000Y-64400000D01*
X134200000Y-64400000D02*
X136550000Y-64400000D01*
D53*
%TO.N,Net-(IC1-Pad23)*%
X144825000Y-68800000D02*
X144825000Y-68725000D01*
X140725978Y-67800000D02*
X140250000Y-67324022D01*
X140250000Y-66600000D02*
X140250000Y-67324022D01*
X143900000Y-67800000D02*
X141300000Y-67800000D01*
X141300000Y-67800000D02*
X140725978Y-67800000D01*
X144825000Y-68725000D02*
X144000000Y-67900000D01*
X144000000Y-67900000D02*
X143900000Y-67800000D01*
D52*
%TO.N,TX_EN*%
X142750000Y-60610001D02*
X142306128Y-61053873D01*
X137512500Y-53250000D02*
X140500000Y-53250000D01*
X141450000Y-61910000D02*
X141450000Y-62400000D01*
X142750000Y-60610000D02*
X142306128Y-61053873D01*
X142306128Y-61053873D02*
X141450000Y-61910000D01*
X142750000Y-55500000D02*
X142750000Y-60610001D01*
X140500000Y-53250000D02*
X142750000Y-55500000D01*
D54*
%TO.N,USB_D-*%
X137530343Y-51232157D02*
X139290000Y-51232156D01*
X137512500Y-51250000D02*
X137530343Y-51232157D01*
X139290000Y-51232156D02*
X162610000Y-51232156D01*
%TO.N,USB_D+*%
X137512500Y-50750000D02*
X137530343Y-50767843D01*
X157590000Y-50190000D02*
X157590000Y-50245688D01*
X157067844Y-50767844D02*
X157252156Y-50767844D01*
X137530343Y-50767843D02*
X139290000Y-50767844D01*
X139290000Y-50767844D02*
X157067844Y-50767844D01*
X157590000Y-43005000D02*
X157590000Y-50190000D01*
X157590000Y-50245688D02*
X157067844Y-50767844D01*
X157252156Y-50767844D02*
X162610000Y-50767844D01*
%TO.N,Net-(J1-Pad4)*%
X161340000Y-50017500D02*
X162890000Y-50017500D01*
X158690000Y-48292500D02*
X159615000Y-48292500D01*
X159615000Y-48292500D02*
X161340000Y-50017500D01*
D52*
%TO.N,SWDIO*%
X146075000Y-48080000D02*
X143020000Y-48080000D01*
X143020000Y-48080000D02*
X140850000Y-50250000D01*
X140850000Y-50250000D02*
X137512500Y-50250000D01*
%TO.N,SWCLK*%
X138018218Y-45540000D02*
X146075000Y-45540000D01*
X136100000Y-47458218D02*
X138018218Y-45540000D01*
X136100000Y-47837500D02*
X136100000Y-47458218D01*
%TO.N,SWO*%
X135100000Y-47837500D02*
X135100000Y-46753904D01*
X138853904Y-43000000D02*
X136476952Y-45376952D01*
X146075000Y-43000000D02*
X138853904Y-43000000D01*
X135100000Y-46753904D02*
X136476952Y-45376952D01*
D54*
%TO.N,Net-(Q1-Pad1)*%
X159052500Y-41642500D02*
X158540000Y-41130000D01*
X161165000Y-41642500D02*
X159052500Y-41642500D01*
X164090000Y-41642500D02*
X162390000Y-41642500D01*
X161165000Y-41642500D02*
X162390000Y-41642500D01*
X160690000Y-41642500D02*
X161165000Y-41642500D01*
D52*
%TO.N,BOOT0*%
X133500000Y-46000000D02*
X132600000Y-46900000D01*
X133500000Y-46000000D02*
X133500000Y-44925000D01*
X133500000Y-44925000D02*
X134000000Y-44425000D01*
X132600000Y-47837500D02*
X132600000Y-46900000D01*
%TO.N,OSC_OUT*%
X127710000Y-51750000D02*
X127210000Y-52250000D01*
X129187500Y-51750000D02*
X127710000Y-51750000D01*
%TO.N,BOOT1*%
X134100000Y-56162500D02*
X134100000Y-51140006D01*
X138240006Y-47000000D02*
X138675000Y-47000000D01*
X134100000Y-51140006D02*
X138240006Y-47000000D01*
D54*
%TO.N,USB_PULLUP*%
X164190000Y-45092500D02*
X162390000Y-43292500D01*
X137512500Y-52250000D02*
X153950000Y-52250000D01*
X158550000Y-56850000D02*
X162707500Y-56850000D01*
X164190000Y-55367500D02*
X164190000Y-45092500D01*
X153950000Y-52250000D02*
X158550000Y-56850000D01*
X162707500Y-56850000D02*
X164190000Y-55367500D01*
%TD*%
%TA.AperFunction,Conductor*%
%TO.N,GND*%
G36*
X129859532Y-56380544D02*
G01*
X129916368Y-56423091D01*
X129941179Y-56489611D01*
X129941500Y-56498600D01*
X129941500Y-56863244D01*
X129956519Y-56977324D01*
X129959678Y-56984951D01*
X129959679Y-56984954D01*
X129981647Y-57037988D01*
X130015314Y-57119268D01*
X130108843Y-57241157D01*
X130115393Y-57246183D01*
X130115394Y-57246184D01*
X130134165Y-57260587D01*
X130230733Y-57334686D01*
X130318682Y-57371116D01*
X130365049Y-57390322D01*
X130365051Y-57390322D01*
X130372676Y-57393481D01*
X130375320Y-57393829D01*
X130433732Y-57429430D01*
X130464755Y-57493290D01*
X130466500Y-57514188D01*
X130466500Y-61221233D01*
X130465973Y-61232416D01*
X130464298Y-61239909D01*
X130464547Y-61247835D01*
X130464547Y-61247836D01*
X130466438Y-61307986D01*
X130466500Y-61311945D01*
X130466500Y-61339856D01*
X130466997Y-61343790D01*
X130466997Y-61343791D01*
X130467005Y-61343856D01*
X130467938Y-61355693D01*
X130469327Y-61399889D01*
X130474978Y-61419339D01*
X130478987Y-61438700D01*
X130481526Y-61458797D01*
X130484445Y-61466168D01*
X130484445Y-61466170D01*
X130497804Y-61499912D01*
X130501649Y-61511142D01*
X130510254Y-61540761D01*
X130513982Y-61553593D01*
X130518015Y-61560412D01*
X130518017Y-61560417D01*
X130524293Y-61571028D01*
X130532988Y-61588776D01*
X130540448Y-61607617D01*
X130545110Y-61614033D01*
X130545110Y-61614034D01*
X130566436Y-61643387D01*
X130572952Y-61653307D01*
X130595458Y-61691362D01*
X130609779Y-61705683D01*
X130622619Y-61720716D01*
X130634528Y-61737107D01*
X130640634Y-61742158D01*
X130668605Y-61765298D01*
X130677384Y-61773288D01*
X131174672Y-62270576D01*
X131208698Y-62332888D01*
X131203633Y-62403703D01*
X131161086Y-62460539D01*
X131120731Y-62480668D01*
X131071412Y-62494997D01*
X131036258Y-62500000D01*
X130805533Y-62500000D01*
X130770382Y-62494997D01*
X130744899Y-62487594D01*
X130688431Y-62471188D01*
X130688426Y-62471187D01*
X130682254Y-62469394D01*
X130675849Y-62468890D01*
X130675844Y-62468889D01*
X130647940Y-62466693D01*
X130647932Y-62466693D01*
X130645484Y-62466500D01*
X130234516Y-62466500D01*
X130232068Y-62466693D01*
X130232060Y-62466693D01*
X130204156Y-62468889D01*
X130204151Y-62468890D01*
X130197746Y-62469394D01*
X130191574Y-62471187D01*
X130191569Y-62471188D01*
X130135101Y-62487594D01*
X130109618Y-62494997D01*
X130074467Y-62500000D01*
X128500000Y-62500000D01*
X127780236Y-63699607D01*
X127112201Y-64812999D01*
X127000000Y-65000000D01*
X127000000Y-69000000D01*
X127008812Y-69014686D01*
X127008812Y-69014687D01*
X128523597Y-71539328D01*
X132282790Y-77804649D01*
X132982044Y-78970073D01*
X133000000Y-79034899D01*
X133000000Y-86365500D01*
X132979998Y-86433621D01*
X132926342Y-86480114D01*
X132874000Y-86491500D01*
X119549367Y-86491500D01*
X119529982Y-86490000D01*
X119515149Y-86487690D01*
X119515145Y-86487690D01*
X119506276Y-86486309D01*
X119487564Y-86488756D01*
X119464634Y-86489647D01*
X119193897Y-86475458D01*
X119180791Y-86474081D01*
X118965866Y-86440040D01*
X118884555Y-86427162D01*
X118871655Y-86424420D01*
X118726804Y-86385608D01*
X118581948Y-86346793D01*
X118569414Y-86342721D01*
X118289412Y-86235237D01*
X118277365Y-86229874D01*
X118010130Y-86093711D01*
X117998714Y-86087120D01*
X117747168Y-85923764D01*
X117736505Y-85916016D01*
X117503427Y-85727273D01*
X117493626Y-85718448D01*
X117281552Y-85506374D01*
X117272727Y-85496573D01*
X117083984Y-85263495D01*
X117076236Y-85252832D01*
X116912880Y-85001286D01*
X116906289Y-84989870D01*
X116770126Y-84722635D01*
X116764762Y-84710587D01*
X116760857Y-84700413D01*
X116657279Y-84430586D01*
X116653205Y-84418047D01*
X116652898Y-84416899D01*
X116614392Y-84273196D01*
X116575580Y-84128345D01*
X116572838Y-84115445D01*
X116543242Y-83928584D01*
X116525919Y-83819209D01*
X116524542Y-83806098D01*
X116524223Y-83800000D01*
X116518246Y-83685963D01*
X118094757Y-83685963D01*
X118111175Y-83881483D01*
X118165258Y-84070091D01*
X118168076Y-84075574D01*
X118252123Y-84239113D01*
X118252126Y-84239117D01*
X118254944Y-84244601D01*
X118376818Y-84398369D01*
X118381511Y-84402363D01*
X118381512Y-84402364D01*
X118509605Y-84511379D01*
X118526238Y-84525535D01*
X118531616Y-84528541D01*
X118531618Y-84528542D01*
X118567932Y-84548837D01*
X118697513Y-84621257D01*
X118884118Y-84681889D01*
X119078946Y-84705121D01*
X119085081Y-84704649D01*
X119085083Y-84704649D01*
X119268434Y-84690541D01*
X119268438Y-84690540D01*
X119274576Y-84690068D01*
X119463556Y-84637303D01*
X119638689Y-84548837D01*
X119668515Y-84525535D01*
X119788453Y-84431829D01*
X119793303Y-84428040D01*
X119823084Y-84393539D01*
X119917485Y-84284173D01*
X119917485Y-84284172D01*
X119921509Y-84279511D01*
X120018425Y-84108909D01*
X120080358Y-83922732D01*
X120099464Y-83771489D01*
X121511227Y-83771489D01*
X121511605Y-83777255D01*
X121513096Y-83799999D01*
X121513096Y-83800000D01*
X121517701Y-83870253D01*
X121524263Y-83970380D01*
X121525684Y-83975976D01*
X121525685Y-83975981D01*
X121557959Y-84103056D01*
X121573326Y-84163564D01*
X121575743Y-84168807D01*
X121610684Y-84244601D01*
X121656772Y-84344573D01*
X121660105Y-84349289D01*
X121715761Y-84428040D01*
X121771807Y-84507344D01*
X121914578Y-84646425D01*
X122080304Y-84757160D01*
X122085607Y-84759438D01*
X122085610Y-84759440D01*
X122258128Y-84833559D01*
X122263435Y-84835839D01*
X122335516Y-84852149D01*
X122452201Y-84878553D01*
X122452207Y-84878554D01*
X122457838Y-84879828D01*
X122463609Y-84880055D01*
X122463611Y-84880055D01*
X122524556Y-84882449D01*
X122657001Y-84887653D01*
X122756959Y-84873160D01*
X122848535Y-84859883D01*
X122848540Y-84859882D01*
X122854256Y-84859053D01*
X122859728Y-84857195D01*
X122859730Y-84857195D01*
X123037532Y-84796839D01*
X123037534Y-84796838D01*
X123042996Y-84794984D01*
X123216899Y-84697594D01*
X123370143Y-84570143D01*
X123497594Y-84416899D01*
X123594984Y-84242996D01*
X123636794Y-84119830D01*
X123657195Y-84059730D01*
X123657195Y-84059728D01*
X123659053Y-84054256D01*
X123659882Y-84048540D01*
X123659883Y-84048535D01*
X123684993Y-83875344D01*
X123687653Y-83857001D01*
X123689146Y-83800000D01*
X123670908Y-83601519D01*
X123666759Y-83586805D01*
X123618373Y-83415244D01*
X123618372Y-83415242D01*
X123616805Y-83409685D01*
X123603746Y-83383202D01*
X123531205Y-83236104D01*
X123528650Y-83230923D01*
X123409393Y-83071219D01*
X123317669Y-82986430D01*
X123267275Y-82939846D01*
X123263030Y-82935922D01*
X123258147Y-82932841D01*
X123258143Y-82932838D01*
X123099346Y-82832645D01*
X123099341Y-82832643D01*
X123094462Y-82829564D01*
X122909334Y-82755705D01*
X122713847Y-82716820D01*
X122708072Y-82716744D01*
X122708068Y-82716744D01*
X122608588Y-82715442D01*
X122514547Y-82714211D01*
X122508850Y-82715190D01*
X122508849Y-82715190D01*
X122492805Y-82717947D01*
X122318108Y-82747966D01*
X122131111Y-82816953D01*
X121959816Y-82918862D01*
X121809961Y-83050281D01*
X121686565Y-83206809D01*
X121683876Y-83211920D01*
X121683874Y-83211923D01*
X121654741Y-83267297D01*
X121593760Y-83383202D01*
X121585537Y-83409685D01*
X121546020Y-83536951D01*
X121534654Y-83573554D01*
X121511227Y-83771489D01*
X120099464Y-83771489D01*
X120104949Y-83728071D01*
X120105341Y-83700000D01*
X120086194Y-83504728D01*
X120084413Y-83498829D01*
X120084412Y-83498824D01*
X120031265Y-83322793D01*
X120029484Y-83316894D01*
X119937370Y-83143653D01*
X119813361Y-82991602D01*
X119662180Y-82866535D01*
X119489585Y-82773213D01*
X119395868Y-82744203D01*
X119308039Y-82717015D01*
X119308036Y-82717014D01*
X119302152Y-82715193D01*
X119296027Y-82714549D01*
X119296026Y-82714549D01*
X119113147Y-82695327D01*
X119113146Y-82695327D01*
X119107019Y-82694683D01*
X118994051Y-82704964D01*
X118917759Y-82711907D01*
X118917758Y-82711907D01*
X118911618Y-82712466D01*
X118905704Y-82714207D01*
X118905702Y-82714207D01*
X118892995Y-82717947D01*
X118723393Y-82767864D01*
X118717928Y-82770721D01*
X118554972Y-82855912D01*
X118554968Y-82855915D01*
X118549512Y-82858767D01*
X118544712Y-82862627D01*
X118544711Y-82862627D01*
X118510326Y-82890273D01*
X118396600Y-82981711D01*
X118270480Y-83132016D01*
X118267516Y-83137408D01*
X118267513Y-83137412D01*
X118205886Y-83249512D01*
X118175956Y-83303954D01*
X118174095Y-83309821D01*
X118174094Y-83309823D01*
X118152440Y-83378084D01*
X118116628Y-83490978D01*
X118094757Y-83685963D01*
X116518246Y-83685963D01*
X116510932Y-83546409D01*
X116512505Y-83518915D01*
X116513576Y-83512552D01*
X116513729Y-83500000D01*
X116509773Y-83472376D01*
X116508500Y-83454514D01*
X116508500Y-67752670D01*
X117182160Y-67752670D01*
X117187887Y-67760320D01*
X117359042Y-67865205D01*
X117367837Y-67869687D01*
X117577988Y-67956734D01*
X117587373Y-67959783D01*
X117808554Y-68012885D01*
X117818301Y-68014428D01*
X118045070Y-68032275D01*
X118054930Y-68032275D01*
X118281699Y-68014428D01*
X118291446Y-68012885D01*
X118512627Y-67959783D01*
X118522012Y-67956734D01*
X118732163Y-67869687D01*
X118740958Y-67865205D01*
X118908445Y-67762568D01*
X118917400Y-67752670D01*
X123682160Y-67752670D01*
X123687887Y-67760320D01*
X123859042Y-67865205D01*
X123867837Y-67869687D01*
X124077988Y-67956734D01*
X124087373Y-67959783D01*
X124308554Y-68012885D01*
X124318301Y-68014428D01*
X124545070Y-68032275D01*
X124554930Y-68032275D01*
X124781699Y-68014428D01*
X124791446Y-68012885D01*
X125012627Y-67959783D01*
X125022012Y-67956734D01*
X125232163Y-67869687D01*
X125240958Y-67865205D01*
X125408445Y-67762568D01*
X125417907Y-67752110D01*
X125414124Y-67743334D01*
X124562812Y-66892022D01*
X124548868Y-66884408D01*
X124547035Y-66884539D01*
X124540420Y-66888790D01*
X123688920Y-67740290D01*
X123682160Y-67752670D01*
X118917400Y-67752670D01*
X118917907Y-67752110D01*
X118914124Y-67743334D01*
X118062812Y-66892022D01*
X118048868Y-66884408D01*
X118047035Y-66884539D01*
X118040420Y-66888790D01*
X117188920Y-67740290D01*
X117182160Y-67752670D01*
X116508500Y-67752670D01*
X116508500Y-67337395D01*
X116528502Y-67269274D01*
X116582158Y-67222781D01*
X116652432Y-67212677D01*
X116717012Y-67242171D01*
X116741932Y-67271560D01*
X116807432Y-67378445D01*
X116817890Y-67387907D01*
X116826666Y-67384124D01*
X117677978Y-66532812D01*
X117684356Y-66521132D01*
X118414408Y-66521132D01*
X118414539Y-66522965D01*
X118418790Y-66529580D01*
X119270290Y-67381080D01*
X119282670Y-67387840D01*
X119290320Y-67382113D01*
X119395205Y-67210958D01*
X119399687Y-67202163D01*
X119486734Y-66992012D01*
X119489783Y-66982627D01*
X119542885Y-66761446D01*
X119544428Y-66751699D01*
X119562275Y-66524930D01*
X123037725Y-66524930D01*
X123055572Y-66751699D01*
X123057115Y-66761446D01*
X123110217Y-66982627D01*
X123113266Y-66992012D01*
X123200313Y-67202163D01*
X123204795Y-67210958D01*
X123307432Y-67378445D01*
X123317890Y-67387907D01*
X123326666Y-67384124D01*
X124177978Y-66532812D01*
X124184356Y-66521132D01*
X124914408Y-66521132D01*
X124914539Y-66522965D01*
X124918790Y-66529580D01*
X125770290Y-67381080D01*
X125782670Y-67387840D01*
X125790320Y-67382113D01*
X125895205Y-67210958D01*
X125899687Y-67202163D01*
X125986734Y-66992012D01*
X125989783Y-66982627D01*
X126042885Y-66761446D01*
X126044428Y-66751699D01*
X126062275Y-66524930D01*
X126062275Y-66515070D01*
X126044428Y-66288301D01*
X126042885Y-66278554D01*
X125989783Y-66057373D01*
X125986734Y-66047988D01*
X125899687Y-65837837D01*
X125895205Y-65829042D01*
X125792568Y-65661555D01*
X125782110Y-65652093D01*
X125773334Y-65655876D01*
X124922022Y-66507188D01*
X124914408Y-66521132D01*
X124184356Y-66521132D01*
X124185592Y-66518868D01*
X124185461Y-66517035D01*
X124181210Y-66510420D01*
X123329710Y-65658920D01*
X123317330Y-65652160D01*
X123309680Y-65657887D01*
X123204795Y-65829042D01*
X123200313Y-65837837D01*
X123113266Y-66047988D01*
X123110217Y-66057373D01*
X123057115Y-66278554D01*
X123055572Y-66288301D01*
X123037725Y-66515070D01*
X123037725Y-66524930D01*
X119562275Y-66524930D01*
X119562275Y-66515070D01*
X119544428Y-66288301D01*
X119542885Y-66278554D01*
X119489783Y-66057373D01*
X119486734Y-66047988D01*
X119399687Y-65837837D01*
X119395205Y-65829042D01*
X119292568Y-65661555D01*
X119282110Y-65652093D01*
X119273334Y-65655876D01*
X118422022Y-66507188D01*
X118414408Y-66521132D01*
X117684356Y-66521132D01*
X117685592Y-66518868D01*
X117685461Y-66517035D01*
X117681210Y-66510420D01*
X116829710Y-65658920D01*
X116817330Y-65652160D01*
X116809680Y-65657887D01*
X116741932Y-65768440D01*
X116689285Y-65816072D01*
X116619243Y-65827678D01*
X116554046Y-65799574D01*
X116514392Y-65740684D01*
X116508500Y-65702605D01*
X116508500Y-65287890D01*
X117182093Y-65287890D01*
X117185876Y-65296666D01*
X118037188Y-66147978D01*
X118051132Y-66155592D01*
X118052965Y-66155461D01*
X118059580Y-66151210D01*
X118911080Y-65299710D01*
X118917534Y-65287890D01*
X123682093Y-65287890D01*
X123685876Y-65296666D01*
X124537188Y-66147978D01*
X124551132Y-66155592D01*
X124552965Y-66155461D01*
X124559580Y-66151210D01*
X125411080Y-65299710D01*
X125417840Y-65287330D01*
X125412113Y-65279680D01*
X125240958Y-65174795D01*
X125232163Y-65170313D01*
X125022012Y-65083266D01*
X125012627Y-65080217D01*
X124791446Y-65027115D01*
X124781699Y-65025572D01*
X124554930Y-65007725D01*
X124545070Y-65007725D01*
X124318301Y-65025572D01*
X124308554Y-65027115D01*
X124087373Y-65080217D01*
X124077988Y-65083266D01*
X123867837Y-65170313D01*
X123859042Y-65174795D01*
X123691555Y-65277432D01*
X123682093Y-65287890D01*
X118917534Y-65287890D01*
X118917840Y-65287330D01*
X118912113Y-65279680D01*
X118740958Y-65174795D01*
X118732163Y-65170313D01*
X118522012Y-65083266D01*
X118512627Y-65080217D01*
X118291446Y-65027115D01*
X118281699Y-65025572D01*
X118054930Y-65007725D01*
X118045070Y-65007725D01*
X117818301Y-65025572D01*
X117808554Y-65027115D01*
X117587373Y-65080217D01*
X117577988Y-65083266D01*
X117367837Y-65170313D01*
X117359042Y-65174795D01*
X117191555Y-65277432D01*
X117182093Y-65287890D01*
X116508500Y-65287890D01*
X116508500Y-62838354D01*
X116528502Y-62770233D01*
X116582158Y-62723740D01*
X116652432Y-62713636D01*
X116717012Y-62743130D01*
X116741933Y-62772519D01*
X116823241Y-62905202D01*
X116823245Y-62905208D01*
X116825824Y-62909416D01*
X116980031Y-63089969D01*
X117160584Y-63244176D01*
X117164792Y-63246755D01*
X117164798Y-63246759D01*
X117295126Y-63326624D01*
X117363037Y-63368240D01*
X117367607Y-63370133D01*
X117367611Y-63370135D01*
X117577833Y-63457211D01*
X117582406Y-63459105D01*
X117630532Y-63470659D01*
X117808476Y-63513380D01*
X117808482Y-63513381D01*
X117813289Y-63514535D01*
X118050000Y-63533165D01*
X118286711Y-63514535D01*
X118291518Y-63513381D01*
X118291524Y-63513380D01*
X118469468Y-63470659D01*
X118517594Y-63459105D01*
X118522167Y-63457211D01*
X118732389Y-63370135D01*
X118732393Y-63370133D01*
X118736963Y-63368240D01*
X118804874Y-63326624D01*
X118935202Y-63246759D01*
X118935208Y-63246755D01*
X118939416Y-63244176D01*
X119119969Y-63089969D01*
X119274176Y-62909416D01*
X119276755Y-62905208D01*
X119276759Y-62905202D01*
X119394133Y-62713665D01*
X119446781Y-62666034D01*
X119501566Y-62653500D01*
X123098434Y-62653500D01*
X123166555Y-62673502D01*
X123205867Y-62713665D01*
X123323241Y-62905202D01*
X123323245Y-62905208D01*
X123325824Y-62909416D01*
X123480031Y-63089969D01*
X123660584Y-63244176D01*
X123664792Y-63246755D01*
X123664798Y-63246759D01*
X123795126Y-63326624D01*
X123863037Y-63368240D01*
X123867607Y-63370133D01*
X123867611Y-63370135D01*
X124077833Y-63457211D01*
X124082406Y-63459105D01*
X124130532Y-63470659D01*
X124308476Y-63513380D01*
X124308482Y-63513381D01*
X124313289Y-63514535D01*
X124550000Y-63533165D01*
X124786711Y-63514535D01*
X124791518Y-63513381D01*
X124791524Y-63513380D01*
X124969468Y-63470659D01*
X125017594Y-63459105D01*
X125022167Y-63457211D01*
X125232389Y-63370135D01*
X125232393Y-63370133D01*
X125236963Y-63368240D01*
X125304874Y-63326624D01*
X125435202Y-63246759D01*
X125435208Y-63246755D01*
X125439416Y-63244176D01*
X125619969Y-63089969D01*
X125774176Y-62909416D01*
X125776755Y-62905208D01*
X125776759Y-62905202D01*
X125895654Y-62711183D01*
X125898240Y-62706963D01*
X125915194Y-62666034D01*
X125987211Y-62492167D01*
X125987212Y-62492165D01*
X125989105Y-62487594D01*
X126021756Y-62351593D01*
X126057108Y-62290024D01*
X126120135Y-62257341D01*
X126190826Y-62263922D01*
X126246737Y-62307676D01*
X126252729Y-62316868D01*
X126309876Y-62413499D01*
X126319516Y-62425926D01*
X126424074Y-62530484D01*
X126436501Y-62540124D01*
X126563780Y-62615396D01*
X126578216Y-62621643D01*
X126721641Y-62663312D01*
X126729609Y-62664768D01*
X126743031Y-62661948D01*
X126746000Y-62650487D01*
X126746000Y-62648424D01*
X127254000Y-62648424D01*
X127258344Y-62663219D01*
X127268775Y-62665063D01*
X127278359Y-62663312D01*
X127421784Y-62621643D01*
X127436220Y-62615396D01*
X127563499Y-62540124D01*
X127575926Y-62530484D01*
X127680484Y-62425926D01*
X127690124Y-62413499D01*
X127765396Y-62286220D01*
X127771643Y-62271784D01*
X127806619Y-62151395D01*
X127806579Y-62137295D01*
X127799309Y-62134000D01*
X127272115Y-62134000D01*
X127256876Y-62138475D01*
X127255671Y-62139865D01*
X127254000Y-62147548D01*
X127254000Y-62648424D01*
X126746000Y-62648424D01*
X126746000Y-61834500D01*
X126766002Y-61766379D01*
X126819658Y-61719886D01*
X126872000Y-61708500D01*
X127235484Y-61708500D01*
X127237932Y-61708307D01*
X127237940Y-61708307D01*
X127265844Y-61706111D01*
X127265849Y-61706110D01*
X127272254Y-61705606D01*
X127371005Y-61676916D01*
X127421984Y-61662106D01*
X127421986Y-61662105D01*
X127429597Y-61659894D01*
X127457240Y-61643546D01*
X127521379Y-61626000D01*
X127793558Y-61626000D01*
X127807089Y-61622027D01*
X127808224Y-61614129D01*
X127771643Y-61488216D01*
X127765395Y-61473778D01*
X127759984Y-61464628D01*
X127742526Y-61395812D01*
X127759985Y-61336353D01*
X127765857Y-61326423D01*
X127769894Y-61319597D01*
X127772695Y-61309958D01*
X127793693Y-61237679D01*
X127815606Y-61162254D01*
X127817789Y-61134526D01*
X127818307Y-61127940D01*
X127818307Y-61127932D01*
X127818500Y-61125484D01*
X127818500Y-61049594D01*
X127838502Y-60981473D01*
X127855405Y-60960499D01*
X128892247Y-59923657D01*
X128900537Y-59916113D01*
X128907018Y-59912000D01*
X128926025Y-59891760D01*
X128953658Y-59862333D01*
X128956413Y-59859491D01*
X128976134Y-59839770D01*
X128978612Y-59836575D01*
X128986318Y-59827553D01*
X129011158Y-59801101D01*
X129016586Y-59795321D01*
X129026346Y-59777568D01*
X129037199Y-59761045D01*
X129044753Y-59751306D01*
X129049613Y-59745041D01*
X129067176Y-59704457D01*
X129072383Y-59693827D01*
X129093695Y-59655060D01*
X129095666Y-59647383D01*
X129095668Y-59647378D01*
X129098732Y-59635442D01*
X129105138Y-59616730D01*
X129110034Y-59605417D01*
X129113181Y-59598145D01*
X129117178Y-59572914D01*
X129120097Y-59554481D01*
X129122504Y-59542860D01*
X129131528Y-59507711D01*
X129131528Y-59507710D01*
X129133500Y-59500030D01*
X129133500Y-59479769D01*
X129135051Y-59460058D01*
X129136979Y-59447885D01*
X129138219Y-59440057D01*
X129134059Y-59396046D01*
X129133500Y-59384189D01*
X129133500Y-57054600D01*
X129153502Y-56986479D01*
X129170405Y-56965505D01*
X129726405Y-56409505D01*
X129788717Y-56375479D01*
X129859532Y-56380544D01*
G37*
%TD.AperFunction*%
%TA.AperFunction,Conductor*%
G36*
X165770018Y-36510000D02*
G01*
X165784851Y-36512310D01*
X165784855Y-36512310D01*
X165793724Y-36513691D01*
X165812436Y-36511244D01*
X165835366Y-36510353D01*
X166106103Y-36524542D01*
X166119209Y-36525919D01*
X166334134Y-36559960D01*
X166415445Y-36572838D01*
X166428345Y-36575580D01*
X166573196Y-36614393D01*
X166718052Y-36653207D01*
X166730586Y-36657279D01*
X167010587Y-36764762D01*
X167022635Y-36770126D01*
X167289870Y-36906289D01*
X167301286Y-36912880D01*
X167552832Y-37076236D01*
X167563495Y-37083984D01*
X167796573Y-37272727D01*
X167806374Y-37281552D01*
X168018448Y-37493626D01*
X168027273Y-37503427D01*
X168187916Y-37701804D01*
X168216016Y-37736505D01*
X168223764Y-37747168D01*
X168306472Y-37874527D01*
X168387117Y-37998709D01*
X168393711Y-38010130D01*
X168529874Y-38277365D01*
X168535237Y-38289412D01*
X168641616Y-38566535D01*
X168642719Y-38569409D01*
X168646793Y-38581948D01*
X168676175Y-38691602D01*
X168724420Y-38871655D01*
X168727162Y-38884555D01*
X168729422Y-38898824D01*
X168765173Y-39124546D01*
X168774080Y-39180785D01*
X168775458Y-39193902D01*
X168789262Y-39457299D01*
X168787935Y-39483276D01*
X168787691Y-39484846D01*
X168787691Y-39484850D01*
X168786309Y-39493724D01*
X168787473Y-39502626D01*
X168787473Y-39502628D01*
X168790436Y-39525283D01*
X168791500Y-39541621D01*
X168791500Y-83450633D01*
X168790000Y-83470018D01*
X168787690Y-83484851D01*
X168787690Y-83484855D01*
X168786309Y-83493724D01*
X168788756Y-83512433D01*
X168789647Y-83535366D01*
X168775584Y-83803704D01*
X168775458Y-83806099D01*
X168774081Y-83819209D01*
X168756758Y-83928584D01*
X168727162Y-84115445D01*
X168724420Y-84128345D01*
X168685607Y-84273196D01*
X168647103Y-84416899D01*
X168646795Y-84418047D01*
X168642721Y-84430586D01*
X168539143Y-84700413D01*
X168535238Y-84710587D01*
X168529874Y-84722635D01*
X168393711Y-84989870D01*
X168387120Y-85001286D01*
X168223764Y-85252832D01*
X168216016Y-85263495D01*
X168027273Y-85496573D01*
X168018448Y-85506374D01*
X167806374Y-85718448D01*
X167796573Y-85727273D01*
X167563495Y-85916016D01*
X167552832Y-85923764D01*
X167301286Y-86087120D01*
X167289870Y-86093711D01*
X167022635Y-86229874D01*
X167010588Y-86235237D01*
X166730586Y-86342721D01*
X166718052Y-86346793D01*
X166573196Y-86385608D01*
X166428345Y-86424420D01*
X166415445Y-86427162D01*
X166334134Y-86440040D01*
X166119209Y-86474081D01*
X166106101Y-86475458D01*
X166030937Y-86479397D01*
X165842701Y-86489262D01*
X165816724Y-86487935D01*
X165815154Y-86487691D01*
X165815150Y-86487691D01*
X165806276Y-86486309D01*
X165797374Y-86487473D01*
X165797372Y-86487473D01*
X165782323Y-86489441D01*
X165774714Y-86490436D01*
X165758379Y-86491500D01*
X151126000Y-86491500D01*
X151057879Y-86471498D01*
X151011386Y-86417842D01*
X151000000Y-86365500D01*
X151000000Y-83532703D01*
X163590743Y-83532703D01*
X163591302Y-83536947D01*
X163591302Y-83536951D01*
X163599071Y-83595958D01*
X163628268Y-83817734D01*
X163629401Y-83821874D01*
X163629401Y-83821876D01*
X163644028Y-83875344D01*
X163704129Y-84095036D01*
X163816923Y-84359476D01*
X163891473Y-84484040D01*
X163959767Y-84598150D01*
X163964561Y-84606161D01*
X164144313Y-84830528D01*
X164267711Y-84947628D01*
X164312225Y-84989870D01*
X164352851Y-85028423D01*
X164586317Y-85196186D01*
X164590112Y-85198195D01*
X164590113Y-85198196D01*
X164611869Y-85209715D01*
X164840392Y-85330712D01*
X165110373Y-85429511D01*
X165391264Y-85490755D01*
X165419841Y-85493004D01*
X165614282Y-85508307D01*
X165614291Y-85508307D01*
X165616739Y-85508500D01*
X165772271Y-85508500D01*
X165774407Y-85508354D01*
X165774418Y-85508354D01*
X165982548Y-85494165D01*
X165982554Y-85494164D01*
X165986825Y-85493873D01*
X165991020Y-85493004D01*
X165991022Y-85493004D01*
X166127583Y-85464724D01*
X166268342Y-85435574D01*
X166539343Y-85339607D01*
X166794812Y-85207750D01*
X166798313Y-85205289D01*
X166798317Y-85205287D01*
X166912418Y-85125095D01*
X167030023Y-85042441D01*
X167129949Y-84949584D01*
X167237479Y-84849661D01*
X167237481Y-84849658D01*
X167240622Y-84846740D01*
X167422713Y-84624268D01*
X167572927Y-84379142D01*
X167614616Y-84284173D01*
X167686757Y-84119830D01*
X167688483Y-84115898D01*
X167701532Y-84070091D01*
X167766068Y-83843534D01*
X167767244Y-83839406D01*
X167807751Y-83554784D01*
X167807845Y-83536951D01*
X167809235Y-83271583D01*
X167809235Y-83271576D01*
X167809257Y-83267297D01*
X167805151Y-83236104D01*
X167776554Y-83018896D01*
X167771732Y-82982266D01*
X167770525Y-82977852D01*
X167737947Y-82858767D01*
X167695871Y-82704964D01*
X167583077Y-82440524D01*
X167435439Y-82193839D01*
X167255687Y-81969472D01*
X167047149Y-81771577D01*
X166813683Y-81603814D01*
X166791843Y-81592250D01*
X166768654Y-81579972D01*
X166559608Y-81469288D01*
X166289627Y-81370489D01*
X166008736Y-81309245D01*
X165977685Y-81306801D01*
X165785718Y-81291693D01*
X165785709Y-81291693D01*
X165783261Y-81291500D01*
X165627729Y-81291500D01*
X165625593Y-81291646D01*
X165625582Y-81291646D01*
X165417452Y-81305835D01*
X165417446Y-81305836D01*
X165413175Y-81306127D01*
X165408980Y-81306996D01*
X165408978Y-81306996D01*
X165272417Y-81335276D01*
X165131658Y-81364426D01*
X164860657Y-81460393D01*
X164605188Y-81592250D01*
X164601687Y-81594711D01*
X164601683Y-81594713D01*
X164591594Y-81601804D01*
X164369977Y-81757559D01*
X164159378Y-81953260D01*
X163977287Y-82175732D01*
X163827073Y-82420858D01*
X163711517Y-82684102D01*
X163710342Y-82688229D01*
X163710341Y-82688230D01*
X163702844Y-82714549D01*
X163632756Y-82960594D01*
X163592249Y-83245216D01*
X163592227Y-83249505D01*
X163592226Y-83249512D01*
X163590789Y-83523859D01*
X163590743Y-83532703D01*
X151000000Y-83532703D01*
X151000000Y-78000000D01*
X150882790Y-77804649D01*
X150271578Y-76785963D01*
X164794757Y-76785963D01*
X164811175Y-76981483D01*
X164865258Y-77170091D01*
X164868076Y-77175574D01*
X164952123Y-77339113D01*
X164952126Y-77339117D01*
X164954944Y-77344601D01*
X165076818Y-77498369D01*
X165226238Y-77625535D01*
X165231616Y-77628541D01*
X165231618Y-77628542D01*
X165267932Y-77648837D01*
X165397513Y-77721257D01*
X165584118Y-77781889D01*
X165778946Y-77805121D01*
X165785081Y-77804649D01*
X165785083Y-77804649D01*
X165968434Y-77790541D01*
X165968438Y-77790540D01*
X165974576Y-77790068D01*
X166163556Y-77737303D01*
X166338689Y-77648837D01*
X166368515Y-77625535D01*
X166488453Y-77531829D01*
X166493303Y-77528040D01*
X166523084Y-77493539D01*
X166617485Y-77384173D01*
X166617485Y-77384172D01*
X166621509Y-77379511D01*
X166718425Y-77208909D01*
X166780358Y-77022732D01*
X166804949Y-76828071D01*
X166805341Y-76800000D01*
X166786194Y-76604728D01*
X166784413Y-76598829D01*
X166784412Y-76598824D01*
X166731265Y-76422793D01*
X166729484Y-76416894D01*
X166637370Y-76243653D01*
X166513361Y-76091602D01*
X166362180Y-75966535D01*
X166189585Y-75873213D01*
X166095869Y-75844203D01*
X166008039Y-75817015D01*
X166008036Y-75817014D01*
X166002152Y-75815193D01*
X165996027Y-75814549D01*
X165996026Y-75814549D01*
X165813147Y-75795327D01*
X165813146Y-75795327D01*
X165807019Y-75794683D01*
X165684383Y-75805844D01*
X165617759Y-75811907D01*
X165617758Y-75811907D01*
X165611618Y-75812466D01*
X165605704Y-75814207D01*
X165605702Y-75814207D01*
X165476734Y-75852165D01*
X165423393Y-75867864D01*
X165417928Y-75870721D01*
X165254972Y-75955912D01*
X165254968Y-75955915D01*
X165249512Y-75958767D01*
X165244712Y-75962627D01*
X165244711Y-75962627D01*
X165210326Y-75990273D01*
X165096600Y-76081711D01*
X164970480Y-76232016D01*
X164967516Y-76237408D01*
X164967513Y-76237412D01*
X164888813Y-76380567D01*
X164875956Y-76403954D01*
X164816628Y-76590978D01*
X164794757Y-76785963D01*
X150271578Y-76785963D01*
X149677145Y-75795242D01*
X146782894Y-70971489D01*
X164811227Y-70971489D01*
X164813096Y-71000000D01*
X164824263Y-71170380D01*
X164873326Y-71363564D01*
X164875743Y-71368807D01*
X164912265Y-71448029D01*
X164956772Y-71544573D01*
X165071807Y-71707344D01*
X165214578Y-71846425D01*
X165380304Y-71957160D01*
X165385607Y-71959438D01*
X165385610Y-71959440D01*
X165551855Y-72030864D01*
X165563435Y-72035839D01*
X165635516Y-72052149D01*
X165752201Y-72078553D01*
X165752207Y-72078554D01*
X165757838Y-72079828D01*
X165763609Y-72080055D01*
X165763611Y-72080055D01*
X165824556Y-72082449D01*
X165957001Y-72087653D01*
X166058843Y-72072887D01*
X166148535Y-72059883D01*
X166148540Y-72059882D01*
X166154256Y-72059053D01*
X166159728Y-72057195D01*
X166159730Y-72057195D01*
X166337532Y-71996839D01*
X166337534Y-71996838D01*
X166342996Y-71994984D01*
X166516899Y-71897594D01*
X166670143Y-71770143D01*
X166797594Y-71616899D01*
X166894984Y-71442996D01*
X166919293Y-71371386D01*
X166957195Y-71259730D01*
X166957195Y-71259728D01*
X166959053Y-71254256D01*
X166959882Y-71248540D01*
X166959883Y-71248535D01*
X166984426Y-71079256D01*
X166987653Y-71057001D01*
X166989146Y-71000000D01*
X166970908Y-70801519D01*
X166960280Y-70763833D01*
X166918373Y-70615244D01*
X166918372Y-70615242D01*
X166916805Y-70609685D01*
X166903746Y-70583202D01*
X166831205Y-70436104D01*
X166828650Y-70430923D01*
X166709393Y-70271219D01*
X166563030Y-70135922D01*
X166558147Y-70132841D01*
X166558143Y-70132838D01*
X166399346Y-70032645D01*
X166399341Y-70032643D01*
X166394462Y-70029564D01*
X166209334Y-69955705D01*
X166013847Y-69916820D01*
X166008072Y-69916744D01*
X166008068Y-69916744D01*
X165908588Y-69915442D01*
X165814547Y-69914211D01*
X165808850Y-69915190D01*
X165808849Y-69915190D01*
X165792805Y-69917947D01*
X165618108Y-69947966D01*
X165431111Y-70016953D01*
X165259816Y-70118862D01*
X165109961Y-70250281D01*
X164986565Y-70406809D01*
X164893760Y-70583202D01*
X164885537Y-70609685D01*
X164853820Y-70711831D01*
X164834654Y-70773554D01*
X164811227Y-70971489D01*
X146782894Y-70971489D01*
X145747456Y-69245759D01*
X145729560Y-69177057D01*
X145730029Y-69169405D01*
X145733500Y-69131635D01*
X145733499Y-68468366D01*
X145732737Y-68460066D01*
X145728506Y-68414017D01*
X145726753Y-68394938D01*
X145722462Y-68381244D01*
X145677744Y-68238550D01*
X145677743Y-68238548D01*
X145675472Y-68231301D01*
X145586639Y-68084619D01*
X145465381Y-67963361D01*
X145418911Y-67935218D01*
X145371004Y-67882821D01*
X145359031Y-67812841D01*
X145386792Y-67747497D01*
X145444307Y-67707918D01*
X145556105Y-67670620D01*
X145569286Y-67664445D01*
X145702173Y-67582212D01*
X145713574Y-67573176D01*
X145816900Y-67469669D01*
X155642001Y-67469669D01*
X155642371Y-67476490D01*
X155647895Y-67527352D01*
X155651521Y-67542604D01*
X155696676Y-67663054D01*
X155705214Y-67678649D01*
X155781715Y-67780724D01*
X155794276Y-67793285D01*
X155896351Y-67869786D01*
X155911946Y-67878324D01*
X156032394Y-67923478D01*
X156047649Y-67927105D01*
X156098514Y-67932631D01*
X156105328Y-67933000D01*
X156877885Y-67933000D01*
X156893124Y-67928525D01*
X156894329Y-67927135D01*
X156896000Y-67919452D01*
X156896000Y-66947115D01*
X156891525Y-66931876D01*
X156890135Y-66930671D01*
X156882452Y-66929000D01*
X155660116Y-66929000D01*
X155644877Y-66933475D01*
X155643672Y-66934865D01*
X155642001Y-66942548D01*
X155642001Y-67469669D01*
X145816900Y-67469669D01*
X145823986Y-67462571D01*
X145832998Y-67451160D01*
X145915004Y-67318120D01*
X145921151Y-67304939D01*
X145970491Y-67156186D01*
X145973358Y-67142810D01*
X145982672Y-67051903D01*
X145982929Y-67046874D01*
X145978525Y-67031876D01*
X145977135Y-67030671D01*
X145969452Y-67029000D01*
X142235115Y-67029000D01*
X142219876Y-67033475D01*
X142218671Y-67034865D01*
X142216337Y-67045596D01*
X142182313Y-67107909D01*
X142120001Y-67141935D01*
X142093216Y-67144815D01*
X141534000Y-67144815D01*
X141465879Y-67124813D01*
X141419386Y-67071157D01*
X141408000Y-67018815D01*
X141408000Y-66768114D01*
X141393872Y-66719997D01*
X141393872Y-66649001D01*
X141432256Y-66589275D01*
X141496837Y-66559782D01*
X141514768Y-66558500D01*
X141923134Y-66558500D01*
X141985316Y-66551745D01*
X142012596Y-66541518D01*
X142056826Y-66533500D01*
X142446233Y-66533500D01*
X142457416Y-66534027D01*
X142464909Y-66535702D01*
X142472835Y-66535453D01*
X142472836Y-66535453D01*
X142532986Y-66533562D01*
X142536945Y-66533500D01*
X142564856Y-66533500D01*
X142568791Y-66533003D01*
X142568856Y-66532995D01*
X142580693Y-66532062D01*
X142612951Y-66531048D01*
X142616970Y-66530922D01*
X142624889Y-66530673D01*
X142632496Y-66528463D01*
X142632502Y-66528462D01*
X142640965Y-66526003D01*
X142676116Y-66521000D01*
X145964885Y-66521000D01*
X145980124Y-66516525D01*
X145981329Y-66515135D01*
X145983000Y-66507452D01*
X145983000Y-66504562D01*
X145982663Y-66498058D01*
X145982587Y-66497322D01*
X145982617Y-66497159D01*
X145982495Y-66494803D01*
X145983056Y-66494774D01*
X145995445Y-66427499D01*
X146044010Y-66375712D01*
X146109768Y-66359180D01*
X146109768Y-66358500D01*
X146290232Y-66358500D01*
X146296685Y-66357128D01*
X146296689Y-66357128D01*
X146378492Y-66339740D01*
X146466752Y-66320980D01*
X146540705Y-66288054D01*
X146625585Y-66250263D01*
X146625587Y-66250262D01*
X146631615Y-66247578D01*
X146646662Y-66236646D01*
X146772269Y-66145387D01*
X146772271Y-66145385D01*
X146777613Y-66141504D01*
X146782874Y-66135661D01*
X146893948Y-66012301D01*
X146893949Y-66012300D01*
X146898367Y-66007393D01*
X146968111Y-65886593D01*
X146985295Y-65856830D01*
X146985296Y-65856829D01*
X146988599Y-65851107D01*
X147015459Y-65768440D01*
X147042325Y-65685754D01*
X147042325Y-65685753D01*
X147044365Y-65679475D01*
X147046526Y-65658920D01*
X147062539Y-65506565D01*
X147063229Y-65500000D01*
X147044365Y-65320525D01*
X147033580Y-65287330D01*
X147021451Y-65250000D01*
X148136771Y-65250000D01*
X148137461Y-65256565D01*
X148138194Y-65263534D01*
X148155635Y-65429475D01*
X148157675Y-65435753D01*
X148157675Y-65435754D01*
X148176417Y-65493435D01*
X148211401Y-65601107D01*
X148301633Y-65757393D01*
X148306051Y-65762300D01*
X148306052Y-65762301D01*
X148339613Y-65799574D01*
X148422387Y-65891504D01*
X148427729Y-65895385D01*
X148427731Y-65895387D01*
X148563043Y-65993697D01*
X148568385Y-65997578D01*
X148574413Y-66000262D01*
X148574415Y-66000263D01*
X148725068Y-66067338D01*
X148733248Y-66070980D01*
X148799754Y-66085116D01*
X148903311Y-66107128D01*
X148903315Y-66107128D01*
X148909768Y-66108500D01*
X149090232Y-66108500D01*
X149096685Y-66107128D01*
X149096689Y-66107128D01*
X149189303Y-66087442D01*
X149260094Y-66092844D01*
X149316727Y-66135661D01*
X149341220Y-66202299D01*
X149341500Y-66210689D01*
X149341500Y-66323134D01*
X149348255Y-66385316D01*
X149399385Y-66521705D01*
X149486739Y-66638261D01*
X149603295Y-66725615D01*
X149739684Y-66776745D01*
X149801866Y-66783500D01*
X151898134Y-66783500D01*
X151960316Y-66776745D01*
X152096705Y-66725615D01*
X152213261Y-66638261D01*
X152300615Y-66521705D01*
X152351745Y-66385316D01*
X152358500Y-66323134D01*
X152358500Y-65173134D01*
X155641500Y-65173134D01*
X155648255Y-65235316D01*
X155699385Y-65371705D01*
X155704771Y-65378891D01*
X155757953Y-65449852D01*
X155782801Y-65516358D01*
X155767748Y-65585741D01*
X155757953Y-65600982D01*
X155705214Y-65671352D01*
X155696676Y-65686946D01*
X155651522Y-65807394D01*
X155647895Y-65822649D01*
X155642369Y-65873514D01*
X155642000Y-65880328D01*
X155642000Y-66402885D01*
X155646475Y-66418124D01*
X155647865Y-66419329D01*
X155655548Y-66421000D01*
X157278000Y-66421000D01*
X157346121Y-66441002D01*
X157392614Y-66494658D01*
X157404000Y-66547000D01*
X157404000Y-67914884D01*
X157408475Y-67930123D01*
X157409865Y-67931328D01*
X157417548Y-67932999D01*
X158194669Y-67932999D01*
X158201490Y-67932629D01*
X158252352Y-67927105D01*
X158267604Y-67923479D01*
X158388054Y-67878324D01*
X158403649Y-67869786D01*
X158497844Y-67799191D01*
X158564351Y-67774343D01*
X158633733Y-67789396D01*
X158680553Y-67833713D01*
X158748066Y-67942810D01*
X158757099Y-67954208D01*
X158871829Y-68068739D01*
X158883240Y-68077751D01*
X159021243Y-68162816D01*
X159034424Y-68168963D01*
X159188710Y-68220138D01*
X159202086Y-68223005D01*
X159296438Y-68232672D01*
X159302854Y-68233000D01*
X159727885Y-68233000D01*
X159743124Y-68228525D01*
X159744329Y-68227135D01*
X159746000Y-68219452D01*
X159746000Y-68214884D01*
X160254000Y-68214884D01*
X160258475Y-68230123D01*
X160259865Y-68231328D01*
X160267548Y-68232999D01*
X160697095Y-68232999D01*
X160703614Y-68232662D01*
X160799206Y-68222743D01*
X160812600Y-68219851D01*
X160966784Y-68168412D01*
X160979962Y-68162239D01*
X161117807Y-68076937D01*
X161129208Y-68067901D01*
X161243739Y-67953171D01*
X161252751Y-67941760D01*
X161337816Y-67803757D01*
X161343963Y-67790576D01*
X161395138Y-67636290D01*
X161398005Y-67622914D01*
X161407672Y-67528562D01*
X161408000Y-67522146D01*
X161408000Y-67422115D01*
X161403525Y-67406876D01*
X161402135Y-67405671D01*
X161394452Y-67404000D01*
X160272115Y-67404000D01*
X160256876Y-67408475D01*
X160255671Y-67409865D01*
X160254000Y-67417548D01*
X160254000Y-68214884D01*
X159746000Y-68214884D01*
X159746000Y-66877885D01*
X160254000Y-66877885D01*
X160258475Y-66893124D01*
X160259865Y-66894329D01*
X160267548Y-66896000D01*
X161389884Y-66896000D01*
X161405123Y-66891525D01*
X161406328Y-66890135D01*
X161407999Y-66882452D01*
X161407999Y-66777905D01*
X161407662Y-66771386D01*
X161397743Y-66675794D01*
X161394851Y-66662400D01*
X161343412Y-66508216D01*
X161337239Y-66495038D01*
X161251937Y-66357193D01*
X161242901Y-66345792D01*
X161128171Y-66231261D01*
X161116760Y-66222249D01*
X160978757Y-66137184D01*
X160965576Y-66131037D01*
X160811290Y-66079862D01*
X160797914Y-66076995D01*
X160703562Y-66067328D01*
X160697145Y-66067000D01*
X160272115Y-66067000D01*
X160256876Y-66071475D01*
X160255671Y-66072865D01*
X160254000Y-66080548D01*
X160254000Y-66877885D01*
X159746000Y-66877885D01*
X159746000Y-66085116D01*
X159741525Y-66069877D01*
X159740135Y-66068672D01*
X159732452Y-66067001D01*
X159302905Y-66067001D01*
X159296386Y-66067338D01*
X159200794Y-66077257D01*
X159187400Y-66080149D01*
X159033216Y-66131588D01*
X159020038Y-66137761D01*
X158882193Y-66223063D01*
X158865055Y-66236646D01*
X158863678Y-66234909D01*
X158810892Y-66263794D01*
X158740072Y-66258792D01*
X158683198Y-66216296D01*
X158658328Y-66149798D01*
X158657999Y-66140697D01*
X158657999Y-65880331D01*
X158657629Y-65873510D01*
X158652105Y-65822648D01*
X158648479Y-65807396D01*
X158603324Y-65686946D01*
X158594786Y-65671352D01*
X158542047Y-65600982D01*
X158517199Y-65534476D01*
X158532252Y-65465093D01*
X158542047Y-65449852D01*
X158595229Y-65378891D01*
X158600615Y-65371705D01*
X158619847Y-65320405D01*
X158648972Y-65242714D01*
X158648973Y-65242711D01*
X158651745Y-65235316D01*
X158652372Y-65229547D01*
X158687126Y-65168709D01*
X158750081Y-65135887D01*
X158774493Y-65133500D01*
X158855900Y-65133500D01*
X158922016Y-65152240D01*
X159027262Y-65217115D01*
X159066453Y-65230114D01*
X159188611Y-65270632D01*
X159188613Y-65270632D01*
X159195139Y-65272797D01*
X159201975Y-65273497D01*
X159201978Y-65273498D01*
X159240376Y-65277432D01*
X159299600Y-65283500D01*
X160658629Y-65283500D01*
X160726750Y-65303502D01*
X160747724Y-65320405D01*
X160943969Y-65516650D01*
X160949315Y-65522337D01*
X160990000Y-65568404D01*
X160995983Y-65572632D01*
X161000741Y-65575995D01*
X161017116Y-65589797D01*
X161157751Y-65730432D01*
X161188489Y-65780591D01*
X161211401Y-65851107D01*
X161214704Y-65856829D01*
X161214705Y-65856830D01*
X161231889Y-65886593D01*
X161301633Y-66007393D01*
X161306051Y-66012300D01*
X161306052Y-66012301D01*
X161417126Y-66135661D01*
X161422387Y-66141504D01*
X161427729Y-66145385D01*
X161427731Y-66145387D01*
X161553338Y-66236646D01*
X161568385Y-66247578D01*
X161574413Y-66250262D01*
X161574415Y-66250263D01*
X161659295Y-66288054D01*
X161733248Y-66320980D01*
X161821508Y-66339740D01*
X161903311Y-66357128D01*
X161903315Y-66357128D01*
X161909768Y-66358500D01*
X162090232Y-66358500D01*
X162096685Y-66357128D01*
X162096689Y-66357128D01*
X162178492Y-66339740D01*
X162266752Y-66320980D01*
X162340705Y-66288054D01*
X162425585Y-66250263D01*
X162425587Y-66250262D01*
X162431615Y-66247578D01*
X162446662Y-66236646D01*
X162572269Y-66145387D01*
X162572271Y-66145385D01*
X162577613Y-66141504D01*
X162582874Y-66135661D01*
X162693948Y-66012301D01*
X162693949Y-66012300D01*
X162698367Y-66007393D01*
X162768111Y-65886593D01*
X162785295Y-65856830D01*
X162785296Y-65856829D01*
X162788599Y-65851107D01*
X162815459Y-65768440D01*
X162842325Y-65685754D01*
X162842325Y-65685753D01*
X162844365Y-65679475D01*
X162846526Y-65658920D01*
X162862539Y-65506565D01*
X162863229Y-65500000D01*
X162844365Y-65320525D01*
X162833580Y-65287330D01*
X162795365Y-65169717D01*
X162788599Y-65148893D01*
X162775380Y-65125998D01*
X162758500Y-65062999D01*
X162758500Y-64937001D01*
X162775380Y-64874002D01*
X162788599Y-64851107D01*
X162844365Y-64679475D01*
X162847123Y-64653240D01*
X162862539Y-64506565D01*
X162863229Y-64500000D01*
X162844365Y-64320525D01*
X162788599Y-64148893D01*
X162759404Y-64098325D01*
X162743353Y-64070525D01*
X162698367Y-63992607D01*
X162667654Y-63958496D01*
X162582035Y-63863407D01*
X162582034Y-63863406D01*
X162577613Y-63858496D01*
X162565558Y-63849737D01*
X162436957Y-63756303D01*
X162436956Y-63756302D01*
X162431615Y-63752422D01*
X162425587Y-63749738D01*
X162425585Y-63749737D01*
X162312991Y-63699607D01*
X162258895Y-63653627D01*
X162238246Y-63585699D01*
X162257598Y-63517391D01*
X162310809Y-63470390D01*
X162364240Y-63458500D01*
X162925400Y-63458500D01*
X162928646Y-63458163D01*
X162928650Y-63458163D01*
X163024308Y-63448238D01*
X163024312Y-63448237D01*
X163031166Y-63447526D01*
X163037702Y-63445345D01*
X163037704Y-63445345D01*
X163189369Y-63394745D01*
X163198946Y-63391550D01*
X163349348Y-63298478D01*
X163474305Y-63173303D01*
X163504113Y-63124946D01*
X163563275Y-63028968D01*
X163563276Y-63028966D01*
X163567115Y-63022738D01*
X163610091Y-62893170D01*
X163620632Y-62861389D01*
X163620632Y-62861387D01*
X163622797Y-62854861D01*
X163624489Y-62838354D01*
X163630993Y-62774865D01*
X163633500Y-62750400D01*
X163633500Y-61399600D01*
X163633107Y-61395812D01*
X163623238Y-61300692D01*
X163623237Y-61300688D01*
X163622526Y-61293834D01*
X163598741Y-61222540D01*
X163568868Y-61133002D01*
X163566550Y-61126054D01*
X163473478Y-60975652D01*
X163348303Y-60850695D01*
X163307337Y-60825443D01*
X163203968Y-60761725D01*
X163203966Y-60761724D01*
X163197738Y-60757885D01*
X163037254Y-60704655D01*
X163036389Y-60704368D01*
X163036387Y-60704368D01*
X163029861Y-60702203D01*
X163023025Y-60701503D01*
X163023022Y-60701502D01*
X162979969Y-60697091D01*
X162925400Y-60691500D01*
X162074600Y-60691500D01*
X162071354Y-60691837D01*
X162071350Y-60691837D01*
X161975692Y-60701762D01*
X161975688Y-60701763D01*
X161968834Y-60702474D01*
X161962298Y-60704655D01*
X161962296Y-60704655D01*
X161842945Y-60744474D01*
X161801054Y-60758450D01*
X161650652Y-60851522D01*
X161525695Y-60976697D01*
X161521855Y-60982927D01*
X161521854Y-60982928D01*
X161460611Y-61082283D01*
X161432885Y-61127262D01*
X161423405Y-61155844D01*
X161420495Y-61164617D01*
X161380064Y-61222977D01*
X161314499Y-61250213D01*
X161244618Y-61237679D01*
X161211884Y-61214122D01*
X161209204Y-61211446D01*
X161123303Y-61125695D01*
X161052876Y-61082283D01*
X160978968Y-61036725D01*
X160978966Y-61036724D01*
X160972738Y-61032885D01*
X160892995Y-61006436D01*
X160811389Y-60979368D01*
X160811387Y-60979368D01*
X160804861Y-60977203D01*
X160798025Y-60976503D01*
X160798022Y-60976502D01*
X160754969Y-60972091D01*
X160700400Y-60966500D01*
X159299600Y-60966500D01*
X159296354Y-60966837D01*
X159296350Y-60966837D01*
X159200692Y-60976762D01*
X159200688Y-60976763D01*
X159193834Y-60977474D01*
X159187298Y-60979655D01*
X159187296Y-60979655D01*
X159083618Y-61014245D01*
X159026054Y-61033450D01*
X158875652Y-61126522D01*
X158827240Y-61175019D01*
X158764958Y-61209098D01*
X158694138Y-61204095D01*
X158637265Y-61161598D01*
X158620085Y-61130231D01*
X158603767Y-61086703D01*
X158600615Y-61078295D01*
X158513261Y-60961739D01*
X158396705Y-60874385D01*
X158260316Y-60823255D01*
X158198134Y-60816500D01*
X156101866Y-60816500D01*
X156039684Y-60823255D01*
X155903295Y-60874385D01*
X155786739Y-60961739D01*
X155699385Y-61078295D01*
X155648255Y-61214684D01*
X155641500Y-61276866D01*
X155641500Y-62873134D01*
X155648255Y-62935316D01*
X155699385Y-63071705D01*
X155704770Y-63078890D01*
X155704771Y-63078892D01*
X155757640Y-63149435D01*
X155782488Y-63215942D01*
X155767435Y-63285324D01*
X155757640Y-63300565D01*
X155704771Y-63371108D01*
X155699385Y-63378295D01*
X155648255Y-63514684D01*
X155641500Y-63576866D01*
X155641500Y-65173134D01*
X152358500Y-65173134D01*
X152358500Y-62426866D01*
X152351745Y-62364684D01*
X152300615Y-62228295D01*
X152213261Y-62111739D01*
X152096705Y-62024385D01*
X151960316Y-61973255D01*
X151898134Y-61966500D01*
X149801866Y-61966500D01*
X149739684Y-61973255D01*
X149603295Y-62024385D01*
X149486739Y-62111739D01*
X149399385Y-62228295D01*
X149396233Y-62236703D01*
X149396232Y-62236705D01*
X149357978Y-62338747D01*
X149315337Y-62395512D01*
X149248775Y-62420212D01*
X149213802Y-62417765D01*
X149162198Y-62406797D01*
X149096689Y-62392872D01*
X149096685Y-62392872D01*
X149090232Y-62391500D01*
X148909768Y-62391500D01*
X148903315Y-62392872D01*
X148903311Y-62392872D01*
X148821508Y-62410260D01*
X148733248Y-62429020D01*
X148727219Y-62431704D01*
X148727217Y-62431705D01*
X148574416Y-62499737D01*
X148574414Y-62499738D01*
X148568386Y-62502422D01*
X148563045Y-62506302D01*
X148563044Y-62506303D01*
X148427731Y-62604613D01*
X148427729Y-62604615D01*
X148422387Y-62608496D01*
X148417966Y-62613406D01*
X148417965Y-62613407D01*
X148327719Y-62713636D01*
X148301633Y-62742607D01*
X148285683Y-62770233D01*
X148230103Y-62866501D01*
X148211401Y-62898893D01*
X148209359Y-62905178D01*
X148169138Y-63028968D01*
X148155635Y-63070525D01*
X148154945Y-63077088D01*
X148154945Y-63077089D01*
X148144288Y-63178483D01*
X148136771Y-63250000D01*
X148137461Y-63256565D01*
X148152606Y-63400652D01*
X148155635Y-63429475D01*
X148157675Y-63435753D01*
X148157675Y-63435754D01*
X148168929Y-63470390D01*
X148211401Y-63601107D01*
X148224130Y-63623154D01*
X148240867Y-63692146D01*
X148239578Y-63705097D01*
X148236801Y-63723349D01*
X148237394Y-63730641D01*
X148237394Y-63730644D01*
X148241085Y-63776018D01*
X148241500Y-63786233D01*
X148241500Y-63812999D01*
X148224620Y-63875998D01*
X148211401Y-63898893D01*
X148209359Y-63905178D01*
X148182547Y-63987699D01*
X148155635Y-64070525D01*
X148154945Y-64077088D01*
X148154945Y-64077089D01*
X148147398Y-64148893D01*
X148136771Y-64250000D01*
X148137461Y-64256565D01*
X148149062Y-64366934D01*
X148155635Y-64429475D01*
X148211401Y-64601107D01*
X148224620Y-64624002D01*
X148241500Y-64687001D01*
X148241500Y-64812999D01*
X148224620Y-64875998D01*
X148211401Y-64898893D01*
X148155635Y-65070525D01*
X148154945Y-65077088D01*
X148154945Y-65077089D01*
X148144493Y-65176531D01*
X148136771Y-65250000D01*
X147021451Y-65250000D01*
X146995365Y-65169717D01*
X146988599Y-65148893D01*
X146975380Y-65125998D01*
X146958500Y-65062999D01*
X146958500Y-65037001D01*
X146975380Y-64974002D01*
X146988599Y-64951107D01*
X147044365Y-64779475D01*
X147063229Y-64600000D01*
X147044365Y-64420525D01*
X146988599Y-64248893D01*
X146984788Y-64242291D01*
X146930864Y-64148893D01*
X146898367Y-64092607D01*
X146803908Y-63987699D01*
X146782035Y-63963407D01*
X146782034Y-63963406D01*
X146777613Y-63958496D01*
X146740786Y-63931739D01*
X146636957Y-63856303D01*
X146636956Y-63856302D01*
X146631615Y-63852422D01*
X146625587Y-63849738D01*
X146625585Y-63849737D01*
X146472783Y-63781705D01*
X146472781Y-63781705D01*
X146466752Y-63779020D01*
X146359876Y-63756303D01*
X146296689Y-63742872D01*
X146296685Y-63742872D01*
X146290232Y-63741500D01*
X146109768Y-63741500D01*
X146103315Y-63742872D01*
X146103311Y-63742872D01*
X146040124Y-63756303D01*
X145933248Y-63779020D01*
X145927219Y-63781704D01*
X145927217Y-63781705D01*
X145774416Y-63849737D01*
X145774414Y-63849738D01*
X145768386Y-63852422D01*
X145763045Y-63856302D01*
X145763044Y-63856303D01*
X145627731Y-63954613D01*
X145627729Y-63954615D01*
X145622387Y-63958496D01*
X145617966Y-63963406D01*
X145617965Y-63963407D01*
X145596093Y-63987699D01*
X145501633Y-64092607D01*
X145483589Y-64123860D01*
X145436306Y-64205756D01*
X145384923Y-64254749D01*
X145314341Y-64268099D01*
X145301942Y-64266828D01*
X145301925Y-64266827D01*
X145298732Y-64266500D01*
X144701268Y-64266500D01*
X144698022Y-64266837D01*
X144698018Y-64266837D01*
X144663917Y-64270375D01*
X144598981Y-64277113D01*
X144532731Y-64299216D01*
X144461783Y-64301802D01*
X144400698Y-64265618D01*
X144368873Y-64202154D01*
X144376411Y-64131559D01*
X144385595Y-64113578D01*
X144415002Y-64065870D01*
X144421151Y-64052684D01*
X144470491Y-63903931D01*
X144473358Y-63890555D01*
X144482672Y-63799648D01*
X144482929Y-63794619D01*
X144478525Y-63779621D01*
X144477135Y-63778416D01*
X144469452Y-63776745D01*
X143372000Y-63776745D01*
X143303879Y-63756743D01*
X143257386Y-63703087D01*
X143246000Y-63650745D01*
X143246000Y-63394745D01*
X143266002Y-63326624D01*
X143319658Y-63280131D01*
X143372000Y-63268745D01*
X144464885Y-63268745D01*
X144480124Y-63264270D01*
X144481329Y-63262880D01*
X144483000Y-63255197D01*
X144483000Y-63252307D01*
X144482663Y-63245792D01*
X144473106Y-63153688D01*
X144470212Y-63140289D01*
X144420619Y-62991638D01*
X144414445Y-62978459D01*
X144332212Y-62845572D01*
X144318629Y-62828434D01*
X144320559Y-62826904D01*
X144292097Y-62774865D01*
X144297113Y-62704046D01*
X144320799Y-62667128D01*
X144319843Y-62666373D01*
X144324381Y-62660627D01*
X144329552Y-62655447D01*
X144360887Y-62604613D01*
X144415462Y-62516076D01*
X144415463Y-62516074D01*
X144419302Y-62509846D01*
X144473149Y-62347502D01*
X144474647Y-62332888D01*
X144481031Y-62270576D01*
X144483500Y-62246477D01*
X144483500Y-61699013D01*
X144482327Y-61687702D01*
X144476470Y-61631263D01*
X144472887Y-61596726D01*
X144443477Y-61508574D01*
X144421073Y-61441421D01*
X144421072Y-61441419D01*
X144418756Y-61434477D01*
X144397174Y-61399600D01*
X144332606Y-61295260D01*
X144328752Y-61289032D01*
X144207702Y-61168193D01*
X144197003Y-61161598D01*
X144143641Y-61128705D01*
X144942001Y-61128705D01*
X144942264Y-61134454D01*
X144948132Y-61198315D01*
X144950743Y-61211351D01*
X144997715Y-61361243D01*
X145003921Y-61374988D01*
X145084824Y-61508574D01*
X145094131Y-61520443D01*
X145204557Y-61630869D01*
X145216426Y-61640176D01*
X145350012Y-61721079D01*
X145363757Y-61727285D01*
X145513644Y-61774256D01*
X145526694Y-61776869D01*
X145581586Y-61781913D01*
X145593124Y-61778525D01*
X145594329Y-61777135D01*
X145596000Y-61769452D01*
X145596000Y-61072115D01*
X145591525Y-61056876D01*
X145590135Y-61055671D01*
X145582452Y-61054000D01*
X144960116Y-61054000D01*
X144944877Y-61058475D01*
X144943672Y-61059865D01*
X144942001Y-61067548D01*
X144942001Y-61128705D01*
X144143641Y-61128705D01*
X144068331Y-61082283D01*
X144068329Y-61082282D01*
X144062101Y-61078443D01*
X143899757Y-61024596D01*
X143892920Y-61023896D01*
X143892918Y-61023895D01*
X143851599Y-61019662D01*
X143798732Y-61014245D01*
X143461045Y-61014245D01*
X143392924Y-60994243D01*
X143346431Y-60940587D01*
X143336327Y-60870313D01*
X143342430Y-60847362D01*
X143343695Y-60845061D01*
X143348735Y-60825430D01*
X143355137Y-60806736D01*
X143357900Y-60800350D01*
X143360033Y-60795421D01*
X143363182Y-60788144D01*
X143364422Y-60780314D01*
X143364424Y-60780308D01*
X143370100Y-60744474D01*
X143372506Y-60732854D01*
X143381528Y-60697712D01*
X143381528Y-60697711D01*
X143383500Y-60690031D01*
X143383500Y-60669775D01*
X143385051Y-60650066D01*
X143385401Y-60647856D01*
X143385402Y-60647856D01*
X143385401Y-60647853D01*
X143388220Y-60630058D01*
X143388146Y-60629270D01*
X143384059Y-60586037D01*
X143383500Y-60574179D01*
X143383500Y-57500000D01*
X144886771Y-57500000D01*
X144887461Y-57506565D01*
X144903018Y-57654572D01*
X144905635Y-57679475D01*
X144907675Y-57685753D01*
X144907675Y-57685754D01*
X144928266Y-57749126D01*
X144961401Y-57851107D01*
X144974620Y-57874002D01*
X144991500Y-57937001D01*
X144991500Y-58255112D01*
X144985093Y-58294780D01*
X144980629Y-58308240D01*
X144951762Y-58395269D01*
X144941500Y-58495428D01*
X144941500Y-59104572D01*
X144952022Y-59205982D01*
X145005692Y-59366849D01*
X145094929Y-59511055D01*
X145214947Y-59630864D01*
X145221177Y-59634704D01*
X145221178Y-59634705D01*
X145309323Y-59689038D01*
X145356816Y-59741810D01*
X145368240Y-59811882D01*
X145339966Y-59877005D01*
X145308479Y-59904074D01*
X145216426Y-59959824D01*
X145204557Y-59969131D01*
X145094131Y-60079557D01*
X145084824Y-60091426D01*
X145003921Y-60225012D01*
X144997715Y-60238757D01*
X144950744Y-60388644D01*
X144948131Y-60401694D01*
X144942266Y-60465521D01*
X144942000Y-60471309D01*
X144942000Y-60527885D01*
X144946475Y-60543124D01*
X144947865Y-60544329D01*
X144955548Y-60546000D01*
X145978000Y-60546000D01*
X146046121Y-60566002D01*
X146092614Y-60619658D01*
X146104000Y-60672000D01*
X146104000Y-61764884D01*
X146108475Y-61780123D01*
X146109865Y-61781328D01*
X146114294Y-61782291D01*
X146173315Y-61776868D01*
X146186351Y-61774257D01*
X146336243Y-61727285D01*
X146349988Y-61721079D01*
X146483574Y-61640176D01*
X146495443Y-61630869D01*
X146585551Y-61540761D01*
X146647863Y-61506735D01*
X146718678Y-61511800D01*
X146763741Y-61540761D01*
X146859619Y-61636639D01*
X147006301Y-61725472D01*
X147013548Y-61727743D01*
X147013550Y-61727744D01*
X147050761Y-61739405D01*
X147169938Y-61776753D01*
X147243365Y-61783500D01*
X147246263Y-61783500D01*
X147500665Y-61783499D01*
X147756634Y-61783499D01*
X147759492Y-61783236D01*
X147759501Y-61783236D01*
X147795004Y-61779974D01*
X147830062Y-61776753D01*
X147841119Y-61773288D01*
X147986450Y-61727744D01*
X147986452Y-61727743D01*
X147993699Y-61725472D01*
X148140381Y-61636639D01*
X148261639Y-61515381D01*
X148350472Y-61368699D01*
X148358258Y-61343856D01*
X148388348Y-61247836D01*
X148401753Y-61205062D01*
X148408500Y-61131635D01*
X148408499Y-60468366D01*
X148401753Y-60394938D01*
X148383783Y-60337595D01*
X148352744Y-60238550D01*
X148352743Y-60238548D01*
X148350472Y-60231301D01*
X148276724Y-60109527D01*
X148258500Y-60044257D01*
X148258500Y-59541491D01*
X148277240Y-59475375D01*
X148279262Y-59472095D01*
X158592001Y-59472095D01*
X158592338Y-59478614D01*
X158602257Y-59574206D01*
X158605149Y-59587600D01*
X158656588Y-59741784D01*
X158662761Y-59754962D01*
X158748063Y-59892807D01*
X158757099Y-59904208D01*
X158871829Y-60018739D01*
X158883240Y-60027751D01*
X159021243Y-60112816D01*
X159034424Y-60118963D01*
X159188710Y-60170138D01*
X159202086Y-60173005D01*
X159296438Y-60182672D01*
X159302854Y-60183000D01*
X159727885Y-60183000D01*
X159743124Y-60178525D01*
X159744329Y-60177135D01*
X159746000Y-60169452D01*
X159746000Y-60164884D01*
X160254000Y-60164884D01*
X160258475Y-60180123D01*
X160259865Y-60181328D01*
X160267548Y-60182999D01*
X160697095Y-60182999D01*
X160703614Y-60182662D01*
X160799206Y-60172743D01*
X160812600Y-60169851D01*
X160966784Y-60118412D01*
X160979962Y-60112239D01*
X161117807Y-60026937D01*
X161129208Y-60017901D01*
X161243739Y-59903171D01*
X161252751Y-59891760D01*
X161337816Y-59753757D01*
X161343963Y-59740576D01*
X161395138Y-59586290D01*
X161398005Y-59572914D01*
X161407672Y-59478562D01*
X161408000Y-59472146D01*
X161408000Y-59372115D01*
X161403525Y-59356876D01*
X161402135Y-59355671D01*
X161394452Y-59354000D01*
X160272115Y-59354000D01*
X160256876Y-59358475D01*
X160255671Y-59359865D01*
X160254000Y-59367548D01*
X160254000Y-60164884D01*
X159746000Y-60164884D01*
X159746000Y-59372115D01*
X159741525Y-59356876D01*
X159740135Y-59355671D01*
X159732452Y-59354000D01*
X158610116Y-59354000D01*
X158594877Y-59358475D01*
X158593672Y-59359865D01*
X158592001Y-59367548D01*
X158592001Y-59472095D01*
X148279262Y-59472095D01*
X148303875Y-59432165D01*
X148344849Y-59365692D01*
X148369758Y-59290595D01*
X148396072Y-59211262D01*
X148396072Y-59211260D01*
X148398238Y-59204731D01*
X148408500Y-59104572D01*
X148408500Y-58827885D01*
X158592000Y-58827885D01*
X158596475Y-58843124D01*
X158597865Y-58844329D01*
X158605548Y-58846000D01*
X159727885Y-58846000D01*
X159743124Y-58841525D01*
X159744329Y-58840135D01*
X159746000Y-58832452D01*
X159746000Y-58827885D01*
X160254000Y-58827885D01*
X160258475Y-58843124D01*
X160259865Y-58844329D01*
X160267548Y-58846000D01*
X161389884Y-58846000D01*
X161405123Y-58841525D01*
X161406328Y-58840135D01*
X161407999Y-58832452D01*
X161407999Y-58727905D01*
X161407662Y-58721386D01*
X161397743Y-58625794D01*
X161394851Y-58612400D01*
X161343412Y-58458216D01*
X161337239Y-58445038D01*
X161251937Y-58307193D01*
X161242901Y-58295792D01*
X161128171Y-58181261D01*
X161116760Y-58172249D01*
X160978757Y-58087184D01*
X160965576Y-58081037D01*
X160811290Y-58029862D01*
X160797914Y-58026995D01*
X160703562Y-58017328D01*
X160697145Y-58017000D01*
X160272115Y-58017000D01*
X160256876Y-58021475D01*
X160255671Y-58022865D01*
X160254000Y-58030548D01*
X160254000Y-58827885D01*
X159746000Y-58827885D01*
X159746000Y-58035116D01*
X159741525Y-58019877D01*
X159740135Y-58018672D01*
X159732452Y-58017001D01*
X159302905Y-58017001D01*
X159296386Y-58017338D01*
X159200794Y-58027257D01*
X159187400Y-58030149D01*
X159033216Y-58081588D01*
X159020038Y-58087761D01*
X158882193Y-58173063D01*
X158870792Y-58182099D01*
X158756261Y-58296829D01*
X158747249Y-58308240D01*
X158662184Y-58446243D01*
X158656037Y-58459424D01*
X158604862Y-58613710D01*
X158601995Y-58627086D01*
X158592328Y-58721438D01*
X158592000Y-58727855D01*
X158592000Y-58827885D01*
X148408500Y-58827885D01*
X148408500Y-58495428D01*
X148397978Y-58394018D01*
X148344308Y-58233151D01*
X148255071Y-58088945D01*
X148220902Y-58054835D01*
X148190219Y-58024206D01*
X148135053Y-57969136D01*
X147990692Y-57880151D01*
X147972148Y-57874000D01*
X147836262Y-57828928D01*
X147836260Y-57828928D01*
X147829731Y-57826762D01*
X147729572Y-57816500D01*
X147195428Y-57816500D01*
X147192182Y-57816837D01*
X147192178Y-57816837D01*
X147158397Y-57820342D01*
X147094018Y-57827022D01*
X146933151Y-57880692D01*
X146788945Y-57969929D01*
X146764113Y-57994805D01*
X146701832Y-58028884D01*
X146631012Y-58023882D01*
X146585924Y-57994962D01*
X146584394Y-57993435D01*
X146569595Y-57978662D01*
X146535515Y-57916381D01*
X146538779Y-57850552D01*
X146541060Y-57843534D01*
X146594365Y-57679475D01*
X146596983Y-57654572D01*
X146612539Y-57506565D01*
X146613229Y-57500000D01*
X146602674Y-57399575D01*
X146595055Y-57327089D01*
X146595055Y-57327088D01*
X146594365Y-57320525D01*
X146538599Y-57148893D01*
X146448367Y-56992607D01*
X146442850Y-56986479D01*
X146332035Y-56863407D01*
X146332034Y-56863406D01*
X146327613Y-56858496D01*
X146320154Y-56853076D01*
X146186957Y-56756303D01*
X146186956Y-56756302D01*
X146181615Y-56752422D01*
X146175587Y-56749738D01*
X146175585Y-56749737D01*
X146022783Y-56681705D01*
X146022781Y-56681705D01*
X146016752Y-56679020D01*
X145925067Y-56659532D01*
X145846689Y-56642872D01*
X145846685Y-56642872D01*
X145840232Y-56641500D01*
X145659768Y-56641500D01*
X145653315Y-56642872D01*
X145653311Y-56642872D01*
X145574933Y-56659532D01*
X145483248Y-56679020D01*
X145477219Y-56681704D01*
X145477217Y-56681705D01*
X145324416Y-56749737D01*
X145324414Y-56749738D01*
X145318386Y-56752422D01*
X145313045Y-56756302D01*
X145313044Y-56756303D01*
X145177731Y-56854613D01*
X145177729Y-56854615D01*
X145172387Y-56858496D01*
X145167966Y-56863406D01*
X145167965Y-56863407D01*
X145057151Y-56986479D01*
X145051633Y-56992607D01*
X144961401Y-57148893D01*
X144905635Y-57320525D01*
X144904945Y-57327088D01*
X144904945Y-57327089D01*
X144897326Y-57399575D01*
X144886771Y-57500000D01*
X143383500Y-57500000D01*
X143383500Y-55578768D01*
X143384027Y-55567585D01*
X143385702Y-55560092D01*
X143383562Y-55492001D01*
X143383500Y-55488044D01*
X143383500Y-55460144D01*
X143382996Y-55456153D01*
X143382063Y-55444311D01*
X143381969Y-55441303D01*
X143380674Y-55400111D01*
X143375021Y-55380652D01*
X143371012Y-55361293D01*
X143370846Y-55359983D01*
X143368474Y-55341203D01*
X143365558Y-55333837D01*
X143365556Y-55333831D01*
X143352200Y-55300098D01*
X143348355Y-55288868D01*
X143338230Y-55254017D01*
X143338230Y-55254016D01*
X143336019Y-55246407D01*
X143325705Y-55228966D01*
X143317008Y-55211213D01*
X143312472Y-55199758D01*
X143309552Y-55192383D01*
X143283563Y-55156612D01*
X143277047Y-55146692D01*
X143276147Y-55145170D01*
X143254542Y-55108638D01*
X143240221Y-55094317D01*
X143227380Y-55079283D01*
X143215472Y-55062893D01*
X143181395Y-55034702D01*
X143172616Y-55026712D01*
X141744500Y-53598595D01*
X141710474Y-53536283D01*
X141715539Y-53465467D01*
X141758086Y-53408632D01*
X141824606Y-53383821D01*
X141833595Y-53383500D01*
X143835406Y-53383500D01*
X143903527Y-53403502D01*
X143924501Y-53420405D01*
X145319605Y-54815510D01*
X146708848Y-56204753D01*
X146716388Y-56213039D01*
X146720500Y-56219518D01*
X146726277Y-56224943D01*
X146770151Y-56266143D01*
X146772993Y-56268898D01*
X146792730Y-56288635D01*
X146795927Y-56291115D01*
X146804947Y-56298818D01*
X146837179Y-56329086D01*
X146844125Y-56332905D01*
X146844128Y-56332907D01*
X146854934Y-56338848D01*
X146871453Y-56349699D01*
X146887459Y-56362114D01*
X146894728Y-56365259D01*
X146894732Y-56365262D01*
X146928037Y-56379674D01*
X146938687Y-56384891D01*
X146977440Y-56406195D01*
X146985115Y-56408166D01*
X146985116Y-56408166D01*
X146997062Y-56411233D01*
X147015766Y-56417637D01*
X147022251Y-56420443D01*
X147034355Y-56425681D01*
X147042178Y-56426920D01*
X147042188Y-56426923D01*
X147078024Y-56432599D01*
X147089644Y-56435005D01*
X147124789Y-56444028D01*
X147132470Y-56446000D01*
X147152724Y-56446000D01*
X147172434Y-56447551D01*
X147192443Y-56450720D01*
X147200335Y-56449974D01*
X147236461Y-56446559D01*
X147248319Y-56446000D01*
X151272103Y-56446000D01*
X151340224Y-56466002D01*
X151363055Y-56486679D01*
X151363678Y-56486054D01*
X151363679Y-56486055D01*
X151388555Y-56510887D01*
X151422634Y-56573168D01*
X151417632Y-56643988D01*
X151388710Y-56689078D01*
X151362886Y-56714947D01*
X151273901Y-56859308D01*
X151271596Y-56866256D01*
X151271596Y-56866257D01*
X151226436Y-57002410D01*
X151220512Y-57020269D01*
X151210250Y-57120428D01*
X151210250Y-57654572D01*
X151220772Y-57755982D01*
X151274442Y-57916849D01*
X151363679Y-58061055D01*
X151368857Y-58066224D01*
X151399271Y-58096585D01*
X151483697Y-58180864D01*
X151489927Y-58184704D01*
X151489928Y-58184705D01*
X151521264Y-58204020D01*
X151628058Y-58269849D01*
X151635006Y-58272154D01*
X151635007Y-58272154D01*
X151782488Y-58321072D01*
X151782490Y-58321072D01*
X151789019Y-58323238D01*
X151889178Y-58333500D01*
X152498322Y-58333500D01*
X152501568Y-58333163D01*
X152501572Y-58333163D01*
X152535353Y-58329658D01*
X152599732Y-58322978D01*
X152760599Y-58269308D01*
X152904805Y-58180071D01*
X152909979Y-58174888D01*
X152912038Y-58173256D01*
X152977848Y-58146617D01*
X152990305Y-58146000D01*
X153285540Y-58146000D01*
X153353661Y-58166002D01*
X153366931Y-58176697D01*
X153367022Y-58176581D01*
X153372993Y-58181263D01*
X153378369Y-58186639D01*
X153525051Y-58275472D01*
X153532298Y-58277743D01*
X153532300Y-58277744D01*
X153589892Y-58295792D01*
X153688688Y-58326753D01*
X153762115Y-58333500D01*
X153765013Y-58333500D01*
X154094610Y-58333499D01*
X154425384Y-58333499D01*
X154428242Y-58333236D01*
X154428251Y-58333236D01*
X154463754Y-58329974D01*
X154498812Y-58326753D01*
X154505197Y-58324752D01*
X154655200Y-58277744D01*
X154655202Y-58277743D01*
X154662449Y-58275472D01*
X154809131Y-58186639D01*
X154930389Y-58065381D01*
X155019222Y-57918699D01*
X155030316Y-57883300D01*
X155051144Y-57816837D01*
X155070503Y-57755062D01*
X155077250Y-57681635D01*
X155077249Y-57168366D01*
X155076038Y-57155178D01*
X155072037Y-57111637D01*
X155070503Y-57094938D01*
X155047103Y-57020269D01*
X155021494Y-56938550D01*
X155021493Y-56938548D01*
X155019222Y-56931301D01*
X154930389Y-56784619D01*
X154834511Y-56688741D01*
X154800485Y-56626429D01*
X154805550Y-56555614D01*
X154834511Y-56510551D01*
X154924619Y-56420443D01*
X154933926Y-56408574D01*
X155014829Y-56274988D01*
X155021035Y-56261243D01*
X155068006Y-56111356D01*
X155070619Y-56098306D01*
X155075663Y-56043414D01*
X155072275Y-56031876D01*
X155070885Y-56030671D01*
X155063202Y-56029000D01*
X153965750Y-56029000D01*
X153897629Y-56008998D01*
X153851136Y-55955342D01*
X153839750Y-55903000D01*
X153839750Y-55502885D01*
X154347750Y-55502885D01*
X154352225Y-55518124D01*
X154353615Y-55519329D01*
X154361298Y-55521000D01*
X155058634Y-55521000D01*
X155073873Y-55516525D01*
X155075078Y-55515135D01*
X155076041Y-55510706D01*
X155070618Y-55451685D01*
X155068007Y-55438649D01*
X155021035Y-55288757D01*
X155014829Y-55275012D01*
X154933926Y-55141426D01*
X154924619Y-55129557D01*
X154814193Y-55019131D01*
X154802324Y-55009824D01*
X154668738Y-54928921D01*
X154654993Y-54922715D01*
X154505106Y-54875744D01*
X154492056Y-54873131D01*
X154428229Y-54867266D01*
X154422441Y-54867000D01*
X154365865Y-54867000D01*
X154350626Y-54871475D01*
X154349421Y-54872865D01*
X154347750Y-54880548D01*
X154347750Y-55502885D01*
X153839750Y-55502885D01*
X153839750Y-54885116D01*
X153835275Y-54869877D01*
X153833885Y-54868672D01*
X153826202Y-54867001D01*
X153765045Y-54867001D01*
X153759296Y-54867264D01*
X153695435Y-54873132D01*
X153682399Y-54875743D01*
X153532507Y-54922715D01*
X153518762Y-54928921D01*
X153385176Y-55009824D01*
X153373307Y-55019131D01*
X153262881Y-55129557D01*
X153253571Y-55141429D01*
X153247313Y-55151763D01*
X153194916Y-55199670D01*
X153124936Y-55211643D01*
X153059592Y-55183882D01*
X153032394Y-55152797D01*
X153027674Y-55145170D01*
X153027670Y-55145165D01*
X153023821Y-55138945D01*
X152903803Y-55019136D01*
X152890551Y-55010967D01*
X152823304Y-54969516D01*
X152759442Y-54930151D01*
X152752493Y-54927846D01*
X152605012Y-54878928D01*
X152605010Y-54878928D01*
X152598481Y-54876762D01*
X152498322Y-54866500D01*
X151889178Y-54866500D01*
X151885932Y-54866837D01*
X151885928Y-54866837D01*
X151868244Y-54868672D01*
X151787768Y-54877022D01*
X151626901Y-54930692D01*
X151482695Y-55019929D01*
X151362886Y-55139947D01*
X151361054Y-55138118D01*
X151313027Y-55172160D01*
X151272077Y-55179000D01*
X147527094Y-55179000D01*
X147458973Y-55158998D01*
X147437999Y-55142095D01*
X145400056Y-53104151D01*
X145366030Y-53041839D01*
X145371095Y-52971023D01*
X145413642Y-52914188D01*
X145480162Y-52889377D01*
X145489151Y-52889056D01*
X153633104Y-52889056D01*
X153701225Y-52909058D01*
X153722199Y-52925961D01*
X158041903Y-57245665D01*
X158049543Y-57254061D01*
X158053685Y-57260587D01*
X158059462Y-57266012D01*
X158103781Y-57307630D01*
X158106623Y-57310385D01*
X158126547Y-57330309D01*
X158129806Y-57332837D01*
X158138834Y-57340547D01*
X158165609Y-57365691D01*
X158165613Y-57365694D01*
X158171387Y-57371116D01*
X158178332Y-57374934D01*
X158178336Y-57374937D01*
X158189372Y-57381004D01*
X158205889Y-57391853D01*
X158222109Y-57404434D01*
X158263081Y-57422164D01*
X158273742Y-57427386D01*
X158312878Y-57448902D01*
X158332758Y-57454006D01*
X158351458Y-57460408D01*
X158370291Y-57468558D01*
X158378120Y-57469798D01*
X158378130Y-57469801D01*
X158414389Y-57475544D01*
X158426011Y-57477950D01*
X158435532Y-57480394D01*
X158469268Y-57489056D01*
X158489789Y-57489056D01*
X158509501Y-57490607D01*
X158529767Y-57493817D01*
X158537659Y-57493071D01*
X158574219Y-57489615D01*
X158586077Y-57489056D01*
X162339911Y-57489056D01*
X162408032Y-57509058D01*
X162454525Y-57562714D01*
X162464629Y-57632988D01*
X162459744Y-57653992D01*
X162407675Y-57814246D01*
X162405635Y-57820525D01*
X162404945Y-57827088D01*
X162404945Y-57827089D01*
X162389014Y-57978663D01*
X162386771Y-58000000D01*
X162387461Y-58006565D01*
X162404076Y-58164638D01*
X162405635Y-58179475D01*
X162407675Y-58185753D01*
X162407675Y-58185754D01*
X162423075Y-58233151D01*
X162461401Y-58351107D01*
X162464704Y-58356829D01*
X162464705Y-58356830D01*
X162505231Y-58427022D01*
X162551633Y-58507393D01*
X162556051Y-58512300D01*
X162556052Y-58512301D01*
X162611343Y-58573707D01*
X162628355Y-58600054D01*
X162628764Y-58599812D01*
X162632634Y-58606354D01*
X162635685Y-58613305D01*
X162668680Y-58656303D01*
X162674579Y-58663991D01*
X162678459Y-58669332D01*
X162710339Y-58715720D01*
X162710344Y-58715725D01*
X162714643Y-58721981D01*
X162720313Y-58727032D01*
X162720314Y-58727034D01*
X162761170Y-58763435D01*
X162766446Y-58768416D01*
X164004595Y-60006566D01*
X164038621Y-60068878D01*
X164041500Y-60095661D01*
X164041500Y-61496088D01*
X164041208Y-61504658D01*
X164038391Y-61545983D01*
X164037275Y-61562352D01*
X164046312Y-61614129D01*
X164048261Y-61625299D01*
X164049223Y-61631821D01*
X164056898Y-61695242D01*
X164059581Y-61702343D01*
X164060222Y-61704952D01*
X164064685Y-61721262D01*
X164065450Y-61723798D01*
X164066757Y-61731284D01*
X164086986Y-61777365D01*
X164092442Y-61789795D01*
X164094933Y-61795899D01*
X164117513Y-61855656D01*
X164121817Y-61861919D01*
X164123054Y-61864285D01*
X164131303Y-61879105D01*
X164132634Y-61881356D01*
X164135685Y-61888305D01*
X164140306Y-61894327D01*
X164140307Y-61894329D01*
X164140464Y-61894534D01*
X164140532Y-61894710D01*
X164144174Y-61900868D01*
X164143147Y-61901475D01*
X164166063Y-61960754D01*
X164166500Y-61971236D01*
X164166500Y-62750400D01*
X164166837Y-62753646D01*
X164166837Y-62753650D01*
X164176375Y-62845572D01*
X164177474Y-62856166D01*
X164179655Y-62862702D01*
X164179655Y-62862704D01*
X164204912Y-62938407D01*
X164233450Y-63023946D01*
X164326522Y-63174348D01*
X164451697Y-63299305D01*
X164457927Y-63303145D01*
X164457928Y-63303146D01*
X164595090Y-63387694D01*
X164602262Y-63392115D01*
X164682005Y-63418564D01*
X164763611Y-63445632D01*
X164763613Y-63445632D01*
X164770139Y-63447797D01*
X164776975Y-63448497D01*
X164776978Y-63448498D01*
X164813161Y-63452205D01*
X164874600Y-63458500D01*
X165725400Y-63458500D01*
X165728646Y-63458163D01*
X165728650Y-63458163D01*
X165824308Y-63448238D01*
X165824312Y-63448237D01*
X165831166Y-63447526D01*
X165837702Y-63445345D01*
X165837704Y-63445345D01*
X165989369Y-63394745D01*
X165998946Y-63391550D01*
X166149348Y-63298478D01*
X166274305Y-63173303D01*
X166304113Y-63124946D01*
X166363275Y-63028968D01*
X166363276Y-63028966D01*
X166367115Y-63022738D01*
X166410091Y-62893170D01*
X166420632Y-62861389D01*
X166420632Y-62861387D01*
X166422797Y-62854861D01*
X166424489Y-62838354D01*
X166430993Y-62774865D01*
X166433500Y-62750400D01*
X166433500Y-61399600D01*
X166433107Y-61395812D01*
X166423238Y-61300692D01*
X166423237Y-61300688D01*
X166422526Y-61293834D01*
X166398741Y-61222540D01*
X166368868Y-61133002D01*
X166366550Y-61126054D01*
X166273478Y-60975652D01*
X166148303Y-60850695D01*
X166107337Y-60825443D01*
X166003968Y-60761725D01*
X166003966Y-60761724D01*
X165997738Y-60757885D01*
X165837254Y-60704655D01*
X165836389Y-60704368D01*
X165836387Y-60704368D01*
X165829861Y-60702203D01*
X165823025Y-60701503D01*
X165823022Y-60701502D01*
X165779969Y-60697091D01*
X165725400Y-60691500D01*
X165584500Y-60691500D01*
X165516379Y-60671498D01*
X165469886Y-60617842D01*
X165458500Y-60565500D01*
X165458500Y-59778912D01*
X165458792Y-59770342D01*
X165462209Y-59720224D01*
X165462209Y-59720220D01*
X165462725Y-59712648D01*
X165460376Y-59699189D01*
X165458500Y-59677526D01*
X165458500Y-58345660D01*
X165478502Y-58277539D01*
X165495405Y-58256565D01*
X166874116Y-56877855D01*
X168270528Y-55481443D01*
X168276793Y-55475589D01*
X168314664Y-55442552D01*
X168314665Y-55442551D01*
X168320385Y-55437561D01*
X168357136Y-55385271D01*
X168361028Y-55380029D01*
X168400476Y-55329718D01*
X168403600Y-55322799D01*
X168404988Y-55320507D01*
X168413357Y-55305835D01*
X168414622Y-55303475D01*
X168418990Y-55297261D01*
X168422263Y-55288868D01*
X168442202Y-55237725D01*
X168444759Y-55231642D01*
X168445968Y-55228966D01*
X168471045Y-55173427D01*
X168472430Y-55165954D01*
X168473234Y-55163388D01*
X168477855Y-55147165D01*
X168478520Y-55144573D01*
X168481282Y-55137491D01*
X168482327Y-55129557D01*
X168489622Y-55074139D01*
X168490654Y-55067623D01*
X168500911Y-55012281D01*
X168502295Y-55004814D01*
X168498709Y-54942620D01*
X168498500Y-54935367D01*
X168498500Y-46146412D01*
X168498792Y-46137842D01*
X168502209Y-46087724D01*
X168502209Y-46087720D01*
X168502725Y-46080148D01*
X168491739Y-46017203D01*
X168490777Y-46010682D01*
X168488668Y-45993251D01*
X168483102Y-45947258D01*
X168480416Y-45940150D01*
X168479779Y-45937556D01*
X168475318Y-45921250D01*
X168474548Y-45918699D01*
X168473242Y-45911216D01*
X168456680Y-45873486D01*
X168447561Y-45852712D01*
X168445069Y-45846605D01*
X168425173Y-45793952D01*
X168425173Y-45793951D01*
X168422487Y-45786844D01*
X168418184Y-45780583D01*
X168416947Y-45778217D01*
X168408720Y-45763437D01*
X168407369Y-45761152D01*
X168404315Y-45754195D01*
X168399695Y-45748175D01*
X168399692Y-45748169D01*
X168365421Y-45703509D01*
X168361541Y-45698168D01*
X168329661Y-45651780D01*
X168329656Y-45651775D01*
X168325357Y-45645519D01*
X168278829Y-45604064D01*
X168273554Y-45599084D01*
X165486450Y-42811980D01*
X165480596Y-42805715D01*
X165469078Y-42792512D01*
X165442561Y-42762115D01*
X165390280Y-42725371D01*
X165384986Y-42721439D01*
X165340693Y-42686709D01*
X165334718Y-42682024D01*
X165327802Y-42678901D01*
X165325516Y-42677517D01*
X165310835Y-42669143D01*
X165308475Y-42667878D01*
X165302261Y-42663510D01*
X165295182Y-42660750D01*
X165295180Y-42660749D01*
X165242725Y-42640298D01*
X165236656Y-42637747D01*
X165178427Y-42611455D01*
X165170960Y-42610071D01*
X165168405Y-42609270D01*
X165152152Y-42604641D01*
X165149572Y-42603978D01*
X165142491Y-42601218D01*
X165134960Y-42600227D01*
X165134958Y-42600226D01*
X165105339Y-42596327D01*
X165079139Y-42592878D01*
X165072641Y-42591848D01*
X165009814Y-42580204D01*
X165002234Y-42580641D01*
X165002233Y-42580641D01*
X164947608Y-42583791D01*
X164940354Y-42584000D01*
X164929710Y-42584000D01*
X164861589Y-42563998D01*
X164815096Y-42510342D01*
X164804992Y-42440068D01*
X164834486Y-42375488D01*
X164840615Y-42368905D01*
X164926639Y-42282881D01*
X165015472Y-42136199D01*
X165066753Y-41972562D01*
X165073500Y-41899135D01*
X165073499Y-41385866D01*
X165066753Y-41312438D01*
X165015472Y-41148801D01*
X164926639Y-41002119D01*
X164805381Y-40880861D01*
X164658699Y-40792028D01*
X164651452Y-40789757D01*
X164651450Y-40789756D01*
X164585164Y-40768983D01*
X164495062Y-40740747D01*
X164421635Y-40734000D01*
X164418737Y-40734000D01*
X164089140Y-40734001D01*
X163758366Y-40734001D01*
X163755508Y-40734264D01*
X163755499Y-40734264D01*
X163719996Y-40737526D01*
X163684938Y-40740747D01*
X163678560Y-40742746D01*
X163678559Y-40742746D01*
X163528550Y-40789756D01*
X163528548Y-40789757D01*
X163521301Y-40792028D01*
X163374619Y-40880861D01*
X163329095Y-40926385D01*
X163266783Y-40960411D01*
X163195968Y-40955346D01*
X163150905Y-40926385D01*
X163105381Y-40880861D01*
X162958699Y-40792028D01*
X162951452Y-40789757D01*
X162951450Y-40789756D01*
X162885164Y-40768983D01*
X162795062Y-40740747D01*
X162721635Y-40734000D01*
X162718737Y-40734000D01*
X162389140Y-40734001D01*
X162058366Y-40734001D01*
X162055508Y-40734264D01*
X162055499Y-40734264D01*
X162019996Y-40737526D01*
X161984938Y-40740747D01*
X161978560Y-40742746D01*
X161978559Y-40742746D01*
X161828550Y-40789756D01*
X161828548Y-40789757D01*
X161821301Y-40792028D01*
X161674619Y-40880861D01*
X161629095Y-40926385D01*
X161566783Y-40960411D01*
X161495968Y-40955346D01*
X161450905Y-40926385D01*
X161405381Y-40880861D01*
X161258699Y-40792028D01*
X161251452Y-40789757D01*
X161251450Y-40789756D01*
X161185164Y-40768983D01*
X161095062Y-40740747D01*
X161021635Y-40734000D01*
X161018737Y-40734000D01*
X160689140Y-40734001D01*
X160358366Y-40734001D01*
X160355508Y-40734264D01*
X160355499Y-40734264D01*
X160319996Y-40737526D01*
X160284938Y-40740747D01*
X160278560Y-40742746D01*
X160278559Y-40742746D01*
X160128550Y-40789756D01*
X160128548Y-40789757D01*
X160121301Y-40792028D01*
X159974619Y-40880861D01*
X159888941Y-40966539D01*
X159826629Y-41000565D01*
X159799846Y-41003444D01*
X159474500Y-41003444D01*
X159406379Y-40983442D01*
X159359886Y-40929786D01*
X159348500Y-40877444D01*
X159348500Y-40475998D01*
X159345562Y-40438669D01*
X159299145Y-40278899D01*
X159259445Y-40211770D01*
X159218491Y-40142520D01*
X159218489Y-40142517D01*
X159214453Y-40135693D01*
X159096807Y-40018047D01*
X159089983Y-40014011D01*
X159089980Y-40014009D01*
X158960427Y-39937392D01*
X158960428Y-39937392D01*
X158953601Y-39933355D01*
X158945990Y-39931144D01*
X158945988Y-39931143D01*
X158885183Y-39913478D01*
X158793831Y-39886938D01*
X158787426Y-39886434D01*
X158787421Y-39886433D01*
X158758958Y-39884193D01*
X158758950Y-39884193D01*
X158756502Y-39884000D01*
X158323498Y-39884000D01*
X158321050Y-39884193D01*
X158321042Y-39884193D01*
X158292579Y-39886433D01*
X158292574Y-39886434D01*
X158286169Y-39886938D01*
X158194817Y-39913478D01*
X158134012Y-39931143D01*
X158134010Y-39931144D01*
X158126399Y-39933355D01*
X158119572Y-39937392D01*
X158119573Y-39937392D01*
X157990020Y-40014009D01*
X157990017Y-40014011D01*
X157983193Y-40018047D01*
X157865547Y-40135693D01*
X157861511Y-40142517D01*
X157861509Y-40142520D01*
X157820555Y-40211770D01*
X157780855Y-40278899D01*
X157734438Y-40438669D01*
X157731500Y-40475998D01*
X157731500Y-41633000D01*
X157711498Y-41701121D01*
X157657842Y-41747614D01*
X157605500Y-41759000D01*
X157574500Y-41759000D01*
X157506379Y-41738998D01*
X157459886Y-41685342D01*
X157448500Y-41633000D01*
X157448500Y-40475998D01*
X157445562Y-40438669D01*
X157399145Y-40278899D01*
X157335524Y-40171323D01*
X157318066Y-40102509D01*
X157334860Y-40044186D01*
X157385295Y-39956830D01*
X157385296Y-39956829D01*
X157388599Y-39951107D01*
X157427354Y-39831829D01*
X157442325Y-39785754D01*
X157442325Y-39785753D01*
X157444365Y-39779475D01*
X157463229Y-39600000D01*
X157461283Y-39581483D01*
X157445055Y-39427089D01*
X157445055Y-39427088D01*
X157444365Y-39420525D01*
X157388599Y-39248893D01*
X157358695Y-39197097D01*
X157301668Y-39098325D01*
X157298367Y-39092607D01*
X157292385Y-39085963D01*
X165294757Y-39085963D01*
X165311175Y-39281483D01*
X165365258Y-39470091D01*
X165368076Y-39475574D01*
X165452123Y-39639113D01*
X165452126Y-39639117D01*
X165454944Y-39644601D01*
X165576818Y-39798369D01*
X165581511Y-39802363D01*
X165581512Y-39802364D01*
X165682996Y-39888733D01*
X165726238Y-39925535D01*
X165731616Y-39928541D01*
X165731618Y-39928542D01*
X165767932Y-39948837D01*
X165897513Y-40021257D01*
X166084118Y-40081889D01*
X166278946Y-40105121D01*
X166285081Y-40104649D01*
X166285083Y-40104649D01*
X166468434Y-40090541D01*
X166468438Y-40090540D01*
X166474576Y-40090068D01*
X166663556Y-40037303D01*
X166838689Y-39948837D01*
X166861337Y-39931143D01*
X166921677Y-39884000D01*
X166993303Y-39828040D01*
X167009817Y-39808909D01*
X167117485Y-39684173D01*
X167117485Y-39684172D01*
X167121509Y-39679511D01*
X167133141Y-39659036D01*
X167180684Y-39575344D01*
X167218425Y-39508909D01*
X167280358Y-39322732D01*
X167304949Y-39128071D01*
X167305341Y-39100000D01*
X167286194Y-38904728D01*
X167284413Y-38898829D01*
X167284412Y-38898824D01*
X167231265Y-38722793D01*
X167229484Y-38716894D01*
X167137370Y-38543653D01*
X167013361Y-38391602D01*
X166862180Y-38266535D01*
X166689585Y-38173213D01*
X166595869Y-38144203D01*
X166508039Y-38117015D01*
X166508036Y-38117014D01*
X166502152Y-38115193D01*
X166496027Y-38114549D01*
X166496026Y-38114549D01*
X166313147Y-38095327D01*
X166313146Y-38095327D01*
X166307019Y-38094683D01*
X166184383Y-38105844D01*
X166117759Y-38111907D01*
X166117758Y-38111907D01*
X166111618Y-38112466D01*
X166105704Y-38114207D01*
X166105702Y-38114207D01*
X165976734Y-38152165D01*
X165923393Y-38167864D01*
X165917928Y-38170721D01*
X165754972Y-38255912D01*
X165754968Y-38255915D01*
X165749512Y-38258767D01*
X165744712Y-38262627D01*
X165744711Y-38262627D01*
X165732538Y-38272414D01*
X165596600Y-38381711D01*
X165470480Y-38532016D01*
X165467516Y-38537408D01*
X165467513Y-38537412D01*
X165438380Y-38590405D01*
X165375956Y-38703954D01*
X165374095Y-38709821D01*
X165374094Y-38709823D01*
X165363610Y-38742872D01*
X165316628Y-38890978D01*
X165294757Y-39085963D01*
X157292385Y-39085963D01*
X157285327Y-39078124D01*
X157182035Y-38963407D01*
X157182034Y-38963406D01*
X157177613Y-38958496D01*
X157136328Y-38928500D01*
X157036957Y-38856303D01*
X157036956Y-38856302D01*
X157031615Y-38852422D01*
X157025587Y-38849738D01*
X157025585Y-38849737D01*
X156872783Y-38781705D01*
X156872781Y-38781705D01*
X156866752Y-38779020D01*
X156778492Y-38760260D01*
X156696689Y-38742872D01*
X156696685Y-38742872D01*
X156690232Y-38741500D01*
X156509768Y-38741500D01*
X156503315Y-38742872D01*
X156503311Y-38742872D01*
X156421508Y-38760260D01*
X156333248Y-38779020D01*
X156327219Y-38781704D01*
X156327217Y-38781705D01*
X156174416Y-38849737D01*
X156174414Y-38849738D01*
X156168386Y-38852422D01*
X156163045Y-38856302D01*
X156163044Y-38856303D01*
X156027731Y-38954613D01*
X156027729Y-38954615D01*
X156022387Y-38958496D01*
X156017966Y-38963406D01*
X156017965Y-38963407D01*
X155914674Y-39078124D01*
X155901633Y-39092607D01*
X155898332Y-39098325D01*
X155841306Y-39197097D01*
X155811401Y-39248893D01*
X155755635Y-39420525D01*
X155754945Y-39427088D01*
X155754945Y-39427089D01*
X155738717Y-39581483D01*
X155736771Y-39600000D01*
X155755635Y-39779475D01*
X155757675Y-39785753D01*
X155757675Y-39785754D01*
X155772646Y-39831829D01*
X155811401Y-39951107D01*
X155814704Y-39956829D01*
X155814705Y-39956830D01*
X155901633Y-40107393D01*
X155900376Y-40108119D01*
X155921686Y-40167861D01*
X155904345Y-40239179D01*
X155880855Y-40278899D01*
X155834438Y-40438669D01*
X155831500Y-40475998D01*
X155831500Y-41784002D01*
X155834438Y-41821331D01*
X155880855Y-41981101D01*
X155889002Y-41994877D01*
X155961509Y-42117480D01*
X155961511Y-42117483D01*
X155965547Y-42124307D01*
X156083193Y-42241953D01*
X156090017Y-42245989D01*
X156090020Y-42245991D01*
X156162334Y-42288757D01*
X156226399Y-42326645D01*
X156234010Y-42328856D01*
X156234012Y-42328857D01*
X156286231Y-42344028D01*
X156386169Y-42373062D01*
X156392574Y-42373566D01*
X156392579Y-42373567D01*
X156421042Y-42375807D01*
X156421050Y-42375807D01*
X156423498Y-42376000D01*
X156655500Y-42376000D01*
X156723621Y-42396002D01*
X156770114Y-42449658D01*
X156781500Y-42502000D01*
X156781500Y-43659002D01*
X156781693Y-43661450D01*
X156781693Y-43661458D01*
X156783841Y-43688741D01*
X156784438Y-43696331D01*
X156830855Y-43856101D01*
X156915547Y-43999307D01*
X156921152Y-44004912D01*
X156924503Y-44009232D01*
X156950450Y-44075317D01*
X156950944Y-44086458D01*
X156950944Y-49928791D01*
X156930942Y-49996912D01*
X156914040Y-50017886D01*
X156840044Y-50091883D01*
X156777732Y-50125908D01*
X156750948Y-50128788D01*
X142171306Y-50128788D01*
X142103185Y-50108786D01*
X142056692Y-50055130D01*
X142046588Y-49984856D01*
X142076082Y-49920276D01*
X142082211Y-49913693D01*
X143245499Y-48750405D01*
X143307811Y-48716379D01*
X143334594Y-48713500D01*
X143919618Y-48713500D01*
X143987739Y-48733502D01*
X144034232Y-48787158D01*
X144037599Y-48795269D01*
X144043788Y-48811776D01*
X144049385Y-48826705D01*
X144136739Y-48943261D01*
X144253295Y-49030615D01*
X144389684Y-49081745D01*
X144451866Y-49088500D01*
X147698134Y-49088500D01*
X147760316Y-49081745D01*
X147896705Y-49030615D01*
X148013261Y-48943261D01*
X148100615Y-48826705D01*
X148151745Y-48690316D01*
X148158500Y-48628134D01*
X149041500Y-48628134D01*
X149048255Y-48690316D01*
X149099385Y-48826705D01*
X149186739Y-48943261D01*
X149303295Y-49030615D01*
X149439684Y-49081745D01*
X149501866Y-49088500D01*
X152748134Y-49088500D01*
X152810316Y-49081745D01*
X152946705Y-49030615D01*
X153063261Y-48943261D01*
X153068599Y-48936139D01*
X153130879Y-48902130D01*
X153201694Y-48907195D01*
X153208904Y-48910141D01*
X153217236Y-48913851D01*
X153226555Y-48918000D01*
X153233248Y-48920980D01*
X153306340Y-48936516D01*
X153403311Y-48957128D01*
X153403315Y-48957128D01*
X153409768Y-48958500D01*
X153590232Y-48958500D01*
X153596685Y-48957128D01*
X153596689Y-48957128D01*
X153693660Y-48936516D01*
X153766752Y-48920980D01*
X153772783Y-48918295D01*
X153925585Y-48850263D01*
X153925587Y-48850262D01*
X153931615Y-48847578D01*
X153936957Y-48843697D01*
X154072269Y-48745387D01*
X154072271Y-48745385D01*
X154077613Y-48741504D01*
X154084818Y-48733502D01*
X154193948Y-48612301D01*
X154193949Y-48612300D01*
X154198367Y-48607393D01*
X154288599Y-48451107D01*
X154333727Y-48312217D01*
X154342325Y-48285754D01*
X154342325Y-48285753D01*
X154344365Y-48279475D01*
X154363229Y-48100000D01*
X154344365Y-47920525D01*
X154288599Y-47748893D01*
X154266073Y-47709876D01*
X154250030Y-47682090D01*
X154198367Y-47592607D01*
X154137593Y-47525110D01*
X154082035Y-47463407D01*
X154082034Y-47463406D01*
X154077613Y-47458496D01*
X154064651Y-47449078D01*
X153936957Y-47356303D01*
X153936956Y-47356302D01*
X153931615Y-47352422D01*
X153925587Y-47349738D01*
X153925585Y-47349737D01*
X153772783Y-47281705D01*
X153772781Y-47281705D01*
X153766752Y-47279020D01*
X153670715Y-47258607D01*
X153596689Y-47242872D01*
X153596685Y-47242872D01*
X153590232Y-47241500D01*
X153409768Y-47241500D01*
X153403315Y-47242872D01*
X153403311Y-47242872D01*
X153329285Y-47258607D01*
X153233248Y-47279020D01*
X153227216Y-47281706D01*
X153220936Y-47283746D01*
X153220044Y-47281001D01*
X153162183Y-47288737D01*
X153097897Y-47258607D01*
X153080522Y-47239770D01*
X153068641Y-47223918D01*
X153063261Y-47216739D01*
X152946705Y-47129385D01*
X152810316Y-47078255D01*
X152748134Y-47071500D01*
X149501866Y-47071500D01*
X149439684Y-47078255D01*
X149303295Y-47129385D01*
X149186739Y-47216739D01*
X149099385Y-47333295D01*
X149048255Y-47469684D01*
X149041500Y-47531866D01*
X149041500Y-48628134D01*
X148158500Y-48628134D01*
X148158500Y-47531866D01*
X148151745Y-47469684D01*
X148100615Y-47333295D01*
X148013261Y-47216739D01*
X147896705Y-47129385D01*
X147760316Y-47078255D01*
X147698134Y-47071500D01*
X144451866Y-47071500D01*
X144389684Y-47078255D01*
X144253295Y-47129385D01*
X144136739Y-47216739D01*
X144049385Y-47333295D01*
X144046233Y-47341703D01*
X144046231Y-47341707D01*
X144037599Y-47364731D01*
X143994957Y-47421495D01*
X143928395Y-47446194D01*
X143919618Y-47446500D01*
X143098763Y-47446500D01*
X143087579Y-47445973D01*
X143080091Y-47444299D01*
X143072168Y-47444548D01*
X143012033Y-47446438D01*
X143008075Y-47446500D01*
X142980144Y-47446500D01*
X142976229Y-47446995D01*
X142976225Y-47446995D01*
X142976167Y-47447003D01*
X142976138Y-47447006D01*
X142964296Y-47447939D01*
X142920110Y-47449327D01*
X142902744Y-47454372D01*
X142900658Y-47454978D01*
X142881306Y-47458986D01*
X142869068Y-47460532D01*
X142869066Y-47460533D01*
X142861203Y-47461526D01*
X142820086Y-47477806D01*
X142808885Y-47481641D01*
X142766406Y-47493982D01*
X142759587Y-47498015D01*
X142759582Y-47498017D01*
X142748971Y-47504293D01*
X142731221Y-47512990D01*
X142712383Y-47520448D01*
X142705967Y-47525109D01*
X142705966Y-47525110D01*
X142676625Y-47546428D01*
X142666701Y-47552947D01*
X142635460Y-47571422D01*
X142635455Y-47571426D01*
X142628637Y-47575458D01*
X142614313Y-47589782D01*
X142599281Y-47602621D01*
X142582893Y-47614528D01*
X142554712Y-47648593D01*
X142546722Y-47657373D01*
X141267579Y-48936516D01*
X141205267Y-48970542D01*
X141134452Y-48965477D01*
X141077616Y-48922930D01*
X141052805Y-48856410D01*
X141069365Y-48784421D01*
X141085295Y-48756830D01*
X141085296Y-48756829D01*
X141088599Y-48751107D01*
X141125369Y-48637940D01*
X141142325Y-48585754D01*
X141142325Y-48585753D01*
X141144365Y-48579475D01*
X141163229Y-48400000D01*
X141144365Y-48220525D01*
X141133412Y-48186813D01*
X141090641Y-48055178D01*
X141088599Y-48048893D01*
X141047678Y-47978016D01*
X141013890Y-47919493D01*
X140997152Y-47850498D01*
X141020372Y-47783406D01*
X141033914Y-47767398D01*
X141080869Y-47720443D01*
X141090176Y-47708574D01*
X141171079Y-47574988D01*
X141177285Y-47561243D01*
X141224256Y-47411356D01*
X141226869Y-47398306D01*
X141232734Y-47334479D01*
X141233000Y-47328691D01*
X141233000Y-47272115D01*
X141228525Y-47256876D01*
X141227135Y-47255671D01*
X141219452Y-47254000D01*
X140197000Y-47254000D01*
X140128879Y-47233998D01*
X140082386Y-47180342D01*
X140071000Y-47128000D01*
X140071000Y-46872000D01*
X140091002Y-46803879D01*
X140144658Y-46757386D01*
X140197000Y-46746000D01*
X141214884Y-46746000D01*
X141230123Y-46741525D01*
X141231328Y-46740135D01*
X141232999Y-46732452D01*
X141232999Y-46671295D01*
X141232736Y-46665546D01*
X141226868Y-46601685D01*
X141224257Y-46588649D01*
X141177285Y-46438757D01*
X141171079Y-46425012D01*
X141134596Y-46364772D01*
X141116417Y-46296142D01*
X141138227Y-46228579D01*
X141193103Y-46183532D01*
X141242372Y-46173500D01*
X143919618Y-46173500D01*
X143987739Y-46193502D01*
X144034232Y-46247158D01*
X144037599Y-46255269D01*
X144046231Y-46278293D01*
X144049385Y-46286705D01*
X144136739Y-46403261D01*
X144253295Y-46490615D01*
X144389684Y-46541745D01*
X144451866Y-46548500D01*
X147698134Y-46548500D01*
X147760316Y-46541745D01*
X147896705Y-46490615D01*
X148013261Y-46403261D01*
X148100615Y-46286705D01*
X148151745Y-46150316D01*
X148158500Y-46088134D01*
X148158500Y-46084669D01*
X149042001Y-46084669D01*
X149042371Y-46091490D01*
X149047895Y-46142352D01*
X149051521Y-46157604D01*
X149096676Y-46278054D01*
X149105214Y-46293649D01*
X149181715Y-46395724D01*
X149194276Y-46408285D01*
X149296351Y-46484786D01*
X149311946Y-46493324D01*
X149432394Y-46538478D01*
X149447649Y-46542105D01*
X149498514Y-46547631D01*
X149505328Y-46548000D01*
X150852885Y-46548000D01*
X150868124Y-46543525D01*
X150869329Y-46542135D01*
X150871000Y-46534452D01*
X150871000Y-46529884D01*
X151379000Y-46529884D01*
X151383475Y-46545123D01*
X151384865Y-46546328D01*
X151392548Y-46547999D01*
X152744669Y-46547999D01*
X152751490Y-46547629D01*
X152802352Y-46542105D01*
X152817604Y-46538479D01*
X152938054Y-46493324D01*
X152953649Y-46484786D01*
X153055724Y-46408285D01*
X153068285Y-46395724D01*
X153144786Y-46293649D01*
X153153324Y-46278054D01*
X153198478Y-46157606D01*
X153202105Y-46142351D01*
X153207631Y-46091486D01*
X153208000Y-46084672D01*
X153208000Y-45812115D01*
X153203525Y-45796876D01*
X153202135Y-45795671D01*
X153194452Y-45794000D01*
X151397115Y-45794000D01*
X151381876Y-45798475D01*
X151380671Y-45799865D01*
X151379000Y-45807548D01*
X151379000Y-46529884D01*
X150871000Y-46529884D01*
X150871000Y-45812115D01*
X150866525Y-45796876D01*
X150865135Y-45795671D01*
X150857452Y-45794000D01*
X149060116Y-45794000D01*
X149044877Y-45798475D01*
X149043672Y-45799865D01*
X149042001Y-45807548D01*
X149042001Y-46084669D01*
X148158500Y-46084669D01*
X148158500Y-45267885D01*
X149042000Y-45267885D01*
X149046475Y-45283124D01*
X149047865Y-45284329D01*
X149055548Y-45286000D01*
X150852885Y-45286000D01*
X150868124Y-45281525D01*
X150869329Y-45280135D01*
X150871000Y-45272452D01*
X150871000Y-45267885D01*
X151379000Y-45267885D01*
X151383475Y-45283124D01*
X151384865Y-45284329D01*
X151392548Y-45286000D01*
X153189884Y-45286000D01*
X153205123Y-45281525D01*
X153206328Y-45280135D01*
X153207999Y-45272452D01*
X153207999Y-44995331D01*
X153207629Y-44988510D01*
X153202105Y-44937648D01*
X153198479Y-44922396D01*
X153153324Y-44801946D01*
X153144786Y-44786351D01*
X153068285Y-44684276D01*
X153055724Y-44671715D01*
X152953649Y-44595214D01*
X152938054Y-44586676D01*
X152817606Y-44541522D01*
X152802351Y-44537895D01*
X152751486Y-44532369D01*
X152744672Y-44532000D01*
X151397115Y-44532000D01*
X151381876Y-44536475D01*
X151380671Y-44537865D01*
X151379000Y-44545548D01*
X151379000Y-45267885D01*
X150871000Y-45267885D01*
X150871000Y-44550116D01*
X150866525Y-44534877D01*
X150865135Y-44533672D01*
X150857452Y-44532001D01*
X149505331Y-44532001D01*
X149498510Y-44532371D01*
X149447648Y-44537895D01*
X149432396Y-44541521D01*
X149311946Y-44586676D01*
X149296351Y-44595214D01*
X149194276Y-44671715D01*
X149181715Y-44684276D01*
X149105214Y-44786351D01*
X149096676Y-44801946D01*
X149051522Y-44922394D01*
X149047895Y-44937649D01*
X149042369Y-44988514D01*
X149042000Y-44995328D01*
X149042000Y-45267885D01*
X148158500Y-45267885D01*
X148158500Y-44991866D01*
X148151745Y-44929684D01*
X148100615Y-44793295D01*
X148013261Y-44676739D01*
X147896705Y-44589385D01*
X147760316Y-44538255D01*
X147698134Y-44531500D01*
X144451866Y-44531500D01*
X144389684Y-44538255D01*
X144253295Y-44589385D01*
X144136739Y-44676739D01*
X144049385Y-44793295D01*
X144046233Y-44801703D01*
X144046231Y-44801707D01*
X144037599Y-44824731D01*
X143994957Y-44881495D01*
X143928395Y-44906194D01*
X143919618Y-44906500D01*
X138147499Y-44906500D01*
X138079378Y-44886498D01*
X138032885Y-44832842D01*
X138022781Y-44762568D01*
X138052275Y-44697988D01*
X138058404Y-44691405D01*
X139079404Y-43670405D01*
X139141716Y-43636379D01*
X139168499Y-43633500D01*
X143919618Y-43633500D01*
X143987739Y-43653502D01*
X144034232Y-43707158D01*
X144037599Y-43715269D01*
X144046231Y-43738293D01*
X144049385Y-43746705D01*
X144136739Y-43863261D01*
X144253295Y-43950615D01*
X144389684Y-44001745D01*
X144451866Y-44008500D01*
X147698134Y-44008500D01*
X147760316Y-44001745D01*
X147896705Y-43950615D01*
X148013261Y-43863261D01*
X148100615Y-43746705D01*
X148151745Y-43610316D01*
X148158500Y-43548134D01*
X148158500Y-43544669D01*
X149042001Y-43544669D01*
X149042371Y-43551490D01*
X149047895Y-43602352D01*
X149051521Y-43617604D01*
X149096676Y-43738054D01*
X149105214Y-43753649D01*
X149181715Y-43855724D01*
X149194276Y-43868285D01*
X149296351Y-43944786D01*
X149311946Y-43953324D01*
X149432394Y-43998478D01*
X149447649Y-44002105D01*
X149498514Y-44007631D01*
X149505328Y-44008000D01*
X150852885Y-44008000D01*
X150868124Y-44003525D01*
X150869329Y-44002135D01*
X150871000Y-43994452D01*
X150871000Y-43989884D01*
X151379000Y-43989884D01*
X151383475Y-44005123D01*
X151384865Y-44006328D01*
X151392548Y-44007999D01*
X152744669Y-44007999D01*
X152751490Y-44007629D01*
X152802352Y-44002105D01*
X152817604Y-43998479D01*
X152938054Y-43953324D01*
X152953649Y-43944786D01*
X153055724Y-43868285D01*
X153068285Y-43855724D01*
X153144786Y-43753649D01*
X153153324Y-43738054D01*
X153198478Y-43617606D01*
X153202105Y-43602351D01*
X153207631Y-43551486D01*
X153208000Y-43544672D01*
X153208000Y-43272115D01*
X153203525Y-43256876D01*
X153202135Y-43255671D01*
X153194452Y-43254000D01*
X151397115Y-43254000D01*
X151381876Y-43258475D01*
X151380671Y-43259865D01*
X151379000Y-43267548D01*
X151379000Y-43989884D01*
X150871000Y-43989884D01*
X150871000Y-43272115D01*
X150866525Y-43256876D01*
X150865135Y-43255671D01*
X150857452Y-43254000D01*
X149060116Y-43254000D01*
X149044877Y-43258475D01*
X149043672Y-43259865D01*
X149042001Y-43267548D01*
X149042001Y-43544669D01*
X148158500Y-43544669D01*
X148158500Y-42727885D01*
X149042000Y-42727885D01*
X149046475Y-42743124D01*
X149047865Y-42744329D01*
X149055548Y-42746000D01*
X150852885Y-42746000D01*
X150868124Y-42741525D01*
X150869329Y-42740135D01*
X150871000Y-42732452D01*
X150871000Y-42727885D01*
X151379000Y-42727885D01*
X151383475Y-42743124D01*
X151384865Y-42744329D01*
X151392548Y-42746000D01*
X153189884Y-42746000D01*
X153205123Y-42741525D01*
X153206328Y-42740135D01*
X153207999Y-42732452D01*
X153207999Y-42455331D01*
X153207629Y-42448510D01*
X153202105Y-42397648D01*
X153198479Y-42382396D01*
X153153324Y-42261946D01*
X153144786Y-42246351D01*
X153068285Y-42144276D01*
X153055724Y-42131715D01*
X152953649Y-42055214D01*
X152938054Y-42046676D01*
X152817606Y-42001522D01*
X152802351Y-41997895D01*
X152751486Y-41992369D01*
X152744672Y-41992000D01*
X151397115Y-41992000D01*
X151381876Y-41996475D01*
X151380671Y-41997865D01*
X151379000Y-42005548D01*
X151379000Y-42727885D01*
X150871000Y-42727885D01*
X150871000Y-42010116D01*
X150866525Y-41994877D01*
X150865135Y-41993672D01*
X150857452Y-41992001D01*
X149505331Y-41992001D01*
X149498510Y-41992371D01*
X149447648Y-41997895D01*
X149432396Y-42001521D01*
X149311946Y-42046676D01*
X149296351Y-42055214D01*
X149194276Y-42131715D01*
X149181715Y-42144276D01*
X149105214Y-42246351D01*
X149096676Y-42261946D01*
X149051522Y-42382394D01*
X149047895Y-42397649D01*
X149042369Y-42448514D01*
X149042000Y-42455328D01*
X149042000Y-42727885D01*
X148158500Y-42727885D01*
X148158500Y-42451866D01*
X148151745Y-42389684D01*
X148100615Y-42253295D01*
X148013261Y-42136739D01*
X147896705Y-42049385D01*
X147760316Y-41998255D01*
X147698134Y-41991500D01*
X144451866Y-41991500D01*
X144389684Y-41998255D01*
X144253295Y-42049385D01*
X144136739Y-42136739D01*
X144049385Y-42253295D01*
X144046233Y-42261703D01*
X144046231Y-42261707D01*
X144037599Y-42284731D01*
X143994957Y-42341495D01*
X143928395Y-42366194D01*
X143919618Y-42366500D01*
X139433594Y-42366500D01*
X139365473Y-42346498D01*
X139318980Y-42292842D01*
X139308876Y-42222568D01*
X139338370Y-42157988D01*
X139344499Y-42151405D01*
X140487771Y-41008134D01*
X143991500Y-41008134D01*
X143998255Y-41070316D01*
X144049385Y-41206705D01*
X144136739Y-41323261D01*
X144253295Y-41410615D01*
X144389684Y-41461745D01*
X144451866Y-41468500D01*
X147698134Y-41468500D01*
X147760316Y-41461745D01*
X147896705Y-41410615D01*
X148013261Y-41323261D01*
X148100615Y-41206705D01*
X148151745Y-41070316D01*
X148158500Y-41008134D01*
X149041500Y-41008134D01*
X149048255Y-41070316D01*
X149099385Y-41206705D01*
X149186739Y-41323261D01*
X149303295Y-41410615D01*
X149439684Y-41461745D01*
X149501866Y-41468500D01*
X152748134Y-41468500D01*
X152810316Y-41461745D01*
X152946705Y-41410615D01*
X153063261Y-41323261D01*
X153150615Y-41206705D01*
X153201745Y-41070316D01*
X153208500Y-41008134D01*
X153208500Y-39911866D01*
X153201745Y-39849684D01*
X153150615Y-39713295D01*
X153063261Y-39596739D01*
X152946705Y-39509385D01*
X152810316Y-39458255D01*
X152748134Y-39451500D01*
X149501866Y-39451500D01*
X149439684Y-39458255D01*
X149303295Y-39509385D01*
X149186739Y-39596739D01*
X149099385Y-39713295D01*
X149048255Y-39849684D01*
X149041500Y-39911866D01*
X149041500Y-41008134D01*
X148158500Y-41008134D01*
X148158500Y-39911866D01*
X148151745Y-39849684D01*
X148100615Y-39713295D01*
X148013261Y-39596739D01*
X147896705Y-39509385D01*
X147760316Y-39458255D01*
X147698134Y-39451500D01*
X144451866Y-39451500D01*
X144389684Y-39458255D01*
X144253295Y-39509385D01*
X144136739Y-39596739D01*
X144049385Y-39713295D01*
X143998255Y-39849684D01*
X143991500Y-39911866D01*
X143991500Y-41008134D01*
X140487771Y-41008134D01*
X141036429Y-40459476D01*
X142905500Y-38590405D01*
X142967812Y-38556379D01*
X142994595Y-38553500D01*
X143919618Y-38553500D01*
X143987739Y-38573502D01*
X144034232Y-38627158D01*
X144037599Y-38635269D01*
X144046231Y-38658293D01*
X144049385Y-38666705D01*
X144136739Y-38783261D01*
X144253295Y-38870615D01*
X144389684Y-38921745D01*
X144451866Y-38928500D01*
X147698134Y-38928500D01*
X147760316Y-38921745D01*
X147896705Y-38870615D01*
X148013261Y-38783261D01*
X148100615Y-38666705D01*
X148151745Y-38530316D01*
X148158500Y-38468134D01*
X148158500Y-38464669D01*
X149042001Y-38464669D01*
X149042371Y-38471490D01*
X149047895Y-38522352D01*
X149051521Y-38537604D01*
X149096676Y-38658054D01*
X149105214Y-38673649D01*
X149181715Y-38775724D01*
X149194276Y-38788285D01*
X149296351Y-38864786D01*
X149311946Y-38873324D01*
X149432394Y-38918478D01*
X149447649Y-38922105D01*
X149498514Y-38927631D01*
X149505328Y-38928000D01*
X150852885Y-38928000D01*
X150868124Y-38923525D01*
X150869329Y-38922135D01*
X150871000Y-38914452D01*
X150871000Y-38909884D01*
X151379000Y-38909884D01*
X151383475Y-38925123D01*
X151384865Y-38926328D01*
X151392548Y-38927999D01*
X152744669Y-38927999D01*
X152751490Y-38927629D01*
X152802352Y-38922105D01*
X152817604Y-38918479D01*
X152938054Y-38873324D01*
X152953649Y-38864786D01*
X153055724Y-38788285D01*
X153068285Y-38775724D01*
X153144786Y-38673649D01*
X153153324Y-38658054D01*
X153198478Y-38537606D01*
X153202105Y-38522351D01*
X153207631Y-38471486D01*
X153208000Y-38464672D01*
X153208000Y-38192115D01*
X153203525Y-38176876D01*
X153202135Y-38175671D01*
X153194452Y-38174000D01*
X151397115Y-38174000D01*
X151381876Y-38178475D01*
X151380671Y-38179865D01*
X151379000Y-38187548D01*
X151379000Y-38909884D01*
X150871000Y-38909884D01*
X150871000Y-38192115D01*
X150866525Y-38176876D01*
X150865135Y-38175671D01*
X150857452Y-38174000D01*
X149060116Y-38174000D01*
X149044877Y-38178475D01*
X149043672Y-38179865D01*
X149042001Y-38187548D01*
X149042001Y-38464669D01*
X148158500Y-38464669D01*
X148158500Y-37647885D01*
X149042000Y-37647885D01*
X149046475Y-37663124D01*
X149047865Y-37664329D01*
X149055548Y-37666000D01*
X150852885Y-37666000D01*
X150868124Y-37661525D01*
X150869329Y-37660135D01*
X150871000Y-37652452D01*
X150871000Y-37647885D01*
X151379000Y-37647885D01*
X151383475Y-37663124D01*
X151384865Y-37664329D01*
X151392548Y-37666000D01*
X153189884Y-37666000D01*
X153205123Y-37661525D01*
X153206328Y-37660135D01*
X153207999Y-37652452D01*
X153207999Y-37375331D01*
X153207629Y-37368510D01*
X153202105Y-37317648D01*
X153198479Y-37302396D01*
X153153324Y-37181946D01*
X153144786Y-37166351D01*
X153068285Y-37064276D01*
X153055724Y-37051715D01*
X152953649Y-36975214D01*
X152938054Y-36966676D01*
X152817606Y-36921522D01*
X152802351Y-36917895D01*
X152751486Y-36912369D01*
X152744672Y-36912000D01*
X151397115Y-36912000D01*
X151381876Y-36916475D01*
X151380671Y-36917865D01*
X151379000Y-36925548D01*
X151379000Y-37647885D01*
X150871000Y-37647885D01*
X150871000Y-36930116D01*
X150866525Y-36914877D01*
X150865135Y-36913672D01*
X150857452Y-36912001D01*
X149505331Y-36912001D01*
X149498510Y-36912371D01*
X149447648Y-36917895D01*
X149432396Y-36921521D01*
X149311946Y-36966676D01*
X149296351Y-36975214D01*
X149194276Y-37051715D01*
X149181715Y-37064276D01*
X149105214Y-37166351D01*
X149096676Y-37181946D01*
X149051522Y-37302394D01*
X149047895Y-37317649D01*
X149042369Y-37368514D01*
X149042000Y-37375328D01*
X149042000Y-37647885D01*
X148158500Y-37647885D01*
X148158500Y-37371866D01*
X148151745Y-37309684D01*
X148100615Y-37173295D01*
X148013261Y-37056739D01*
X147896705Y-36969385D01*
X147760316Y-36918255D01*
X147698134Y-36911500D01*
X144451866Y-36911500D01*
X144389684Y-36918255D01*
X144253295Y-36969385D01*
X144136739Y-37056739D01*
X144049385Y-37173295D01*
X144046233Y-37181703D01*
X144046231Y-37181707D01*
X144037599Y-37204731D01*
X143994957Y-37261495D01*
X143928395Y-37286194D01*
X143919618Y-37286500D01*
X142758767Y-37286500D01*
X142747584Y-37285973D01*
X142740091Y-37284298D01*
X142732165Y-37284547D01*
X142732164Y-37284547D01*
X142672001Y-37286438D01*
X142668043Y-37286500D01*
X142640144Y-37286500D01*
X142636154Y-37287004D01*
X142624320Y-37287936D01*
X142580111Y-37289326D01*
X142572497Y-37291538D01*
X142572492Y-37291539D01*
X142560659Y-37294977D01*
X142541296Y-37298988D01*
X142521203Y-37301526D01*
X142513836Y-37304443D01*
X142513831Y-37304444D01*
X142480092Y-37317802D01*
X142468865Y-37321646D01*
X142426407Y-37333982D01*
X142419581Y-37338019D01*
X142408972Y-37344293D01*
X142391224Y-37352988D01*
X142372383Y-37360448D01*
X142365967Y-37365110D01*
X142365966Y-37365110D01*
X142336613Y-37386436D01*
X142326693Y-37392952D01*
X142295465Y-37411420D01*
X142295462Y-37411422D01*
X142288638Y-37415458D01*
X142274317Y-37429779D01*
X142259284Y-37442619D01*
X142242893Y-37454528D01*
X142237842Y-37460634D01*
X142214702Y-37488605D01*
X142206712Y-37497384D01*
X135198594Y-44505501D01*
X135136282Y-44539527D01*
X135065467Y-44534462D01*
X135008631Y-44491915D01*
X134983820Y-44425395D01*
X134983499Y-44416406D01*
X134983499Y-44168366D01*
X134980805Y-44139037D01*
X134977364Y-44101592D01*
X134976753Y-44094938D01*
X134970604Y-44075317D01*
X134927744Y-43938550D01*
X134927743Y-43938548D01*
X134925472Y-43931301D01*
X134836639Y-43784619D01*
X134740761Y-43688741D01*
X134706735Y-43626429D01*
X134711800Y-43555614D01*
X134740761Y-43510551D01*
X134830869Y-43420443D01*
X134840176Y-43408574D01*
X134921079Y-43274988D01*
X134927285Y-43261243D01*
X134974256Y-43111356D01*
X134976869Y-43098306D01*
X134981913Y-43043414D01*
X134978525Y-43031876D01*
X134977135Y-43030671D01*
X134969452Y-43029000D01*
X133035116Y-43029000D01*
X133019877Y-43033475D01*
X133018672Y-43034865D01*
X133017709Y-43039294D01*
X133023132Y-43098315D01*
X133025743Y-43111351D01*
X133072715Y-43261243D01*
X133078921Y-43274988D01*
X133159824Y-43408574D01*
X133169131Y-43420443D01*
X133259239Y-43510551D01*
X133293265Y-43572863D01*
X133288200Y-43643678D01*
X133259239Y-43688741D01*
X133163361Y-43784619D01*
X133156284Y-43796305D01*
X133091775Y-43902822D01*
X133039378Y-43950729D01*
X132969398Y-43962702D01*
X132904054Y-43934941D01*
X132864092Y-43876259D01*
X132857999Y-43837551D01*
X132857999Y-43677905D01*
X132857662Y-43671386D01*
X132847743Y-43575794D01*
X132844851Y-43562400D01*
X132793412Y-43408216D01*
X132787239Y-43395038D01*
X132701937Y-43257193D01*
X132692901Y-43245792D01*
X132578171Y-43131261D01*
X132566760Y-43122249D01*
X132428757Y-43037184D01*
X132415576Y-43031037D01*
X132261290Y-42979862D01*
X132247914Y-42976995D01*
X132153562Y-42967328D01*
X132147145Y-42967000D01*
X132122115Y-42967000D01*
X132106876Y-42971475D01*
X132105671Y-42972865D01*
X132104000Y-42980548D01*
X132104000Y-44328000D01*
X132083998Y-44396121D01*
X132030342Y-44442614D01*
X131978000Y-44454000D01*
X131722000Y-44454000D01*
X131653879Y-44433998D01*
X131607386Y-44380342D01*
X131596000Y-44328000D01*
X131596000Y-42985116D01*
X131591525Y-42969877D01*
X131590135Y-42968672D01*
X131582452Y-42967001D01*
X131552905Y-42967001D01*
X131546386Y-42967338D01*
X131450794Y-42977257D01*
X131437400Y-42980149D01*
X131283216Y-43031588D01*
X131270038Y-43037761D01*
X131132193Y-43123063D01*
X131120792Y-43132099D01*
X131006262Y-43246828D01*
X130999206Y-43255762D01*
X130941288Y-43296823D01*
X130870365Y-43300053D01*
X130808954Y-43264426D01*
X130802154Y-43256593D01*
X130798478Y-43250652D01*
X130673303Y-43125695D01*
X130628870Y-43098306D01*
X130528968Y-43036725D01*
X130528966Y-43036724D01*
X130522738Y-43032885D01*
X130442995Y-43006436D01*
X130361389Y-42979368D01*
X130361387Y-42979368D01*
X130354861Y-42977203D01*
X130348025Y-42976503D01*
X130348022Y-42976502D01*
X130304969Y-42972091D01*
X130250400Y-42966500D01*
X129649600Y-42966500D01*
X129646354Y-42966837D01*
X129646350Y-42966837D01*
X129550692Y-42976762D01*
X129550688Y-42976763D01*
X129543834Y-42977474D01*
X129537298Y-42979655D01*
X129537296Y-42979655D01*
X129520928Y-42985116D01*
X129376054Y-43033450D01*
X129225652Y-43126522D01*
X129100695Y-43251697D01*
X129096855Y-43257927D01*
X129096854Y-43257928D01*
X129046564Y-43339514D01*
X128993792Y-43387007D01*
X128923720Y-43398431D01*
X128888054Y-43388504D01*
X128872787Y-43381706D01*
X128872779Y-43381703D01*
X128866752Y-43379020D01*
X128778492Y-43360260D01*
X128696689Y-43342872D01*
X128696685Y-43342872D01*
X128690232Y-43341500D01*
X128509768Y-43341500D01*
X128503315Y-43342872D01*
X128503311Y-43342872D01*
X128421508Y-43360260D01*
X128333248Y-43379020D01*
X128327219Y-43381704D01*
X128327217Y-43381705D01*
X128174416Y-43449737D01*
X128174414Y-43449738D01*
X128168386Y-43452422D01*
X128163045Y-43456302D01*
X128163044Y-43456303D01*
X128027731Y-43554613D01*
X128027729Y-43554615D01*
X128022387Y-43558496D01*
X128017966Y-43563406D01*
X128017965Y-43563407D01*
X127917847Y-43674600D01*
X127901633Y-43692607D01*
X127811401Y-43848893D01*
X127809066Y-43856081D01*
X127759705Y-44008000D01*
X127755635Y-44020525D01*
X127754945Y-44027088D01*
X127754945Y-44027089D01*
X127742765Y-44142972D01*
X127736771Y-44200000D01*
X127737461Y-44206565D01*
X127752236Y-44347132D01*
X127755635Y-44379475D01*
X127757675Y-44385753D01*
X127757675Y-44385754D01*
X127765372Y-44409444D01*
X127811401Y-44551107D01*
X127814704Y-44556829D01*
X127814705Y-44556830D01*
X127831681Y-44586233D01*
X127901633Y-44707393D01*
X127906051Y-44712300D01*
X127906052Y-44712301D01*
X128014588Y-44832842D01*
X128022387Y-44841504D01*
X128027729Y-44845385D01*
X128027731Y-44845387D01*
X128159613Y-44941205D01*
X128168385Y-44947578D01*
X128174413Y-44950262D01*
X128174415Y-44950263D01*
X128327217Y-45018295D01*
X128333248Y-45020980D01*
X128433552Y-45042300D01*
X128466400Y-45049282D01*
X128528873Y-45083010D01*
X128563195Y-45145160D01*
X128558467Y-45215999D01*
X128533842Y-45256836D01*
X128501633Y-45292607D01*
X128411401Y-45448893D01*
X128409359Y-45455178D01*
X128362602Y-45599084D01*
X128355635Y-45620525D01*
X128354945Y-45627088D01*
X128354945Y-45627089D01*
X128343480Y-45736172D01*
X128336771Y-45800000D01*
X128337461Y-45806565D01*
X128350404Y-45929702D01*
X128355635Y-45979475D01*
X128357675Y-45985753D01*
X128357675Y-45985754D01*
X128365204Y-46008926D01*
X128411401Y-46151107D01*
X128414704Y-46156829D01*
X128414705Y-46156830D01*
X128482949Y-46275031D01*
X128499687Y-46344026D01*
X128476467Y-46411118D01*
X128447893Y-46439965D01*
X128422387Y-46458496D01*
X128417966Y-46463406D01*
X128417965Y-46463407D01*
X128336751Y-46553605D01*
X128301633Y-46592607D01*
X128211401Y-46748893D01*
X128204381Y-46770500D01*
X128167735Y-46883286D01*
X128155635Y-46920525D01*
X128136771Y-47100000D01*
X128155635Y-47279475D01*
X128157675Y-47285753D01*
X128157675Y-47285754D01*
X128171626Y-47328691D01*
X128211401Y-47451107D01*
X128214704Y-47456829D01*
X128214705Y-47456830D01*
X128218502Y-47463407D01*
X128247132Y-47512994D01*
X128252833Y-47522869D01*
X128269571Y-47591864D01*
X128252166Y-47650010D01*
X128247812Y-47657373D01*
X128240106Y-47670403D01*
X128237895Y-47678014D01*
X128237894Y-47678016D01*
X128233367Y-47693598D01*
X128194394Y-47827746D01*
X128193890Y-47834151D01*
X128193889Y-47834156D01*
X128193191Y-47843031D01*
X128191500Y-47864516D01*
X128191500Y-48228000D01*
X128171498Y-48296121D01*
X128117842Y-48342614D01*
X128065500Y-48354000D01*
X127251576Y-48354000D01*
X127236781Y-48358344D01*
X127234937Y-48368775D01*
X127236688Y-48378359D01*
X127278357Y-48521784D01*
X127284604Y-48536220D01*
X127359876Y-48663499D01*
X127369516Y-48675926D01*
X127474074Y-48780484D01*
X127486501Y-48790124D01*
X127613780Y-48865396D01*
X127628216Y-48871643D01*
X127771641Y-48913312D01*
X127784244Y-48915614D01*
X127812102Y-48917807D01*
X127817031Y-48918000D01*
X127826624Y-48918000D01*
X127894745Y-48938002D01*
X127941238Y-48991658D01*
X127951546Y-49060446D01*
X127947012Y-49094886D01*
X127941500Y-49136756D01*
X127941500Y-49363244D01*
X127942038Y-49367330D01*
X127942038Y-49367331D01*
X127956519Y-49477324D01*
X127954974Y-49477527D01*
X127954974Y-49522473D01*
X127956519Y-49522676D01*
X127941500Y-49636756D01*
X127941500Y-49863244D01*
X127942038Y-49867330D01*
X127942038Y-49867331D01*
X127956519Y-49977324D01*
X127954974Y-49977527D01*
X127954974Y-50022473D01*
X127956519Y-50022676D01*
X127941500Y-50136756D01*
X127941500Y-50363244D01*
X127942038Y-50367330D01*
X127942038Y-50367331D01*
X127956088Y-50474054D01*
X127945148Y-50544203D01*
X127898020Y-50597301D01*
X127831166Y-50616500D01*
X125884000Y-50616500D01*
X125815879Y-50596498D01*
X125769386Y-50542842D01*
X125758000Y-50490500D01*
X125758000Y-50422115D01*
X125753525Y-50406876D01*
X125752135Y-50405671D01*
X125744452Y-50404000D01*
X124522000Y-50404000D01*
X124453879Y-50383998D01*
X124407386Y-50330342D01*
X124396000Y-50278000D01*
X124396000Y-50022000D01*
X124416002Y-49953879D01*
X124469658Y-49907386D01*
X124522000Y-49896000D01*
X125739884Y-49896000D01*
X125755123Y-49891525D01*
X125756328Y-49890135D01*
X125757999Y-49882452D01*
X125757999Y-49405331D01*
X125757629Y-49398510D01*
X125752105Y-49347648D01*
X125748479Y-49332396D01*
X125703324Y-49211946D01*
X125694786Y-49196351D01*
X125618285Y-49094276D01*
X125605724Y-49081715D01*
X125503649Y-49005214D01*
X125488054Y-48996676D01*
X125367606Y-48951522D01*
X125352351Y-48947895D01*
X125301486Y-48942369D01*
X125294672Y-48942000D01*
X125154533Y-48942000D01*
X125086412Y-48921998D01*
X125039919Y-48868342D01*
X125029815Y-48798068D01*
X125033536Y-48780846D01*
X125063313Y-48678356D01*
X125064768Y-48670391D01*
X125061948Y-48656969D01*
X125050487Y-48654000D01*
X124234500Y-48654000D01*
X124166379Y-48633998D01*
X124119886Y-48580342D01*
X124108500Y-48528000D01*
X124108500Y-48164516D01*
X124107043Y-48146000D01*
X124106111Y-48134156D01*
X124106110Y-48134151D01*
X124105617Y-48127885D01*
X124534000Y-48127885D01*
X124538475Y-48143124D01*
X124539865Y-48144329D01*
X124547548Y-48146000D01*
X125048424Y-48146000D01*
X125063219Y-48141656D01*
X125065063Y-48131225D01*
X125063312Y-48121641D01*
X125021643Y-47978216D01*
X125015396Y-47963780D01*
X124940124Y-47836501D01*
X124934778Y-47829609D01*
X127235232Y-47829609D01*
X127238052Y-47843031D01*
X127249513Y-47846000D01*
X127747885Y-47846000D01*
X127763124Y-47841525D01*
X127764329Y-47840135D01*
X127766000Y-47832452D01*
X127766000Y-47306442D01*
X127762027Y-47292911D01*
X127754129Y-47291776D01*
X127628216Y-47328357D01*
X127613780Y-47334604D01*
X127486501Y-47409876D01*
X127474074Y-47419516D01*
X127369516Y-47524074D01*
X127359876Y-47536501D01*
X127284604Y-47663780D01*
X127278357Y-47678216D01*
X127236688Y-47821641D01*
X127235232Y-47829609D01*
X124934778Y-47829609D01*
X124930484Y-47824074D01*
X124825926Y-47719516D01*
X124813499Y-47709876D01*
X124686220Y-47634604D01*
X124671784Y-47628357D01*
X124551395Y-47593381D01*
X124537295Y-47593421D01*
X124534000Y-47600691D01*
X124534000Y-48127885D01*
X124105617Y-48127885D01*
X124105606Y-48127746D01*
X124059894Y-47970403D01*
X124043546Y-47942760D01*
X124026000Y-47878621D01*
X124026000Y-47606442D01*
X124022027Y-47592911D01*
X124014129Y-47591776D01*
X123888216Y-47628357D01*
X123873778Y-47634605D01*
X123864628Y-47640016D01*
X123795812Y-47657474D01*
X123736353Y-47640015D01*
X123726423Y-47634143D01*
X123726424Y-47634143D01*
X123719597Y-47630106D01*
X123711986Y-47627895D01*
X123711984Y-47627894D01*
X123661005Y-47613084D01*
X123562254Y-47584394D01*
X123555849Y-47583890D01*
X123555844Y-47583889D01*
X123527940Y-47581693D01*
X123527932Y-47581693D01*
X123525484Y-47581500D01*
X123114516Y-47581500D01*
X123112068Y-47581693D01*
X123112060Y-47581693D01*
X123084156Y-47583889D01*
X123084151Y-47583890D01*
X123077746Y-47584394D01*
X122978995Y-47613084D01*
X122928016Y-47627894D01*
X122928014Y-47627895D01*
X122920403Y-47630106D01*
X122913581Y-47634141D01*
X122913580Y-47634141D01*
X122839053Y-47678216D01*
X122779371Y-47713512D01*
X122663512Y-47829371D01*
X122659478Y-47836192D01*
X122641267Y-47866986D01*
X122580106Y-47970403D01*
X122534394Y-48127746D01*
X122533890Y-48134151D01*
X122533889Y-48134156D01*
X122532957Y-48146000D01*
X122531500Y-48164516D01*
X122531500Y-48635484D01*
X122531693Y-48637932D01*
X122531693Y-48637940D01*
X122533848Y-48665314D01*
X122534394Y-48672254D01*
X122536187Y-48678426D01*
X122536188Y-48678431D01*
X122537359Y-48682460D01*
X122558966Y-48756830D01*
X122565798Y-48780347D01*
X122565595Y-48851343D01*
X122527041Y-48910960D01*
X122462376Y-48940268D01*
X122444801Y-48941500D01*
X122301866Y-48941500D01*
X122239684Y-48948255D01*
X122103295Y-48999385D01*
X121986739Y-49086739D01*
X121899385Y-49203295D01*
X121848255Y-49339684D01*
X121841500Y-49401866D01*
X121841500Y-50898134D01*
X121848255Y-50960316D01*
X121899385Y-51096705D01*
X121926339Y-51132669D01*
X121957953Y-51174852D01*
X121982801Y-51241358D01*
X121967748Y-51310741D01*
X121957953Y-51325982D01*
X121905214Y-51396352D01*
X121896676Y-51411946D01*
X121851522Y-51532394D01*
X121847895Y-51547649D01*
X121842369Y-51598514D01*
X121842000Y-51605328D01*
X121842000Y-52077885D01*
X121846475Y-52093124D01*
X121847865Y-52094329D01*
X121855548Y-52096000D01*
X123078000Y-52096000D01*
X123146121Y-52116002D01*
X123192614Y-52169658D01*
X123204000Y-52222000D01*
X123204000Y-52478000D01*
X123183998Y-52546121D01*
X123130342Y-52592614D01*
X123078000Y-52604000D01*
X121860116Y-52604000D01*
X121844877Y-52608475D01*
X121843672Y-52609865D01*
X121842001Y-52617548D01*
X121842001Y-53094669D01*
X121842371Y-53101490D01*
X121847895Y-53152352D01*
X121851521Y-53167604D01*
X121896676Y-53288054D01*
X121905214Y-53303649D01*
X121981715Y-53405724D01*
X121994276Y-53418285D01*
X122096351Y-53494786D01*
X122111946Y-53503324D01*
X122232394Y-53548478D01*
X122247649Y-53552105D01*
X122298514Y-53557631D01*
X122305328Y-53558000D01*
X122445467Y-53558000D01*
X122513588Y-53578002D01*
X122560081Y-53631658D01*
X122570185Y-53701932D01*
X122566464Y-53719154D01*
X122536687Y-53821644D01*
X122535232Y-53829609D01*
X122538052Y-53843031D01*
X122549513Y-53846000D01*
X123365500Y-53846000D01*
X123433621Y-53866002D01*
X123480114Y-53919658D01*
X123491500Y-53972000D01*
X123491500Y-54335484D01*
X123491693Y-54337932D01*
X123491693Y-54337940D01*
X123493685Y-54363244D01*
X123494394Y-54372254D01*
X123540106Y-54529597D01*
X123544141Y-54536419D01*
X123544141Y-54536420D01*
X123556454Y-54557240D01*
X123574000Y-54621379D01*
X123574000Y-54893558D01*
X123577973Y-54907089D01*
X123585871Y-54908224D01*
X123711784Y-54871643D01*
X123726222Y-54865395D01*
X123735372Y-54859984D01*
X123804188Y-54842526D01*
X123863647Y-54859985D01*
X123869158Y-54863244D01*
X123880403Y-54869894D01*
X123888014Y-54872105D01*
X123888016Y-54872106D01*
X123932798Y-54885116D01*
X124037746Y-54915606D01*
X124044151Y-54916110D01*
X124044156Y-54916111D01*
X124072060Y-54918307D01*
X124072068Y-54918307D01*
X124074516Y-54918500D01*
X124485484Y-54918500D01*
X124487932Y-54918307D01*
X124487940Y-54918307D01*
X124515844Y-54916111D01*
X124515849Y-54916110D01*
X124522254Y-54915606D01*
X124627202Y-54885116D01*
X124671984Y-54872106D01*
X124671986Y-54872105D01*
X124679597Y-54869894D01*
X124687205Y-54865395D01*
X124813808Y-54790522D01*
X124820629Y-54786488D01*
X124936488Y-54670629D01*
X124957596Y-54634937D01*
X125015859Y-54536420D01*
X125015859Y-54536419D01*
X125019894Y-54529597D01*
X125065606Y-54372254D01*
X125066316Y-54363244D01*
X125068307Y-54337940D01*
X125068307Y-54337932D01*
X125068500Y-54335484D01*
X125068500Y-53864516D01*
X125068307Y-53862060D01*
X125066111Y-53834156D01*
X125066110Y-53834151D01*
X125065606Y-53827746D01*
X125063813Y-53821574D01*
X125063812Y-53821569D01*
X125037819Y-53732102D01*
X125034202Y-53719652D01*
X125034405Y-53648657D01*
X125072959Y-53589040D01*
X125137624Y-53559732D01*
X125155199Y-53558500D01*
X125298134Y-53558500D01*
X125360316Y-53551745D01*
X125496705Y-53500615D01*
X125613261Y-53413261D01*
X125700615Y-53296705D01*
X125718563Y-53248829D01*
X125748972Y-53167714D01*
X125748973Y-53167711D01*
X125751745Y-53160316D01*
X125752417Y-53154126D01*
X125787266Y-53093124D01*
X125850221Y-53060303D01*
X125909784Y-53062919D01*
X125947353Y-53073834D01*
X125947360Y-53073835D01*
X125953534Y-53075629D01*
X125959941Y-53076133D01*
X125959945Y-53076134D01*
X125987556Y-53078307D01*
X125987562Y-53078307D01*
X125990011Y-53078500D01*
X126189878Y-53078500D01*
X126389988Y-53078499D01*
X126426466Y-53075629D01*
X126542772Y-53041839D01*
X126574983Y-53032481D01*
X126574985Y-53032480D01*
X126582596Y-53030269D01*
X126589421Y-53026233D01*
X126589425Y-53026231D01*
X126635861Y-52998769D01*
X126704677Y-52981309D01*
X126764139Y-52998769D01*
X126810575Y-53026231D01*
X126810579Y-53026233D01*
X126817404Y-53030269D01*
X126825015Y-53032480D01*
X126825017Y-53032481D01*
X126885349Y-53050009D01*
X126973534Y-53075629D01*
X126979941Y-53076133D01*
X126979945Y-53076134D01*
X127007556Y-53078307D01*
X127007562Y-53078307D01*
X127010011Y-53078500D01*
X127027628Y-53078500D01*
X127356401Y-53078499D01*
X127424521Y-53098501D01*
X127471014Y-53152156D01*
X127481119Y-53222430D01*
X127451626Y-53287011D01*
X127445514Y-53293575D01*
X126587736Y-54151353D01*
X126579462Y-54158882D01*
X126572982Y-54162994D01*
X126567557Y-54168771D01*
X126526357Y-54212645D01*
X126523602Y-54215487D01*
X126503865Y-54235224D01*
X126501385Y-54238421D01*
X126493682Y-54247441D01*
X126463414Y-54279673D01*
X126459595Y-54286619D01*
X126459593Y-54286622D01*
X126453652Y-54297428D01*
X126442801Y-54313947D01*
X126430386Y-54329953D01*
X126427241Y-54337222D01*
X126427238Y-54337226D01*
X126412826Y-54370531D01*
X126407609Y-54381181D01*
X126386305Y-54419934D01*
X126384334Y-54427609D01*
X126384334Y-54427610D01*
X126381267Y-54439556D01*
X126374863Y-54458260D01*
X126366819Y-54476849D01*
X126365580Y-54484672D01*
X126365577Y-54484682D01*
X126359901Y-54520518D01*
X126357495Y-54532138D01*
X126348472Y-54567283D01*
X126346500Y-54574964D01*
X126346500Y-54595218D01*
X126344949Y-54614928D01*
X126341780Y-54634937D01*
X126342526Y-54642829D01*
X126345941Y-54678955D01*
X126346500Y-54690813D01*
X126346500Y-54728951D01*
X126326498Y-54797072D01*
X126288924Y-54834754D01*
X126278030Y-54841799D01*
X126274000Y-54850691D01*
X126274000Y-55128621D01*
X126256454Y-55192760D01*
X126240106Y-55220403D01*
X126237895Y-55228014D01*
X126237894Y-55228016D01*
X126232616Y-55246184D01*
X126194394Y-55377746D01*
X126193890Y-55384151D01*
X126193889Y-55384156D01*
X126192609Y-55400426D01*
X126191500Y-55414516D01*
X126191500Y-55778000D01*
X126171498Y-55846121D01*
X126117842Y-55892614D01*
X126065500Y-55904000D01*
X125251576Y-55904000D01*
X125236781Y-55908344D01*
X125234937Y-55918775D01*
X125236687Y-55928356D01*
X125260164Y-56009162D01*
X125259961Y-56080159D01*
X125221408Y-56139775D01*
X125156743Y-56169084D01*
X125126325Y-56169660D01*
X125103562Y-56167328D01*
X125097145Y-56167000D01*
X125072115Y-56167000D01*
X125056876Y-56171475D01*
X125055671Y-56172865D01*
X125054000Y-56180548D01*
X125054000Y-57528000D01*
X125033998Y-57596121D01*
X124980342Y-57642614D01*
X124928000Y-57654000D01*
X123810116Y-57654000D01*
X123794877Y-57658475D01*
X123793672Y-57659865D01*
X123792001Y-57667548D01*
X123792001Y-57922095D01*
X123792338Y-57928614D01*
X123802257Y-58024206D01*
X123805149Y-58037600D01*
X123856588Y-58191784D01*
X123862761Y-58204962D01*
X123951917Y-58349035D01*
X123949150Y-58350747D01*
X123970303Y-58403236D01*
X123957026Y-58472980D01*
X123908151Y-58524475D01*
X123844901Y-58541500D01*
X123809768Y-58541500D01*
X123803315Y-58542872D01*
X123803311Y-58542872D01*
X123721508Y-58560260D01*
X123633248Y-58579020D01*
X123627219Y-58581704D01*
X123627217Y-58581705D01*
X123474416Y-58649737D01*
X123474414Y-58649738D01*
X123468386Y-58652422D01*
X123463045Y-58656302D01*
X123463044Y-58656303D01*
X123327731Y-58754613D01*
X123327729Y-58754615D01*
X123322387Y-58758496D01*
X123317966Y-58763406D01*
X123317965Y-58763407D01*
X123263980Y-58823364D01*
X123201633Y-58892607D01*
X123111401Y-59048893D01*
X123055635Y-59220525D01*
X123054945Y-59227088D01*
X123054945Y-59227089D01*
X123038433Y-59384189D01*
X123036771Y-59400000D01*
X123037461Y-59406565D01*
X123051787Y-59542860D01*
X123055635Y-59579475D01*
X123111401Y-59751107D01*
X123114704Y-59756829D01*
X123114705Y-59756830D01*
X123128698Y-59781066D01*
X123201633Y-59907393D01*
X123206051Y-59912300D01*
X123206052Y-59912301D01*
X123225165Y-59933528D01*
X123322387Y-60041504D01*
X123327729Y-60045385D01*
X123327731Y-60045387D01*
X123448246Y-60132946D01*
X123468385Y-60147578D01*
X123474413Y-60150262D01*
X123474415Y-60150263D01*
X123627217Y-60218295D01*
X123633248Y-60220980D01*
X123716883Y-60238757D01*
X123803311Y-60257128D01*
X123803315Y-60257128D01*
X123809768Y-60258500D01*
X123990232Y-60258500D01*
X123996685Y-60257128D01*
X123996689Y-60257128D01*
X124083117Y-60238757D01*
X124166752Y-60220980D01*
X124331615Y-60147578D01*
X124331971Y-60148377D01*
X124395585Y-60132946D01*
X124462676Y-60156167D01*
X124478606Y-60169630D01*
X124527356Y-60218295D01*
X124539947Y-60230864D01*
X124546177Y-60234704D01*
X124546178Y-60234705D01*
X124609867Y-60273963D01*
X124657360Y-60326735D01*
X124668784Y-60396806D01*
X124640510Y-60461930D01*
X124581516Y-60501430D01*
X124549956Y-60506271D01*
X124550000Y-60506835D01*
X124313289Y-60525465D01*
X124308482Y-60526619D01*
X124308476Y-60526620D01*
X124162609Y-60561640D01*
X124082406Y-60580895D01*
X124077835Y-60582788D01*
X124077833Y-60582789D01*
X123867611Y-60669865D01*
X123867607Y-60669867D01*
X123863037Y-60671760D01*
X123858817Y-60674346D01*
X123664798Y-60793241D01*
X123664792Y-60793245D01*
X123660584Y-60795824D01*
X123480031Y-60950031D01*
X123325824Y-61130584D01*
X123323245Y-61134792D01*
X123323241Y-61134798D01*
X123205867Y-61326335D01*
X123153219Y-61373966D01*
X123098434Y-61386500D01*
X119501566Y-61386500D01*
X119433445Y-61366498D01*
X119394133Y-61326335D01*
X119276759Y-61134798D01*
X119276755Y-61134792D01*
X119274176Y-61130584D01*
X119119969Y-60950031D01*
X118939416Y-60795824D01*
X118935208Y-60793245D01*
X118935202Y-60793241D01*
X118741183Y-60674346D01*
X118736963Y-60671760D01*
X118732393Y-60669867D01*
X118732389Y-60669865D01*
X118522167Y-60582789D01*
X118522165Y-60582788D01*
X118517594Y-60580895D01*
X118437391Y-60561640D01*
X118291524Y-60526620D01*
X118291518Y-60526619D01*
X118286711Y-60525465D01*
X118050000Y-60506835D01*
X117813289Y-60525465D01*
X117808482Y-60526619D01*
X117808476Y-60526620D01*
X117662609Y-60561640D01*
X117582406Y-60580895D01*
X117577835Y-60582788D01*
X117577833Y-60582789D01*
X117367611Y-60669865D01*
X117367607Y-60669867D01*
X117363037Y-60671760D01*
X117358817Y-60674346D01*
X117164798Y-60793241D01*
X117164792Y-60793245D01*
X117160584Y-60795824D01*
X116980031Y-60950031D01*
X116825824Y-61130584D01*
X116823245Y-61134792D01*
X116823241Y-61134798D01*
X116741933Y-61267481D01*
X116689285Y-61315112D01*
X116619243Y-61326719D01*
X116554046Y-61298616D01*
X116514392Y-61239725D01*
X116508500Y-61201646D01*
X116508500Y-57127885D01*
X123792000Y-57127885D01*
X123796475Y-57143124D01*
X123797865Y-57144329D01*
X123805548Y-57146000D01*
X124527885Y-57146000D01*
X124543124Y-57141525D01*
X124544329Y-57140135D01*
X124546000Y-57132452D01*
X124546000Y-56185116D01*
X124541525Y-56169877D01*
X124540135Y-56168672D01*
X124532452Y-56167001D01*
X124502905Y-56167001D01*
X124496386Y-56167338D01*
X124400794Y-56177257D01*
X124387400Y-56180149D01*
X124233216Y-56231588D01*
X124220038Y-56237761D01*
X124082193Y-56323063D01*
X124070792Y-56332099D01*
X123956261Y-56446829D01*
X123947249Y-56458240D01*
X123862184Y-56596243D01*
X123856037Y-56609424D01*
X123804862Y-56763710D01*
X123801995Y-56777086D01*
X123792328Y-56871438D01*
X123792000Y-56877855D01*
X123792000Y-57127885D01*
X116508500Y-57127885D01*
X116508500Y-55379609D01*
X125235232Y-55379609D01*
X125238052Y-55393031D01*
X125249513Y-55396000D01*
X125747885Y-55396000D01*
X125763124Y-55391525D01*
X125764329Y-55390135D01*
X125766000Y-55382452D01*
X125766000Y-54856442D01*
X125762027Y-54842911D01*
X125754129Y-54841776D01*
X125628216Y-54878357D01*
X125613780Y-54884604D01*
X125486501Y-54959876D01*
X125474074Y-54969516D01*
X125369516Y-55074074D01*
X125359876Y-55086501D01*
X125284604Y-55213780D01*
X125278357Y-55228216D01*
X125236688Y-55371641D01*
X125235232Y-55379609D01*
X116508500Y-55379609D01*
X116508500Y-54368775D01*
X122534937Y-54368775D01*
X122536688Y-54378359D01*
X122578357Y-54521784D01*
X122584604Y-54536220D01*
X122659876Y-54663499D01*
X122669516Y-54675926D01*
X122774074Y-54780484D01*
X122786501Y-54790124D01*
X122913780Y-54865396D01*
X122928216Y-54871643D01*
X123048605Y-54906619D01*
X123062705Y-54906579D01*
X123066000Y-54899309D01*
X123066000Y-54372115D01*
X123061525Y-54356876D01*
X123060135Y-54355671D01*
X123052452Y-54354000D01*
X122551576Y-54354000D01*
X122536781Y-54358344D01*
X122534937Y-54368775D01*
X116508500Y-54368775D01*
X116508500Y-43771489D01*
X123211227Y-43771489D01*
X123213096Y-43800000D01*
X123224263Y-43970380D01*
X123225684Y-43975976D01*
X123225685Y-43975981D01*
X123268096Y-44142972D01*
X123273326Y-44163564D01*
X123275743Y-44168807D01*
X123312265Y-44248029D01*
X123356772Y-44344573D01*
X123471807Y-44507344D01*
X123475949Y-44511379D01*
X123499644Y-44534462D01*
X123614578Y-44646425D01*
X123619382Y-44649635D01*
X123671226Y-44684276D01*
X123780304Y-44757160D01*
X123785607Y-44759438D01*
X123785610Y-44759440D01*
X123937580Y-44824731D01*
X123963435Y-44835839D01*
X124035516Y-44852149D01*
X124152201Y-44878553D01*
X124152207Y-44878554D01*
X124157838Y-44879828D01*
X124163609Y-44880055D01*
X124163611Y-44880055D01*
X124224556Y-44882449D01*
X124357001Y-44887653D01*
X124456959Y-44873160D01*
X124548535Y-44859883D01*
X124548540Y-44859882D01*
X124554256Y-44859053D01*
X124559728Y-44857195D01*
X124559730Y-44857195D01*
X124737532Y-44796839D01*
X124737534Y-44796838D01*
X124742996Y-44794984D01*
X124916899Y-44697594D01*
X124933342Y-44683919D01*
X125065705Y-44573834D01*
X125070143Y-44570143D01*
X125197594Y-44416899D01*
X125294984Y-44242996D01*
X125302451Y-44221001D01*
X125357195Y-44059730D01*
X125357195Y-44059728D01*
X125359053Y-44054256D01*
X125359882Y-44048540D01*
X125359883Y-44048535D01*
X125386017Y-43868285D01*
X125387653Y-43857001D01*
X125389146Y-43800000D01*
X125373847Y-43633500D01*
X125371437Y-43607273D01*
X125371436Y-43607270D01*
X125370908Y-43601519D01*
X125360160Y-43563407D01*
X125318373Y-43415244D01*
X125318372Y-43415242D01*
X125316805Y-43409685D01*
X125313145Y-43402262D01*
X125231205Y-43236104D01*
X125228650Y-43230923D01*
X125109393Y-43071219D01*
X124963030Y-42935922D01*
X124958147Y-42932841D01*
X124958143Y-42932838D01*
X124799346Y-42832645D01*
X124799341Y-42832643D01*
X124794462Y-42829564D01*
X124609334Y-42755705D01*
X124413847Y-42716820D01*
X124408072Y-42716744D01*
X124408068Y-42716744D01*
X124308588Y-42715442D01*
X124214547Y-42714211D01*
X124208850Y-42715190D01*
X124208849Y-42715190D01*
X124029549Y-42746000D01*
X124018108Y-42747966D01*
X123831111Y-42816953D01*
X123659816Y-42918862D01*
X123509961Y-43050281D01*
X123386565Y-43206809D01*
X123383876Y-43211920D01*
X123383874Y-43211923D01*
X123352206Y-43272115D01*
X123293760Y-43383202D01*
X123261334Y-43487631D01*
X123237430Y-43564615D01*
X123234654Y-43573554D01*
X123211227Y-43771489D01*
X116508500Y-43771489D01*
X116508500Y-42506586D01*
X133018087Y-42506586D01*
X133021475Y-42518124D01*
X133022865Y-42519329D01*
X133030548Y-42521000D01*
X133727885Y-42521000D01*
X133743124Y-42516525D01*
X133744329Y-42515135D01*
X133746000Y-42507452D01*
X133746000Y-42502885D01*
X134254000Y-42502885D01*
X134258475Y-42518124D01*
X134259865Y-42519329D01*
X134267548Y-42521000D01*
X134964884Y-42521000D01*
X134980123Y-42516525D01*
X134981328Y-42515135D01*
X134982291Y-42510706D01*
X134976868Y-42451685D01*
X134974257Y-42438649D01*
X134927285Y-42288757D01*
X134921079Y-42275012D01*
X134840176Y-42141426D01*
X134830869Y-42129557D01*
X134720443Y-42019131D01*
X134708574Y-42009824D01*
X134574988Y-41928921D01*
X134561243Y-41922715D01*
X134411356Y-41875744D01*
X134398306Y-41873131D01*
X134334479Y-41867266D01*
X134328691Y-41867000D01*
X134272115Y-41867000D01*
X134256876Y-41871475D01*
X134255671Y-41872865D01*
X134254000Y-41880548D01*
X134254000Y-42502885D01*
X133746000Y-42502885D01*
X133746000Y-41885116D01*
X133741525Y-41869877D01*
X133740135Y-41868672D01*
X133732452Y-41867001D01*
X133671295Y-41867001D01*
X133665546Y-41867264D01*
X133601685Y-41873132D01*
X133588649Y-41875743D01*
X133438757Y-41922715D01*
X133425012Y-41928921D01*
X133291426Y-42009824D01*
X133279557Y-42019131D01*
X133169131Y-42129557D01*
X133159824Y-42141426D01*
X133078921Y-42275012D01*
X133072715Y-42288757D01*
X133025744Y-42438644D01*
X133023131Y-42451694D01*
X133018087Y-42506586D01*
X116508500Y-42506586D01*
X116508500Y-39632703D01*
X117390743Y-39632703D01*
X117391302Y-39636947D01*
X117391302Y-39636951D01*
X117393084Y-39650488D01*
X117428268Y-39917734D01*
X117504129Y-40195036D01*
X117505813Y-40198984D01*
X117593428Y-40404392D01*
X117616923Y-40459476D01*
X117764561Y-40706161D01*
X117944313Y-40930528D01*
X118152851Y-41128423D01*
X118386317Y-41296186D01*
X118390112Y-41298195D01*
X118390113Y-41298196D01*
X118411869Y-41309715D01*
X118640392Y-41430712D01*
X118910373Y-41529511D01*
X119191264Y-41590755D01*
X119219841Y-41593004D01*
X119414282Y-41608307D01*
X119414291Y-41608307D01*
X119416739Y-41608500D01*
X119572271Y-41608500D01*
X119574407Y-41608354D01*
X119574418Y-41608354D01*
X119782548Y-41594165D01*
X119782554Y-41594164D01*
X119786825Y-41593873D01*
X119791020Y-41593004D01*
X119791022Y-41593004D01*
X119927584Y-41564723D01*
X120068342Y-41535574D01*
X120339343Y-41439607D01*
X120594812Y-41307750D01*
X120598313Y-41305289D01*
X120598317Y-41305287D01*
X120728360Y-41213891D01*
X120830023Y-41142441D01*
X120974554Y-41008134D01*
X121037479Y-40949661D01*
X121037481Y-40949658D01*
X121040622Y-40946740D01*
X121222713Y-40724268D01*
X121372927Y-40479142D01*
X121478263Y-40239181D01*
X121486757Y-40219830D01*
X121488483Y-40215898D01*
X121567244Y-39939406D01*
X121599424Y-39713295D01*
X121607146Y-39659036D01*
X121607146Y-39659034D01*
X121607751Y-39654784D01*
X121607780Y-39649434D01*
X121609160Y-39385963D01*
X125894757Y-39385963D01*
X125911175Y-39581483D01*
X125965258Y-39770091D01*
X125968076Y-39775574D01*
X126052123Y-39939113D01*
X126052126Y-39939117D01*
X126054944Y-39944601D01*
X126176818Y-40098369D01*
X126181511Y-40102363D01*
X126181512Y-40102364D01*
X126319535Y-40219830D01*
X126326238Y-40225535D01*
X126331616Y-40228541D01*
X126331618Y-40228542D01*
X126367932Y-40248837D01*
X126497513Y-40321257D01*
X126684118Y-40381889D01*
X126878946Y-40405121D01*
X126885081Y-40404649D01*
X126885083Y-40404649D01*
X127068434Y-40390541D01*
X127068438Y-40390540D01*
X127074576Y-40390068D01*
X127263556Y-40337303D01*
X127438689Y-40248837D01*
X127468515Y-40225535D01*
X127574769Y-40142520D01*
X127593303Y-40128040D01*
X127605578Y-40113820D01*
X127717485Y-39984173D01*
X127717485Y-39984172D01*
X127721509Y-39979511D01*
X127818425Y-39808909D01*
X127880358Y-39622732D01*
X127904949Y-39428071D01*
X127905341Y-39400000D01*
X127886194Y-39204728D01*
X127884413Y-39198829D01*
X127884412Y-39198824D01*
X127831265Y-39022793D01*
X127829484Y-39016894D01*
X127737370Y-38843653D01*
X127613361Y-38691602D01*
X127462180Y-38566535D01*
X127289585Y-38473213D01*
X127195868Y-38444203D01*
X127108039Y-38417015D01*
X127108036Y-38417014D01*
X127102152Y-38415193D01*
X127096027Y-38414549D01*
X127096026Y-38414549D01*
X126913147Y-38395327D01*
X126913146Y-38395327D01*
X126907019Y-38394683D01*
X126784383Y-38405844D01*
X126717759Y-38411907D01*
X126717758Y-38411907D01*
X126711618Y-38412466D01*
X126705704Y-38414207D01*
X126705702Y-38414207D01*
X126576734Y-38452165D01*
X126523393Y-38467864D01*
X126517928Y-38470721D01*
X126354972Y-38555912D01*
X126354968Y-38555915D01*
X126349512Y-38558767D01*
X126344712Y-38562627D01*
X126344711Y-38562627D01*
X126331185Y-38573502D01*
X126196600Y-38681711D01*
X126070480Y-38832016D01*
X126067516Y-38837408D01*
X126067513Y-38837412D01*
X126000947Y-38958496D01*
X125975956Y-39003954D01*
X125974095Y-39009821D01*
X125974094Y-39009823D01*
X125956641Y-39064841D01*
X125916628Y-39190978D01*
X125894757Y-39385963D01*
X121609160Y-39385963D01*
X121609235Y-39371583D01*
X121609235Y-39371576D01*
X121609257Y-39367297D01*
X121604161Y-39328584D01*
X121585560Y-39187303D01*
X121571732Y-39082266D01*
X121495871Y-38804964D01*
X121458306Y-38716894D01*
X121384763Y-38544476D01*
X121384761Y-38544472D01*
X121383077Y-38540524D01*
X121296178Y-38395327D01*
X121237643Y-38297521D01*
X121237640Y-38297517D01*
X121235439Y-38293839D01*
X121055687Y-38069472D01*
X120847149Y-37871577D01*
X120613683Y-37703814D01*
X120591843Y-37692250D01*
X120516677Y-37652452D01*
X120359608Y-37569288D01*
X120151614Y-37493173D01*
X120093658Y-37471964D01*
X120093656Y-37471963D01*
X120089627Y-37470489D01*
X119808736Y-37409245D01*
X119777685Y-37406801D01*
X119585718Y-37391693D01*
X119585709Y-37391693D01*
X119583261Y-37391500D01*
X119427729Y-37391500D01*
X119425593Y-37391646D01*
X119425582Y-37391646D01*
X119217452Y-37405835D01*
X119217446Y-37405836D01*
X119213175Y-37406127D01*
X119208980Y-37406996D01*
X119208978Y-37406996D01*
X119168117Y-37415458D01*
X118931658Y-37464426D01*
X118660657Y-37560393D01*
X118656848Y-37562359D01*
X118456047Y-37666000D01*
X118405188Y-37692250D01*
X118401687Y-37694711D01*
X118401683Y-37694713D01*
X118287583Y-37774904D01*
X118169977Y-37857559D01*
X117959378Y-38053260D01*
X117777287Y-38275732D01*
X117627073Y-38520858D01*
X117625347Y-38524791D01*
X117625346Y-38524792D01*
X117544123Y-38709823D01*
X117511517Y-38784102D01*
X117510342Y-38788229D01*
X117510341Y-38788230D01*
X117477156Y-38904728D01*
X117432756Y-39060594D01*
X117392249Y-39345216D01*
X117392227Y-39349505D01*
X117392226Y-39349512D01*
X117390827Y-39616613D01*
X117390743Y-39632703D01*
X116508500Y-39632703D01*
X116508500Y-39553250D01*
X116510246Y-39532345D01*
X116512770Y-39517344D01*
X116512770Y-39517341D01*
X116513576Y-39512552D01*
X116513729Y-39500000D01*
X116513039Y-39495180D01*
X116511644Y-39485437D01*
X116510545Y-39460983D01*
X116524542Y-39193902D01*
X116525920Y-39180785D01*
X116534828Y-39124546D01*
X116570578Y-38898824D01*
X116572838Y-38884555D01*
X116575580Y-38871655D01*
X116623825Y-38691602D01*
X116653207Y-38581948D01*
X116657281Y-38569409D01*
X116658385Y-38566535D01*
X116764763Y-38289412D01*
X116770126Y-38277365D01*
X116906289Y-38010130D01*
X116912883Y-37998709D01*
X116993528Y-37874527D01*
X117076236Y-37747168D01*
X117083984Y-37736505D01*
X117112085Y-37701804D01*
X117272727Y-37503427D01*
X117281552Y-37493626D01*
X117493626Y-37281552D01*
X117503427Y-37272727D01*
X117736505Y-37083984D01*
X117747168Y-37076236D01*
X117998714Y-36912880D01*
X118010130Y-36906289D01*
X118277365Y-36770126D01*
X118289413Y-36764762D01*
X118569414Y-36657279D01*
X118581948Y-36653207D01*
X118726804Y-36614393D01*
X118871655Y-36575580D01*
X118884555Y-36572838D01*
X118965866Y-36559960D01*
X119180791Y-36525919D01*
X119193899Y-36524542D01*
X119269063Y-36520603D01*
X119457299Y-36510738D01*
X119483276Y-36512065D01*
X119484846Y-36512309D01*
X119484850Y-36512309D01*
X119493724Y-36513691D01*
X119502626Y-36512527D01*
X119502628Y-36512527D01*
X119517677Y-36510559D01*
X119525286Y-36509564D01*
X119541621Y-36508500D01*
X165750633Y-36508500D01*
X165770018Y-36510000D01*
G37*
%TD.AperFunction*%
%TA.AperFunction,Conductor*%
G36*
X137525095Y-67545263D02*
G01*
X137577109Y-67593586D01*
X137594815Y-67657995D01*
X137594815Y-67874000D01*
X137574813Y-67942121D01*
X137521157Y-67988614D01*
X137468815Y-68000000D01*
X137146136Y-68000000D01*
X137078015Y-67979998D01*
X137031522Y-67926342D01*
X137021418Y-67856068D01*
X137026303Y-67835064D01*
X137027721Y-67830702D01*
X137037959Y-67799191D01*
X137042325Y-67785754D01*
X137042325Y-67785753D01*
X137044365Y-67779475D01*
X137054727Y-67680887D01*
X137081740Y-67615230D01*
X137090942Y-67604962D01*
X137125499Y-67570405D01*
X137187811Y-67536379D01*
X137214594Y-67533500D01*
X137448134Y-67533500D01*
X137453042Y-67532967D01*
X137455214Y-67532731D01*
X137525095Y-67545263D01*
G37*
%TD.AperFunction*%
%TA.AperFunction,Conductor*%
G36*
X135541713Y-66048357D02*
G01*
X135598549Y-66090904D01*
X135619852Y-66144957D01*
X135621068Y-66144668D01*
X135626521Y-66167604D01*
X135671676Y-66288054D01*
X135680214Y-66303649D01*
X135756715Y-66405724D01*
X135769276Y-66418285D01*
X135871351Y-66494786D01*
X135886946Y-66503324D01*
X135968898Y-66534047D01*
X136025662Y-66576689D01*
X136050362Y-66643251D01*
X136035154Y-66712599D01*
X135984868Y-66762718D01*
X135950861Y-66775276D01*
X135939710Y-66777646D01*
X135939706Y-66777647D01*
X135933248Y-66779020D01*
X135927219Y-66781704D01*
X135927217Y-66781705D01*
X135774416Y-66849737D01*
X135774414Y-66849738D01*
X135768386Y-66852422D01*
X135763045Y-66856302D01*
X135763044Y-66856303D01*
X135627731Y-66954613D01*
X135627729Y-66954615D01*
X135622387Y-66958496D01*
X135617966Y-66963406D01*
X135617965Y-66963407D01*
X135520947Y-67071157D01*
X135501633Y-67092607D01*
X135447723Y-67185983D01*
X135434022Y-67209713D01*
X135382640Y-67258706D01*
X135312926Y-67272142D01*
X135247015Y-67245756D01*
X135235808Y-67235808D01*
X135036905Y-67036905D01*
X135002879Y-66974593D01*
X135000000Y-66947810D01*
X135000000Y-66538094D01*
X135020002Y-66469973D01*
X135036905Y-66448999D01*
X135408586Y-66077318D01*
X135470898Y-66043292D01*
X135541713Y-66048357D01*
G37*
%TD.AperFunction*%
%TA.AperFunction,Conductor*%
G36*
X141542121Y-63578502D02*
G01*
X141588614Y-63632158D01*
X141600000Y-63684500D01*
X141600000Y-65115500D01*
X141579998Y-65183621D01*
X141526342Y-65230114D01*
X141474000Y-65241500D01*
X141426000Y-65241500D01*
X141357879Y-65221498D01*
X141311386Y-65167842D01*
X141300000Y-65115500D01*
X141300000Y-63684500D01*
X141320002Y-63616379D01*
X141373658Y-63569886D01*
X141426000Y-63558500D01*
X141474000Y-63558500D01*
X141542121Y-63578502D01*
G37*
%TD.AperFunction*%
%TA.AperFunction,Conductor*%
G36*
X136928704Y-56816036D02*
G01*
X136950690Y-56826000D01*
X137228621Y-56826000D01*
X137292760Y-56843546D01*
X137307769Y-56852422D01*
X137320403Y-56859894D01*
X137328014Y-56862105D01*
X137328016Y-56862106D01*
X137360138Y-56871438D01*
X137477746Y-56905606D01*
X137484151Y-56906110D01*
X137484156Y-56906111D01*
X137512060Y-56908307D01*
X137512068Y-56908307D01*
X137514516Y-56908500D01*
X137985484Y-56908500D01*
X137987932Y-56908307D01*
X137987940Y-56908307D01*
X138015844Y-56906111D01*
X138015849Y-56906110D01*
X138022254Y-56905606D01*
X138139862Y-56871438D01*
X138171984Y-56862106D01*
X138171986Y-56862105D01*
X138179597Y-56859894D01*
X138186420Y-56855859D01*
X138186658Y-56855756D01*
X138257120Y-56847060D01*
X138287945Y-56856287D01*
X138310339Y-56866257D01*
X138418366Y-56914354D01*
X138433248Y-56920980D01*
X138521508Y-56939740D01*
X138603311Y-56957128D01*
X138603315Y-56957128D01*
X138609768Y-56958500D01*
X138790232Y-56958500D01*
X138816655Y-56952884D01*
X138956636Y-56923131D01*
X139027427Y-56928534D01*
X139084059Y-56971351D01*
X139108552Y-57037988D01*
X139091952Y-57109375D01*
X139011401Y-57248893D01*
X139005839Y-57266012D01*
X138974194Y-57363407D01*
X138955635Y-57420525D01*
X138954945Y-57427088D01*
X138954945Y-57427089D01*
X138947458Y-57498325D01*
X138936771Y-57600000D01*
X138942849Y-57657822D01*
X138953435Y-57758542D01*
X138940663Y-57828380D01*
X138892161Y-57880227D01*
X138823329Y-57897622D01*
X138775936Y-57883300D01*
X138774754Y-57885834D01*
X138754939Y-57876594D01*
X138606186Y-57827254D01*
X138592810Y-57824387D01*
X138525721Y-57817513D01*
X138459993Y-57790672D01*
X138419211Y-57732557D01*
X138416323Y-57661619D01*
X138436325Y-57620459D01*
X138436090Y-57620320D01*
X138437784Y-57617455D01*
X138439007Y-57614939D01*
X138440123Y-57613500D01*
X138515396Y-57486220D01*
X138521643Y-57471784D01*
X138556619Y-57351395D01*
X138556579Y-57337295D01*
X138549309Y-57334000D01*
X136956442Y-57334000D01*
X136942911Y-57337973D01*
X136941776Y-57345871D01*
X136978357Y-57471784D01*
X136984604Y-57486220D01*
X137059876Y-57613499D01*
X137069516Y-57625926D01*
X137174074Y-57730484D01*
X137186501Y-57740124D01*
X137313780Y-57815396D01*
X137328214Y-57821642D01*
X137403565Y-57843534D01*
X137463400Y-57881748D01*
X137493077Y-57946244D01*
X137483173Y-58016547D01*
X137457584Y-58053549D01*
X137426014Y-58085174D01*
X137417002Y-58096585D01*
X137334996Y-58229625D01*
X137328849Y-58242806D01*
X137279509Y-58391559D01*
X137276642Y-58404935D01*
X137267328Y-58495842D01*
X137267000Y-58502259D01*
X137267000Y-58525630D01*
X137271475Y-58540869D01*
X137272865Y-58542074D01*
X137280548Y-58543745D01*
X138353000Y-58543745D01*
X138421121Y-58563747D01*
X138467614Y-58617403D01*
X138479000Y-58669745D01*
X138479000Y-58925745D01*
X138458998Y-58993866D01*
X138405342Y-59040359D01*
X138353000Y-59051745D01*
X137285115Y-59051745D01*
X137269876Y-59056220D01*
X137268671Y-59057610D01*
X137264121Y-59078528D01*
X137262997Y-59078284D01*
X137246998Y-59132772D01*
X137193342Y-59179265D01*
X137123068Y-59189369D01*
X137058488Y-59159875D01*
X137051905Y-59153746D01*
X136606910Y-58708750D01*
X135770405Y-57872245D01*
X135736379Y-57809933D01*
X135733500Y-57783150D01*
X135733500Y-57518834D01*
X135753502Y-57450713D01*
X135807158Y-57404220D01*
X135875946Y-57393912D01*
X135982669Y-57407962D01*
X135982670Y-57407962D01*
X135986756Y-57408500D01*
X136213244Y-57408500D01*
X136217330Y-57407962D01*
X136217331Y-57407962D01*
X136256153Y-57402851D01*
X136327324Y-57393481D01*
X136334951Y-57390322D01*
X136334954Y-57390321D01*
X136411785Y-57358496D01*
X136469268Y-57334686D01*
X136591157Y-57241157D01*
X136596186Y-57234604D01*
X136665455Y-57144329D01*
X136684686Y-57119267D01*
X136743481Y-56977324D01*
X136751771Y-56914353D01*
X136780493Y-56849427D01*
X136839758Y-56810335D01*
X136910750Y-56809490D01*
X136928704Y-56816036D01*
G37*
%TD.AperFunction*%
%TA.AperFunction,Conductor*%
G36*
X140830870Y-49184015D02*
G01*
X140868683Y-49244104D01*
X140868008Y-49315097D01*
X140836550Y-49367545D01*
X140624500Y-49579595D01*
X140562188Y-49613621D01*
X140535405Y-49616500D01*
X139122000Y-49616500D01*
X139053879Y-49596498D01*
X139007386Y-49542842D01*
X138996000Y-49490500D01*
X138996000Y-49434500D01*
X139016002Y-49366379D01*
X139069658Y-49319886D01*
X139122000Y-49308500D01*
X139485484Y-49308500D01*
X139487932Y-49308307D01*
X139487940Y-49308307D01*
X139515844Y-49306111D01*
X139515849Y-49306110D01*
X139522254Y-49305606D01*
X139621005Y-49276916D01*
X139671984Y-49262106D01*
X139671986Y-49262105D01*
X139679597Y-49259894D01*
X139707240Y-49243546D01*
X139771379Y-49226000D01*
X140043621Y-49226000D01*
X140069818Y-49228753D01*
X140203311Y-49257128D01*
X140203315Y-49257128D01*
X140209768Y-49258500D01*
X140390232Y-49258500D01*
X140396685Y-49257128D01*
X140396689Y-49257128D01*
X140478492Y-49239740D01*
X140566752Y-49220980D01*
X140587589Y-49211703D01*
X140666114Y-49176741D01*
X140696207Y-49163343D01*
X140766573Y-49153909D01*
X140830870Y-49184015D01*
G37*
%TD.AperFunction*%
%TA.AperFunction,Conductor*%
G36*
X159867967Y-42301558D02*
G01*
X159888941Y-42318461D01*
X159949239Y-42378759D01*
X159983265Y-42441071D01*
X159978200Y-42511886D01*
X159949239Y-42556949D01*
X159859131Y-42647057D01*
X159849824Y-42658926D01*
X159768921Y-42792512D01*
X159762715Y-42806257D01*
X159715744Y-42956144D01*
X159713131Y-42969194D01*
X159708087Y-43024086D01*
X159711475Y-43035624D01*
X159712865Y-43036829D01*
X159720548Y-43038500D01*
X160818000Y-43038500D01*
X160886121Y-43058502D01*
X160932614Y-43112158D01*
X160944000Y-43164500D01*
X160944000Y-44182384D01*
X160948475Y-44197623D01*
X160949865Y-44198828D01*
X160957548Y-44200499D01*
X161018705Y-44200499D01*
X161024454Y-44200236D01*
X161088315Y-44194368D01*
X161101351Y-44191757D01*
X161251243Y-44144785D01*
X161264988Y-44138579D01*
X161398574Y-44057676D01*
X161410443Y-44048369D01*
X161450551Y-44008261D01*
X161512863Y-43974235D01*
X161583678Y-43979300D01*
X161628741Y-44008261D01*
X161674619Y-44054139D01*
X161821301Y-44142972D01*
X161828548Y-44145243D01*
X161828550Y-44145244D01*
X161869156Y-44157969D01*
X161984938Y-44194253D01*
X162058365Y-44201000D01*
X162076060Y-44201000D01*
X162342548Y-44200999D01*
X162410667Y-44221001D01*
X162431642Y-44237904D01*
X163514039Y-45320301D01*
X163548065Y-45382613D01*
X163550944Y-45409396D01*
X163550944Y-46033000D01*
X163530942Y-46101121D01*
X163477286Y-46147614D01*
X163424944Y-46159000D01*
X162366866Y-46159000D01*
X162304684Y-46165755D01*
X162168295Y-46216885D01*
X162051739Y-46304239D01*
X161964385Y-46420795D01*
X161913255Y-46557184D01*
X161906500Y-46619366D01*
X161906500Y-48315634D01*
X161913255Y-48377816D01*
X161964385Y-48514205D01*
X161982401Y-48538244D01*
X161987793Y-48545438D01*
X162012641Y-48611944D01*
X161997588Y-48681327D01*
X161962532Y-48721829D01*
X161859276Y-48799215D01*
X161846715Y-48811776D01*
X161770214Y-48913851D01*
X161761676Y-48929446D01*
X161716522Y-49049894D01*
X161712895Y-49065149D01*
X161707369Y-49116014D01*
X161707000Y-49122828D01*
X161707000Y-49176548D01*
X161686998Y-49244669D01*
X161633342Y-49291162D01*
X161563068Y-49301266D01*
X161498488Y-49271772D01*
X161491905Y-49265643D01*
X160123099Y-47896838D01*
X160115458Y-47888441D01*
X160111315Y-47881913D01*
X160061201Y-47834853D01*
X160058360Y-47832099D01*
X160038452Y-47812191D01*
X160035188Y-47809660D01*
X160026165Y-47801953D01*
X159999392Y-47776811D01*
X159993613Y-47771384D01*
X159986667Y-47767565D01*
X159986665Y-47767564D01*
X159975629Y-47761497D01*
X159959105Y-47750643D01*
X159949154Y-47742924D01*
X159949153Y-47742923D01*
X159942891Y-47738066D01*
X159902167Y-47720443D01*
X159901913Y-47720333D01*
X159891253Y-47715111D01*
X159859069Y-47697417D01*
X159859068Y-47697416D01*
X159852122Y-47693598D01*
X159832232Y-47688491D01*
X159813546Y-47682093D01*
X159794708Y-47673941D01*
X159786878Y-47672701D01*
X159786875Y-47672700D01*
X159764731Y-47669193D01*
X159750597Y-47666955D01*
X159738990Y-47664551D01*
X159709336Y-47656937D01*
X159703409Y-47655415D01*
X159703408Y-47655415D01*
X159695732Y-47653444D01*
X159675210Y-47653444D01*
X159655499Y-47651893D01*
X159643061Y-47649923D01*
X159635232Y-47648683D01*
X159591905Y-47652779D01*
X159522206Y-47639277D01*
X159490953Y-47616433D01*
X159430761Y-47556241D01*
X159396735Y-47493929D01*
X159401800Y-47423114D01*
X159430761Y-47378051D01*
X159520869Y-47287943D01*
X159530176Y-47276074D01*
X159611079Y-47142488D01*
X159617285Y-47128743D01*
X159664256Y-46978856D01*
X159666869Y-46965806D01*
X159671913Y-46910914D01*
X159668525Y-46899376D01*
X159667135Y-46898171D01*
X159659452Y-46896500D01*
X158562000Y-46896500D01*
X158493879Y-46876498D01*
X158447386Y-46822842D01*
X158436000Y-46770500D01*
X158436000Y-46370385D01*
X158944000Y-46370385D01*
X158948475Y-46385624D01*
X158949865Y-46386829D01*
X158957548Y-46388500D01*
X159654884Y-46388500D01*
X159670123Y-46384025D01*
X159671328Y-46382635D01*
X159672291Y-46378206D01*
X159666868Y-46319185D01*
X159664257Y-46306149D01*
X159617285Y-46156257D01*
X159611079Y-46142512D01*
X159530176Y-46008926D01*
X159520869Y-45997057D01*
X159410443Y-45886631D01*
X159398574Y-45877324D01*
X159264988Y-45796421D01*
X159251243Y-45790215D01*
X159101356Y-45743244D01*
X159088306Y-45740631D01*
X159024479Y-45734766D01*
X159018691Y-45734500D01*
X158962115Y-45734500D01*
X158946876Y-45738975D01*
X158945671Y-45740365D01*
X158944000Y-45748048D01*
X158944000Y-46370385D01*
X158436000Y-46370385D01*
X158436000Y-45752616D01*
X158431525Y-45737377D01*
X158430135Y-45736172D01*
X158422452Y-45734501D01*
X158361311Y-45734501D01*
X158360832Y-45734523D01*
X158360742Y-45734501D01*
X158358412Y-45734501D01*
X158358412Y-45733931D01*
X158291866Y-45717664D01*
X158242962Y-45666196D01*
X158229056Y-45608655D01*
X158229056Y-44086458D01*
X158249058Y-44018337D01*
X158255497Y-44009232D01*
X158258848Y-44004912D01*
X158264453Y-43999307D01*
X158349145Y-43856101D01*
X158395562Y-43696331D01*
X158396160Y-43688741D01*
X158398307Y-43661458D01*
X158398307Y-43661450D01*
X158398500Y-43659002D01*
X158398500Y-43556794D01*
X159707709Y-43556794D01*
X159713132Y-43615815D01*
X159715743Y-43628851D01*
X159762715Y-43778743D01*
X159768921Y-43792488D01*
X159849824Y-43926074D01*
X159859131Y-43937943D01*
X159969557Y-44048369D01*
X159981426Y-44057676D01*
X160115012Y-44138579D01*
X160128757Y-44144785D01*
X160278644Y-44191756D01*
X160291694Y-44194369D01*
X160355521Y-44200234D01*
X160361309Y-44200500D01*
X160417885Y-44200500D01*
X160433124Y-44196025D01*
X160434329Y-44194635D01*
X160436000Y-44186952D01*
X160436000Y-43564615D01*
X160431525Y-43549376D01*
X160430135Y-43548171D01*
X160422452Y-43546500D01*
X159725116Y-43546500D01*
X159709877Y-43550975D01*
X159708672Y-43552365D01*
X159707709Y-43556794D01*
X158398500Y-43556794D01*
X158398500Y-42502000D01*
X158418502Y-42433879D01*
X158472158Y-42387386D01*
X158524500Y-42376000D01*
X158756502Y-42376000D01*
X158758950Y-42375807D01*
X158758958Y-42375807D01*
X158787421Y-42373567D01*
X158787426Y-42373566D01*
X158793831Y-42373062D01*
X158893769Y-42344028D01*
X158945988Y-42328857D01*
X158945990Y-42328856D01*
X158953601Y-42326645D01*
X158995558Y-42301832D01*
X159047836Y-42284845D01*
X159070391Y-42282713D01*
X159076720Y-42282115D01*
X159088577Y-42281556D01*
X159799846Y-42281556D01*
X159867967Y-42301558D01*
G37*
%TD.AperFunction*%
%TA.AperFunction,Conductor*%
G36*
X132784430Y-45166581D02*
G01*
X132841303Y-45209079D01*
X132866171Y-45275577D01*
X132866500Y-45284675D01*
X132866500Y-45685405D01*
X132846498Y-45753526D01*
X132829595Y-45774500D01*
X132243787Y-46360308D01*
X132181475Y-46394334D01*
X132110660Y-46389269D01*
X132064966Y-46359673D01*
X132062421Y-46357091D01*
X132050487Y-46354000D01*
X131346744Y-46354000D01*
X131278623Y-46333998D01*
X131232130Y-46280342D01*
X131225745Y-46263146D01*
X131225020Y-46260650D01*
X131221012Y-46241295D01*
X131219467Y-46229064D01*
X131218474Y-46221203D01*
X131215557Y-46213836D01*
X131215556Y-46213831D01*
X131202198Y-46180092D01*
X131198354Y-46168865D01*
X131193194Y-46151107D01*
X131186018Y-46126407D01*
X131175707Y-46108972D01*
X131167012Y-46091224D01*
X131159552Y-46072383D01*
X131140427Y-46046059D01*
X131116570Y-45979191D01*
X131132652Y-45910040D01*
X131183567Y-45860560D01*
X131242365Y-45846000D01*
X132048424Y-45846000D01*
X132063219Y-45841656D01*
X132065063Y-45831225D01*
X132063312Y-45821641D01*
X132021643Y-45678216D01*
X132015394Y-45663776D01*
X131991361Y-45623137D01*
X131973902Y-45554321D01*
X131996420Y-45486989D01*
X132051764Y-45442521D01*
X132099815Y-45432999D01*
X132147095Y-45432999D01*
X132153614Y-45432662D01*
X132249206Y-45422743D01*
X132262600Y-45419851D01*
X132416784Y-45368412D01*
X132429962Y-45362239D01*
X132567807Y-45276937D01*
X132579208Y-45267901D01*
X132651327Y-45195657D01*
X132713610Y-45161578D01*
X132784430Y-45166581D01*
G37*
%TD.AperFunction*%
%TD*%
M02*
