M48
; DRILL file {KiCad (6.0.4)} date Fri Aug 12 18:00:55 2022
; FORMAT={-:-/ absolute / metric / decimal}
; #@! TF.CreationDate,2022-08-12T18:00:55-03:00
; #@! TF.GenerationSoftware,Kicad,Pcbnew,(6.0.4)
; #@! TF.FileFunction,Plated,1,4,PTH
FMAT,2
METRIC
; #@! TA.AperFunction,Plated,PTH,ViaDrill
T1C0.300
; #@! TA.AperFunction,Plated,PTH,ComponentDrill
T2C1.100
; #@! TA.AperFunction,Plated,PTH,ComponentDrill
T3C1.300
; #@! TA.AperFunction,Plated,PTH,ComponentDrill
T4C1.400
; #@! TA.AperFunction,Plated,PTH,ComponentDrill
T5C1.500
%
G90
G05
T1
X119.987Y-69.987
X120.0Y-47.0
X120.0Y-51.0
X120.0Y-55.0
X120.0Y-59.0
X122.2Y-54.1
X123.5Y-57.4
X123.9Y-59.4
X123.999Y-74.0
X124.0Y-82.0
X124.0Y-70.0
X124.0Y-78.0
X125.0Y-55.7
X125.3Y-48.4
X127.0Y-48.1
X127.0Y-62.8
X128.0Y-74.0
X128.0Y-78.0
X128.0Y-82.0
X128.6Y-44.2
X129.0Y-47.1
X129.2Y-45.8
X129.5Y-69.0
X131.9Y-42.6
X132.0Y-82.0
X132.3Y-45.7
X132.3Y-63.5
X132.6Y-50.4
X133.5Y-69.3
X134.0Y-41.6
X134.3Y-60.3
X134.8Y-45.8
X134.9Y-62.9
X135.2Y-72.7
X135.2Y-76.3
X135.5Y-61.5
X135.5Y-66.5
X136.2Y-67.6
X137.1Y-58.7
X137.5Y-67.7
X138.7Y-56.1
X138.7Y-57.1
X139.8Y-57.6
X140.3Y-48.4
X140.3Y-49.4
X141.5Y-47.0
X142.6Y-72.7
X143.2Y-70.1
X144.8Y-63.5
X145.75Y-57.5
X146.0Y-62.0
X146.2Y-64.6
X146.2Y-65.5
X146.2Y-66.5
X146.2Y-67.4
X149.0Y-63.25
X149.0Y-64.25
X149.0Y-65.25
X153.4Y-37.9
X153.4Y-43.0
X153.4Y-45.5
X153.5Y-48.1
X154.094Y-54.6
X156.6Y-39.6
X156.987Y-82.0
X157.0Y-70.0
X157.0Y-74.0
X157.0Y-78.0
X158.0Y-59.0
X158.5Y-58.0
X158.7Y-45.4
X160.7Y-44.5
X161.0Y-74.0
X161.0Y-78.0
X161.0Y-82.0
X161.3Y-55.25
X161.5Y-68.5
X161.6Y-48.7
X162.0Y-64.5
X162.0Y-65.5
X162.0Y-67.5
X163.25Y-58.0
X165.0Y-73.974
T2
X118.05Y-62.02
X118.05Y-66.52
X124.55Y-62.02
X124.55Y-66.52
T3
X165.565Y-47.367
X165.565Y-53.967
T4
X141.5Y-82.1
T5
X138.95Y-79.55
X138.95Y-84.65
X144.05Y-79.55
X144.05Y-84.65
T0
M30
