%TF.GenerationSoftware,KiCad,Pcbnew,(6.0.4)*%
%TF.CreationDate,2022-08-12T18:00:06-03:00*%
%TF.ProjectId,rf-system-receiver,72662d73-7973-4746-956d-2d7265636569,rev?*%
%TF.SameCoordinates,Original*%
%TF.FileFunction,Paste,Top*%
%TF.FilePolarity,Positive*%
%FSLAX46Y46*%
G04 Gerber Fmt 4.6, Leading zero omitted, Abs format (unit mm)*
G04 Created by KiCad (PCBNEW (6.0.4)) date 2022-08-12 18:00:06*
%MOMM*%
%LPD*%
G01*
G04 APERTURE LIST*
G04 Aperture macros list*
%AMRoundRect*
0 Rectangle with rounded corners*
0 $1 Rounding radius*
0 $2 $3 $4 $5 $6 $7 $8 $9 X,Y pos of 4 corners*
0 Add a 4 corners polygon primitive as box body*
4,1,4,$2,$3,$4,$5,$6,$7,$8,$9,$2,$3,0*
0 Add four circle primitives for the rounded corners*
1,1,$1+$1,$2,$3*
1,1,$1+$1,$4,$5*
1,1,$1+$1,$6,$7*
1,1,$1+$1,$8,$9*
0 Add four rect primitives between the rounded corners*
20,1,$1+$1,$2,$3,$4,$5,0*
20,1,$1+$1,$4,$5,$6,$7,0*
20,1,$1+$1,$6,$7,$8,$9,0*
20,1,$1+$1,$8,$9,$2,$3,0*%
G04 Aperture macros list end*
%ADD10RoundRect,0.075000X-0.662500X-0.075000X0.662500X-0.075000X0.662500X0.075000X-0.662500X0.075000X0*%
%ADD11RoundRect,0.075000X-0.075000X-0.662500X0.075000X-0.662500X0.075000X0.662500X-0.075000X0.662500X0*%
%ADD12RoundRect,0.140000X-0.170000X0.140000X-0.170000X-0.140000X0.170000X-0.140000X0.170000X0.140000X0*%
%ADD13RoundRect,0.250000X-0.650000X0.325000X-0.650000X-0.325000X0.650000X-0.325000X0.650000X0.325000X0*%
%ADD14RoundRect,0.218750X-0.218750X-0.256250X0.218750X-0.256250X0.218750X0.256250X-0.218750X0.256250X0*%
%ADD15RoundRect,0.225000X0.225000X0.250000X-0.225000X0.250000X-0.225000X-0.250000X0.225000X-0.250000X0*%
%ADD16RoundRect,0.218750X-0.256250X0.218750X-0.256250X-0.218750X0.256250X-0.218750X0.256250X0.218750X0*%
%ADD17RoundRect,0.218750X0.218750X0.256250X-0.218750X0.256250X-0.218750X-0.256250X0.218750X-0.256250X0*%
%ADD18RoundRect,0.135000X-0.135000X-0.185000X0.135000X-0.185000X0.135000X0.185000X-0.135000X0.185000X0*%
%ADD19RoundRect,0.225000X0.250000X-0.225000X0.250000X0.225000X-0.250000X0.225000X-0.250000X-0.225000X0*%
%ADD20R,3.150000X1.000000*%
%ADD21RoundRect,0.200000X0.200000X0.275000X-0.200000X0.275000X-0.200000X-0.275000X0.200000X-0.275000X0*%
%ADD22RoundRect,0.225000X-0.225000X-0.250000X0.225000X-0.250000X0.225000X0.250000X-0.225000X0.250000X0*%
%ADD23RoundRect,0.200000X-0.200000X-0.275000X0.200000X-0.275000X0.200000X0.275000X-0.200000X0.275000X0*%
%ADD24RoundRect,0.250000X0.375000X0.625000X-0.375000X0.625000X-0.375000X-0.625000X0.375000X-0.625000X0*%
%ADD25RoundRect,0.250000X-0.250000X-0.475000X0.250000X-0.475000X0.250000X0.475000X-0.250000X0.475000X0*%
%ADD26RoundRect,0.225000X-0.250000X0.225000X-0.250000X-0.225000X0.250000X-0.225000X0.250000X0.225000X0*%
%ADD27RoundRect,0.218750X0.256250X-0.218750X0.256250X0.218750X-0.256250X0.218750X-0.256250X-0.218750X0*%
%ADD28RoundRect,0.140000X-0.140000X-0.170000X0.140000X-0.170000X0.140000X0.170000X-0.140000X0.170000X0*%
%ADD29RoundRect,0.200000X0.275000X-0.200000X0.275000X0.200000X-0.275000X0.200000X-0.275000X-0.200000X0*%
%ADD30R,0.300000X0.850000*%
%ADD31R,0.850000X0.300000*%
%ADD32R,3.400000X3.400000*%
%ADD33RoundRect,0.135000X0.185000X-0.135000X0.185000X0.135000X-0.185000X0.135000X-0.185000X-0.135000X0*%
%ADD34R,2.000000X1.500000*%
%ADD35R,2.000000X3.800000*%
%ADD36R,1.200000X1.400000*%
%ADD37RoundRect,0.140000X0.140000X0.170000X-0.140000X0.170000X-0.140000X-0.170000X0.140000X-0.170000X0*%
%ADD38R,1.350000X0.400000*%
%ADD39R,1.400000X1.600000*%
%ADD40R,1.600000X1.900000*%
%ADD41RoundRect,0.250000X0.250000X0.475000X-0.250000X0.475000X-0.250000X-0.475000X0.250000X-0.475000X0*%
%ADD42RoundRect,0.200000X-0.275000X0.200000X-0.275000X-0.200000X0.275000X-0.200000X0.275000X0.200000X0*%
%ADD43RoundRect,0.150000X-0.150000X0.587500X-0.150000X-0.587500X0.150000X-0.587500X0.150000X0.587500X0*%
%ADD44RoundRect,0.250000X0.650000X-0.325000X0.650000X0.325000X-0.650000X0.325000X-0.650000X-0.325000X0*%
G04 APERTURE END LIST*
D10*
%TO.C,U1*%
X129187500Y-49250000D03*
X129187500Y-49750000D03*
X129187500Y-50250000D03*
X129187500Y-50750000D03*
X129187500Y-51250000D03*
X129187500Y-51750000D03*
X129187500Y-52250000D03*
X129187500Y-52750000D03*
X129187500Y-53250000D03*
X129187500Y-53750000D03*
X129187500Y-54250000D03*
X129187500Y-54750000D03*
D11*
X130600000Y-56162500D03*
X131100000Y-56162500D03*
X131600000Y-56162500D03*
X132100000Y-56162500D03*
X132600000Y-56162500D03*
X133100000Y-56162500D03*
X133600000Y-56162500D03*
X134100000Y-56162500D03*
X134600000Y-56162500D03*
X135100000Y-56162500D03*
X135600000Y-56162500D03*
X136100000Y-56162500D03*
D10*
X137512500Y-54750000D03*
X137512500Y-54250000D03*
X137512500Y-53750000D03*
X137512500Y-53250000D03*
X137512500Y-52750000D03*
X137512500Y-52250000D03*
X137512500Y-51750000D03*
X137512500Y-51250000D03*
X137512500Y-50750000D03*
X137512500Y-50250000D03*
X137512500Y-49750000D03*
X137512500Y-49250000D03*
D11*
X136100000Y-47837500D03*
X135600000Y-47837500D03*
X135100000Y-47837500D03*
X134600000Y-47837500D03*
X134100000Y-47837500D03*
X133600000Y-47837500D03*
X133100000Y-47837500D03*
X132600000Y-47837500D03*
X132100000Y-47837500D03*
X131600000Y-47837500D03*
X131100000Y-47837500D03*
X130600000Y-47837500D03*
%TD*%
D12*
%TO.C,C15*%
X139250000Y-48520000D03*
X139250000Y-49480000D03*
%TD*%
D13*
%TO.C,C8*%
X160000000Y-64200000D03*
X160000000Y-67150000D03*
%TD*%
D14*
%TO.C,FB1*%
X125212500Y-59400000D03*
X126787500Y-59400000D03*
%TD*%
D15*
%TO.C,C7*%
X136175000Y-69300000D03*
X134625000Y-69300000D03*
%TD*%
D16*
%TO.C,L2*%
X139800000Y-74712500D03*
X139800000Y-76287500D03*
%TD*%
D17*
%TO.C,D1*%
X147462500Y-58800000D03*
X145887500Y-58800000D03*
%TD*%
D18*
%TO.C,R5*%
X126190000Y-52250000D03*
X127210000Y-52250000D03*
%TD*%
D19*
%TO.C,C10*%
X141400000Y-72675000D03*
X141400000Y-71125000D03*
%TD*%
D20*
%TO.C,J3*%
X151125000Y-48080000D03*
X146075000Y-48080000D03*
X151125000Y-45540000D03*
X146075000Y-45540000D03*
X151125000Y-43000000D03*
X146075000Y-43000000D03*
X151125000Y-40460000D03*
X146075000Y-40460000D03*
X151125000Y-37920000D03*
X146075000Y-37920000D03*
%TD*%
D21*
%TO.C,R2*%
X144825000Y-68800000D03*
X143175000Y-68800000D03*
%TD*%
D22*
%TO.C,C1*%
X138225000Y-58797745D03*
X139775000Y-58797745D03*
%TD*%
D12*
%TO.C,C23*%
X127000000Y-60920000D03*
X127000000Y-61880000D03*
%TD*%
D23*
%TO.C,R6*%
X138675000Y-47000000D03*
X140325000Y-47000000D03*
%TD*%
D24*
%TO.C,F1*%
X165300000Y-62075000D03*
X162500000Y-62075000D03*
%TD*%
D25*
%TO.C,C14*%
X129950000Y-44200000D03*
X131850000Y-44200000D03*
%TD*%
D26*
%TO.C,C13*%
X141500000Y-74725000D03*
X141500000Y-76275000D03*
%TD*%
D27*
%TO.C,L3*%
X138100000Y-76287500D03*
X138100000Y-74712500D03*
%TD*%
D28*
%TO.C,C19*%
X123320000Y-48400000D03*
X124280000Y-48400000D03*
%TD*%
D21*
%TO.C,R3*%
X147500000Y-60800000D03*
X145850000Y-60800000D03*
%TD*%
D29*
%TO.C,R9*%
X164090000Y-43292500D03*
X164090000Y-41642500D03*
%TD*%
D28*
%TO.C,C4*%
X130440000Y-63285000D03*
X131400000Y-63285000D03*
%TD*%
D30*
%TO.C,IC1*%
X140750000Y-61700000D03*
X140250000Y-61700000D03*
X139750000Y-61700000D03*
X139250000Y-61700000D03*
X138750000Y-61700000D03*
X138250000Y-61700000D03*
X137750000Y-61700000D03*
X137250000Y-61700000D03*
D31*
X136550000Y-62400000D03*
X136550000Y-62900000D03*
X136550000Y-63400000D03*
X136550000Y-63900000D03*
X136550000Y-64400000D03*
X136550000Y-64900000D03*
X136550000Y-65400000D03*
X136550000Y-65900000D03*
D30*
X137250000Y-66600000D03*
X137750000Y-66600000D03*
X138250000Y-66600000D03*
X138750000Y-66600000D03*
X139250000Y-66600000D03*
X139750000Y-66600000D03*
X140250000Y-66600000D03*
X140750000Y-66600000D03*
D31*
X141450000Y-65900000D03*
X141450000Y-65400000D03*
X141450000Y-64900000D03*
X141450000Y-64400000D03*
X141450000Y-63900000D03*
X141450000Y-63400000D03*
X141450000Y-62900000D03*
X141450000Y-62400000D03*
D32*
X139000000Y-64150000D03*
%TD*%
D33*
%TO.C,R1*%
X134070000Y-66520000D03*
X134070000Y-65500000D03*
%TD*%
D17*
%TO.C,L1*%
X139687500Y-71200000D03*
X138112500Y-71200000D03*
%TD*%
D26*
%TO.C,C11*%
X136400000Y-71125000D03*
X136400000Y-72675000D03*
%TD*%
D34*
%TO.C,U2*%
X157150000Y-66675000D03*
D35*
X150850000Y-64375000D03*
D34*
X157150000Y-64375000D03*
X157150000Y-62075000D03*
%TD*%
D29*
%TO.C,R7*%
X154093750Y-57425000D03*
X154093750Y-55775000D03*
%TD*%
D36*
%TO.C,X2*%
X122950000Y-50150000D03*
X122950000Y-52350000D03*
X124650000Y-52350000D03*
X124650000Y-50150000D03*
%TD*%
D26*
%TO.C,C6*%
X143200000Y-65225000D03*
X143200000Y-66775000D03*
%TD*%
D37*
%TO.C,C20*%
X124280000Y-54100000D03*
X123320000Y-54100000D03*
%TD*%
D26*
%TO.C,C12*%
X136400000Y-74725000D03*
X136400000Y-76275000D03*
%TD*%
D37*
%TO.C,C22*%
X126980000Y-55650000D03*
X126020000Y-55650000D03*
%TD*%
D38*
%TO.C,J1*%
X162890000Y-51967500D03*
X162890000Y-51317500D03*
X162890000Y-50667500D03*
X162890000Y-50017500D03*
X162890000Y-49367500D03*
D39*
X163115000Y-53867500D03*
D40*
X165565000Y-51867500D03*
X165565000Y-49467500D03*
D39*
X163115000Y-47467500D03*
%TD*%
D36*
%TO.C,X1*%
X130070000Y-64995000D03*
X130070000Y-67195000D03*
X131770000Y-67195000D03*
X131770000Y-64995000D03*
%TD*%
D41*
%TO.C,C21*%
X126700000Y-57400000D03*
X124800000Y-57400000D03*
%TD*%
D42*
%TO.C,R10*%
X160690000Y-41642500D03*
X160690000Y-43292500D03*
%TD*%
D19*
%TO.C,C3*%
X143500000Y-63522745D03*
X143500000Y-61972745D03*
%TD*%
D43*
%TO.C,Q1*%
X158540000Y-41130000D03*
X156640000Y-41130000D03*
X157590000Y-43005000D03*
%TD*%
D29*
%TO.C,R8*%
X158690000Y-48292500D03*
X158690000Y-46642500D03*
%TD*%
D37*
%TO.C,C18*%
X128980000Y-48100000D03*
X128020000Y-48100000D03*
%TD*%
D28*
%TO.C,C17*%
X130320000Y-46100000D03*
X131280000Y-46100000D03*
%TD*%
D29*
%TO.C,R4*%
X134000000Y-44425000D03*
X134000000Y-42775000D03*
%TD*%
D42*
%TO.C,R11*%
X162390000Y-41642500D03*
X162390000Y-43292500D03*
%TD*%
D27*
%TO.C,D2*%
X152193750Y-57387500D03*
X152193750Y-55812500D03*
%TD*%
D44*
%TO.C,C2*%
X160000000Y-62050000D03*
X160000000Y-59100000D03*
%TD*%
D37*
%TO.C,C5*%
X131400000Y-69035000D03*
X130440000Y-69035000D03*
%TD*%
D12*
%TO.C,C16*%
X137750000Y-56120000D03*
X137750000Y-57080000D03*
%TD*%
D26*
%TO.C,C9*%
X145000000Y-65225000D03*
X145000000Y-66775000D03*
%TD*%
M02*
