*%FSLAX24Y24*%
*%MOIN*%
G01*
%ADD11C,0.0050*%
%ADD12C,0.0060*%
%ADD13C,0.0073*%
%ADD14C,0.0079*%
%ADD15C,0.0100*%
%ADD16C,0.0120*%
%ADD17C,0.0200*%
%ADD18C,0.0360*%
%ADD19C,0.0400*%
%ADD20C,0.0460*%
%ADD21C,0.0600*%
%ADD22R,0.0300X0.0300*%
%ADD23R,0.0400X0.0400*%
D11*
X18181Y11600D02*
Y11950D01*
X17781D02*
Y11600D01*
Y11350D02*
Y11000D01*
X18181D02*
Y11350D01*
Y11950D02*
X17781D01*
Y11000D02*
X18181D01*
X15819Y11600D02*
Y11950D01*
X15419D02*
Y11600D01*
Y11350D02*
Y11000D01*
X15819D02*
Y11350D01*
Y11950D02*
X15419D01*
Y11000D02*
X15819D01*
D12*
X16650Y13181D02*
X16717Y13247D01*
X16850D01*
X16917Y13181D01*
Y13114D01*
X16918D01*
X16917D02*
X16918D01*
X16917D02*
X16918D01*
X16917D02*
X16850Y13047D01*
X16783D01*
X16850D01*
X16917Y12981D01*
Y12914D01*
X16850Y12848D01*
X16717D01*
X16650Y12914D01*
X17200Y12098D02*
X17467D01*
X17200D02*
X17467Y12364D01*
Y12431D01*
X17400Y12497D01*
X17267D01*
X17200Y12431D01*
X16383Y12098D02*
X16250D01*
X16317D02*
X16383D01*
X16317D02*
Y12497D01*
X16318D01*
X16317D02*
X16250Y12431D01*
D14*
X15862Y16837D02*
Y17230D01*
X15665Y17033D01*
X15928D01*
X16059Y17165D02*
X16124Y17230D01*
X16256D01*
X16321Y17165D01*
Y17099D01*
X16322D01*
X16321D02*
X16322D01*
X16321D02*
X16322D01*
X16321D02*
X16256Y17033D01*
X16190D01*
X16256D01*
X16321Y16968D01*
Y16902D01*
X16256Y16837D01*
X16124D01*
X16059Y16902D01*
X16452Y17165D02*
X16518Y17230D01*
X16649D01*
X16715Y17165D01*
Y17099D01*
X16716D01*
X16715D02*
X16716D01*
X16715D02*
X16716D01*
X16715D02*
X16649Y17033D01*
X16584D01*
X16649D01*
X16715Y16968D01*
Y16902D01*
X16649Y16837D01*
X16518D01*
X16452Y16902D01*
X16846Y16837D02*
Y17230D01*
X16977Y17099D01*
X17108Y17230D01*
Y16837D01*
X17240D02*
Y17230D01*
Y17033D02*
Y16837D01*
Y17033D02*
X17502D01*
Y17230D01*
Y16837D01*
X17633Y17099D02*
X17896D01*
X17633Y16837D01*
X17896D01*
X14731Y16480D02*
X14665Y16415D01*
X14731Y16480D02*
X14862D01*
X14928Y16415D01*
Y16349D01*
X14929D01*
X14928D02*
X14929D01*
X14928D02*
X14929D01*
X14928D02*
X14862Y16283D01*
X14796D01*
X14862D01*
X14928Y16218D01*
Y16152D01*
X14862Y16087D01*
X14731D01*
X14665Y16152D01*
X15059Y16480D02*
X15321D01*
X15059D02*
Y16283D01*
X15190Y16349D01*
X15256D01*
X15321Y16283D01*
Y16152D01*
X15256Y16087D01*
X15124D01*
X15059Y16152D01*
X15452Y16087D02*
Y16349D01*
X15518D01*
X15584Y16283D01*
Y16087D01*
Y16283D01*
X15649Y16349D01*
X15715Y16283D01*
Y16087D01*
X15846D02*
Y16349D01*
X15912D01*
X15977Y16283D01*
Y16087D01*
Y16283D01*
X16043Y16349D01*
X16108Y16283D01*
Y16087D01*
X16633Y16480D02*
X16896Y16087D01*
X16633D02*
X16896Y16480D01*
X17420Y16087D02*
X17683D01*
X17420D02*
X17683Y16349D01*
Y16415D01*
X17617Y16480D01*
X17486D01*
X17420Y16415D01*
X17814D02*
X17879Y16480D01*
X18011D01*
X18076Y16415D01*
Y16152D01*
X18011Y16087D01*
X17879D01*
X17814Y16152D01*
Y16415D01*
X18207Y16349D02*
Y16087D01*
Y16349D02*
X18273D01*
X18339Y16283D01*
Y16087D01*
Y16283D01*
X18404Y16349D01*
X18470Y16283D01*
Y16087D01*
X18601D02*
Y16349D01*
X18667D01*
X18732Y16283D01*
Y16087D01*
Y16283D01*
X18798Y16349D01*
X18863Y16283D01*
Y16087D01*
D15*
X15630Y17711D02*
Y18045D01*
X15701Y18021D02*
X15630Y17949D01*
X15701Y18021D02*
X15749Y18045D01*
X15820D01*
X15868Y18021D01*
X15892Y17949D01*
Y17711D01*
X16023D02*
Y18211D01*
X16237D01*
X16308Y18187D01*
X16332Y18164D01*
X16356Y18116D01*
Y18068D01*
X16332Y18021D01*
X16308Y17997D01*
X16237Y17973D01*
X16023D01*
X16189D02*
X16356Y17711D01*
X16468D02*
Y18211D01*
X16777D01*
X16658Y17973D02*
X16468D01*
X17120D02*
X17144Y18045D01*
X17120Y17973D02*
X17072Y17926D01*
X17001Y17902D01*
X16977D01*
X16906Y17926D01*
X16858Y17973D01*
X16834Y18045D01*
Y18068D01*
X16858Y18140D01*
X16906Y18187D01*
X16977Y18211D01*
X17001D01*
X17072Y18187D01*
X17120Y18140D01*
X17144Y18045D01*
Y17926D01*
X17120Y17807D01*
X17072Y17735D01*
X17001Y17711D01*
X16953D01*
X16882Y17735D01*
X16858Y17783D01*
X17280Y18045D02*
X17541Y17711D01*
X17280D02*
X17541Y18045D01*
X17694Y18211D02*
X17932D01*
X17694D02*
X17670Y17997D01*
X17694Y18021D01*
X17765Y18045D01*
X17837D01*
X17908Y18021D01*
X17956Y17973D01*
X17979Y17902D01*
Y17854D01*
X17956Y17783D01*
X17908Y17735D01*
X17837Y17711D01*
X17765D01*
X17694Y17735D01*
X17670Y17759D01*
X17646Y17807D01*
D16*
X15382Y21178D02*
X14932D01*
Y20478D02*
X15382D01*
X15682D02*
X16182D01*
Y21178D02*
X15682D01*
X14932D02*
Y20478D01*
X16182D02*
Y21178D01*
X17442Y21178D02*
X17892D01*
Y20478D02*
X17442D01*
X18192D02*
X18692D01*
Y21178D02*
X18192D01*
X17442D02*
Y20478D01*
X18692D02*
Y21178D01*
X17440Y21178D02*
Y20478D01*
X16190D02*
Y21178D01*
X16940D02*
X17440D01*
Y20478D02*
X16940D01*
X16640D02*
X16190D01*
Y21178D02*
X16640D01*
D02*
M02*
