*%FSLAX24Y24*%
*%MOIN*%
G01*
%ADD11C,0.0050*%
%ADD12C,0.0060*%
%ADD13C,0.0073*%
%ADD14C,0.0079*%
%ADD15C,0.0100*%
%ADD16C,0.0120*%
%ADD17C,0.0200*%
%ADD18C,0.0360*%
%ADD19C,0.0400*%
%ADD20C,0.0460*%
%ADD21C,0.0600*%
%ADD22R,0.0300X0.0300*%
%ADD23R,0.0400X0.0400*%
D18*
X17292Y11802D02*
D03*
X16292D02*
D03*
X16800Y12598D02*
D03*
D19*
Y12600D02*
Y12958D01*
X21229Y12968D02*
Y11798D01*
X9872Y14147D02*
Y19633D01*
X23722Y19631D02*
Y14147D01*
X16292Y11802D02*
X12460D01*
X17292D02*
X21140D01*
X15272Y20818D02*
X11060D01*
X18342Y20818D02*
X22534D01*
X22540Y12968D02*
X11060D01*
X15832Y20828D02*
X16539D01*
X16540Y20828D01*
X17090D02*
X17782D01*
X17792Y20818D01*
X12371Y12968D02*
Y11802D01*
X22539Y20812D02*
G75*
G02*X23721Y19632I1J-1181D01*
G74*
Y14147D02*
G75*
G02*X22540Y12966I-1181D01*
G74*
X11059Y12966D02*
G75*
G02*X9879Y14148I1J1181D01*
G74*
X9879Y19633D02*
G75*
G02*X11061Y20812I1181J-1D01*
D22*
G74*
X17981Y11750D02*
D03*
Y11200D02*
D03*
X15619Y11750D02*
D03*
Y11200D02*
D03*
X15282Y20828D02*
D03*
X15832D02*
D03*
X17792Y20828D02*
D03*
X18342D02*
D03*
X17090Y20828D02*
D03*
X16540D02*
D03*
M02*
