%FSLAX24Y24*%
%MOIN*%
G70*
G01*
G75*
G04 Layer_Color=128*
%ADD10R,0.0300X0.0300*%
%ADD11O,0.0118X0.0354*%
%ADD12O,0.0354X0.0118*%
%ADD13R,0.0551X0.0453*%
%ADD14C,0.0300*%
%ADD15C,0.0080*%
%ADD16C,0.0060*%
%ADD17C,0.0070*%
%ADD18C,0.0100*%
%ADD19C,0.0110*%
%ADD20C,0.0200*%
%ADD21C,0.0360*%
%ADD22C,0.0050*%
%ADD23C,0.0043*%
%ADD24R,0.0380X0.0380*%
%ADD25O,0.0198X0.0434*%
%ADD26O,0.0434X0.0198*%
%ADD27R,0.0631X0.0533*%
%ADD28C,0.0440*%
%ADD29C,0.0030*%
D29*
X6740Y3000D02*
X6940D01*
X6840Y2900D02*
Y3100D01*
X6550Y5700D02*
X6750D01*
X6650Y5600D02*
Y5800D01*
X5990Y5600D02*
X6190D01*
X6090Y5500D02*
Y5700D01*
X6740Y6690D02*
X6940D01*
X6840Y6590D02*
Y6790D01*
X5107Y6690D02*
X5307D01*
X5207Y6590D02*
Y6790D01*
X3475Y6690D02*
X3675D01*
X3575Y6590D02*
Y6790D01*
X4160Y6090D02*
X4360D01*
X4260Y5990D02*
Y6190D01*
X4350Y5600D02*
X4550D01*
X4450Y5500D02*
Y5700D01*
X3680Y5090D02*
X3880D01*
X3780Y4990D02*
Y5190D01*
X3120Y4190D02*
X3320D01*
X3220Y4090D02*
Y4290D01*
X3120Y3830D02*
X3320D01*
X3220Y3730D02*
Y3930D01*
X3640Y2780D02*
X3840D01*
X3740Y2680D02*
Y2880D01*
X3280Y2470D02*
X3480D01*
X3380Y2370D02*
Y2570D01*
X4160Y1960D02*
X4360D01*
X4260Y1860D02*
Y2060D01*
X5690Y1340D02*
X5890D01*
X5790Y1240D02*
Y1440D01*
X6740Y1700D02*
X6940D01*
X6840Y1600D02*
Y1800D01*
X6740Y310D02*
X6940D01*
X6840Y210D02*
Y410D01*
X5107Y310D02*
X5307D01*
X5207Y210D02*
Y410D01*
X4020Y740D02*
X4220D01*
X4120Y640D02*
Y840D01*
X3490Y1340D02*
X3690D01*
X3590Y1240D02*
Y1440D01*
X3475Y310D02*
X3675D01*
X3575Y210D02*
Y410D01*
X1842Y310D02*
X2042D01*
X1943Y210D02*
Y410D01*
X210Y310D02*
X410D01*
X310Y210D02*
Y410D01*
X690Y740D02*
X890D01*
X790Y640D02*
Y840D01*
X1160Y1340D02*
X1360D01*
X1260Y1240D02*
Y1440D01*
X1160Y1971D02*
X1360D01*
X1260Y1871D02*
Y2071D01*
X210Y2270D02*
X410D01*
X310Y2170D02*
Y2370D01*
X2530Y3580D02*
X2730D01*
X2630Y3480D02*
Y3680D01*
X2170Y3580D02*
X2370D01*
X2270Y3480D02*
Y3680D01*
X2530Y4490D02*
X2730D01*
X2630Y4390D02*
Y4590D01*
X2170Y4490D02*
X2370D01*
X2270Y4390D02*
Y4590D01*
X210Y4068D02*
X410D01*
X310Y3968D02*
Y4168D01*
X2300Y5930D02*
X2500D01*
X2400Y5830D02*
Y6030D01*
X1041Y5448D02*
X1241D01*
X1141Y5348D02*
Y5548D01*
X210Y5200D02*
X410D01*
X310Y5100D02*
Y5300D01*
X1842Y6690D02*
X2042D01*
X1943Y6590D02*
Y6790D01*
X210Y6690D02*
X410D01*
X310Y6590D02*
Y6790D01*
X5420Y3840D02*
X5620D01*
X5520Y3740D02*
Y3940D01*
X5420Y4250D02*
X5620D01*
X5520Y4150D02*
Y4350D01*
X6240Y2340D02*
X6440D01*
X6340Y2240D02*
Y2440D01*
X6740Y4180D02*
X6940D01*
X6840Y4080D02*
Y4280D01*
X5170Y2000D02*
X5370D01*
X5270Y1900D02*
Y2100D01*
X4770Y2000D02*
X4970D01*
X4870Y1900D02*
Y2100D01*
X5190Y5600D02*
X5390D01*
X5290Y5500D02*
Y5700D01*
M02*
