M48
;Layer_Color=9474304
;FILE_FORMAT=2:4
INCH,LZ
;TYPE=PLATED
T1F00S00C0.0200
%
T01
X00031Y00031
Y00227
X00126Y001971
Y00134
X00079Y00074
X001943Y00031
X003575
X00412Y00074
X00359Y00134
X00426Y00196
X00487Y002
X00527
X00579Y00134
X00684Y0017
X00634Y00234
X00684Y00031
X005207
X00374Y00278
X00338Y00247
X00322Y00383
Y00419
X00263Y00449
X00227
Y00358
X00263
X0024Y00593
X001943Y00669
X003575
X00426Y00609
X00445Y0056
X00529
X00609
X00665Y0057
X00684Y00669
X005207
X00552Y00425
Y00384
X00684Y00418
Y003
X00378Y00509
X001141Y005448
X00031Y0052
Y004068
Y00669
M30
