%FSLAX24Y24*%
%MOIN*%
G70*
G01*
G75*
G04 Layer_Physical_Order=2*
G04 Layer_Color=16711680*
%ADD10R,0.0300X0.0300*%
%ADD11O,0.0118X0.0354*%
%ADD12O,0.0354X0.0118*%
%ADD13R,0.0551X0.0453*%
%ADD14C,0.0300*%
%ADD15C,0.0080*%
%ADD16C,0.0060*%
%ADD17C,0.0070*%
%ADD18C,0.0100*%
%ADD19C,0.0110*%
%ADD20C,0.0200*%
%ADD21C,0.0360*%
D17*
X160Y180D02*
X6530D01*
X160Y230D02*
X6530D01*
X160Y280D02*
X6530D01*
X160Y330D02*
X6530D01*
X160Y380D02*
X6530D01*
X160Y430D02*
X6530D01*
X160Y480D02*
X6530D01*
X160Y530D02*
X6530D01*
X160Y580D02*
X6530D01*
X160Y630D02*
X6530D01*
X160Y680D02*
X6530D01*
X160Y730D02*
X6530D01*
X160Y780D02*
X6530D01*
X160Y830D02*
X6530D01*
X160Y880D02*
X6530D01*
X160Y930D02*
X6530D01*
X160Y980D02*
X6530D01*
X160Y1030D02*
X6530D01*
X160Y1080D02*
X6530D01*
X160Y1130D02*
X6530D01*
X160Y1180D02*
X6530D01*
X160Y1230D02*
X6530D01*
X160Y1280D02*
X6530D01*
X160Y1330D02*
X6530D01*
X160Y1380D02*
X6530D01*
X160Y690D02*
Y5810D01*
Y160D02*
Y6840D01*
Y1430D02*
X6530D01*
X160Y1480D02*
X6530D01*
X160Y1530D02*
X6530D01*
X160Y1580D02*
X6530D01*
X160Y1630D02*
X6530D01*
X160Y1680D02*
X6530D01*
X160Y1730D02*
X6530D01*
X160Y1780D02*
X6530D01*
X160Y1830D02*
X6530D01*
X160Y1880D02*
X6530D01*
X160Y1930D02*
X6530D01*
X160Y1980D02*
X6530D01*
X160Y2030D02*
X6530D01*
X160Y2080D02*
X6530D01*
X160Y2130D02*
X6530D01*
X160Y2180D02*
X6530D01*
X160Y2230D02*
X6530D01*
X160Y2280D02*
X6530D01*
X160Y2330D02*
X6530D01*
X160Y2380D02*
X6530D01*
X160Y2430D02*
X6530D01*
X160Y2480D02*
X6530D01*
X160Y2530D02*
X6530D01*
X160Y2580D02*
X6530D01*
X160Y2630D02*
X6530D01*
X160Y2680D02*
X6530D01*
X160Y2730D02*
X6530D01*
X160Y2780D02*
X6530D01*
X160Y2830D02*
X6530D01*
X160Y2880D02*
X6530D01*
X160Y2930D02*
X6530D01*
X160Y2980D02*
X6530D01*
X160Y3030D02*
X6530D01*
X160Y3080D02*
X6530D01*
X160Y3130D02*
X6530D01*
X160Y3180D02*
X6530D01*
X160Y3230D02*
X6530D01*
X160Y3280D02*
X6530D01*
X160Y3330D02*
X6530D01*
X160Y3380D02*
X6530D01*
X160Y3430D02*
X6530D01*
X160Y3480D02*
X6530D01*
X160Y3530D02*
X6530D01*
X160Y3580D02*
X6530D01*
X160Y3630D02*
X6530D01*
X160Y3680D02*
X6530D01*
X160Y3730D02*
X6530D01*
X160Y3780D02*
X6530D01*
X160Y3830D02*
X6530D01*
X160Y3880D02*
X6530D01*
X160Y3930D02*
X6530D01*
X160Y3980D02*
X6530D01*
X160Y4030D02*
X6530D01*
X160Y4080D02*
X6530D01*
X160Y4130D02*
X6530D01*
X160Y4180D02*
X6530D01*
X160Y4230D02*
X6530D01*
X160Y4280D02*
X6530D01*
X160Y4330D02*
X6530D01*
X160Y4380D02*
X6530D01*
X160Y4430D02*
X6530D01*
X160Y4480D02*
X6530D01*
X160Y4530D02*
X6530D01*
X160Y4580D02*
X6530D01*
X160Y4630D02*
X6530D01*
X160Y4680D02*
X6530D01*
X160Y4730D02*
X6530D01*
X160Y4780D02*
X6530D01*
X160Y4830D02*
X6530D01*
X160Y4880D02*
X6530D01*
X160Y4930D02*
X6530D01*
X160Y4980D02*
X6530D01*
X160Y5810D02*
Y5970D01*
Y5810D02*
Y5970D01*
Y5030D02*
X6530D01*
X160Y5080D02*
X6530D01*
X160Y5970D02*
Y6840D01*
Y5130D02*
X6530D01*
X160Y5180D02*
X6530D01*
X160Y5230D02*
X6530D01*
X160Y5280D02*
X6530D01*
X160Y5330D02*
X6530D01*
X160Y5380D02*
X6530D01*
X160Y5430D02*
X6530D01*
X160Y5480D02*
X6530D01*
X160Y5530D02*
X6530D01*
X160Y5580D02*
X6530D01*
X160Y5630D02*
X6530D01*
X160Y5680D02*
X6530D01*
X160Y5730D02*
X6530D01*
X160Y5780D02*
X6530D01*
X160Y5830D02*
X6530D01*
X160Y5880D02*
X6530D01*
X160Y5930D02*
X6530D01*
X160Y5980D02*
X6530D01*
X160Y6030D02*
X6530D01*
X160Y6080D02*
X6530D01*
X160Y6130D02*
X6530D01*
X160Y6180D02*
X6530D01*
X160Y6230D02*
X6530D01*
X160Y6280D02*
X6530D01*
X160Y6330D02*
X6530D01*
X160Y6380D02*
X6530D01*
X160Y6430D02*
X6530D01*
X160Y6480D02*
X6530D01*
X160Y6530D02*
X6530D01*
X160Y6580D02*
X6530D01*
X160Y6630D02*
X6530D01*
X160Y6680D02*
X6530D01*
X160Y6730D02*
X6530D01*
X160Y6780D02*
X6530D01*
X160Y6830D02*
X6530D01*
X160Y160D02*
Y530D01*
X210Y160D02*
Y6840D01*
X260Y160D02*
Y6840D01*
X310Y160D02*
Y6840D01*
X360Y160D02*
Y6840D01*
X410Y160D02*
Y6840D01*
X460Y160D02*
Y6840D01*
X510Y160D02*
Y6840D01*
X560Y160D02*
Y6840D01*
X610Y160D02*
Y6840D01*
X660Y160D02*
Y6840D01*
X710Y160D02*
Y6840D01*
X760Y160D02*
Y6840D01*
X810Y160D02*
Y6840D01*
X860Y160D02*
Y6840D01*
X910Y160D02*
Y6840D01*
X960Y160D02*
Y6840D01*
X1010Y160D02*
Y6840D01*
X1060Y160D02*
Y6840D01*
X1110Y160D02*
Y6840D01*
X1160Y160D02*
Y6840D01*
X1210Y160D02*
Y6840D01*
X1260Y160D02*
Y6840D01*
X1310Y160D02*
Y6840D01*
X1360Y160D02*
Y6840D01*
X1410Y160D02*
Y6840D01*
X1460Y160D02*
Y6840D01*
X1510Y160D02*
Y6840D01*
X1560Y160D02*
Y6840D01*
X1610Y160D02*
Y6840D01*
X1660Y160D02*
Y6840D01*
X1710Y160D02*
Y6840D01*
X1760Y160D02*
Y6840D01*
X1810Y160D02*
Y6840D01*
X1860Y160D02*
Y6840D01*
X1910Y160D02*
Y6840D01*
X160Y160D02*
X6530D01*
X1960D02*
Y6840D01*
X2010Y160D02*
Y6840D01*
X2060Y160D02*
Y6840D01*
X2110Y160D02*
Y6840D01*
X2160Y160D02*
Y6840D01*
X2210Y160D02*
Y6840D01*
X2260Y160D02*
Y6840D01*
X2310Y160D02*
Y6840D01*
X2360Y160D02*
Y6840D01*
X2410Y160D02*
Y6840D01*
X2460Y160D02*
Y6840D01*
X2510Y160D02*
Y6840D01*
X2560Y160D02*
Y6840D01*
X2610Y160D02*
Y6840D01*
X2660Y160D02*
Y6840D01*
X2710Y160D02*
Y6840D01*
X2760Y160D02*
Y6840D01*
X2810Y160D02*
Y6840D01*
X2860Y160D02*
Y6840D01*
X2910Y160D02*
Y6840D01*
X2960Y160D02*
Y6840D01*
X3010Y160D02*
Y6840D01*
X3060Y160D02*
Y6840D01*
X3110Y160D02*
Y6840D01*
X3160Y160D02*
Y6840D01*
X3210Y160D02*
Y6840D01*
X3260Y160D02*
Y6840D01*
X3310Y160D02*
Y6840D01*
X3360Y160D02*
Y6840D01*
X3410Y160D02*
Y6840D01*
X3460Y160D02*
Y6840D01*
X3510Y160D02*
Y6840D01*
X3560Y160D02*
Y6840D01*
X3610Y160D02*
Y6840D01*
X3660Y160D02*
Y6840D01*
X3710Y160D02*
Y6840D01*
X160Y530D02*
Y690D01*
Y530D02*
Y690D01*
X3760Y160D02*
Y6840D01*
X3810Y160D02*
Y6840D01*
X3860Y160D02*
Y6840D01*
X3910Y160D02*
Y6840D01*
X3960Y160D02*
Y6840D01*
X4010Y160D02*
Y6840D01*
X4060Y160D02*
Y6840D01*
X4110Y160D02*
Y6840D01*
X4160Y160D02*
Y6840D01*
X4210Y160D02*
Y6840D01*
X4260Y160D02*
Y6840D01*
X4310Y160D02*
Y6840D01*
X4360Y160D02*
Y6840D01*
X4410Y160D02*
Y6840D01*
X4460Y160D02*
Y6840D01*
X4510Y160D02*
Y6840D01*
X4560Y160D02*
Y6840D01*
X4610Y160D02*
Y6840D01*
X4660Y160D02*
Y6840D01*
X4710Y160D02*
Y6840D01*
X4760Y160D02*
Y6840D01*
X4810Y160D02*
Y6840D01*
X4860Y160D02*
Y6840D01*
X4910Y160D02*
Y6840D01*
X4960Y160D02*
Y6840D01*
X5010Y160D02*
Y6840D01*
X5060Y160D02*
Y6840D01*
X5110Y160D02*
Y6840D01*
X5160Y160D02*
Y6840D01*
X5210Y160D02*
Y6840D01*
X5260Y160D02*
Y6840D01*
X5310Y160D02*
Y6840D01*
X5360Y160D02*
Y6840D01*
X5410Y160D02*
Y6840D01*
X5460Y160D02*
Y6840D01*
X5510Y160D02*
Y6840D01*
X5560Y160D02*
Y6840D01*
X5610Y160D02*
Y6840D01*
X5660Y160D02*
Y6840D01*
X6530Y160D02*
Y4880D01*
X5710Y160D02*
Y6840D01*
X6530Y4880D02*
Y5040D01*
Y4880D02*
Y5040D01*
Y5920D01*
Y6080D01*
Y5920D02*
Y6080D01*
X5760Y160D02*
Y6840D01*
X5810Y160D02*
Y6840D01*
X5860Y160D02*
Y6840D01*
X5910Y160D02*
Y6840D01*
X5960Y160D02*
Y6840D01*
X6010Y160D02*
Y6840D01*
X6060Y160D02*
Y6840D01*
X160D02*
X6530D01*
X6110Y160D02*
Y6840D01*
X6160Y160D02*
Y6840D01*
X6210Y160D02*
Y6840D01*
X6260Y160D02*
Y6840D01*
X6310Y160D02*
Y6840D01*
X6360Y160D02*
Y6840D01*
X6410Y160D02*
Y6840D01*
X6460Y160D02*
Y6840D01*
X6510Y160D02*
Y6840D01*
X6530Y6080D02*
Y6840D01*
X6540Y180D02*
X6990D01*
X6540Y230D02*
X6990D01*
X6540Y280D02*
X6990D01*
X6540Y330D02*
X6990D01*
X6540Y380D02*
X6990D01*
X6540Y430D02*
X6990D01*
X6540Y480D02*
X6990D01*
X6540Y530D02*
X6990D01*
X6540Y580D02*
X6990D01*
X6540Y630D02*
X6990D01*
X6540Y680D02*
X6990D01*
X6540Y730D02*
X6990D01*
X6540Y780D02*
X6990D01*
X6540Y830D02*
X6990D01*
X6540Y880D02*
X6990D01*
X6540Y930D02*
X6990D01*
X6540Y980D02*
X6990D01*
X6540Y1030D02*
X6990D01*
X6540Y1080D02*
X6990D01*
X6540Y1130D02*
X6990D01*
X6540Y1180D02*
X6990D01*
X6540Y1230D02*
X6990D01*
X6540Y1280D02*
X6990D01*
X6540Y1330D02*
X6990D01*
X6540Y1380D02*
X6990D01*
X6540Y1430D02*
X6990D01*
X6540Y1480D02*
X6990D01*
X6540Y1530D02*
X6990D01*
X6540Y1580D02*
X6990D01*
X6540Y1630D02*
X6990D01*
X6540Y1680D02*
X6990D01*
X6540Y1730D02*
X6990D01*
X6540Y1780D02*
X6990D01*
X6540Y1830D02*
X6990D01*
X6540Y1880D02*
X6990D01*
X6540Y1930D02*
X6990D01*
X6540Y1980D02*
X6990D01*
X6540Y2030D02*
X6990D01*
X6540Y2080D02*
X6990D01*
X6540Y2130D02*
X6990D01*
X6540Y2180D02*
X6990D01*
X6540Y2230D02*
X6990D01*
X6540Y2280D02*
X6990D01*
X6540Y2330D02*
X6990D01*
X6540Y2380D02*
X6990D01*
X6540Y2430D02*
X6990D01*
X6540Y2480D02*
X6990D01*
X6540Y2530D02*
X6990D01*
X6540Y2580D02*
X6990D01*
X6540Y2630D02*
X6990D01*
X6540Y2680D02*
X6990D01*
X6540Y2730D02*
X6990D01*
X6540Y2780D02*
X6990D01*
X6540Y2830D02*
X6990D01*
X6540Y2880D02*
X6990D01*
X6540Y2930D02*
X6990D01*
X6540Y2980D02*
X6990D01*
X6540Y3030D02*
X6990D01*
X6540Y3080D02*
X6990D01*
X6540Y3130D02*
X6990D01*
X6540Y3180D02*
X6990D01*
X6540Y3230D02*
X6990D01*
X6540Y3280D02*
X6990D01*
X6540Y3330D02*
X6990D01*
X6540Y3380D02*
X6990D01*
X6540Y3430D02*
X6990D01*
X6540Y3480D02*
X6990D01*
X6540Y3530D02*
X6990D01*
X6540Y3580D02*
X6990D01*
X6540Y3630D02*
X6990D01*
X6540Y3680D02*
X6990D01*
X6540Y3730D02*
X6990D01*
X6540Y3780D02*
X6990D01*
X6540Y160D02*
X6990D01*
X6540Y3830D02*
X6990D01*
X6540Y3880D02*
X6990D01*
X6540Y3930D02*
X6990D01*
X6540Y160D02*
Y6840D01*
X6560Y160D02*
Y6840D01*
X6540Y3980D02*
X6990D01*
X6540Y4030D02*
X6990D01*
X6540Y4080D02*
X6990D01*
X6610Y160D02*
Y6840D01*
X6660Y160D02*
Y6840D01*
X6710Y160D02*
Y6840D01*
X6760Y160D02*
Y6840D01*
X6810Y160D02*
Y6840D01*
X6860Y160D02*
Y6840D01*
X6910Y160D02*
Y6840D01*
X6960Y160D02*
Y6840D01*
X6990Y160D02*
Y6840D01*
X6540Y4130D02*
X6990D01*
X6540Y4180D02*
X6990D01*
X6540Y4230D02*
X6990D01*
X6540Y4280D02*
X6990D01*
X6540Y4330D02*
X6990D01*
X6540Y4380D02*
X6990D01*
X6540Y4430D02*
X6990D01*
X6540Y4480D02*
X6990D01*
X6540Y4530D02*
X6990D01*
X6540Y4580D02*
X6990D01*
X6540Y4630D02*
X6990D01*
X6540Y4680D02*
X6990D01*
X6540Y4730D02*
X6990D01*
X6540Y4780D02*
X6990D01*
X6540Y4830D02*
X6990D01*
X6540Y4880D02*
X6990D01*
X6540Y4930D02*
X6990D01*
X6540Y4980D02*
X6990D01*
X6540Y5030D02*
X6990D01*
X6540Y5080D02*
X6990D01*
X6540Y5130D02*
X6990D01*
X6540Y5180D02*
X6990D01*
X6540Y5230D02*
X6990D01*
X6540Y5280D02*
X6990D01*
X6540Y5330D02*
X6990D01*
X6540Y5380D02*
X6990D01*
X6540Y5430D02*
X6990D01*
X6540Y5480D02*
X6990D01*
X6540Y5530D02*
X6990D01*
X6540Y5580D02*
X6990D01*
X6540Y5630D02*
X6990D01*
X6540Y5680D02*
X6990D01*
X6540Y5730D02*
X6990D01*
X6540Y5780D02*
X6990D01*
X6540Y5830D02*
X6990D01*
X6540Y5880D02*
X6990D01*
X6540Y5930D02*
X6990D01*
X6540Y5980D02*
X6990D01*
X6540Y6030D02*
X6990D01*
X6540Y6080D02*
X6990D01*
X6540Y6130D02*
X6990D01*
X6540Y6180D02*
X6990D01*
X6540Y6230D02*
X6990D01*
X6540Y6280D02*
X6990D01*
X6540Y6330D02*
X6990D01*
X6540Y6380D02*
X6990D01*
X6540Y6430D02*
X6990D01*
X6540Y6480D02*
X6990D01*
X6540Y6530D02*
X6990D01*
X6540Y6580D02*
X6990D01*
X6540Y6630D02*
X6990D01*
X6540Y6680D02*
X6990D01*
X6540Y6730D02*
X6990D01*
X6540Y6780D02*
X6990D01*
X6540Y6830D02*
X6990D01*
X6540Y6840D02*
X6990D01*
D21*
X6840Y3000D02*
D03*
X6650Y5700D02*
D03*
X6090Y5600D02*
D03*
X6840Y6690D02*
D03*
X5207D02*
D03*
X3575D02*
D03*
X4260Y6090D02*
D03*
X4450Y5600D02*
D03*
X3780Y5090D02*
D03*
X3220Y4190D02*
D03*
Y3830D02*
D03*
X3740Y2780D02*
D03*
X3380Y2470D02*
D03*
X4260Y1960D02*
D03*
X5790Y1340D02*
D03*
X6840Y1700D02*
D03*
Y310D02*
D03*
X5207D02*
D03*
X4120Y740D02*
D03*
X3590Y1340D02*
D03*
X3575Y310D02*
D03*
X1943D02*
D03*
X310D02*
D03*
X790Y740D02*
D03*
X1260Y1340D02*
D03*
Y1971D02*
D03*
X310Y2270D02*
D03*
X2630Y3580D02*
D03*
X2270D02*
D03*
X2630Y4490D02*
D03*
X2270D02*
D03*
X310Y4068D02*
D03*
X2400Y5930D02*
D03*
X1141Y5448D02*
D03*
X310Y5200D02*
D03*
X1943Y6690D02*
D03*
X310D02*
D03*
X5520Y3840D02*
D03*
Y4250D02*
D03*
X6340Y2340D02*
D03*
X6840Y4180D02*
D03*
X5270Y2000D02*
D03*
X4870D02*
D03*
X5290Y5600D02*
D03*
M02*
