%FSLAX24Y24*%
%MOIN*%
G70*
G01*
G75*
G04 Layer_Color=16711935*
%ADD10R,0.0300X0.0300*%
%ADD11O,0.0118X0.0354*%
%ADD12O,0.0354X0.0118*%
%ADD13R,0.0551X0.0453*%
%ADD14C,0.0300*%
%ADD15C,0.0080*%
%ADD16C,0.0060*%
%ADD17C,0.0070*%
%ADD18C,0.0100*%
%ADD19C,0.0110*%
%ADD20C,0.0200*%
%ADD21C,0.0360*%
%ADD22C,0.0050*%
%ADD23C,0.0043*%
%ADD24R,0.0380X0.0380*%
%ADD25O,0.0198X0.0434*%
%ADD26O,0.0434X0.0198*%
%ADD27R,0.0631X0.0533*%
%ADD28C,0.0440*%
%ADD29C,0.0030*%
D22*
X0Y0D02*
Y7000D01*
X7150D01*
Y0D02*
Y7000D01*
X0Y0D02*
X7150D01*
D29*
X-340Y2630D02*
X-360Y2650D01*
X-400D01*
X-420Y2630D01*
Y2550D01*
X-400Y2530D01*
X-360D01*
X-340Y2550D01*
X-220Y2630D02*
X-240Y2650D01*
X-280D01*
X-300Y2630D01*
Y2610D01*
X-280Y2590D01*
X-240D01*
X-220Y2570D01*
Y2550D01*
X-240Y2530D01*
X-280D01*
X-300Y2550D01*
X-180Y2530D02*
Y2650D01*
X-100Y2530D01*
Y2650D01*
X-340Y2820D02*
X-360Y2840D01*
X-400D01*
X-420Y2820D01*
Y2800D01*
X-400Y2780D01*
X-360D01*
X-340Y2760D01*
Y2740D01*
X-360Y2720D01*
X-400D01*
X-420Y2740D01*
X-220Y2820D02*
X-240Y2840D01*
X-280D01*
X-300Y2820D01*
Y2740D01*
X-280Y2720D01*
X-240D01*
X-220Y2740D01*
X-180Y2840D02*
Y2720D01*
Y2760D01*
X-100Y2840D01*
X-160Y2780D01*
X-100Y2720D01*
X-500Y2910D02*
Y3030D01*
X-460Y2990D01*
X-420Y3030D01*
Y2910D01*
X-320Y3030D02*
X-360D01*
X-380Y3010D01*
Y2930D01*
X-360Y2910D01*
X-320D01*
X-300Y2930D01*
Y3010D01*
X-320Y3030D01*
X-180Y3010D02*
X-200Y3030D01*
X-240D01*
X-260Y3010D01*
Y2990D01*
X-240Y2970D01*
X-200D01*
X-180Y2950D01*
Y2930D01*
X-200Y2910D01*
X-240D01*
X-260Y2930D01*
X-140Y3030D02*
X-100D01*
X-120D01*
Y2910D01*
X-140D01*
X-100D01*
X-520Y3100D02*
Y3220D01*
X-480Y3180D01*
X-440Y3220D01*
Y3100D01*
X-400Y3220D02*
X-360D01*
X-380D01*
Y3100D01*
X-400D01*
X-360D01*
X-220Y3200D02*
X-240Y3220D01*
X-280D01*
X-300Y3200D01*
Y3180D01*
X-280Y3160D01*
X-240D01*
X-220Y3140D01*
Y3120D01*
X-240Y3100D01*
X-280D01*
X-300Y3120D01*
X-120Y3220D02*
X-160D01*
X-180Y3200D01*
Y3120D01*
X-160Y3100D01*
X-120D01*
X-100Y3120D01*
Y3200D01*
X-120Y3220D01*
X-300Y3390D02*
Y3270D01*
X-240D01*
X-220Y3290D01*
Y3370D01*
X-240Y3390D01*
X-300D01*
X-180Y3270D02*
Y3390D01*
X-120D01*
X-100Y3370D01*
Y3330D01*
X-120Y3310D01*
X-180D01*
X-140D02*
X-100Y3270D01*
X-300Y3490D02*
Y3570D01*
X-260Y3610D01*
X-220Y3570D01*
Y3490D01*
Y3550D01*
X-300D01*
X-180Y3490D02*
Y3610D01*
X-140Y3570D01*
X-100Y3610D01*
Y3490D01*
X-220Y3790D02*
X-240Y3810D01*
X-280D01*
X-300Y3790D01*
Y3710D01*
X-280Y3690D01*
X-240D01*
X-220Y3710D01*
X-180Y3810D02*
Y3690D01*
X-120D01*
X-100Y3710D01*
Y3790D01*
X-120Y3810D01*
X-180D01*
X-660Y4390D02*
Y4330D01*
X-640Y4310D01*
X-580D01*
Y4390D01*
X-540Y4310D02*
Y4430D01*
X-480D01*
X-460Y4410D01*
Y4370D01*
X-480Y4350D01*
X-540D01*
X-340Y4410D02*
X-360Y4430D01*
X-400D01*
X-420Y4410D01*
Y4330D01*
X-400Y4310D01*
X-360D01*
X-340Y4330D01*
X-300Y4430D02*
Y4310D01*
X-220D01*
X-180Y4430D02*
Y4310D01*
Y4350D01*
X-100Y4430D01*
X-160Y4370D01*
X-100Y4310D01*
X-780Y4480D02*
Y4600D01*
X-720D01*
X-700Y4580D01*
Y4540D01*
X-720Y4520D01*
X-780D01*
X-660Y4600D02*
Y4480D01*
X-620Y4520D01*
X-580Y4480D01*
Y4600D01*
X-540Y4480D02*
Y4600D01*
X-480D01*
X-460Y4580D01*
Y4540D01*
X-480Y4520D01*
X-540D01*
X-500D02*
X-460Y4480D01*
X-420Y4460D02*
X-340D01*
X-300Y4600D02*
Y4500D01*
X-280Y4480D01*
X-240D01*
X-220Y4500D01*
Y4600D01*
X-180Y4480D02*
Y4600D01*
X-120D01*
X-100Y4580D01*
Y4540D01*
X-120Y4520D01*
X-180D01*
X-780Y4780D02*
X-700D01*
X-740D01*
Y4660D01*
X-660D02*
Y4780D01*
X-600D01*
X-580Y4760D01*
Y4720D01*
X-600Y4700D01*
X-660D01*
X-620D02*
X-580Y4660D01*
X-540Y4780D02*
X-460Y4660D01*
Y4780D02*
X-540Y4660D01*
X-420Y4640D02*
X-340D01*
X-220Y4760D02*
X-240Y4780D01*
X-280D01*
X-300Y4760D01*
Y4680D01*
X-280Y4660D01*
X-240D01*
X-220Y4680D01*
X-100Y4780D02*
X-180D01*
Y4660D01*
X-100D01*
X-180Y4720D02*
X-140D01*
X-540Y4940D02*
X-460D01*
X-500D01*
Y4820D01*
X-420Y4940D02*
X-340Y4820D01*
Y4940D02*
X-420Y4820D01*
X-220Y4940D02*
X-300D01*
Y4820D01*
X-220D01*
X-300Y4880D02*
X-260D01*
X-180Y4820D02*
Y4940D01*
X-100Y4820D01*
Y4940D01*
X-420Y5640D02*
Y5560D01*
X-380Y5520D01*
X-340Y5560D01*
Y5640D01*
X-300D02*
Y5520D01*
X-240D01*
X-220Y5540D01*
Y5620D01*
X-240Y5640D01*
X-300D01*
X-180D02*
Y5520D01*
X-120D01*
X-100Y5540D01*
Y5620D01*
X-120Y5640D01*
X-180D01*
X-340Y6200D02*
X-360Y6220D01*
X-400D01*
X-420Y6200D01*
Y6120D01*
X-400Y6100D01*
X-360D01*
X-340Y6120D01*
Y6160D01*
X-380D01*
X-300Y6100D02*
Y6220D01*
X-220Y6100D01*
Y6220D01*
X-180D02*
Y6100D01*
X-120D01*
X-100Y6120D01*
Y6200D01*
X-120Y6220D01*
X-180D01*
X7330Y4770D02*
X7250D01*
Y4710D01*
X7290Y4730D01*
X7310D01*
X7330Y4710D01*
Y4670D01*
X7310Y4650D01*
X7270D01*
X7250Y4670D01*
X7370Y4750D02*
X7390Y4770D01*
X7430D01*
X7450Y4750D01*
Y4670D01*
X7430Y4650D01*
X7390D01*
X7370Y4670D01*
Y4750D01*
X7630Y4650D02*
X7670D01*
X7690Y4670D01*
Y4710D01*
X7670Y4730D01*
X7630D01*
X7610Y4710D01*
Y4670D01*
X7630Y4650D01*
X7730Y4770D02*
Y4650D01*
Y4710D01*
X7750Y4730D01*
X7790D01*
X7810Y4710D01*
Y4650D01*
X7850D02*
Y4730D01*
X7870D01*
X7890Y4710D01*
Y4650D01*
Y4710D01*
X7910Y4730D01*
X7930Y4710D01*
Y4650D01*
X8090D02*
Y4770D01*
X8150D01*
X8170Y4750D01*
Y4710D01*
X8150Y4690D01*
X8090D01*
X8130D02*
X8170Y4650D01*
X8290Y4770D02*
X8210D01*
Y4710D01*
X8250D01*
X8210D01*
Y4650D01*
X8450Y4770D02*
X8490D01*
X8470D01*
Y4650D01*
X8450D01*
X8490D01*
X8550D02*
X8630Y4730D01*
X8730Y4770D02*
X8690D01*
X8670Y4750D01*
Y4670D01*
X8690Y4650D01*
X8730D01*
X8750Y4670D01*
Y4750D01*
X8730Y4770D01*
M02*
